<?xml version="1.0" encoding="UTF-8" standalone="no"?>
<!-- Created with Inkscape (http://www.inkscape.org/) -->

<svg
   width="210mm"
   height="297mm"
   viewBox="0 0 210 297"
   version="1.1"
   id="svg1"
   inkscape:version="1.3 (0e150ed6c4, 2023-07-21)"
   sodipodi:docname="sig.svg"
   xmlns:inkscape="http://www.inkscape.org/namespaces/inkscape"
   xmlns:sodipodi="http://sodipodi.sourceforge.net/DTD/sodipodi-0.dtd"
   xmlns="http://www.w3.org/2000/svg"
   xmlns:svg="http://www.w3.org/2000/svg">
  <sodipodi:namedview
     id="namedview1"
     pagecolor="#ffffff"
     bordercolor="#666666"
     borderopacity="1.0"
     inkscape:showpageshadow="2"
     inkscape:pageopacity="0.0"
     inkscape:pagecheckerboard="0"
     inkscape:deskcolor="#d1d1d1"
     inkscape:document-units="mm"
     inkscape:zoom="5.9515614"
     inkscape:cx="265.30853"
     inkscape:cy="324.70471"
     inkscape:window-width="1350"
     inkscape:window-height="1237"
     inkscape:window-x="178"
     inkscape:window-y="271"
     inkscape:window-maximized="0"
     inkscape:current-layer="layer1" />
  <defs
     id="defs1" />
  <g
     inkscape:label="Layer 1"
     inkscape:groupmode="layer"
     id="layer1">
    <path
       d="m 64.483754,82.974194 q 0,0.03277 -0.03025,0.05293 -0.02773,0.02016 -0.06806,0.02269 l -0.433541,0.03277 -0.29995,0.02521 -0.156277,0.0126 q -0.02016,0 -0.03781,-0.02521 -0.01512,-0.02521 -0.01512,-0.04789 0,-0.01765 0.01008,-0.02521 0.0126,-0.01008 0.02521,-0.0126 0.01512,-0.005 0.02016,-0.0076 0.0025,-0.136112 0.0025,-0.635189 0,-0.368005 -0.03025,-0.569653 -0.02773,-0.204167 -0.02773,-0.219291 0,-0.03529 0.02521,-0.05545 0.02772,-0.02016 0.05545,-0.02016 0.01765,0 0.02773,0.01512 0.01008,0.0126 0.01512,0.04285 0.02521,0.0857 0.03781,0.315074 0.01512,0.229373 0.01512,0.478911 0,0.21173 -0.0025,0.393212 -0.0025,0.181482 -0.0025,0.244497 0.03277,-0.0025 0.126029,-0.0076 0.09326,-0.0076 0.191565,-0.01512 0.146194,-0.01765 0.330197,-0.05293 0.148715,-0.02772 0.178962,-0.02772 0.02773,0 0.03529,0.02521 0.0076,0.02521 0.0076,0.06049 z m 1.091416,-0.335238 q 0,0.0983 -0.0731,0.226853 -0.0731,0.12855 -0.206688,0.221811 -0.133591,0.09074 -0.304991,0.09074 -0.168879,0 -0.249538,-0.09326 -0.08066,-0.09326 -0.08066,-0.231894 0,-0.120988 0.04285,-0.29995 0.04537,-0.178962 0.126029,-0.320115 0.005,-0.01008 0.04033,-0.0731 0.03781,-0.06553 0.08318,-0.0983 0.04537,-0.03529 0.09578,-0.03529 0.02269,0 0.04033,0.0126 0.02016,0.01008 0.02016,0.02772 0,0.005 -0.01512,0.02521 -0.0126,0.01765 -0.02016,0.02773 -0.0857,0.103344 -0.138632,0.204167 -0.07058,0.12855 -0.110906,0.25458 -0.03781,0.126029 -0.03781,0.274744 0,0.199126 0.241977,0.199126 0.113426,0 0.209209,-0.06553 0.0983,-0.06554 0.156276,-0.158797 0.05797,-0.09578 0.05797,-0.173921 0,-0.08822 -0.05797,-0.153756 -0.05797,-0.06553 -0.158797,-0.138632 -0.06554,-0.04789 -0.09578,-0.07814 -0.03025,-0.03025 -0.03025,-0.05041 0,-0.03025 0.04285,-0.04789 0.04285,-0.02016 0.100823,-0.02016 0.03277,0 0.04285,0.005 0.01008,0.0025 0.01008,0.0126 0,0.005 -0.01008,0.01765 -0.0076,0.01008 -0.0076,0.01765 0,0.0076 0.05041,0.05041 0.100824,0.08318 0.168879,0.168879 0.06806,0.0857 0.06806,0.201647 z m 1.351034,-0.564612 q 0,0.03529 -0.03529,0.07562 -0.03277,0.03781 -0.06302,0.03781 -0.02016,0 -0.04537,-0.02016 -0.02521,-0.02269 -0.03529,-0.02269 -0.06806,0 -0.21677,0.09326 -0.148715,0.09326 -0.304991,0.219291 -0.156277,0.12603 -0.239456,0.21425 l 0.0025,0.04537 q 0.191565,0.08822 0.42598,0.189044 0.234414,0.100824 0.325155,0.118468 0.03529,0.005 0.07058,0.0076 0.03529,0.0025 0.05041,0.0025 0.02268,0 0.03781,0.0025 0.01512,0.0025 0.01512,0.01008 0,0.03025 -0.04789,0.06049 -0.04537,0.03025 -0.138632,0.03025 -0.08318,0 -0.226853,-0.06049 -0.141153,-0.06302 -0.335238,-0.163838 l -0.158798,-0.07814 q 0.03277,0.320115 0.03277,0.352883 0,0.02772 -0.02773,0.04537 -0.02773,0.01765 -0.06049,0.01765 -0.02016,0 -0.03277,-0.06049 -0.0126,-0.06049 -0.03025,-0.239456 l -0.01765,-0.153756 q -0.03025,-0.0126 -0.05293,-0.03529 -0.02268,-0.02521 -0.02268,-0.04537 0,-0.03025 0.05041,-0.07058 -0.0025,-0.136112 -0.01512,-0.38817 -0.01008,-0.252059 -0.01512,-0.368006 l -0.0126,-0.350362 q 0,-0.07058 0.01765,-0.120988 0.01765,-0.05041 0.07814,-0.05041 0.02269,0 0.03025,0.01008 0.0076,0.0076 0.0076,0.03277 0,0.115947 0.01512,0.539406 0.01765,0.420938 0.02773,0.5999 0.562091,-0.534365 0.821712,-0.534365 0.05293,0 0.08822,0.02016 0.03781,0.01765 0.03781,0.03781 z m 0.239454,-0.491515 q 0,0.03781 -0.08318,0.03781 -0.04285,0 -0.08822,-0.03529 -0.04285,-0.03529 -0.04285,-0.05797 0,-0.02773 0.02521,-0.05293 0.02773,-0.02521 0.05545,-0.02521 0,0 0.01765,0.0076 0.02016,0.005 0.04537,0.03277 0.02016,0.02016 0.04537,0.05293 0.02521,0.03277 0.02521,0.04033 z m 0.06302,1.58545 q 0,0.02521 -0.02268,0.03781 -0.02016,0.01512 -0.04789,0.0126 -0.03529,-0.0025 -0.05293,-0.113426 -0.01512,-0.110906 -0.03277,-0.420939 -0.01008,-0.204167 -0.01765,-0.398253 -0.0076,-0.196605 -0.01008,-0.30247 0,-0.02773 0.0076,-0.04033 0.01008,-0.01512 0.03529,-0.01512 0.05797,0 0.0731,0.04789 0.01512,0.04789 0.01512,0.184003 l -0.0025,0.29743 q 0,0.254579 0.01512,0.408335 0,0.0076 0.02268,0.161317 0.01765,0.105865 0.01765,0.141153 z m 2.535714,-1.461941 q 0,0.181483 -0.01512,0.388171 -0.01512,0.206688 -0.03277,0.365485 -0.0126,0.136112 -0.04789,0.29995 -0.03529,0.163838 -0.0857,0.282306 -0.05041,0.115947 -0.103344,0.115947 -0.03277,0 -0.07562,-0.113427 -0.04285,-0.113426 -0.110906,-0.332717 L 69.250187,82.5709 q -0.04537,-0.146194 -0.100823,-0.294909 -0.05545,-0.151235 -0.0857,-0.21425 l -0.108385,0.370526 q -0.148715,0.509159 -0.216771,0.698203 -0.0025,0.005 -0.01512,0.03529 -0.01008,0.03277 -0.03781,0.04789 -0.02773,0.01765 -0.0731,0.01765 -0.01008,0 -0.04285,-0.131071 -0.03025,-0.13107 -0.06302,-0.289867 -0.08318,-0.360444 -0.08822,-0.380609 -0.06049,-0.247018 -0.100823,-0.370527 -0.03781,-0.123508 -0.06806,-0.148714 -0.04285,-0.03277 -0.04285,-0.07058 0,-0.01765 0.02521,-0.03781 0.02773,-0.02269 0.06302,-0.02269 0.03025,0 0.04789,0.005 0.01765,0.0025 0.02773,0.02016 0.03529,0.05797 0.136112,0.488994 0.01008,0.03277 0.02521,0.0983 0.05293,0.219291 0.08822,0.378088 0.02016,0.08066 0.03277,0.146194 0.01512,0.06301 0.02521,0.09578 0.0025,-0.02268 0.05041,-0.176441 0.08318,-0.2571 0.12855,-0.436062 0.04789,-0.181482 0.08822,-0.29995 0.04033,-0.120988 0.06301,-0.151235 0.01512,-0.01765 0.04033,-0.03025 0.02773,-0.01512 0.05293,-0.01512 0.01765,0 0.02773,0.0126 0.01008,0.01008 0.01765,0.02773 0.0076,0.01765 0.01512,0.03025 0.02521,0.05041 0.08066,0.211729 0.05797,0.161318 0.103344,0.317594 l 0.03529,0.115948 q 0.08066,0.279785 0.118467,0.373047 0.08822,-0.176442 0.120989,-0.589818 0.01765,-0.156276 0.01765,-0.441103 l -0.0025,-0.254579 q 0,-0.03277 0.0076,-0.04537 0.0076,-0.01512 0.03529,-0.01512 0.03025,0 0.05797,0.02016 0.02773,0.01765 0.02773,0.04033 z m 1.338431,1.293062 q 0.0025,0.01765 0.02016,0.03781 0.01765,0.01765 0.01765,0.03025 0,0.03025 -0.02521,0.07058 -0.02521,0.03781 -0.05041,0.03781 -0.04285,0 -0.06554,-0.05293 -0.02268,-0.05293 -0.02268,-0.123509 0,-0.06049 0.0076,-0.362965 l 0.0025,-0.09578 q 0,-0.05797 -0.03025,-0.08318 -0.113426,0.191565 -0.211729,0.332718 -0.0983,0.141153 -0.249538,0.267182 -0.151236,0.123509 -0.317595,0.123509 -0.08066,0 -0.126029,-0.05041 -0.04285,-0.05041 -0.04285,-0.13107 0,-0.100824 0.09074,-0.274744 0.09074,-0.176441 0.231894,-0.355403 0.141153,-0.181483 0.282306,-0.29743 0.09326,-0.07562 0.148715,-0.100823 0.05545,-0.02773 0.0983,-0.02773 0.04033,0 0.08318,0.02521 0.04285,0.02521 0.0731,0.07058 0.03025,0.04537 0.03025,0.103344 0,0.07814 -0.04285,0.148715 l 0.04285,-0.0126 q 0.02773,0 0.03277,0.06806 0.0025,0.04033 0.005,0.163838 0.005,0.123509 0.0076,0.204168 0.0025,0.08318 0.005,0.161317 0.0025,0.07814 0.005,0.123509 z m -0.889767,0.04537 q 0.136112,0 0.262141,-0.100823 0.126029,-0.100824 0.224332,-0.239456 0.100824,-0.141153 0.221812,-0.34532 0.03025,-0.07562 0.03025,-0.163839 0,-0.05293 -0.03277,-0.09074 -0.03025,-0.04033 -0.08318,-0.04033 -0.06301,0 -0.161318,0.0857 -0.113426,0.09578 -0.239455,0.2571 -0.12603,0.158797 -0.209209,0.315073 -0.08318,0.156277 -0.08318,0.247018 0,0.07562 0.07058,0.07562 z m 2.087045,-0.236935 q 0,0.110906 -0.09074,0.21425 -0.08822,0.100824 -0.234415,0.161318 -0.146194,0.06302 -0.304991,0.06302 -0.108385,0 -0.146194,-0.02016 -0.03781,-0.02016 -0.03781,-0.05545 0,-0.02268 0.05797,-0.07814 0.05797,-0.05797 0.07814,-0.05797 0.03025,0 0.03025,0.0126 0,0.01008 -0.0126,0.02016 -0.0126,0.01008 -0.0126,0.01765 0,0.01008 0.03025,0.02016 0.03277,0.01008 0.07814,0.01008 0.105865,0 0.21173,-0.03781 0.108385,-0.04033 0.176441,-0.103344 0.06806,-0.06301 0.06806,-0.133591 0,-0.06806 -0.04285,-0.108385 -0.04285,-0.04033 -0.108385,-0.05797 -0.06301,-0.02016 -0.21425,-0.05545 -0.166359,-0.03781 -0.259621,-0.06553 -0.09074,-0.03025 -0.146194,-0.0731 -0.05545,-0.04537 -0.05545,-0.113427 0,-0.120988 0.118468,-0.221811 0.118467,-0.100824 0.272223,-0.158797 0.153756,-0.05797 0.236935,-0.05797 0.0857,0 0.0857,0.05041 0,0.03025 -0.02016,0.06806 -0.02016,0.03529 -0.06049,0.03529 -0.01512,0 -0.03277,-0.01008 -0.01765,-0.0126 -0.03529,-0.0126 -0.05041,0 -0.158797,0.03277 -0.108385,0.03277 -0.196605,0.0983 -0.08822,0.06553 -0.08822,0.158797 0,0.06049 0.06806,0.09074 0.07058,0.02773 0.259621,0.07058 0.02268,0.0076 0.04537,0.0126 0.02269,0.0025 0.04033,0.0076 0.194086,0.04537 0.29743,0.103345 0.103344,0.05797 0.103344,0.17392 z m 2.389518,-0.332717 q 0,0.04033 -0.05797,0.05797 -0.04537,0.01512 -0.110908,0.02016 -0.06301,0.0025 -0.08318,0.0025 -0.0024,0.07814 -0.01009,0.173921 -0.0076,0.09578 -0.01259,0.158797 l -0.0076,0.07814 -0.005,0.08066 -0.01512,0.194085 q -0.01009,0.12855 -0.08318,0.12855 -0.02772,0 -0.05545,-0.06553 -0.02521,-0.06302 -0.02521,-0.103344 0,-0.01008 0.02016,-0.04033 0.02016,-0.03025 0.02521,-0.07562 0.01008,-0.07058 0.02268,-0.234415 0.0126,-0.163838 0.01765,-0.274744 -0.0983,0.0076 -0.211729,0.02268 -0.05041,0.005 -0.226853,0.02268 -0.176441,0.01765 -0.277265,0.02269 -0.01008,0.166358 -0.02269,0.405814 -0.0126,0.239456 -0.0126,0.292388 0,0.02016 0.005,0.05293 0.0076,0.03277 0.0076,0.05041 0,0.02268 -0.03529,0.04537 -0.03277,0.02269 -0.05293,0.02269 -0.02521,0 -0.04285,-0.03277 -0.01512,-0.03277 -0.01512,-0.07562 0,-0.02269 0.005,-0.07562 0.005,-0.05041 0.0076,-0.08822 0.01008,-0.06806 0.0126,-0.110906 0.0126,-0.148715 0.02016,-0.287347 0.0076,-0.138632 0.01008,-0.186523 -0.158797,0.02773 -0.29995,0.02773 -0.04789,0 -0.08066,-0.02269 -0.03529,-0.02521 -0.03529,-0.07058 0,-0.03277 0.01764,-0.04789 0.01512,-0.01765 0.06554,-0.01765 l 0.133591,0.0025 q 0.131071,0.005 0.21173,0.005 0.0126,-0.21425 0.0126,-0.3428 0,-0.292388 -0.005,-0.524282 v -0.09326 q 0,-0.03781 0.02773,-0.06049 0.03025,-0.02521 0.06806,-0.02521 0.02773,0 0.03781,0.04285 0.01008,0.04285 0.01008,0.09578 0,0.05545 -0.0126,0.226853 -0.01512,0.292388 -0.01512,0.310033 l -0.0126,0.360444 q 0.211729,-0.005 0.718367,-0.06554 0.01008,-0.0731 0.03529,-0.383129 0.01009,-0.163838 0.01765,-0.239456 l 0.01512,-0.196606 q 0.03277,-0.370526 0.03277,-0.463788 0,-0.03277 0.02522,-0.05293 0.02522,-0.02016 0.05798,-0.02016 0.04537,0 0.04537,0.08822 0,0.05545 -0.02522,0.294908 -0.02772,0.312553 -0.03025,0.347842 -0.01512,0.194085 -0.03025,0.370526 -0.01259,0.176441 -0.01765,0.236935 0.04537,-0.0076 0.08066,-0.02269 0.04537,-0.01512 0.07058,-0.01512 0.02522,0 0.05797,0.03025 0.03277,0.03025 0.03277,0.04285 z m 1.225005,0.04285 q 0.01765,0 0.01765,0.03781 0,0.04537 -0.06806,0.199127 -0.06554,0.153756 -0.201649,0.284826 -0.13359,0.131071 -0.330196,0.131071 -0.161316,0 -0.269702,-0.100824 -0.108386,-0.100823 -0.108386,-0.310032 0,-0.196606 0.09074,-0.388171 0.09074,-0.194085 0.236936,-0.315073 0.146192,-0.123509 0.30247,-0.123509 0.09326,0 0.156276,0.04285 0.06553,0.04033 0.06553,0.118468 0,0.08822 -0.100821,0.1714 -0.0983,0.08318 -0.2571,0.146194 -0.158797,0.06301 -0.327678,0.09074 -0.03025,0.115947 -0.03025,0.226853 0,0.146194 0.06806,0.226853 0.07058,0.08066 0.199128,0.08066 0.194084,0 0.315072,-0.138633 0.120988,-0.138632 0.201646,-0.312553 0.005,-0.01008 0.01765,-0.03781 0.01259,-0.03025 0.02268,-0.03025 z m -0.221812,-0.395733 q 0,-0.04033 -0.04285,-0.06302 -0.04033,-0.02268 -0.09578,-0.02268 -0.09578,0 -0.184003,0.06301 -0.08822,0.06302 -0.148714,0.151235 -0.05797,0.08822 -0.07562,0.156277 0.115948,-0.0126 0.244495,-0.06554 0.12855,-0.05293 0.214251,-0.115947 0.08822,-0.06301 0.08822,-0.103344 z m 1.303147,-0.02269 q 0,0.02269 -0.03277,0.05293 -0.03025,0.02773 -0.05293,0.02773 -0.01765,0 -0.03529,-0.01512 -0.01512,-0.01512 -0.03529,-0.04285 -0.01765,-0.02521 -0.04789,-0.04285 -0.02772,-0.01765 -0.05797,-0.01765 -0.0731,0 -0.196606,0.194085 -0.123509,0.191565 -0.241979,0.483953 0.0024,0.05797 0.0076,0.146194 0.0076,0.08822 0.01009,0.131071 l 0.0076,0.100824 q 0,0.03529 -0.01512,0.06049 -0.01512,0.02773 -0.05545,0.02773 -0.04285,0 -0.05545,-0.113426 -0.01259,-0.115947 -0.01512,-0.335238 -0.0024,-0.05545 -0.005,-0.158798 0,-0.103344 -0.005,-0.247017 -0.0076,-0.216771 -0.0076,-0.310033 0,-0.05797 0.07058,-0.05797 0.04285,0 0.05041,0.03781 0.01009,0.03529 0.01009,0.138632 v 0.400773 q 0.07562,-0.194085 0.163837,-0.335238 0.08822,-0.141153 0.171402,-0.21425 0.0857,-0.07562 0.151235,-0.07562 0.05545,0 0.105865,0.02521 0.05041,0.02521 0.08066,0.06553 0.03025,0.03781 0.03025,0.0731 z m 1.131743,0.418418 q 0.01765,0 0.01765,0.03781 0,0.04537 -0.06806,0.199127 -0.06553,0.153756 -0.201646,0.284826 -0.13359,0.131071 -0.330196,0.131071 -0.161318,0 -0.269705,-0.100824 -0.108383,-0.100823 -0.108383,-0.310032 0,-0.196606 0.09074,-0.388171 0.09074,-0.194085 0.236933,-0.315073 0.146195,-0.123509 0.302471,-0.123509 0.09326,0 0.156278,0.04285 0.06553,0.04033 0.06553,0.118468 0,0.08822 -0.100824,0.1714 -0.0983,0.08318 -0.2571,0.146194 -0.158797,0.06301 -0.327674,0.09074 -0.03025,0.115947 -0.03025,0.226853 0,0.146194 0.06806,0.226853 0.07057,0.08066 0.199124,0.08066 0.194087,0 0.315075,-0.138633 0.120989,-0.138632 0.201646,-0.312553 0.005,-0.01008 0.01765,-0.03781 0.01259,-0.03025 0.02269,-0.03025 z M 77.905889,82.12223 q 0,-0.04033 -0.04285,-0.06302 -0.04033,-0.02268 -0.09578,-0.02268 -0.09578,0 -0.184001,0.06301 -0.08822,0.06302 -0.148717,0.151235 -0.05797,0.08822 -0.07562,0.156277 0.115948,-0.0126 0.244498,-0.06554 0.12855,-0.05293 0.214251,-0.115947 0.08822,-0.06301 0.08822,-0.103344 z"
       id="text1"
       style="font-size:8.46667px;line-height:1.25;font-family:'Ink Free';-inkscape-font-specification:'Ink Free';letter-spacing:0px;word-spacing:0px;stroke-width:0.0787682"
       aria-label="Loki Was Here" />
  </g>
</svg>
