%TF.GenerationSoftware,KiCad,Pcbnew,8.0.0*%
%TF.CreationDate,2024-03-08T11:25:02-06:00*%
%TF.ProjectId,untitled,756e7469-746c-4656-942e-6b696361645f,rev?*%
%TF.SameCoordinates,Original*%
%TF.FileFunction,Copper,L1,Top*%
%TF.FilePolarity,Positive*%
%FSLAX46Y46*%
G04 Gerber Fmt 4.6, Leading zero omitted, Abs format (unit mm)*
G04 Created by KiCad (PCBNEW 8.0.0) date 2024-03-08 11:25:02*
%MOMM*%
%LPD*%
G01*
G04 APERTURE LIST*
%TA.AperFunction,NonConductor*%
%ADD10C,0.000000*%
%TD*%
%TA.AperFunction,NonConductor*%
%ADD11C,0.600000*%
%TD*%
%TA.AperFunction,Conductor*%
%ADD12C,0.406400*%
%TD*%
G04 APERTURE END LIST*
D10*
%TA.AperFunction,NonConductor*%
G36*
X-424590Y2561790D02*
G01*
X-308910Y2413280D01*
X-166320Y2290040D01*
X-5560Y2198400D01*
X144220Y2146250D01*
X362000Y2100430D01*
X668660Y2084630D01*
X851740Y2089380D01*
X1315190Y2135200D01*
X1352930Y2132860D01*
X1382600Y2109420D01*
X1393620Y2073250D01*
X1382060Y2037230D01*
X1377800Y2029330D01*
X1355270Y2005890D01*
X1325420Y1993010D01*
X783130Y1947980D01*
X414220Y1955090D01*
X120930Y2007210D01*
X-85450Y2083050D01*
X-265330Y2188920D01*
X-419480Y2324810D01*
X-544450Y2485950D01*
X-557250Y2522070D01*
X-548230Y2559280D01*
X-520290Y2585490D01*
X-467770Y2592530D01*
X-424590Y2561790D01*
G37*
%TD.AperFunction*%
%TA.AperFunction,NonConductor*%
G36*
X16807380Y7624110D02*
G01*
X16825620Y7609890D01*
X16835760Y7587770D01*
X16848530Y7453380D01*
X16832760Y7319310D01*
X16787390Y7204660D01*
X16718100Y7102650D01*
X16626970Y7019320D01*
X16520160Y6957360D01*
X16331540Y6887850D01*
X16260700Y6870470D01*
X15983100Y6832550D01*
X15536900Y6829370D01*
X15184270Y6854670D01*
X15145440Y6875810D01*
X15125010Y6915000D01*
X15129940Y6958940D01*
X15160600Y6991250D01*
X15204950Y6995290D01*
X15685590Y6965260D01*
X16022500Y6971590D01*
X16265190Y7009510D01*
X16440120Y7067960D01*
X16528720Y7116930D01*
X16621300Y7198790D01*
X16684800Y7304790D01*
X16713250Y7425060D01*
X16704010Y7548270D01*
X16717590Y7596100D01*
X16757700Y7625490D01*
X16807380Y7624110D01*
G37*
%TD.AperFunction*%
%TA.AperFunction,NonConductor*%
G36*
X-610030Y5680150D02*
G01*
X-591240Y5639330D01*
X-600630Y5595390D01*
X-756440Y5288890D01*
X-853110Y5009740D01*
X-913820Y4720640D01*
X-937560Y4426200D01*
X-924280Y4086500D01*
X-872260Y3743630D01*
X-787680Y3402360D01*
X-609730Y2888870D01*
X-610570Y2844040D01*
X-640970Y2811120D01*
X-685570Y2806700D01*
X-700300Y2809850D01*
X-726690Y2824200D01*
X-745290Y2847770D01*
X-876000Y3206450D01*
X-977770Y3565090D01*
X-1046510Y3917440D01*
X-1078660Y4274520D01*
X-1073610Y4564940D01*
X-1035020Y4852850D01*
X-963500Y5134360D01*
X-859920Y5405730D01*
X-725700Y5663340D01*
X-693950Y5695140D01*
X-649500Y5701590D01*
X-610030Y5680150D01*
G37*
%TD.AperFunction*%
%TA.AperFunction,NonConductor*%
G36*
X7812460Y17672910D02*
G01*
X7826380Y17655540D01*
X7840170Y17513730D01*
X7822690Y17372300D01*
X7774810Y17238120D01*
X7698820Y17117570D01*
X7598360Y17016530D01*
X7478290Y16939790D01*
X7285280Y16854470D01*
X7030260Y16781810D01*
X6631970Y16720190D01*
X6251500Y16692520D01*
X6239640Y16694910D01*
X6234890Y16696490D01*
X6202050Y16724100D01*
X6191730Y16765750D01*
X6207940Y16805500D01*
X6253450Y16833950D01*
X6718170Y16870270D01*
X7089780Y16936640D01*
X7262750Y16991940D01*
X7408320Y17061460D01*
X7520310Y17137410D01*
X7609710Y17238980D01*
X7670880Y17359710D01*
X7699860Y17491890D01*
X7694800Y17627090D01*
X7704580Y17665010D01*
X7735240Y17689350D01*
X7774360Y17690310D01*
X7812460Y17672910D01*
G37*
%TD.AperFunction*%
%TA.AperFunction,NonConductor*%
G36*
X1558620Y24985470D02*
G01*
X1587550Y24961470D01*
X1602920Y24929190D01*
X1600630Y24893520D01*
X1581250Y24863500D01*
X1254330Y24522230D01*
X1073790Y24375290D01*
X870790Y24248870D01*
X655070Y24158830D01*
X452880Y24116160D01*
X273610Y24111430D01*
X233580Y24114580D01*
X56060Y24147600D01*
X-113000Y24210950D01*
X-371860Y24356310D01*
X-413310Y24400560D01*
X-424150Y24445520D01*
X-404090Y24487200D01*
X-362150Y24506760D01*
X-317350Y24495350D01*
X-114960Y24370540D01*
X-108460Y24367390D01*
X57450Y24296090D01*
X234140Y24258680D01*
X414710Y24256620D01*
X592180Y24289970D01*
X791970Y24370390D01*
X976680Y24481130D01*
X1191620Y24656520D01*
X1488290Y24970940D01*
X1521210Y24989050D01*
X1558620Y24985470D01*
G37*
%TD.AperFunction*%
%TA.AperFunction,NonConductor*%
G36*
X21689920Y5685460D02*
G01*
X21709100Y5664170D01*
X21716540Y5636490D01*
X21725560Y5409920D01*
X21704050Y5184190D01*
X21652460Y4963390D01*
X21582910Y4808650D01*
X21482990Y4671540D01*
X21356900Y4558000D01*
X21210140Y4472910D01*
X21049010Y4419880D01*
X20861200Y4385130D01*
X20630920Y4377210D01*
X20383450Y4394610D01*
X20335010Y4407430D01*
X20304510Y4447180D01*
X20304660Y4497300D01*
X20335770Y4533570D01*
X20383420Y4536800D01*
X20589490Y4518810D01*
X20796300Y4524630D01*
X21001050Y4554170D01*
X21153350Y4603470D01*
X21290130Y4686630D01*
X21404000Y4799150D01*
X21488760Y4934940D01*
X21539860Y5086630D01*
X21577250Y5326810D01*
X21574480Y5638060D01*
X21585730Y5675780D01*
X21616190Y5700750D01*
X21655380Y5704380D01*
X21689920Y5685460D01*
G37*
%TD.AperFunction*%
%TA.AperFunction,NonConductor*%
G36*
X16765520Y26001090D02*
G01*
X16969690Y25934750D01*
X17142260Y25841530D01*
X17297170Y25715110D01*
X17426840Y25560270D01*
X17548120Y25342240D01*
X17612510Y25177930D01*
X17684570Y24896670D01*
X17673900Y24849200D01*
X17636490Y24818040D01*
X17587870Y24816100D01*
X17562830Y24831450D01*
X17548680Y24857180D01*
X17463140Y25177930D01*
X17360720Y25403860D01*
X17252980Y25557120D01*
X17143910Y25664460D01*
X17018910Y25752810D01*
X16881300Y25819790D01*
X16734660Y25863650D01*
X16518000Y25895250D01*
X16321990Y25898400D01*
X15999050Y25865230D01*
X15953770Y25871810D01*
X15920520Y25903280D01*
X15911470Y25948130D01*
X15929890Y25990040D01*
X15954580Y26001090D01*
X16252900Y26035860D01*
X16489270Y26037440D01*
X16765520Y26001090D01*
G37*
%TD.AperFunction*%
%TA.AperFunction,NonConductor*%
G36*
X12120190Y9415680D02*
G01*
X12149860Y9393710D01*
X12169040Y9347100D01*
X12154280Y9298910D01*
X11699140Y8706410D01*
X11357660Y8192920D01*
X11066500Y7646240D01*
X11031320Y7615380D01*
X10984590Y7617790D01*
X10975370Y7622540D01*
X10957990Y7639910D01*
X10946740Y7654140D01*
X10943790Y7658890D01*
X10941530Y7663610D01*
X10937700Y7685740D01*
X10937900Y7699960D01*
X10939090Y7706280D01*
X10941150Y7712610D01*
X11178340Y8169220D01*
X11446000Y8592670D01*
X11895050Y9200970D01*
X12052270Y9396880D01*
X12083310Y9416900D01*
X12120190Y9415680D01*
G37*
%TD.AperFunction*%
%TA.AperFunction,NonConductor*%
G36*
X18580250Y13323190D02*
G01*
X18840810Y13202360D01*
X19085050Y13051260D01*
X19309490Y12872060D01*
X19510910Y12667310D01*
X19686400Y12439950D01*
X19841460Y12193470D01*
X20017940Y11830080D01*
X20017710Y11782300D01*
X19984420Y11748010D01*
X19936660Y11746330D01*
X19929980Y11747930D01*
X19921070Y11751080D01*
X19883760Y11785830D01*
X19665570Y12217170D01*
X19512790Y12441530D01*
X19353780Y12631170D01*
X19175170Y12802440D01*
X18979060Y12953370D01*
X18767760Y13082170D01*
X18543730Y13187300D01*
X18510550Y13216360D01*
X18500060Y13259210D01*
X18516070Y13300300D01*
X18552770Y13324760D01*
X18580250Y13323190D01*
G37*
%TD.AperFunction*%
%TA.AperFunction,NonConductor*%
G36*
X-1379730Y18237630D02*
G01*
X-1353620Y18194320D01*
X-1256210Y17943090D01*
X-1132180Y17744010D01*
X-975030Y17570220D01*
X-791210Y17428030D01*
X-611330Y17331640D01*
X-463700Y17271590D01*
X-303050Y17222620D01*
X25630Y17159430D01*
X414710Y17134130D01*
X882620Y17145990D01*
X932050Y17136620D01*
X960450Y17095110D01*
X951330Y17045660D01*
X924920Y17015660D01*
X886540Y17004590D01*
X498450Y16990360D01*
X147370Y17004590D01*
X-203430Y17055130D01*
X-475540Y17127830D01*
X-763910Y17249470D01*
X-971780Y17382210D01*
X-1154130Y17548100D01*
X-1307820Y17745610D01*
X-1424080Y17963640D01*
X-1486690Y18140600D01*
X-1497970Y18189910D01*
X-1474570Y18234740D01*
X-1427680Y18253660D01*
X-1379730Y18237630D01*
G37*
%TD.AperFunction*%
%TA.AperFunction,NonConductor*%
G36*
X6245680Y19464630D02*
G01*
X6623180Y19423560D01*
X6897070Y19366690D01*
X7158840Y19281370D01*
X7436100Y19139150D01*
X7570010Y19035600D01*
X7684820Y18911190D01*
X7777350Y18769430D01*
X7845020Y18614260D01*
X7885940Y18450000D01*
X7898970Y18281220D01*
X7896760Y18173780D01*
X7880960Y18131030D01*
X7843090Y18105700D01*
X7797550Y18107430D01*
X7766690Y18130770D01*
X7754320Y18167450D01*
X7750890Y18371290D01*
X7712710Y18554550D01*
X7677120Y18649370D01*
X7584470Y18805780D01*
X7462010Y18941670D01*
X7317560Y19049110D01*
X7053990Y19173930D01*
X6894860Y19224470D01*
X6547840Y19293990D01*
X6211160Y19325590D01*
X5710100Y19331910D01*
X5668950Y19338110D01*
X5638620Y19366590D01*
X5629880Y19407250D01*
X5645840Y19445680D01*
X5666410Y19464630D01*
X5695950Y19473340D01*
X6245680Y19464630D01*
G37*
%TD.AperFunction*%
%TA.AperFunction,NonConductor*%
G36*
X10995250Y7186450D02*
G01*
X11019920Y7153400D01*
X11017990Y7112200D01*
X10968280Y6582890D01*
X10965760Y6217920D01*
X10994030Y5941420D01*
X11057180Y5666510D01*
X11133100Y5477710D01*
X11243130Y5306540D01*
X11383420Y5159120D01*
X11548900Y5040710D01*
X11733680Y4955490D01*
X11990550Y4884390D01*
X12077290Y4870170D01*
X12111910Y4848830D01*
X12125220Y4810400D01*
X12111180Y4772230D01*
X12101680Y4759580D01*
X12073150Y4736690D01*
X12036680Y4739030D01*
X11779530Y4788030D01*
X11605360Y4847590D01*
X11442240Y4932830D01*
X11293910Y5041850D01*
X11163810Y5172050D01*
X11054940Y5320490D01*
X10954260Y5529050D01*
X10875160Y5796050D01*
X10830860Y6102580D01*
X10821310Y6307990D01*
X10836430Y6725110D01*
X10877630Y7134330D01*
X10879480Y7142230D01*
X10905260Y7182000D01*
X10949530Y7198920D01*
X10995250Y7186450D01*
G37*
%TD.AperFunction*%
%TA.AperFunction,NonConductor*%
G36*
X-955040Y12064140D02*
G01*
X-935740Y12025780D01*
X-942140Y11983340D01*
X-1174620Y11559900D01*
X-1327000Y11215470D01*
X-1428140Y10891570D01*
X-1467230Y10665610D01*
X-1477980Y10477860D01*
X-1461060Y10290560D01*
X-1416860Y10107780D01*
X-1346330Y9933430D01*
X-1250980Y9771330D01*
X-1115820Y9622820D01*
X-895200Y9445850D01*
X-585900Y9272070D01*
X-408740Y9194650D01*
X-372490Y9158880D01*
X-366520Y9108310D01*
X-393420Y9065080D01*
X-420570Y9053250D01*
X-449680Y9058760D01*
X-716760Y9178850D01*
X-980440Y9333690D01*
X-1247980Y9553300D01*
X-1379070Y9708060D01*
X-1484000Y9881640D01*
X-1560090Y10069650D01*
X-1605480Y10267320D01*
X-1618970Y10469700D01*
X-1606730Y10688650D01*
X-1570460Y10904930D01*
X-1510610Y11115930D01*
X-1368650Y11480900D01*
X-1190520Y11834830D01*
X-1067130Y12049710D01*
X-1035560Y12078790D01*
X-992960Y12084280D01*
X-955040Y12064140D01*
G37*
%TD.AperFunction*%
%TA.AperFunction,NonConductor*%
G36*
X5710710Y27772280D02*
G01*
X6182180Y27558970D01*
X6552720Y27350420D01*
X6914640Y27100780D01*
X7179280Y26878740D01*
X7421680Y26632560D01*
X7639580Y26364490D01*
X7832550Y26070610D01*
X7841540Y26031900D01*
X7827750Y25994610D01*
X7795720Y25971070D01*
X7746010Y25969490D01*
X7712430Y25994790D01*
X7539130Y26260220D01*
X7330540Y26520930D01*
X7123000Y26735630D01*
X6899220Y26933370D01*
X6660570Y27112850D01*
X6408520Y27273000D01*
X5968110Y27506830D01*
X5652470Y27644290D01*
X5624470Y27670630D01*
X5613680Y27707490D01*
X5624170Y27753950D01*
X5663790Y27780390D01*
X5710710Y27772280D01*
G37*
%TD.AperFunction*%
%TA.AperFunction,NonConductor*%
G36*
X6802040Y5160900D02*
G01*
X7170900Y5102430D01*
X7420990Y5029760D01*
X7684360Y4912840D01*
X7884240Y4780130D01*
X8034480Y4634760D01*
X8129600Y4506770D01*
X8226780Y4314570D01*
X8290430Y4108830D01*
X8318800Y3895320D01*
X8323070Y3783150D01*
X8303690Y3498750D01*
X8300820Y3489250D01*
X8277830Y3456560D01*
X8241770Y3439290D01*
X8201860Y3441850D01*
X8170950Y3467430D01*
X8162440Y3506650D01*
X8177940Y3858970D01*
X8140900Y4116530D01*
X8094350Y4268520D01*
X8023580Y4410890D01*
X7930490Y4539790D01*
X7817640Y4651760D01*
X7687970Y4743780D01*
X7447560Y4867020D01*
X7303140Y4919170D01*
X6957620Y4998160D01*
X6615890Y5032910D01*
X6146320Y5036080D01*
X5928610Y5027400D01*
X5882940Y5040600D01*
X5857700Y5080860D01*
X5865700Y5127730D01*
X5883450Y5151420D01*
X5907410Y5165650D01*
X5917210Y5168800D01*
X6438160Y5179850D01*
X6802040Y5160900D01*
G37*
%TD.AperFunction*%
%TA.AperFunction,NonConductor*%
G36*
X16329690Y4021990D02*
G01*
X16365250Y3995040D01*
X16377770Y3952190D01*
X16379550Y3527170D01*
X16399810Y3312310D01*
X16467150Y2989990D01*
X16563800Y2738760D01*
X16676880Y2552320D01*
X16807760Y2402740D01*
X16961510Y2276750D01*
X17133930Y2177870D01*
X17342130Y2101980D01*
X17557700Y2050670D01*
X17777740Y2024610D01*
X18212590Y2011960D01*
X18255180Y1992020D01*
X18276390Y1950030D01*
X18267150Y1903910D01*
X18231410Y1873330D01*
X18184420Y1871350D01*
X17717740Y1887140D01*
X17439110Y1931390D01*
X17252440Y1981940D01*
X17030090Y2070430D01*
X16833800Y2192070D01*
X16661180Y2346910D01*
X16521890Y2524330D01*
X16414980Y2722960D01*
X16335980Y2934690D01*
X16262710Y3272790D01*
X16231310Y3732580D01*
X16235450Y3953790D01*
X16248910Y3996330D01*
X16285060Y4022500D01*
X16329690Y4021990D01*
G37*
%TD.AperFunction*%
%TA.AperFunction,NonConductor*%
G36*
X7565570Y22925710D02*
G01*
X7602600Y22899550D01*
X7612990Y22873540D01*
X7608750Y22845850D01*
X7594470Y22820550D01*
X7412080Y22603490D01*
X7209230Y22405340D01*
X6987920Y22228050D01*
X6980380Y22221750D01*
X6795590Y22096910D01*
X6420180Y21885200D01*
X6020770Y21706660D01*
X5603240Y21558150D01*
X4968750Y21381190D01*
X4544900Y21285580D01*
X4532810Y21285580D01*
X4520180Y21287970D01*
X4511190Y21291120D01*
X4477110Y21317710D01*
X4464480Y21359040D01*
X4477920Y21400140D01*
X4515360Y21423830D01*
X5123510Y21566050D01*
X5741440Y21752480D01*
X6138770Y21907320D01*
X6521980Y22095330D01*
X6880020Y22321290D01*
X7121550Y22514050D01*
X7320080Y22709960D01*
X7481270Y22904300D01*
X7520250Y22927490D01*
X7565570Y22925710D01*
G37*
%TD.AperFunction*%
%TA.AperFunction,NonConductor*%
G36*
X18044690Y22179610D02*
G01*
X18066180Y22141150D01*
X18165190Y21668740D01*
X18200650Y21289540D01*
X18201260Y21171050D01*
X18181880Y20926150D01*
X18145460Y20728380D01*
X18079690Y20538340D01*
X17986120Y20360360D01*
X17866840Y20198460D01*
X17724580Y20056350D01*
X17562550Y19937250D01*
X17384470Y19843850D01*
X17100090Y19739560D01*
X16630850Y19652670D01*
X16223490Y19631330D01*
X15964130Y19635290D01*
X15924990Y19658480D01*
X15907390Y19700420D01*
X15918280Y19744590D01*
X15953360Y19773570D01*
X15998800Y19775910D01*
X16465830Y19780630D01*
X16927200Y19840680D01*
X17227550Y19929170D01*
X17450990Y20036610D01*
X17637890Y20169330D01*
X17776850Y20311900D01*
X17889800Y20475880D01*
X17973470Y20656550D01*
X18025520Y20848730D01*
X18056530Y21079410D01*
X18051860Y21430160D01*
X18002710Y21779330D01*
X17927170Y22112730D01*
X17931840Y22156520D01*
X17961460Y22189140D01*
X18004640Y22197970D01*
X18044690Y22179610D01*
G37*
%TD.AperFunction*%
%TA.AperFunction,NonConductor*%
G36*
X7215450Y11874170D02*
G01*
X7242430Y11847450D01*
X7246390Y11839550D01*
X7471690Y11191750D01*
X7610880Y10671940D01*
X7699300Y10182150D01*
X7731910Y9728680D01*
X7713320Y9325790D01*
X7646490Y8949740D01*
X7567120Y8708010D01*
X7459470Y8477450D01*
X7325060Y8261430D01*
X7165820Y8063000D01*
X6984010Y7885000D01*
X6782260Y7729980D01*
X6560590Y7590940D01*
X6445530Y7530900D01*
X6409990Y7519060D01*
X6398790Y7519060D01*
X6385310Y7521420D01*
X6380180Y7523000D01*
X6342150Y7554010D01*
X6333440Y7602300D01*
X6358180Y7644660D01*
X6634810Y7801080D01*
X6903090Y8006490D01*
X7118530Y8229270D01*
X7297450Y8483650D01*
X7435290Y8763300D01*
X7528080Y9060330D01*
X7561280Y9245190D01*
X7589190Y9567520D01*
X7584720Y9894570D01*
X7552030Y10220070D01*
X7459220Y10705110D01*
X7325660Y11183850D01*
X7108830Y11803230D01*
X7110530Y11845490D01*
X7137960Y11877730D01*
X7179440Y11886160D01*
X7215450Y11874170D01*
G37*
%TD.AperFunction*%
%TA.AperFunction,NonConductor*%
G36*
X1083950Y27966340D02*
G01*
X1106980Y27930270D01*
X1107470Y27888460D01*
X1079220Y27857600D01*
X582780Y27612700D01*
X206980Y27377290D01*
X-54890Y27170300D01*
X-235840Y26995170D01*
X-396900Y26801600D01*
X-536240Y26591840D01*
X-652220Y26368320D01*
X-738480Y26140710D01*
X-802670Y25905940D01*
X-844250Y25666140D01*
X-870200Y25309070D01*
X-866240Y25065740D01*
X-879960Y25024510D01*
X-915570Y24999650D01*
X-959000Y25000970D01*
X-967080Y25004120D01*
X-996010Y25028470D01*
X-1008530Y25064160D01*
X-1012750Y25190550D01*
X-999870Y25557120D01*
X-945030Y25922100D01*
X-864570Y26215190D01*
X-748510Y26496090D01*
X-598650Y26760500D01*
X-417320Y27004390D01*
X-170100Y27257200D01*
X93420Y27470510D01*
X382980Y27661690D01*
X783490Y27876550D01*
X788110Y27879730D01*
X1002740Y27979270D01*
X1045210Y27984530D01*
X1083950Y27966340D01*
G37*
%TD.AperFunction*%
%TA.AperFunction,NonConductor*%
G36*
X13031420Y27400710D02*
G01*
X13053190Y27369390D01*
X13055700Y27318970D01*
X13024490Y27279320D01*
X12673910Y27018620D01*
X12514300Y26881150D01*
X12185270Y26549350D01*
X11955270Y26262560D01*
X11753570Y25955190D01*
X11581970Y25630050D01*
X11442040Y25290090D01*
X11339800Y24969370D01*
X11230330Y24471660D01*
X11170310Y23966070D01*
X11153290Y23457310D01*
X11173050Y22942220D01*
X11203510Y22600950D01*
X11192510Y22561550D01*
X11159390Y22537520D01*
X11118520Y22539330D01*
X11084200Y22558170D01*
X11063610Y22591470D01*
X11022840Y23023580D01*
X11009990Y23457410D01*
X11025050Y23891190D01*
X11068020Y24323090D01*
X11138690Y24751310D01*
X11270720Y25231650D01*
X11406170Y25582400D01*
X11573080Y25918950D01*
X11769670Y26238100D01*
X11994950Y26538300D01*
X12250980Y26821130D01*
X12547880Y27096030D01*
X12866670Y27342520D01*
X12958670Y27405710D01*
X12995810Y27414370D01*
X13031420Y27400710D01*
G37*
%TD.AperFunction*%
%TA.AperFunction,NonConductor*%
G36*
X21642250Y21671890D02*
G01*
X21676390Y21640980D01*
X21686650Y21596070D01*
X21570750Y21030410D01*
X21411900Y20485330D01*
X21279870Y20132980D01*
X21121800Y19782230D01*
X20930110Y19429480D01*
X20709810Y19093840D01*
X20462390Y18777660D01*
X20189600Y18483120D01*
X19893280Y18212230D01*
X19575500Y17966890D01*
X19238470Y17748760D01*
X18887950Y17556000D01*
X18373090Y17323740D01*
X18017130Y17194170D01*
X17974560Y17194170D01*
X17938470Y17221250D01*
X17925640Y17264530D01*
X17941160Y17306900D01*
X17978910Y17331640D01*
X18503090Y17532300D01*
X18831560Y17687140D01*
X19185480Y17882790D01*
X19522720Y18105910D01*
X19841210Y18355110D01*
X20138900Y18628820D01*
X20406640Y18925870D01*
X20646470Y19245020D01*
X20925310Y19707960D01*
X21083190Y20031860D01*
X21283630Y20548520D01*
X21436990Y21080980D01*
X21549490Y21630820D01*
X21569250Y21663910D01*
X21604480Y21679510D01*
X21642250Y21671890D01*
G37*
%TD.AperFunction*%
%TA.AperFunction,NonConductor*%
G36*
X6669200Y5176880D02*
G01*
X6795970Y5166690D01*
X7171210Y5107480D01*
X7292770Y5076420D01*
X7411750Y5038780D01*
X7527590Y4994120D01*
X7622150Y4951280D01*
X7850760Y4812260D01*
X7989750Y4692500D01*
X8112510Y4543550D01*
X8194160Y4399250D01*
X8275020Y4187080D01*
X8317810Y3964080D01*
X8325360Y3873450D01*
X8328100Y3781980D01*
X8326250Y3689760D01*
X8320050Y3597170D01*
X8309710Y3504210D01*
X8308940Y3499670D01*
X8304980Y3485810D01*
X8298680Y3472840D01*
X8290220Y3461170D01*
X8279860Y3451150D01*
X8267920Y3443070D01*
X8254750Y3437190D01*
X8240770Y3433690D01*
X8226390Y3432670D01*
X8212050Y3434160D01*
X8208600Y3434670D01*
X8198020Y3437480D01*
X8188080Y3442090D01*
X8179100Y3448360D01*
X8171340Y3456090D01*
X8165040Y3465050D01*
X8160390Y3474960D01*
X8157530Y3485540D01*
X8156560Y3496450D01*
X8157490Y3507360D01*
X8167470Y3596540D01*
X8165900Y3945000D01*
X8153910Y4029080D01*
X8136810Y4111420D01*
X8114280Y4191660D01*
X8047830Y4351800D01*
X7954580Y4497960D01*
X7743520Y4701690D01*
X7298970Y4915130D01*
X7188860Y4946350D01*
X7076620Y4972050D01*
X6962520Y4992570D01*
X6847080Y5008450D01*
X6614010Y5028030D01*
X6380710Y5034380D01*
X6150250Y5031160D01*
X5926460Y5022090D01*
X5915670Y5022550D01*
X5903450Y5025090D01*
X5891850Y5029710D01*
X5881240Y5036280D01*
X5871920Y5044590D01*
X5864190Y5054390D01*
X5858280Y5065380D01*
X5854370Y5077240D01*
X5852570Y5089590D01*
X5852950Y5102070D01*
X5854930Y5114670D01*
X5859680Y5129230D01*
X5862500Y5134990D01*
X5869750Y5146020D01*
X5878810Y5155620D01*
X5889390Y5163500D01*
X5901180Y5169430D01*
X5908930Y5171900D01*
X5917130Y5173600D01*
X6166870Y5183860D01*
X6415910Y5186070D01*
X6669200Y5176880D01*
G37*
%TD.AperFunction*%
%TA.AperFunction,NonConductor*%
G36*
X1041240Y27989520D02*
G01*
X1055220Y27987010D01*
X1068550Y27982110D01*
X1080830Y27974970D01*
X1091680Y27965800D01*
X1100780Y27954890D01*
X1107840Y27942570D01*
X1112650Y27929210D01*
X1115080Y27915210D01*
X1115030Y27901010D01*
X1114460Y27896840D01*
X1111690Y27886520D01*
X1107180Y27876840D01*
X1101060Y27868080D01*
X1093510Y27860530D01*
X1084760Y27854400D01*
X1075080Y27849880D01*
X778790Y27710460D01*
X585290Y27608300D01*
X396850Y27497480D01*
X305000Y27438480D01*
X41660Y27245540D01*
X-363800Y26838400D01*
X-580910Y26502000D01*
X-770510Y26016310D01*
X-860910Y25429130D01*
X-865150Y25308810D01*
X-865200Y25187940D01*
X-861210Y25066240D01*
X-861210Y25065950D01*
X-861730Y25052760D01*
X-864520Y25039860D01*
X-869520Y25027640D01*
X-873350Y25021360D01*
X-882500Y25012110D01*
X-894040Y25003840D01*
X-906850Y24997700D01*
X-920520Y24993880D01*
X-934650Y24992490D01*
X-948810Y24993570D01*
X-962560Y24997100D01*
X-975490Y25002960D01*
X-987210Y25010980D01*
X-997360Y25020910D01*
X-1000980Y25025820D01*
X-1007050Y25036750D01*
X-1011120Y25048570D01*
X-1013460Y25436530D01*
X-1006770Y25543160D01*
X-922270Y26039880D01*
X-875730Y26200580D01*
X-712470Y26582110D01*
X-485440Y26929490D01*
X-371310Y27063190D01*
X-1450Y27405380D01*
X185850Y27541650D01*
X381430Y27666390D01*
X583510Y27780820D01*
X790350Y27886000D01*
X1002970Y27984300D01*
X1004390Y27984090D01*
X1008610Y27985720D01*
X1018860Y27988420D01*
X1032560Y27989830D01*
X1041240Y27989520D01*
G37*
%TD.AperFunction*%
%TA.AperFunction,NonConductor*%
G36*
X7189140Y11888340D02*
G01*
X7203140Y11885220D01*
X7216700Y11879550D01*
X7229140Y11871150D01*
X7240040Y11859970D01*
X7244890Y11853210D01*
X7252340Y11838250D01*
X7368570Y11519590D01*
X7476240Y11193580D01*
X7571030Y10861140D01*
X7612230Y10692990D01*
X7648520Y10523930D01*
X7679410Y10353930D01*
X7733690Y9841180D01*
X7737170Y9669880D01*
X7732400Y9498740D01*
X7718810Y9327970D01*
X7695820Y9157610D01*
X7669020Y9020510D01*
X7634350Y8887610D01*
X7591980Y8758860D01*
X7570740Y8703030D01*
X7406770Y8376310D01*
X7188560Y8083020D01*
X7098360Y7987210D01*
X7002270Y7896480D01*
X6814740Y7746450D01*
X6442000Y7523330D01*
X6440350Y7522440D01*
X6428100Y7517250D01*
X6415130Y7514260D01*
X6401840Y7513570D01*
X6388630Y7515190D01*
X6375900Y7519090D01*
X6364040Y7525140D01*
X6353410Y7533150D01*
X6344340Y7542890D01*
X6338340Y7550110D01*
X6332080Y7560510D01*
X6327720Y7571840D01*
X6325390Y7583760D01*
X6325170Y7595900D01*
X6327060Y7607890D01*
X6331000Y7619380D01*
X6336880Y7630000D01*
X6344510Y7639440D01*
X6353670Y7647420D01*
X6364070Y7653680D01*
X6484110Y7716420D01*
X6908700Y8017920D01*
X7147770Y8274270D01*
X7338690Y8568230D01*
X7475670Y8890880D01*
X7556020Y9243140D01*
X7574380Y9404990D01*
X7584110Y9567290D01*
X7585740Y9730030D01*
X7547200Y10218370D01*
X7521600Y10380700D01*
X7490490Y10542370D01*
X7454440Y10703410D01*
X7413900Y10863430D01*
X7321580Y11180190D01*
X7217590Y11491260D01*
X7106080Y11795560D01*
X7106050Y11795560D01*
X7102700Y11806980D01*
X7101390Y11818800D01*
X7102150Y11830670D01*
X7104960Y11842230D01*
X7109730Y11853120D01*
X7116320Y11863030D01*
X7124530Y11871630D01*
X7134110Y11878680D01*
X7144770Y11883960D01*
X7156190Y11887310D01*
X7168010Y11888620D01*
X7175120Y11889080D01*
X7189140Y11888340D01*
G37*
%TD.AperFunction*%
%TA.AperFunction,NonConductor*%
G36*
X-473590Y2599320D02*
G01*
X-460920Y2596420D01*
X-448950Y2591370D01*
X-438030Y2584310D01*
X-428510Y2575460D01*
X-420670Y2565100D01*
X-384000Y2511530D01*
X-170760Y2300200D01*
X-2540Y2204870D01*
X246350Y2125090D01*
X362000Y2105360D01*
X480310Y2093390D01*
X600580Y2088160D01*
X722100Y2088620D01*
X844070Y2093720D01*
X1085980Y2113890D01*
X1320290Y2140380D01*
X1329720Y2141070D01*
X1341090Y2140100D01*
X1352120Y2137170D01*
X1362480Y2132360D01*
X1371840Y2125830D01*
X1379930Y2117770D01*
X1386500Y2108430D01*
X1391340Y2098100D01*
X1394320Y2087080D01*
X1395330Y2075700D01*
X1394360Y2064330D01*
X1392100Y2050470D01*
X1387630Y2036900D01*
X1380920Y2024130D01*
X1371960Y2012490D01*
X1366620Y2007260D01*
X1354150Y1998270D01*
X1339550Y1991720D01*
X1323140Y1988160D01*
X1069110Y1960700D01*
X808840Y1942240D01*
X678280Y1938990D01*
X548360Y1941090D01*
X513070Y1942560D01*
X169930Y1989990D01*
X-8610Y2044900D01*
X-121820Y2095250D01*
X-229510Y2157760D01*
X-330910Y2233470D01*
X-425150Y2323390D01*
X-469340Y2373990D01*
X-511510Y2428520D01*
X-551510Y2487140D01*
X-561640Y2509800D01*
X-562600Y2513770D01*
X-563870Y2524760D01*
X-563210Y2535810D01*
X-560650Y2546580D01*
X-559440Y2550000D01*
X-554060Y2560970D01*
X-546860Y2570840D01*
X-544670Y2573230D01*
X-533550Y2583140D01*
X-520870Y2590980D01*
X-507020Y2596490D01*
X-492430Y2599510D01*
X-486570Y2599970D01*
X-473590Y2599320D01*
G37*
%TD.AperFunction*%
%TA.AperFunction,NonConductor*%
G36*
X7549940Y22935970D02*
G01*
X7562860Y22933670D01*
X7575180Y22929160D01*
X7586530Y22922570D01*
X7596570Y22914120D01*
X7604980Y22904050D01*
X7611520Y22892680D01*
X7615990Y22880340D01*
X7618240Y22867410D01*
X7618220Y22854290D01*
X7616290Y22846870D01*
X7613420Y22839600D01*
X7503050Y22699630D01*
X7155430Y22352810D01*
X6984750Y22219230D01*
X6805420Y22096680D01*
X6618380Y21984310D01*
X6424650Y21881470D01*
X6225410Y21787610D01*
X6021760Y21702120D01*
X5814390Y21624160D01*
X5604690Y21553250D01*
X5393510Y21488810D01*
X5182010Y21430030D01*
X4971140Y21376340D01*
X4546850Y21280350D01*
X4538700Y21280020D01*
X4524960Y21281320D01*
X4511660Y21284990D01*
X4499200Y21290910D01*
X4487950Y21298910D01*
X4478270Y21308740D01*
X4470440Y21320100D01*
X4464700Y21332650D01*
X4461230Y21346000D01*
X4460130Y21359750D01*
X4461430Y21373490D01*
X4461760Y21375540D01*
X4464830Y21386670D01*
X4469780Y21397090D01*
X4476470Y21406500D01*
X4484700Y21414600D01*
X4494200Y21421150D01*
X4504700Y21425950D01*
X4515870Y21428860D01*
X4918000Y21519720D01*
X5122390Y21571000D01*
X5327800Y21627130D01*
X5533190Y21688680D01*
X5737250Y21756290D01*
X5939100Y21830610D01*
X6137480Y21912200D01*
X6331460Y22001780D01*
X6875880Y22324490D01*
X7041340Y22452200D01*
X7474810Y22904880D01*
X7476240Y22906150D01*
X7480070Y22910750D01*
X7480120Y22910820D01*
X7490310Y22920120D01*
X7501960Y22927500D01*
X7514710Y22932750D01*
X7528190Y22935710D01*
X7541970Y22936280D01*
X7549940Y22935970D01*
G37*
%TD.AperFunction*%
%TA.AperFunction,NonConductor*%
G36*
X18574230Y13330780D02*
G01*
X18588940Y13325030D01*
X18958720Y13140690D01*
X19290870Y12894950D01*
X19496890Y12687710D01*
X19776570Y12312600D01*
X19844410Y12198100D01*
X19907860Y12079940D01*
X19967090Y11958270D01*
X20025060Y11825170D01*
X20027040Y11817430D01*
X20027430Y11806270D01*
X20025840Y11794290D01*
X20022200Y11782760D01*
X20016610Y11772050D01*
X20009240Y11762460D01*
X20000330Y11754310D01*
X19990130Y11747820D01*
X19978960Y11743200D01*
X19967160Y11740600D01*
X19955080Y11740080D01*
X19954130Y11740040D01*
X19940180Y11740630D01*
X19926550Y11743620D01*
X19913640Y11748940D01*
X19901850Y11756420D01*
X19891530Y11765830D01*
X19883010Y11776890D01*
X19876540Y11789260D01*
X19825360Y11905410D01*
X19580710Y12337770D01*
X19509080Y12437080D01*
X19433180Y12532510D01*
X19352970Y12623750D01*
X19070900Y12882210D01*
X18546290Y13180210D01*
X18544670Y13181360D01*
X18536910Y13185380D01*
X18525350Y13193570D01*
X18515380Y13203640D01*
X18507310Y13215290D01*
X18501390Y13228160D01*
X18497790Y13241870D01*
X18496620Y13255990D01*
X18497930Y13270100D01*
X18501670Y13283770D01*
X18507720Y13296590D01*
X18515910Y13308150D01*
X18525980Y13318120D01*
X18537630Y13326190D01*
X18544160Y13328850D01*
X18551170Y13330610D01*
X18558810Y13331620D01*
X18566160Y13331650D01*
X18574230Y13330780D01*
G37*
%TD.AperFunction*%
%TA.AperFunction,NonConductor*%
G36*
X18012260Y22202500D02*
G01*
X18025870Y22199020D01*
X18032300Y22196300D01*
X18038750Y22192770D01*
X18044670Y22188680D01*
X18050460Y22183600D01*
X18055540Y22178040D01*
X18060140Y22171580D01*
X18064020Y22164600D01*
X18067350Y22156850D01*
X18125340Y21913980D01*
X18170220Y21669930D01*
X18205700Y21295490D01*
X18186580Y20923660D01*
X18164860Y20802730D01*
X18107950Y20602900D01*
X18008060Y20392030D01*
X17873070Y20201710D01*
X17707080Y20037730D01*
X17520920Y19909180D01*
X17276060Y19792620D01*
X17274830Y19792170D01*
X16893210Y19685890D01*
X16761050Y19663790D01*
X16628010Y19647380D01*
X16494760Y19636030D01*
X16230680Y19626050D01*
X15978430Y19628760D01*
X15977260Y19628260D01*
X15967050Y19629020D01*
X15962800Y19629780D01*
X15949910Y19633620D01*
X15937890Y19639640D01*
X15927090Y19647650D01*
X15917850Y19657410D01*
X15910440Y19668640D01*
X15905100Y19680980D01*
X15901970Y19694050D01*
X15901170Y19707480D01*
X15902710Y19720830D01*
X15906550Y19733720D01*
X15909070Y19740270D01*
X15914800Y19750680D01*
X15922260Y19759950D01*
X15931220Y19767770D01*
X15941390Y19773930D01*
X15952480Y19778220D01*
X15964150Y19780520D01*
X15976040Y19780760D01*
X16215490Y19777610D01*
X16463440Y19785460D01*
X16588940Y19795060D01*
X16961740Y19853810D01*
X17367000Y19996630D01*
X17472580Y20055540D01*
X17523100Y20088280D01*
X17804870Y20357080D01*
X17937330Y20585760D01*
X18051480Y21079740D01*
X18055970Y21195510D01*
X18054220Y21312230D01*
X18046880Y21429240D01*
X18034640Y21546080D01*
X17998030Y21776990D01*
X17975020Y21889970D01*
X17922820Y22108950D01*
X17920920Y22120990D01*
X17921080Y22134310D01*
X17923550Y22147400D01*
X17928260Y22159870D01*
X17935060Y22171330D01*
X17943750Y22181430D01*
X17954060Y22189870D01*
X17965680Y22196390D01*
X17978250Y22200800D01*
X17991400Y22202950D01*
X17998310Y22203380D01*
X18012260Y22202500D01*
G37*
%TD.AperFunction*%
%TA.AperFunction,NonConductor*%
G36*
X-991880Y12089340D02*
G01*
X-979000Y12085730D01*
X-966950Y12079930D01*
X-956080Y12072130D01*
X-946730Y12062560D01*
X-939190Y12051520D01*
X-933680Y12039330D01*
X-930370Y12026370D01*
X-929360Y12013030D01*
X-930680Y11999720D01*
X-933810Y11989370D01*
X-939830Y11976840D01*
X-1056340Y11773360D01*
X-1169620Y11558680D01*
X-1273530Y11334930D01*
X-1398020Y10986920D01*
X-1472010Y10512500D01*
X-1455390Y10275570D01*
X-1343910Y9932110D01*
X-1170510Y9686490D01*
X-819710Y9403030D01*
X-659280Y9313210D01*
X-493120Y9235240D01*
X-408610Y9200180D01*
X-401070Y9196450D01*
X-389130Y9188320D01*
X-378790Y9178240D01*
X-370350Y9166520D01*
X-364080Y9153500D01*
X-360160Y9139600D01*
X-358720Y9125230D01*
X-359790Y9110820D01*
X-363350Y9096820D01*
X-369290Y9083650D01*
X-377420Y9071710D01*
X-387500Y9061370D01*
X-393940Y9056910D01*
X-403290Y9052340D01*
X-413300Y9049460D01*
X-423650Y9048360D01*
X-434040Y9049080D01*
X-444140Y9051590D01*
X-631850Y9131830D01*
X-807390Y9221010D01*
X-1033480Y9362740D01*
X-1272740Y9572700D01*
X-1395040Y9722560D01*
X-1470110Y9843430D01*
X-1554230Y10037170D01*
X-1585740Y10150550D01*
X-1621870Y10401020D01*
X-1622810Y10534800D01*
X-1585570Y10853320D01*
X-1475560Y11234950D01*
X-1427000Y11359390D01*
X-1373960Y11481790D01*
X-1257860Y11719560D01*
X-1196540Y11834220D01*
X-1066720Y12060630D01*
X-1065680Y12062110D01*
X-1057890Y12071090D01*
X-1048660Y12078570D01*
X-1038280Y12084350D01*
X-1027040Y12088230D01*
X-1015310Y12090100D01*
X-1005190Y12090660D01*
X-991880Y12089340D01*
G37*
%TD.AperFunction*%
%TA.AperFunction,NonConductor*%
G36*
X6054880Y19478800D02*
G01*
X6241520Y19470010D01*
X6430850Y19453730D01*
X6620050Y19428610D01*
X6806640Y19393230D01*
X7075170Y19317970D01*
X7160260Y19286270D01*
X7242580Y19250960D01*
X7321800Y19211900D01*
X7430560Y19148160D01*
X7600420Y19014080D01*
X7610200Y19004580D01*
X7719320Y18876680D01*
X7804580Y18731770D01*
X7863380Y18574260D01*
X7884490Y18482310D01*
X7898130Y18384520D01*
X7904000Y18280960D01*
X7901760Y18171290D01*
X7901560Y18168850D01*
X7898980Y18155360D01*
X7894090Y18142530D01*
X7887050Y18130750D01*
X7878070Y18120360D01*
X7867420Y18111690D01*
X7855430Y18105000D01*
X7842450Y18100500D01*
X7828900Y18098320D01*
X7815170Y18098520D01*
X7803130Y18100260D01*
X7791560Y18104080D01*
X7780830Y18109840D01*
X7771260Y18117380D01*
X7763150Y18126460D01*
X7756740Y18136820D01*
X7752220Y18148130D01*
X7749740Y18160050D01*
X7749360Y18172230D01*
X7751290Y18272860D01*
X7712840Y18538220D01*
X7686520Y18615610D01*
X7653960Y18687870D01*
X7615480Y18755180D01*
X7507110Y18889790D01*
X7377010Y19003540D01*
X7208370Y19102860D01*
X7134480Y19136840D01*
X7057620Y19167420D01*
X6895970Y19219110D01*
X6726780Y19259040D01*
X6552460Y19288480D01*
X6375980Y19308880D01*
X6199890Y19321580D01*
X6026990Y19327900D01*
X5701130Y19326940D01*
X5689450Y19327540D01*
X5677190Y19330280D01*
X5665600Y19335110D01*
X5655010Y19341880D01*
X5645770Y19350390D01*
X5638140Y19360370D01*
X5632360Y19371530D01*
X5628610Y19383510D01*
X5627000Y19395970D01*
X5627570Y19408520D01*
X5628180Y19414430D01*
X5631190Y19427290D01*
X5636390Y19439420D01*
X5643610Y19450470D01*
X5652650Y19460090D01*
X5663220Y19468000D01*
X5675000Y19473960D01*
X5687640Y19477770D01*
X5700750Y19479340D01*
X5873650Y19481440D01*
X6054880Y19478800D01*
G37*
%TD.AperFunction*%
%TA.AperFunction,NonConductor*%
G36*
X10969220Y7202510D02*
G01*
X10980300Y7199930D01*
X10990760Y7195470D01*
X11000290Y7189260D01*
X11008600Y7181490D01*
X11015430Y7172390D01*
X11020580Y7162250D01*
X11023890Y7151360D01*
X11025250Y7140070D01*
X11024640Y7128710D01*
X10986470Y6766260D01*
X10969290Y6491860D01*
X10967720Y6308370D01*
X10976840Y6124880D01*
X11061750Y5669000D01*
X11147170Y5460570D01*
X11242620Y5311940D01*
X11440130Y5118200D01*
X11507040Y5072100D01*
X11577900Y5030650D01*
X11982530Y4890900D01*
X12072620Y4875830D01*
X12083290Y4873340D01*
X12093890Y4868860D01*
X12103550Y4862600D01*
X12111970Y4854770D01*
X12118910Y4845580D01*
X12124150Y4835340D01*
X12127530Y4824340D01*
X12128940Y4812920D01*
X12128350Y4801430D01*
X12125780Y4790210D01*
X12122350Y4780100D01*
X12115270Y4766340D01*
X12105900Y4754030D01*
X12094540Y4743530D01*
X12087720Y4738900D01*
X12075420Y4732830D01*
X12062250Y4728990D01*
X12048620Y4727490D01*
X12034930Y4728390D01*
X11799140Y4777490D01*
X11533020Y4879570D01*
X11359850Y4984110D01*
X11205650Y5118480D01*
X11077120Y5277580D01*
X10978180Y5456580D01*
X10931840Y5576340D01*
X10851030Y5895540D01*
X10836330Y5997700D01*
X10819310Y6204410D01*
X10816290Y6412740D01*
X10819050Y6517080D01*
X10831300Y6724750D01*
X10872090Y7132400D01*
X10872900Y7134380D01*
X10873480Y7137650D01*
X10877510Y7151290D01*
X10883840Y7164020D01*
X10892280Y7175460D01*
X10902580Y7185260D01*
X10914430Y7193120D01*
X10927470Y7198810D01*
X10941290Y7202150D01*
X10955480Y7203030D01*
X10957860Y7203120D01*
X10969220Y7202510D01*
G37*
%TD.AperFunction*%
%TA.AperFunction,NonConductor*%
G36*
X1545280Y24992860D02*
G01*
X1558650Y24988450D01*
X1571050Y24981780D01*
X1582100Y24973060D01*
X1591480Y24962560D01*
X1598880Y24950580D01*
X1604090Y24937510D01*
X1606960Y24923720D01*
X1607380Y24909650D01*
X1605360Y24895720D01*
X1600950Y24882350D01*
X1594280Y24869950D01*
X1432330Y24688800D01*
X1320290Y24576230D01*
X1261820Y24521950D01*
X1076500Y24371500D01*
X880980Y24247890D01*
X656640Y24154770D01*
X546620Y24125720D01*
X369000Y24105160D01*
X190500Y24115750D01*
X130700Y24127180D01*
X-85280Y24193920D01*
X-286390Y24297160D01*
X-395880Y24370840D01*
X-398530Y24372970D01*
X-408760Y24383170D01*
X-417060Y24394990D01*
X-423180Y24408070D01*
X-426940Y24422010D01*
X-428220Y24436400D01*
X-426980Y24450790D01*
X-423260Y24464750D01*
X-417180Y24477850D01*
X-408910Y24489690D01*
X-408120Y24490700D01*
X-400380Y24498890D01*
X-391330Y24505620D01*
X-381250Y24510670D01*
X-370450Y24513900D01*
X-359250Y24515200D01*
X-348000Y24514530D01*
X-337030Y24511920D01*
X-326680Y24507450D01*
X-317270Y24501250D01*
X-265510Y24464850D01*
X59840Y24302920D01*
X211610Y24267170D01*
X470660Y24267520D01*
X531850Y24278970D01*
X593520Y24295100D01*
X910770Y24442600D01*
X1188950Y24660890D01*
X1339620Y24811960D01*
X1480130Y24969600D01*
X1482610Y24972560D01*
X1491000Y24980470D01*
X1500630Y24986810D01*
X1511220Y24991380D01*
X1522450Y24994050D01*
X1533960Y24994720D01*
X1545280Y24992860D01*
G37*
%TD.AperFunction*%
%TA.AperFunction,NonConductor*%
G36*
X21623870Y21681010D02*
G01*
X21637590Y21677510D01*
X21650490Y21671680D01*
X21662190Y21663700D01*
X21672320Y21653810D01*
X21680580Y21642310D01*
X21686720Y21629550D01*
X21690550Y21615920D01*
X21691950Y21601830D01*
X21690890Y21587710D01*
X21657180Y21400690D01*
X21618910Y21214740D01*
X21575900Y21029930D01*
X21527950Y20846420D01*
X21474940Y20664370D01*
X21416770Y20484240D01*
X21353250Y20306060D01*
X21284180Y20130030D01*
X21042780Y19617690D01*
X20911570Y19386840D01*
X20424680Y18722100D01*
X19829750Y18152010D01*
X19223430Y17733870D01*
X18374310Y17319240D01*
X18196860Y17251630D01*
X18015760Y17188310D01*
X18014560Y17187910D01*
X18002610Y17185390D01*
X17990400Y17184980D01*
X17978310Y17186700D01*
X17966690Y17190490D01*
X17955920Y17196240D01*
X17946300Y17203780D01*
X17938140Y17212870D01*
X17931680Y17223230D01*
X17927120Y17234570D01*
X17924600Y17246520D01*
X17924150Y17249010D01*
X17923080Y17262610D01*
X17924390Y17276180D01*
X17928040Y17289330D01*
X17933910Y17301640D01*
X17941830Y17312740D01*
X17951560Y17322300D01*
X17962810Y17330030D01*
X17975220Y17335680D01*
X18150610Y17396940D01*
X18323480Y17462910D01*
X18494170Y17533720D01*
X18662520Y17609590D01*
X18828110Y17690470D01*
X19459070Y18065800D01*
X20072440Y18569190D01*
X20917430Y19703360D01*
X21000900Y19867350D01*
X21078650Y20034100D01*
X21150630Y20203440D01*
X21217310Y20375450D01*
X21278570Y20549290D01*
X21334680Y20725280D01*
X21385760Y20902930D01*
X21432010Y21081900D01*
X21473640Y21262260D01*
X21510730Y21443540D01*
X21543490Y21625940D01*
X21544060Y21629260D01*
X21547290Y21640260D01*
X21552370Y21650540D01*
X21559160Y21659770D01*
X21567460Y21667680D01*
X21577000Y21674040D01*
X21587490Y21678640D01*
X21598630Y21681350D01*
X21610070Y21682080D01*
X21623870Y21681010D01*
G37*
%TD.AperFunction*%
%TA.AperFunction,NonConductor*%
G36*
X7771050Y17696590D02*
G01*
X7786730Y17692980D01*
X7798970Y17687850D01*
X7812200Y17679590D01*
X7817920Y17674690D01*
X7827170Y17664300D01*
X7834470Y17652460D01*
X7839610Y17639530D01*
X7842430Y17625900D01*
X7845370Y17601380D01*
X7847400Y17472980D01*
X7827090Y17346170D01*
X7815890Y17308940D01*
X7774680Y17214800D01*
X7717760Y17129250D01*
X7667260Y17074600D01*
X7553100Y16979610D01*
X7424190Y16905880D01*
X7302780Y16854270D01*
X7173420Y16812010D01*
X7038900Y16778020D01*
X6901690Y16751250D01*
X6764250Y16730570D01*
X6498870Y16703240D01*
X6254320Y16687370D01*
X6246450Y16688550D01*
X6234190Y16692200D01*
X6222750Y16697920D01*
X6212470Y16705550D01*
X6203680Y16714840D01*
X6196630Y16725520D01*
X6191550Y16737260D01*
X6188580Y16749700D01*
X6187810Y16762470D01*
X6189280Y16775180D01*
X6192930Y16787440D01*
X6196870Y16796960D01*
X6203860Y16808460D01*
X6212740Y16818570D01*
X6223230Y16826980D01*
X6235030Y16833440D01*
X6247770Y16837750D01*
X6261070Y16839790D01*
X6587490Y16861690D01*
X6834250Y16890210D01*
X6959040Y16911700D01*
X7141510Y16955770D01*
X7458150Y17098240D01*
X7501180Y17130400D01*
X7540630Y17165220D01*
X7576290Y17202940D01*
X7625980Y17271970D01*
X7662920Y17348580D01*
X7687390Y17438040D01*
X7694240Y17495600D01*
X7695290Y17557140D01*
X7690150Y17623280D01*
X7689760Y17633600D01*
X7691240Y17645120D01*
X7694700Y17656210D01*
X7700030Y17666530D01*
X7707070Y17675770D01*
X7715610Y17683640D01*
X7725390Y17689910D01*
X7736110Y17694390D01*
X7747440Y17696940D01*
X7759040Y17697480D01*
X7771050Y17696590D01*
G37*
%TD.AperFunction*%
%TA.AperFunction,NonConductor*%
G36*
X21652840Y5705580D02*
G01*
X21667740Y5702260D01*
X21681830Y5696400D01*
X21694700Y5688180D01*
X21705210Y5677790D01*
X21713570Y5665270D01*
X21719460Y5650380D01*
X21721340Y5641950D01*
X21728430Y5499000D01*
X21727340Y5362520D01*
X21727180Y5358330D01*
X21693860Y5091020D01*
X21677250Y5025160D01*
X21656600Y4960390D01*
X21631780Y4897350D01*
X21586630Y4807090D01*
X21504500Y4690290D01*
X21403340Y4589530D01*
X21313220Y4526780D01*
X21160610Y4450250D01*
X20997040Y4401390D01*
X20940890Y4391560D01*
X20645830Y4371090D01*
X20505520Y4377390D01*
X20368640Y4390570D01*
X20365720Y4391050D01*
X20351700Y4394790D01*
X20338540Y4400910D01*
X20326650Y4409220D01*
X20316380Y4419480D01*
X20308050Y4431350D01*
X20301900Y4444500D01*
X20298140Y4458510D01*
X20296860Y4472960D01*
X20298110Y4487420D01*
X20299690Y4494190D01*
X20303860Y4505150D01*
X20309860Y4515230D01*
X20317520Y4524110D01*
X20326600Y4531520D01*
X20336840Y4537240D01*
X20347910Y4541100D01*
X20359480Y4542980D01*
X20371210Y4542820D01*
X20557360Y4526410D01*
X20620990Y4523790D01*
X20749180Y4524530D01*
X21059900Y4575150D01*
X21169380Y4617670D01*
X21327260Y4725720D01*
X21471150Y4916420D01*
X21566940Y5264710D01*
X21575170Y5388080D01*
X21575270Y5511140D01*
X21569480Y5633060D01*
X21569880Y5634690D01*
X21569810Y5640400D01*
X21569940Y5642810D01*
X21571710Y5654520D01*
X21575490Y5665740D01*
X21581150Y5676130D01*
X21588540Y5685390D01*
X21597420Y5693220D01*
X21607520Y5699390D01*
X21618550Y5703710D01*
X21630150Y5706050D01*
X21641990Y5706340D01*
X21652840Y5705580D01*
G37*
%TD.AperFunction*%
%TA.AperFunction,NonConductor*%
G36*
X-647020Y5705990D02*
G01*
X-634200Y5702340D01*
X-622210Y5696530D01*
X-611410Y5688710D01*
X-602130Y5679150D01*
X-594650Y5668110D01*
X-589210Y5655950D01*
X-585950Y5643020D01*
X-585000Y5629730D01*
X-586360Y5616470D01*
X-589670Y5605890D01*
X-595660Y5593840D01*
X-686160Y5430040D01*
X-901850Y4764910D01*
X-923060Y4596310D01*
X-932540Y4427090D01*
X-931010Y4257140D01*
X-867490Y3745360D01*
X-828950Y3574670D01*
X-782960Y3404210D01*
X-730120Y3234110D01*
X-671200Y3064380D01*
X-606320Y2893520D01*
X-604110Y2887170D01*
X-601880Y2875810D01*
X-601660Y2864240D01*
X-603450Y2852800D01*
X-607200Y2841840D01*
X-612790Y2831710D01*
X-620060Y2822700D01*
X-628790Y2815090D01*
X-638700Y2809110D01*
X-649500Y2804940D01*
X-660860Y2802710D01*
X-674980Y2801210D01*
X-688920Y2801950D01*
X-696160Y2803140D01*
X-710010Y2807510D01*
X-723090Y2814450D01*
X-729180Y2818870D01*
X-740260Y2829920D01*
X-749220Y2843660D01*
X-819610Y3027650D01*
X-880490Y3204340D01*
X-934850Y3381860D01*
X-981860Y3559630D01*
X-1072620Y4094660D01*
X-1085140Y4322100D01*
X-1049680Y4804510D01*
X-1013640Y4980150D01*
X-964130Y5154730D01*
X-900280Y5328180D01*
X-821640Y5500040D01*
X-727350Y5670350D01*
X-724910Y5674190D01*
X-715920Y5685250D01*
X-705150Y5694580D01*
X-698800Y5698570D01*
X-691870Y5701820D01*
X-684910Y5704260D01*
X-670640Y5706820D01*
X-660280Y5707350D01*
X-647020Y5705990D01*
G37*
%TD.AperFunction*%
%TA.AperFunction,NonConductor*%
G36*
X16796270Y7633400D02*
G01*
X16808040Y7630010D01*
X16814880Y7626830D01*
X16823560Y7621110D01*
X16831120Y7613970D01*
X16837320Y7605630D01*
X16841980Y7596330D01*
X16844950Y7586370D01*
X16855230Y7482870D01*
X16847640Y7356650D01*
X16831460Y7286070D01*
X16798660Y7205160D01*
X16752320Y7131180D01*
X16709400Y7084200D01*
X16617930Y7007690D01*
X16514570Y6948220D01*
X16363610Y6892840D01*
X16122070Y6841970D01*
X15978300Y6827110D01*
X15833270Y6820050D01*
X15689830Y6819270D01*
X15419780Y6830570D01*
X15183970Y6850050D01*
X15178040Y6851480D01*
X15164880Y6856450D01*
X15152790Y6863630D01*
X15142120Y6872790D01*
X15133220Y6883670D01*
X15126330Y6895940D01*
X15121680Y6909210D01*
X15119400Y6923080D01*
X15119570Y6937150D01*
X15122180Y6950960D01*
X15127150Y6964120D01*
X15128030Y6965880D01*
X15134090Y6975570D01*
X15141750Y6984060D01*
X15150760Y6991090D01*
X15160850Y6996450D01*
X15171720Y6999970D01*
X15183040Y7001560D01*
X15194460Y7001150D01*
X15497580Y6975680D01*
X15750790Y6966200D01*
X15883590Y6967910D01*
X16016200Y6975700D01*
X16269080Y7015200D01*
X16382720Y7049470D01*
X16435040Y7070850D01*
X16483790Y7095160D01*
X16569310Y7153500D01*
X16615180Y7198340D01*
X16652570Y7250450D01*
X16696110Y7362420D01*
X16704030Y7416700D01*
X16705200Y7475880D01*
X16698340Y7549030D01*
X16698320Y7557340D01*
X16700200Y7570930D01*
X16704410Y7583990D01*
X16710820Y7596120D01*
X16719250Y7606950D01*
X16729420Y7616150D01*
X16741040Y7623450D01*
X16753890Y7629350D01*
X16767350Y7633130D01*
X16774160Y7634170D01*
X16784100Y7634690D01*
X16796270Y7633400D01*
G37*
%TD.AperFunction*%
%TA.AperFunction,NonConductor*%
G36*
X12993830Y27419890D02*
G01*
X13007270Y27417270D01*
X13020060Y27412350D01*
X13031790Y27405290D01*
X13042120Y27396300D01*
X13050730Y27385650D01*
X13057360Y27373670D01*
X13061810Y27360720D01*
X13063950Y27347190D01*
X13063700Y27333500D01*
X13061080Y27320060D01*
X13056160Y27307270D01*
X13049100Y27295540D01*
X13040110Y27285210D01*
X13029460Y27276600D01*
X12895940Y27183210D01*
X12299390Y26666320D01*
X11873510Y26135760D01*
X11393530Y25132130D01*
X11344910Y24968940D01*
X11302540Y24804550D01*
X11266090Y24638710D01*
X11235490Y24472010D01*
X11210260Y24304170D01*
X11190330Y24135610D01*
X11175420Y23966500D01*
X11165260Y23796800D01*
X11159670Y23626800D01*
X11158350Y23456470D01*
X11161090Y23286260D01*
X11177830Y22945830D01*
X11207980Y22606610D01*
X11208640Y22597640D01*
X11207660Y22586190D01*
X11204710Y22575090D01*
X11199870Y22564670D01*
X11193300Y22555240D01*
X11185190Y22547100D01*
X11175790Y22540500D01*
X11165380Y22535620D01*
X11154290Y22532630D01*
X11142850Y22531610D01*
X11131400Y22532590D01*
X11117480Y22534850D01*
X11103940Y22539330D01*
X11091270Y22545950D01*
X11079630Y22554970D01*
X11074350Y22560380D01*
X11065560Y22572850D01*
X11061930Y22580140D01*
X11059080Y22587740D01*
X11055680Y22604070D01*
X11024260Y22961680D01*
X11014020Y23141360D01*
X11007780Y23321390D01*
X11005790Y23501430D01*
X11008330Y23681610D01*
X11015680Y23861400D01*
X11028070Y24040850D01*
X11045770Y24219810D01*
X11069090Y24397940D01*
X11175260Y24925880D01*
X11223570Y25099110D01*
X11278900Y25270610D01*
X11445640Y25682090D01*
X11800690Y26292100D01*
X12230280Y26806680D01*
X12816920Y27313410D01*
X12958390Y27411580D01*
X12965810Y27415110D01*
X12966400Y27415360D01*
X12977220Y27418780D01*
X12988470Y27420270D01*
X12993830Y27419890D01*
G37*
%TD.AperFunction*%
%TA.AperFunction,NonConductor*%
G36*
X5685970Y27786410D02*
G01*
X5701970Y27781810D01*
X5864630Y27713910D01*
X6024520Y27641730D01*
X6181650Y27564940D01*
X6335730Y27483360D01*
X6633210Y27305410D01*
X6925270Y27099670D01*
X7421350Y26640230D01*
X7534380Y26508510D01*
X7641360Y26370480D01*
X7742070Y26225800D01*
X7836200Y26074370D01*
X7837540Y26072010D01*
X7842650Y26060120D01*
X7845620Y26047520D01*
X7846360Y26034590D01*
X7844840Y26021740D01*
X7841110Y26009340D01*
X7835280Y25997780D01*
X7827540Y25987400D01*
X7818110Y25978530D01*
X7807280Y25971430D01*
X7795390Y25966320D01*
X7791920Y25964960D01*
X7779740Y25961770D01*
X7767190Y25960750D01*
X7754650Y25961930D01*
X7742500Y25965260D01*
X7731120Y25970650D01*
X7720850Y25977940D01*
X7712000Y25986900D01*
X7704840Y25997260D01*
X7614590Y26142420D01*
X6951090Y26882900D01*
X6266790Y27348990D01*
X6118990Y27427450D01*
X5968290Y27501270D01*
X5814750Y27570710D01*
X5658540Y27635910D01*
X5652060Y27639160D01*
X5639900Y27647410D01*
X5629360Y27657650D01*
X5620760Y27669560D01*
X5614350Y27682780D01*
X5610340Y27696920D01*
X5608850Y27711530D01*
X5609910Y27726190D01*
X5613510Y27740430D01*
X5619520Y27753840D01*
X5624830Y27761930D01*
X5633180Y27771100D01*
X5642990Y27778680D01*
X5649210Y27782010D01*
X5655840Y27784600D01*
X5662930Y27786430D01*
X5670400Y27787320D01*
X5677990Y27787350D01*
X5685970Y27786410D01*
G37*
%TD.AperFunction*%
%TA.AperFunction,NonConductor*%
G36*
X12105620Y9423410D02*
G01*
X12119300Y9420000D01*
X12132180Y9414270D01*
X12143870Y9406390D01*
X12154010Y9396600D01*
X12162300Y9385200D01*
X12168490Y9372530D01*
X12172380Y9358980D01*
X12173860Y9344960D01*
X12172880Y9330890D01*
X12169470Y9317210D01*
X12163740Y9304330D01*
X12155860Y9292640D01*
X11850570Y8902830D01*
X11703740Y8704170D01*
X11562280Y8502120D01*
X11427230Y8296000D01*
X11299770Y8085150D01*
X11181080Y7869000D01*
X11071300Y7645480D01*
X11068630Y7640220D01*
X11062010Y7630650D01*
X11053830Y7622370D01*
X11044330Y7615640D01*
X11033820Y7610660D01*
X11022590Y7607590D01*
X11011000Y7606510D01*
X10999400Y7607450D01*
X10988150Y7610400D01*
X10977570Y7615260D01*
X10968000Y7621880D01*
X10957260Y7630770D01*
X10947730Y7641620D01*
X10940210Y7653810D01*
X10934880Y7667290D01*
X10932160Y7682260D01*
X10931910Y7690030D01*
X10933890Y7705600D01*
X10936270Y7713850D01*
X11050850Y7948680D01*
X11172240Y8169070D01*
X11302640Y8384010D01*
X11440740Y8593940D01*
X11585320Y8799600D01*
X11735260Y9001760D01*
X12046180Y9398180D01*
X12057860Y9410070D01*
X12064210Y9414710D01*
X12071020Y9418520D01*
X12077880Y9421390D01*
X12084860Y9423320D01*
X12092000Y9424390D01*
X12105620Y9423410D01*
G37*
%TD.AperFunction*%
%TA.AperFunction,NonConductor*%
G36*
X-1414080Y18259430D02*
G01*
X-1401870Y18257130D01*
X-1390240Y18252750D01*
X-1379560Y18246410D01*
X-1370140Y18238310D01*
X-1362260Y18228700D01*
X-1356180Y18217860D01*
X-1352070Y18206140D01*
X-1322580Y18113880D01*
X-1230130Y17904350D01*
X-985060Y17586150D01*
X-685950Y17373880D01*
X-142880Y17191000D01*
X25250Y17164250D01*
X196820Y17146960D01*
X370260Y17138070D01*
X544370Y17136540D01*
X717800Y17141340D01*
X889580Y17151430D01*
X900760Y17151510D01*
X912650Y17149580D01*
X924020Y17145610D01*
X934530Y17139730D01*
X943860Y17132110D01*
X951730Y17122980D01*
X957890Y17112630D01*
X962160Y17101370D01*
X964400Y17089530D01*
X964560Y17077490D01*
X962630Y17065600D01*
X959260Y17052090D01*
X953540Y17038900D01*
X945620Y17026970D01*
X935280Y17016370D01*
X922660Y17007920D01*
X915570Y17004610D01*
X899820Y17000140D01*
X707190Y16988560D01*
X521790Y16984370D01*
X335990Y16987470D01*
X151230Y16998920D01*
X-210060Y17050970D01*
X-383970Y17093690D01*
X-468580Y17119650D01*
X-586630Y17162030D01*
X-862000Y17300960D01*
X-887360Y17316910D01*
X-1081490Y17467410D01*
X-1246530Y17649320D01*
X-1260790Y17668920D01*
X-1401890Y17907790D01*
X-1499360Y18167530D01*
X-1501260Y18180310D01*
X-1500940Y18193230D01*
X-1498380Y18205900D01*
X-1493650Y18217930D01*
X-1486910Y18228960D01*
X-1478360Y18238660D01*
X-1468260Y18246710D01*
X-1456900Y18252900D01*
X-1444650Y18257010D01*
X-1431870Y18258940D01*
X-1426500Y18259580D01*
X-1414080Y18259430D01*
G37*
%TD.AperFunction*%
%TA.AperFunction,NonConductor*%
G36*
X16704440Y26018620D02*
G01*
X16777110Y26003380D01*
X16848560Y25984170D01*
X16918660Y25960830D01*
X16991980Y25931000D01*
X17152040Y25841160D01*
X17294070Y25724890D01*
X17419080Y25576590D01*
X17536190Y25380800D01*
X17548120Y25354910D01*
X17657390Y25043100D01*
X17689020Y24902360D01*
X17690030Y24894690D01*
X17689960Y24880730D01*
X17687470Y24867000D01*
X17682630Y24853910D01*
X17675590Y24841860D01*
X17666570Y24831210D01*
X17655830Y24822290D01*
X17643710Y24815370D01*
X17630570Y24810660D01*
X17616810Y24808310D01*
X17606320Y24807650D01*
X17594810Y24808830D01*
X17583680Y24812000D01*
X17573270Y24817050D01*
X17563900Y24823830D01*
X17555840Y24832140D01*
X17549350Y24841720D01*
X17544620Y24852280D01*
X17541800Y24863500D01*
X17497400Y25053370D01*
X17409920Y25295530D01*
X17350870Y25408430D01*
X17316980Y25462050D01*
X17216860Y25587730D01*
X17066510Y25715320D01*
X16900380Y25803560D01*
X16667610Y25872570D01*
X16332380Y25894390D01*
X16130040Y25878690D01*
X15997100Y25859920D01*
X15985350Y25858990D01*
X15971230Y25860110D01*
X15957530Y25863660D01*
X15944650Y25869540D01*
X15932990Y25877560D01*
X15922890Y25887490D01*
X15914680Y25899020D01*
X15908590Y25911800D01*
X15904810Y25925450D01*
X15903460Y25939540D01*
X15904580Y25953660D01*
X15908130Y25967360D01*
X15914010Y25980240D01*
X15918380Y25985900D01*
X15923510Y25991080D01*
X15929410Y25995710D01*
X15935960Y25999720D01*
X15943150Y26002970D01*
X15951020Y26005560D01*
X16106420Y26027840D01*
X16255850Y26041050D01*
X16406370Y26045160D01*
X16704440Y26018620D01*
G37*
%TD.AperFunction*%
%TA.AperFunction,NonConductor*%
G36*
X16328710Y4029510D02*
G01*
X16340370Y4025650D01*
X16351180Y4019820D01*
X16360820Y4012200D01*
X16368990Y4003020D01*
X16375440Y3992570D01*
X16379980Y3981150D01*
X16382460Y3969120D01*
X16382820Y3956840D01*
X16378400Y3744930D01*
X16379900Y3636980D01*
X16404950Y3311830D01*
X16421680Y3204620D01*
X16443450Y3098800D01*
X16470680Y2995040D01*
X16503830Y2893750D01*
X16543380Y2795570D01*
X16644280Y2608640D01*
X16783350Y2434460D01*
X16950260Y2293100D01*
X17317670Y2114730D01*
X17403290Y2090140D01*
X17490340Y2069720D01*
X17578650Y2053160D01*
X17847610Y2023240D01*
X18026990Y2016480D01*
X18204130Y2017240D01*
X18213840Y2016690D01*
X18226450Y2013990D01*
X18238400Y2009150D01*
X18249340Y2002300D01*
X18258910Y1993660D01*
X18266840Y1983490D01*
X18272880Y1972090D01*
X18276860Y1959820D01*
X18278640Y1947040D01*
X18278180Y1934150D01*
X18275480Y1921540D01*
X18270910Y1908180D01*
X18264020Y1895810D01*
X18254680Y1884780D01*
X18249110Y1879980D01*
X18243040Y1875740D01*
X18236260Y1872060D01*
X18228950Y1869060D01*
X18221200Y1866900D01*
X18212920Y1865450D01*
X18013450Y1864460D01*
X17820160Y1872890D01*
X17723330Y1881300D01*
X17531080Y1908020D01*
X17261240Y1973530D01*
X16986050Y2091940D01*
X16903140Y2141220D01*
X16823330Y2196690D01*
X16781850Y2229180D01*
X16623330Y2383540D01*
X16568170Y2454150D01*
X16428600Y2683460D01*
X16330960Y2933520D01*
X16257650Y3271470D01*
X16228420Y3617600D01*
X16226260Y3732350D01*
X16231210Y3966130D01*
X16232630Y3974030D01*
X16236630Y3986130D01*
X16242660Y3997350D01*
X16250560Y4007350D01*
X16260070Y4015830D01*
X16270910Y4022530D01*
X16282740Y4027250D01*
X16295220Y4029840D01*
X16302200Y4030680D01*
X16304270Y4030930D01*
X16316550Y4031290D01*
X16328710Y4029510D01*
G37*
%TD.AperFunction*%
D11*
X-14647190Y-11022630D02*
G75*
G02*
X-15247190Y-11022630I-300000J0D01*
G01*
X-15247190Y-11022630D02*
G75*
G02*
X-14647190Y-11022630I300000J0D01*
G01*
X-14647190Y40240840D02*
G75*
G02*
X-15247190Y40240840I-300000J0D01*
G01*
X-15247190Y40240840D02*
G75*
G02*
X-14647190Y40240840I300000J0D01*
G01*
X34155380Y-11022630D02*
G75*
G02*
X33555380Y-11022630I-300000J0D01*
G01*
X33555380Y-11022630D02*
G75*
G02*
X34155380Y-11022630I300000J0D01*
G01*
X34155380Y35240820D02*
G75*
G02*
X33555380Y35240820I-300000J0D01*
G01*
X33555380Y35240820D02*
G75*
G02*
X34155380Y35240820I300000J0D01*
G01*
D12*
%TO.N,*%
X-2680230Y1192780D02*
X-2722400Y1353920D01*
X-2722400Y1353920D02*
X-2753390Y1517600D01*
X-2753390Y1517600D02*
X-2892780Y2963700D01*
X-2892780Y2963700D02*
X-2899490Y3223620D01*
X-2899490Y3223620D02*
X-2881150Y3482980D01*
X-2881150Y3482980D02*
X-2837970Y3739360D01*
X-2837970Y3739360D02*
X-2770280Y3990390D01*
X-2770280Y3990390D02*
X-2716050Y4142940D01*
X-2716050Y4142940D02*
X-2592300Y4426410D01*
X-2592300Y4426410D02*
X-2446020Y4698900D01*
X-2446020Y4698900D02*
X-2278150Y4958690D01*
X-2278150Y4958690D02*
X-2094180Y5198750D01*
X-2094180Y5198750D02*
X-1284450Y6006670D01*
X-1284450Y6006670D02*
X-773020Y6781110D01*
X-773020Y6781110D02*
X-751460Y6871610D01*
X-751460Y6871610D02*
X-749940Y6894830D01*
X-749940Y6894830D02*
X-759430Y6940880D01*
X-759430Y6940880D02*
X-790800Y6975910D01*
X-790800Y6975910D02*
X-835530Y6990410D01*
X-835530Y6990410D02*
X-875590Y6983220D01*
X-875590Y6983220D02*
X-968040Y6980100D01*
X-968040Y6980100D02*
X-1167640Y6991020D01*
X-1167640Y6991020D02*
X-1303220Y7012970D01*
X-1303220Y7012970D02*
X-1879500Y7151670D01*
X-1879500Y7151670D02*
X-2110410Y7233720D01*
X-2110410Y7233720D02*
X-2331770Y7338870D01*
X-2331770Y7338870D02*
X-2450740Y7407530D01*
X-2450740Y7407530D02*
X-2631340Y7532780D01*
X-2631340Y7532780D02*
X-2796510Y7677760D01*
X-2796510Y7677760D02*
X-2944110Y7840570D01*
X-2944110Y7840570D02*
X-3072230Y8019140D01*
X-3072230Y8019140D02*
X-3179220Y8211110D01*
X-3179220Y8211110D02*
X-3263670Y8414000D01*
X-3263670Y8414000D02*
X-3324480Y8625180D01*
X-3324480Y8625180D02*
X-3360880Y8841920D01*
X-3360880Y8841920D02*
X-3369670Y8949720D01*
X-3369670Y8949720D02*
X-3447240Y18547770D01*
X-3447240Y18547770D02*
X-3419500Y18818560D01*
X-3419500Y18818560D02*
X-3367000Y19085660D01*
X-3367000Y19085660D02*
X-3290160Y19346820D01*
X-3290160Y19346820D02*
X-3189630Y19599780D01*
X-3189630Y19599780D02*
X-3066290Y19842450D01*
X-3066290Y19842450D02*
X-2921150Y20072760D01*
X-2921150Y20072760D02*
X-2755470Y20288730D01*
X-2755470Y20288730D02*
X-2570610Y20488550D01*
X-2570610Y20488550D02*
X-2368170Y20670550D01*
X-2368170Y20670550D02*
X-2306750Y20719520D01*
X-2306750Y20719520D02*
X-1227200Y21512170D01*
X-1227200Y21512170D02*
X-1200380Y21557770D01*
X-1200380Y21557770D02*
X-1195480Y21594850D01*
X-1195480Y21594850D02*
X-1206470Y21682710D01*
X-1206470Y21682710D02*
X-1249650Y21827240D01*
X-1249650Y21827240D02*
X-1313330Y21986040D01*
X-1313330Y21986040D02*
X-1519990Y22376490D01*
X-1519990Y22376490D02*
X-1603650Y22491700D01*
X-1603650Y22491700D02*
X-1712870Y22577090D01*
X-1712870Y22577090D02*
X-2242390Y22872320D01*
X-2242390Y22872320D02*
X-2409600Y22991880D01*
X-2409600Y22991880D02*
X-2561030Y23130870D01*
X-2561030Y23130870D02*
X-2694460Y23287230D01*
X-2694460Y23287230D02*
X-2807870Y23458680D01*
X-2807870Y23458680D02*
X-2868930Y23574650D01*
X-2868930Y23574650D02*
X-2957370Y23778690D01*
X-2957370Y23778690D02*
X-3022320Y23991390D01*
X-3022320Y23991390D02*
X-3062940Y24210040D01*
X-3062940Y24210040D02*
X-3078710Y24431850D01*
X-3078710Y24431850D02*
X-3078910Y24453620D01*
X-3078910Y24453620D02*
X-3065420Y24743710D01*
X-3065420Y24743710D02*
X-3026990Y25031550D01*
X-3026990Y25031550D02*
X-3001750Y25159110D01*
X-3001750Y25159110D02*
X-2933190Y25411150D01*
X-2933190Y25411150D02*
X-2840810Y25655450D01*
X-2840810Y25655450D02*
X-2725420Y25889790D01*
X-2725420Y25889790D02*
X-2588130Y26111990D01*
X-2588130Y26111990D02*
X-2430200Y26320040D01*
X-2430200Y26320040D02*
X-2285420Y26479600D01*
X-2285420Y26479600D02*
X-2079240Y26671240D01*
X-2079240Y26671240D02*
X-1856870Y26843790D01*
X-1856870Y26843790D02*
X-1755700Y26912420D01*
X-1755700Y26912420D02*
X-1154020Y27237560D01*
X-1154020Y27237560D02*
X-912980Y27534160D01*
X-912980Y27534160D02*
X-634420Y27796010D01*
X-634420Y27796010D02*
X-377110Y27985670D01*
X-377110Y27985670D02*
X-105770Y28154580D01*
X-105770Y28154580D02*
X178000Y28301720D01*
X178000Y28301720D02*
X354760Y28379700D01*
X354760Y28379700D02*
X690170Y28503580D01*
X690170Y28503580D02*
X1033450Y28603650D01*
X1033450Y28603650D02*
X1210540Y28645280D01*
X1210540Y28645280D02*
X2771620Y28822140D01*
X2771620Y28822140D02*
X15542950Y29176400D01*
X15542950Y29176400D02*
X15962120Y29220640D01*
X15962120Y29220640D02*
X16383200Y29239920D01*
X16383200Y29239920D02*
X16804670Y29234130D01*
X16804670Y29234130D02*
X17225060Y29203290D01*
X17225060Y29203290D02*
X17642870Y29147540D01*
X17642870Y29147540D02*
X17904310Y29099660D01*
X17904310Y29099660D02*
X18258790Y29016330D01*
X18258790Y29016330D02*
X18606720Y28908810D01*
X18606720Y28908810D02*
X18946420Y28777640D01*
X18946420Y28777640D02*
X19276260Y28623410D01*
X19276260Y28623410D02*
X19594750Y28446860D01*
X19594750Y28446860D02*
X19896100Y28251760D01*
X19896100Y28251760D02*
X20174860Y28039290D01*
X20174860Y28039290D02*
X20437750Y27807440D01*
X20437750Y27807440D02*
X20683400Y27557370D01*
X20683400Y27557370D02*
X20910550Y27290420D01*
X20910550Y27290420D02*
X21118040Y27007950D01*
X21118040Y27007950D02*
X21304830Y26711330D01*
X21304830Y26711330D02*
X21377710Y26581400D01*
X21377710Y26581400D02*
X21565180Y26208480D01*
X21565180Y26208480D02*
X21729950Y25824990D01*
X21729950Y25824990D02*
X21871410Y25432280D01*
X21871410Y25432280D02*
X21989030Y25031830D01*
X21989030Y25031830D02*
X22082400Y24625020D01*
X22082400Y24625020D02*
X22110880Y24472440D01*
X22110880Y24472440D02*
X22355380Y21859090D01*
X22355380Y21859090D02*
X22309890Y21199600D01*
X22309890Y21199600D02*
X22197360Y20548630D01*
X22197360Y20548630D02*
X22110090Y20204250D01*
X22110090Y20204250D02*
X21998760Y19866860D01*
X21998760Y19866860D02*
X21863910Y19538190D01*
X21863910Y19538190D02*
X21706260Y19219820D01*
X21706260Y19219820D02*
X21526530Y18913370D01*
X21526530Y18913370D02*
X21340140Y18640040D01*
X21340140Y18640040D02*
X21126810Y18367880D01*
X21126810Y18367880D02*
X20894340Y18111880D01*
X20894340Y18111880D02*
X20812660Y18030240D01*
X20812660Y18030240D02*
X20666080Y10774220D01*
X20666080Y10774220D02*
X20459780Y7328920D01*
X20459780Y7328920D02*
X20744000Y7299780D01*
X20744000Y7299780D02*
X21024600Y7245830D01*
X21024600Y7245830D02*
X21273820Y7175930D01*
X21273820Y7175930D02*
X21468160Y7101840D01*
X21468160Y7101840D02*
X21652200Y7004910D01*
X21652200Y7004910D02*
X21721670Y6960490D01*
X21721670Y6960490D02*
X21859980Y6853500D01*
X21859980Y6853500D02*
X21981570Y6727850D01*
X21981570Y6727850D02*
X22083980Y6586140D01*
X22083980Y6586140D02*
X22165130Y6431250D01*
X22165130Y6431250D02*
X22223300Y6266360D01*
X22223300Y6266360D02*
X22247660Y6158740D01*
X22247660Y6158740D02*
X22282890Y5917440D01*
X22282890Y5917440D02*
X22293220Y5678960D01*
X22293220Y5678960D02*
X22259470Y5144110D01*
X22259470Y5144110D02*
X22224540Y4932550D01*
X22224540Y4932550D02*
X22171180Y4722520D01*
X22171180Y4722520D02*
X22093960Y4520060D01*
X22093960Y4520060D02*
X22078900Y4487340D01*
X22078900Y4487340D02*
X21990990Y4331490D01*
X21990990Y4331490D02*
X21882200Y4189450D01*
X21882200Y4189450D02*
X21754640Y4063970D01*
X21754640Y4063970D02*
X21610850Y3957500D01*
X21610850Y3957500D02*
X21453580Y3872150D01*
X21453580Y3872150D02*
X21414510Y3855140D01*
X21414510Y3855140D02*
X21204400Y3782190D01*
X21204400Y3782190D02*
X20987410Y3733290D01*
X20987410Y3733290D02*
X20966940Y3729990D01*
X20966940Y3729990D02*
X20920860Y3517700D01*
X20920860Y3517700D02*
X20850660Y3312130D01*
X20850660Y3312130D02*
X20831230Y3266160D01*
X20831230Y3266160D02*
X20746540Y3102280D01*
X20746540Y3102280D02*
X20640450Y2951330D01*
X20640450Y2951330D02*
X20640120Y2950950D01*
X20640120Y2950950D02*
X20518910Y2821610D01*
X20518910Y2821610D02*
X20380680Y2710660D01*
X20380680Y2710660D02*
X20228200Y2620260D01*
X20228200Y2620260D02*
X20064530Y2552240D01*
X20064530Y2552240D02*
X20042400Y2545050D01*
X20042400Y2545050D02*
X19952540Y2332990D01*
X19952540Y2332990D02*
X19840190Y2131900D01*
X19840190Y2131900D02*
X19809210Y2084350D01*
X19809210Y2084350D02*
X19686190Y1921790D01*
X19686190Y1921790D02*
X19544180Y1775560D01*
X19544180Y1775560D02*
X19385310Y1647830D01*
X19385310Y1647830D02*
X19212000Y1540540D01*
X19212000Y1540540D02*
X19026810Y1455290D01*
X19026810Y1455290D02*
X18832600Y1393420D01*
X18832600Y1393420D02*
X18811930Y1388340D01*
X18811930Y1388340D02*
X18731050Y1167870D01*
X18731050Y1167870D02*
X18627140Y957280D01*
X18627140Y957280D02*
X18529350Y799130D01*
X18529350Y799130D02*
X18407020Y639110D01*
X18407020Y639110D02*
X18265780Y495500D01*
X18265780Y495500D02*
X18107790Y370510D01*
X18107790Y370510D02*
X17935550Y266090D01*
X17935550Y266090D02*
X17751650Y183850D01*
X17751650Y183850D02*
X17619170Y140590D01*
X17619170Y140590D02*
X17387930Y83870D01*
X17387930Y83870D02*
X17151990Y51770D01*
X17151990Y51770D02*
X17097300Y47900D01*
X17097300Y47900D02*
X5662520Y483290D01*
X5662520Y483290D02*
X-383290Y-22630D01*
X-383290Y-22630D02*
X-1119350Y-17880D01*
X-1119350Y-17880D02*
X-1389200Y14630D01*
X-1389200Y14630D02*
X-1609140Y63500D01*
X-1609140Y63500D02*
X-1822270Y136500D01*
X-1822270Y136500D02*
X-1843960Y145440D01*
X-1843960Y145440D02*
X-2003370Y224430D01*
X-2003370Y224430D02*
X-2150140Y325020D01*
X-2150140Y325020D02*
X-2281350Y445190D01*
X-2281350Y445190D02*
X-2394380Y582600D01*
X-2394380Y582600D02*
X-2484700Y730020D01*
X-2484700Y730020D02*
X-2584020Y939270D01*
X-2584020Y939270D02*
X-2660170Y1157990D01*
X-2660170Y1157990D02*
X-2667410Y1183670D01*
X-2667410Y1183670D02*
X-2680230Y1192780D01*
X-2671320Y1202560D02*
X-2672490Y1206500D01*
X-2680230Y1192780D02*
X-2722400Y1353920D01*
X-2722400Y1353920D02*
X-2753390Y1517600D01*
X-2753390Y1517600D02*
X-2892780Y2963700D01*
X-2892780Y2963700D02*
X-2899490Y3223620D01*
X-2899490Y3223620D02*
X-2881150Y3482980D01*
X-2881150Y3482980D02*
X-2837970Y3739360D01*
X-2837970Y3739360D02*
X-2770280Y3990390D01*
X-2770280Y3990390D02*
X-2716050Y4142940D01*
X-2716050Y4142940D02*
X-2592300Y4426410D01*
X-2592300Y4426410D02*
X-2446020Y4698900D01*
X-2446020Y4698900D02*
X-2278150Y4958690D01*
X-2278150Y4958690D02*
X-2094180Y5198750D01*
X-2094180Y5198750D02*
X-1284450Y6006670D01*
X-1284450Y6006670D02*
X-773020Y6781110D01*
X-773020Y6781110D02*
X-751460Y6871610D01*
X-751460Y6871610D02*
X-749940Y6894830D01*
X-749940Y6894830D02*
X-759430Y6940880D01*
X-759430Y6940880D02*
X-790800Y6975910D01*
X-790800Y6975910D02*
X-835530Y6990410D01*
X-835530Y6990410D02*
X-875590Y6983220D01*
X-875590Y6983220D02*
X-968040Y6980100D01*
X-968040Y6980100D02*
X-1167640Y6991020D01*
X-1167640Y6991020D02*
X-1303220Y7012970D01*
X-1303220Y7012970D02*
X-1879500Y7151670D01*
X-1879500Y7151670D02*
X-2110410Y7233720D01*
X-2110410Y7233720D02*
X-2331770Y7338870D01*
X-2331770Y7338870D02*
X-2450740Y7407530D01*
X-2450740Y7407530D02*
X-2631340Y7532780D01*
X-2631340Y7532780D02*
X-2796510Y7677760D01*
X-2796510Y7677760D02*
X-2944110Y7840570D01*
X-2944110Y7840570D02*
X-3072230Y8019140D01*
X-3072230Y8019140D02*
X-3179220Y8211110D01*
X-3179220Y8211110D02*
X-3263670Y8414000D01*
X-3263670Y8414000D02*
X-3324480Y8625180D01*
X-3324480Y8625180D02*
X-3360880Y8841920D01*
X-3360880Y8841920D02*
X-3369670Y8949720D01*
X-3369670Y8949720D02*
X-3447240Y18547770D01*
X-3447240Y18547770D02*
X-3419500Y18818560D01*
X-3419500Y18818560D02*
X-3367000Y19085660D01*
X-3367000Y19085660D02*
X-3290160Y19346820D01*
X-3290160Y19346820D02*
X-3189630Y19599780D01*
X-3189630Y19599780D02*
X-3066290Y19842450D01*
X-3066290Y19842450D02*
X-2921150Y20072760D01*
X-2921150Y20072760D02*
X-2755470Y20288730D01*
X-2755470Y20288730D02*
X-2570610Y20488550D01*
X-2570610Y20488550D02*
X-2368170Y20670550D01*
X-2368170Y20670550D02*
X-2306750Y20719520D01*
X-2306750Y20719520D02*
X-1227200Y21512170D01*
X-1227200Y21512170D02*
X-1200380Y21557770D01*
X-1200380Y21557770D02*
X-1195480Y21594850D01*
X-1195480Y21594850D02*
X-1206470Y21682710D01*
X-1206470Y21682710D02*
X-1249650Y21827240D01*
X-1249650Y21827240D02*
X-1313330Y21986040D01*
X-1313330Y21986040D02*
X-1519990Y22376490D01*
X-1519990Y22376490D02*
X-1603650Y22491700D01*
X-1603650Y22491700D02*
X-1712870Y22577090D01*
X-1712870Y22577090D02*
X-2242390Y22872320D01*
X-2242390Y22872320D02*
X-2409600Y22991880D01*
X-2409600Y22991880D02*
X-2561030Y23130870D01*
X-2561030Y23130870D02*
X-2694460Y23287230D01*
X-2694460Y23287230D02*
X-2807870Y23458680D01*
X-2807870Y23458680D02*
X-2868930Y23574650D01*
X-2868930Y23574650D02*
X-2957370Y23778690D01*
X-2957370Y23778690D02*
X-3022320Y23991390D01*
X-3022320Y23991390D02*
X-3062940Y24210040D01*
X-3062940Y24210040D02*
X-3078710Y24431850D01*
X-3078710Y24431850D02*
X-3078910Y24453620D01*
X-3078910Y24453620D02*
X-3065420Y24743710D01*
X-3065420Y24743710D02*
X-3026990Y25031550D01*
X-3026990Y25031550D02*
X-3001750Y25159110D01*
X-3001750Y25159110D02*
X-2933190Y25411150D01*
X-2933190Y25411150D02*
X-2840810Y25655450D01*
X-2840810Y25655450D02*
X-2725420Y25889790D01*
X-2725420Y25889790D02*
X-2588130Y26111990D01*
X-2588130Y26111990D02*
X-2430200Y26320040D01*
X-2430200Y26320040D02*
X-2285420Y26479600D01*
X-2285420Y26479600D02*
X-2079240Y26671240D01*
X-2079240Y26671240D02*
X-1856870Y26843790D01*
X-1856870Y26843790D02*
X-1755700Y26912420D01*
X-1755700Y26912420D02*
X-1154020Y27237560D01*
X-1154020Y27237560D02*
X-912980Y27534160D01*
X-912980Y27534160D02*
X-634420Y27796010D01*
X-634420Y27796010D02*
X-377110Y27985670D01*
X-377110Y27985670D02*
X-105770Y28154580D01*
X-105770Y28154580D02*
X178000Y28301720D01*
X178000Y28301720D02*
X354760Y28379700D01*
X354760Y28379700D02*
X690170Y28503580D01*
X690170Y28503580D02*
X1033450Y28603650D01*
X1033450Y28603650D02*
X1210540Y28645280D01*
X1210540Y28645280D02*
X2771620Y28822140D01*
X2771620Y28822140D02*
X15542950Y29176400D01*
X15542950Y29176400D02*
X15962120Y29220640D01*
X15962120Y29220640D02*
X16383200Y29239920D01*
X16383200Y29239920D02*
X16804670Y29234130D01*
X16804670Y29234130D02*
X17225060Y29203290D01*
X17225060Y29203290D02*
X17642870Y29147540D01*
X17642870Y29147540D02*
X17904310Y29099660D01*
X17904310Y29099660D02*
X18258790Y29016330D01*
X18258790Y29016330D02*
X18606720Y28908810D01*
X18606720Y28908810D02*
X18946420Y28777640D01*
X18946420Y28777640D02*
X19276260Y28623410D01*
X19276260Y28623410D02*
X19594750Y28446860D01*
X19594750Y28446860D02*
X19896100Y28251760D01*
X19896100Y28251760D02*
X20174860Y28039290D01*
X20174860Y28039290D02*
X20437750Y27807440D01*
X20437750Y27807440D02*
X20683400Y27557370D01*
X20683400Y27557370D02*
X20910550Y27290420D01*
X20910550Y27290420D02*
X21118040Y27007950D01*
X21118040Y27007950D02*
X21304830Y26711330D01*
X21304830Y26711330D02*
X21377710Y26581400D01*
X21377710Y26581400D02*
X21565180Y26208480D01*
X21565180Y26208480D02*
X21729950Y25824990D01*
X21729950Y25824990D02*
X21871410Y25432280D01*
X21871410Y25432280D02*
X21989030Y25031830D01*
X21989030Y25031830D02*
X22082400Y24625020D01*
X22082400Y24625020D02*
X22110880Y24472440D01*
X22110880Y24472440D02*
X22355380Y21859090D01*
X22355380Y21859090D02*
X22309890Y21199600D01*
X22309890Y21199600D02*
X22197360Y20548630D01*
X22197360Y20548630D02*
X22110090Y20204250D01*
X22110090Y20204250D02*
X21998760Y19866860D01*
X21998760Y19866860D02*
X21863910Y19538190D01*
X21863910Y19538190D02*
X21706260Y19219820D01*
X21706260Y19219820D02*
X21526530Y18913370D01*
X21526530Y18913370D02*
X21340140Y18640040D01*
X21340140Y18640040D02*
X21126810Y18367880D01*
X21126810Y18367880D02*
X20894340Y18111880D01*
X20894340Y18111880D02*
X20812660Y18030240D01*
X20812660Y18030240D02*
X20666080Y10774220D01*
X20666080Y10774220D02*
X20459780Y7328920D01*
X20459780Y7328920D02*
X20744000Y7299780D01*
X20744000Y7299780D02*
X21024600Y7245830D01*
X21024600Y7245830D02*
X21273820Y7175930D01*
X21273820Y7175930D02*
X21468160Y7101840D01*
X21468160Y7101840D02*
X21652200Y7004910D01*
X21652200Y7004910D02*
X21721670Y6960490D01*
X21721670Y6960490D02*
X21859980Y6853500D01*
X21859980Y6853500D02*
X21981570Y6727850D01*
X21981570Y6727850D02*
X22083980Y6586140D01*
X22083980Y6586140D02*
X22165130Y6431250D01*
X22165130Y6431250D02*
X22223300Y6266360D01*
X22223300Y6266360D02*
X22247660Y6158740D01*
X22247660Y6158740D02*
X22282890Y5917440D01*
X22282890Y5917440D02*
X22293220Y5678960D01*
X22293220Y5678960D02*
X22259470Y5144110D01*
X22259470Y5144110D02*
X22224540Y4932550D01*
X22224540Y4932550D02*
X22171180Y4722520D01*
X22171180Y4722520D02*
X22093960Y4520060D01*
X22093960Y4520060D02*
X22078900Y4487340D01*
X22078900Y4487340D02*
X21990990Y4331490D01*
X21990990Y4331490D02*
X21882200Y4189450D01*
X21882200Y4189450D02*
X21754640Y4063970D01*
X21754640Y4063970D02*
X21610850Y3957500D01*
X21610850Y3957500D02*
X21453580Y3872150D01*
X21453580Y3872150D02*
X21414510Y3855140D01*
X21414510Y3855140D02*
X21204400Y3782190D01*
X21204400Y3782190D02*
X20987410Y3733290D01*
X20987410Y3733290D02*
X20966940Y3729990D01*
X20966940Y3729990D02*
X20920860Y3517700D01*
X20920860Y3517700D02*
X20850660Y3312130D01*
X20850660Y3312130D02*
X20831230Y3266160D01*
X20831230Y3266160D02*
X20746540Y3102280D01*
X20746540Y3102280D02*
X20640450Y2951330D01*
X20640450Y2951330D02*
X20640120Y2950950D01*
X20640120Y2950950D02*
X20518910Y2821610D01*
X20518910Y2821610D02*
X20380680Y2710660D01*
X20380680Y2710660D02*
X20228200Y2620260D01*
X20228200Y2620260D02*
X20064530Y2552240D01*
X20064530Y2552240D02*
X20042400Y2545050D01*
X20042400Y2545050D02*
X19952540Y2332990D01*
X19952540Y2332990D02*
X19840190Y2131900D01*
X19840190Y2131900D02*
X19809210Y2084350D01*
X19809210Y2084350D02*
X19686190Y1921790D01*
X19686190Y1921790D02*
X19544180Y1775560D01*
X19544180Y1775560D02*
X19385310Y1647830D01*
X19385310Y1647830D02*
X19212000Y1540540D01*
X19212000Y1540540D02*
X19026810Y1455290D01*
X19026810Y1455290D02*
X18832600Y1393420D01*
X18832600Y1393420D02*
X18811930Y1388340D01*
X18811930Y1388340D02*
X18731050Y1167870D01*
X18731050Y1167870D02*
X18627140Y957280D01*
X18627140Y957280D02*
X18529350Y799130D01*
X18529350Y799130D02*
X18407020Y639110D01*
X18407020Y639110D02*
X18265780Y495500D01*
X18265780Y495500D02*
X18107790Y370510D01*
X18107790Y370510D02*
X17935550Y266090D01*
X17935550Y266090D02*
X17751650Y183850D01*
X17751650Y183850D02*
X17619170Y140590D01*
X17619170Y140590D02*
X17387930Y83870D01*
X17387930Y83870D02*
X17151990Y51770D01*
X17151990Y51770D02*
X17097300Y47900D01*
X17097300Y47900D02*
X5662520Y483290D01*
X5662520Y483290D02*
X-383290Y-22630D01*
X-383290Y-22630D02*
X-1119350Y-17880D01*
X-1119350Y-17880D02*
X-1389200Y14630D01*
X-1389200Y14630D02*
X-1609140Y63500D01*
X-1609140Y63500D02*
X-1822270Y136500D01*
X-1822270Y136500D02*
X-1843960Y145440D01*
X-1843960Y145440D02*
X-2003370Y224430D01*
X-2003370Y224430D02*
X-2150140Y325020D01*
X-2150140Y325020D02*
X-2281350Y445190D01*
X-2281350Y445190D02*
X-2394380Y582600D01*
X-2394380Y582600D02*
X-2484700Y730020D01*
X-2484700Y730020D02*
X-2584020Y939270D01*
X-2584020Y939270D02*
X-2660170Y1157990D01*
X-2660170Y1157990D02*
X-2667410Y1183670D01*
X-2667410Y1183670D02*
X-2680230Y1192780D01*
X-2671320Y1202560D02*
X-2672490Y1206500D01*
%TD*%
M02*
