%TF.GenerationSoftware,KiCad,Pcbnew,8.0.0*%
%TF.CreationDate,2024-03-08T11:25:02-06:00*%
%TF.ProjectId,untitled,756e7469-746c-4656-942e-6b696361645f,rev?*%
%TF.SameCoordinates,Original*%
%TF.FileFunction,Soldermask,Bot*%
%TF.FilePolarity,Negative*%
%FSLAX46Y46*%
G04 Gerber Fmt 4.6, Leading zero omitted, Abs format (unit mm)*
G04 Created by KiCad (PCBNEW 8.0.0) date 2024-03-08 11:25:02*
%MOMM*%
%LPD*%
G01*
G04 APERTURE LIST*
%ADD10C,0.119990*%
%ADD11C,1.000000*%
%ADD12C,0.279400*%
%ADD13C,0.900000*%
%ADD14C,1.315090*%
%ADD15C,0.516890*%
%ADD16C,0.358140*%
%ADD17C,1.216030*%
%ADD18C,0.375920*%
G04 APERTURE END LIST*
D10*
X4166770Y16458790D02*
X4166770Y17898800D01*
X4166770Y16458790D02*
X3596770Y16458790D01*
X3596770Y11258780D02*
X3596770Y16458790D01*
X6706770Y16458790D02*
X5686780Y16458790D01*
X9246770Y16458790D02*
X8226780Y16458790D01*
X11336780Y16458790D02*
X10766780Y16458790D01*
X11336780Y11258780D02*
X11336780Y16458790D01*
X4166770Y11258780D02*
X3596770Y11258780D01*
X6706770Y11258780D02*
X5686780Y11258780D01*
X9246770Y11258780D02*
X8226780Y11258780D01*
X11336780Y11258780D02*
X10766780Y11258780D01*
X11386770Y21010960D02*
X11386770Y21226630D01*
X12106780Y21010960D02*
X12106780Y21226630D01*
X9398940Y20638800D02*
X9614610Y20638800D01*
X9398940Y19918780D02*
X9614610Y19918780D01*
X12956770Y10956620D02*
X12956770Y10740950D01*
X12236780Y10956620D02*
X12236780Y10740950D01*
X5986780Y7076620D02*
X5986780Y6860950D01*
X5266770Y7076620D02*
X5266770Y6860950D01*
X14844600Y9698790D02*
X14628930Y9698790D01*
X14844600Y10418780D02*
X14628930Y10418780D01*
X2234620Y6378780D02*
X2018940Y6378780D01*
X2234620Y7098790D02*
X2018940Y7098790D01*
X3898950Y20708800D02*
X4114620Y20708800D01*
X3898950Y19988780D02*
X4114620Y19988780D01*
X2224610Y7938800D02*
X2008940Y7938800D01*
X2224610Y8658780D02*
X2008940Y8658780D01*
X11216770Y27918790D02*
X11216770Y20618780D01*
X5716780Y27918790D02*
X5716780Y20618780D01*
X6866760Y27918790D02*
X5716780Y27918790D01*
X20536760Y10858780D02*
X13236780Y10858780D01*
X20536760Y16358790D02*
X13236780Y16358790D01*
X20536760Y15208780D02*
X20536760Y16358790D01*
X6186780Y798780D02*
X6186780Y8098790D01*
X11686770Y798780D02*
X11686770Y8098790D01*
X10536780Y798780D02*
X11686770Y798780D01*
X2836770Y16068780D02*
X2836770Y8768790D01*
X-2663220Y16068780D02*
X-2663220Y8768790D01*
X-1513230Y16068780D02*
X-2663220Y16068780D01*
D11*
X4926740Y15308810D02*
X4926740Y17458820D01*
X4926740Y10258810D02*
X4926740Y12408810D01*
X7466740Y15308810D02*
X7466740Y17458820D01*
X7466740Y10258810D02*
X7466740Y12408810D01*
X10006740Y15308810D02*
X10006740Y17458820D01*
X10006740Y10258810D02*
X10006740Y12408810D01*
D12*
X11576580Y21598790D02*
X11916940Y21598790D01*
X11576580Y21738490D02*
X11916940Y21738490D01*
X11576580Y21459090D02*
X11916940Y21459090D01*
X11576580Y20638800D02*
X11916940Y20638800D01*
X11576580Y20778500D02*
X11916940Y20778500D01*
X11576580Y20499100D02*
X11916940Y20499100D01*
X9986770Y20108600D02*
X9986770Y20448960D01*
X9847070Y20108600D02*
X9847070Y20448960D01*
X10126470Y20108600D02*
X10126470Y20448960D01*
X9026780Y20108600D02*
X9026780Y20448960D01*
X8887080Y20108600D02*
X8887080Y20448960D01*
X9166480Y20108600D02*
X9166480Y20448960D01*
X12426590Y10368790D02*
X12766950Y10368790D01*
X12426590Y10508490D02*
X12766950Y10508490D01*
X12426590Y10229090D02*
X12766950Y10229090D01*
X12426590Y11328780D02*
X12766950Y11328780D01*
X12426590Y11468480D02*
X12766950Y11468480D01*
X12426590Y11189080D02*
X12766950Y11189080D01*
X5456610Y6488790D02*
X5796970Y6488790D01*
X5456610Y6628490D02*
X5796970Y6628490D01*
X5456610Y6349090D02*
X5796970Y6349090D01*
X5456610Y7448780D02*
X5796970Y7448780D01*
X5456610Y7588480D02*
X5796970Y7588480D01*
X5456610Y7309080D02*
X5796970Y7309080D01*
X14256770Y9888600D02*
X14256770Y10228960D01*
X14117070Y9888600D02*
X14117070Y10228960D01*
X14396470Y9888600D02*
X14396470Y10228960D01*
X15216780Y9888600D02*
X15216780Y10228960D01*
X15077080Y9888600D02*
X15077080Y10228960D01*
X15356480Y9888600D02*
X15356480Y10228960D01*
X1646780Y6568620D02*
X1646780Y6908980D01*
X1507080Y6568620D02*
X1507080Y6908980D01*
X1786480Y6568620D02*
X1786480Y6908980D01*
X2606780Y6568620D02*
X2606780Y6908980D01*
X2467080Y6568620D02*
X2467080Y6908980D01*
X2746480Y6568620D02*
X2746480Y6908980D01*
X4486780Y20178600D02*
X4486780Y20518960D01*
X4347080Y20178600D02*
X4347080Y20518960D01*
X4626480Y20178600D02*
X4626480Y20518960D01*
X3526760Y20178600D02*
X3526760Y20518960D01*
X3387060Y20178600D02*
X3387060Y20518960D01*
X3666460Y20178600D02*
X3666460Y20518960D01*
X1636780Y8128610D02*
X1636780Y8468970D01*
X1497080Y8128610D02*
X1497080Y8468970D01*
X1776480Y8128610D02*
X1776480Y8468970D01*
X2596770Y8128610D02*
X2596770Y8468970D01*
X2457070Y8128610D02*
X2457070Y8468970D01*
X2736470Y8128610D02*
X2736470Y8468970D01*
D13*
X10116740Y21518800D02*
X10116740Y22118800D01*
X6816750Y21518800D02*
X6816750Y22118800D01*
X6816750Y26418820D02*
X6816750Y27018820D01*
X10116740Y26418820D02*
X10116740Y27018820D01*
X14136750Y11958800D02*
X14736750Y11958800D01*
X14136750Y15258820D02*
X14736750Y15258820D01*
X19036740Y15258820D02*
X19636740Y15258820D01*
X19036740Y11958800D02*
X19636740Y11958800D01*
X7286750Y6598820D02*
X7286750Y7198820D01*
X10586750Y6598820D02*
X10586750Y7198820D01*
X10586750Y1698800D02*
X10586750Y2298800D01*
X7286750Y1698800D02*
X7286750Y2298800D01*
X1736750Y9668810D02*
X1736750Y10268810D01*
X-1563240Y9668810D02*
X-1563240Y10268810D01*
X-1563240Y14568810D02*
X-1563240Y15168800D01*
X1736750Y14568810D02*
X1736750Y15168800D01*
D14*
X4926740Y15308430D02*
X4926740Y17459170D01*
X4926740Y10258430D02*
X4926740Y12409170D01*
X7466740Y15308430D02*
X7466740Y17459170D01*
X7466740Y10258430D02*
X7466740Y12409170D01*
X10006740Y15308430D02*
X10006740Y17459170D01*
X10006740Y10258430D02*
X10006740Y12409170D01*
D15*
X11536270Y21598790D02*
X11957280Y21598790D01*
D16*
X11456900Y21857230D02*
X12036650Y21857230D01*
X11456900Y21340340D02*
X12036650Y21340340D01*
D15*
X11536270Y20638800D02*
X11957280Y20638800D01*
D16*
X11456900Y20897240D02*
X12036650Y20897240D01*
X11456900Y20380350D02*
X12036650Y20380350D01*
D15*
X9986770Y20068260D02*
X9986770Y20489270D01*
D16*
X9728330Y19988890D02*
X9728330Y20568640D01*
X10245220Y19988890D02*
X10245220Y20568640D01*
D15*
X9026780Y20068260D02*
X9026780Y20489270D01*
D16*
X8768330Y19988890D02*
X8768330Y20568640D01*
X9285220Y19988890D02*
X9285220Y20568640D01*
D15*
X12386280Y10368790D02*
X12807290Y10368790D01*
D16*
X12306910Y10627230D02*
X12886660Y10627230D01*
X12306910Y10110340D02*
X12886660Y10110340D01*
D15*
X12386280Y11328780D02*
X12807290Y11328780D01*
D16*
X12306910Y11587230D02*
X12886660Y11587230D01*
X12306910Y11070340D02*
X12886660Y11070340D01*
D15*
X5416300Y6488790D02*
X5837300Y6488790D01*
D16*
X5336920Y6747230D02*
X5916680Y6747230D01*
X5336920Y6230340D02*
X5916680Y6230340D01*
D15*
X5416300Y7448780D02*
X5837300Y7448780D01*
D16*
X5336920Y7707220D02*
X5916680Y7707220D01*
X5336920Y7190330D02*
X5916680Y7190330D01*
D15*
X14256770Y9848270D02*
X14256770Y10269270D01*
D16*
X13998320Y9768890D02*
X13998320Y10348650D01*
X14515210Y9768890D02*
X14515210Y10348650D01*
D15*
X15216780Y9848270D02*
X15216780Y10269270D01*
D16*
X14958340Y9768890D02*
X14958340Y10348650D01*
X15475230Y9768890D02*
X15475230Y10348650D01*
D15*
X1646780Y6528280D02*
X1646780Y6949290D01*
D16*
X1388340Y6448910D02*
X1388340Y7028660D01*
X1905230Y6448910D02*
X1905230Y7028660D01*
D15*
X2606780Y6528280D02*
X2606780Y6949290D01*
D16*
X2348330Y6448910D02*
X2348330Y7028660D01*
X2865220Y6448910D02*
X2865220Y7028660D01*
D15*
X4486780Y20138260D02*
X4486780Y20559270D01*
D16*
X4228340Y20058890D02*
X4228340Y20638640D01*
X4745230Y20058890D02*
X4745230Y20638640D01*
D15*
X3526760Y20138260D02*
X3526760Y20559270D01*
D16*
X3268320Y20058890D02*
X3268320Y20638640D01*
X3785210Y20058890D02*
X3785210Y20638640D01*
D15*
X1636780Y8088300D02*
X1636780Y8509300D01*
D16*
X1378330Y8008920D02*
X1378330Y8588680D01*
X1895220Y8008920D02*
X1895220Y8588680D01*
D15*
X2596770Y8088300D02*
X2596770Y8509300D01*
D16*
X2338320Y8008920D02*
X2338320Y8588680D01*
X2855210Y8008920D02*
X2855210Y8588680D01*
D17*
X10116740Y21518750D02*
X10116740Y22118830D01*
X6816750Y21518750D02*
X6816750Y22118830D01*
X6816750Y26418790D02*
X6816750Y27018870D01*
X10116740Y26418790D02*
X10116740Y27018870D01*
X14136700Y11958800D02*
X14736780Y11958800D01*
X14136700Y15258820D02*
X14736780Y15258820D01*
X19036690Y15258820D02*
X19636770Y15258820D01*
X19036690Y11958800D02*
X19636770Y11958800D01*
X7286750Y6598770D02*
X7286750Y7198840D01*
X10586750Y6598770D02*
X10586750Y7198840D01*
X10586750Y1698780D02*
X10586750Y2298850D01*
X7286750Y1698780D02*
X7286750Y2298850D01*
X1736750Y9668790D02*
X1736750Y10268860D01*
X-1563240Y9668790D02*
X-1563240Y10268860D01*
X-1563240Y14568780D02*
X-1563240Y15168850D01*
X1736750Y14568780D02*
X1736750Y15168850D01*
D18*
X-2680230Y1192780D02*
X-2722400Y1353920D01*
X-2722400Y1353920D02*
X-2753390Y1517600D01*
X-2753390Y1517600D02*
X-2892780Y2963700D01*
X-2892780Y2963700D02*
X-2899490Y3223620D01*
X-2899490Y3223620D02*
X-2881150Y3482980D01*
X-2881150Y3482980D02*
X-2837970Y3739360D01*
X-2837970Y3739360D02*
X-2770280Y3990390D01*
X-2770280Y3990390D02*
X-2716050Y4142940D01*
X-2716050Y4142940D02*
X-2592300Y4426410D01*
X-2592300Y4426410D02*
X-2446020Y4698900D01*
X-2446020Y4698900D02*
X-2278150Y4958690D01*
X-2278150Y4958690D02*
X-2094180Y5198750D01*
X-2094180Y5198750D02*
X-1284450Y6006670D01*
X-1284450Y6006670D02*
X-773020Y6781110D01*
X-773020Y6781110D02*
X-751460Y6871610D01*
X-751460Y6871610D02*
X-749940Y6894830D01*
X-749940Y6894830D02*
X-759430Y6940880D01*
X-759430Y6940880D02*
X-790800Y6975910D01*
X-790800Y6975910D02*
X-835530Y6990410D01*
X-835530Y6990410D02*
X-875590Y6983220D01*
X-875590Y6983220D02*
X-968040Y6980100D01*
X-968040Y6980100D02*
X-1167640Y6991020D01*
X-1167640Y6991020D02*
X-1303220Y7012970D01*
X-1303220Y7012970D02*
X-1879500Y7151670D01*
X-1879500Y7151670D02*
X-2110410Y7233720D01*
X-2110410Y7233720D02*
X-2331770Y7338870D01*
X-2331770Y7338870D02*
X-2450740Y7407530D01*
X-2450740Y7407530D02*
X-2631340Y7532780D01*
X-2631340Y7532780D02*
X-2796510Y7677760D01*
X-2796510Y7677760D02*
X-2944110Y7840570D01*
X-2944110Y7840570D02*
X-3072230Y8019140D01*
X-3072230Y8019140D02*
X-3179220Y8211110D01*
X-3179220Y8211110D02*
X-3263670Y8414000D01*
X-3263670Y8414000D02*
X-3324480Y8625180D01*
X-3324480Y8625180D02*
X-3360880Y8841920D01*
X-3360880Y8841920D02*
X-3369670Y8949720D01*
X-3369670Y8949720D02*
X-3447240Y18547770D01*
X-3447240Y18547770D02*
X-3419500Y18818560D01*
X-3419500Y18818560D02*
X-3367000Y19085660D01*
X-3367000Y19085660D02*
X-3290160Y19346820D01*
X-3290160Y19346820D02*
X-3189630Y19599780D01*
X-3189630Y19599780D02*
X-3066290Y19842450D01*
X-3066290Y19842450D02*
X-2921150Y20072760D01*
X-2921150Y20072760D02*
X-2755470Y20288730D01*
X-2755470Y20288730D02*
X-2570610Y20488550D01*
X-2570610Y20488550D02*
X-2368170Y20670550D01*
X-2368170Y20670550D02*
X-2306750Y20719520D01*
X-2306750Y20719520D02*
X-1227200Y21512170D01*
X-1227200Y21512170D02*
X-1200380Y21557770D01*
X-1200380Y21557770D02*
X-1195480Y21594850D01*
X-1195480Y21594850D02*
X-1206470Y21682710D01*
X-1206470Y21682710D02*
X-1249650Y21827240D01*
X-1249650Y21827240D02*
X-1313330Y21986040D01*
X-1313330Y21986040D02*
X-1519990Y22376490D01*
X-1519990Y22376490D02*
X-1603650Y22491700D01*
X-1603650Y22491700D02*
X-1712870Y22577090D01*
X-1712870Y22577090D02*
X-2242390Y22872320D01*
X-2242390Y22872320D02*
X-2409600Y22991880D01*
X-2409600Y22991880D02*
X-2561030Y23130870D01*
X-2561030Y23130870D02*
X-2694460Y23287230D01*
X-2694460Y23287230D02*
X-2807870Y23458680D01*
X-2807870Y23458680D02*
X-2868930Y23574650D01*
X-2868930Y23574650D02*
X-2957370Y23778690D01*
X-2957370Y23778690D02*
X-3022320Y23991390D01*
X-3022320Y23991390D02*
X-3062940Y24210040D01*
X-3062940Y24210040D02*
X-3078710Y24431850D01*
X-3078710Y24431850D02*
X-3078910Y24453620D01*
X-3078910Y24453620D02*
X-3065420Y24743710D01*
X-3065420Y24743710D02*
X-3026990Y25031550D01*
X-3026990Y25031550D02*
X-3001750Y25159110D01*
X-3001750Y25159110D02*
X-2933190Y25411150D01*
X-2933190Y25411150D02*
X-2840810Y25655450D01*
X-2840810Y25655450D02*
X-2725420Y25889790D01*
X-2725420Y25889790D02*
X-2588130Y26111990D01*
X-2588130Y26111990D02*
X-2430200Y26320040D01*
X-2430200Y26320040D02*
X-2285420Y26479600D01*
X-2285420Y26479600D02*
X-2079240Y26671240D01*
X-2079240Y26671240D02*
X-1856870Y26843790D01*
X-1856870Y26843790D02*
X-1755700Y26912420D01*
X-1755700Y26912420D02*
X-1154020Y27237560D01*
X-1154020Y27237560D02*
X-912980Y27534160D01*
X-912980Y27534160D02*
X-634420Y27796010D01*
X-634420Y27796010D02*
X-377110Y27985670D01*
X-377110Y27985670D02*
X-105770Y28154580D01*
X-105770Y28154580D02*
X178000Y28301720D01*
X178000Y28301720D02*
X354760Y28379700D01*
X354760Y28379700D02*
X690170Y28503580D01*
X690170Y28503580D02*
X1033450Y28603650D01*
X1033450Y28603650D02*
X1210540Y28645280D01*
X1210540Y28645280D02*
X2771620Y28822140D01*
X2771620Y28822140D02*
X15542950Y29176400D01*
X15542950Y29176400D02*
X15962120Y29220640D01*
X15962120Y29220640D02*
X16383200Y29239920D01*
X16383200Y29239920D02*
X16804670Y29234130D01*
X16804670Y29234130D02*
X17225060Y29203290D01*
X17225060Y29203290D02*
X17642870Y29147540D01*
X17642870Y29147540D02*
X17904310Y29099660D01*
X17904310Y29099660D02*
X18258790Y29016330D01*
X18258790Y29016330D02*
X18606720Y28908810D01*
X18606720Y28908810D02*
X18946420Y28777640D01*
X18946420Y28777640D02*
X19276260Y28623410D01*
X19276260Y28623410D02*
X19594750Y28446860D01*
X19594750Y28446860D02*
X19896100Y28251760D01*
X19896100Y28251760D02*
X20174860Y28039290D01*
X20174860Y28039290D02*
X20437750Y27807440D01*
X20437750Y27807440D02*
X20683400Y27557370D01*
X20683400Y27557370D02*
X20910550Y27290420D01*
X20910550Y27290420D02*
X21118040Y27007950D01*
X21118040Y27007950D02*
X21304830Y26711330D01*
X21304830Y26711330D02*
X21377710Y26581400D01*
X21377710Y26581400D02*
X21565180Y26208480D01*
X21565180Y26208480D02*
X21729950Y25824990D01*
X21729950Y25824990D02*
X21871410Y25432280D01*
X21871410Y25432280D02*
X21989030Y25031830D01*
X21989030Y25031830D02*
X22082400Y24625020D01*
X22082400Y24625020D02*
X22110880Y24472440D01*
X22110880Y24472440D02*
X22355380Y21859090D01*
X22355380Y21859090D02*
X22309890Y21199600D01*
X22309890Y21199600D02*
X22197360Y20548630D01*
X22197360Y20548630D02*
X22110090Y20204250D01*
X22110090Y20204250D02*
X21998760Y19866860D01*
X21998760Y19866860D02*
X21863910Y19538190D01*
X21863910Y19538190D02*
X21706260Y19219820D01*
X21706260Y19219820D02*
X21526530Y18913370D01*
X21526530Y18913370D02*
X21340140Y18640040D01*
X21340140Y18640040D02*
X21126810Y18367880D01*
X21126810Y18367880D02*
X20894340Y18111880D01*
X20894340Y18111880D02*
X20812660Y18030240D01*
X20812660Y18030240D02*
X20666080Y10774220D01*
X20666080Y10774220D02*
X20459780Y7328920D01*
X20459780Y7328920D02*
X20744000Y7299780D01*
X20744000Y7299780D02*
X21024600Y7245830D01*
X21024600Y7245830D02*
X21273820Y7175930D01*
X21273820Y7175930D02*
X21468160Y7101840D01*
X21468160Y7101840D02*
X21652200Y7004910D01*
X21652200Y7004910D02*
X21721670Y6960490D01*
X21721670Y6960490D02*
X21859980Y6853500D01*
X21859980Y6853500D02*
X21981570Y6727850D01*
X21981570Y6727850D02*
X22083980Y6586140D01*
X22083980Y6586140D02*
X22165130Y6431250D01*
X22165130Y6431250D02*
X22223300Y6266360D01*
X22223300Y6266360D02*
X22247660Y6158740D01*
X22247660Y6158740D02*
X22282890Y5917440D01*
X22282890Y5917440D02*
X22293220Y5678960D01*
X22293220Y5678960D02*
X22259470Y5144110D01*
X22259470Y5144110D02*
X22224540Y4932550D01*
X22224540Y4932550D02*
X22171180Y4722520D01*
X22171180Y4722520D02*
X22093960Y4520060D01*
X22093960Y4520060D02*
X22078900Y4487340D01*
X22078900Y4487340D02*
X21990990Y4331490D01*
X21990990Y4331490D02*
X21882200Y4189450D01*
X21882200Y4189450D02*
X21754640Y4063970D01*
X21754640Y4063970D02*
X21610850Y3957500D01*
X21610850Y3957500D02*
X21453580Y3872150D01*
X21453580Y3872150D02*
X21414510Y3855140D01*
X21414510Y3855140D02*
X21204400Y3782190D01*
X21204400Y3782190D02*
X20987410Y3733290D01*
X20987410Y3733290D02*
X20966940Y3729990D01*
X20966940Y3729990D02*
X20920860Y3517700D01*
X20920860Y3517700D02*
X20850660Y3312130D01*
X20850660Y3312130D02*
X20831230Y3266160D01*
X20831230Y3266160D02*
X20746540Y3102280D01*
X20746540Y3102280D02*
X20640450Y2951330D01*
X20640450Y2951330D02*
X20640120Y2950950D01*
X20640120Y2950950D02*
X20518910Y2821610D01*
X20518910Y2821610D02*
X20380680Y2710660D01*
X20380680Y2710660D02*
X20228200Y2620260D01*
X20228200Y2620260D02*
X20064530Y2552240D01*
X20064530Y2552240D02*
X20042400Y2545050D01*
X20042400Y2545050D02*
X19952540Y2332990D01*
X19952540Y2332990D02*
X19840190Y2131900D01*
X19840190Y2131900D02*
X19809210Y2084350D01*
X19809210Y2084350D02*
X19686190Y1921790D01*
X19686190Y1921790D02*
X19544180Y1775560D01*
X19544180Y1775560D02*
X19385310Y1647830D01*
X19385310Y1647830D02*
X19212000Y1540540D01*
X19212000Y1540540D02*
X19026810Y1455290D01*
X19026810Y1455290D02*
X18832600Y1393420D01*
X18832600Y1393420D02*
X18811930Y1388340D01*
X18811930Y1388340D02*
X18731050Y1167870D01*
X18731050Y1167870D02*
X18627140Y957280D01*
X18627140Y957280D02*
X18529350Y799130D01*
X18529350Y799130D02*
X18407020Y639110D01*
X18407020Y639110D02*
X18265780Y495500D01*
X18265780Y495500D02*
X18107790Y370510D01*
X18107790Y370510D02*
X17935550Y266090D01*
X17935550Y266090D02*
X17751650Y183850D01*
X17751650Y183850D02*
X17619170Y140590D01*
X17619170Y140590D02*
X17387930Y83870D01*
X17387930Y83870D02*
X17151990Y51770D01*
X17151990Y51770D02*
X17097300Y47900D01*
X17097300Y47900D02*
X5662520Y483290D01*
X5662520Y483290D02*
X-383290Y-22630D01*
X-383290Y-22630D02*
X-1119350Y-17880D01*
X-1119350Y-17880D02*
X-1389200Y14630D01*
X-1389200Y14630D02*
X-1609140Y63500D01*
X-1609140Y63500D02*
X-1822270Y136500D01*
X-1822270Y136500D02*
X-1843960Y145440D01*
X-1843960Y145440D02*
X-2003370Y224430D01*
X-2003370Y224430D02*
X-2150140Y325020D01*
X-2150140Y325020D02*
X-2281350Y445190D01*
X-2281350Y445190D02*
X-2394380Y582600D01*
X-2394380Y582600D02*
X-2484700Y730020D01*
X-2484700Y730020D02*
X-2584020Y939270D01*
X-2584020Y939270D02*
X-2660170Y1157990D01*
X-2660170Y1157990D02*
X-2667410Y1183670D01*
X-2667410Y1183670D02*
X-2680230Y1192780D01*
X-2671320Y1202560D02*
X-2672490Y1206500D01*
M02*
