%TF.GenerationSoftware,KiCad,Pcbnew,8.0.0*%
%TF.CreationDate,2024-03-08T11:25:02-06:00*%
%TF.ProjectId,untitled,756e7469-746c-4656-942e-6b696361645f,rev?*%
%TF.SameCoordinates,Original*%
%TF.FileFunction,Profile,NP*%
%FSLAX46Y46*%
G04 Gerber Fmt 4.6, Leading zero omitted, Abs format (unit mm)*
G04 Created by KiCad (PCBNEW 8.0.0) date 2024-03-08 11:25:02*
%MOMM*%
%LPD*%
G01*
G04 APERTURE LIST*
%TA.AperFunction,Profile*%
%ADD10C,1.025000*%
%TD*%
%TA.AperFunction,Profile*%
%ADD11C,0.225000*%
%TD*%
G04 APERTURE END LIST*
D10*
X-14434690Y-16022620D02*
G75*
G02*
X-15459690Y-16022620I-512500J0D01*
G01*
X-15459690Y-16022620D02*
G75*
G02*
X-14434690Y-16022620I512500J0D01*
G01*
X-14434690Y45240830D02*
G75*
G02*
X-15459690Y45240830I-512500J0D01*
G01*
X-15459690Y45240830D02*
G75*
G02*
X-14434690Y45240830I512500J0D01*
G01*
X34367880Y-16022620D02*
G75*
G02*
X33342880Y-16022620I-512500J0D01*
G01*
X33342880Y-16022620D02*
G75*
G02*
X34367880Y-16022620I512500J0D01*
G01*
X34367880Y40240840D02*
G75*
G02*
X33342880Y40240840I-512500J0D01*
G01*
X33342880Y40240840D02*
G75*
G02*
X34367880Y40240840I512500J0D01*
G01*
D11*
X-3490590Y12151230D02*
G75*
G02*
X-3715590Y12151230I-112500J0D01*
G01*
X-3715590Y12151230D02*
G75*
G02*
X-3490590Y12151230I112500J0D01*
G01*
X-3494730Y12850950D02*
G75*
G02*
X-3719730Y12850950I-112500J0D01*
G01*
X-3719730Y12850950D02*
G75*
G02*
X-3494730Y12850950I112500J0D01*
G01*
X-3519570Y13550670D02*
G75*
G02*
X-3744570Y13550670I-112500J0D01*
G01*
X-3744570Y13550670D02*
G75*
G02*
X-3519570Y13550670I112500J0D01*
G01*
X-3529940Y14258670D02*
G75*
G02*
X-3754940Y14258670I-112500J0D01*
G01*
X-3754940Y14258670D02*
G75*
G02*
X-3529940Y14258670I112500J0D01*
G01*
X-3517520Y14961490D02*
G75*
G02*
X-3742520Y14961490I-112500J0D01*
G01*
X-3742520Y14961490D02*
G75*
G02*
X-3517520Y14961490I112500J0D01*
G01*
X21087570Y14882800D02*
G75*
G02*
X20862570Y14882800I-112500J0D01*
G01*
X20862570Y14882800D02*
G75*
G02*
X21087570Y14882800I112500J0D01*
G01*
X21075150Y14176880D02*
G75*
G02*
X20850150Y14176880I-112500J0D01*
G01*
X20850150Y14176880D02*
G75*
G02*
X21075150Y14176880I112500J0D01*
G01*
X21052390Y13470970D02*
G75*
G02*
X20827390Y13470970I-112500J0D01*
G01*
X20827390Y13470970D02*
G75*
G02*
X21052390Y13470970I112500J0D01*
G01*
X21046160Y12755930D02*
G75*
G02*
X20821160Y12755930I-112500J0D01*
G01*
X20821160Y12755930D02*
G75*
G02*
X21046160Y12755930I112500J0D01*
G01*
X21033740Y12054130D02*
G75*
G02*
X20808740Y12054130I-112500J0D01*
G01*
X20808740Y12054130D02*
G75*
G02*
X21033740Y12054130I112500J0D01*
G01*
X7296560Y29174190D02*
G75*
G02*
X7071560Y29174190I-112500J0D01*
G01*
X7071560Y29174190D02*
G75*
G02*
X7296560Y29174190I112500J0D01*
G01*
X8013830Y29186810D02*
G75*
G02*
X7788830Y29186810I-112500J0D01*
G01*
X7788830Y29186810D02*
G75*
G02*
X8013830Y29186810I112500J0D01*
G01*
X7702860Y180520D02*
G75*
G02*
X7477860Y180520I-112500J0D01*
G01*
X7477860Y180520D02*
G75*
G02*
X7702860Y180520I112500J0D01*
G01*
X8404100Y152350D02*
G75*
G02*
X8179100Y152350I-112500J0D01*
G01*
X8179100Y152350D02*
G75*
G02*
X8404100Y152350I112500J0D01*
G01*
X9107910Y124210D02*
G75*
G02*
X8882910Y124210I-112500J0D01*
G01*
X8882910Y124210D02*
G75*
G02*
X9107910Y124210I112500J0D01*
G01*
X9821950Y108860D02*
G75*
G02*
X9596950Y108860I-112500J0D01*
G01*
X9596950Y108860D02*
G75*
G02*
X9821950Y108860I112500J0D01*
G01*
X10525760Y75590D02*
G75*
G02*
X10300760Y75590I-112500J0D01*
G01*
X10300760Y75590D02*
G75*
G02*
X10525760Y75590I112500J0D01*
G01*
X8711820Y29207660D02*
G75*
G02*
X8486820Y29207660I-112500J0D01*
G01*
X8486820Y29207660D02*
G75*
G02*
X8711820Y29207660I112500J0D01*
G01*
X9412610Y29229910D02*
G75*
G02*
X9187610Y29229910I-112500J0D01*
G01*
X9187610Y29229910D02*
G75*
G02*
X9412610Y29229910I112500J0D01*
G01*
X10121750Y29249370D02*
G75*
G02*
X9896750Y29249370I-112500J0D01*
G01*
X9896750Y29249370D02*
G75*
G02*
X10121750Y29249370I112500J0D01*
G01*
X10811410Y29271620D02*
G75*
G02*
X10586410Y29271620I-112500J0D01*
G01*
X10586410Y29271620D02*
G75*
G02*
X10811410Y29271620I112500J0D01*
G01*
M02*
