<?xml version="1.0" encoding="UTF-8" standalone="no"?>
<!-- Generator: Adobe Illustrator 23.0.2, SVG Export Plug-In . SVG Version: 6.00 Build 0)  -->

<svg
   version="1.1"
   id="Layer_1"
   x="0px"
   y="0px"
   viewBox="0 0 260.19 173.89"
   style="enable-background:new 0 0 260.19 173.89;"
   xml:space="preserve"
   sodipodi:docname="BsidesOK-tornado outline.svg"
   inkscape:version="1.3 (0e150ed6c4, 2023-07-21)"
   xmlns:inkscape="http://www.inkscape.org/namespaces/inkscape"
   xmlns:sodipodi="http://sodipodi.sourceforge.net/DTD/sodipodi-0.dtd"
   xmlns="http://www.w3.org/2000/svg"
   xmlns:svg="http://www.w3.org/2000/svg"><defs
   id="defs36"><inkscape:path-effect
     effect="bspline"
     id="path-effect36"
     is_visible="true"
     lpeversion="1.3"
     weight="33.333333"
     steps="2"
     helper_size="0"
     apply_no_weight="true"
     apply_with_weight="true"
     only_selected="false"
     uniform="false" /></defs><sodipodi:namedview
   id="namedview36"
   pagecolor="#ffffff"
   bordercolor="#666666"
   borderopacity="1.0"
   inkscape:showpageshadow="2"
   inkscape:pageopacity="0.0"
   inkscape:pagecheckerboard="0"
   inkscape:deskcolor="#d1d1d1"
   inkscape:zoom="6.8951636"
   inkscape:cx="130.1637"
   inkscape:cy="86.945"
   inkscape:window-width="2560"
   inkscape:window-height="1377"
   inkscape:window-x="-8"
   inkscape:window-y="-8"
   inkscape:window-maximized="1"
   inkscape:current-layer="Layer_1" />&#10;<style
   type="text/css"
   id="style1">&#10;	.st0{fill-rule:evenodd;clip-rule:evenodd;fill:#02686F;}&#10;	.st1{fill:#3F3F3F;}&#10;	.st2{fill:#FFFFFF;}&#10;	.st3{display:none;}&#10;	.st4{display:inline;fill:#FFFFFF;}&#10;	.st5{fill:none;}&#10;	.st6{display:none;fill:#FFFFFF;}&#10;	.st7{font-family:'Gotham-Medium';}&#10;	.st8{font-size:12.3403px;}&#10;</style>&#10;&#10;&#10;&#10;&#10;<path
   style="fill:none;stroke:#000000;stroke-width:1px;stroke-linecap:butt;stroke-linejoin:miter;stroke-opacity:1"
   d="m 102.42863,161.75572 c 2.9386,0.0482 8.96355,0.14695 18.2562,0.29098 9.29264,0.14402 22.11858,0.33762 33.54291,8e-5 11.42433,-0.33754 21.74619,-1.23077 26.69333,-3.2212 4.94713,-1.99043 5.08946,-7.18553 2.08186,-9.62444 -3.00761,-2.43891 -9.59809,-5.27789 -14.03112,-6.99682 -4.43302,-1.71893 -6.89375,-2.42876 -9.26532,-3.99034 -2.37156,-1.56159 -5.17904,-4.475 -7.41088,-8.846 -2.23183,-4.37099 -4.27382,-10.8456 -4.57459,-14.3034 -0.30077,-3.4578 3.40636,-5.19788 5.74538,-5.04175 2.33903,0.15612 5.38331,1.60342 8.45906,2.2339 3.07574,0.63049 7.38842,0.5125 11.54393,-0.81324 4.15551,-1.32574 9.75004,-4.0231 14.931,-6.35323 5.18097,-2.33013 10.91638,-4.71369 14.64734,-7.449098 3.73097,-2.735408 6.44079,-6.25785 8.28606,-11.007251 1.84527,-4.749402 2.87595,-10.928344 3.08152,-15.625923 0.20557,-4.697579 -0.33252,-7.661689 -1.03454,-10.386081 -0.70202,-2.724393 -1.72921,-5.463572 -3.76848,-8.060462 -2.03928,-2.59689 -5.78234,-6.131999 -9.9633,-9.120437 -4.18097,-2.988438 -9.08205,-5.720435 -13.64546,-8.448525 -4.56341,-2.728089 -8.75074,-5.430361 -13.26869,-8.23977 -4.51795,-2.809409 -9.56046,-5.840525 -15.23585,-8.148083 -5.67538,-2.307558 -12.31007,-3.987071 -17.43296,-4.769191 -5.1229,-0.78212 -8.84721,-0.70994 -13.82206,0.09188 -4.97485,0.801818 -11.30247,2.358142 -16.17818,4.058588 -4.8757,1.700446 -7.98307,3.371106 -10.9691,4.690495 -2.986027,1.319389 -6.012493,2.326514 -8.063948,3.966532 -2.051454,1.640018 -3.557585,3.876393 -3.99493,5.770778 -0.437345,1.894384 0.938394,4.460925 2.121955,5.769788 1.183562,1.308862 4.239032,3.729938 3.671011,4.793001 -0.568021,1.063063 -1.836523,3.437088 -3.014239,5.624605 -1.177717,2.187516 -2.50824,4.642698 -4.312131,6.775008 -1.803891,2.13231 -4.406812,4.390034 -6.550218,6.155642 -2.143407,1.765607 -3.89726,3.104075 -5.23816,5.200902 -1.3409,2.096827 -2.261614,5.54661 -1.871709,8.854376 0.389905,3.307765 1.718571,6.441092 3.225868,10.386572 1.507297,3.945481 2.976923,8.202311 4.050675,11.687492 1.073751,3.485184 1.798672,6.341554 3.14685,9.347224 1.348178,3.00566 3.504319,6.4383 7.539626,10.19413 4.035307,3.75584 10.142416,8.02456 13.29079,10.93826 3.14837,2.91371 4.02068,6.83909 2.84724,9.36786 -1.17344,2.52877 -4.23218,5.58751 -6.579855,8.60041 -2.347676,3.0129 -4.445179,6.77691 -4.355139,9.19919 0.09004,2.42228 1.5585,4.24673 2.998712,5.32079 1.440211,1.07406 1.480937,1.07859 4.419542,1.12676 z"
   id="path36"
   inkscape:path-effect="#path-effect36"
   inkscape:original-d="m 99.490025,161.70755 c 5.881095,-0.14113 11.913345,-0.48731 17.693565,0.29006 12.77911,1.17147 25.61708,0.56845 38.43273,0.58011 10.01093,-1.15533 20.6286,1.36971 30.16607,-2.61052 1.71004,-3.08755 4.64466,-8.20615 0.29006,-10.58713 -5.10834,-4.86681 -12.52559,-5.78651 -18.85379,-8.12164 -2.77003,-0.46049 -5.13376,-1.50658 -7.54152,-2.17544 -3.825,-1.00173 -5.64691,-4.86487 -7.68655,-7.9766 -3.00877,-5.76817 -3.1125,-12.85407 -5.9462,-18.8538 0.37645,-2.775 4.49667,-3.63501 7.10644,-3.33567 2.79939,0.95747 5.41257,3.31157 8.54166,4.06082 3.33206,0.76297 7.68708,2.19254 10.60219,-0.29006 4.94502,-3.36886 10.61587,-5.90794 16.24327,-7.83158 5.67813,-0.56867 11.95692,-1.64474 15.56093,-6.466908 2.91277,-3.304227 5.71347,-6.756756 8.07883,-10.501503 2.6434,-5.72928 2.49413,-12.105041 3.04561,-18.258622 0.4798,-3.515121 -0.90045,-6.32635 -1.74035,-9.586982 -0.88567,-2.114025 -0.54176,-5.367369 -2.61053,-6.961401 -2.51494,-3.946765 -6.71153,-7.001661 -10.4421,-9.861985 -5.12698,-2.470728 -9.50562,-6.139966 -14.79721,-8.248366 -4.20834,-2.68219 -8.54681,-5.150263 -12.61331,-8.139933 -4.50914,-3.375833 -9.67174,-6.207182 -14.85094,-8.927076 -5.86772,-3.492759 -12.88307,-3.668501 -19.44846,-4.923212 -3.78235,-0.187909 -7.5196,-0.783303 -11.2247,0.217544 -6.34055,1.0682 -12.51948,3.22906 -18.86886,4.640934 -3.60243,1.539644 -6.03701,4.461671 -9.723901,5.228 -2.775963,0.978281 -6.488102,-0.07508 -8.259715,2.748606 -2.137005,2.147823 -3.789473,4.285645 -4.785963,7.10643 -1.417454,2.544632 0.118379,5.025358 2.810388,5.242985 1.838974,1.121642 7.543993,0.895582 4.73113,3.748825 -1.134103,2.127162 -2.074822,4.67633 -3.494599,6.540212 -0.942447,2.509976 -2.163062,5.02472 -3.756861,6.932447 -2.069575,2.557254 -4.632263,4.861362 -7.541518,6.541369 -1.702698,1.490894 -3.830787,2.338984 -5.511109,4.205847 -2.322031,2.268494 -2.93263,5.801044 -2.422681,9.077439 1.962995,3.51409 3.476103,6.569206 4.45309,10.501502 1.661917,4.134487 3.216283,8.362062 4.350875,12.602484 0.608362,2.859524 1.141594,5.764544 2.175438,8.571774 0.958333,3.75945 3.773573,6.77809 6.215094,9.89461 5.017023,5.54931 12.176082,8.31305 18.004782,12.58492 1.80397,1.37087 2.8876,5.24929 1.74035,7.83157 -1.87652,3.80294 -6.00191,5.79503 -8.919296,8.9193 -2.72123,2.42169 -5.817011,5.62941 -5.293565,9.49941 1.044698,2.64287 3.320127,3.81781 4.785963,5.9462 1.174292,0.95271 1.204194,1.98964 1.305263,0.14503 z" /></svg>
