%TF.GenerationSoftware,KiCad,Pcbnew,8.0.8*%
%TF.CreationDate,2025-02-05T00:10:25-06:00*%
%TF.ProjectId,B-Sides 2025,422d5369-6465-4732-9032-3032352e6b69,rev?*%
%TF.SameCoordinates,Original*%
%TF.FileFunction,Profile,NP*%
%FSLAX46Y46*%
G04 Gerber Fmt 4.6, Leading zero omitted, Abs format (unit mm)*
G04 Created by KiCad (PCBNEW 8.0.8) date 2025-02-05 00:10:25*
%MOMM*%
%LPD*%
G01*
G04 APERTURE LIST*
%TA.AperFunction,Profile*%
%ADD10C,0.020000*%
%TD*%
%TA.AperFunction,Profile*%
%ADD11C,0.050000*%
%TD*%
G04 APERTURE END LIST*
D10*
X166608565Y-56346895D02*
X173638535Y-57445836D01*
X180474363Y-59099170D01*
X183790314Y-60131775D01*
X187022738Y-61300627D01*
X190159971Y-62604942D01*
X193190350Y-64043937D01*
X196102210Y-65616829D01*
X198883888Y-67322833D01*
X201523719Y-69161166D01*
X204010041Y-71131044D01*
X206331189Y-73231684D01*
X208475499Y-75462302D01*
X209410544Y-76587675D01*
X210269638Y-77783125D01*
X211053579Y-79043775D01*
X211763167Y-80364748D01*
X212399201Y-81741165D01*
X212962479Y-83168149D01*
X213453800Y-84640823D01*
X213873965Y-86154308D01*
X214223770Y-87703726D01*
X214504017Y-89284200D01*
X214859027Y-92518805D01*
X214945387Y-95819101D01*
X214769489Y-99146066D01*
X214337726Y-102460677D01*
X213656488Y-105723913D01*
X212732168Y-108896752D01*
X211571158Y-111940171D01*
X210903891Y-113401155D01*
X210179850Y-114815150D01*
X209399831Y-116177280D01*
X208564635Y-117482666D01*
X207675060Y-118726430D01*
X206731906Y-119903696D01*
X205735971Y-121009585D01*
X204688054Y-122039220D01*
X204629823Y-122086975D01*
X204568498Y-122126195D01*
X204504266Y-122157427D01*
X204437317Y-122181216D01*
X204367838Y-122198106D01*
X204296018Y-122208643D01*
X204222045Y-122213373D01*
X204146107Y-122212840D01*
X204068393Y-122207591D01*
X203989090Y-122198170D01*
X203826472Y-122168994D01*
X203659760Y-122129676D01*
X203490460Y-122084578D01*
X203150118Y-121994493D01*
X202982089Y-121958230D01*
X202817496Y-121933637D01*
X202736958Y-121927081D01*
X202657844Y-121925078D01*
X202580342Y-121928173D01*
X202504640Y-121936913D01*
X202430927Y-121951842D01*
X202359390Y-121973506D01*
X202290218Y-122002450D01*
X202223600Y-122039220D01*
X192432469Y-142196134D01*
X189395963Y-142196134D01*
X182352979Y-156414899D01*
X182277865Y-156458330D01*
X182201177Y-156496558D01*
X182122992Y-156529824D01*
X182043388Y-156558367D01*
X181962443Y-156582428D01*
X181880234Y-156602246D01*
X181712340Y-156630116D01*
X181540328Y-156643897D01*
X181364821Y-156645509D01*
X181186444Y-156636874D01*
X181005818Y-156619911D01*
X180823569Y-156596542D01*
X180640318Y-156568687D01*
X180273308Y-156507200D01*
X179909773Y-156450816D01*
X179730867Y-156429339D01*
X179554700Y-156414899D01*
X178329953Y-156325743D01*
X177107510Y-156205985D01*
X174668140Y-155894609D01*
X169801728Y-155124047D01*
X167369118Y-154744650D01*
X164933195Y-154422367D01*
X163713121Y-154295111D01*
X162491174Y-154197094D01*
X161267008Y-154133302D01*
X160040273Y-154108724D01*
X158754807Y-154127349D01*
X157471791Y-154186722D01*
X156190893Y-154281699D01*
X154911781Y-154407132D01*
X152357588Y-154728787D01*
X149806555Y-155110520D01*
X144703349Y-155889554D01*
X142145863Y-156204521D01*
X140864488Y-156325356D01*
X139580915Y-156414899D01*
X139404724Y-156428925D01*
X139225800Y-156450095D01*
X138862245Y-156506141D01*
X138495231Y-156567584D01*
X138311984Y-156595500D01*
X138129740Y-156618970D01*
X137949123Y-156636063D01*
X137770754Y-156644847D01*
X137595256Y-156643391D01*
X137423253Y-156629763D01*
X137338756Y-156617781D01*
X137255366Y-156602031D01*
X137173162Y-156582273D01*
X137092220Y-156558264D01*
X137012618Y-156529764D01*
X136934435Y-156496531D01*
X136857748Y-156458323D01*
X136782636Y-156414899D01*
X129739654Y-142196134D01*
X126703147Y-142196134D01*
X116912014Y-122039220D01*
X116845416Y-122002452D01*
X116776278Y-121973494D01*
X116704787Y-121951802D01*
X116631129Y-121936834D01*
X116555491Y-121928044D01*
X116478061Y-121924889D01*
X116399025Y-121926825D01*
X116318570Y-121933309D01*
X116154153Y-121957744D01*
X115986303Y-121993842D01*
X115646292Y-122083629D01*
X115477120Y-122128615D01*
X115310499Y-122167864D01*
X115147925Y-122197024D01*
X115068622Y-122206461D01*
X114990891Y-122211744D01*
X114914920Y-122212330D01*
X114840895Y-122207674D01*
X114769002Y-122197233D01*
X114699430Y-122180464D01*
X114632366Y-122156822D01*
X114567995Y-122125763D01*
X114506504Y-122086743D01*
X114448082Y-122039220D01*
X113325119Y-120945695D01*
X112254081Y-119768950D01*
X111236125Y-118514364D01*
X110272404Y-117187312D01*
X109364074Y-115793171D01*
X108512292Y-114337318D01*
X106982988Y-111261983D01*
X105693735Y-108004321D01*
X104653775Y-104607347D01*
X103872351Y-101114074D01*
X103358706Y-97567516D01*
X103122081Y-94010687D01*
X103171720Y-90486602D01*
X103306776Y-88750280D01*
X103516865Y-87038274D01*
X103803140Y-85355962D01*
X104166758Y-83708718D01*
X104608874Y-82101922D01*
X105130643Y-80540948D01*
X105733220Y-79031175D01*
X106417761Y-77577978D01*
X107185421Y-76186735D01*
X108037356Y-74862821D01*
X108974720Y-73611615D01*
X109998669Y-72438493D01*
X112201269Y-70275398D01*
X114576946Y-68265790D01*
X117114035Y-66408886D01*
X119800875Y-64703902D01*
X122625799Y-63150055D01*
X125577146Y-61746560D01*
X128643250Y-60492635D01*
X131812448Y-59387495D01*
X135073077Y-58430356D01*
X138413472Y-57620437D01*
X141821969Y-56956951D01*
X145286906Y-56439117D01*
X152339440Y-55837266D01*
X159477763Y-55808615D01*
X166608565Y-56346895D01*
D11*
%TO.C,H1*%
X185370301Y-70187516D02*
X192112953Y-71994112D01*
X186527047Y-65945888D02*
X193269699Y-67752484D01*
X185370301Y-70187516D02*
G75*
G02*
X186527047Y-65945887I568954J2123383D01*
G01*
X193269699Y-67752484D02*
G75*
G02*
X192112953Y-71994113I-568954J-2123383D01*
G01*
%TO.C,H2*%
X132601782Y-63530752D02*
X125859176Y-65337518D01*
X133720824Y-67782482D02*
X126978218Y-69589248D01*
X126978218Y-69589248D02*
G75*
G02*
X125859176Y-65337518I-568958J2123381D01*
G01*
X132601782Y-63530752D02*
G75*
G02*
X133720824Y-67782482I568958J-2123381D01*
G01*
%TD*%
M02*
