%TF.GenerationSoftware,KiCad,Pcbnew,8.0.8*%
%TF.CreationDate,2025-02-05T00:10:32-06:00*%
%TF.ProjectId,B-Sides 2025,422d5369-6465-4732-9032-3032352e6b69,rev?*%
%TF.SameCoordinates,Original*%
%TF.FileFunction,Drillmap*%
%TF.FilePolarity,Positive*%
%FSLAX45Y45*%
G04 Gerber Fmt 4.5, Leading zero omitted, Abs format (unit mm)*
G04 Created by KiCad (PCBNEW 8.0.8) date 2025-02-05 00:10:32*
%MOMM*%
%LPD*%
G01*
G04 APERTURE LIST*
%ADD10C,0.020000*%
%ADD11C,0.050000*%
%ADD12C,0.200000*%
%ADD13C,0.430000*%
%ADD14C,0.100000*%
G04 APERTURE END LIST*
D10*
X16660856Y-5634689D02*
X17363854Y-5744584D01*
X18047436Y-5909917D01*
X18379031Y-6013177D01*
X18702274Y-6130063D01*
X19015997Y-6260494D01*
X19319035Y-6404394D01*
X19610221Y-6561683D01*
X19888389Y-6732283D01*
X20152372Y-6916117D01*
X20401004Y-7113104D01*
X20633119Y-7323168D01*
X20847550Y-7546230D01*
X20941054Y-7658767D01*
X21026964Y-7778312D01*
X21105358Y-7904377D01*
X21176317Y-8036475D01*
X21239920Y-8174116D01*
X21296248Y-8316815D01*
X21345380Y-8464082D01*
X21387397Y-8615431D01*
X21422377Y-8770373D01*
X21450402Y-8928420D01*
X21485903Y-9251881D01*
X21494539Y-9581910D01*
X21476949Y-9914607D01*
X21433773Y-10246068D01*
X21365649Y-10572391D01*
X21273217Y-10889675D01*
X21157116Y-11194017D01*
X21090389Y-11340115D01*
X21017985Y-11481515D01*
X20939983Y-11617728D01*
X20856464Y-11748267D01*
X20767506Y-11872643D01*
X20673191Y-11990370D01*
X20573597Y-12100958D01*
X20468805Y-12203922D01*
X20462982Y-12208697D01*
X20456850Y-12212619D01*
X20450427Y-12215743D01*
X20443732Y-12218122D01*
X20436784Y-12219811D01*
X20429602Y-12220864D01*
X20422205Y-12221337D01*
X20414611Y-12221284D01*
X20406839Y-12220759D01*
X20398909Y-12219817D01*
X20382647Y-12216899D01*
X20365976Y-12212968D01*
X20349046Y-12208458D01*
X20315012Y-12199449D01*
X20298209Y-12195823D01*
X20281750Y-12193364D01*
X20273696Y-12192708D01*
X20265784Y-12192508D01*
X20258034Y-12192817D01*
X20250464Y-12193691D01*
X20243093Y-12195184D01*
X20235939Y-12197351D01*
X20229022Y-12200245D01*
X20222360Y-12203922D01*
X19243247Y-14219613D01*
X18939596Y-14219613D01*
X18235298Y-15641490D01*
X18227787Y-15645833D01*
X18220118Y-15649656D01*
X18212299Y-15652982D01*
X18204339Y-15655837D01*
X18196244Y-15658243D01*
X18188023Y-15660225D01*
X18171234Y-15663012D01*
X18154033Y-15664390D01*
X18136482Y-15664551D01*
X18118644Y-15663687D01*
X18100582Y-15661991D01*
X18082357Y-15659654D01*
X18064032Y-15656869D01*
X18027331Y-15650720D01*
X17990977Y-15645082D01*
X17973087Y-15642934D01*
X17955470Y-15641490D01*
X17832995Y-15632574D01*
X17710751Y-15620598D01*
X17466814Y-15589461D01*
X16980173Y-15512405D01*
X16736912Y-15474465D01*
X16493319Y-15442237D01*
X16371312Y-15429511D01*
X16249117Y-15419709D01*
X16126701Y-15413330D01*
X16004027Y-15410872D01*
X15875481Y-15412735D01*
X15747179Y-15418672D01*
X15619089Y-15428170D01*
X15491178Y-15440713D01*
X15235759Y-15472879D01*
X14980655Y-15511052D01*
X14470335Y-15588955D01*
X14214586Y-15620452D01*
X14086449Y-15632536D01*
X13958091Y-15641490D01*
X13940472Y-15642892D01*
X13922580Y-15645009D01*
X13886224Y-15650614D01*
X13849523Y-15656758D01*
X13831198Y-15659550D01*
X13812974Y-15661897D01*
X13794912Y-15663606D01*
X13777075Y-15664485D01*
X13759526Y-15664339D01*
X13742325Y-15662976D01*
X13733876Y-15661778D01*
X13725537Y-15660203D01*
X13717316Y-15658227D01*
X13709222Y-15655826D01*
X13701262Y-15652976D01*
X13693443Y-15649653D01*
X13685775Y-15645832D01*
X13678264Y-15641490D01*
X12973965Y-14219613D01*
X12670315Y-14219613D01*
X11691201Y-12203922D01*
X11684542Y-12200245D01*
X11677628Y-12197349D01*
X11670479Y-12195180D01*
X11663113Y-12193683D01*
X11655549Y-12192804D01*
X11647806Y-12192489D01*
X11639902Y-12192682D01*
X11631857Y-12193331D01*
X11615415Y-12195774D01*
X11598630Y-12199384D01*
X11564629Y-12208363D01*
X11547712Y-12212861D01*
X11531050Y-12216786D01*
X11514792Y-12219702D01*
X11506862Y-12220646D01*
X11499089Y-12221174D01*
X11491492Y-12221233D01*
X11484089Y-12220767D01*
X11476900Y-12219723D01*
X11469943Y-12218046D01*
X11463237Y-12215682D01*
X11456799Y-12212576D01*
X11450650Y-12208674D01*
X11444808Y-12203922D01*
X11332512Y-12094569D01*
X11225408Y-11976895D01*
X11123613Y-11851436D01*
X11027240Y-11718731D01*
X10936407Y-11579317D01*
X10851229Y-11433732D01*
X10698299Y-11126198D01*
X10569374Y-10800432D01*
X10465378Y-10460735D01*
X10387235Y-10111407D01*
X10335871Y-9756752D01*
X10312208Y-9401069D01*
X10317172Y-9048660D01*
X10330678Y-8875028D01*
X10351687Y-8703827D01*
X10380314Y-8535596D01*
X10416676Y-8370872D01*
X10460887Y-8210192D01*
X10513064Y-8054095D01*
X10573322Y-7903117D01*
X10641776Y-7757798D01*
X10718542Y-7618673D01*
X10803736Y-7486282D01*
X10897472Y-7361161D01*
X10999867Y-7243849D01*
X11220127Y-7027540D01*
X11457695Y-6826579D01*
X11711403Y-6640889D01*
X11980087Y-6470390D01*
X12262580Y-6315005D01*
X12557715Y-6174656D01*
X12864325Y-6049263D01*
X13181245Y-5938749D01*
X13507308Y-5843036D01*
X13841347Y-5762044D01*
X14182197Y-5695695D01*
X14528691Y-5643912D01*
X15233944Y-5583727D01*
X15947776Y-5580862D01*
X16660856Y-5634689D01*
D11*
X18537030Y-7018752D02*
X19211295Y-7199411D01*
X18652705Y-6594589D02*
X19326970Y-6775248D01*
X18537030Y-7018752D02*
G75*
G02*
X18652705Y-6594589I56895J212338D01*
G01*
X19326970Y-6775248D02*
G75*
G02*
X19211295Y-7199411I-56895J-212338D01*
G01*
X13260178Y-6353075D02*
X12585918Y-6533752D01*
X13372082Y-6778248D02*
X12697822Y-6958925D01*
X12697822Y-6958925D02*
G75*
G02*
X12585918Y-6533752I-56896J212338D01*
G01*
X13260178Y-6353075D02*
G75*
G02*
X13372082Y-6778248I56896J-212338D01*
G01*
D12*
D13*
X12764000Y-6441000D02*
X13194000Y-6871000D01*
X13194000Y-6441000D02*
X12764000Y-6871000D01*
D14*
X12686913Y-6956849D02*
X13382379Y-6770499D01*
X13271087Y-6355151D02*
G75*
G02*
X13382379Y-6770499I55646J-207674D01*
G01*
X13271087Y-6355151D02*
X12575621Y-6541501D01*
X12575621Y-6541501D02*
G75*
G03*
X12686913Y-6956849I55646J-207674D01*
G01*
D13*
X18717000Y-6682000D02*
X19147000Y-7112000D01*
X19147000Y-6682000D02*
X18717000Y-7112000D01*
D14*
X19335379Y-6782501D02*
X18639913Y-6596151D01*
X18528621Y-7011499D02*
G75*
G02*
X18639913Y-6596151I55646J207674D01*
G01*
X18528621Y-7011499D02*
X19224087Y-7197849D01*
X19224087Y-7197849D02*
G75*
G03*
X19335379Y-6782501I55646J207674D01*
G01*
D12*
X10571985Y-15977035D02*
X10571985Y-15777035D01*
X10571985Y-15777035D02*
X10619604Y-15777035D01*
X10619604Y-15777035D02*
X10648175Y-15786558D01*
X10648175Y-15786558D02*
X10667223Y-15805606D01*
X10667223Y-15805606D02*
X10676747Y-15824654D01*
X10676747Y-15824654D02*
X10686271Y-15862749D01*
X10686271Y-15862749D02*
X10686271Y-15891320D01*
X10686271Y-15891320D02*
X10676747Y-15929416D01*
X10676747Y-15929416D02*
X10667223Y-15948463D01*
X10667223Y-15948463D02*
X10648175Y-15967511D01*
X10648175Y-15967511D02*
X10619604Y-15977035D01*
X10619604Y-15977035D02*
X10571985Y-15977035D01*
X10771985Y-15977035D02*
X10771985Y-15843701D01*
X10771985Y-15881797D02*
X10781509Y-15862749D01*
X10781509Y-15862749D02*
X10791033Y-15853225D01*
X10791033Y-15853225D02*
X10810080Y-15843701D01*
X10810080Y-15843701D02*
X10829128Y-15843701D01*
X10895794Y-15977035D02*
X10895794Y-15843701D01*
X10895794Y-15777035D02*
X10886271Y-15786558D01*
X10886271Y-15786558D02*
X10895794Y-15796082D01*
X10895794Y-15796082D02*
X10905318Y-15786558D01*
X10905318Y-15786558D02*
X10895794Y-15777035D01*
X10895794Y-15777035D02*
X10895794Y-15796082D01*
X11019604Y-15977035D02*
X11000556Y-15967511D01*
X11000556Y-15967511D02*
X10991033Y-15948463D01*
X10991033Y-15948463D02*
X10991033Y-15777035D01*
X11124366Y-15977035D02*
X11105318Y-15967511D01*
X11105318Y-15967511D02*
X11095794Y-15948463D01*
X11095794Y-15948463D02*
X11095794Y-15777035D01*
X11352937Y-15977035D02*
X11352937Y-15777035D01*
X11352937Y-15777035D02*
X11419604Y-15919892D01*
X11419604Y-15919892D02*
X11486271Y-15777035D01*
X11486271Y-15777035D02*
X11486271Y-15977035D01*
X11667223Y-15977035D02*
X11667223Y-15872273D01*
X11667223Y-15872273D02*
X11657699Y-15853225D01*
X11657699Y-15853225D02*
X11638652Y-15843701D01*
X11638652Y-15843701D02*
X11600556Y-15843701D01*
X11600556Y-15843701D02*
X11581509Y-15853225D01*
X11667223Y-15967511D02*
X11648175Y-15977035D01*
X11648175Y-15977035D02*
X11600556Y-15977035D01*
X11600556Y-15977035D02*
X11581509Y-15967511D01*
X11581509Y-15967511D02*
X11571985Y-15948463D01*
X11571985Y-15948463D02*
X11571985Y-15929416D01*
X11571985Y-15929416D02*
X11581509Y-15910368D01*
X11581509Y-15910368D02*
X11600556Y-15900844D01*
X11600556Y-15900844D02*
X11648175Y-15900844D01*
X11648175Y-15900844D02*
X11667223Y-15891320D01*
X11762461Y-15843701D02*
X11762461Y-16043701D01*
X11762461Y-15853225D02*
X11781509Y-15843701D01*
X11781509Y-15843701D02*
X11819604Y-15843701D01*
X11819604Y-15843701D02*
X11838652Y-15853225D01*
X11838652Y-15853225D02*
X11848175Y-15862749D01*
X11848175Y-15862749D02*
X11857699Y-15881797D01*
X11857699Y-15881797D02*
X11857699Y-15938939D01*
X11857699Y-15938939D02*
X11848175Y-15957987D01*
X11848175Y-15957987D02*
X11838652Y-15967511D01*
X11838652Y-15967511D02*
X11819604Y-15977035D01*
X11819604Y-15977035D02*
X11781509Y-15977035D01*
X11781509Y-15977035D02*
X11762461Y-15967511D01*
X11943413Y-15957987D02*
X11952937Y-15967511D01*
X11952937Y-15967511D02*
X11943413Y-15977035D01*
X11943413Y-15977035D02*
X11933890Y-15967511D01*
X11933890Y-15967511D02*
X11943413Y-15957987D01*
X11943413Y-15957987D02*
X11943413Y-15977035D01*
X11943413Y-15853225D02*
X11952937Y-15862749D01*
X11952937Y-15862749D02*
X11943413Y-15872273D01*
X11943413Y-15872273D02*
X11933890Y-15862749D01*
X11933890Y-15862749D02*
X11943413Y-15853225D01*
X11943413Y-15853225D02*
X11943413Y-15872273D01*
X10111208Y-16205551D02*
X10311208Y-16405551D01*
X10311208Y-16205551D02*
X10111208Y-16405551D01*
X10657699Y-16263701D02*
X10657699Y-16397035D01*
X10610080Y-16187511D02*
X10562461Y-16330368D01*
X10562461Y-16330368D02*
X10686271Y-16330368D01*
X10762461Y-16377987D02*
X10771985Y-16387511D01*
X10771985Y-16387511D02*
X10762461Y-16397035D01*
X10762461Y-16397035D02*
X10752937Y-16387511D01*
X10752937Y-16387511D02*
X10762461Y-16377987D01*
X10762461Y-16377987D02*
X10762461Y-16397035D01*
X10838652Y-16197035D02*
X10962461Y-16197035D01*
X10962461Y-16197035D02*
X10895794Y-16273225D01*
X10895794Y-16273225D02*
X10924366Y-16273225D01*
X10924366Y-16273225D02*
X10943414Y-16282749D01*
X10943414Y-16282749D02*
X10952937Y-16292273D01*
X10952937Y-16292273D02*
X10962461Y-16311320D01*
X10962461Y-16311320D02*
X10962461Y-16358939D01*
X10962461Y-16358939D02*
X10952937Y-16377987D01*
X10952937Y-16377987D02*
X10943414Y-16387511D01*
X10943414Y-16387511D02*
X10924366Y-16397035D01*
X10924366Y-16397035D02*
X10867223Y-16397035D01*
X10867223Y-16397035D02*
X10848175Y-16387511D01*
X10848175Y-16387511D02*
X10838652Y-16377987D01*
X11086271Y-16197035D02*
X11105318Y-16197035D01*
X11105318Y-16197035D02*
X11124366Y-16206558D01*
X11124366Y-16206558D02*
X11133890Y-16216082D01*
X11133890Y-16216082D02*
X11143414Y-16235130D01*
X11143414Y-16235130D02*
X11152937Y-16273225D01*
X11152937Y-16273225D02*
X11152937Y-16320844D01*
X11152937Y-16320844D02*
X11143414Y-16358939D01*
X11143414Y-16358939D02*
X11133890Y-16377987D01*
X11133890Y-16377987D02*
X11124366Y-16387511D01*
X11124366Y-16387511D02*
X11105318Y-16397035D01*
X11105318Y-16397035D02*
X11086271Y-16397035D01*
X11086271Y-16397035D02*
X11067223Y-16387511D01*
X11067223Y-16387511D02*
X11057699Y-16377987D01*
X11057699Y-16377987D02*
X11048175Y-16358939D01*
X11048175Y-16358939D02*
X11038652Y-16320844D01*
X11038652Y-16320844D02*
X11038652Y-16273225D01*
X11038652Y-16273225D02*
X11048175Y-16235130D01*
X11048175Y-16235130D02*
X11057699Y-16216082D01*
X11057699Y-16216082D02*
X11067223Y-16206558D01*
X11067223Y-16206558D02*
X11086271Y-16197035D01*
X11276747Y-16197035D02*
X11295794Y-16197035D01*
X11295794Y-16197035D02*
X11314842Y-16206558D01*
X11314842Y-16206558D02*
X11324366Y-16216082D01*
X11324366Y-16216082D02*
X11333890Y-16235130D01*
X11333890Y-16235130D02*
X11343413Y-16273225D01*
X11343413Y-16273225D02*
X11343413Y-16320844D01*
X11343413Y-16320844D02*
X11333890Y-16358939D01*
X11333890Y-16358939D02*
X11324366Y-16377987D01*
X11324366Y-16377987D02*
X11314842Y-16387511D01*
X11314842Y-16387511D02*
X11295794Y-16397035D01*
X11295794Y-16397035D02*
X11276747Y-16397035D01*
X11276747Y-16397035D02*
X11257699Y-16387511D01*
X11257699Y-16387511D02*
X11248175Y-16377987D01*
X11248175Y-16377987D02*
X11238652Y-16358939D01*
X11238652Y-16358939D02*
X11229128Y-16320844D01*
X11229128Y-16320844D02*
X11229128Y-16273225D01*
X11229128Y-16273225D02*
X11238652Y-16235130D01*
X11238652Y-16235130D02*
X11248175Y-16216082D01*
X11248175Y-16216082D02*
X11257699Y-16206558D01*
X11257699Y-16206558D02*
X11276747Y-16197035D01*
X11429128Y-16397035D02*
X11429128Y-16263701D01*
X11429128Y-16282749D02*
X11438652Y-16273225D01*
X11438652Y-16273225D02*
X11457699Y-16263701D01*
X11457699Y-16263701D02*
X11486271Y-16263701D01*
X11486271Y-16263701D02*
X11505318Y-16273225D01*
X11505318Y-16273225D02*
X11514842Y-16292273D01*
X11514842Y-16292273D02*
X11514842Y-16397035D01*
X11514842Y-16292273D02*
X11524366Y-16273225D01*
X11524366Y-16273225D02*
X11543413Y-16263701D01*
X11543413Y-16263701D02*
X11571985Y-16263701D01*
X11571985Y-16263701D02*
X11591033Y-16273225D01*
X11591033Y-16273225D02*
X11600556Y-16292273D01*
X11600556Y-16292273D02*
X11600556Y-16397035D01*
X11695794Y-16397035D02*
X11695794Y-16263701D01*
X11695794Y-16282749D02*
X11705318Y-16273225D01*
X11705318Y-16273225D02*
X11724366Y-16263701D01*
X11724366Y-16263701D02*
X11752937Y-16263701D01*
X11752937Y-16263701D02*
X11771985Y-16273225D01*
X11771985Y-16273225D02*
X11781509Y-16292273D01*
X11781509Y-16292273D02*
X11781509Y-16397035D01*
X11781509Y-16292273D02*
X11791033Y-16273225D01*
X11791033Y-16273225D02*
X11810080Y-16263701D01*
X11810080Y-16263701D02*
X11838652Y-16263701D01*
X11838652Y-16263701D02*
X11857699Y-16273225D01*
X11857699Y-16273225D02*
X11867223Y-16292273D01*
X11867223Y-16292273D02*
X11867223Y-16397035D01*
X12257699Y-16187511D02*
X12086271Y-16444654D01*
X12514842Y-16197035D02*
X12533890Y-16197035D01*
X12533890Y-16197035D02*
X12552937Y-16206558D01*
X12552937Y-16206558D02*
X12562461Y-16216082D01*
X12562461Y-16216082D02*
X12571985Y-16235130D01*
X12571985Y-16235130D02*
X12581509Y-16273225D01*
X12581509Y-16273225D02*
X12581509Y-16320844D01*
X12581509Y-16320844D02*
X12571985Y-16358939D01*
X12571985Y-16358939D02*
X12562461Y-16377987D01*
X12562461Y-16377987D02*
X12552937Y-16387511D01*
X12552937Y-16387511D02*
X12533890Y-16397035D01*
X12533890Y-16397035D02*
X12514842Y-16397035D01*
X12514842Y-16397035D02*
X12495795Y-16387511D01*
X12495795Y-16387511D02*
X12486271Y-16377987D01*
X12486271Y-16377987D02*
X12476747Y-16358939D01*
X12476747Y-16358939D02*
X12467223Y-16320844D01*
X12467223Y-16320844D02*
X12467223Y-16273225D01*
X12467223Y-16273225D02*
X12476747Y-16235130D01*
X12476747Y-16235130D02*
X12486271Y-16216082D01*
X12486271Y-16216082D02*
X12495795Y-16206558D01*
X12495795Y-16206558D02*
X12514842Y-16197035D01*
X12667223Y-16377987D02*
X12676747Y-16387511D01*
X12676747Y-16387511D02*
X12667223Y-16397035D01*
X12667223Y-16397035D02*
X12657699Y-16387511D01*
X12657699Y-16387511D02*
X12667223Y-16377987D01*
X12667223Y-16377987D02*
X12667223Y-16397035D01*
X12867223Y-16397035D02*
X12752937Y-16397035D01*
X12810080Y-16397035D02*
X12810080Y-16197035D01*
X12810080Y-16197035D02*
X12791033Y-16225606D01*
X12791033Y-16225606D02*
X12771985Y-16244654D01*
X12771985Y-16244654D02*
X12752937Y-16254177D01*
X13038652Y-16197035D02*
X13000556Y-16197035D01*
X13000556Y-16197035D02*
X12981509Y-16206558D01*
X12981509Y-16206558D02*
X12971985Y-16216082D01*
X12971985Y-16216082D02*
X12952937Y-16244654D01*
X12952937Y-16244654D02*
X12943414Y-16282749D01*
X12943414Y-16282749D02*
X12943414Y-16358939D01*
X12943414Y-16358939D02*
X12952937Y-16377987D01*
X12952937Y-16377987D02*
X12962461Y-16387511D01*
X12962461Y-16387511D02*
X12981509Y-16397035D01*
X12981509Y-16397035D02*
X13019604Y-16397035D01*
X13019604Y-16397035D02*
X13038652Y-16387511D01*
X13038652Y-16387511D02*
X13048176Y-16377987D01*
X13048176Y-16377987D02*
X13057699Y-16358939D01*
X13057699Y-16358939D02*
X13057699Y-16311320D01*
X13057699Y-16311320D02*
X13048176Y-16292273D01*
X13048176Y-16292273D02*
X13038652Y-16282749D01*
X13038652Y-16282749D02*
X13019604Y-16273225D01*
X13019604Y-16273225D02*
X12981509Y-16273225D01*
X12981509Y-16273225D02*
X12962461Y-16282749D01*
X12962461Y-16282749D02*
X12952937Y-16292273D01*
X12952937Y-16292273D02*
X12943414Y-16311320D01*
X13152937Y-16397035D02*
X13191033Y-16397035D01*
X13191033Y-16397035D02*
X13210080Y-16387511D01*
X13210080Y-16387511D02*
X13219604Y-16377987D01*
X13219604Y-16377987D02*
X13238652Y-16349416D01*
X13238652Y-16349416D02*
X13248176Y-16311320D01*
X13248176Y-16311320D02*
X13248176Y-16235130D01*
X13248176Y-16235130D02*
X13238652Y-16216082D01*
X13238652Y-16216082D02*
X13229128Y-16206558D01*
X13229128Y-16206558D02*
X13210080Y-16197035D01*
X13210080Y-16197035D02*
X13171985Y-16197035D01*
X13171985Y-16197035D02*
X13152937Y-16206558D01*
X13152937Y-16206558D02*
X13143414Y-16216082D01*
X13143414Y-16216082D02*
X13133890Y-16235130D01*
X13133890Y-16235130D02*
X13133890Y-16282749D01*
X13133890Y-16282749D02*
X13143414Y-16301797D01*
X13143414Y-16301797D02*
X13152937Y-16311320D01*
X13152937Y-16311320D02*
X13171985Y-16320844D01*
X13171985Y-16320844D02*
X13210080Y-16320844D01*
X13210080Y-16320844D02*
X13229128Y-16311320D01*
X13229128Y-16311320D02*
X13238652Y-16301797D01*
X13238652Y-16301797D02*
X13248176Y-16282749D01*
X13314842Y-16197035D02*
X13438652Y-16197035D01*
X13438652Y-16197035D02*
X13371985Y-16273225D01*
X13371985Y-16273225D02*
X13400557Y-16273225D01*
X13400557Y-16273225D02*
X13419604Y-16282749D01*
X13419604Y-16282749D02*
X13429128Y-16292273D01*
X13429128Y-16292273D02*
X13438652Y-16311320D01*
X13438652Y-16311320D02*
X13438652Y-16358939D01*
X13438652Y-16358939D02*
X13429128Y-16377987D01*
X13429128Y-16377987D02*
X13419604Y-16387511D01*
X13419604Y-16387511D02*
X13400557Y-16397035D01*
X13400557Y-16397035D02*
X13343414Y-16397035D01*
X13343414Y-16397035D02*
X13324366Y-16387511D01*
X13324366Y-16387511D02*
X13314842Y-16377987D01*
X13514842Y-16197035D02*
X13514842Y-16235130D01*
X13591033Y-16197035D02*
X13591033Y-16235130D01*
X13886271Y-16473225D02*
X13876747Y-16463701D01*
X13876747Y-16463701D02*
X13857699Y-16435130D01*
X13857699Y-16435130D02*
X13848176Y-16416082D01*
X13848176Y-16416082D02*
X13838652Y-16387511D01*
X13838652Y-16387511D02*
X13829128Y-16339892D01*
X13829128Y-16339892D02*
X13829128Y-16301797D01*
X13829128Y-16301797D02*
X13838652Y-16254177D01*
X13838652Y-16254177D02*
X13848176Y-16225606D01*
X13848176Y-16225606D02*
X13857699Y-16206558D01*
X13857699Y-16206558D02*
X13876747Y-16177987D01*
X13876747Y-16177987D02*
X13886271Y-16168463D01*
X14000557Y-16197035D02*
X14019604Y-16197035D01*
X14019604Y-16197035D02*
X14038652Y-16206558D01*
X14038652Y-16206558D02*
X14048176Y-16216082D01*
X14048176Y-16216082D02*
X14057699Y-16235130D01*
X14057699Y-16235130D02*
X14067223Y-16273225D01*
X14067223Y-16273225D02*
X14067223Y-16320844D01*
X14067223Y-16320844D02*
X14057699Y-16358939D01*
X14057699Y-16358939D02*
X14048176Y-16377987D01*
X14048176Y-16377987D02*
X14038652Y-16387511D01*
X14038652Y-16387511D02*
X14019604Y-16397035D01*
X14019604Y-16397035D02*
X14000557Y-16397035D01*
X14000557Y-16397035D02*
X13981509Y-16387511D01*
X13981509Y-16387511D02*
X13971985Y-16377987D01*
X13971985Y-16377987D02*
X13962461Y-16358939D01*
X13962461Y-16358939D02*
X13952938Y-16320844D01*
X13952938Y-16320844D02*
X13952938Y-16273225D01*
X13952938Y-16273225D02*
X13962461Y-16235130D01*
X13962461Y-16235130D02*
X13971985Y-16216082D01*
X13971985Y-16216082D02*
X13981509Y-16206558D01*
X13981509Y-16206558D02*
X14000557Y-16197035D01*
X14305319Y-16397035D02*
X14305319Y-16197035D01*
X14391033Y-16397035D02*
X14391033Y-16292273D01*
X14391033Y-16292273D02*
X14381509Y-16273225D01*
X14381509Y-16273225D02*
X14362461Y-16263701D01*
X14362461Y-16263701D02*
X14333890Y-16263701D01*
X14333890Y-16263701D02*
X14314842Y-16273225D01*
X14314842Y-16273225D02*
X14305319Y-16282749D01*
X14514842Y-16397035D02*
X14495795Y-16387511D01*
X14495795Y-16387511D02*
X14486271Y-16377987D01*
X14486271Y-16377987D02*
X14476747Y-16358939D01*
X14476747Y-16358939D02*
X14476747Y-16301797D01*
X14476747Y-16301797D02*
X14486271Y-16282749D01*
X14486271Y-16282749D02*
X14495795Y-16273225D01*
X14495795Y-16273225D02*
X14514842Y-16263701D01*
X14514842Y-16263701D02*
X14543414Y-16263701D01*
X14543414Y-16263701D02*
X14562461Y-16273225D01*
X14562461Y-16273225D02*
X14571985Y-16282749D01*
X14571985Y-16282749D02*
X14581509Y-16301797D01*
X14581509Y-16301797D02*
X14581509Y-16358939D01*
X14581509Y-16358939D02*
X14571985Y-16377987D01*
X14571985Y-16377987D02*
X14562461Y-16387511D01*
X14562461Y-16387511D02*
X14543414Y-16397035D01*
X14543414Y-16397035D02*
X14514842Y-16397035D01*
X14695795Y-16397035D02*
X14676747Y-16387511D01*
X14676747Y-16387511D02*
X14667223Y-16368463D01*
X14667223Y-16368463D02*
X14667223Y-16197035D01*
X14848176Y-16387511D02*
X14829128Y-16397035D01*
X14829128Y-16397035D02*
X14791033Y-16397035D01*
X14791033Y-16397035D02*
X14771985Y-16387511D01*
X14771985Y-16387511D02*
X14762461Y-16368463D01*
X14762461Y-16368463D02*
X14762461Y-16292273D01*
X14762461Y-16292273D02*
X14771985Y-16273225D01*
X14771985Y-16273225D02*
X14791033Y-16263701D01*
X14791033Y-16263701D02*
X14829128Y-16263701D01*
X14829128Y-16263701D02*
X14848176Y-16273225D01*
X14848176Y-16273225D02*
X14857700Y-16292273D01*
X14857700Y-16292273D02*
X14857700Y-16311320D01*
X14857700Y-16311320D02*
X14762461Y-16330368D01*
X14933890Y-16387511D02*
X14952938Y-16397035D01*
X14952938Y-16397035D02*
X14991033Y-16397035D01*
X14991033Y-16397035D02*
X15010081Y-16387511D01*
X15010081Y-16387511D02*
X15019604Y-16368463D01*
X15019604Y-16368463D02*
X15019604Y-16358939D01*
X15019604Y-16358939D02*
X15010081Y-16339892D01*
X15010081Y-16339892D02*
X14991033Y-16330368D01*
X14991033Y-16330368D02*
X14962461Y-16330368D01*
X14962461Y-16330368D02*
X14943414Y-16320844D01*
X14943414Y-16320844D02*
X14933890Y-16301797D01*
X14933890Y-16301797D02*
X14933890Y-16292273D01*
X14933890Y-16292273D02*
X14943414Y-16273225D01*
X14943414Y-16273225D02*
X14962461Y-16263701D01*
X14962461Y-16263701D02*
X14991033Y-16263701D01*
X14991033Y-16263701D02*
X15010081Y-16273225D01*
X15257700Y-16320844D02*
X15410081Y-16320844D01*
X15333890Y-16397035D02*
X15333890Y-16244654D01*
X15648176Y-16216082D02*
X15657700Y-16206558D01*
X15657700Y-16206558D02*
X15676747Y-16197035D01*
X15676747Y-16197035D02*
X15724366Y-16197035D01*
X15724366Y-16197035D02*
X15743414Y-16206558D01*
X15743414Y-16206558D02*
X15752938Y-16216082D01*
X15752938Y-16216082D02*
X15762462Y-16235130D01*
X15762462Y-16235130D02*
X15762462Y-16254177D01*
X15762462Y-16254177D02*
X15752938Y-16282749D01*
X15752938Y-16282749D02*
X15638652Y-16397035D01*
X15638652Y-16397035D02*
X15762462Y-16397035D01*
X15991033Y-16387511D02*
X16010081Y-16397035D01*
X16010081Y-16397035D02*
X16048176Y-16397035D01*
X16048176Y-16397035D02*
X16067224Y-16387511D01*
X16067224Y-16387511D02*
X16076747Y-16368463D01*
X16076747Y-16368463D02*
X16076747Y-16358939D01*
X16076747Y-16358939D02*
X16067224Y-16339892D01*
X16067224Y-16339892D02*
X16048176Y-16330368D01*
X16048176Y-16330368D02*
X16019604Y-16330368D01*
X16019604Y-16330368D02*
X16000557Y-16320844D01*
X16000557Y-16320844D02*
X15991033Y-16301797D01*
X15991033Y-16301797D02*
X15991033Y-16292273D01*
X15991033Y-16292273D02*
X16000557Y-16273225D01*
X16000557Y-16273225D02*
X16019604Y-16263701D01*
X16019604Y-16263701D02*
X16048176Y-16263701D01*
X16048176Y-16263701D02*
X16067224Y-16273225D01*
X16191033Y-16397035D02*
X16171985Y-16387511D01*
X16171985Y-16387511D02*
X16162462Y-16368463D01*
X16162462Y-16368463D02*
X16162462Y-16197035D01*
X16295795Y-16397035D02*
X16276747Y-16387511D01*
X16276747Y-16387511D02*
X16267224Y-16377987D01*
X16267224Y-16377987D02*
X16257700Y-16358939D01*
X16257700Y-16358939D02*
X16257700Y-16301797D01*
X16257700Y-16301797D02*
X16267224Y-16282749D01*
X16267224Y-16282749D02*
X16276747Y-16273225D01*
X16276747Y-16273225D02*
X16295795Y-16263701D01*
X16295795Y-16263701D02*
X16324366Y-16263701D01*
X16324366Y-16263701D02*
X16343414Y-16273225D01*
X16343414Y-16273225D02*
X16352938Y-16282749D01*
X16352938Y-16282749D02*
X16362462Y-16301797D01*
X16362462Y-16301797D02*
X16362462Y-16358939D01*
X16362462Y-16358939D02*
X16352938Y-16377987D01*
X16352938Y-16377987D02*
X16343414Y-16387511D01*
X16343414Y-16387511D02*
X16324366Y-16397035D01*
X16324366Y-16397035D02*
X16295795Y-16397035D01*
X16419605Y-16263701D02*
X16495795Y-16263701D01*
X16448176Y-16197035D02*
X16448176Y-16368463D01*
X16448176Y-16368463D02*
X16457700Y-16387511D01*
X16457700Y-16387511D02*
X16476747Y-16397035D01*
X16476747Y-16397035D02*
X16495795Y-16397035D01*
X16552938Y-16387511D02*
X16571985Y-16397035D01*
X16571985Y-16397035D02*
X16610081Y-16397035D01*
X16610081Y-16397035D02*
X16629128Y-16387511D01*
X16629128Y-16387511D02*
X16638652Y-16368463D01*
X16638652Y-16368463D02*
X16638652Y-16358939D01*
X16638652Y-16358939D02*
X16629128Y-16339892D01*
X16629128Y-16339892D02*
X16610081Y-16330368D01*
X16610081Y-16330368D02*
X16581509Y-16330368D01*
X16581509Y-16330368D02*
X16562462Y-16320844D01*
X16562462Y-16320844D02*
X16552938Y-16301797D01*
X16552938Y-16301797D02*
X16552938Y-16292273D01*
X16552938Y-16292273D02*
X16562462Y-16273225D01*
X16562462Y-16273225D02*
X16581509Y-16263701D01*
X16581509Y-16263701D02*
X16610081Y-16263701D01*
X16610081Y-16263701D02*
X16629128Y-16273225D01*
X16705319Y-16473225D02*
X16714843Y-16463701D01*
X16714843Y-16463701D02*
X16733890Y-16435130D01*
X16733890Y-16435130D02*
X16743414Y-16416082D01*
X16743414Y-16416082D02*
X16752938Y-16387511D01*
X16752938Y-16387511D02*
X16762462Y-16339892D01*
X16762462Y-16339892D02*
X16762462Y-16301797D01*
X16762462Y-16301797D02*
X16752938Y-16254177D01*
X16752938Y-16254177D02*
X16743414Y-16225606D01*
X16743414Y-16225606D02*
X16733890Y-16206558D01*
X16733890Y-16206558D02*
X16714843Y-16177987D01*
X16714843Y-16177987D02*
X16705319Y-16168463D01*
X17067224Y-16473225D02*
X17057700Y-16463701D01*
X17057700Y-16463701D02*
X17038652Y-16435130D01*
X17038652Y-16435130D02*
X17029128Y-16416082D01*
X17029128Y-16416082D02*
X17019605Y-16387511D01*
X17019605Y-16387511D02*
X17010081Y-16339892D01*
X17010081Y-16339892D02*
X17010081Y-16301797D01*
X17010081Y-16301797D02*
X17019605Y-16254177D01*
X17019605Y-16254177D02*
X17029128Y-16225606D01*
X17029128Y-16225606D02*
X17038652Y-16206558D01*
X17038652Y-16206558D02*
X17057700Y-16177987D01*
X17057700Y-16177987D02*
X17067224Y-16168463D01*
X17143414Y-16263701D02*
X17143414Y-16397035D01*
X17143414Y-16282749D02*
X17152938Y-16273225D01*
X17152938Y-16273225D02*
X17171986Y-16263701D01*
X17171986Y-16263701D02*
X17200557Y-16263701D01*
X17200557Y-16263701D02*
X17219605Y-16273225D01*
X17219605Y-16273225D02*
X17229128Y-16292273D01*
X17229128Y-16292273D02*
X17229128Y-16397035D01*
X17352938Y-16397035D02*
X17333890Y-16387511D01*
X17333890Y-16387511D02*
X17324367Y-16377987D01*
X17324367Y-16377987D02*
X17314843Y-16358939D01*
X17314843Y-16358939D02*
X17314843Y-16301797D01*
X17314843Y-16301797D02*
X17324367Y-16282749D01*
X17324367Y-16282749D02*
X17333890Y-16273225D01*
X17333890Y-16273225D02*
X17352938Y-16263701D01*
X17352938Y-16263701D02*
X17381509Y-16263701D01*
X17381509Y-16263701D02*
X17400557Y-16273225D01*
X17400557Y-16273225D02*
X17410081Y-16282749D01*
X17410081Y-16282749D02*
X17419605Y-16301797D01*
X17419605Y-16301797D02*
X17419605Y-16358939D01*
X17419605Y-16358939D02*
X17410081Y-16377987D01*
X17410081Y-16377987D02*
X17400557Y-16387511D01*
X17400557Y-16387511D02*
X17381509Y-16397035D01*
X17381509Y-16397035D02*
X17352938Y-16397035D01*
X17476748Y-16263701D02*
X17552938Y-16263701D01*
X17505319Y-16197035D02*
X17505319Y-16368463D01*
X17505319Y-16368463D02*
X17514843Y-16387511D01*
X17514843Y-16387511D02*
X17533890Y-16397035D01*
X17533890Y-16397035D02*
X17552938Y-16397035D01*
X17771986Y-16263701D02*
X17771986Y-16463701D01*
X17771986Y-16273225D02*
X17791033Y-16263701D01*
X17791033Y-16263701D02*
X17829129Y-16263701D01*
X17829129Y-16263701D02*
X17848176Y-16273225D01*
X17848176Y-16273225D02*
X17857700Y-16282749D01*
X17857700Y-16282749D02*
X17867224Y-16301797D01*
X17867224Y-16301797D02*
X17867224Y-16358939D01*
X17867224Y-16358939D02*
X17857700Y-16377987D01*
X17857700Y-16377987D02*
X17848176Y-16387511D01*
X17848176Y-16387511D02*
X17829129Y-16397035D01*
X17829129Y-16397035D02*
X17791033Y-16397035D01*
X17791033Y-16397035D02*
X17771986Y-16387511D01*
X17981509Y-16397035D02*
X17962462Y-16387511D01*
X17962462Y-16387511D02*
X17952938Y-16368463D01*
X17952938Y-16368463D02*
X17952938Y-16197035D01*
X18143414Y-16397035D02*
X18143414Y-16292273D01*
X18143414Y-16292273D02*
X18133890Y-16273225D01*
X18133890Y-16273225D02*
X18114843Y-16263701D01*
X18114843Y-16263701D02*
X18076748Y-16263701D01*
X18076748Y-16263701D02*
X18057700Y-16273225D01*
X18143414Y-16387511D02*
X18124367Y-16397035D01*
X18124367Y-16397035D02*
X18076748Y-16397035D01*
X18076748Y-16397035D02*
X18057700Y-16387511D01*
X18057700Y-16387511D02*
X18048176Y-16368463D01*
X18048176Y-16368463D02*
X18048176Y-16349416D01*
X18048176Y-16349416D02*
X18057700Y-16330368D01*
X18057700Y-16330368D02*
X18076748Y-16320844D01*
X18076748Y-16320844D02*
X18124367Y-16320844D01*
X18124367Y-16320844D02*
X18143414Y-16311320D01*
X18210081Y-16263701D02*
X18286271Y-16263701D01*
X18238652Y-16197035D02*
X18238652Y-16368463D01*
X18238652Y-16368463D02*
X18248176Y-16387511D01*
X18248176Y-16387511D02*
X18267224Y-16397035D01*
X18267224Y-16397035D02*
X18286271Y-16397035D01*
X18429129Y-16387511D02*
X18410081Y-16397035D01*
X18410081Y-16397035D02*
X18371986Y-16397035D01*
X18371986Y-16397035D02*
X18352938Y-16387511D01*
X18352938Y-16387511D02*
X18343414Y-16368463D01*
X18343414Y-16368463D02*
X18343414Y-16292273D01*
X18343414Y-16292273D02*
X18352938Y-16273225D01*
X18352938Y-16273225D02*
X18371986Y-16263701D01*
X18371986Y-16263701D02*
X18410081Y-16263701D01*
X18410081Y-16263701D02*
X18429129Y-16273225D01*
X18429129Y-16273225D02*
X18438652Y-16292273D01*
X18438652Y-16292273D02*
X18438652Y-16311320D01*
X18438652Y-16311320D02*
X18343414Y-16330368D01*
X18610081Y-16397035D02*
X18610081Y-16197035D01*
X18610081Y-16387511D02*
X18591033Y-16397035D01*
X18591033Y-16397035D02*
X18552938Y-16397035D01*
X18552938Y-16397035D02*
X18533890Y-16387511D01*
X18533890Y-16387511D02*
X18524367Y-16377987D01*
X18524367Y-16377987D02*
X18514843Y-16358939D01*
X18514843Y-16358939D02*
X18514843Y-16301797D01*
X18514843Y-16301797D02*
X18524367Y-16282749D01*
X18524367Y-16282749D02*
X18533890Y-16273225D01*
X18533890Y-16273225D02*
X18552938Y-16263701D01*
X18552938Y-16263701D02*
X18591033Y-16263701D01*
X18591033Y-16263701D02*
X18610081Y-16273225D01*
X18686271Y-16473225D02*
X18695795Y-16463701D01*
X18695795Y-16463701D02*
X18714843Y-16435130D01*
X18714843Y-16435130D02*
X18724367Y-16416082D01*
X18724367Y-16416082D02*
X18733890Y-16387511D01*
X18733890Y-16387511D02*
X18743414Y-16339892D01*
X18743414Y-16339892D02*
X18743414Y-16301797D01*
X18743414Y-16301797D02*
X18733890Y-16254177D01*
X18733890Y-16254177D02*
X18724367Y-16225606D01*
X18724367Y-16225606D02*
X18714843Y-16206558D01*
X18714843Y-16206558D02*
X18695795Y-16177987D01*
X18695795Y-16177987D02*
X18686271Y-16168463D01*
M02*
