%TF.GenerationSoftware,KiCad,Pcbnew,8.0.8*%
%TF.CreationDate,2025-02-28T01:53:59-06:00*%
%TF.ProjectId,B-Sides 2025,422d5369-6465-4732-9032-3032352e6b69,rev?*%
%TF.SameCoordinates,Original*%
%TF.FileFunction,Legend,Bot*%
%TF.FilePolarity,Positive*%
%FSLAX46Y46*%
G04 Gerber Fmt 4.6, Leading zero omitted, Abs format (unit mm)*
G04 Created by KiCad (PCBNEW 8.0.8) date 2025-02-28 01:53:59*
%MOMM*%
%LPD*%
G01*
G04 APERTURE LIST*
%ADD10C,0.300000*%
%ADD11C,0.250000*%
%ADD12C,0.150000*%
%ADD13C,0.120000*%
G04 APERTURE END LIST*
D10*
X103248346Y-61780828D02*
X103748346Y-61066542D01*
X104105489Y-61780828D02*
X104105489Y-60280828D01*
X104105489Y-60280828D02*
X103534060Y-60280828D01*
X103534060Y-60280828D02*
X103391203Y-60352257D01*
X103391203Y-60352257D02*
X103319774Y-60423685D01*
X103319774Y-60423685D02*
X103248346Y-60566542D01*
X103248346Y-60566542D02*
X103248346Y-60780828D01*
X103248346Y-60780828D02*
X103319774Y-60923685D01*
X103319774Y-60923685D02*
X103391203Y-60995114D01*
X103391203Y-60995114D02*
X103534060Y-61066542D01*
X103534060Y-61066542D02*
X104105489Y-61066542D01*
X102034060Y-61709400D02*
X102176917Y-61780828D01*
X102176917Y-61780828D02*
X102462632Y-61780828D01*
X102462632Y-61780828D02*
X102605489Y-61709400D01*
X102605489Y-61709400D02*
X102676917Y-61566542D01*
X102676917Y-61566542D02*
X102676917Y-60995114D01*
X102676917Y-60995114D02*
X102605489Y-60852257D01*
X102605489Y-60852257D02*
X102462632Y-60780828D01*
X102462632Y-60780828D02*
X102176917Y-60780828D01*
X102176917Y-60780828D02*
X102034060Y-60852257D01*
X102034060Y-60852257D02*
X101962632Y-60995114D01*
X101962632Y-60995114D02*
X101962632Y-61137971D01*
X101962632Y-61137971D02*
X102676917Y-61280828D01*
X101462632Y-60780828D02*
X101105489Y-61780828D01*
X101105489Y-61780828D02*
X100748346Y-60780828D01*
X99391203Y-61780828D02*
X100248346Y-61780828D01*
X99819775Y-61780828D02*
X99819775Y-60280828D01*
X99819775Y-60280828D02*
X99962632Y-60495114D01*
X99962632Y-60495114D02*
X100105489Y-60637971D01*
X100105489Y-60637971D02*
X100248346Y-60709400D01*
X98748347Y-61637971D02*
X98676918Y-61709400D01*
X98676918Y-61709400D02*
X98748347Y-61780828D01*
X98748347Y-61780828D02*
X98819775Y-61709400D01*
X98819775Y-61709400D02*
X98748347Y-61637971D01*
X98748347Y-61637971D02*
X98748347Y-61780828D01*
X97248346Y-61780828D02*
X98105489Y-61780828D01*
X97676918Y-61780828D02*
X97676918Y-60280828D01*
X97676918Y-60280828D02*
X97819775Y-60495114D01*
X97819775Y-60495114D02*
X97962632Y-60637971D01*
X97962632Y-60637971D02*
X98105489Y-60709400D01*
D11*
G36*
X140367614Y-68247752D02*
G01*
X140416503Y-68250230D01*
X140431347Y-68251449D01*
X140480983Y-68259511D01*
X140498799Y-68259725D01*
X140545625Y-68284035D01*
X140569175Y-68329620D01*
X140578723Y-68379057D01*
X140581367Y-68430237D01*
X140582272Y-68481019D01*
X140583978Y-68532750D01*
X140586056Y-68581645D01*
X140588729Y-68635800D01*
X140591999Y-68695214D01*
X140595045Y-68746531D01*
X140597489Y-68784741D01*
X140601029Y-68844427D01*
X140603901Y-68899116D01*
X140606465Y-68958146D01*
X140608068Y-69009981D01*
X140608722Y-69061360D01*
X140608722Y-69252847D01*
X140607120Y-69270386D01*
X140583077Y-69315129D01*
X140565608Y-69328910D01*
X140518108Y-69341263D01*
X140497208Y-69339079D01*
X140453628Y-69313663D01*
X140440233Y-69295364D01*
X140428227Y-69247718D01*
X140428223Y-69233343D01*
X140428126Y-69178398D01*
X140427899Y-69127536D01*
X140427432Y-69069702D01*
X140426763Y-69018247D01*
X140425693Y-68964924D01*
X140424075Y-68914326D01*
X140415766Y-68915199D01*
X140366434Y-68919211D01*
X140324374Y-68917833D01*
X140273893Y-68912236D01*
X140225737Y-68902334D01*
X140171020Y-68884769D01*
X140119652Y-68861004D01*
X140071632Y-68831039D01*
X140031455Y-68797976D01*
X139998088Y-68761525D01*
X139967035Y-68713314D01*
X139945789Y-68660226D01*
X139935575Y-68612260D01*
X139932300Y-68562861D01*
X140112909Y-68562861D01*
X140121827Y-68612512D01*
X140148581Y-68655005D01*
X140188381Y-68687424D01*
X140216221Y-68702448D01*
X140262780Y-68719156D01*
X140315097Y-68728869D01*
X140366434Y-68731632D01*
X140413084Y-68726748D01*
X140409048Y-68676859D01*
X140405251Y-68625211D01*
X140402114Y-68574828D01*
X140399895Y-68520607D01*
X140399478Y-68485305D01*
X140399162Y-68436343D01*
X140370830Y-68434877D01*
X140331995Y-68434633D01*
X140282965Y-68438354D01*
X140231788Y-68451042D01*
X140183496Y-68472735D01*
X140170881Y-68480209D01*
X140130556Y-68514928D01*
X140112909Y-68562861D01*
X139932300Y-68562861D01*
X139932170Y-68560907D01*
X139932298Y-68552490D01*
X139938446Y-68503672D01*
X139957274Y-68450364D01*
X139983404Y-68407797D01*
X140018755Y-68368115D01*
X140063328Y-68331318D01*
X140078169Y-68321115D01*
X140123458Y-68294453D01*
X140169897Y-68273716D01*
X140217487Y-68258904D01*
X140266228Y-68250017D01*
X140316120Y-68247055D01*
X140367614Y-68247752D01*
G37*
G36*
X138873377Y-68357208D02*
G01*
X138884240Y-68406754D01*
X138887299Y-68444403D01*
X138890291Y-68494251D01*
X138891207Y-68503998D01*
X138894695Y-68553914D01*
X138894870Y-68563349D01*
X138895679Y-68615826D01*
X138897542Y-68669881D01*
X138899739Y-68718843D01*
X138901709Y-68757522D01*
X138904374Y-68810702D01*
X138906618Y-68864065D01*
X138908121Y-68914647D01*
X138908548Y-68951207D01*
X138907298Y-69000270D01*
X138904637Y-69049147D01*
X138900976Y-69101416D01*
X138897316Y-69153548D01*
X138894470Y-69206612D01*
X138893405Y-69251137D01*
X138907284Y-69299501D01*
X138920272Y-69315129D01*
X138963111Y-69338710D01*
X138986706Y-69341263D01*
X139035187Y-69330323D01*
X139056803Y-69315861D01*
X139084019Y-69273543D01*
X139086357Y-69253824D01*
X139087245Y-69200950D01*
X139088967Y-69151562D01*
X139090997Y-69105080D01*
X139093123Y-69053242D01*
X139094776Y-69000590D01*
X139095394Y-68956580D01*
X139094701Y-68907454D01*
X139093928Y-68887948D01*
X139143578Y-68891065D01*
X139198066Y-68896356D01*
X139248622Y-68902622D01*
X139302732Y-68910484D01*
X139360397Y-68919944D01*
X139409856Y-68928487D01*
X139459316Y-68937083D01*
X139508775Y-68945729D01*
X139558234Y-68954428D01*
X139607693Y-68963178D01*
X139624180Y-68966106D01*
X139626771Y-69015273D01*
X139630225Y-69064016D01*
X139633949Y-69111186D01*
X139637556Y-69163884D01*
X139639980Y-69214524D01*
X139640788Y-69257487D01*
X139655901Y-69304061D01*
X139667655Y-69316838D01*
X139712738Y-69339331D01*
X139734089Y-69341263D01*
X139782932Y-69329257D01*
X139801011Y-69315861D01*
X139825528Y-69273417D01*
X139827634Y-69253579D01*
X139826220Y-69199326D01*
X139823415Y-69149936D01*
X139819733Y-69099857D01*
X139815666Y-69051835D01*
X139811003Y-68996266D01*
X139807485Y-68947102D01*
X139804645Y-68893303D01*
X139803698Y-68850090D01*
X139803370Y-68795048D01*
X139802660Y-68742807D01*
X139801736Y-68691461D01*
X139800519Y-68634054D01*
X139799546Y-68592414D01*
X139798350Y-68540721D01*
X139797182Y-68484278D01*
X139796306Y-68433932D01*
X139795653Y-68382899D01*
X139795394Y-68334738D01*
X139781641Y-68287652D01*
X139768771Y-68272456D01*
X139725596Y-68249535D01*
X139701849Y-68247055D01*
X139653342Y-68259292D01*
X139635415Y-68272944D01*
X139610673Y-68315740D01*
X139608548Y-68335715D01*
X139609193Y-68386133D01*
X139610567Y-68436546D01*
X139612456Y-68490565D01*
X139614227Y-68544465D01*
X139615515Y-68594793D01*
X139616120Y-68645170D01*
X139619423Y-68695866D01*
X139620760Y-68710139D01*
X139624106Y-68759757D01*
X139624180Y-68778527D01*
X139360397Y-68730900D01*
X139303923Y-68721715D01*
X139250454Y-68714127D01*
X139199990Y-68708136D01*
X139144914Y-68703166D01*
X139093928Y-68700369D01*
X139091648Y-68650446D01*
X139089747Y-68599562D01*
X139087838Y-68544115D01*
X139086050Y-68489566D01*
X139084891Y-68453196D01*
X139078119Y-68403828D01*
X139063236Y-68356750D01*
X139052651Y-68331563D01*
X139027659Y-68286998D01*
X138989224Y-68252336D01*
X138965457Y-68247055D01*
X138917433Y-68259546D01*
X138900976Y-68271235D01*
X138873648Y-68313287D01*
X138870690Y-68336448D01*
X138873377Y-68357208D01*
G37*
G36*
X138244323Y-68247271D02*
G01*
X138304668Y-68252469D01*
X138362349Y-68264597D01*
X138417367Y-68283656D01*
X138469721Y-68309645D01*
X138519411Y-68342564D01*
X138566437Y-68382414D01*
X138610800Y-68429194D01*
X138642323Y-68468827D01*
X138676613Y-68518821D01*
X138706330Y-68570127D01*
X138731476Y-68622746D01*
X138752049Y-68676678D01*
X138768051Y-68731922D01*
X138779481Y-68788480D01*
X138786339Y-68846350D01*
X138788625Y-68905533D01*
X138788029Y-68930671D01*
X138781332Y-68990945D01*
X138767192Y-69047545D01*
X138745611Y-69100473D01*
X138716588Y-69149727D01*
X138680124Y-69195307D01*
X138636217Y-69237215D01*
X138608894Y-69258603D01*
X138560990Y-69289575D01*
X138510129Y-69314703D01*
X138456309Y-69333987D01*
X138399533Y-69347427D01*
X138339798Y-69355024D01*
X138289881Y-69356894D01*
X138274357Y-69356675D01*
X138214107Y-69351408D01*
X138156811Y-69339120D01*
X138102469Y-69319809D01*
X138051081Y-69293477D01*
X138002646Y-69260122D01*
X137957166Y-69219746D01*
X137914639Y-69172348D01*
X137884682Y-69132191D01*
X137853140Y-69082884D01*
X137825804Y-69032173D01*
X137802674Y-68980058D01*
X137783749Y-68926538D01*
X137769029Y-68871614D01*
X137758515Y-68815286D01*
X137752207Y-68757553D01*
X137750104Y-68698415D01*
X137750129Y-68697438D01*
X137945010Y-68697438D01*
X137945373Y-68719605D01*
X137949451Y-68773704D01*
X137958062Y-68825918D01*
X137971204Y-68876248D01*
X137988878Y-68924693D01*
X138011084Y-68971254D01*
X138037822Y-69015931D01*
X138057178Y-69043343D01*
X138091403Y-69083037D01*
X138135716Y-69120784D01*
X138183567Y-69147746D01*
X138234955Y-69163923D01*
X138289881Y-69169316D01*
X138305919Y-69169038D01*
X138359317Y-69163694D01*
X138408461Y-69151547D01*
X138459416Y-69129336D01*
X138504815Y-69098241D01*
X138510269Y-69093588D01*
X138547673Y-69053253D01*
X138573994Y-69007393D01*
X138589232Y-68956006D01*
X138593475Y-68906510D01*
X138593075Y-68884773D01*
X138588578Y-68831497D01*
X138579083Y-68779748D01*
X138564592Y-68729526D01*
X138545104Y-68680830D01*
X138520619Y-68633661D01*
X138491137Y-68588018D01*
X138463156Y-68552068D01*
X138426248Y-68513872D01*
X138387193Y-68483165D01*
X138337493Y-68456203D01*
X138284702Y-68440026D01*
X138228820Y-68434633D01*
X138209502Y-68434850D01*
X138156036Y-68438098D01*
X138102167Y-68446815D01*
X138051822Y-68463275D01*
X138009490Y-68490076D01*
X138001682Y-68497698D01*
X137972779Y-68540806D01*
X137955652Y-68591223D01*
X137947277Y-68644679D01*
X137945010Y-68697438D01*
X137750129Y-68697438D01*
X137751156Y-68657051D01*
X137755831Y-68604996D01*
X137766934Y-68544909D01*
X137783881Y-68490355D01*
X137806671Y-68441335D01*
X137835305Y-68397848D01*
X137869783Y-68359895D01*
X137910040Y-68327387D01*
X137956165Y-68300389D01*
X138008157Y-68278901D01*
X138066017Y-68262923D01*
X138116530Y-68254107D01*
X138170797Y-68248818D01*
X138228820Y-68247055D01*
X138244323Y-68247271D01*
G37*
G36*
X136821981Y-68481528D02*
G01*
X136875317Y-68480157D01*
X136929785Y-68477238D01*
X136981775Y-68473734D01*
X136988799Y-68473224D01*
X137040273Y-68469743D01*
X137090445Y-68467141D01*
X137140642Y-68465850D01*
X137155861Y-68465896D01*
X137153307Y-68521673D01*
X137149877Y-68578920D01*
X137145933Y-68637644D01*
X137141938Y-68693389D01*
X137138278Y-68742442D01*
X137137299Y-68755324D01*
X137133147Y-68810919D01*
X137129700Y-68862757D01*
X137126491Y-68920005D01*
X137124296Y-68971842D01*
X137123015Y-69025483D01*
X137122889Y-69046217D01*
X137120141Y-69095814D01*
X137118004Y-69118269D01*
X137113806Y-69168644D01*
X137113119Y-69190076D01*
X137118614Y-69240879D01*
X137135101Y-69286308D01*
X137166746Y-69325753D01*
X137215457Y-69341263D01*
X137263355Y-69329487D01*
X137282379Y-69316350D01*
X137310085Y-69275802D01*
X137314619Y-69246252D01*
X137311200Y-69215966D01*
X137307536Y-69184703D01*
X137309172Y-69133751D01*
X137312177Y-69085296D01*
X137315182Y-69033311D01*
X137316573Y-68985157D01*
X137317474Y-68932934D01*
X137319739Y-68880303D01*
X137322779Y-68830036D01*
X137326832Y-68775013D01*
X137330983Y-68725526D01*
X137335834Y-68669600D01*
X137340004Y-68619362D01*
X137344112Y-68566585D01*
X137347666Y-68515366D01*
X137350279Y-68465896D01*
X137385938Y-68465896D01*
X137441150Y-68465347D01*
X137491932Y-68463698D01*
X137545577Y-68460385D01*
X137599501Y-68454768D01*
X137629204Y-68450265D01*
X137675641Y-68428386D01*
X137702729Y-68383673D01*
X137705408Y-68358185D01*
X137692664Y-68310359D01*
X137680739Y-68293705D01*
X137640143Y-68266156D01*
X137605024Y-68262686D01*
X137554988Y-68267150D01*
X137506263Y-68272489D01*
X137495847Y-68273677D01*
X137444952Y-68278421D01*
X137394042Y-68280940D01*
X137385938Y-68281004D01*
X137333609Y-68280699D01*
X137280818Y-68280069D01*
X137260642Y-68279783D01*
X137208120Y-68278949D01*
X137158701Y-68278409D01*
X137135101Y-68278318D01*
X137084165Y-68278318D01*
X137033189Y-68278318D01*
X136978541Y-68278318D01*
X136929555Y-68278318D01*
X136877553Y-68278318D01*
X136828689Y-68278318D01*
X136821981Y-68278318D01*
X136773591Y-68290940D01*
X136752861Y-68307627D01*
X136728307Y-68351665D01*
X136725017Y-68379434D01*
X136735893Y-68427806D01*
X136752861Y-68451974D01*
X136795191Y-68478036D01*
X136821981Y-68481528D01*
G37*
G36*
X136152627Y-68247271D02*
G01*
X136212972Y-68252469D01*
X136270653Y-68264597D01*
X136325671Y-68283656D01*
X136378025Y-68309645D01*
X136427715Y-68342564D01*
X136474741Y-68382414D01*
X136519104Y-68429194D01*
X136550628Y-68468827D01*
X136584917Y-68518821D01*
X136614634Y-68570127D01*
X136639780Y-68622746D01*
X136660354Y-68676678D01*
X136676355Y-68731922D01*
X136687785Y-68788480D01*
X136694643Y-68846350D01*
X136696929Y-68905533D01*
X136696334Y-68930671D01*
X136689636Y-68990945D01*
X136675497Y-69047545D01*
X136653916Y-69100473D01*
X136624893Y-69149727D01*
X136588428Y-69195307D01*
X136544521Y-69237215D01*
X136517199Y-69258603D01*
X136469295Y-69289575D01*
X136418433Y-69314703D01*
X136364614Y-69333987D01*
X136307837Y-69347427D01*
X136248102Y-69355024D01*
X136198185Y-69356894D01*
X136182661Y-69356675D01*
X136122411Y-69351408D01*
X136065115Y-69339120D01*
X136010773Y-69319809D01*
X135959385Y-69293477D01*
X135910951Y-69260122D01*
X135865470Y-69219746D01*
X135822943Y-69172348D01*
X135792986Y-69132191D01*
X135761445Y-69082884D01*
X135734108Y-69032173D01*
X135710978Y-68980058D01*
X135692053Y-68926538D01*
X135677333Y-68871614D01*
X135666820Y-68815286D01*
X135660511Y-68757553D01*
X135658408Y-68698415D01*
X135658433Y-68697438D01*
X135853314Y-68697438D01*
X135853677Y-68719605D01*
X135857755Y-68773704D01*
X135866366Y-68825918D01*
X135879508Y-68876248D01*
X135897183Y-68924693D01*
X135919389Y-68971254D01*
X135946127Y-69015931D01*
X135965482Y-69043343D01*
X135999707Y-69083037D01*
X136044020Y-69120784D01*
X136091871Y-69147746D01*
X136143259Y-69163923D01*
X136198185Y-69169316D01*
X136214223Y-69169038D01*
X136267621Y-69163694D01*
X136316765Y-69151547D01*
X136367720Y-69129336D01*
X136413119Y-69098241D01*
X136418574Y-69093588D01*
X136455977Y-69053253D01*
X136482298Y-69007393D01*
X136497536Y-68956006D01*
X136501779Y-68906510D01*
X136501379Y-68884773D01*
X136496882Y-68831497D01*
X136487388Y-68779748D01*
X136472897Y-68729526D01*
X136453408Y-68680830D01*
X136428923Y-68633661D01*
X136399441Y-68588018D01*
X136371460Y-68552068D01*
X136334552Y-68513872D01*
X136295497Y-68483165D01*
X136245797Y-68456203D01*
X136193006Y-68440026D01*
X136137124Y-68434633D01*
X136117806Y-68434850D01*
X136064340Y-68438098D01*
X136010471Y-68446815D01*
X135960127Y-68463275D01*
X135917794Y-68490076D01*
X135909986Y-68497698D01*
X135881083Y-68540806D01*
X135863956Y-68591223D01*
X135855581Y-68644679D01*
X135853314Y-68697438D01*
X135658433Y-68697438D01*
X135659460Y-68657051D01*
X135664135Y-68604996D01*
X135675238Y-68544909D01*
X135692185Y-68490355D01*
X135714975Y-68441335D01*
X135743610Y-68397848D01*
X135778087Y-68359895D01*
X135818345Y-68327387D01*
X135864469Y-68300389D01*
X135916461Y-68278901D01*
X135974321Y-68262923D01*
X136024834Y-68254107D01*
X136079101Y-68248818D01*
X136137124Y-68247055D01*
X136152627Y-68247271D01*
G37*
G36*
X135672086Y-69544473D02*
G01*
X135672086Y-69419420D01*
X134684368Y-69419420D01*
X134684368Y-69544473D01*
X135672086Y-69544473D01*
G37*
G36*
X134108961Y-68300312D02*
G01*
X134147414Y-68336960D01*
X134179819Y-68376407D01*
X134210380Y-68417127D01*
X134245063Y-68465991D01*
X134273780Y-68507983D01*
X134304815Y-68554556D01*
X134334387Y-68599676D01*
X134363265Y-68644422D01*
X134391448Y-68688795D01*
X134418937Y-68732793D01*
X134445731Y-68776417D01*
X134471831Y-68819667D01*
X134497236Y-68862543D01*
X134521946Y-68905045D01*
X134555954Y-68918054D01*
X134588625Y-68956580D01*
X134580321Y-68996392D01*
X134598260Y-69032929D01*
X134624238Y-69087281D01*
X134645315Y-69133451D01*
X134666588Y-69184344D01*
X134680704Y-69234284D01*
X134677771Y-69257807D01*
X134650662Y-69299986D01*
X134630994Y-69313510D01*
X134582519Y-69325631D01*
X134534830Y-69313785D01*
X134498743Y-69278248D01*
X134479876Y-69242940D01*
X134454322Y-69194270D01*
X134432065Y-69150753D01*
X134410266Y-69106495D01*
X134388834Y-69059895D01*
X134373573Y-69056292D01*
X134323457Y-69047015D01*
X134273567Y-69040111D01*
X134222505Y-69034494D01*
X134208317Y-69033150D01*
X134156621Y-69027777D01*
X134108134Y-69021732D01*
X134056175Y-69013000D01*
X134046097Y-69051526D01*
X134031512Y-69100222D01*
X134013533Y-69151355D01*
X133993893Y-69198625D01*
X133983596Y-69220990D01*
X133959618Y-69264761D01*
X133928893Y-69303727D01*
X133884717Y-69325631D01*
X133861843Y-69323804D01*
X133817062Y-69300474D01*
X133801219Y-69282442D01*
X133787020Y-69234040D01*
X133794825Y-69191519D01*
X133811688Y-69145624D01*
X133829508Y-69102908D01*
X133846859Y-69055498D01*
X133861655Y-68992888D01*
X133875878Y-68932064D01*
X133889529Y-68873026D01*
X133893262Y-68856685D01*
X134095498Y-68856685D01*
X134142553Y-68860196D01*
X134192219Y-68863035D01*
X134239679Y-68866216D01*
X134288450Y-68872316D01*
X134276854Y-68852973D01*
X134249239Y-68806870D01*
X134223592Y-68763987D01*
X134195414Y-68716778D01*
X134166120Y-68667560D01*
X134140683Y-68624654D01*
X134135389Y-68650972D01*
X134125457Y-68700775D01*
X134114977Y-68754103D01*
X134105689Y-68802288D01*
X134095498Y-68856685D01*
X133893262Y-68856685D01*
X133902608Y-68815774D01*
X133915114Y-68760308D01*
X133927047Y-68706628D01*
X133938408Y-68654734D01*
X133949197Y-68604626D01*
X133951029Y-68595539D01*
X133961367Y-68544030D01*
X133972017Y-68490470D01*
X133982329Y-68437874D01*
X133992428Y-68385052D01*
X134008258Y-68345194D01*
X134043738Y-68306761D01*
X134093300Y-68293949D01*
X134108961Y-68300312D01*
G37*
G36*
X91717614Y-65637752D02*
G01*
X91766503Y-65640230D01*
X91781347Y-65641449D01*
X91830983Y-65649511D01*
X91848799Y-65649725D01*
X91895625Y-65674035D01*
X91919175Y-65719620D01*
X91928723Y-65769057D01*
X91931367Y-65820237D01*
X91932272Y-65871019D01*
X91933978Y-65922750D01*
X91936056Y-65971645D01*
X91938729Y-66025800D01*
X91941999Y-66085214D01*
X91945045Y-66136531D01*
X91947489Y-66174741D01*
X91951029Y-66234427D01*
X91953901Y-66289116D01*
X91956465Y-66348146D01*
X91958068Y-66399981D01*
X91958722Y-66451360D01*
X91958722Y-66642847D01*
X91957120Y-66660386D01*
X91933077Y-66705129D01*
X91915608Y-66718910D01*
X91868108Y-66731263D01*
X91847208Y-66729079D01*
X91803628Y-66703663D01*
X91790233Y-66685364D01*
X91778227Y-66637718D01*
X91778223Y-66623343D01*
X91778126Y-66568398D01*
X91777899Y-66517536D01*
X91777432Y-66459702D01*
X91776763Y-66408247D01*
X91775693Y-66354924D01*
X91774075Y-66304326D01*
X91765766Y-66305199D01*
X91716434Y-66309211D01*
X91674374Y-66307833D01*
X91623893Y-66302236D01*
X91575737Y-66292334D01*
X91521020Y-66274769D01*
X91469652Y-66251004D01*
X91421632Y-66221039D01*
X91381455Y-66187976D01*
X91348088Y-66151525D01*
X91317035Y-66103314D01*
X91295789Y-66050226D01*
X91285575Y-66002260D01*
X91282300Y-65952861D01*
X91462909Y-65952861D01*
X91471827Y-66002512D01*
X91498581Y-66045005D01*
X91538381Y-66077424D01*
X91566221Y-66092448D01*
X91612780Y-66109156D01*
X91665097Y-66118869D01*
X91716434Y-66121632D01*
X91763084Y-66116748D01*
X91759048Y-66066859D01*
X91755251Y-66015211D01*
X91752114Y-65964828D01*
X91749895Y-65910607D01*
X91749478Y-65875305D01*
X91749162Y-65826343D01*
X91720830Y-65824877D01*
X91681995Y-65824633D01*
X91632965Y-65828354D01*
X91581788Y-65841042D01*
X91533496Y-65862735D01*
X91520881Y-65870209D01*
X91480556Y-65904928D01*
X91462909Y-65952861D01*
X91282300Y-65952861D01*
X91282170Y-65950907D01*
X91282298Y-65942490D01*
X91288446Y-65893672D01*
X91307274Y-65840364D01*
X91333404Y-65797797D01*
X91368755Y-65758115D01*
X91413328Y-65721318D01*
X91428169Y-65711115D01*
X91473458Y-65684453D01*
X91519897Y-65663716D01*
X91567487Y-65648904D01*
X91616228Y-65640017D01*
X91666120Y-65637055D01*
X91717614Y-65637752D01*
G37*
G36*
X90223377Y-65747208D02*
G01*
X90234240Y-65796754D01*
X90237299Y-65834403D01*
X90240291Y-65884251D01*
X90241207Y-65893998D01*
X90244695Y-65943914D01*
X90244870Y-65953349D01*
X90245679Y-66005826D01*
X90247542Y-66059881D01*
X90249739Y-66108843D01*
X90251709Y-66147522D01*
X90254374Y-66200702D01*
X90256618Y-66254065D01*
X90258121Y-66304647D01*
X90258548Y-66341207D01*
X90257298Y-66390270D01*
X90254637Y-66439147D01*
X90250976Y-66491416D01*
X90247316Y-66543548D01*
X90244470Y-66596612D01*
X90243405Y-66641137D01*
X90257284Y-66689501D01*
X90270272Y-66705129D01*
X90313111Y-66728710D01*
X90336706Y-66731263D01*
X90385187Y-66720323D01*
X90406803Y-66705861D01*
X90434019Y-66663543D01*
X90436357Y-66643824D01*
X90437245Y-66590950D01*
X90438967Y-66541562D01*
X90440997Y-66495080D01*
X90443123Y-66443242D01*
X90444776Y-66390590D01*
X90445394Y-66346580D01*
X90444701Y-66297454D01*
X90443928Y-66277948D01*
X90493578Y-66281065D01*
X90548066Y-66286356D01*
X90598622Y-66292622D01*
X90652732Y-66300484D01*
X90710397Y-66309944D01*
X90759856Y-66318487D01*
X90809316Y-66327083D01*
X90858775Y-66335729D01*
X90908234Y-66344428D01*
X90957693Y-66353178D01*
X90974180Y-66356106D01*
X90976771Y-66405273D01*
X90980225Y-66454016D01*
X90983949Y-66501186D01*
X90987556Y-66553884D01*
X90989980Y-66604524D01*
X90990788Y-66647487D01*
X91005901Y-66694061D01*
X91017655Y-66706838D01*
X91062738Y-66729331D01*
X91084089Y-66731263D01*
X91132932Y-66719257D01*
X91151011Y-66705861D01*
X91175528Y-66663417D01*
X91177634Y-66643579D01*
X91176220Y-66589326D01*
X91173415Y-66539936D01*
X91169733Y-66489857D01*
X91165666Y-66441835D01*
X91161003Y-66386266D01*
X91157485Y-66337102D01*
X91154645Y-66283303D01*
X91153698Y-66240090D01*
X91153370Y-66185048D01*
X91152660Y-66132807D01*
X91151736Y-66081461D01*
X91150519Y-66024054D01*
X91149546Y-65982414D01*
X91148350Y-65930721D01*
X91147182Y-65874278D01*
X91146306Y-65823932D01*
X91145653Y-65772899D01*
X91145394Y-65724738D01*
X91131641Y-65677652D01*
X91118771Y-65662456D01*
X91075596Y-65639535D01*
X91051849Y-65637055D01*
X91003342Y-65649292D01*
X90985415Y-65662944D01*
X90960673Y-65705740D01*
X90958548Y-65725715D01*
X90959193Y-65776133D01*
X90960567Y-65826546D01*
X90962456Y-65880565D01*
X90964227Y-65934465D01*
X90965515Y-65984793D01*
X90966120Y-66035170D01*
X90969423Y-66085866D01*
X90970760Y-66100139D01*
X90974106Y-66149757D01*
X90974180Y-66168527D01*
X90710397Y-66120900D01*
X90653923Y-66111715D01*
X90600454Y-66104127D01*
X90549990Y-66098136D01*
X90494914Y-66093166D01*
X90443928Y-66090369D01*
X90441648Y-66040446D01*
X90439747Y-65989562D01*
X90437838Y-65934115D01*
X90436050Y-65879566D01*
X90434891Y-65843196D01*
X90428119Y-65793828D01*
X90413236Y-65746750D01*
X90402651Y-65721563D01*
X90377659Y-65676998D01*
X90339224Y-65642336D01*
X90315457Y-65637055D01*
X90267433Y-65649546D01*
X90250976Y-65661235D01*
X90223648Y-65703287D01*
X90220690Y-65726448D01*
X90223377Y-65747208D01*
G37*
G36*
X89594323Y-65637271D02*
G01*
X89654668Y-65642469D01*
X89712349Y-65654597D01*
X89767367Y-65673656D01*
X89819721Y-65699645D01*
X89869411Y-65732564D01*
X89916437Y-65772414D01*
X89960800Y-65819194D01*
X89992323Y-65858827D01*
X90026613Y-65908821D01*
X90056330Y-65960127D01*
X90081476Y-66012746D01*
X90102049Y-66066678D01*
X90118051Y-66121922D01*
X90129481Y-66178480D01*
X90136339Y-66236350D01*
X90138625Y-66295533D01*
X90138029Y-66320671D01*
X90131332Y-66380945D01*
X90117192Y-66437545D01*
X90095611Y-66490473D01*
X90066588Y-66539727D01*
X90030124Y-66585307D01*
X89986217Y-66627215D01*
X89958894Y-66648603D01*
X89910990Y-66679575D01*
X89860129Y-66704703D01*
X89806309Y-66723987D01*
X89749533Y-66737427D01*
X89689798Y-66745024D01*
X89639881Y-66746894D01*
X89624357Y-66746675D01*
X89564107Y-66741408D01*
X89506811Y-66729120D01*
X89452469Y-66709809D01*
X89401081Y-66683477D01*
X89352646Y-66650122D01*
X89307166Y-66609746D01*
X89264639Y-66562348D01*
X89234682Y-66522191D01*
X89203140Y-66472884D01*
X89175804Y-66422173D01*
X89152674Y-66370058D01*
X89133749Y-66316538D01*
X89119029Y-66261614D01*
X89108515Y-66205286D01*
X89102207Y-66147553D01*
X89100104Y-66088415D01*
X89100129Y-66087438D01*
X89295010Y-66087438D01*
X89295373Y-66109605D01*
X89299451Y-66163704D01*
X89308062Y-66215918D01*
X89321204Y-66266248D01*
X89338878Y-66314693D01*
X89361084Y-66361254D01*
X89387822Y-66405931D01*
X89407178Y-66433343D01*
X89441403Y-66473037D01*
X89485716Y-66510784D01*
X89533567Y-66537746D01*
X89584955Y-66553923D01*
X89639881Y-66559316D01*
X89655919Y-66559038D01*
X89709317Y-66553694D01*
X89758461Y-66541547D01*
X89809416Y-66519336D01*
X89854815Y-66488241D01*
X89860269Y-66483588D01*
X89897673Y-66443253D01*
X89923994Y-66397393D01*
X89939232Y-66346006D01*
X89943475Y-66296510D01*
X89943075Y-66274773D01*
X89938578Y-66221497D01*
X89929083Y-66169748D01*
X89914592Y-66119526D01*
X89895104Y-66070830D01*
X89870619Y-66023661D01*
X89841137Y-65978018D01*
X89813156Y-65942068D01*
X89776248Y-65903872D01*
X89737193Y-65873165D01*
X89687493Y-65846203D01*
X89634702Y-65830026D01*
X89578820Y-65824633D01*
X89559502Y-65824850D01*
X89506036Y-65828098D01*
X89452167Y-65836815D01*
X89401822Y-65853275D01*
X89359490Y-65880076D01*
X89351682Y-65887698D01*
X89322779Y-65930806D01*
X89305652Y-65981223D01*
X89297277Y-66034679D01*
X89295010Y-66087438D01*
X89100129Y-66087438D01*
X89101156Y-66047051D01*
X89105831Y-65994996D01*
X89116934Y-65934909D01*
X89133881Y-65880355D01*
X89156671Y-65831335D01*
X89185305Y-65787848D01*
X89219783Y-65749895D01*
X89260040Y-65717387D01*
X89306165Y-65690389D01*
X89358157Y-65668901D01*
X89416017Y-65652923D01*
X89466530Y-65644107D01*
X89520797Y-65638818D01*
X89578820Y-65637055D01*
X89594323Y-65637271D01*
G37*
G36*
X88171981Y-65871528D02*
G01*
X88225317Y-65870157D01*
X88279785Y-65867238D01*
X88331775Y-65863734D01*
X88338799Y-65863224D01*
X88390273Y-65859743D01*
X88440445Y-65857141D01*
X88490642Y-65855850D01*
X88505861Y-65855896D01*
X88503307Y-65911673D01*
X88499877Y-65968920D01*
X88495933Y-66027644D01*
X88491938Y-66083389D01*
X88488278Y-66132442D01*
X88487299Y-66145324D01*
X88483147Y-66200919D01*
X88479700Y-66252757D01*
X88476491Y-66310005D01*
X88474296Y-66361842D01*
X88473015Y-66415483D01*
X88472889Y-66436217D01*
X88470141Y-66485814D01*
X88468004Y-66508269D01*
X88463806Y-66558644D01*
X88463119Y-66580076D01*
X88468614Y-66630879D01*
X88485101Y-66676308D01*
X88516746Y-66715753D01*
X88565457Y-66731263D01*
X88613355Y-66719487D01*
X88632379Y-66706350D01*
X88660085Y-66665802D01*
X88664619Y-66636252D01*
X88661200Y-66605966D01*
X88657536Y-66574703D01*
X88659172Y-66523751D01*
X88662177Y-66475296D01*
X88665182Y-66423311D01*
X88666573Y-66375157D01*
X88667474Y-66322934D01*
X88669739Y-66270303D01*
X88672779Y-66220036D01*
X88676832Y-66165013D01*
X88680983Y-66115526D01*
X88685834Y-66059600D01*
X88690004Y-66009362D01*
X88694112Y-65956585D01*
X88697666Y-65905366D01*
X88700279Y-65855896D01*
X88735938Y-65855896D01*
X88791150Y-65855347D01*
X88841932Y-65853698D01*
X88895577Y-65850385D01*
X88949501Y-65844768D01*
X88979204Y-65840265D01*
X89025641Y-65818386D01*
X89052729Y-65773673D01*
X89055408Y-65748185D01*
X89042664Y-65700359D01*
X89030739Y-65683705D01*
X88990143Y-65656156D01*
X88955024Y-65652686D01*
X88904988Y-65657150D01*
X88856263Y-65662489D01*
X88845847Y-65663677D01*
X88794952Y-65668421D01*
X88744042Y-65670940D01*
X88735938Y-65671004D01*
X88683609Y-65670699D01*
X88630818Y-65670069D01*
X88610642Y-65669783D01*
X88558120Y-65668949D01*
X88508701Y-65668409D01*
X88485101Y-65668318D01*
X88434165Y-65668318D01*
X88383189Y-65668318D01*
X88328541Y-65668318D01*
X88279555Y-65668318D01*
X88227553Y-65668318D01*
X88178689Y-65668318D01*
X88171981Y-65668318D01*
X88123591Y-65680940D01*
X88102861Y-65697627D01*
X88078307Y-65741665D01*
X88075017Y-65769434D01*
X88085893Y-65817806D01*
X88102861Y-65841974D01*
X88145191Y-65868036D01*
X88171981Y-65871528D01*
G37*
G36*
X87502627Y-65637271D02*
G01*
X87562972Y-65642469D01*
X87620653Y-65654597D01*
X87675671Y-65673656D01*
X87728025Y-65699645D01*
X87777715Y-65732564D01*
X87824741Y-65772414D01*
X87869104Y-65819194D01*
X87900628Y-65858827D01*
X87934917Y-65908821D01*
X87964634Y-65960127D01*
X87989780Y-66012746D01*
X88010354Y-66066678D01*
X88026355Y-66121922D01*
X88037785Y-66178480D01*
X88044643Y-66236350D01*
X88046929Y-66295533D01*
X88046334Y-66320671D01*
X88039636Y-66380945D01*
X88025497Y-66437545D01*
X88003916Y-66490473D01*
X87974893Y-66539727D01*
X87938428Y-66585307D01*
X87894521Y-66627215D01*
X87867199Y-66648603D01*
X87819295Y-66679575D01*
X87768433Y-66704703D01*
X87714614Y-66723987D01*
X87657837Y-66737427D01*
X87598102Y-66745024D01*
X87548185Y-66746894D01*
X87532661Y-66746675D01*
X87472411Y-66741408D01*
X87415115Y-66729120D01*
X87360773Y-66709809D01*
X87309385Y-66683477D01*
X87260951Y-66650122D01*
X87215470Y-66609746D01*
X87172943Y-66562348D01*
X87142986Y-66522191D01*
X87111445Y-66472884D01*
X87084108Y-66422173D01*
X87060978Y-66370058D01*
X87042053Y-66316538D01*
X87027333Y-66261614D01*
X87016820Y-66205286D01*
X87010511Y-66147553D01*
X87008408Y-66088415D01*
X87008433Y-66087438D01*
X87203314Y-66087438D01*
X87203677Y-66109605D01*
X87207755Y-66163704D01*
X87216366Y-66215918D01*
X87229508Y-66266248D01*
X87247183Y-66314693D01*
X87269389Y-66361254D01*
X87296127Y-66405931D01*
X87315482Y-66433343D01*
X87349707Y-66473037D01*
X87394020Y-66510784D01*
X87441871Y-66537746D01*
X87493259Y-66553923D01*
X87548185Y-66559316D01*
X87564223Y-66559038D01*
X87617621Y-66553694D01*
X87666765Y-66541547D01*
X87717720Y-66519336D01*
X87763119Y-66488241D01*
X87768574Y-66483588D01*
X87805977Y-66443253D01*
X87832298Y-66397393D01*
X87847536Y-66346006D01*
X87851779Y-66296510D01*
X87851379Y-66274773D01*
X87846882Y-66221497D01*
X87837388Y-66169748D01*
X87822897Y-66119526D01*
X87803408Y-66070830D01*
X87778923Y-66023661D01*
X87749441Y-65978018D01*
X87721460Y-65942068D01*
X87684552Y-65903872D01*
X87645497Y-65873165D01*
X87595797Y-65846203D01*
X87543006Y-65830026D01*
X87487124Y-65824633D01*
X87467806Y-65824850D01*
X87414340Y-65828098D01*
X87360471Y-65836815D01*
X87310127Y-65853275D01*
X87267794Y-65880076D01*
X87259986Y-65887698D01*
X87231083Y-65930806D01*
X87213956Y-65981223D01*
X87205581Y-66034679D01*
X87203314Y-66087438D01*
X87008433Y-66087438D01*
X87009460Y-66047051D01*
X87014135Y-65994996D01*
X87025238Y-65934909D01*
X87042185Y-65880355D01*
X87064975Y-65831335D01*
X87093610Y-65787848D01*
X87128087Y-65749895D01*
X87168345Y-65717387D01*
X87214469Y-65690389D01*
X87266461Y-65668901D01*
X87324321Y-65652923D01*
X87374834Y-65644107D01*
X87429101Y-65638818D01*
X87487124Y-65637055D01*
X87502627Y-65637271D01*
G37*
G36*
X87022086Y-66934473D02*
G01*
X87022086Y-66809420D01*
X86034368Y-66809420D01*
X86034368Y-66934473D01*
X87022086Y-66934473D01*
G37*
G36*
X85725729Y-65637186D02*
G01*
X85778672Y-65638815D01*
X85827979Y-65642874D01*
X85876831Y-65651953D01*
X85925833Y-65661799D01*
X85972571Y-65685557D01*
X85996999Y-65728890D01*
X86000548Y-65766092D01*
X86000418Y-65816817D01*
X85999163Y-65856995D01*
X85996999Y-65908653D01*
X85996999Y-66625261D01*
X85991638Y-66655692D01*
X85964515Y-66697557D01*
X85938766Y-66718096D01*
X85890509Y-66731263D01*
X85875311Y-66731205D01*
X85816170Y-66729826D01*
X85759670Y-66726606D01*
X85705810Y-66721548D01*
X85654592Y-66714650D01*
X85594282Y-66703441D01*
X85538099Y-66689358D01*
X85486043Y-66672400D01*
X85476969Y-66668908D01*
X85432313Y-66648357D01*
X85388850Y-66622655D01*
X85346580Y-66591800D01*
X85312714Y-66561332D01*
X85278459Y-66519665D01*
X85254812Y-66471367D01*
X85247857Y-66427424D01*
X85434508Y-66427424D01*
X85460021Y-66462476D01*
X85506904Y-66484591D01*
X85553942Y-66499476D01*
X85604996Y-66512639D01*
X85654658Y-66523553D01*
X85702929Y-66532217D01*
X85757488Y-66539482D01*
X85810153Y-66543684D01*
X85810153Y-66293579D01*
X85780039Y-66294667D01*
X85725603Y-66296407D01*
X85673596Y-66297672D01*
X85623307Y-66298220D01*
X85606877Y-66300549D01*
X85559032Y-66313986D01*
X85512177Y-66335589D01*
X85490317Y-66348457D01*
X85452547Y-66381579D01*
X85434508Y-66427424D01*
X85247857Y-66427424D01*
X85246929Y-66421563D01*
X85247157Y-66412675D01*
X85256563Y-66363694D01*
X85277085Y-66319014D01*
X85305303Y-66278681D01*
X85338991Y-66241705D01*
X85379465Y-66208361D01*
X85423517Y-66182693D01*
X85409938Y-66170454D01*
X85373083Y-66131996D01*
X85344382Y-66090125D01*
X85330450Y-66058243D01*
X85318967Y-66009722D01*
X85315660Y-65960676D01*
X85505826Y-65960676D01*
X85507675Y-65984781D01*
X85526363Y-66032962D01*
X85565177Y-66069852D01*
X85614464Y-66092487D01*
X85666832Y-66105012D01*
X85716120Y-66110886D01*
X85761380Y-66110662D01*
X85810153Y-66106001D01*
X85809420Y-65966050D01*
X85810153Y-65824633D01*
X85806187Y-65824415D01*
X85756247Y-65823556D01*
X85703663Y-65823412D01*
X85659418Y-65827896D01*
X85612567Y-65843187D01*
X85567620Y-65869330D01*
X85556577Y-65877603D01*
X85521275Y-65914148D01*
X85505826Y-65960676D01*
X85315660Y-65960676D01*
X85315561Y-65959211D01*
X85316787Y-65932658D01*
X85326593Y-65882077D01*
X85346205Y-65834862D01*
X85375623Y-65791013D01*
X85414847Y-65750529D01*
X85455024Y-65719364D01*
X85499932Y-65691392D01*
X85545630Y-65669207D01*
X85592119Y-65652809D01*
X85647353Y-65640993D01*
X85703663Y-65637055D01*
X85725729Y-65637186D01*
G37*
G36*
X112441625Y-117955317D02*
G01*
X112489524Y-117942554D01*
X112525080Y-117904266D01*
X112532972Y-117888639D01*
X112560572Y-117850781D01*
X112609430Y-117845915D01*
X112614794Y-117845896D01*
X112665554Y-117856851D01*
X112714242Y-117884981D01*
X112752962Y-117917438D01*
X112793571Y-117959633D01*
X112814584Y-117984382D01*
X112851793Y-118032357D01*
X112884041Y-118079560D01*
X112911327Y-118125993D01*
X112933653Y-118171655D01*
X112954583Y-118227649D01*
X112967761Y-118282437D01*
X112973187Y-118336022D01*
X112973342Y-118346594D01*
X112967426Y-118396919D01*
X112947476Y-118445961D01*
X112923272Y-118478729D01*
X112882755Y-118512217D01*
X112836673Y-118530249D01*
X112802861Y-118533684D01*
X112751627Y-118528601D01*
X112704119Y-118515010D01*
X112664863Y-118497536D01*
X112623143Y-118471666D01*
X112579619Y-118442291D01*
X112560572Y-118429148D01*
X112515993Y-118403202D01*
X112479483Y-118393000D01*
X112430672Y-118406149D01*
X112409385Y-118423531D01*
X112385142Y-118466633D01*
X112382519Y-118488743D01*
X112396448Y-118535932D01*
X112418178Y-118560307D01*
X112465542Y-118598031D01*
X112513112Y-118630725D01*
X112560888Y-118658389D01*
X112608871Y-118681024D01*
X112657059Y-118698628D01*
X112705454Y-118711203D01*
X112754054Y-118718748D01*
X112802861Y-118721263D01*
X112859146Y-118717218D01*
X112912049Y-118705085D01*
X112961568Y-118684864D01*
X113007704Y-118656553D01*
X113050457Y-118620155D01*
X113063956Y-118606224D01*
X113098486Y-118563342D01*
X113125872Y-118517679D01*
X113146113Y-118469233D01*
X113159211Y-118418005D01*
X113165164Y-118363994D01*
X113165561Y-118345373D01*
X113162417Y-118286537D01*
X113152983Y-118227388D01*
X113137260Y-118167927D01*
X113115247Y-118108152D01*
X113094611Y-118063116D01*
X113070436Y-118017903D01*
X113042724Y-117972515D01*
X113011475Y-117926950D01*
X112976687Y-117881210D01*
X112964305Y-117865924D01*
X112932182Y-117828823D01*
X112889143Y-117785031D01*
X112845869Y-117747726D01*
X112802357Y-117716910D01*
X112758609Y-117692581D01*
X112703591Y-117671293D01*
X112648204Y-117660142D01*
X112614794Y-117658318D01*
X112564714Y-117660123D01*
X112560083Y-117660516D01*
X112517096Y-117666378D01*
X112472197Y-117645486D01*
X112444312Y-117642686D01*
X112396226Y-117655867D01*
X112365876Y-117695411D01*
X112357850Y-117722554D01*
X112350260Y-117772333D01*
X112346688Y-117823864D01*
X112346127Y-117856399D01*
X112357392Y-117904026D01*
X112366154Y-117918436D01*
X112405251Y-117949230D01*
X112441625Y-117955317D01*
G37*
G36*
X112201478Y-117636616D02*
G01*
X112240125Y-117669553D01*
X112258491Y-117703413D01*
X112266992Y-117751618D01*
X112268457Y-118313866D01*
X112268699Y-118364879D01*
X112269214Y-118415750D01*
X112269923Y-118470181D01*
X112270513Y-118524612D01*
X112270942Y-118575483D01*
X112271144Y-118626496D01*
X112268473Y-118650162D01*
X112243789Y-118693663D01*
X112223198Y-118709376D01*
X112174912Y-118721263D01*
X112148318Y-118717770D01*
X112106524Y-118691709D01*
X112089706Y-118667689D01*
X112078925Y-118619413D01*
X112079524Y-118590590D01*
X112081062Y-118539181D01*
X112082836Y-118484695D01*
X112084722Y-118428862D01*
X112086496Y-118377369D01*
X112055486Y-118388231D01*
X112009575Y-118406445D01*
X111964390Y-118426965D01*
X111919931Y-118449791D01*
X111876197Y-118474922D01*
X111833188Y-118502358D01*
X111790905Y-118532100D01*
X111749348Y-118564148D01*
X111708516Y-118598501D01*
X111668410Y-118635160D01*
X111629030Y-118674124D01*
X111609046Y-118690739D01*
X111560886Y-118705631D01*
X111534814Y-118702139D01*
X111492254Y-118676078D01*
X111475845Y-118654403D01*
X111463433Y-118605491D01*
X111465326Y-118585837D01*
X111487369Y-118540523D01*
X111511793Y-118512443D01*
X111546273Y-118477535D01*
X111585142Y-118442843D01*
X111628400Y-118408365D01*
X111676046Y-118374102D01*
X111717323Y-118346846D01*
X111761409Y-118319727D01*
X111753791Y-118316776D01*
X111703814Y-118294952D01*
X111659704Y-118271095D01*
X111616477Y-118241339D01*
X111577006Y-118204689D01*
X111566006Y-118191686D01*
X111539499Y-118150513D01*
X111521467Y-118100958D01*
X111516060Y-118052770D01*
X111708653Y-118052770D01*
X111709368Y-118057948D01*
X111737962Y-118098688D01*
X111760585Y-118119719D01*
X111801953Y-118147292D01*
X111847947Y-118166099D01*
X111897133Y-118178147D01*
X111945934Y-118185199D01*
X112000866Y-118189229D01*
X112051325Y-118190279D01*
X112081612Y-118189790D01*
X112081612Y-117814633D01*
X112052138Y-117816572D01*
X112001256Y-117820251D01*
X111994869Y-117820979D01*
X111944444Y-117830913D01*
X111895210Y-117848144D01*
X111847167Y-117872671D01*
X111806106Y-117900118D01*
X111778031Y-117923229D01*
X111743009Y-117960778D01*
X111718170Y-118003859D01*
X111708653Y-118052770D01*
X111516060Y-118052770D01*
X111515457Y-118047397D01*
X111518035Y-118007527D01*
X111529493Y-117956278D01*
X111550118Y-117907212D01*
X111579910Y-117860329D01*
X111618869Y-117815629D01*
X111666994Y-117773111D01*
X111709104Y-117742656D01*
X111756370Y-117713428D01*
X111808792Y-117685429D01*
X111821683Y-117679261D01*
X111868280Y-117661553D01*
X111920458Y-117648234D01*
X111972191Y-117640000D01*
X111984449Y-117638916D01*
X112034553Y-117635082D01*
X112086484Y-117631231D01*
X112143405Y-117627055D01*
X112151024Y-117626648D01*
X112201478Y-117636616D01*
G37*
G36*
X110746092Y-118690000D02*
G01*
X110797096Y-118690000D01*
X110799337Y-118690000D01*
X110849053Y-118690000D01*
X110851116Y-118690000D01*
X111053105Y-118690000D01*
X111104552Y-118690000D01*
X111132240Y-118690000D01*
X111183399Y-118690000D01*
X111211863Y-118690000D01*
X111233845Y-118687313D01*
X111255826Y-118684626D01*
X111305010Y-118673571D01*
X111338189Y-118637408D01*
X111339602Y-118634312D01*
X111351022Y-118584756D01*
X111353279Y-118536859D01*
X111350556Y-118482663D01*
X111342387Y-118432487D01*
X111326381Y-118380067D01*
X111303262Y-118332897D01*
X111296371Y-118321926D01*
X111263598Y-118280275D01*
X111225048Y-118242831D01*
X111183581Y-118209580D01*
X111154221Y-118188813D01*
X111107861Y-118158222D01*
X111061592Y-118127752D01*
X111015415Y-118097405D01*
X110969330Y-118067180D01*
X110927075Y-118032195D01*
X110891491Y-117989750D01*
X110869464Y-117944680D01*
X110860886Y-117890837D01*
X110889425Y-117849485D01*
X110904117Y-117840034D01*
X110949498Y-117820214D01*
X110988625Y-117814633D01*
X111039674Y-117822021D01*
X111087836Y-117841561D01*
X111132609Y-117869588D01*
X111142742Y-117877159D01*
X111184454Y-117907384D01*
X111227507Y-117932297D01*
X111254361Y-117939685D01*
X111303866Y-117929519D01*
X111318108Y-117921612D01*
X111349183Y-117882518D01*
X111352547Y-117859330D01*
X111339094Y-117810576D01*
X111318108Y-117785812D01*
X111277915Y-117750962D01*
X111235873Y-117717777D01*
X111193102Y-117688382D01*
X111173272Y-117676636D01*
X111128210Y-117654944D01*
X111076638Y-117637949D01*
X111024139Y-117628798D01*
X110988625Y-117627055D01*
X110937708Y-117630058D01*
X110889035Y-117639069D01*
X110836156Y-117656723D01*
X110792292Y-117678607D01*
X110774180Y-117689825D01*
X110731639Y-117723238D01*
X110699547Y-117760858D01*
X110675665Y-117809004D01*
X110665429Y-117862646D01*
X110665003Y-117876915D01*
X110667563Y-117926428D01*
X110676756Y-117978921D01*
X110692636Y-118027048D01*
X110715201Y-118070810D01*
X110718492Y-118075973D01*
X110749495Y-118116526D01*
X110785514Y-118152412D01*
X110823986Y-118183824D01*
X110851116Y-118203224D01*
X110894088Y-118230411D01*
X110937028Y-118257506D01*
X110979939Y-118284511D01*
X111022819Y-118311423D01*
X111067561Y-118343663D01*
X111103785Y-118377552D01*
X111135281Y-118419172D01*
X111157080Y-118469486D01*
X111163014Y-118502421D01*
X111112726Y-118497734D01*
X111060690Y-118493777D01*
X111051639Y-118493140D01*
X110999704Y-118490982D01*
X110946515Y-118489028D01*
X110895487Y-118487540D01*
X110846343Y-118486796D01*
X110842323Y-118486789D01*
X110790839Y-118491792D01*
X110743450Y-118505395D01*
X110725331Y-118512923D01*
X110681871Y-118539863D01*
X110655126Y-118583796D01*
X110654012Y-118596210D01*
X110667134Y-118644207D01*
X110679413Y-118660446D01*
X110722474Y-118687113D01*
X110746092Y-118690000D01*
G37*
G36*
X110010550Y-117627331D02*
G01*
X110059842Y-117637015D01*
X110102789Y-117660533D01*
X110139392Y-117697885D01*
X110167271Y-117735970D01*
X110207390Y-117790857D01*
X110245470Y-117843057D01*
X110281510Y-117892569D01*
X110315512Y-117939394D01*
X110347473Y-117983530D01*
X110377396Y-118024980D01*
X110414120Y-118076065D01*
X110447219Y-118122371D01*
X110476692Y-118163900D01*
X110506756Y-118197628D01*
X110540439Y-118235464D01*
X110565425Y-118271717D01*
X110579030Y-118319483D01*
X110561584Y-118362577D01*
X110516784Y-118389043D01*
X110465092Y-118401580D01*
X110410170Y-118407239D01*
X110358478Y-118408632D01*
X110084438Y-118408632D01*
X110084438Y-118570321D01*
X110083293Y-118609302D01*
X110070348Y-118657929D01*
X110034933Y-118694928D01*
X109984787Y-118705631D01*
X109965232Y-118704120D01*
X109919574Y-118681451D01*
X109909056Y-118668430D01*
X109894905Y-118619658D01*
X109893852Y-118563879D01*
X109893379Y-118510115D01*
X109893486Y-118458366D01*
X109894173Y-118408632D01*
X109842988Y-118407784D01*
X109792568Y-118396664D01*
X109753122Y-118365279D01*
X109740300Y-118315575D01*
X109744282Y-118281341D01*
X109774005Y-118240348D01*
X109792873Y-118233006D01*
X109843817Y-118224197D01*
X109894173Y-118221053D01*
X110084438Y-118221053D01*
X110289846Y-118221053D01*
X110272786Y-118196938D01*
X110240355Y-118150929D01*
X110210176Y-118107881D01*
X110175618Y-118058236D01*
X110144579Y-118013218D01*
X110111975Y-117965304D01*
X110084438Y-117924054D01*
X110084438Y-118221053D01*
X109894173Y-118221053D01*
X109894905Y-117715226D01*
X109899032Y-117687478D01*
X109929832Y-117647327D01*
X109951449Y-117635785D01*
X109999930Y-117627055D01*
X110010550Y-117627331D01*
G37*
G36*
X109344626Y-118736894D02*
G01*
X109395471Y-118734490D01*
X109454164Y-118724723D01*
X109507455Y-118707442D01*
X109555344Y-118682648D01*
X109597830Y-118650341D01*
X109634913Y-118610520D01*
X109654570Y-118583021D01*
X109671517Y-118536172D01*
X109671667Y-118531486D01*
X109657699Y-118484627D01*
X109642114Y-118466762D01*
X109597553Y-118442519D01*
X109574703Y-118439895D01*
X109527056Y-118453286D01*
X109508757Y-118468227D01*
X109473484Y-118504391D01*
X109456734Y-118520983D01*
X109411908Y-118541320D01*
X109362032Y-118548873D01*
X109344626Y-118549316D01*
X109293931Y-118544568D01*
X109242116Y-118527878D01*
X109195828Y-118499170D01*
X109168039Y-118473356D01*
X109135216Y-118429686D01*
X109113135Y-118381110D01*
X109101797Y-118327625D01*
X109100139Y-118295792D01*
X109102825Y-118243443D01*
X109112108Y-118194613D01*
X109132000Y-118148990D01*
X109134089Y-118145826D01*
X109170480Y-118111766D01*
X109220242Y-118096779D01*
X109236915Y-118096001D01*
X109287542Y-118099612D01*
X109339848Y-118112584D01*
X109386231Y-118134989D01*
X109426691Y-118166829D01*
X109431332Y-118171472D01*
X109465815Y-118208919D01*
X109489706Y-118234242D01*
X109532940Y-118261496D01*
X109568597Y-118267948D01*
X109616894Y-118255134D01*
X109635031Y-118240837D01*
X109659997Y-118196944D01*
X109662142Y-118177090D01*
X109658009Y-118126691D01*
X109652513Y-118075056D01*
X109650418Y-118056189D01*
X109645094Y-118007451D01*
X109639438Y-117952508D01*
X109634114Y-117895343D01*
X109629922Y-117840741D01*
X109627726Y-117789670D01*
X109627704Y-117785324D01*
X109639916Y-117739651D01*
X109651884Y-117693733D01*
X109630566Y-117649679D01*
X109616957Y-117640976D01*
X109568019Y-117627721D01*
X109552233Y-117627055D01*
X109510711Y-117627055D01*
X109469190Y-117627055D01*
X109138729Y-117627055D01*
X109088235Y-117619720D01*
X109085729Y-117619239D01*
X109036959Y-117611614D01*
X109032240Y-117611423D01*
X108983971Y-117626123D01*
X108971179Y-117637557D01*
X108948911Y-117682344D01*
X108946999Y-117703991D01*
X108960005Y-117752931D01*
X108999023Y-117787889D01*
X109045356Y-117804930D01*
X109095144Y-117813123D01*
X109155094Y-117815854D01*
X109196859Y-117815366D01*
X109230076Y-117814633D01*
X109434752Y-117814633D01*
X109439482Y-117865581D01*
X109446634Y-117918223D01*
X109451849Y-117952386D01*
X109404710Y-117933152D01*
X109353175Y-117919413D01*
X109304475Y-117911900D01*
X109252409Y-117908594D01*
X109236915Y-117908422D01*
X109186740Y-117911493D01*
X109131694Y-117923286D01*
X109082281Y-117943922D01*
X109038500Y-117973403D01*
X109000353Y-118011728D01*
X108983391Y-118034207D01*
X108955316Y-118082074D01*
X108934137Y-118135060D01*
X108921472Y-118184550D01*
X108913872Y-118237802D01*
X108911339Y-118294815D01*
X108914154Y-118352299D01*
X108922597Y-118406599D01*
X108936670Y-118457714D01*
X108956372Y-118505646D01*
X108981702Y-118550393D01*
X109012662Y-118591956D01*
X109026622Y-118607690D01*
X109066135Y-118644912D01*
X109109416Y-118675825D01*
X109156467Y-118700429D01*
X109207285Y-118718725D01*
X109261873Y-118730711D01*
X109320229Y-118736389D01*
X109344626Y-118736894D01*
G37*
G36*
X108486509Y-117629833D02*
G01*
X108545729Y-117641120D01*
X108600655Y-117661088D01*
X108651287Y-117689739D01*
X108697627Y-117727072D01*
X108731607Y-117763189D01*
X108762840Y-117804863D01*
X108774907Y-117823583D01*
X108801669Y-117872028D01*
X108823565Y-117922821D01*
X108840595Y-117975964D01*
X108852759Y-118031457D01*
X108860058Y-118089299D01*
X108862491Y-118149490D01*
X108861312Y-118205632D01*
X108857774Y-118259140D01*
X108851878Y-118310015D01*
X108841191Y-118369906D01*
X108826819Y-118425682D01*
X108808762Y-118477344D01*
X108787020Y-118524891D01*
X108773739Y-118548671D01*
X108744247Y-118591627D01*
X108710846Y-118628446D01*
X108663601Y-118665841D01*
X108610249Y-118693648D01*
X108563171Y-118708989D01*
X108512185Y-118718194D01*
X108457292Y-118721263D01*
X108431597Y-118720664D01*
X108370932Y-118713935D01*
X108315372Y-118699727D01*
X108264915Y-118678042D01*
X108219563Y-118648880D01*
X108179316Y-118612240D01*
X108144173Y-118568122D01*
X108125491Y-118538065D01*
X108103440Y-118493807D01*
X108084656Y-118444772D01*
X108069139Y-118390958D01*
X108056889Y-118332366D01*
X108047906Y-118268997D01*
X108043312Y-118218334D01*
X108040555Y-118164984D01*
X108040041Y-118133614D01*
X108231856Y-118133614D01*
X108232352Y-118170243D01*
X108235382Y-118227388D01*
X108241167Y-118279656D01*
X108251746Y-118335939D01*
X108266292Y-118385198D01*
X108288276Y-118433789D01*
X108319890Y-118477493D01*
X108358557Y-118508710D01*
X108404276Y-118527441D01*
X108457048Y-118533684D01*
X108497128Y-118530208D01*
X108546349Y-118513660D01*
X108587529Y-118483485D01*
X108620667Y-118439682D01*
X108642672Y-118391290D01*
X108656457Y-118342411D01*
X108665287Y-118291979D01*
X108670457Y-118243058D01*
X108673410Y-118188881D01*
X108674180Y-118139720D01*
X108673949Y-118124360D01*
X108669504Y-118072461D01*
X108659403Y-118023461D01*
X108640932Y-117971010D01*
X108615073Y-117922344D01*
X108610832Y-117915717D01*
X108578726Y-117875221D01*
X108536854Y-117841561D01*
X108489456Y-117821365D01*
X108436531Y-117814633D01*
X108411748Y-117815877D01*
X108361847Y-117827774D01*
X108315918Y-117855767D01*
X108283147Y-117894256D01*
X108268371Y-117921094D01*
X108249938Y-117972172D01*
X108239069Y-118025079D01*
X108233659Y-118076530D01*
X108231856Y-118133614D01*
X108040041Y-118133614D01*
X108039637Y-118108946D01*
X108039993Y-118085472D01*
X108044008Y-118028690D01*
X108052482Y-117974627D01*
X108065417Y-117923284D01*
X108082812Y-117874660D01*
X108104668Y-117828754D01*
X108130983Y-117785568D01*
X108144883Y-117766373D01*
X108182647Y-117723804D01*
X108224715Y-117688974D01*
X108271089Y-117661884D01*
X108321769Y-117642534D01*
X108376753Y-117630925D01*
X108436043Y-117627055D01*
X108486509Y-117629833D01*
G37*
D12*
X153292988Y-79146309D02*
X153364417Y-79110595D01*
X153364417Y-79110595D02*
X153471559Y-79110595D01*
X153471559Y-79110595D02*
X153578702Y-79146309D01*
X153578702Y-79146309D02*
X153650131Y-79217738D01*
X153650131Y-79217738D02*
X153685845Y-79289166D01*
X153685845Y-79289166D02*
X153721559Y-79432023D01*
X153721559Y-79432023D02*
X153721559Y-79539166D01*
X153721559Y-79539166D02*
X153685845Y-79682023D01*
X153685845Y-79682023D02*
X153650131Y-79753452D01*
X153650131Y-79753452D02*
X153578702Y-79824881D01*
X153578702Y-79824881D02*
X153471559Y-79860595D01*
X153471559Y-79860595D02*
X153400131Y-79860595D01*
X153400131Y-79860595D02*
X153292988Y-79824881D01*
X153292988Y-79824881D02*
X153257274Y-79789166D01*
X153257274Y-79789166D02*
X153257274Y-79539166D01*
X153257274Y-79539166D02*
X153400131Y-79539166D01*
X152935845Y-79860595D02*
X152935845Y-79110595D01*
X152935845Y-79110595D02*
X152507274Y-79860595D01*
X152507274Y-79860595D02*
X152507274Y-79110595D01*
X152150131Y-79860595D02*
X152150131Y-79110595D01*
X152150131Y-79110595D02*
X151971560Y-79110595D01*
X151971560Y-79110595D02*
X151864417Y-79146309D01*
X151864417Y-79146309D02*
X151792988Y-79217738D01*
X151792988Y-79217738D02*
X151757274Y-79289166D01*
X151757274Y-79289166D02*
X151721560Y-79432023D01*
X151721560Y-79432023D02*
X151721560Y-79539166D01*
X151721560Y-79539166D02*
X151757274Y-79682023D01*
X151757274Y-79682023D02*
X151792988Y-79753452D01*
X151792988Y-79753452D02*
X151864417Y-79824881D01*
X151864417Y-79824881D02*
X151971560Y-79860595D01*
X151971560Y-79860595D02*
X152150131Y-79860595D01*
X156154416Y-79824881D02*
X156047274Y-79860595D01*
X156047274Y-79860595D02*
X155868702Y-79860595D01*
X155868702Y-79860595D02*
X155797274Y-79824881D01*
X155797274Y-79824881D02*
X155761559Y-79789166D01*
X155761559Y-79789166D02*
X155725845Y-79717738D01*
X155725845Y-79717738D02*
X155725845Y-79646309D01*
X155725845Y-79646309D02*
X155761559Y-79574881D01*
X155761559Y-79574881D02*
X155797274Y-79539166D01*
X155797274Y-79539166D02*
X155868702Y-79503452D01*
X155868702Y-79503452D02*
X156011559Y-79467738D01*
X156011559Y-79467738D02*
X156082988Y-79432023D01*
X156082988Y-79432023D02*
X156118702Y-79396309D01*
X156118702Y-79396309D02*
X156154416Y-79324881D01*
X156154416Y-79324881D02*
X156154416Y-79253452D01*
X156154416Y-79253452D02*
X156118702Y-79182023D01*
X156118702Y-79182023D02*
X156082988Y-79146309D01*
X156082988Y-79146309D02*
X156011559Y-79110595D01*
X156011559Y-79110595D02*
X155832988Y-79110595D01*
X155832988Y-79110595D02*
X155725845Y-79146309D01*
X154975845Y-79789166D02*
X155011559Y-79824881D01*
X155011559Y-79824881D02*
X155118702Y-79860595D01*
X155118702Y-79860595D02*
X155190130Y-79860595D01*
X155190130Y-79860595D02*
X155297273Y-79824881D01*
X155297273Y-79824881D02*
X155368702Y-79753452D01*
X155368702Y-79753452D02*
X155404416Y-79682023D01*
X155404416Y-79682023D02*
X155440130Y-79539166D01*
X155440130Y-79539166D02*
X155440130Y-79432023D01*
X155440130Y-79432023D02*
X155404416Y-79289166D01*
X155404416Y-79289166D02*
X155368702Y-79217738D01*
X155368702Y-79217738D02*
X155297273Y-79146309D01*
X155297273Y-79146309D02*
X155190130Y-79110595D01*
X155190130Y-79110595D02*
X155118702Y-79110595D01*
X155118702Y-79110595D02*
X155011559Y-79146309D01*
X155011559Y-79146309D02*
X154975845Y-79182023D01*
X154297273Y-79860595D02*
X154654416Y-79860595D01*
X154654416Y-79860595D02*
X154654416Y-79110595D01*
X159336559Y-74018595D02*
X159336559Y-73268595D01*
X159336559Y-73268595D02*
X159050845Y-73268595D01*
X159050845Y-73268595D02*
X158979416Y-73304309D01*
X158979416Y-73304309D02*
X158943702Y-73340023D01*
X158943702Y-73340023D02*
X158907988Y-73411452D01*
X158907988Y-73411452D02*
X158907988Y-73518595D01*
X158907988Y-73518595D02*
X158943702Y-73590023D01*
X158943702Y-73590023D02*
X158979416Y-73625738D01*
X158979416Y-73625738D02*
X159050845Y-73661452D01*
X159050845Y-73661452D02*
X159336559Y-73661452D01*
X158622273Y-73804309D02*
X158265131Y-73804309D01*
X158693702Y-74018595D02*
X158443702Y-73268595D01*
X158443702Y-73268595D02*
X158193702Y-74018595D01*
X157550845Y-74018595D02*
X157979416Y-74018595D01*
X157765131Y-74018595D02*
X157765131Y-73268595D01*
X157765131Y-73268595D02*
X157836559Y-73375738D01*
X157836559Y-73375738D02*
X157907988Y-73447166D01*
X157907988Y-73447166D02*
X157979416Y-73482881D01*
X159336559Y-79860595D02*
X159336559Y-79110595D01*
X159336559Y-79110595D02*
X159050845Y-79110595D01*
X159050845Y-79110595D02*
X158979416Y-79146309D01*
X158979416Y-79146309D02*
X158943702Y-79182023D01*
X158943702Y-79182023D02*
X158907988Y-79253452D01*
X158907988Y-79253452D02*
X158907988Y-79360595D01*
X158907988Y-79360595D02*
X158943702Y-79432023D01*
X158943702Y-79432023D02*
X158979416Y-79467738D01*
X158979416Y-79467738D02*
X159050845Y-79503452D01*
X159050845Y-79503452D02*
X159336559Y-79503452D01*
X158622273Y-79646309D02*
X158265131Y-79646309D01*
X158693702Y-79860595D02*
X158443702Y-79110595D01*
X158443702Y-79110595D02*
X158193702Y-79860595D01*
X157979416Y-79182023D02*
X157943702Y-79146309D01*
X157943702Y-79146309D02*
X157872274Y-79110595D01*
X157872274Y-79110595D02*
X157693702Y-79110595D01*
X157693702Y-79110595D02*
X157622274Y-79146309D01*
X157622274Y-79146309D02*
X157586559Y-79182023D01*
X157586559Y-79182023D02*
X157550845Y-79253452D01*
X157550845Y-79253452D02*
X157550845Y-79324881D01*
X157550845Y-79324881D02*
X157586559Y-79432023D01*
X157586559Y-79432023D02*
X158015131Y-79860595D01*
X158015131Y-79860595D02*
X157550845Y-79860595D01*
X153721559Y-73268595D02*
X153471559Y-74018595D01*
X153471559Y-74018595D02*
X153221559Y-73268595D01*
X152542988Y-73947166D02*
X152578702Y-73982881D01*
X152578702Y-73982881D02*
X152685845Y-74018595D01*
X152685845Y-74018595D02*
X152757273Y-74018595D01*
X152757273Y-74018595D02*
X152864416Y-73982881D01*
X152864416Y-73982881D02*
X152935845Y-73911452D01*
X152935845Y-73911452D02*
X152971559Y-73840023D01*
X152971559Y-73840023D02*
X153007273Y-73697166D01*
X153007273Y-73697166D02*
X153007273Y-73590023D01*
X153007273Y-73590023D02*
X152971559Y-73447166D01*
X152971559Y-73447166D02*
X152935845Y-73375738D01*
X152935845Y-73375738D02*
X152864416Y-73304309D01*
X152864416Y-73304309D02*
X152757273Y-73268595D01*
X152757273Y-73268595D02*
X152685845Y-73268595D01*
X152685845Y-73268595D02*
X152578702Y-73304309D01*
X152578702Y-73304309D02*
X152542988Y-73340023D01*
X151792988Y-73947166D02*
X151828702Y-73982881D01*
X151828702Y-73982881D02*
X151935845Y-74018595D01*
X151935845Y-74018595D02*
X152007273Y-74018595D01*
X152007273Y-74018595D02*
X152114416Y-73982881D01*
X152114416Y-73982881D02*
X152185845Y-73911452D01*
X152185845Y-73911452D02*
X152221559Y-73840023D01*
X152221559Y-73840023D02*
X152257273Y-73697166D01*
X152257273Y-73697166D02*
X152257273Y-73590023D01*
X152257273Y-73590023D02*
X152221559Y-73447166D01*
X152221559Y-73447166D02*
X152185845Y-73375738D01*
X152185845Y-73375738D02*
X152114416Y-73304309D01*
X152114416Y-73304309D02*
X152007273Y-73268595D01*
X152007273Y-73268595D02*
X151935845Y-73268595D01*
X151935845Y-73268595D02*
X151828702Y-73304309D01*
X151828702Y-73304309D02*
X151792988Y-73340023D01*
X156172273Y-73982881D02*
X156065131Y-74018595D01*
X156065131Y-74018595D02*
X155886559Y-74018595D01*
X155886559Y-74018595D02*
X155815131Y-73982881D01*
X155815131Y-73982881D02*
X155779416Y-73947166D01*
X155779416Y-73947166D02*
X155743702Y-73875738D01*
X155743702Y-73875738D02*
X155743702Y-73804309D01*
X155743702Y-73804309D02*
X155779416Y-73732881D01*
X155779416Y-73732881D02*
X155815131Y-73697166D01*
X155815131Y-73697166D02*
X155886559Y-73661452D01*
X155886559Y-73661452D02*
X156029416Y-73625738D01*
X156029416Y-73625738D02*
X156100845Y-73590023D01*
X156100845Y-73590023D02*
X156136559Y-73554309D01*
X156136559Y-73554309D02*
X156172273Y-73482881D01*
X156172273Y-73482881D02*
X156172273Y-73411452D01*
X156172273Y-73411452D02*
X156136559Y-73340023D01*
X156136559Y-73340023D02*
X156100845Y-73304309D01*
X156100845Y-73304309D02*
X156029416Y-73268595D01*
X156029416Y-73268595D02*
X155850845Y-73268595D01*
X155850845Y-73268595D02*
X155743702Y-73304309D01*
X155422273Y-74018595D02*
X155422273Y-73268595D01*
X155422273Y-73268595D02*
X155243702Y-73268595D01*
X155243702Y-73268595D02*
X155136559Y-73304309D01*
X155136559Y-73304309D02*
X155065130Y-73375738D01*
X155065130Y-73375738D02*
X155029416Y-73447166D01*
X155029416Y-73447166D02*
X154993702Y-73590023D01*
X154993702Y-73590023D02*
X154993702Y-73697166D01*
X154993702Y-73697166D02*
X155029416Y-73840023D01*
X155029416Y-73840023D02*
X155065130Y-73911452D01*
X155065130Y-73911452D02*
X155136559Y-73982881D01*
X155136559Y-73982881D02*
X155243702Y-74018595D01*
X155243702Y-74018595D02*
X155422273Y-74018595D01*
X154707987Y-73804309D02*
X154350845Y-73804309D01*
X154779416Y-74018595D02*
X154529416Y-73268595D01*
X154529416Y-73268595D02*
X154279416Y-74018595D01*
X61652273Y-69582881D02*
X61545131Y-69618595D01*
X61545131Y-69618595D02*
X61366559Y-69618595D01*
X61366559Y-69618595D02*
X61295131Y-69582881D01*
X61295131Y-69582881D02*
X61259416Y-69547166D01*
X61259416Y-69547166D02*
X61223702Y-69475738D01*
X61223702Y-69475738D02*
X61223702Y-69404309D01*
X61223702Y-69404309D02*
X61259416Y-69332881D01*
X61259416Y-69332881D02*
X61295131Y-69297166D01*
X61295131Y-69297166D02*
X61366559Y-69261452D01*
X61366559Y-69261452D02*
X61509416Y-69225738D01*
X61509416Y-69225738D02*
X61580845Y-69190023D01*
X61580845Y-69190023D02*
X61616559Y-69154309D01*
X61616559Y-69154309D02*
X61652273Y-69082881D01*
X61652273Y-69082881D02*
X61652273Y-69011452D01*
X61652273Y-69011452D02*
X61616559Y-68940023D01*
X61616559Y-68940023D02*
X61580845Y-68904309D01*
X61580845Y-68904309D02*
X61509416Y-68868595D01*
X61509416Y-68868595D02*
X61330845Y-68868595D01*
X61330845Y-68868595D02*
X61223702Y-68904309D01*
X60902273Y-69618595D02*
X60902273Y-68868595D01*
X60902273Y-68868595D02*
X60723702Y-68868595D01*
X60723702Y-68868595D02*
X60616559Y-68904309D01*
X60616559Y-68904309D02*
X60545130Y-68975738D01*
X60545130Y-68975738D02*
X60509416Y-69047166D01*
X60509416Y-69047166D02*
X60473702Y-69190023D01*
X60473702Y-69190023D02*
X60473702Y-69297166D01*
X60473702Y-69297166D02*
X60509416Y-69440023D01*
X60509416Y-69440023D02*
X60545130Y-69511452D01*
X60545130Y-69511452D02*
X60616559Y-69582881D01*
X60616559Y-69582881D02*
X60723702Y-69618595D01*
X60723702Y-69618595D02*
X60902273Y-69618595D01*
X60187987Y-69404309D02*
X59830845Y-69404309D01*
X60259416Y-69618595D02*
X60009416Y-68868595D01*
X60009416Y-68868595D02*
X59759416Y-69618595D01*
X58772988Y-74746309D02*
X58844417Y-74710595D01*
X58844417Y-74710595D02*
X58951559Y-74710595D01*
X58951559Y-74710595D02*
X59058702Y-74746309D01*
X59058702Y-74746309D02*
X59130131Y-74817738D01*
X59130131Y-74817738D02*
X59165845Y-74889166D01*
X59165845Y-74889166D02*
X59201559Y-75032023D01*
X59201559Y-75032023D02*
X59201559Y-75139166D01*
X59201559Y-75139166D02*
X59165845Y-75282023D01*
X59165845Y-75282023D02*
X59130131Y-75353452D01*
X59130131Y-75353452D02*
X59058702Y-75424881D01*
X59058702Y-75424881D02*
X58951559Y-75460595D01*
X58951559Y-75460595D02*
X58880131Y-75460595D01*
X58880131Y-75460595D02*
X58772988Y-75424881D01*
X58772988Y-75424881D02*
X58737274Y-75389166D01*
X58737274Y-75389166D02*
X58737274Y-75139166D01*
X58737274Y-75139166D02*
X58880131Y-75139166D01*
X58415845Y-75460595D02*
X58415845Y-74710595D01*
X58415845Y-74710595D02*
X57987274Y-75460595D01*
X57987274Y-75460595D02*
X57987274Y-74710595D01*
X57630131Y-75460595D02*
X57630131Y-74710595D01*
X57630131Y-74710595D02*
X57451560Y-74710595D01*
X57451560Y-74710595D02*
X57344417Y-74746309D01*
X57344417Y-74746309D02*
X57272988Y-74817738D01*
X57272988Y-74817738D02*
X57237274Y-74889166D01*
X57237274Y-74889166D02*
X57201560Y-75032023D01*
X57201560Y-75032023D02*
X57201560Y-75139166D01*
X57201560Y-75139166D02*
X57237274Y-75282023D01*
X57237274Y-75282023D02*
X57272988Y-75353452D01*
X57272988Y-75353452D02*
X57344417Y-75424881D01*
X57344417Y-75424881D02*
X57451560Y-75460595D01*
X57451560Y-75460595D02*
X57630131Y-75460595D01*
X61634416Y-75424881D02*
X61527274Y-75460595D01*
X61527274Y-75460595D02*
X61348702Y-75460595D01*
X61348702Y-75460595D02*
X61277274Y-75424881D01*
X61277274Y-75424881D02*
X61241559Y-75389166D01*
X61241559Y-75389166D02*
X61205845Y-75317738D01*
X61205845Y-75317738D02*
X61205845Y-75246309D01*
X61205845Y-75246309D02*
X61241559Y-75174881D01*
X61241559Y-75174881D02*
X61277274Y-75139166D01*
X61277274Y-75139166D02*
X61348702Y-75103452D01*
X61348702Y-75103452D02*
X61491559Y-75067738D01*
X61491559Y-75067738D02*
X61562988Y-75032023D01*
X61562988Y-75032023D02*
X61598702Y-74996309D01*
X61598702Y-74996309D02*
X61634416Y-74924881D01*
X61634416Y-74924881D02*
X61634416Y-74853452D01*
X61634416Y-74853452D02*
X61598702Y-74782023D01*
X61598702Y-74782023D02*
X61562988Y-74746309D01*
X61562988Y-74746309D02*
X61491559Y-74710595D01*
X61491559Y-74710595D02*
X61312988Y-74710595D01*
X61312988Y-74710595D02*
X61205845Y-74746309D01*
X60455845Y-75389166D02*
X60491559Y-75424881D01*
X60491559Y-75424881D02*
X60598702Y-75460595D01*
X60598702Y-75460595D02*
X60670130Y-75460595D01*
X60670130Y-75460595D02*
X60777273Y-75424881D01*
X60777273Y-75424881D02*
X60848702Y-75353452D01*
X60848702Y-75353452D02*
X60884416Y-75282023D01*
X60884416Y-75282023D02*
X60920130Y-75139166D01*
X60920130Y-75139166D02*
X60920130Y-75032023D01*
X60920130Y-75032023D02*
X60884416Y-74889166D01*
X60884416Y-74889166D02*
X60848702Y-74817738D01*
X60848702Y-74817738D02*
X60777273Y-74746309D01*
X60777273Y-74746309D02*
X60670130Y-74710595D01*
X60670130Y-74710595D02*
X60598702Y-74710595D01*
X60598702Y-74710595D02*
X60491559Y-74746309D01*
X60491559Y-74746309D02*
X60455845Y-74782023D01*
X59777273Y-75460595D02*
X60134416Y-75460595D01*
X60134416Y-75460595D02*
X60134416Y-74710595D01*
X59201559Y-68868595D02*
X58951559Y-69618595D01*
X58951559Y-69618595D02*
X58701559Y-68868595D01*
X58022988Y-69547166D02*
X58058702Y-69582881D01*
X58058702Y-69582881D02*
X58165845Y-69618595D01*
X58165845Y-69618595D02*
X58237273Y-69618595D01*
X58237273Y-69618595D02*
X58344416Y-69582881D01*
X58344416Y-69582881D02*
X58415845Y-69511452D01*
X58415845Y-69511452D02*
X58451559Y-69440023D01*
X58451559Y-69440023D02*
X58487273Y-69297166D01*
X58487273Y-69297166D02*
X58487273Y-69190023D01*
X58487273Y-69190023D02*
X58451559Y-69047166D01*
X58451559Y-69047166D02*
X58415845Y-68975738D01*
X58415845Y-68975738D02*
X58344416Y-68904309D01*
X58344416Y-68904309D02*
X58237273Y-68868595D01*
X58237273Y-68868595D02*
X58165845Y-68868595D01*
X58165845Y-68868595D02*
X58058702Y-68904309D01*
X58058702Y-68904309D02*
X58022988Y-68940023D01*
X57272988Y-69547166D02*
X57308702Y-69582881D01*
X57308702Y-69582881D02*
X57415845Y-69618595D01*
X57415845Y-69618595D02*
X57487273Y-69618595D01*
X57487273Y-69618595D02*
X57594416Y-69582881D01*
X57594416Y-69582881D02*
X57665845Y-69511452D01*
X57665845Y-69511452D02*
X57701559Y-69440023D01*
X57701559Y-69440023D02*
X57737273Y-69297166D01*
X57737273Y-69297166D02*
X57737273Y-69190023D01*
X57737273Y-69190023D02*
X57701559Y-69047166D01*
X57701559Y-69047166D02*
X57665845Y-68975738D01*
X57665845Y-68975738D02*
X57594416Y-68904309D01*
X57594416Y-68904309D02*
X57487273Y-68868595D01*
X57487273Y-68868595D02*
X57415845Y-68868595D01*
X57415845Y-68868595D02*
X57308702Y-68904309D01*
X57308702Y-68904309D02*
X57272988Y-68940023D01*
X64995131Y-69618595D02*
X65245131Y-69261452D01*
X65423702Y-69618595D02*
X65423702Y-68868595D01*
X65423702Y-68868595D02*
X65137988Y-68868595D01*
X65137988Y-68868595D02*
X65066559Y-68904309D01*
X65066559Y-68904309D02*
X65030845Y-68940023D01*
X65030845Y-68940023D02*
X64995131Y-69011452D01*
X64995131Y-69011452D02*
X64995131Y-69118595D01*
X64995131Y-69118595D02*
X65030845Y-69190023D01*
X65030845Y-69190023D02*
X65066559Y-69225738D01*
X65066559Y-69225738D02*
X65137988Y-69261452D01*
X65137988Y-69261452D02*
X65423702Y-69261452D01*
X64530845Y-68868595D02*
X64387988Y-68868595D01*
X64387988Y-68868595D02*
X64316559Y-68904309D01*
X64316559Y-68904309D02*
X64245131Y-68975738D01*
X64245131Y-68975738D02*
X64209416Y-69118595D01*
X64209416Y-69118595D02*
X64209416Y-69368595D01*
X64209416Y-69368595D02*
X64245131Y-69511452D01*
X64245131Y-69511452D02*
X64316559Y-69582881D01*
X64316559Y-69582881D02*
X64387988Y-69618595D01*
X64387988Y-69618595D02*
X64530845Y-69618595D01*
X64530845Y-69618595D02*
X64602274Y-69582881D01*
X64602274Y-69582881D02*
X64673702Y-69511452D01*
X64673702Y-69511452D02*
X64709416Y-69368595D01*
X64709416Y-69368595D02*
X64709416Y-69118595D01*
X64709416Y-69118595D02*
X64673702Y-68975738D01*
X64673702Y-68975738D02*
X64602274Y-68904309D01*
X64602274Y-68904309D02*
X64530845Y-68868595D01*
X63995131Y-68868595D02*
X63566560Y-68868595D01*
X63780845Y-69618595D02*
X63780845Y-68868595D01*
X63495131Y-69690023D02*
X62923702Y-69690023D01*
X62780844Y-69404309D02*
X62423702Y-69404309D01*
X62852273Y-69618595D02*
X62602273Y-68868595D01*
X62602273Y-68868595D02*
X62352273Y-69618595D01*
X65048703Y-75460595D02*
X65298703Y-75103452D01*
X65477274Y-75460595D02*
X65477274Y-74710595D01*
X65477274Y-74710595D02*
X65191560Y-74710595D01*
X65191560Y-74710595D02*
X65120131Y-74746309D01*
X65120131Y-74746309D02*
X65084417Y-74782023D01*
X65084417Y-74782023D02*
X65048703Y-74853452D01*
X65048703Y-74853452D02*
X65048703Y-74960595D01*
X65048703Y-74960595D02*
X65084417Y-75032023D01*
X65084417Y-75032023D02*
X65120131Y-75067738D01*
X65120131Y-75067738D02*
X65191560Y-75103452D01*
X65191560Y-75103452D02*
X65477274Y-75103452D01*
X64584417Y-74710595D02*
X64441560Y-74710595D01*
X64441560Y-74710595D02*
X64370131Y-74746309D01*
X64370131Y-74746309D02*
X64298703Y-74817738D01*
X64298703Y-74817738D02*
X64262988Y-74960595D01*
X64262988Y-74960595D02*
X64262988Y-75210595D01*
X64262988Y-75210595D02*
X64298703Y-75353452D01*
X64298703Y-75353452D02*
X64370131Y-75424881D01*
X64370131Y-75424881D02*
X64441560Y-75460595D01*
X64441560Y-75460595D02*
X64584417Y-75460595D01*
X64584417Y-75460595D02*
X64655846Y-75424881D01*
X64655846Y-75424881D02*
X64727274Y-75353452D01*
X64727274Y-75353452D02*
X64762988Y-75210595D01*
X64762988Y-75210595D02*
X64762988Y-74960595D01*
X64762988Y-74960595D02*
X64727274Y-74817738D01*
X64727274Y-74817738D02*
X64655846Y-74746309D01*
X64655846Y-74746309D02*
X64584417Y-74710595D01*
X64048703Y-74710595D02*
X63620132Y-74710595D01*
X63834417Y-75460595D02*
X63834417Y-74710595D01*
X63548703Y-75532023D02*
X62977274Y-75532023D01*
X62548702Y-75067738D02*
X62441559Y-75103452D01*
X62441559Y-75103452D02*
X62405845Y-75139166D01*
X62405845Y-75139166D02*
X62370131Y-75210595D01*
X62370131Y-75210595D02*
X62370131Y-75317738D01*
X62370131Y-75317738D02*
X62405845Y-75389166D01*
X62405845Y-75389166D02*
X62441559Y-75424881D01*
X62441559Y-75424881D02*
X62512988Y-75460595D01*
X62512988Y-75460595D02*
X62798702Y-75460595D01*
X62798702Y-75460595D02*
X62798702Y-74710595D01*
X62798702Y-74710595D02*
X62548702Y-74710595D01*
X62548702Y-74710595D02*
X62477274Y-74746309D01*
X62477274Y-74746309D02*
X62441559Y-74782023D01*
X62441559Y-74782023D02*
X62405845Y-74853452D01*
X62405845Y-74853452D02*
X62405845Y-74924881D01*
X62405845Y-74924881D02*
X62441559Y-74996309D01*
X62441559Y-74996309D02*
X62477274Y-75032023D01*
X62477274Y-75032023D02*
X62548702Y-75067738D01*
X62548702Y-75067738D02*
X62798702Y-75067738D01*
D13*
%TO.C,Q1*%
X139155000Y-64840000D02*
X139155000Y-67125000D01*
X139155000Y-67125000D02*
X140625000Y-67125000D01*
X140625000Y-67125000D02*
X140625000Y-64840000D01*
%TO.C,R13*%
X113997919Y-65793431D02*
X114305201Y-65793431D01*
X113997919Y-66553431D02*
X114305201Y-66553431D01*
%TO.C,BT1*%
X96550000Y-129390000D02*
X105450000Y-123540000D01*
X96550000Y-132690000D02*
X96550000Y-129390000D01*
X96550000Y-143090000D02*
X96550000Y-138890000D01*
X105450000Y-122740000D02*
X113350000Y-122740000D01*
X105450000Y-123540000D02*
X105450000Y-122740000D01*
X113350000Y-123540000D02*
X113350000Y-122740000D01*
X122250000Y-129390000D02*
X113350000Y-123540000D01*
X122250000Y-132690000D02*
X122250000Y-129390000D01*
X122250000Y-143090000D02*
X122250000Y-138890000D01*
X99250000Y-145740000D02*
G75*
G02*
X96550000Y-143040000I0J2700000D01*
G01*
X99921751Y-145461751D02*
G75*
G02*
X99250000Y-145739999I-671751J671751D01*
G01*
X119550000Y-145740000D02*
G75*
G02*
X118878249Y-145461751I2J950003D01*
G01*
X122250000Y-143040000D02*
G75*
G02*
X119550000Y-145740000I-2700001J1D01*
G01*
%TO.C,C1*%
X112519396Y-63153431D02*
X112303724Y-63153431D01*
X112519396Y-63873431D02*
X112303724Y-63873431D01*
%TO.C,R3*%
X104911560Y-60889790D02*
X104911560Y-61197072D01*
X105671560Y-60889790D02*
X105671560Y-61197072D01*
%TO.C,R14*%
X106531560Y-62889790D02*
X106531560Y-63197072D01*
X107291560Y-62889790D02*
X107291560Y-63197072D01*
%TO.C,R10*%
X105177919Y-63583431D02*
X105485201Y-63583431D01*
X105177919Y-64343431D02*
X105485201Y-64343431D01*
%TO.C,R4*%
X113155201Y-54133431D02*
X112847919Y-54133431D01*
X113155201Y-54893431D02*
X112847919Y-54893431D01*
%TO.C,R11*%
X108561560Y-53417072D02*
X108561560Y-53109790D01*
X109321560Y-53417072D02*
X109321560Y-53109790D01*
%TO.C,C3*%
X107561560Y-53205595D02*
X107561560Y-53421267D01*
X108281560Y-53205595D02*
X108281560Y-53421267D01*
%TO.C,U2*%
X106811560Y-56723431D02*
X107261560Y-56723431D01*
X106811560Y-57173431D02*
X106811560Y-56723431D01*
X106811560Y-59493431D02*
X106811560Y-59943431D01*
X106811560Y-59943431D02*
X107261560Y-59943431D01*
X109731560Y-56723431D02*
X109581560Y-56723431D01*
X110031560Y-56963431D02*
X110031560Y-57173431D01*
X110031560Y-59493431D02*
X110031560Y-59943431D01*
X110031560Y-59943431D02*
X109581560Y-59943431D01*
X110031560Y-56723431D02*
X109791560Y-56393431D01*
X110271560Y-56393431D01*
X110031560Y-56723431D01*
G36*
X110031560Y-56723431D02*
G01*
X109791560Y-56393431D01*
X110271560Y-56393431D01*
X110031560Y-56723431D01*
G37*
%TO.C,D13*%
X114441560Y-62573431D02*
X114441560Y-64273431D01*
X117701560Y-62573431D02*
X114441560Y-62573431D01*
X117701560Y-64273431D02*
X114441560Y-64273431D01*
%TO.C,R8*%
X104771560Y-53199790D02*
X104771560Y-53507072D01*
X105531560Y-53199790D02*
X105531560Y-53507072D01*
%TO.C,R7*%
X113475201Y-55263431D02*
X113167919Y-55263431D01*
X113475201Y-56023431D02*
X113167919Y-56023431D01*
%TO.C,C4*%
X110323724Y-61753431D02*
X110539396Y-61753431D01*
X110323724Y-62473431D02*
X110539396Y-62473431D01*
%TO.C,R1*%
X110307919Y-63143431D02*
X110615201Y-63143431D01*
X110307919Y-63903431D02*
X110615201Y-63903431D01*
%TO.C,R2*%
X109641560Y-53889790D02*
X109641560Y-54197072D01*
X110401560Y-53889790D02*
X110401560Y-54197072D01*
%TO.C,R12*%
X102587919Y-54453431D02*
X102895201Y-54453431D01*
X102587919Y-55213431D02*
X102895201Y-55213431D01*
%TO.C,Q2*%
X88776560Y-67738431D02*
X88776560Y-70023431D01*
X90246560Y-67738431D02*
X88776560Y-67738431D01*
X90246560Y-70023431D02*
X90246560Y-67738431D01*
%TO.C,Q3*%
X141911560Y-68383431D02*
X141911560Y-71983431D01*
X141911560Y-71983431D02*
X145511560Y-71983431D01*
X145511560Y-68383431D02*
X141911560Y-68383431D01*
X145511560Y-71983431D02*
X145511560Y-68383431D01*
%TO.C,J1*%
X116001560Y-54003431D02*
X116001560Y-59143431D01*
X116001560Y-61743431D02*
X116001560Y-60413431D01*
X117331560Y-61743431D02*
X116001560Y-61743431D01*
X118661560Y-54003431D02*
X116001560Y-54003431D01*
X118661560Y-54003431D02*
X118661560Y-59143431D01*
X118661560Y-59143431D02*
X116001560Y-59143431D01*
%TO.C,C2*%
X103861560Y-53945595D02*
X103861560Y-54161267D01*
X104581560Y-53945595D02*
X104581560Y-54161267D01*
%TO.C,R5*%
X110791560Y-53949790D02*
X110791560Y-54257072D01*
X111551560Y-53949790D02*
X111551560Y-54257072D01*
%TO.C,R6*%
X102855201Y-55393431D02*
X102547919Y-55393431D01*
X102855201Y-56153431D02*
X102547919Y-56153431D01*
%TO.C,R9*%
X107541560Y-62889790D02*
X107541560Y-63197072D01*
X108301560Y-62889790D02*
X108301560Y-63197072D01*
%TD*%
M02*
