%TF.GenerationSoftware,KiCad,Pcbnew,8.0.8*%
%TF.CreationDate,2025-02-05T00:10:25-06:00*%
%TF.ProjectId,B-Sides 2025,422d5369-6465-4732-9032-3032352e6b69,rev?*%
%TF.SameCoordinates,Original*%
%TF.FileFunction,Legend,Bot*%
%TF.FilePolarity,Positive*%
%FSLAX46Y46*%
G04 Gerber Fmt 4.6, Leading zero omitted, Abs format (unit mm)*
G04 Created by KiCad (PCBNEW 8.0.8) date 2025-02-05 00:10:25*
%MOMM*%
%LPD*%
G01*
G04 APERTURE LIST*
%ADD10C,0.150000*%
%ADD11C,0.120000*%
G04 APERTURE END LIST*
D10*
X139380057Y-88794761D02*
X139332438Y-88699523D01*
X139332438Y-88699523D02*
X139237200Y-88604285D01*
X139237200Y-88604285D02*
X139094342Y-88461428D01*
X139094342Y-88461428D02*
X139046723Y-88366190D01*
X139046723Y-88366190D02*
X139046723Y-88270952D01*
X139284819Y-88318571D02*
X139237200Y-88223333D01*
X139237200Y-88223333D02*
X139141961Y-88128095D01*
X139141961Y-88128095D02*
X138951485Y-88080476D01*
X138951485Y-88080476D02*
X138618152Y-88080476D01*
X138618152Y-88080476D02*
X138427676Y-88128095D01*
X138427676Y-88128095D02*
X138332438Y-88223333D01*
X138332438Y-88223333D02*
X138284819Y-88318571D01*
X138284819Y-88318571D02*
X138284819Y-88509047D01*
X138284819Y-88509047D02*
X138332438Y-88604285D01*
X138332438Y-88604285D02*
X138427676Y-88699523D01*
X138427676Y-88699523D02*
X138618152Y-88747142D01*
X138618152Y-88747142D02*
X138951485Y-88747142D01*
X138951485Y-88747142D02*
X139141961Y-88699523D01*
X139141961Y-88699523D02*
X139237200Y-88604285D01*
X139237200Y-88604285D02*
X139284819Y-88509047D01*
X139284819Y-88509047D02*
X139284819Y-88318571D01*
X138380057Y-89128095D02*
X138332438Y-89175714D01*
X138332438Y-89175714D02*
X138284819Y-89270952D01*
X138284819Y-89270952D02*
X138284819Y-89509047D01*
X138284819Y-89509047D02*
X138332438Y-89604285D01*
X138332438Y-89604285D02*
X138380057Y-89651904D01*
X138380057Y-89651904D02*
X138475295Y-89699523D01*
X138475295Y-89699523D02*
X138570533Y-89699523D01*
X138570533Y-89699523D02*
X138713390Y-89651904D01*
X138713390Y-89651904D02*
X139284819Y-89080476D01*
X139284819Y-89080476D02*
X139284819Y-89699523D01*
X189160057Y-87144761D02*
X189112438Y-87049523D01*
X189112438Y-87049523D02*
X189017200Y-86954285D01*
X189017200Y-86954285D02*
X188874342Y-86811428D01*
X188874342Y-86811428D02*
X188826723Y-86716190D01*
X188826723Y-86716190D02*
X188826723Y-86620952D01*
X189064819Y-86668571D02*
X189017200Y-86573333D01*
X189017200Y-86573333D02*
X188921961Y-86478095D01*
X188921961Y-86478095D02*
X188731485Y-86430476D01*
X188731485Y-86430476D02*
X188398152Y-86430476D01*
X188398152Y-86430476D02*
X188207676Y-86478095D01*
X188207676Y-86478095D02*
X188112438Y-86573333D01*
X188112438Y-86573333D02*
X188064819Y-86668571D01*
X188064819Y-86668571D02*
X188064819Y-86859047D01*
X188064819Y-86859047D02*
X188112438Y-86954285D01*
X188112438Y-86954285D02*
X188207676Y-87049523D01*
X188207676Y-87049523D02*
X188398152Y-87097142D01*
X188398152Y-87097142D02*
X188731485Y-87097142D01*
X188731485Y-87097142D02*
X188921961Y-87049523D01*
X188921961Y-87049523D02*
X189017200Y-86954285D01*
X189017200Y-86954285D02*
X189064819Y-86859047D01*
X189064819Y-86859047D02*
X189064819Y-86668571D01*
X189064819Y-88049523D02*
X189064819Y-87478095D01*
X189064819Y-87763809D02*
X188064819Y-87763809D01*
X188064819Y-87763809D02*
X188207676Y-87668571D01*
X188207676Y-87668571D02*
X188302914Y-87573333D01*
X188302914Y-87573333D02*
X188350533Y-87478095D01*
X206343333Y-90094819D02*
X206343333Y-90809104D01*
X206343333Y-90809104D02*
X206390952Y-90951961D01*
X206390952Y-90951961D02*
X206486190Y-91047200D01*
X206486190Y-91047200D02*
X206629047Y-91094819D01*
X206629047Y-91094819D02*
X206724285Y-91094819D01*
X205914761Y-90190057D02*
X205867142Y-90142438D01*
X205867142Y-90142438D02*
X205771904Y-90094819D01*
X205771904Y-90094819D02*
X205533809Y-90094819D01*
X205533809Y-90094819D02*
X205438571Y-90142438D01*
X205438571Y-90142438D02*
X205390952Y-90190057D01*
X205390952Y-90190057D02*
X205343333Y-90285295D01*
X205343333Y-90285295D02*
X205343333Y-90380533D01*
X205343333Y-90380533D02*
X205390952Y-90523390D01*
X205390952Y-90523390D02*
X205962380Y-91094819D01*
X205962380Y-91094819D02*
X205343333Y-91094819D01*
X204041428Y-98812878D02*
X204112857Y-98777164D01*
X204112857Y-98777164D02*
X204219999Y-98777164D01*
X204219999Y-98777164D02*
X204327142Y-98812878D01*
X204327142Y-98812878D02*
X204398571Y-98884307D01*
X204398571Y-98884307D02*
X204434285Y-98955735D01*
X204434285Y-98955735D02*
X204469999Y-99098592D01*
X204469999Y-99098592D02*
X204469999Y-99205735D01*
X204469999Y-99205735D02*
X204434285Y-99348592D01*
X204434285Y-99348592D02*
X204398571Y-99420021D01*
X204398571Y-99420021D02*
X204327142Y-99491450D01*
X204327142Y-99491450D02*
X204219999Y-99527164D01*
X204219999Y-99527164D02*
X204148571Y-99527164D01*
X204148571Y-99527164D02*
X204041428Y-99491450D01*
X204041428Y-99491450D02*
X204005714Y-99455735D01*
X204005714Y-99455735D02*
X204005714Y-99205735D01*
X204005714Y-99205735D02*
X204148571Y-99205735D01*
X203684285Y-99527164D02*
X203684285Y-98777164D01*
X203684285Y-98777164D02*
X203255714Y-99527164D01*
X203255714Y-99527164D02*
X203255714Y-98777164D01*
X202898571Y-99527164D02*
X202898571Y-98777164D01*
X202898571Y-98777164D02*
X202720000Y-98777164D01*
X202720000Y-98777164D02*
X202612857Y-98812878D01*
X202612857Y-98812878D02*
X202541428Y-98884307D01*
X202541428Y-98884307D02*
X202505714Y-98955735D01*
X202505714Y-98955735D02*
X202470000Y-99098592D01*
X202470000Y-99098592D02*
X202470000Y-99205735D01*
X202470000Y-99205735D02*
X202505714Y-99348592D01*
X202505714Y-99348592D02*
X202541428Y-99420021D01*
X202541428Y-99420021D02*
X202612857Y-99491450D01*
X202612857Y-99491450D02*
X202720000Y-99527164D01*
X202720000Y-99527164D02*
X202898571Y-99527164D01*
X206902856Y-99491450D02*
X206795714Y-99527164D01*
X206795714Y-99527164D02*
X206617142Y-99527164D01*
X206617142Y-99527164D02*
X206545714Y-99491450D01*
X206545714Y-99491450D02*
X206509999Y-99455735D01*
X206509999Y-99455735D02*
X206474285Y-99384307D01*
X206474285Y-99384307D02*
X206474285Y-99312878D01*
X206474285Y-99312878D02*
X206509999Y-99241450D01*
X206509999Y-99241450D02*
X206545714Y-99205735D01*
X206545714Y-99205735D02*
X206617142Y-99170021D01*
X206617142Y-99170021D02*
X206759999Y-99134307D01*
X206759999Y-99134307D02*
X206831428Y-99098592D01*
X206831428Y-99098592D02*
X206867142Y-99062878D01*
X206867142Y-99062878D02*
X206902856Y-98991450D01*
X206902856Y-98991450D02*
X206902856Y-98920021D01*
X206902856Y-98920021D02*
X206867142Y-98848592D01*
X206867142Y-98848592D02*
X206831428Y-98812878D01*
X206831428Y-98812878D02*
X206759999Y-98777164D01*
X206759999Y-98777164D02*
X206581428Y-98777164D01*
X206581428Y-98777164D02*
X206474285Y-98812878D01*
X205724285Y-99455735D02*
X205759999Y-99491450D01*
X205759999Y-99491450D02*
X205867142Y-99527164D01*
X205867142Y-99527164D02*
X205938570Y-99527164D01*
X205938570Y-99527164D02*
X206045713Y-99491450D01*
X206045713Y-99491450D02*
X206117142Y-99420021D01*
X206117142Y-99420021D02*
X206152856Y-99348592D01*
X206152856Y-99348592D02*
X206188570Y-99205735D01*
X206188570Y-99205735D02*
X206188570Y-99098592D01*
X206188570Y-99098592D02*
X206152856Y-98955735D01*
X206152856Y-98955735D02*
X206117142Y-98884307D01*
X206117142Y-98884307D02*
X206045713Y-98812878D01*
X206045713Y-98812878D02*
X205938570Y-98777164D01*
X205938570Y-98777164D02*
X205867142Y-98777164D01*
X205867142Y-98777164D02*
X205759999Y-98812878D01*
X205759999Y-98812878D02*
X205724285Y-98848592D01*
X205045713Y-99527164D02*
X205402856Y-99527164D01*
X205402856Y-99527164D02*
X205402856Y-98777164D01*
X210317142Y-92970878D02*
X210388571Y-92935164D01*
X210388571Y-92935164D02*
X210495713Y-92935164D01*
X210495713Y-92935164D02*
X210602856Y-92970878D01*
X210602856Y-92970878D02*
X210674285Y-93042307D01*
X210674285Y-93042307D02*
X210709999Y-93113735D01*
X210709999Y-93113735D02*
X210745713Y-93256592D01*
X210745713Y-93256592D02*
X210745713Y-93363735D01*
X210745713Y-93363735D02*
X210709999Y-93506592D01*
X210709999Y-93506592D02*
X210674285Y-93578021D01*
X210674285Y-93578021D02*
X210602856Y-93649450D01*
X210602856Y-93649450D02*
X210495713Y-93685164D01*
X210495713Y-93685164D02*
X210424285Y-93685164D01*
X210424285Y-93685164D02*
X210317142Y-93649450D01*
X210317142Y-93649450D02*
X210281428Y-93613735D01*
X210281428Y-93613735D02*
X210281428Y-93363735D01*
X210281428Y-93363735D02*
X210424285Y-93363735D01*
X209959999Y-93685164D02*
X209959999Y-92935164D01*
X209959999Y-92935164D02*
X209674285Y-92935164D01*
X209674285Y-92935164D02*
X209602856Y-92970878D01*
X209602856Y-92970878D02*
X209567142Y-93006592D01*
X209567142Y-93006592D02*
X209531428Y-93078021D01*
X209531428Y-93078021D02*
X209531428Y-93185164D01*
X209531428Y-93185164D02*
X209567142Y-93256592D01*
X209567142Y-93256592D02*
X209602856Y-93292307D01*
X209602856Y-93292307D02*
X209674285Y-93328021D01*
X209674285Y-93328021D02*
X209959999Y-93328021D01*
X209209999Y-93685164D02*
X209209999Y-92935164D01*
X208709999Y-92935164D02*
X208567142Y-92935164D01*
X208567142Y-92935164D02*
X208495713Y-92970878D01*
X208495713Y-92970878D02*
X208424285Y-93042307D01*
X208424285Y-93042307D02*
X208388570Y-93185164D01*
X208388570Y-93185164D02*
X208388570Y-93435164D01*
X208388570Y-93435164D02*
X208424285Y-93578021D01*
X208424285Y-93578021D02*
X208495713Y-93649450D01*
X208495713Y-93649450D02*
X208567142Y-93685164D01*
X208567142Y-93685164D02*
X208709999Y-93685164D01*
X208709999Y-93685164D02*
X208781428Y-93649450D01*
X208781428Y-93649450D02*
X208852856Y-93578021D01*
X208852856Y-93578021D02*
X208888570Y-93435164D01*
X208888570Y-93435164D02*
X208888570Y-93185164D01*
X208888570Y-93185164D02*
X208852856Y-93042307D01*
X208852856Y-93042307D02*
X208781428Y-92970878D01*
X208781428Y-92970878D02*
X208709999Y-92935164D01*
X207674285Y-93685164D02*
X208102856Y-93685164D01*
X207888571Y-93685164D02*
X207888571Y-92935164D01*
X207888571Y-92935164D02*
X207959999Y-93042307D01*
X207959999Y-93042307D02*
X208031428Y-93113735D01*
X208031428Y-93113735D02*
X208102856Y-93149450D01*
X210317142Y-98812878D02*
X210388571Y-98777164D01*
X210388571Y-98777164D02*
X210495713Y-98777164D01*
X210495713Y-98777164D02*
X210602856Y-98812878D01*
X210602856Y-98812878D02*
X210674285Y-98884307D01*
X210674285Y-98884307D02*
X210709999Y-98955735D01*
X210709999Y-98955735D02*
X210745713Y-99098592D01*
X210745713Y-99098592D02*
X210745713Y-99205735D01*
X210745713Y-99205735D02*
X210709999Y-99348592D01*
X210709999Y-99348592D02*
X210674285Y-99420021D01*
X210674285Y-99420021D02*
X210602856Y-99491450D01*
X210602856Y-99491450D02*
X210495713Y-99527164D01*
X210495713Y-99527164D02*
X210424285Y-99527164D01*
X210424285Y-99527164D02*
X210317142Y-99491450D01*
X210317142Y-99491450D02*
X210281428Y-99455735D01*
X210281428Y-99455735D02*
X210281428Y-99205735D01*
X210281428Y-99205735D02*
X210424285Y-99205735D01*
X209959999Y-99527164D02*
X209959999Y-98777164D01*
X209959999Y-98777164D02*
X209674285Y-98777164D01*
X209674285Y-98777164D02*
X209602856Y-98812878D01*
X209602856Y-98812878D02*
X209567142Y-98848592D01*
X209567142Y-98848592D02*
X209531428Y-98920021D01*
X209531428Y-98920021D02*
X209531428Y-99027164D01*
X209531428Y-99027164D02*
X209567142Y-99098592D01*
X209567142Y-99098592D02*
X209602856Y-99134307D01*
X209602856Y-99134307D02*
X209674285Y-99170021D01*
X209674285Y-99170021D02*
X209959999Y-99170021D01*
X209209999Y-99527164D02*
X209209999Y-98777164D01*
X208709999Y-98777164D02*
X208567142Y-98777164D01*
X208567142Y-98777164D02*
X208495713Y-98812878D01*
X208495713Y-98812878D02*
X208424285Y-98884307D01*
X208424285Y-98884307D02*
X208388570Y-99027164D01*
X208388570Y-99027164D02*
X208388570Y-99277164D01*
X208388570Y-99277164D02*
X208424285Y-99420021D01*
X208424285Y-99420021D02*
X208495713Y-99491450D01*
X208495713Y-99491450D02*
X208567142Y-99527164D01*
X208567142Y-99527164D02*
X208709999Y-99527164D01*
X208709999Y-99527164D02*
X208781428Y-99491450D01*
X208781428Y-99491450D02*
X208852856Y-99420021D01*
X208852856Y-99420021D02*
X208888570Y-99277164D01*
X208888570Y-99277164D02*
X208888570Y-99027164D01*
X208888570Y-99027164D02*
X208852856Y-98884307D01*
X208852856Y-98884307D02*
X208781428Y-98812878D01*
X208781428Y-98812878D02*
X208709999Y-98777164D01*
X208102856Y-98848592D02*
X208067142Y-98812878D01*
X208067142Y-98812878D02*
X207995714Y-98777164D01*
X207995714Y-98777164D02*
X207817142Y-98777164D01*
X207817142Y-98777164D02*
X207745714Y-98812878D01*
X207745714Y-98812878D02*
X207709999Y-98848592D01*
X207709999Y-98848592D02*
X207674285Y-98920021D01*
X207674285Y-98920021D02*
X207674285Y-98991450D01*
X207674285Y-98991450D02*
X207709999Y-99098592D01*
X207709999Y-99098592D02*
X208138571Y-99527164D01*
X208138571Y-99527164D02*
X207674285Y-99527164D01*
X204469999Y-92935164D02*
X204219999Y-93685164D01*
X204219999Y-93685164D02*
X203969999Y-92935164D01*
X203291428Y-93613735D02*
X203327142Y-93649450D01*
X203327142Y-93649450D02*
X203434285Y-93685164D01*
X203434285Y-93685164D02*
X203505713Y-93685164D01*
X203505713Y-93685164D02*
X203612856Y-93649450D01*
X203612856Y-93649450D02*
X203684285Y-93578021D01*
X203684285Y-93578021D02*
X203719999Y-93506592D01*
X203719999Y-93506592D02*
X203755713Y-93363735D01*
X203755713Y-93363735D02*
X203755713Y-93256592D01*
X203755713Y-93256592D02*
X203719999Y-93113735D01*
X203719999Y-93113735D02*
X203684285Y-93042307D01*
X203684285Y-93042307D02*
X203612856Y-92970878D01*
X203612856Y-92970878D02*
X203505713Y-92935164D01*
X203505713Y-92935164D02*
X203434285Y-92935164D01*
X203434285Y-92935164D02*
X203327142Y-92970878D01*
X203327142Y-92970878D02*
X203291428Y-93006592D01*
X202541428Y-93613735D02*
X202577142Y-93649450D01*
X202577142Y-93649450D02*
X202684285Y-93685164D01*
X202684285Y-93685164D02*
X202755713Y-93685164D01*
X202755713Y-93685164D02*
X202862856Y-93649450D01*
X202862856Y-93649450D02*
X202934285Y-93578021D01*
X202934285Y-93578021D02*
X202969999Y-93506592D01*
X202969999Y-93506592D02*
X203005713Y-93363735D01*
X203005713Y-93363735D02*
X203005713Y-93256592D01*
X203005713Y-93256592D02*
X202969999Y-93113735D01*
X202969999Y-93113735D02*
X202934285Y-93042307D01*
X202934285Y-93042307D02*
X202862856Y-92970878D01*
X202862856Y-92970878D02*
X202755713Y-92935164D01*
X202755713Y-92935164D02*
X202684285Y-92935164D01*
X202684285Y-92935164D02*
X202577142Y-92970878D01*
X202577142Y-92970878D02*
X202541428Y-93006592D01*
X206920713Y-93649450D02*
X206813571Y-93685164D01*
X206813571Y-93685164D02*
X206634999Y-93685164D01*
X206634999Y-93685164D02*
X206563571Y-93649450D01*
X206563571Y-93649450D02*
X206527856Y-93613735D01*
X206527856Y-93613735D02*
X206492142Y-93542307D01*
X206492142Y-93542307D02*
X206492142Y-93470878D01*
X206492142Y-93470878D02*
X206527856Y-93399450D01*
X206527856Y-93399450D02*
X206563571Y-93363735D01*
X206563571Y-93363735D02*
X206634999Y-93328021D01*
X206634999Y-93328021D02*
X206777856Y-93292307D01*
X206777856Y-93292307D02*
X206849285Y-93256592D01*
X206849285Y-93256592D02*
X206884999Y-93220878D01*
X206884999Y-93220878D02*
X206920713Y-93149450D01*
X206920713Y-93149450D02*
X206920713Y-93078021D01*
X206920713Y-93078021D02*
X206884999Y-93006592D01*
X206884999Y-93006592D02*
X206849285Y-92970878D01*
X206849285Y-92970878D02*
X206777856Y-92935164D01*
X206777856Y-92935164D02*
X206599285Y-92935164D01*
X206599285Y-92935164D02*
X206492142Y-92970878D01*
X206170713Y-93685164D02*
X206170713Y-92935164D01*
X206170713Y-92935164D02*
X205992142Y-92935164D01*
X205992142Y-92935164D02*
X205884999Y-92970878D01*
X205884999Y-92970878D02*
X205813570Y-93042307D01*
X205813570Y-93042307D02*
X205777856Y-93113735D01*
X205777856Y-93113735D02*
X205742142Y-93256592D01*
X205742142Y-93256592D02*
X205742142Y-93363735D01*
X205742142Y-93363735D02*
X205777856Y-93506592D01*
X205777856Y-93506592D02*
X205813570Y-93578021D01*
X205813570Y-93578021D02*
X205884999Y-93649450D01*
X205884999Y-93649450D02*
X205992142Y-93685164D01*
X205992142Y-93685164D02*
X206170713Y-93685164D01*
X205456427Y-93470878D02*
X205099285Y-93470878D01*
X205527856Y-93685164D02*
X205277856Y-92935164D01*
X205277856Y-92935164D02*
X205027856Y-93685164D01*
X111823333Y-85694819D02*
X111823333Y-86409104D01*
X111823333Y-86409104D02*
X111870952Y-86551961D01*
X111870952Y-86551961D02*
X111966190Y-86647200D01*
X111966190Y-86647200D02*
X112109047Y-86694819D01*
X112109047Y-86694819D02*
X112204285Y-86694819D01*
X111442380Y-85694819D02*
X110823333Y-85694819D01*
X110823333Y-85694819D02*
X111156666Y-86075771D01*
X111156666Y-86075771D02*
X111013809Y-86075771D01*
X111013809Y-86075771D02*
X110918571Y-86123390D01*
X110918571Y-86123390D02*
X110870952Y-86171009D01*
X110870952Y-86171009D02*
X110823333Y-86266247D01*
X110823333Y-86266247D02*
X110823333Y-86504342D01*
X110823333Y-86504342D02*
X110870952Y-86599580D01*
X110870952Y-86599580D02*
X110918571Y-86647200D01*
X110918571Y-86647200D02*
X111013809Y-86694819D01*
X111013809Y-86694819D02*
X111299523Y-86694819D01*
X111299523Y-86694819D02*
X111394761Y-86647200D01*
X111394761Y-86647200D02*
X111442380Y-86599580D01*
X112400713Y-89249450D02*
X112293571Y-89285164D01*
X112293571Y-89285164D02*
X112114999Y-89285164D01*
X112114999Y-89285164D02*
X112043571Y-89249450D01*
X112043571Y-89249450D02*
X112007856Y-89213735D01*
X112007856Y-89213735D02*
X111972142Y-89142307D01*
X111972142Y-89142307D02*
X111972142Y-89070878D01*
X111972142Y-89070878D02*
X112007856Y-88999450D01*
X112007856Y-88999450D02*
X112043571Y-88963735D01*
X112043571Y-88963735D02*
X112114999Y-88928021D01*
X112114999Y-88928021D02*
X112257856Y-88892307D01*
X112257856Y-88892307D02*
X112329285Y-88856592D01*
X112329285Y-88856592D02*
X112364999Y-88820878D01*
X112364999Y-88820878D02*
X112400713Y-88749450D01*
X112400713Y-88749450D02*
X112400713Y-88678021D01*
X112400713Y-88678021D02*
X112364999Y-88606592D01*
X112364999Y-88606592D02*
X112329285Y-88570878D01*
X112329285Y-88570878D02*
X112257856Y-88535164D01*
X112257856Y-88535164D02*
X112079285Y-88535164D01*
X112079285Y-88535164D02*
X111972142Y-88570878D01*
X111650713Y-89285164D02*
X111650713Y-88535164D01*
X111650713Y-88535164D02*
X111472142Y-88535164D01*
X111472142Y-88535164D02*
X111364999Y-88570878D01*
X111364999Y-88570878D02*
X111293570Y-88642307D01*
X111293570Y-88642307D02*
X111257856Y-88713735D01*
X111257856Y-88713735D02*
X111222142Y-88856592D01*
X111222142Y-88856592D02*
X111222142Y-88963735D01*
X111222142Y-88963735D02*
X111257856Y-89106592D01*
X111257856Y-89106592D02*
X111293570Y-89178021D01*
X111293570Y-89178021D02*
X111364999Y-89249450D01*
X111364999Y-89249450D02*
X111472142Y-89285164D01*
X111472142Y-89285164D02*
X111650713Y-89285164D01*
X110936427Y-89070878D02*
X110579285Y-89070878D01*
X111007856Y-89285164D02*
X110757856Y-88535164D01*
X110757856Y-88535164D02*
X110507856Y-89285164D01*
X109521428Y-94412878D02*
X109592857Y-94377164D01*
X109592857Y-94377164D02*
X109699999Y-94377164D01*
X109699999Y-94377164D02*
X109807142Y-94412878D01*
X109807142Y-94412878D02*
X109878571Y-94484307D01*
X109878571Y-94484307D02*
X109914285Y-94555735D01*
X109914285Y-94555735D02*
X109949999Y-94698592D01*
X109949999Y-94698592D02*
X109949999Y-94805735D01*
X109949999Y-94805735D02*
X109914285Y-94948592D01*
X109914285Y-94948592D02*
X109878571Y-95020021D01*
X109878571Y-95020021D02*
X109807142Y-95091450D01*
X109807142Y-95091450D02*
X109699999Y-95127164D01*
X109699999Y-95127164D02*
X109628571Y-95127164D01*
X109628571Y-95127164D02*
X109521428Y-95091450D01*
X109521428Y-95091450D02*
X109485714Y-95055735D01*
X109485714Y-95055735D02*
X109485714Y-94805735D01*
X109485714Y-94805735D02*
X109628571Y-94805735D01*
X109164285Y-95127164D02*
X109164285Y-94377164D01*
X109164285Y-94377164D02*
X108735714Y-95127164D01*
X108735714Y-95127164D02*
X108735714Y-94377164D01*
X108378571Y-95127164D02*
X108378571Y-94377164D01*
X108378571Y-94377164D02*
X108200000Y-94377164D01*
X108200000Y-94377164D02*
X108092857Y-94412878D01*
X108092857Y-94412878D02*
X108021428Y-94484307D01*
X108021428Y-94484307D02*
X107985714Y-94555735D01*
X107985714Y-94555735D02*
X107950000Y-94698592D01*
X107950000Y-94698592D02*
X107950000Y-94805735D01*
X107950000Y-94805735D02*
X107985714Y-94948592D01*
X107985714Y-94948592D02*
X108021428Y-95020021D01*
X108021428Y-95020021D02*
X108092857Y-95091450D01*
X108092857Y-95091450D02*
X108200000Y-95127164D01*
X108200000Y-95127164D02*
X108378571Y-95127164D01*
X112382856Y-95091450D02*
X112275714Y-95127164D01*
X112275714Y-95127164D02*
X112097142Y-95127164D01*
X112097142Y-95127164D02*
X112025714Y-95091450D01*
X112025714Y-95091450D02*
X111989999Y-95055735D01*
X111989999Y-95055735D02*
X111954285Y-94984307D01*
X111954285Y-94984307D02*
X111954285Y-94912878D01*
X111954285Y-94912878D02*
X111989999Y-94841450D01*
X111989999Y-94841450D02*
X112025714Y-94805735D01*
X112025714Y-94805735D02*
X112097142Y-94770021D01*
X112097142Y-94770021D02*
X112239999Y-94734307D01*
X112239999Y-94734307D02*
X112311428Y-94698592D01*
X112311428Y-94698592D02*
X112347142Y-94662878D01*
X112347142Y-94662878D02*
X112382856Y-94591450D01*
X112382856Y-94591450D02*
X112382856Y-94520021D01*
X112382856Y-94520021D02*
X112347142Y-94448592D01*
X112347142Y-94448592D02*
X112311428Y-94412878D01*
X112311428Y-94412878D02*
X112239999Y-94377164D01*
X112239999Y-94377164D02*
X112061428Y-94377164D01*
X112061428Y-94377164D02*
X111954285Y-94412878D01*
X111204285Y-95055735D02*
X111239999Y-95091450D01*
X111239999Y-95091450D02*
X111347142Y-95127164D01*
X111347142Y-95127164D02*
X111418570Y-95127164D01*
X111418570Y-95127164D02*
X111525713Y-95091450D01*
X111525713Y-95091450D02*
X111597142Y-95020021D01*
X111597142Y-95020021D02*
X111632856Y-94948592D01*
X111632856Y-94948592D02*
X111668570Y-94805735D01*
X111668570Y-94805735D02*
X111668570Y-94698592D01*
X111668570Y-94698592D02*
X111632856Y-94555735D01*
X111632856Y-94555735D02*
X111597142Y-94484307D01*
X111597142Y-94484307D02*
X111525713Y-94412878D01*
X111525713Y-94412878D02*
X111418570Y-94377164D01*
X111418570Y-94377164D02*
X111347142Y-94377164D01*
X111347142Y-94377164D02*
X111239999Y-94412878D01*
X111239999Y-94412878D02*
X111204285Y-94448592D01*
X110525713Y-95127164D02*
X110882856Y-95127164D01*
X110882856Y-95127164D02*
X110882856Y-94377164D01*
X109949999Y-88535164D02*
X109699999Y-89285164D01*
X109699999Y-89285164D02*
X109449999Y-88535164D01*
X108771428Y-89213735D02*
X108807142Y-89249450D01*
X108807142Y-89249450D02*
X108914285Y-89285164D01*
X108914285Y-89285164D02*
X108985713Y-89285164D01*
X108985713Y-89285164D02*
X109092856Y-89249450D01*
X109092856Y-89249450D02*
X109164285Y-89178021D01*
X109164285Y-89178021D02*
X109199999Y-89106592D01*
X109199999Y-89106592D02*
X109235713Y-88963735D01*
X109235713Y-88963735D02*
X109235713Y-88856592D01*
X109235713Y-88856592D02*
X109199999Y-88713735D01*
X109199999Y-88713735D02*
X109164285Y-88642307D01*
X109164285Y-88642307D02*
X109092856Y-88570878D01*
X109092856Y-88570878D02*
X108985713Y-88535164D01*
X108985713Y-88535164D02*
X108914285Y-88535164D01*
X108914285Y-88535164D02*
X108807142Y-88570878D01*
X108807142Y-88570878D02*
X108771428Y-88606592D01*
X108021428Y-89213735D02*
X108057142Y-89249450D01*
X108057142Y-89249450D02*
X108164285Y-89285164D01*
X108164285Y-89285164D02*
X108235713Y-89285164D01*
X108235713Y-89285164D02*
X108342856Y-89249450D01*
X108342856Y-89249450D02*
X108414285Y-89178021D01*
X108414285Y-89178021D02*
X108449999Y-89106592D01*
X108449999Y-89106592D02*
X108485713Y-88963735D01*
X108485713Y-88963735D02*
X108485713Y-88856592D01*
X108485713Y-88856592D02*
X108449999Y-88713735D01*
X108449999Y-88713735D02*
X108414285Y-88642307D01*
X108414285Y-88642307D02*
X108342856Y-88570878D01*
X108342856Y-88570878D02*
X108235713Y-88535164D01*
X108235713Y-88535164D02*
X108164285Y-88535164D01*
X108164285Y-88535164D02*
X108057142Y-88570878D01*
X108057142Y-88570878D02*
X108021428Y-88606592D01*
X115797142Y-88570878D02*
X115868571Y-88535164D01*
X115868571Y-88535164D02*
X115975713Y-88535164D01*
X115975713Y-88535164D02*
X116082856Y-88570878D01*
X116082856Y-88570878D02*
X116154285Y-88642307D01*
X116154285Y-88642307D02*
X116189999Y-88713735D01*
X116189999Y-88713735D02*
X116225713Y-88856592D01*
X116225713Y-88856592D02*
X116225713Y-88963735D01*
X116225713Y-88963735D02*
X116189999Y-89106592D01*
X116189999Y-89106592D02*
X116154285Y-89178021D01*
X116154285Y-89178021D02*
X116082856Y-89249450D01*
X116082856Y-89249450D02*
X115975713Y-89285164D01*
X115975713Y-89285164D02*
X115904285Y-89285164D01*
X115904285Y-89285164D02*
X115797142Y-89249450D01*
X115797142Y-89249450D02*
X115761428Y-89213735D01*
X115761428Y-89213735D02*
X115761428Y-88963735D01*
X115761428Y-88963735D02*
X115904285Y-88963735D01*
X115439999Y-89285164D02*
X115439999Y-88535164D01*
X115439999Y-88535164D02*
X115154285Y-88535164D01*
X115154285Y-88535164D02*
X115082856Y-88570878D01*
X115082856Y-88570878D02*
X115047142Y-88606592D01*
X115047142Y-88606592D02*
X115011428Y-88678021D01*
X115011428Y-88678021D02*
X115011428Y-88785164D01*
X115011428Y-88785164D02*
X115047142Y-88856592D01*
X115047142Y-88856592D02*
X115082856Y-88892307D01*
X115082856Y-88892307D02*
X115154285Y-88928021D01*
X115154285Y-88928021D02*
X115439999Y-88928021D01*
X114689999Y-89285164D02*
X114689999Y-88535164D01*
X114189999Y-88535164D02*
X114047142Y-88535164D01*
X114047142Y-88535164D02*
X113975713Y-88570878D01*
X113975713Y-88570878D02*
X113904285Y-88642307D01*
X113904285Y-88642307D02*
X113868570Y-88785164D01*
X113868570Y-88785164D02*
X113868570Y-89035164D01*
X113868570Y-89035164D02*
X113904285Y-89178021D01*
X113904285Y-89178021D02*
X113975713Y-89249450D01*
X113975713Y-89249450D02*
X114047142Y-89285164D01*
X114047142Y-89285164D02*
X114189999Y-89285164D01*
X114189999Y-89285164D02*
X114261428Y-89249450D01*
X114261428Y-89249450D02*
X114332856Y-89178021D01*
X114332856Y-89178021D02*
X114368570Y-89035164D01*
X114368570Y-89035164D02*
X114368570Y-88785164D01*
X114368570Y-88785164D02*
X114332856Y-88642307D01*
X114332856Y-88642307D02*
X114261428Y-88570878D01*
X114261428Y-88570878D02*
X114189999Y-88535164D01*
X113154285Y-89285164D02*
X113582856Y-89285164D01*
X113368571Y-89285164D02*
X113368571Y-88535164D01*
X113368571Y-88535164D02*
X113439999Y-88642307D01*
X113439999Y-88642307D02*
X113511428Y-88713735D01*
X113511428Y-88713735D02*
X113582856Y-88749450D01*
X115797142Y-94412878D02*
X115868571Y-94377164D01*
X115868571Y-94377164D02*
X115975713Y-94377164D01*
X115975713Y-94377164D02*
X116082856Y-94412878D01*
X116082856Y-94412878D02*
X116154285Y-94484307D01*
X116154285Y-94484307D02*
X116189999Y-94555735D01*
X116189999Y-94555735D02*
X116225713Y-94698592D01*
X116225713Y-94698592D02*
X116225713Y-94805735D01*
X116225713Y-94805735D02*
X116189999Y-94948592D01*
X116189999Y-94948592D02*
X116154285Y-95020021D01*
X116154285Y-95020021D02*
X116082856Y-95091450D01*
X116082856Y-95091450D02*
X115975713Y-95127164D01*
X115975713Y-95127164D02*
X115904285Y-95127164D01*
X115904285Y-95127164D02*
X115797142Y-95091450D01*
X115797142Y-95091450D02*
X115761428Y-95055735D01*
X115761428Y-95055735D02*
X115761428Y-94805735D01*
X115761428Y-94805735D02*
X115904285Y-94805735D01*
X115439999Y-95127164D02*
X115439999Y-94377164D01*
X115439999Y-94377164D02*
X115154285Y-94377164D01*
X115154285Y-94377164D02*
X115082856Y-94412878D01*
X115082856Y-94412878D02*
X115047142Y-94448592D01*
X115047142Y-94448592D02*
X115011428Y-94520021D01*
X115011428Y-94520021D02*
X115011428Y-94627164D01*
X115011428Y-94627164D02*
X115047142Y-94698592D01*
X115047142Y-94698592D02*
X115082856Y-94734307D01*
X115082856Y-94734307D02*
X115154285Y-94770021D01*
X115154285Y-94770021D02*
X115439999Y-94770021D01*
X114689999Y-95127164D02*
X114689999Y-94377164D01*
X114189999Y-94377164D02*
X114047142Y-94377164D01*
X114047142Y-94377164D02*
X113975713Y-94412878D01*
X113975713Y-94412878D02*
X113904285Y-94484307D01*
X113904285Y-94484307D02*
X113868570Y-94627164D01*
X113868570Y-94627164D02*
X113868570Y-94877164D01*
X113868570Y-94877164D02*
X113904285Y-95020021D01*
X113904285Y-95020021D02*
X113975713Y-95091450D01*
X113975713Y-95091450D02*
X114047142Y-95127164D01*
X114047142Y-95127164D02*
X114189999Y-95127164D01*
X114189999Y-95127164D02*
X114261428Y-95091450D01*
X114261428Y-95091450D02*
X114332856Y-95020021D01*
X114332856Y-95020021D02*
X114368570Y-94877164D01*
X114368570Y-94877164D02*
X114368570Y-94627164D01*
X114368570Y-94627164D02*
X114332856Y-94484307D01*
X114332856Y-94484307D02*
X114261428Y-94412878D01*
X114261428Y-94412878D02*
X114189999Y-94377164D01*
X113582856Y-94448592D02*
X113547142Y-94412878D01*
X113547142Y-94412878D02*
X113475714Y-94377164D01*
X113475714Y-94377164D02*
X113297142Y-94377164D01*
X113297142Y-94377164D02*
X113225714Y-94412878D01*
X113225714Y-94412878D02*
X113189999Y-94448592D01*
X113189999Y-94448592D02*
X113154285Y-94520021D01*
X113154285Y-94520021D02*
X113154285Y-94591450D01*
X113154285Y-94591450D02*
X113189999Y-94698592D01*
X113189999Y-94698592D02*
X113618571Y-95127164D01*
X113618571Y-95127164D02*
X113154285Y-95127164D01*
D11*
%TO.C,Q2*%
X140995000Y-87405000D02*
X139525000Y-87405000D01*
X140995000Y-89690000D02*
X140995000Y-87405000D01*
X139525000Y-87405000D02*
X139525000Y-89690000D01*
%TO.C,Q1*%
X190775000Y-85755000D02*
X189305000Y-85755000D01*
X190775000Y-88040000D02*
X190775000Y-85755000D01*
X189305000Y-85755000D02*
X189305000Y-88040000D01*
%TO.C,R13*%
X155016359Y-82290000D02*
X155323641Y-82290000D01*
X155016359Y-83050000D02*
X155323641Y-83050000D01*
%TO.C,BT1*%
X149050000Y-100065000D02*
X157950000Y-94215000D01*
X149050000Y-103365000D02*
X149050000Y-100065000D01*
X149050000Y-113765000D02*
X149050000Y-109565000D01*
X157950000Y-93415000D02*
X165850000Y-93415000D01*
X157950000Y-94215000D02*
X157950000Y-93415000D01*
X165850000Y-94215000D02*
X165850000Y-93415000D01*
X174750000Y-100065000D02*
X165850000Y-94215000D01*
X174750000Y-103365000D02*
X174750000Y-100065000D01*
X174750000Y-113765000D02*
X174750000Y-109565000D01*
X151750000Y-116415000D02*
G75*
G02*
X149050000Y-113715000I0J2700000D01*
G01*
X152421751Y-116136751D02*
G75*
G02*
X151750000Y-116414999I-671751J671751D01*
G01*
X172050000Y-116415000D02*
G75*
G02*
X171378249Y-116136751I2J950003D01*
G01*
X174750000Y-113715000D02*
G75*
G02*
X172050000Y-116415000I-2700001J1D01*
G01*
%TO.C,C1*%
X161712164Y-81660000D02*
X161927836Y-81660000D01*
X161712164Y-82380000D02*
X161927836Y-82380000D01*
%TO.C,R3*%
X155660000Y-80556359D02*
X155660000Y-80863641D01*
X156420000Y-80556359D02*
X156420000Y-80863641D01*
%TO.C,R14*%
X157280000Y-82556359D02*
X157280000Y-82863641D01*
X158040000Y-82556359D02*
X158040000Y-82863641D01*
%TO.C,R10*%
X155926359Y-83250000D02*
X156233641Y-83250000D01*
X155926359Y-84010000D02*
X156233641Y-84010000D01*
%TO.C,R4*%
X162953641Y-75360000D02*
X162646359Y-75360000D01*
X162953641Y-76120000D02*
X162646359Y-76120000D01*
%TO.C,R11*%
X156230000Y-73923641D02*
X156230000Y-73616359D01*
X156990000Y-73923641D02*
X156990000Y-73616359D01*
%TO.C,C3*%
X157250000Y-73662164D02*
X157250000Y-73877836D01*
X157970000Y-73662164D02*
X157970000Y-73877836D01*
%TO.C,U2*%
X157560000Y-76390000D02*
X158010000Y-76390000D01*
X157560000Y-76840000D02*
X157560000Y-76390000D01*
X157560000Y-79160000D02*
X157560000Y-79610000D01*
X157560000Y-79610000D02*
X158010000Y-79610000D01*
X160480000Y-76390000D02*
X160330000Y-76390000D01*
X160780000Y-76630000D02*
X160780000Y-76840000D01*
X160780000Y-79160000D02*
X160780000Y-79610000D01*
X160780000Y-79610000D02*
X160330000Y-79610000D01*
X160780000Y-76390000D02*
X160540000Y-76060000D01*
X161020000Y-76060000D01*
X160780000Y-76390000D01*
G36*
X160780000Y-76390000D02*
G01*
X160540000Y-76060000D01*
X161020000Y-76060000D01*
X160780000Y-76390000D01*
G37*
%TO.C,R8*%
X158260000Y-73616359D02*
X158260000Y-73923641D01*
X159020000Y-73616359D02*
X159020000Y-73923641D01*
%TO.C,R7*%
X159300000Y-73606359D02*
X159300000Y-73913641D01*
X160060000Y-73606359D02*
X160060000Y-73913641D01*
%TO.C,C4*%
X161092164Y-80720000D02*
X161307836Y-80720000D01*
X161092164Y-81440000D02*
X161307836Y-81440000D01*
%TO.C,R1*%
X161056359Y-82810000D02*
X161363641Y-82810000D01*
X161056359Y-83570000D02*
X161363641Y-83570000D01*
%TO.C,R2*%
X160390000Y-73556359D02*
X160390000Y-73863641D01*
X161150000Y-73556359D02*
X161150000Y-73863641D01*
%TO.C,R12*%
X153836359Y-73810000D02*
X154143641Y-73810000D01*
X153836359Y-74570000D02*
X154143641Y-74570000D01*
%TO.C,J1*%
X166750000Y-73670000D02*
X166750000Y-78810000D01*
X166750000Y-81410000D02*
X166750000Y-80080000D01*
X168080000Y-81410000D02*
X166750000Y-81410000D01*
X169410000Y-73670000D02*
X166750000Y-73670000D01*
X169410000Y-73670000D02*
X169410000Y-78810000D01*
X169410000Y-78810000D02*
X166750000Y-78810000D01*
%TO.C,C2*%
X155250000Y-73692164D02*
X155250000Y-73907836D01*
X155970000Y-73692164D02*
X155970000Y-73907836D01*
%TO.C,R5*%
X161540000Y-73616359D02*
X161540000Y-73923641D01*
X162300000Y-73616359D02*
X162300000Y-73923641D01*
%TO.C,R6*%
X154083641Y-74940000D02*
X153776359Y-74940000D01*
X154083641Y-75700000D02*
X153776359Y-75700000D01*
%TO.C,R9*%
X158290000Y-82556359D02*
X158290000Y-82863641D01*
X159050000Y-82556359D02*
X159050000Y-82863641D01*
%TD*%
M02*
