M48
; DRILL file {KiCad 8.0.8} date 2025-02-28T00:55:33-0600
; FORMAT={-:-/ absolute / inch / decimal}
; #@! TF.CreationDate,2025-02-28T00:55:33-06:00
; #@! TF.GenerationSoftware,Kicad,Pcbnew,8.0.8
; #@! TF.FileFunction,Plated,1,2,PTH
FMAT,2
INCH
; #@! TA.AperFunction,Plated,PTH,ViaDrill
T1C0.0118
; #@! TA.AperFunction,Plated,PTH,ComponentDrill
T2C0.0394
; #@! TA.AperFunction,Plated,PTH,ComponentDrill
T3C0.0400
; #@! TA.AperFunction,Plated,PTH,ComponentDrill
T4C0.1024
%
G90
G05
T1
X3.4551Y-2.6248
X3.6839Y-2.569
X3.7379Y-2.5411
X3.7571Y-2.5076
X3.7808Y-2.5442
X3.8182Y-2.2096
X3.8618Y-2.2972
X3.8808Y-2.4605
X3.9209Y-2.1934
X3.9233Y-1.9942
X3.9295Y-2.3878
X3.9372Y-2.2736
X3.9461Y-2.506
X3.9508Y-2.6159
X3.9839Y-2.6005
X4.0187Y-2.5633
X4.0346Y-2.4657
X4.0713Y-2.3901
X4.1119Y-2.2159
X4.1177Y-2.7307
X4.1308Y-2.2887
X4.1571Y-2.336
X4.1725Y-2.482
X4.193Y-2.2297
X4.1938Y-2.1738
X4.2083Y-2.1222
X4.2292Y-2.2167
X4.2664Y-2.2987
X4.2717Y-2.7104
X4.2729Y-2.4139
X4.2741Y-2.4474
X4.2816Y-2.3163
X4.292Y-2.1503
X4.3215Y-2.2135
X4.3241Y-2.4092
X4.3605Y-2.3588
X4.3627Y-2.3273
X4.3902Y-2.4134
X4.3949Y-2.2238
X4.4068Y-2.1694
X4.4097Y-2.0726
X4.4461Y-2.4506
X4.4552Y-2.1092
X4.4556Y-2.4121
X4.5229Y-2.5639
X4.5233Y-2.4029
X4.5333Y-2.0657
X4.5665Y-1.9327
X4.5814Y-2.6064
X4.6108Y-2.5903
X4.6848Y-2.5325
X4.688Y-2.2473
X4.715Y-2.4816
X4.728Y-2.448
X4.7335Y-2.4167
X4.7383Y-2.3694
X4.7677Y-2.3055
X4.9413Y-2.4193
X5.4531Y-2.5681
X5.4788Y-2.2862
T2
X4.169Y-2.0167
X4.169Y-2.5875
X4.2674Y-2.5875
X4.3658Y-2.0167
X4.3658Y-2.5875
X4.6194Y-2.1785
X4.6194Y-2.2785
X4.6194Y-2.3785
T3
X2.2938Y-2.7883
X2.2938Y-2.8883
X2.3938Y-2.7883
X2.3938Y-2.8883
X2.4938Y-2.7883
X2.4938Y-2.8883
X6.015Y-2.9616
X6.015Y-3.0616
X6.115Y-2.9616
X6.115Y-3.0616
X6.215Y-2.9616
X6.215Y-3.0616
T4
X4.0469Y-2.2923
X4.4879Y-2.2923
M30
