%TF.GenerationSoftware,KiCad,Pcbnew,8.0.8*%
%TF.CreationDate,2025-02-28T01:38:28-06:00*%
%TF.ProjectId,B-Sides 2025,422d5369-6465-4732-9032-3032352e6b69,rev?*%
%TF.SameCoordinates,Original*%
%TF.FileFunction,Drillmap*%
%TF.FilePolarity,Positive*%
%FSLAX45Y45*%
G04 Gerber Fmt 4.5, Leading zero omitted, Abs format (unit mm)*
G04 Created by KiCad (PCBNEW 8.0.8) date 2025-02-28 01:38:28*
%MOMM*%
%LPD*%
G01*
G04 APERTURE LIST*
%ADD10C,0.020000*%
%ADD11C,0.050000*%
%ADD12C,0.200000*%
%ADD13C,0.430000*%
%ADD14C,0.100000*%
G04 APERTURE END LIST*
D10*
X10893576Y-3616447D02*
X11273031Y-3638961D01*
X11650793Y-3677376D01*
X12025462Y-3731598D01*
X12395640Y-3801532D01*
X12759928Y-3887085D01*
X13116926Y-3988162D01*
X13465236Y-4104671D01*
X13803457Y-4236516D01*
X14130192Y-4383603D01*
X14444041Y-4545840D01*
X14743604Y-4723132D01*
X15027484Y-4915384D01*
X15294280Y-5122504D01*
X15542593Y-5344397D01*
X15771025Y-5580969D01*
X15864490Y-5693455D01*
X15950367Y-5812943D01*
X16028735Y-5938945D01*
X16099673Y-6070975D01*
X16163262Y-6208545D01*
X16219582Y-6351169D01*
X16268711Y-6498358D01*
X16310731Y-6649626D01*
X16345721Y-6804486D01*
X16373760Y-6962450D01*
X16409308Y-7285745D01*
X16418012Y-7615613D01*
X16400510Y-7948157D01*
X16357443Y-8279480D01*
X16289447Y-8605686D01*
X16197161Y-8922877D01*
X16081225Y-9227156D01*
X16014587Y-9373236D01*
X15942276Y-9514627D01*
X15864371Y-9650842D01*
X15780952Y-9781393D01*
X15692100Y-9905794D01*
X15597893Y-10023557D01*
X15498412Y-10134195D01*
X15393737Y-10237221D01*
X15393324Y-10245282D01*
X15419412Y-10534102D01*
X15442185Y-10829027D01*
X15462702Y-11165537D01*
X15474405Y-11499568D01*
X15474902Y-11651882D01*
X15470736Y-11787050D01*
X15461087Y-11899565D01*
X15445137Y-11983918D01*
X15434542Y-12013812D01*
X15422065Y-12034600D01*
X15407602Y-12045593D01*
X15391052Y-12046103D01*
X15358061Y-12036903D01*
X15329330Y-12029121D01*
X15304449Y-12022716D01*
X15283007Y-12017647D01*
X15273448Y-12015601D01*
X15264594Y-12013874D01*
X15256395Y-12012460D01*
X15248800Y-12011354D01*
X15241757Y-12010551D01*
X15235214Y-12010047D01*
X15229121Y-12009836D01*
X15223426Y-12009912D01*
X15218078Y-12010271D01*
X15213025Y-12010908D01*
X15208217Y-12011818D01*
X15203602Y-12012994D01*
X15199129Y-12014433D01*
X15194746Y-12016129D01*
X15190402Y-12018077D01*
X15186046Y-12020272D01*
X15181627Y-12022709D01*
X15177093Y-12025382D01*
X15167475Y-12031418D01*
X15144607Y-12046103D01*
X14800493Y-14061794D01*
X14496842Y-14061794D01*
X13792545Y-15483670D01*
X13785033Y-15488013D01*
X13777364Y-15491836D01*
X13769546Y-15495163D01*
X13761585Y-15498017D01*
X13753491Y-15500423D01*
X13745270Y-15502405D01*
X13728480Y-15505192D01*
X13711279Y-15506570D01*
X13693728Y-15506731D01*
X13675891Y-15505867D01*
X13657828Y-15504171D01*
X13639603Y-15501834D01*
X13621278Y-15499048D01*
X13584577Y-15492900D01*
X13548224Y-15487262D01*
X13530333Y-15485114D01*
X13512717Y-15483670D01*
X13240712Y-15462781D01*
X12924839Y-15431647D01*
X12219911Y-15354604D01*
X11860066Y-15316671D01*
X11514772Y-15284449D01*
X11198635Y-15261925D01*
X10926259Y-15253090D01*
X10642127Y-15260888D01*
X10314193Y-15282925D01*
X9957077Y-15315085D01*
X9585394Y-15353251D01*
X8856797Y-15431141D01*
X8529117Y-15462634D01*
X8245338Y-15483670D01*
X8227719Y-15485073D01*
X8209826Y-15487190D01*
X8173471Y-15492794D01*
X8136769Y-15498939D01*
X8118445Y-15501730D01*
X8100220Y-15504077D01*
X8082159Y-15505786D01*
X8064322Y-15506665D01*
X8046772Y-15506519D01*
X8029572Y-15505156D01*
X8021122Y-15503958D01*
X8012783Y-15502383D01*
X8004562Y-15500407D01*
X7996468Y-15498007D01*
X7988508Y-15495157D01*
X7980690Y-15491833D01*
X7973021Y-15488012D01*
X7965510Y-15483670D01*
X7261212Y-14061794D01*
X6957561Y-14061794D01*
X6613447Y-12046103D01*
X6590581Y-12031770D01*
X6580963Y-12026117D01*
X6572007Y-12021476D01*
X6563306Y-12017853D01*
X6554447Y-12015249D01*
X6545022Y-12013669D01*
X6534620Y-12013117D01*
X6522832Y-12013595D01*
X6509247Y-12015108D01*
X6493456Y-12017658D01*
X6475048Y-12021250D01*
X6428744Y-12031572D01*
X6367054Y-12046103D01*
X6350526Y-12044842D01*
X6336109Y-12033193D01*
X6323700Y-12011840D01*
X6313194Y-11981467D01*
X6297476Y-11896395D01*
X6288124Y-11783448D01*
X6284304Y-11648099D01*
X6285184Y-11495816D01*
X6297715Y-11162336D01*
X6319055Y-10826775D01*
X6342543Y-10532902D01*
X6369327Y-10245282D01*
X6368965Y-10239081D01*
X6368925Y-10239050D01*
X6368884Y-10239021D01*
X6368843Y-10238994D01*
X6368801Y-10238969D01*
X6368759Y-10238945D01*
X6368716Y-10238923D01*
X6368629Y-10238879D01*
X6368543Y-10238835D01*
X6368500Y-10238811D01*
X6368457Y-10238787D01*
X6368415Y-10238761D01*
X6368373Y-10238732D01*
X6368332Y-10238702D01*
X6368292Y-10238669D01*
X6255996Y-10129317D01*
X6148892Y-10011642D01*
X6047097Y-9886184D01*
X5950725Y-9753479D01*
X5859892Y-9614065D01*
X5774714Y-9468480D01*
X5621785Y-9160948D01*
X5492860Y-8835183D01*
X5388865Y-8495486D01*
X5310723Y-8146160D01*
X5259359Y-7791505D01*
X5235697Y-7435824D01*
X5240662Y-7083416D01*
X5254168Y-6909785D01*
X5275177Y-6738585D01*
X5303805Y-6570354D01*
X5340167Y-6405630D01*
X5384379Y-6244951D01*
X5436556Y-6088854D01*
X5496813Y-5937877D01*
X5565268Y-5792558D01*
X5642034Y-5653434D01*
X5727227Y-5521043D01*
X5820963Y-5395922D01*
X5923358Y-5278610D01*
X6129332Y-5075370D01*
X6350582Y-4885623D01*
X6586145Y-4709307D01*
X6835062Y-4546356D01*
X7096372Y-4396705D01*
X7369112Y-4260291D01*
X7652323Y-4137047D01*
X7945043Y-4026911D01*
X8246312Y-3929818D01*
X8555169Y-3845702D01*
X8870651Y-3774499D01*
X9191799Y-3716145D01*
X9517652Y-3670576D01*
X9847248Y-3637726D01*
X10179627Y-3617531D01*
X10513827Y-3609926D01*
X10893576Y-3616447D01*
D11*
X13462186Y-5052095D02*
X14136451Y-5232754D01*
X13577861Y-4627932D02*
X14252126Y-4808592D01*
X13462186Y-5052095D02*
G75*
G02*
X13577861Y-4627932I56895J212338D01*
G01*
X14252126Y-4808592D02*
G75*
G02*
X14136451Y-5232754I-56895J-212338D01*
G01*
X8185334Y-4386418D02*
X7511074Y-4567095D01*
X8297238Y-4811591D02*
X7622978Y-4992268D01*
X7622978Y-4992268D02*
G75*
G02*
X7511074Y-4567095I-56896J212338D01*
G01*
X8185334Y-4386418D02*
G75*
G02*
X8297238Y-4811591I56896J-212338D01*
G01*
D12*
D13*
X7689156Y-4474343D02*
X8119156Y-4904343D01*
X8119156Y-4474343D02*
X7689156Y-4904343D01*
D14*
X7612069Y-4990192D02*
X8307535Y-4803842D01*
X8196243Y-4388494D02*
G75*
G02*
X8307535Y-4803842I55646J-207674D01*
G01*
X8196243Y-4388494D02*
X7500777Y-4574844D01*
X7500777Y-4574844D02*
G75*
G03*
X7612069Y-4990192I55646J-207674D01*
G01*
D13*
X13642156Y-4715343D02*
X14072156Y-5145343D01*
X14072156Y-4715343D02*
X13642156Y-5145343D01*
D14*
X14260535Y-4815844D02*
X13565069Y-4629494D01*
X13453777Y-5044842D02*
G75*
G02*
X13565069Y-4629494I55646J207674D01*
G01*
X13453777Y-5044842D02*
X14149243Y-5231192D01*
X14149243Y-5231192D02*
G75*
G03*
X14260535Y-4815844I55646J207674D01*
G01*
D12*
X5495474Y-15819215D02*
X5495474Y-15619215D01*
X5495474Y-15619215D02*
X5543093Y-15619215D01*
X5543093Y-15619215D02*
X5571665Y-15628738D01*
X5571665Y-15628738D02*
X5590712Y-15647786D01*
X5590712Y-15647786D02*
X5600236Y-15666834D01*
X5600236Y-15666834D02*
X5609760Y-15704929D01*
X5609760Y-15704929D02*
X5609760Y-15733500D01*
X5609760Y-15733500D02*
X5600236Y-15771596D01*
X5600236Y-15771596D02*
X5590712Y-15790643D01*
X5590712Y-15790643D02*
X5571665Y-15809691D01*
X5571665Y-15809691D02*
X5543093Y-15819215D01*
X5543093Y-15819215D02*
X5495474Y-15819215D01*
X5695474Y-15819215D02*
X5695474Y-15685881D01*
X5695474Y-15723977D02*
X5704998Y-15704929D01*
X5704998Y-15704929D02*
X5714522Y-15695405D01*
X5714522Y-15695405D02*
X5733569Y-15685881D01*
X5733569Y-15685881D02*
X5752617Y-15685881D01*
X5819284Y-15819215D02*
X5819284Y-15685881D01*
X5819284Y-15619215D02*
X5809760Y-15628738D01*
X5809760Y-15628738D02*
X5819284Y-15638262D01*
X5819284Y-15638262D02*
X5828807Y-15628738D01*
X5828807Y-15628738D02*
X5819284Y-15619215D01*
X5819284Y-15619215D02*
X5819284Y-15638262D01*
X5943093Y-15819215D02*
X5924045Y-15809691D01*
X5924045Y-15809691D02*
X5914522Y-15790643D01*
X5914522Y-15790643D02*
X5914522Y-15619215D01*
X6047855Y-15819215D02*
X6028807Y-15809691D01*
X6028807Y-15809691D02*
X6019284Y-15790643D01*
X6019284Y-15790643D02*
X6019284Y-15619215D01*
X6276426Y-15819215D02*
X6276426Y-15619215D01*
X6276426Y-15619215D02*
X6343093Y-15762072D01*
X6343093Y-15762072D02*
X6409760Y-15619215D01*
X6409760Y-15619215D02*
X6409760Y-15819215D01*
X6590712Y-15819215D02*
X6590712Y-15714453D01*
X6590712Y-15714453D02*
X6581188Y-15695405D01*
X6581188Y-15695405D02*
X6562141Y-15685881D01*
X6562141Y-15685881D02*
X6524045Y-15685881D01*
X6524045Y-15685881D02*
X6504998Y-15695405D01*
X6590712Y-15809691D02*
X6571665Y-15819215D01*
X6571665Y-15819215D02*
X6524045Y-15819215D01*
X6524045Y-15819215D02*
X6504998Y-15809691D01*
X6504998Y-15809691D02*
X6495474Y-15790643D01*
X6495474Y-15790643D02*
X6495474Y-15771596D01*
X6495474Y-15771596D02*
X6504998Y-15752548D01*
X6504998Y-15752548D02*
X6524045Y-15743024D01*
X6524045Y-15743024D02*
X6571665Y-15743024D01*
X6571665Y-15743024D02*
X6590712Y-15733500D01*
X6685950Y-15685881D02*
X6685950Y-15885881D01*
X6685950Y-15695405D02*
X6704998Y-15685881D01*
X6704998Y-15685881D02*
X6743093Y-15685881D01*
X6743093Y-15685881D02*
X6762141Y-15695405D01*
X6762141Y-15695405D02*
X6771665Y-15704929D01*
X6771665Y-15704929D02*
X6781188Y-15723977D01*
X6781188Y-15723977D02*
X6781188Y-15781119D01*
X6781188Y-15781119D02*
X6771665Y-15800167D01*
X6771665Y-15800167D02*
X6762141Y-15809691D01*
X6762141Y-15809691D02*
X6743093Y-15819215D01*
X6743093Y-15819215D02*
X6704998Y-15819215D01*
X6704998Y-15819215D02*
X6685950Y-15809691D01*
X6866903Y-15800167D02*
X6876426Y-15809691D01*
X6876426Y-15809691D02*
X6866903Y-15819215D01*
X6866903Y-15819215D02*
X6857379Y-15809691D01*
X6857379Y-15809691D02*
X6866903Y-15800167D01*
X6866903Y-15800167D02*
X6866903Y-15819215D01*
X6866903Y-15695405D02*
X6876426Y-15704929D01*
X6876426Y-15704929D02*
X6866903Y-15714453D01*
X6866903Y-15714453D02*
X6857379Y-15704929D01*
X6857379Y-15704929D02*
X6866903Y-15695405D01*
X6866903Y-15695405D02*
X6866903Y-15714453D01*
X5034697Y-16047731D02*
X5234697Y-16247731D01*
X5234697Y-16047731D02*
X5034697Y-16247731D01*
X5581188Y-16105881D02*
X5581188Y-16239215D01*
X5533569Y-16029691D02*
X5485950Y-16172548D01*
X5485950Y-16172548D02*
X5609760Y-16172548D01*
X5685950Y-16220167D02*
X5695474Y-16229691D01*
X5695474Y-16229691D02*
X5685950Y-16239215D01*
X5685950Y-16239215D02*
X5676426Y-16229691D01*
X5676426Y-16229691D02*
X5685950Y-16220167D01*
X5685950Y-16220167D02*
X5685950Y-16239215D01*
X5762141Y-16039215D02*
X5885950Y-16039215D01*
X5885950Y-16039215D02*
X5819284Y-16115405D01*
X5819284Y-16115405D02*
X5847855Y-16115405D01*
X5847855Y-16115405D02*
X5866903Y-16124929D01*
X5866903Y-16124929D02*
X5876426Y-16134453D01*
X5876426Y-16134453D02*
X5885950Y-16153500D01*
X5885950Y-16153500D02*
X5885950Y-16201119D01*
X5885950Y-16201119D02*
X5876426Y-16220167D01*
X5876426Y-16220167D02*
X5866903Y-16229691D01*
X5866903Y-16229691D02*
X5847855Y-16239215D01*
X5847855Y-16239215D02*
X5790712Y-16239215D01*
X5790712Y-16239215D02*
X5771665Y-16229691D01*
X5771665Y-16229691D02*
X5762141Y-16220167D01*
X6009760Y-16039215D02*
X6028807Y-16039215D01*
X6028807Y-16039215D02*
X6047855Y-16048738D01*
X6047855Y-16048738D02*
X6057379Y-16058262D01*
X6057379Y-16058262D02*
X6066903Y-16077310D01*
X6066903Y-16077310D02*
X6076426Y-16115405D01*
X6076426Y-16115405D02*
X6076426Y-16163024D01*
X6076426Y-16163024D02*
X6066903Y-16201119D01*
X6066903Y-16201119D02*
X6057379Y-16220167D01*
X6057379Y-16220167D02*
X6047855Y-16229691D01*
X6047855Y-16229691D02*
X6028807Y-16239215D01*
X6028807Y-16239215D02*
X6009760Y-16239215D01*
X6009760Y-16239215D02*
X5990712Y-16229691D01*
X5990712Y-16229691D02*
X5981188Y-16220167D01*
X5981188Y-16220167D02*
X5971665Y-16201119D01*
X5971665Y-16201119D02*
X5962141Y-16163024D01*
X5962141Y-16163024D02*
X5962141Y-16115405D01*
X5962141Y-16115405D02*
X5971665Y-16077310D01*
X5971665Y-16077310D02*
X5981188Y-16058262D01*
X5981188Y-16058262D02*
X5990712Y-16048738D01*
X5990712Y-16048738D02*
X6009760Y-16039215D01*
X6200236Y-16039215D02*
X6219284Y-16039215D01*
X6219284Y-16039215D02*
X6238331Y-16048738D01*
X6238331Y-16048738D02*
X6247855Y-16058262D01*
X6247855Y-16058262D02*
X6257379Y-16077310D01*
X6257379Y-16077310D02*
X6266903Y-16115405D01*
X6266903Y-16115405D02*
X6266903Y-16163024D01*
X6266903Y-16163024D02*
X6257379Y-16201119D01*
X6257379Y-16201119D02*
X6247855Y-16220167D01*
X6247855Y-16220167D02*
X6238331Y-16229691D01*
X6238331Y-16229691D02*
X6219284Y-16239215D01*
X6219284Y-16239215D02*
X6200236Y-16239215D01*
X6200236Y-16239215D02*
X6181188Y-16229691D01*
X6181188Y-16229691D02*
X6171665Y-16220167D01*
X6171665Y-16220167D02*
X6162141Y-16201119D01*
X6162141Y-16201119D02*
X6152617Y-16163024D01*
X6152617Y-16163024D02*
X6152617Y-16115405D01*
X6152617Y-16115405D02*
X6162141Y-16077310D01*
X6162141Y-16077310D02*
X6171665Y-16058262D01*
X6171665Y-16058262D02*
X6181188Y-16048738D01*
X6181188Y-16048738D02*
X6200236Y-16039215D01*
X6352617Y-16239215D02*
X6352617Y-16105881D01*
X6352617Y-16124929D02*
X6362141Y-16115405D01*
X6362141Y-16115405D02*
X6381188Y-16105881D01*
X6381188Y-16105881D02*
X6409760Y-16105881D01*
X6409760Y-16105881D02*
X6428807Y-16115405D01*
X6428807Y-16115405D02*
X6438331Y-16134453D01*
X6438331Y-16134453D02*
X6438331Y-16239215D01*
X6438331Y-16134453D02*
X6447855Y-16115405D01*
X6447855Y-16115405D02*
X6466903Y-16105881D01*
X6466903Y-16105881D02*
X6495474Y-16105881D01*
X6495474Y-16105881D02*
X6514522Y-16115405D01*
X6514522Y-16115405D02*
X6524046Y-16134453D01*
X6524046Y-16134453D02*
X6524046Y-16239215D01*
X6619284Y-16239215D02*
X6619284Y-16105881D01*
X6619284Y-16124929D02*
X6628807Y-16115405D01*
X6628807Y-16115405D02*
X6647855Y-16105881D01*
X6647855Y-16105881D02*
X6676427Y-16105881D01*
X6676427Y-16105881D02*
X6695474Y-16115405D01*
X6695474Y-16115405D02*
X6704998Y-16134453D01*
X6704998Y-16134453D02*
X6704998Y-16239215D01*
X6704998Y-16134453D02*
X6714522Y-16115405D01*
X6714522Y-16115405D02*
X6733569Y-16105881D01*
X6733569Y-16105881D02*
X6762141Y-16105881D01*
X6762141Y-16105881D02*
X6781188Y-16115405D01*
X6781188Y-16115405D02*
X6790712Y-16134453D01*
X6790712Y-16134453D02*
X6790712Y-16239215D01*
X7181188Y-16029691D02*
X7009760Y-16286834D01*
X7438331Y-16039215D02*
X7457379Y-16039215D01*
X7457379Y-16039215D02*
X7476427Y-16048738D01*
X7476427Y-16048738D02*
X7485950Y-16058262D01*
X7485950Y-16058262D02*
X7495474Y-16077310D01*
X7495474Y-16077310D02*
X7504998Y-16115405D01*
X7504998Y-16115405D02*
X7504998Y-16163024D01*
X7504998Y-16163024D02*
X7495474Y-16201119D01*
X7495474Y-16201119D02*
X7485950Y-16220167D01*
X7485950Y-16220167D02*
X7476427Y-16229691D01*
X7476427Y-16229691D02*
X7457379Y-16239215D01*
X7457379Y-16239215D02*
X7438331Y-16239215D01*
X7438331Y-16239215D02*
X7419284Y-16229691D01*
X7419284Y-16229691D02*
X7409760Y-16220167D01*
X7409760Y-16220167D02*
X7400236Y-16201119D01*
X7400236Y-16201119D02*
X7390712Y-16163024D01*
X7390712Y-16163024D02*
X7390712Y-16115405D01*
X7390712Y-16115405D02*
X7400236Y-16077310D01*
X7400236Y-16077310D02*
X7409760Y-16058262D01*
X7409760Y-16058262D02*
X7419284Y-16048738D01*
X7419284Y-16048738D02*
X7438331Y-16039215D01*
X7590712Y-16220167D02*
X7600236Y-16229691D01*
X7600236Y-16229691D02*
X7590712Y-16239215D01*
X7590712Y-16239215D02*
X7581189Y-16229691D01*
X7581189Y-16229691D02*
X7590712Y-16220167D01*
X7590712Y-16220167D02*
X7590712Y-16239215D01*
X7790712Y-16239215D02*
X7676427Y-16239215D01*
X7733569Y-16239215D02*
X7733569Y-16039215D01*
X7733569Y-16039215D02*
X7714522Y-16067786D01*
X7714522Y-16067786D02*
X7695474Y-16086834D01*
X7695474Y-16086834D02*
X7676427Y-16096357D01*
X7962141Y-16039215D02*
X7924046Y-16039215D01*
X7924046Y-16039215D02*
X7904998Y-16048738D01*
X7904998Y-16048738D02*
X7895474Y-16058262D01*
X7895474Y-16058262D02*
X7876427Y-16086834D01*
X7876427Y-16086834D02*
X7866903Y-16124929D01*
X7866903Y-16124929D02*
X7866903Y-16201119D01*
X7866903Y-16201119D02*
X7876427Y-16220167D01*
X7876427Y-16220167D02*
X7885950Y-16229691D01*
X7885950Y-16229691D02*
X7904998Y-16239215D01*
X7904998Y-16239215D02*
X7943093Y-16239215D01*
X7943093Y-16239215D02*
X7962141Y-16229691D01*
X7962141Y-16229691D02*
X7971665Y-16220167D01*
X7971665Y-16220167D02*
X7981189Y-16201119D01*
X7981189Y-16201119D02*
X7981189Y-16153500D01*
X7981189Y-16153500D02*
X7971665Y-16134453D01*
X7971665Y-16134453D02*
X7962141Y-16124929D01*
X7962141Y-16124929D02*
X7943093Y-16115405D01*
X7943093Y-16115405D02*
X7904998Y-16115405D01*
X7904998Y-16115405D02*
X7885950Y-16124929D01*
X7885950Y-16124929D02*
X7876427Y-16134453D01*
X7876427Y-16134453D02*
X7866903Y-16153500D01*
X8076427Y-16239215D02*
X8114522Y-16239215D01*
X8114522Y-16239215D02*
X8133570Y-16229691D01*
X8133570Y-16229691D02*
X8143093Y-16220167D01*
X8143093Y-16220167D02*
X8162141Y-16191596D01*
X8162141Y-16191596D02*
X8171665Y-16153500D01*
X8171665Y-16153500D02*
X8171665Y-16077310D01*
X8171665Y-16077310D02*
X8162141Y-16058262D01*
X8162141Y-16058262D02*
X8152617Y-16048738D01*
X8152617Y-16048738D02*
X8133570Y-16039215D01*
X8133570Y-16039215D02*
X8095474Y-16039215D01*
X8095474Y-16039215D02*
X8076427Y-16048738D01*
X8076427Y-16048738D02*
X8066903Y-16058262D01*
X8066903Y-16058262D02*
X8057379Y-16077310D01*
X8057379Y-16077310D02*
X8057379Y-16124929D01*
X8057379Y-16124929D02*
X8066903Y-16143977D01*
X8066903Y-16143977D02*
X8076427Y-16153500D01*
X8076427Y-16153500D02*
X8095474Y-16163024D01*
X8095474Y-16163024D02*
X8133570Y-16163024D01*
X8133570Y-16163024D02*
X8152617Y-16153500D01*
X8152617Y-16153500D02*
X8162141Y-16143977D01*
X8162141Y-16143977D02*
X8171665Y-16124929D01*
X8238331Y-16039215D02*
X8362141Y-16039215D01*
X8362141Y-16039215D02*
X8295474Y-16115405D01*
X8295474Y-16115405D02*
X8324046Y-16115405D01*
X8324046Y-16115405D02*
X8343093Y-16124929D01*
X8343093Y-16124929D02*
X8352617Y-16134453D01*
X8352617Y-16134453D02*
X8362141Y-16153500D01*
X8362141Y-16153500D02*
X8362141Y-16201119D01*
X8362141Y-16201119D02*
X8352617Y-16220167D01*
X8352617Y-16220167D02*
X8343093Y-16229691D01*
X8343093Y-16229691D02*
X8324046Y-16239215D01*
X8324046Y-16239215D02*
X8266903Y-16239215D01*
X8266903Y-16239215D02*
X8247855Y-16229691D01*
X8247855Y-16229691D02*
X8238331Y-16220167D01*
X8438332Y-16039215D02*
X8438332Y-16077310D01*
X8514522Y-16039215D02*
X8514522Y-16077310D01*
X8809760Y-16315405D02*
X8800236Y-16305881D01*
X8800236Y-16305881D02*
X8781189Y-16277310D01*
X8781189Y-16277310D02*
X8771665Y-16258262D01*
X8771665Y-16258262D02*
X8762141Y-16229691D01*
X8762141Y-16229691D02*
X8752617Y-16182072D01*
X8752617Y-16182072D02*
X8752617Y-16143977D01*
X8752617Y-16143977D02*
X8762141Y-16096357D01*
X8762141Y-16096357D02*
X8771665Y-16067786D01*
X8771665Y-16067786D02*
X8781189Y-16048738D01*
X8781189Y-16048738D02*
X8800236Y-16020167D01*
X8800236Y-16020167D02*
X8809760Y-16010643D01*
X8924046Y-16039215D02*
X8943094Y-16039215D01*
X8943094Y-16039215D02*
X8962141Y-16048738D01*
X8962141Y-16048738D02*
X8971665Y-16058262D01*
X8971665Y-16058262D02*
X8981189Y-16077310D01*
X8981189Y-16077310D02*
X8990713Y-16115405D01*
X8990713Y-16115405D02*
X8990713Y-16163024D01*
X8990713Y-16163024D02*
X8981189Y-16201119D01*
X8981189Y-16201119D02*
X8971665Y-16220167D01*
X8971665Y-16220167D02*
X8962141Y-16229691D01*
X8962141Y-16229691D02*
X8943094Y-16239215D01*
X8943094Y-16239215D02*
X8924046Y-16239215D01*
X8924046Y-16239215D02*
X8904998Y-16229691D01*
X8904998Y-16229691D02*
X8895474Y-16220167D01*
X8895474Y-16220167D02*
X8885951Y-16201119D01*
X8885951Y-16201119D02*
X8876427Y-16163024D01*
X8876427Y-16163024D02*
X8876427Y-16115405D01*
X8876427Y-16115405D02*
X8885951Y-16077310D01*
X8885951Y-16077310D02*
X8895474Y-16058262D01*
X8895474Y-16058262D02*
X8904998Y-16048738D01*
X8904998Y-16048738D02*
X8924046Y-16039215D01*
X9228808Y-16239215D02*
X9228808Y-16039215D01*
X9314522Y-16239215D02*
X9314522Y-16134453D01*
X9314522Y-16134453D02*
X9304998Y-16115405D01*
X9304998Y-16115405D02*
X9285951Y-16105881D01*
X9285951Y-16105881D02*
X9257379Y-16105881D01*
X9257379Y-16105881D02*
X9238332Y-16115405D01*
X9238332Y-16115405D02*
X9228808Y-16124929D01*
X9438332Y-16239215D02*
X9419284Y-16229691D01*
X9419284Y-16229691D02*
X9409760Y-16220167D01*
X9409760Y-16220167D02*
X9400236Y-16201119D01*
X9400236Y-16201119D02*
X9400236Y-16143977D01*
X9400236Y-16143977D02*
X9409760Y-16124929D01*
X9409760Y-16124929D02*
X9419284Y-16115405D01*
X9419284Y-16115405D02*
X9438332Y-16105881D01*
X9438332Y-16105881D02*
X9466903Y-16105881D01*
X9466903Y-16105881D02*
X9485951Y-16115405D01*
X9485951Y-16115405D02*
X9495475Y-16124929D01*
X9495475Y-16124929D02*
X9504998Y-16143977D01*
X9504998Y-16143977D02*
X9504998Y-16201119D01*
X9504998Y-16201119D02*
X9495475Y-16220167D01*
X9495475Y-16220167D02*
X9485951Y-16229691D01*
X9485951Y-16229691D02*
X9466903Y-16239215D01*
X9466903Y-16239215D02*
X9438332Y-16239215D01*
X9619284Y-16239215D02*
X9600236Y-16229691D01*
X9600236Y-16229691D02*
X9590713Y-16210643D01*
X9590713Y-16210643D02*
X9590713Y-16039215D01*
X9771665Y-16229691D02*
X9752617Y-16239215D01*
X9752617Y-16239215D02*
X9714522Y-16239215D01*
X9714522Y-16239215D02*
X9695475Y-16229691D01*
X9695475Y-16229691D02*
X9685951Y-16210643D01*
X9685951Y-16210643D02*
X9685951Y-16134453D01*
X9685951Y-16134453D02*
X9695475Y-16115405D01*
X9695475Y-16115405D02*
X9714522Y-16105881D01*
X9714522Y-16105881D02*
X9752617Y-16105881D01*
X9752617Y-16105881D02*
X9771665Y-16115405D01*
X9771665Y-16115405D02*
X9781189Y-16134453D01*
X9781189Y-16134453D02*
X9781189Y-16153500D01*
X9781189Y-16153500D02*
X9685951Y-16172548D01*
X9857379Y-16229691D02*
X9876427Y-16239215D01*
X9876427Y-16239215D02*
X9914522Y-16239215D01*
X9914522Y-16239215D02*
X9933570Y-16229691D01*
X9933570Y-16229691D02*
X9943094Y-16210643D01*
X9943094Y-16210643D02*
X9943094Y-16201119D01*
X9943094Y-16201119D02*
X9933570Y-16182072D01*
X9933570Y-16182072D02*
X9914522Y-16172548D01*
X9914522Y-16172548D02*
X9885951Y-16172548D01*
X9885951Y-16172548D02*
X9866903Y-16163024D01*
X9866903Y-16163024D02*
X9857379Y-16143977D01*
X9857379Y-16143977D02*
X9857379Y-16134453D01*
X9857379Y-16134453D02*
X9866903Y-16115405D01*
X9866903Y-16115405D02*
X9885951Y-16105881D01*
X9885951Y-16105881D02*
X9914522Y-16105881D01*
X9914522Y-16105881D02*
X9933570Y-16115405D01*
X10181189Y-16163024D02*
X10333570Y-16163024D01*
X10257379Y-16239215D02*
X10257379Y-16086834D01*
X10571665Y-16058262D02*
X10581189Y-16048738D01*
X10581189Y-16048738D02*
X10600237Y-16039215D01*
X10600237Y-16039215D02*
X10647856Y-16039215D01*
X10647856Y-16039215D02*
X10666903Y-16048738D01*
X10666903Y-16048738D02*
X10676427Y-16058262D01*
X10676427Y-16058262D02*
X10685951Y-16077310D01*
X10685951Y-16077310D02*
X10685951Y-16096357D01*
X10685951Y-16096357D02*
X10676427Y-16124929D01*
X10676427Y-16124929D02*
X10562141Y-16239215D01*
X10562141Y-16239215D02*
X10685951Y-16239215D01*
X10914522Y-16229691D02*
X10933570Y-16239215D01*
X10933570Y-16239215D02*
X10971665Y-16239215D01*
X10971665Y-16239215D02*
X10990713Y-16229691D01*
X10990713Y-16229691D02*
X11000237Y-16210643D01*
X11000237Y-16210643D02*
X11000237Y-16201119D01*
X11000237Y-16201119D02*
X10990713Y-16182072D01*
X10990713Y-16182072D02*
X10971665Y-16172548D01*
X10971665Y-16172548D02*
X10943094Y-16172548D01*
X10943094Y-16172548D02*
X10924046Y-16163024D01*
X10924046Y-16163024D02*
X10914522Y-16143977D01*
X10914522Y-16143977D02*
X10914522Y-16134453D01*
X10914522Y-16134453D02*
X10924046Y-16115405D01*
X10924046Y-16115405D02*
X10943094Y-16105881D01*
X10943094Y-16105881D02*
X10971665Y-16105881D01*
X10971665Y-16105881D02*
X10990713Y-16115405D01*
X11114522Y-16239215D02*
X11095475Y-16229691D01*
X11095475Y-16229691D02*
X11085951Y-16210643D01*
X11085951Y-16210643D02*
X11085951Y-16039215D01*
X11219284Y-16239215D02*
X11200237Y-16229691D01*
X11200237Y-16229691D02*
X11190713Y-16220167D01*
X11190713Y-16220167D02*
X11181189Y-16201119D01*
X11181189Y-16201119D02*
X11181189Y-16143977D01*
X11181189Y-16143977D02*
X11190713Y-16124929D01*
X11190713Y-16124929D02*
X11200237Y-16115405D01*
X11200237Y-16115405D02*
X11219284Y-16105881D01*
X11219284Y-16105881D02*
X11247856Y-16105881D01*
X11247856Y-16105881D02*
X11266903Y-16115405D01*
X11266903Y-16115405D02*
X11276427Y-16124929D01*
X11276427Y-16124929D02*
X11285951Y-16143977D01*
X11285951Y-16143977D02*
X11285951Y-16201119D01*
X11285951Y-16201119D02*
X11276427Y-16220167D01*
X11276427Y-16220167D02*
X11266903Y-16229691D01*
X11266903Y-16229691D02*
X11247856Y-16239215D01*
X11247856Y-16239215D02*
X11219284Y-16239215D01*
X11343094Y-16105881D02*
X11419284Y-16105881D01*
X11371665Y-16039215D02*
X11371665Y-16210643D01*
X11371665Y-16210643D02*
X11381189Y-16229691D01*
X11381189Y-16229691D02*
X11400237Y-16239215D01*
X11400237Y-16239215D02*
X11419284Y-16239215D01*
X11476427Y-16229691D02*
X11495475Y-16239215D01*
X11495475Y-16239215D02*
X11533570Y-16239215D01*
X11533570Y-16239215D02*
X11552618Y-16229691D01*
X11552618Y-16229691D02*
X11562141Y-16210643D01*
X11562141Y-16210643D02*
X11562141Y-16201119D01*
X11562141Y-16201119D02*
X11552618Y-16182072D01*
X11552618Y-16182072D02*
X11533570Y-16172548D01*
X11533570Y-16172548D02*
X11504998Y-16172548D01*
X11504998Y-16172548D02*
X11485951Y-16163024D01*
X11485951Y-16163024D02*
X11476427Y-16143977D01*
X11476427Y-16143977D02*
X11476427Y-16134453D01*
X11476427Y-16134453D02*
X11485951Y-16115405D01*
X11485951Y-16115405D02*
X11504998Y-16105881D01*
X11504998Y-16105881D02*
X11533570Y-16105881D01*
X11533570Y-16105881D02*
X11552618Y-16115405D01*
X11628808Y-16315405D02*
X11638332Y-16305881D01*
X11638332Y-16305881D02*
X11657379Y-16277310D01*
X11657379Y-16277310D02*
X11666903Y-16258262D01*
X11666903Y-16258262D02*
X11676427Y-16229691D01*
X11676427Y-16229691D02*
X11685951Y-16182072D01*
X11685951Y-16182072D02*
X11685951Y-16143977D01*
X11685951Y-16143977D02*
X11676427Y-16096357D01*
X11676427Y-16096357D02*
X11666903Y-16067786D01*
X11666903Y-16067786D02*
X11657379Y-16048738D01*
X11657379Y-16048738D02*
X11638332Y-16020167D01*
X11638332Y-16020167D02*
X11628808Y-16010643D01*
X11990713Y-16315405D02*
X11981189Y-16305881D01*
X11981189Y-16305881D02*
X11962141Y-16277310D01*
X11962141Y-16277310D02*
X11952618Y-16258262D01*
X11952618Y-16258262D02*
X11943094Y-16229691D01*
X11943094Y-16229691D02*
X11933570Y-16182072D01*
X11933570Y-16182072D02*
X11933570Y-16143977D01*
X11933570Y-16143977D02*
X11943094Y-16096357D01*
X11943094Y-16096357D02*
X11952618Y-16067786D01*
X11952618Y-16067786D02*
X11962141Y-16048738D01*
X11962141Y-16048738D02*
X11981189Y-16020167D01*
X11981189Y-16020167D02*
X11990713Y-16010643D01*
X12066903Y-16105881D02*
X12066903Y-16239215D01*
X12066903Y-16124929D02*
X12076427Y-16115405D01*
X12076427Y-16115405D02*
X12095475Y-16105881D01*
X12095475Y-16105881D02*
X12124046Y-16105881D01*
X12124046Y-16105881D02*
X12143094Y-16115405D01*
X12143094Y-16115405D02*
X12152618Y-16134453D01*
X12152618Y-16134453D02*
X12152618Y-16239215D01*
X12276427Y-16239215D02*
X12257379Y-16229691D01*
X12257379Y-16229691D02*
X12247856Y-16220167D01*
X12247856Y-16220167D02*
X12238332Y-16201119D01*
X12238332Y-16201119D02*
X12238332Y-16143977D01*
X12238332Y-16143977D02*
X12247856Y-16124929D01*
X12247856Y-16124929D02*
X12257379Y-16115405D01*
X12257379Y-16115405D02*
X12276427Y-16105881D01*
X12276427Y-16105881D02*
X12304999Y-16105881D01*
X12304999Y-16105881D02*
X12324046Y-16115405D01*
X12324046Y-16115405D02*
X12333570Y-16124929D01*
X12333570Y-16124929D02*
X12343094Y-16143977D01*
X12343094Y-16143977D02*
X12343094Y-16201119D01*
X12343094Y-16201119D02*
X12333570Y-16220167D01*
X12333570Y-16220167D02*
X12324046Y-16229691D01*
X12324046Y-16229691D02*
X12304999Y-16239215D01*
X12304999Y-16239215D02*
X12276427Y-16239215D01*
X12400237Y-16105881D02*
X12476427Y-16105881D01*
X12428808Y-16039215D02*
X12428808Y-16210643D01*
X12428808Y-16210643D02*
X12438332Y-16229691D01*
X12438332Y-16229691D02*
X12457379Y-16239215D01*
X12457379Y-16239215D02*
X12476427Y-16239215D01*
X12695475Y-16105881D02*
X12695475Y-16305881D01*
X12695475Y-16115405D02*
X12714522Y-16105881D01*
X12714522Y-16105881D02*
X12752618Y-16105881D01*
X12752618Y-16105881D02*
X12771665Y-16115405D01*
X12771665Y-16115405D02*
X12781189Y-16124929D01*
X12781189Y-16124929D02*
X12790713Y-16143977D01*
X12790713Y-16143977D02*
X12790713Y-16201119D01*
X12790713Y-16201119D02*
X12781189Y-16220167D01*
X12781189Y-16220167D02*
X12771665Y-16229691D01*
X12771665Y-16229691D02*
X12752618Y-16239215D01*
X12752618Y-16239215D02*
X12714522Y-16239215D01*
X12714522Y-16239215D02*
X12695475Y-16229691D01*
X12904999Y-16239215D02*
X12885951Y-16229691D01*
X12885951Y-16229691D02*
X12876427Y-16210643D01*
X12876427Y-16210643D02*
X12876427Y-16039215D01*
X13066903Y-16239215D02*
X13066903Y-16134453D01*
X13066903Y-16134453D02*
X13057380Y-16115405D01*
X13057380Y-16115405D02*
X13038332Y-16105881D01*
X13038332Y-16105881D02*
X13000237Y-16105881D01*
X13000237Y-16105881D02*
X12981189Y-16115405D01*
X13066903Y-16229691D02*
X13047856Y-16239215D01*
X13047856Y-16239215D02*
X13000237Y-16239215D01*
X13000237Y-16239215D02*
X12981189Y-16229691D01*
X12981189Y-16229691D02*
X12971665Y-16210643D01*
X12971665Y-16210643D02*
X12971665Y-16191596D01*
X12971665Y-16191596D02*
X12981189Y-16172548D01*
X12981189Y-16172548D02*
X13000237Y-16163024D01*
X13000237Y-16163024D02*
X13047856Y-16163024D01*
X13047856Y-16163024D02*
X13066903Y-16153500D01*
X13133570Y-16105881D02*
X13209760Y-16105881D01*
X13162141Y-16039215D02*
X13162141Y-16210643D01*
X13162141Y-16210643D02*
X13171665Y-16229691D01*
X13171665Y-16229691D02*
X13190713Y-16239215D01*
X13190713Y-16239215D02*
X13209760Y-16239215D01*
X13352618Y-16229691D02*
X13333570Y-16239215D01*
X13333570Y-16239215D02*
X13295475Y-16239215D01*
X13295475Y-16239215D02*
X13276427Y-16229691D01*
X13276427Y-16229691D02*
X13266903Y-16210643D01*
X13266903Y-16210643D02*
X13266903Y-16134453D01*
X13266903Y-16134453D02*
X13276427Y-16115405D01*
X13276427Y-16115405D02*
X13295475Y-16105881D01*
X13295475Y-16105881D02*
X13333570Y-16105881D01*
X13333570Y-16105881D02*
X13352618Y-16115405D01*
X13352618Y-16115405D02*
X13362141Y-16134453D01*
X13362141Y-16134453D02*
X13362141Y-16153500D01*
X13362141Y-16153500D02*
X13266903Y-16172548D01*
X13533570Y-16239215D02*
X13533570Y-16039215D01*
X13533570Y-16229691D02*
X13514522Y-16239215D01*
X13514522Y-16239215D02*
X13476427Y-16239215D01*
X13476427Y-16239215D02*
X13457380Y-16229691D01*
X13457380Y-16229691D02*
X13447856Y-16220167D01*
X13447856Y-16220167D02*
X13438332Y-16201119D01*
X13438332Y-16201119D02*
X13438332Y-16143977D01*
X13438332Y-16143977D02*
X13447856Y-16124929D01*
X13447856Y-16124929D02*
X13457380Y-16115405D01*
X13457380Y-16115405D02*
X13476427Y-16105881D01*
X13476427Y-16105881D02*
X13514522Y-16105881D01*
X13514522Y-16105881D02*
X13533570Y-16115405D01*
X13609761Y-16315405D02*
X13619284Y-16305881D01*
X13619284Y-16305881D02*
X13638332Y-16277310D01*
X13638332Y-16277310D02*
X13647856Y-16258262D01*
X13647856Y-16258262D02*
X13657380Y-16229691D01*
X13657380Y-16229691D02*
X13666903Y-16182072D01*
X13666903Y-16182072D02*
X13666903Y-16143977D01*
X13666903Y-16143977D02*
X13657380Y-16096357D01*
X13657380Y-16096357D02*
X13647856Y-16067786D01*
X13647856Y-16067786D02*
X13638332Y-16048738D01*
X13638332Y-16048738D02*
X13619284Y-16020167D01*
X13619284Y-16020167D02*
X13609761Y-16010643D01*
M02*
