%TF.GenerationSoftware,KiCad,Pcbnew,8.0.8*%
%TF.CreationDate,2025-02-28T00:57:09-06:00*%
%TF.ProjectId,B-Sides 2025,422d5369-6465-4732-9032-3032352e6b69,rev?*%
%TF.SameCoordinates,Original*%
%TF.FileFunction,Paste,Bot*%
%TF.FilePolarity,Positive*%
%FSLAX46Y46*%
G04 Gerber Fmt 4.6, Leading zero omitted, Abs format (unit mm)*
G04 Created by KiCad (PCBNEW 8.0.8) date 2025-02-28 00:57:09*
%MOMM*%
%LPD*%
G01*
G04 APERTURE LIST*
G04 Aperture macros list*
%AMRoundRect*
0 Rectangle with rounded corners*
0 $1 Rounding radius*
0 $2 $3 $4 $5 $6 $7 $8 $9 X,Y pos of 4 corners*
0 Add a 4 corners polygon primitive as box body*
4,1,4,$2,$3,$4,$5,$6,$7,$8,$9,$2,$3,0*
0 Add four circle primitives for the rounded corners*
1,1,$1+$1,$2,$3*
1,1,$1+$1,$4,$5*
1,1,$1+$1,$6,$7*
1,1,$1+$1,$8,$9*
0 Add four rect primitives between the rounded corners*
20,1,$1+$1,$2,$3,$4,$5,0*
20,1,$1+$1,$4,$5,$6,$7,0*
20,1,$1+$1,$6,$7,$8,$9,0*
20,1,$1+$1,$8,$9,$2,$3,0*%
G04 Aperture macros list end*
%ADD10RoundRect,0.218750X0.256250X-0.218750X0.256250X0.218750X-0.256250X0.218750X-0.256250X-0.218750X0*%
%ADD11RoundRect,0.135000X0.135000X0.185000X-0.135000X0.185000X-0.135000X-0.185000X0.135000X-0.185000X0*%
%ADD12R,6.000000X5.500000*%
%ADD13RoundRect,0.140000X-0.140000X-0.170000X0.140000X-0.170000X0.140000X0.170000X-0.140000X0.170000X0*%
%ADD14RoundRect,0.135000X0.185000X-0.135000X0.185000X0.135000X-0.185000X0.135000X-0.185000X-0.135000X0*%
%ADD15RoundRect,0.135000X-0.135000X-0.185000X0.135000X-0.185000X0.135000X0.185000X-0.135000X0.185000X0*%
%ADD16RoundRect,0.135000X-0.185000X0.135000X-0.185000X-0.135000X0.185000X-0.135000X0.185000X0.135000X0*%
%ADD17RoundRect,0.140000X0.170000X-0.140000X0.170000X0.140000X-0.170000X0.140000X-0.170000X-0.140000X0*%
%ADD18RoundRect,0.167500X0.167500X0.167500X-0.167500X0.167500X-0.167500X-0.167500X0.167500X-0.167500X0*%
%ADD19RoundRect,0.050000X0.375000X0.050000X-0.375000X0.050000X-0.375000X-0.050000X0.375000X-0.050000X0*%
%ADD20RoundRect,0.050000X0.050000X0.375000X-0.050000X0.375000X-0.050000X-0.375000X0.050000X-0.375000X0*%
%ADD21RoundRect,0.250000X-0.250000X-0.250000X0.250000X-0.250000X0.250000X0.250000X-0.250000X0.250000X0*%
%ADD22RoundRect,0.140000X0.140000X0.170000X-0.140000X0.170000X-0.140000X-0.170000X0.140000X-0.170000X0*%
%ADD23RoundRect,0.218750X-0.256250X0.218750X-0.256250X-0.218750X0.256250X-0.218750X0.256250X0.218750X0*%
%ADD24RoundRect,0.200000X-0.200000X0.250000X-0.200000X-0.250000X0.200000X-0.250000X0.200000X0.250000X0*%
G04 APERTURE END LIST*
D10*
%TO.C,Q1*%
X139890000Y-66427500D03*
X139890000Y-64852500D03*
%TD*%
D11*
%TO.C,R13*%
X114661560Y-66173431D03*
X113641560Y-66173431D03*
%TD*%
D12*
%TO.C,BT1*%
X124700000Y-135790000D03*
X94100000Y-135790000D03*
%TD*%
D13*
%TO.C,C1*%
X111931560Y-63513431D03*
X112891560Y-63513431D03*
%TD*%
D14*
%TO.C,R3*%
X105291560Y-61553431D03*
X105291560Y-60533431D03*
%TD*%
%TO.C,R14*%
X106911560Y-63553431D03*
X106911560Y-62533431D03*
%TD*%
D11*
%TO.C,R10*%
X105841560Y-63963431D03*
X104821560Y-63963431D03*
%TD*%
D15*
%TO.C,R4*%
X112491560Y-54513431D03*
X113511560Y-54513431D03*
%TD*%
D16*
%TO.C,R11*%
X108941560Y-52753431D03*
X108941560Y-53773431D03*
%TD*%
D17*
%TO.C,C3*%
X107921560Y-53793431D03*
X107921560Y-52833431D03*
%TD*%
D18*
%TO.C,U2*%
X108831560Y-58743431D03*
X108831560Y-57923431D03*
X108011560Y-58743431D03*
X108011560Y-57923431D03*
D19*
X109871560Y-57533431D03*
X109871560Y-57933431D03*
X109871560Y-58333431D03*
X109871560Y-58733431D03*
X109871560Y-59133431D03*
D20*
X109221560Y-59783431D03*
X108821560Y-59783431D03*
X108421560Y-59783431D03*
X108021560Y-59783431D03*
X107621560Y-59783431D03*
D19*
X106971560Y-59133431D03*
X106971560Y-58733431D03*
X106971560Y-58333431D03*
X106971560Y-57933431D03*
X106971560Y-57533431D03*
D20*
X107621560Y-56883431D03*
X108021560Y-56883431D03*
X108421560Y-56883431D03*
X108821560Y-56883431D03*
X109221560Y-56883431D03*
%TD*%
D21*
%TO.C,D13*%
X115201560Y-63423431D03*
X117701560Y-63423431D03*
%TD*%
D14*
%TO.C,R8*%
X105151560Y-53863431D03*
X105151560Y-52843431D03*
%TD*%
D15*
%TO.C,R7*%
X112811560Y-55643431D03*
X113831560Y-55643431D03*
%TD*%
D22*
%TO.C,C4*%
X110911560Y-62113431D03*
X109951560Y-62113431D03*
%TD*%
D11*
%TO.C,R1*%
X110971560Y-63523431D03*
X109951560Y-63523431D03*
%TD*%
D14*
%TO.C,R2*%
X110021560Y-54553431D03*
X110021560Y-53533431D03*
%TD*%
D11*
%TO.C,R12*%
X103251560Y-54833431D03*
X102231560Y-54833431D03*
%TD*%
D23*
%TO.C,Q2*%
X89511560Y-68435931D03*
X89511560Y-70010931D03*
%TD*%
D24*
%TO.C,Q3*%
X142761560Y-69183431D03*
X144661560Y-69183431D03*
X143711560Y-71183431D03*
%TD*%
D17*
%TO.C,C2*%
X104221560Y-54533431D03*
X104221560Y-53573431D03*
%TD*%
D14*
%TO.C,R5*%
X111171560Y-54613431D03*
X111171560Y-53593431D03*
%TD*%
D15*
%TO.C,R6*%
X102191560Y-55773431D03*
X103211560Y-55773431D03*
%TD*%
D14*
%TO.C,R9*%
X107921560Y-63553431D03*
X107921560Y-62533431D03*
%TD*%
M02*
