M48
; DRILL file {KiCad 8.0.8} date 2025-02-05T00:10:32-0600
; FORMAT={-:-/ absolute / inch / decimal}
; #@! TF.CreationDate,2025-02-05T00:10:32-06:00
; #@! TF.GenerationSoftware,Kicad,Pcbnew,8.0.8
; #@! TF.FileFunction,Plated,1,2,PTH
FMAT,2
INCH
; #@! TA.AperFunction,Plated,PTH,ViaDrill
T1C0.0118
; #@! TA.AperFunction,Plated,PTH,ComponentDrill
T2C0.0394
; #@! TA.AperFunction,Plated,PTH,ComponentDrill
T3C0.0400
; #@! TA.AperFunction,Plated,PTH,ComponentDrill
T4C0.1024
%
G90
G05
T1
X5.6819Y-3.3433
X5.7228Y-3.2764
X5.7358Y-3.3154
X5.7512Y-3.126
X5.7787Y-3.3185
X5.837Y-3.1284
X5.837Y-3.2348
X5.9185Y-3.1849
X5.9189Y-2.9677
X5.9213Y-2.7685
X5.9351Y-3.061
X5.9426Y-3.254
X5.9488Y-3.3902
X5.9774Y-3.5106
X5.9819Y-3.3748
X6.0095Y-3.241
X6.0167Y-3.3376
X6.0811Y-3.2902
X6.1059Y-3.0039
X6.1288Y-3.0523
X6.1551Y-3.1102
X6.1705Y-3.2563
X6.1721Y-3.0185
X6.1898Y-2.8473
X6.2028Y-2.9988
X6.239Y-2.9356
X6.2644Y-3.073
X6.2689Y-3.222
X6.2709Y-3.1882
X6.2781Y-2.8411
X6.2795Y-3.0905
X6.3154Y-3.4846
X6.3189Y-3.226
X6.3228Y-2.9523
X6.3431Y-2.979
X6.3496Y-3.1253
X6.3912Y-2.9531
X6.3984Y-3.189
X6.41Y-2.8521
X6.4339Y-2.8996
X6.4406Y-2.7161
X6.46Y-3.2187
X6.4638Y-3.1849
X6.4654Y-3.3551
X6.5313Y-2.8484
X6.5953Y-3.3122
X6.6177Y-3.2803
X6.6431Y-3.2555
X6.684Y-3.023
X6.7025Y-3.0924
X6.7327Y-3.274
X6.7556Y-3.1284
X6.782Y-3.2331
X6.8072Y-3.2797
X6.9118Y-3.3303
X7.4768Y-3.2413
X7.511Y-3.485
T2
X6.1669Y-2.7909
X6.1669Y-3.3618
X6.2654Y-3.3618
X6.3638Y-2.7909
X6.3638Y-3.3618
X6.6173Y-2.9528
X6.6173Y-3.0528
X6.6173Y-3.1528
T3
X4.2917Y-3.5626
X4.2917Y-3.6626
X4.3917Y-3.5626
X4.3917Y-3.6626
X4.4917Y-3.5626
X4.4917Y-3.6626
X8.013Y-3.7358
X8.013Y-3.8358
X8.113Y-3.7358
X8.113Y-3.8358
X8.213Y-3.7358
X8.213Y-3.8358
T4
X6.0449Y-3.0665
X6.4858Y-3.0665
M30
