%TF.GenerationSoftware,KiCad,Pcbnew,8.0.8*%
%TF.CreationDate,2025-02-05T00:10:25-06:00*%
%TF.ProjectId,B-Sides 2025,422d5369-6465-4732-9032-3032352e6b69,rev?*%
%TF.SameCoordinates,Original*%
%TF.FileFunction,Legend,Top*%
%TF.FilePolarity,Positive*%
%FSLAX46Y46*%
G04 Gerber Fmt 4.6, Leading zero omitted, Abs format (unit mm)*
G04 Created by KiCad (PCBNEW 8.0.8) date 2025-02-05 00:10:25*
%MOMM*%
%LPD*%
G01*
G04 APERTURE LIST*
%ADD10C,0.000000*%
%ADD11C,0.120000*%
%ADD12C,0.500000*%
%ADD13C,0.100000*%
G04 APERTURE END LIST*
D10*
G36*
X142143580Y-99135922D02*
G01*
X142203527Y-99138232D01*
X142262569Y-99142266D01*
X142320705Y-99148023D01*
X142377934Y-99155503D01*
X142434255Y-99164706D01*
X142489667Y-99175631D01*
X142544168Y-99188277D01*
X142597758Y-99202644D01*
X142650435Y-99218731D01*
X142702199Y-99236537D01*
X142753049Y-99256063D01*
X142802982Y-99277307D01*
X142851998Y-99300269D01*
X142900097Y-99324949D01*
X142947276Y-99351345D01*
X143007723Y-99388283D01*
X143064478Y-99426323D01*
X143117544Y-99465465D01*
X143166921Y-99505706D01*
X143212612Y-99547045D01*
X143254617Y-99589481D01*
X143292938Y-99633011D01*
X143327578Y-99677635D01*
X143358536Y-99723350D01*
X143385815Y-99770155D01*
X143409417Y-99818048D01*
X143429342Y-99867028D01*
X143445592Y-99917093D01*
X143458169Y-99968241D01*
X143467074Y-100020471D01*
X143472309Y-100073782D01*
X143107990Y-104732411D01*
X143100127Y-104802204D01*
X143088520Y-104870853D01*
X143073170Y-104938358D01*
X143054079Y-105004721D01*
X143031245Y-105069942D01*
X143004671Y-105134021D01*
X142974357Y-105196960D01*
X142940304Y-105258759D01*
X142902512Y-105319418D01*
X142860982Y-105378939D01*
X142815715Y-105437322D01*
X142766712Y-105494569D01*
X142713973Y-105550678D01*
X142657498Y-105605652D01*
X142597290Y-105659492D01*
X142533348Y-105712196D01*
X142466563Y-105763852D01*
X142398013Y-105814497D01*
X142255611Y-105912752D01*
X142106144Y-106006957D01*
X141949610Y-106097106D01*
X141786009Y-106183195D01*
X141615342Y-106265221D01*
X141437608Y-106343178D01*
X141252806Y-106417062D01*
X141409498Y-106459601D01*
X141570345Y-106501484D01*
X141735332Y-106542626D01*
X141904446Y-106582945D01*
X141946624Y-106593284D01*
X141987759Y-106604268D01*
X142027851Y-106615897D01*
X142066899Y-106628169D01*
X142104906Y-106641085D01*
X142141870Y-106654642D01*
X142177792Y-106668839D01*
X142212674Y-106683677D01*
X142246514Y-106699154D01*
X142279314Y-106715269D01*
X142311073Y-106732021D01*
X142341793Y-106749409D01*
X142371474Y-106767433D01*
X142400115Y-106786091D01*
X142427718Y-106805383D01*
X142454283Y-106825307D01*
X142479551Y-106848448D01*
X142503912Y-106872119D01*
X142527365Y-106896322D01*
X142549912Y-106921057D01*
X142571552Y-106946326D01*
X142592287Y-106972130D01*
X142612115Y-106998471D01*
X142631038Y-107025350D01*
X142649056Y-107052768D01*
X142666170Y-107080727D01*
X142682379Y-107109227D01*
X142697684Y-107138271D01*
X142712086Y-107167860D01*
X142725584Y-107197994D01*
X142738179Y-107228676D01*
X142749872Y-107259906D01*
X142760593Y-107291446D01*
X142770456Y-107323057D01*
X142779459Y-107354739D01*
X142787600Y-107386492D01*
X142794879Y-107418316D01*
X142801294Y-107450210D01*
X142806843Y-107482176D01*
X142811524Y-107514212D01*
X142815337Y-107546319D01*
X142818279Y-107578497D01*
X142820350Y-107610746D01*
X142821546Y-107643066D01*
X142821868Y-107675456D01*
X142821314Y-107707918D01*
X142819881Y-107740450D01*
X142817569Y-107773053D01*
X142769840Y-108378232D01*
X142716283Y-109147646D01*
X142651754Y-110045199D01*
X142571588Y-111034351D01*
X142388137Y-113195461D01*
X142201586Y-115387058D01*
X142191672Y-115474357D01*
X142176922Y-115560316D01*
X142157334Y-115644936D01*
X142132910Y-115728217D01*
X142103649Y-115810158D01*
X142069551Y-115890760D01*
X142030617Y-115970023D01*
X141986847Y-116047948D01*
X141938242Y-116124533D01*
X141884800Y-116199780D01*
X141826523Y-116273689D01*
X141763411Y-116346259D01*
X141695463Y-116417491D01*
X141622681Y-116487384D01*
X141545064Y-116555940D01*
X141462612Y-116623158D01*
X141375911Y-116688403D01*
X141285729Y-116750994D01*
X141192066Y-116810932D01*
X141094923Y-116868216D01*
X140994297Y-116922846D01*
X140890191Y-116974824D01*
X140782602Y-117024148D01*
X140671530Y-117070819D01*
X140556976Y-117114837D01*
X140438939Y-117156203D01*
X140317419Y-117194916D01*
X140192415Y-117230976D01*
X140063927Y-117264384D01*
X139931954Y-117295140D01*
X139796497Y-117323244D01*
X139657555Y-117348696D01*
X134897122Y-118164148D01*
X135099575Y-115783934D01*
X137920710Y-115783934D01*
X139239492Y-115558107D01*
X139916454Y-107596836D01*
X138629711Y-107817495D01*
X138428173Y-110189442D01*
X137920710Y-115783934D01*
X135099575Y-115783934D01*
X135934485Y-105967995D01*
X138787324Y-105967995D01*
X140041510Y-105753021D01*
X140431151Y-101169322D01*
X139176965Y-101384296D01*
X138917032Y-104439923D01*
X138787324Y-105967995D01*
X135934485Y-105967995D01*
X136436046Y-100071198D01*
X141743215Y-99161693D01*
X141787089Y-99155755D01*
X141830539Y-99150553D01*
X141873571Y-99146097D01*
X141916193Y-99142397D01*
X141958413Y-99139461D01*
X142000237Y-99137300D01*
X142041674Y-99135922D01*
X142082730Y-99135337D01*
X142143580Y-99135922D01*
G37*
G36*
X170966259Y-99628761D02*
G01*
X171035684Y-99632894D01*
X171102811Y-99639467D01*
X171167641Y-99648478D01*
X171230175Y-99659927D01*
X171290415Y-99673814D01*
X171348361Y-99690139D01*
X171404015Y-99708900D01*
X171457378Y-99730097D01*
X171508450Y-99753730D01*
X171557234Y-99779799D01*
X171603729Y-99808302D01*
X171647938Y-99839240D01*
X171689861Y-99872612D01*
X171729499Y-99908417D01*
X171778939Y-99958658D01*
X171824787Y-100010518D01*
X171867041Y-100063998D01*
X171905701Y-100119098D01*
X171940764Y-100175818D01*
X171972229Y-100234159D01*
X172000094Y-100294121D01*
X172024359Y-100355705D01*
X172045020Y-100418911D01*
X172062077Y-100483739D01*
X172075529Y-100550190D01*
X172085373Y-100618265D01*
X172091608Y-100687963D01*
X172094233Y-100759286D01*
X172093246Y-100832233D01*
X172088645Y-100906806D01*
X170937816Y-114436728D01*
X170920877Y-114647073D01*
X170906031Y-114855796D01*
X170893383Y-115062853D01*
X170883041Y-115268202D01*
X170877456Y-115370865D01*
X170870330Y-115474093D01*
X170861673Y-115577888D01*
X170851493Y-115682248D01*
X170839798Y-115787176D01*
X170826596Y-115892670D01*
X170811896Y-115998731D01*
X170795707Y-116105360D01*
X170784616Y-116166493D01*
X170769664Y-116227895D01*
X170750852Y-116289569D01*
X170728179Y-116351514D01*
X170701645Y-116413730D01*
X170671250Y-116476218D01*
X170636994Y-116538979D01*
X170598877Y-116602013D01*
X170556898Y-116665320D01*
X170511058Y-116728900D01*
X170461355Y-116792755D01*
X170407791Y-116856883D01*
X170350365Y-116921287D01*
X170289077Y-116985966D01*
X170223927Y-117050921D01*
X170154914Y-117116152D01*
X170083301Y-117180039D01*
X170010346Y-117240822D01*
X169936051Y-117298503D01*
X169860414Y-117353081D01*
X169783436Y-117404558D01*
X169705115Y-117452933D01*
X169625452Y-117498208D01*
X169544446Y-117540383D01*
X169462097Y-117579459D01*
X169378405Y-117615435D01*
X169293369Y-117648313D01*
X169206989Y-117678092D01*
X169119265Y-117704774D01*
X169030196Y-117728360D01*
X168939781Y-117748848D01*
X168848022Y-117766241D01*
X163508294Y-118681431D01*
X163710000Y-116310000D01*
X166594411Y-116310000D01*
X167881152Y-116089857D01*
X169105369Y-101695388D01*
X167818626Y-101916046D01*
X166594411Y-116310000D01*
X163710000Y-116310000D01*
X165047220Y-100588479D01*
X170386428Y-99673289D01*
X170444218Y-99663828D01*
X170501023Y-99655433D01*
X170556831Y-99648112D01*
X170611630Y-99641870D01*
X170665409Y-99636713D01*
X170718157Y-99632647D01*
X170769861Y-99629679D01*
X170820510Y-99627814D01*
X170894534Y-99627067D01*
X170966259Y-99628761D01*
G37*
G36*
X161466560Y-119031281D02*
G01*
X158539605Y-119533058D01*
X160078531Y-101440107D01*
X163005483Y-100938328D01*
X161466560Y-119031281D01*
G37*
G36*
X186908440Y-96901177D02*
G01*
X186968196Y-96902681D01*
X187027230Y-96905362D01*
X187085540Y-96909220D01*
X187143126Y-96914256D01*
X187199986Y-96920471D01*
X187256121Y-96927866D01*
X187311528Y-96936440D01*
X187366208Y-96946196D01*
X187420159Y-96957133D01*
X187473381Y-96969252D01*
X187525873Y-96982555D01*
X187577635Y-96997041D01*
X187628665Y-97012712D01*
X187678962Y-97029568D01*
X187728526Y-97047610D01*
X187804524Y-97078584D01*
X187875269Y-97111778D01*
X187940760Y-97147192D01*
X188000996Y-97184826D01*
X188029143Y-97204475D01*
X188055975Y-97224679D01*
X188081493Y-97245437D01*
X188105697Y-97266750D01*
X188128586Y-97288618D01*
X188150161Y-97311039D01*
X188170420Y-97334015D01*
X188189364Y-97357545D01*
X188206993Y-97381629D01*
X188223307Y-97406267D01*
X188238305Y-97431459D01*
X188251987Y-97457204D01*
X188264354Y-97483504D01*
X188275405Y-97510357D01*
X188285139Y-97537764D01*
X188293558Y-97565724D01*
X188300660Y-97594237D01*
X188306445Y-97623304D01*
X188310914Y-97652924D01*
X188314066Y-97683098D01*
X188315901Y-97713824D01*
X188316419Y-97745103D01*
X188315619Y-97776936D01*
X188313503Y-97809321D01*
X188007064Y-101407550D01*
X185144706Y-101898476D01*
X185401019Y-98883157D01*
X184018157Y-99119835D01*
X183758228Y-101799258D01*
X183751241Y-101887298D01*
X183745648Y-101970442D01*
X183741455Y-102048693D01*
X183738668Y-102122053D01*
X183737292Y-102190528D01*
X183737334Y-102254119D01*
X183738798Y-102312830D01*
X183741691Y-102366665D01*
X183743972Y-102392264D01*
X183747394Y-102417665D01*
X183751954Y-102442867D01*
X183757654Y-102467872D01*
X183764493Y-102492679D01*
X183772470Y-102517289D01*
X183781585Y-102541703D01*
X183791839Y-102565922D01*
X183803230Y-102589945D01*
X183815759Y-102613774D01*
X183829425Y-102637409D01*
X183844228Y-102660849D01*
X183860168Y-102684097D01*
X183877245Y-102707153D01*
X183895457Y-102730016D01*
X183914806Y-102752688D01*
X183935348Y-102775456D01*
X183957374Y-102798515D01*
X183980880Y-102821864D01*
X184005865Y-102845504D01*
X184060262Y-102893651D01*
X184120546Y-102942953D01*
X184186700Y-102993405D01*
X184258705Y-103045004D01*
X184336544Y-103097747D01*
X184420200Y-103151630D01*
X184612904Y-103271039D01*
X184845656Y-103410735D01*
X185118379Y-103570741D01*
X185430995Y-103751077D01*
X185643788Y-103869133D01*
X185843221Y-103981434D01*
X186029293Y-104087973D01*
X186201998Y-104188742D01*
X186361333Y-104283734D01*
X186507295Y-104372942D01*
X186639879Y-104456357D01*
X186759082Y-104533974D01*
X186814384Y-104571402D01*
X186867826Y-104608834D01*
X186919411Y-104646269D01*
X186969137Y-104683708D01*
X187017005Y-104721152D01*
X187063016Y-104758600D01*
X187107170Y-104796054D01*
X187149467Y-104833513D01*
X187189908Y-104870978D01*
X187228493Y-104908448D01*
X187265222Y-104945926D01*
X187300097Y-104983410D01*
X187333116Y-105020901D01*
X187364281Y-105058400D01*
X187393593Y-105095906D01*
X187421050Y-105133421D01*
X187446725Y-105171384D01*
X187470731Y-105210094D01*
X187493067Y-105249553D01*
X187513734Y-105289759D01*
X187532730Y-105330713D01*
X187550056Y-105372415D01*
X187565711Y-105414864D01*
X187579694Y-105458061D01*
X187592007Y-105502005D01*
X187602648Y-105546697D01*
X187611617Y-105592136D01*
X187618914Y-105638322D01*
X187624539Y-105685255D01*
X187628490Y-105732935D01*
X187630769Y-105781362D01*
X187631374Y-105830536D01*
X187626560Y-106048120D01*
X187614665Y-106303975D01*
X187595622Y-106598159D01*
X187569366Y-106930727D01*
X187089294Y-112203274D01*
X187003509Y-113208380D01*
X186993695Y-113295534D01*
X186979194Y-113381014D01*
X186960007Y-113464819D01*
X186936134Y-113546948D01*
X186907574Y-113627400D01*
X186874329Y-113706176D01*
X186836398Y-113783275D01*
X186793781Y-113858696D01*
X186746479Y-113932438D01*
X186694491Y-114004501D01*
X186637817Y-114074884D01*
X186576459Y-114143588D01*
X186510415Y-114210610D01*
X186439687Y-114275952D01*
X186364273Y-114339611D01*
X186284175Y-114401589D01*
X186199991Y-114461612D01*
X186112412Y-114519272D01*
X186021439Y-114574569D01*
X185927076Y-114627502D01*
X185829322Y-114678073D01*
X185728180Y-114726282D01*
X185623652Y-114772130D01*
X185515739Y-114815616D01*
X185404443Y-114856742D01*
X185289767Y-114895507D01*
X185171710Y-114931912D01*
X185050276Y-114965957D01*
X184925466Y-114997643D01*
X184797281Y-115026971D01*
X184665724Y-115053939D01*
X184530795Y-115078550D01*
X181861190Y-115535887D01*
X181753563Y-115553016D01*
X181647795Y-115567209D01*
X181543885Y-115578462D01*
X181441835Y-115586773D01*
X181341646Y-115592142D01*
X181243318Y-115594564D01*
X181146852Y-115594039D01*
X181052248Y-115590563D01*
X180959508Y-115584136D01*
X180868633Y-115574754D01*
X180779622Y-115562416D01*
X180692478Y-115547119D01*
X180607199Y-115528862D01*
X180523788Y-115507642D01*
X180442245Y-115483457D01*
X180362571Y-115456305D01*
X180286399Y-115426589D01*
X180215501Y-115394575D01*
X180149877Y-115360264D01*
X180089525Y-115323653D01*
X180061327Y-115304486D01*
X180034446Y-115284744D01*
X180008884Y-115264428D01*
X179984641Y-115243536D01*
X179961715Y-115222070D01*
X179940108Y-115200029D01*
X179919818Y-115177412D01*
X179900847Y-115154221D01*
X179883194Y-115130455D01*
X179866859Y-115106114D01*
X179851842Y-115081197D01*
X179838144Y-115055706D01*
X179825763Y-115029639D01*
X179814700Y-115002997D01*
X179804956Y-114975780D01*
X179796529Y-114947987D01*
X179789420Y-114919619D01*
X179783629Y-114890676D01*
X179779157Y-114861157D01*
X179776002Y-114831062D01*
X179774165Y-114800393D01*
X179773646Y-114769147D01*
X179774444Y-114737326D01*
X179776561Y-114704930D01*
X179803954Y-114382984D01*
X180276271Y-108458283D01*
X183203227Y-107956504D01*
X182726253Y-113565464D01*
X184077075Y-113333954D01*
X184523555Y-107710525D01*
X184588672Y-106946230D01*
X184591248Y-106911489D01*
X184593011Y-106877584D01*
X184593960Y-106844515D01*
X184594095Y-106812281D01*
X184593417Y-106780882D01*
X184591926Y-106750318D01*
X184589622Y-106720587D01*
X184586506Y-106691690D01*
X184582577Y-106663625D01*
X184577835Y-106636392D01*
X184572282Y-106609991D01*
X184565917Y-106584422D01*
X184558740Y-106559683D01*
X184550751Y-106535774D01*
X184541951Y-106512695D01*
X184532340Y-106490444D01*
X184521852Y-106468808D01*
X184510468Y-106447477D01*
X184498187Y-106426452D01*
X184485011Y-106405733D01*
X184470942Y-106385320D01*
X184455979Y-106365212D01*
X184440123Y-106345409D01*
X184423377Y-106325912D01*
X184405740Y-106306720D01*
X184387213Y-106287832D01*
X184367797Y-106269249D01*
X184347494Y-106250971D01*
X184326303Y-106232997D01*
X184304227Y-106215328D01*
X184281265Y-106197963D01*
X184257419Y-106180902D01*
X184205558Y-106146054D01*
X184147496Y-106108864D01*
X184083231Y-106069327D01*
X184012763Y-106027436D01*
X183936089Y-105983186D01*
X183853209Y-105936571D01*
X183668826Y-105836220D01*
X183140907Y-105542904D01*
X182677486Y-105283049D01*
X182278625Y-105056643D01*
X181944385Y-104863670D01*
X181798378Y-104777293D01*
X181662543Y-104694142D01*
X181536872Y-104614211D01*
X181421358Y-104537496D01*
X181315993Y-104463989D01*
X181220770Y-104393687D01*
X181135681Y-104326583D01*
X181096934Y-104294229D01*
X181060718Y-104262673D01*
X181026635Y-104231655D01*
X180994523Y-104200918D01*
X180964381Y-104170462D01*
X180936206Y-104140286D01*
X180909999Y-104110392D01*
X180885757Y-104080780D01*
X180863479Y-104051449D01*
X180843165Y-104022399D01*
X180824812Y-103993632D01*
X180808420Y-103965147D01*
X180793987Y-103936944D01*
X180781513Y-103909023D01*
X180770995Y-103881385D01*
X180762433Y-103854030D01*
X180755825Y-103826958D01*
X180751170Y-103800169D01*
X180744745Y-103744997D01*
X180740173Y-103685790D01*
X180737444Y-103622546D01*
X180736552Y-103555262D01*
X180737487Y-103483936D01*
X180740240Y-103408566D01*
X180744804Y-103329148D01*
X180751170Y-103245681D01*
X181086032Y-99305353D01*
X181095871Y-99218225D01*
X181110398Y-99132686D01*
X181129614Y-99048737D01*
X181153520Y-98966379D01*
X181182116Y-98885611D01*
X181215402Y-98806434D01*
X181253380Y-98728850D01*
X181296050Y-98652858D01*
X181343413Y-98578459D01*
X181395469Y-98505654D01*
X181452219Y-98434444D01*
X181513664Y-98364828D01*
X181579804Y-98296808D01*
X181650640Y-98230383D01*
X181726173Y-98165556D01*
X181806403Y-98102326D01*
X181890654Y-98041094D01*
X181978293Y-97982308D01*
X182069320Y-97925966D01*
X182163735Y-97872067D01*
X182261538Y-97820612D01*
X182362727Y-97771597D01*
X182467303Y-97725024D01*
X182575265Y-97680891D01*
X182686613Y-97639196D01*
X182801346Y-97599939D01*
X182919464Y-97563120D01*
X183040967Y-97528736D01*
X183165854Y-97496788D01*
X183294125Y-97467274D01*
X183425779Y-97440194D01*
X183560817Y-97415546D01*
X186230422Y-96957693D01*
X186311306Y-96944605D01*
X186391127Y-96933235D01*
X186469890Y-96923579D01*
X186547598Y-96915632D01*
X186624255Y-96909390D01*
X186699865Y-96904849D01*
X186774431Y-96902003D01*
X186847957Y-96900849D01*
X186847961Y-96900849D01*
X186908440Y-96901177D01*
G37*
G36*
X156430690Y-102113968D02*
G01*
X156430691Y-102113968D01*
X156430692Y-102113969D01*
X156430692Y-102113970D01*
X156491165Y-102114304D01*
X156550906Y-102115824D01*
X156609914Y-102118531D01*
X156668192Y-102122422D01*
X156725738Y-102127497D01*
X156782555Y-102133756D01*
X156838642Y-102141197D01*
X156894002Y-102149820D01*
X156948633Y-102159623D01*
X157002538Y-102170607D01*
X157055717Y-102182770D01*
X157108170Y-102196112D01*
X157159898Y-102210631D01*
X157210903Y-102226328D01*
X157261184Y-102243200D01*
X157310743Y-102261248D01*
X157386740Y-102292215D01*
X157457485Y-102325393D01*
X157522976Y-102360782D01*
X157583212Y-102398383D01*
X157611359Y-102418013D01*
X157638191Y-102438197D01*
X157663710Y-102458934D01*
X157687914Y-102480224D01*
X157710803Y-102502069D01*
X157732377Y-102524467D01*
X157752637Y-102547418D01*
X157771581Y-102570924D01*
X157789211Y-102594984D01*
X157805524Y-102619598D01*
X157820523Y-102644766D01*
X157834205Y-102670489D01*
X157846572Y-102696766D01*
X157857623Y-102723598D01*
X157867358Y-102750984D01*
X157875776Y-102778925D01*
X157882878Y-102807422D01*
X157888664Y-102836473D01*
X157893133Y-102866079D01*
X157896284Y-102896241D01*
X157898119Y-102926958D01*
X157898637Y-102958230D01*
X157897838Y-102990058D01*
X157895721Y-103022442D01*
X157589795Y-106621189D01*
X154726920Y-107111598D01*
X154983752Y-104096279D01*
X153600375Y-104333473D01*
X153340959Y-107012380D01*
X153333972Y-107100420D01*
X153328379Y-107183564D01*
X153324187Y-107261814D01*
X153321399Y-107335175D01*
X153320024Y-107403649D01*
X153320065Y-107467240D01*
X153321529Y-107525952D01*
X153324422Y-107579787D01*
X153326704Y-107605392D01*
X153330125Y-107630809D01*
X153334686Y-107656037D01*
X153340386Y-107681074D01*
X153347224Y-107705921D01*
X153355202Y-107730575D01*
X153364317Y-107755036D01*
X153374571Y-107779302D01*
X153385963Y-107803374D01*
X153398492Y-107827249D01*
X153412158Y-107850928D01*
X153426961Y-107874408D01*
X153442901Y-107897689D01*
X153459978Y-107920770D01*
X153478190Y-107943649D01*
X153497539Y-107966327D01*
X153518077Y-107989095D01*
X153540090Y-108012154D01*
X153563577Y-108035503D01*
X153588535Y-108059143D01*
X153642864Y-108107290D01*
X153703068Y-108156592D01*
X153769135Y-108207044D01*
X153841055Y-108258644D01*
X153918820Y-108311386D01*
X154002418Y-108365269D01*
X154195173Y-108484677D01*
X154427918Y-108624373D01*
X154700610Y-108784378D01*
X155013208Y-108964715D01*
X155425433Y-109194991D01*
X155611504Y-109301447D01*
X155784209Y-109402122D01*
X155943544Y-109497019D01*
X156089505Y-109586145D01*
X156222090Y-109669502D01*
X156341293Y-109747096D01*
X156396595Y-109784524D01*
X156450039Y-109821956D01*
X156501624Y-109859391D01*
X156551350Y-109896830D01*
X156599219Y-109934274D01*
X156645230Y-109971722D01*
X156689384Y-110009176D01*
X156731681Y-110046634D01*
X156772122Y-110084099D01*
X156810707Y-110121570D01*
X156847437Y-110159047D01*
X156882312Y-110196531D01*
X156915332Y-110234023D01*
X156946498Y-110271521D01*
X156975810Y-110309028D01*
X157003268Y-110346542D01*
X157028942Y-110384505D01*
X157052947Y-110423215D01*
X157075283Y-110462673D01*
X157095948Y-110502880D01*
X157114944Y-110543834D01*
X157132270Y-110585535D01*
X157147924Y-110627985D01*
X157161908Y-110671182D01*
X157174221Y-110715126D01*
X157184862Y-110759818D01*
X157193831Y-110805257D01*
X157201128Y-110851443D01*
X157206753Y-110898376D01*
X157210705Y-110946057D01*
X157212984Y-110994484D01*
X157213590Y-111043657D01*
X157208775Y-111261241D01*
X157196879Y-111517095D01*
X157177836Y-111811279D01*
X157151578Y-112143849D01*
X156671504Y-117416393D01*
X156586238Y-118422016D01*
X156576403Y-118509165D01*
X156561886Y-118594629D01*
X156542689Y-118678408D01*
X156518809Y-118760504D01*
X156490246Y-118840917D01*
X156457001Y-118919650D01*
X156419073Y-118996701D01*
X156376461Y-119072074D01*
X156329165Y-119145767D01*
X156277184Y-119217784D01*
X156220519Y-119288123D01*
X156159168Y-119356788D01*
X156093131Y-119423777D01*
X156022408Y-119489093D01*
X155946999Y-119552736D01*
X155866903Y-119614708D01*
X155782718Y-119674732D01*
X155695139Y-119732391D01*
X155604166Y-119787688D01*
X155509802Y-119840622D01*
X155412048Y-119891193D01*
X155310907Y-119939402D01*
X155206378Y-119985250D01*
X155098466Y-120028736D01*
X154987170Y-120069861D01*
X154872493Y-120108626D01*
X154754437Y-120145031D01*
X154633002Y-120179077D01*
X154508192Y-120210763D01*
X154380007Y-120240090D01*
X154248449Y-120267059D01*
X154113521Y-120291670D01*
X151443399Y-120749523D01*
X151335772Y-120766647D01*
X151230004Y-120780823D01*
X151126094Y-120792051D01*
X151024045Y-120800329D01*
X150923855Y-120805659D01*
X150825527Y-120808037D01*
X150729061Y-120807465D01*
X150634458Y-120803942D01*
X150541718Y-120797466D01*
X150450843Y-120788038D01*
X150361833Y-120775656D01*
X150274688Y-120760320D01*
X150189410Y-120742030D01*
X150106000Y-120720784D01*
X150024457Y-120696582D01*
X149944783Y-120669424D01*
X149868612Y-120639708D01*
X149797713Y-120607694D01*
X149732088Y-120573382D01*
X149671736Y-120536772D01*
X149643538Y-120517605D01*
X149616657Y-120497863D01*
X149591095Y-120477546D01*
X149566851Y-120456655D01*
X149543926Y-120435188D01*
X149522318Y-120413147D01*
X149502029Y-120390531D01*
X149483058Y-120367340D01*
X149465405Y-120343573D01*
X149449070Y-120319232D01*
X149434053Y-120294316D01*
X149420354Y-120268824D01*
X149407973Y-120242757D01*
X149396911Y-120216115D01*
X149387166Y-120188898D01*
X149378739Y-120161105D01*
X149371631Y-120132737D01*
X149365840Y-120103794D01*
X149361367Y-120074275D01*
X149358213Y-120044181D01*
X149356376Y-120013511D01*
X149355857Y-119982265D01*
X149356656Y-119950444D01*
X149358772Y-119918047D01*
X149386161Y-119596106D01*
X149858484Y-113671400D01*
X152785438Y-113169623D01*
X152308463Y-118778584D01*
X153659286Y-118547072D01*
X154105767Y-112923643D01*
X154170882Y-112159348D01*
X154173459Y-112124606D01*
X154175222Y-112090701D01*
X154176172Y-112057632D01*
X154176307Y-112025398D01*
X154175629Y-111993999D01*
X154174138Y-111963435D01*
X154171835Y-111933704D01*
X154168718Y-111904807D01*
X154164789Y-111876742D01*
X154160048Y-111849509D01*
X154154494Y-111823108D01*
X154148129Y-111797539D01*
X154140952Y-111772800D01*
X154132964Y-111748891D01*
X154124165Y-111725812D01*
X154114555Y-111703562D01*
X154104067Y-111681925D01*
X154092683Y-111660595D01*
X154080402Y-111639570D01*
X154067227Y-111618851D01*
X154053158Y-111598438D01*
X154038195Y-111578330D01*
X154022340Y-111558527D01*
X154005594Y-111539030D01*
X153987957Y-111519838D01*
X153969430Y-111500950D01*
X153950015Y-111482367D01*
X153929712Y-111464089D01*
X153908521Y-111446116D01*
X153886445Y-111428446D01*
X153863483Y-111411081D01*
X153839637Y-111394020D01*
X153787776Y-111359172D01*
X153729713Y-111321982D01*
X153665448Y-111282445D01*
X153594979Y-111240554D01*
X153518305Y-111196304D01*
X153435425Y-111149689D01*
X153251043Y-111049339D01*
X152723203Y-110756022D01*
X152259960Y-110496167D01*
X151861276Y-110269761D01*
X151527116Y-110076788D01*
X151381110Y-109990411D01*
X151245276Y-109907260D01*
X151119606Y-109827330D01*
X151004092Y-109750614D01*
X150898727Y-109677108D01*
X150803503Y-109606806D01*
X150718413Y-109539702D01*
X150679666Y-109507348D01*
X150643449Y-109475791D01*
X150609368Y-109444798D01*
X150577257Y-109414089D01*
X150547115Y-109383663D01*
X150518941Y-109353520D01*
X150492734Y-109323660D01*
X150468492Y-109294083D01*
X150446214Y-109264789D01*
X150425900Y-109235776D01*
X150407547Y-109207046D01*
X150391155Y-109178597D01*
X150376723Y-109150429D01*
X150364248Y-109122543D01*
X150353731Y-109094937D01*
X150345169Y-109067612D01*
X150338561Y-109040568D01*
X150333907Y-109013804D01*
X150327458Y-108958574D01*
X150322827Y-108899292D01*
X150320016Y-108835964D01*
X150319028Y-108768593D01*
X150319869Y-108697186D01*
X150322540Y-108621748D01*
X150327045Y-108542284D01*
X150333389Y-108458800D01*
X150668769Y-104518471D01*
X150678607Y-104431343D01*
X150693134Y-104345804D01*
X150712350Y-104261855D01*
X150736255Y-104179496D01*
X150764850Y-104098729D01*
X150798137Y-104019552D01*
X150836114Y-103941968D01*
X150878784Y-103865976D01*
X150926147Y-103791577D01*
X150978203Y-103718772D01*
X151034954Y-103647562D01*
X151096399Y-103577946D01*
X151162539Y-103509926D01*
X151233375Y-103443502D01*
X151308908Y-103378674D01*
X151389138Y-103315444D01*
X151473381Y-103254234D01*
X151561000Y-103195467D01*
X151651996Y-103139141D01*
X151746371Y-103085255D01*
X151844126Y-103033810D01*
X151945264Y-102984803D01*
X152049786Y-102938234D01*
X152157694Y-102894102D01*
X152268989Y-102852406D01*
X152383672Y-102813145D01*
X152501747Y-102776318D01*
X152623214Y-102741924D01*
X152748074Y-102709963D01*
X152876331Y-102680433D01*
X153007984Y-102653334D01*
X153143037Y-102628664D01*
X155812640Y-102170811D01*
X155893546Y-102157723D01*
X155973426Y-102146354D01*
X156052271Y-102136698D01*
X156130073Y-102128752D01*
X156206824Y-102122510D01*
X156282516Y-102117969D01*
X156357140Y-102115122D01*
X156430688Y-102113967D01*
X156430689Y-102113967D01*
X156430690Y-102113968D01*
G37*
G36*
X153645307Y-94166614D02*
G01*
X153891343Y-94184541D01*
X154132057Y-94212494D01*
X154367217Y-94250294D01*
X154596588Y-94297757D01*
X154819937Y-94354703D01*
X155037029Y-94420949D01*
X155247632Y-94496315D01*
X155451510Y-94580618D01*
X155648432Y-94673677D01*
X155838162Y-94775309D01*
X156020468Y-94885334D01*
X156195114Y-95003570D01*
X156361869Y-95129834D01*
X156520497Y-95263946D01*
X156670766Y-95405724D01*
X156812441Y-95554985D01*
X156945289Y-95711549D01*
X157069076Y-95875234D01*
X157183568Y-96045857D01*
X157288532Y-96223238D01*
X157383733Y-96407194D01*
X157468939Y-96597544D01*
X157543915Y-96794107D01*
X157608427Y-96996700D01*
X157662243Y-97205142D01*
X157705127Y-97419251D01*
X157736847Y-97638846D01*
X157757168Y-97863744D01*
X157765858Y-98093765D01*
X157762681Y-98328727D01*
X157747405Y-98568447D01*
X157736474Y-98678295D01*
X157723130Y-98787987D01*
X157707399Y-98897503D01*
X157689311Y-99006825D01*
X157668891Y-99115932D01*
X157646169Y-99224806D01*
X157621172Y-99333428D01*
X157593927Y-99441778D01*
X154522798Y-99512059D01*
X154557937Y-99115184D01*
X154565698Y-98986236D01*
X154566029Y-98860237D01*
X154559095Y-98737314D01*
X154545060Y-98617595D01*
X154524090Y-98501208D01*
X154496349Y-98388280D01*
X154462001Y-98278939D01*
X154421211Y-98173312D01*
X154374144Y-98071527D01*
X154320965Y-97973712D01*
X154261839Y-97879993D01*
X154196929Y-97790500D01*
X154126401Y-97705358D01*
X154050420Y-97624697D01*
X153969150Y-97548643D01*
X153882755Y-97477324D01*
X153791401Y-97410868D01*
X153695252Y-97349402D01*
X153594474Y-97293053D01*
X153489229Y-97241950D01*
X153379684Y-97196220D01*
X153266003Y-97155991D01*
X153148351Y-97121390D01*
X153026892Y-97092545D01*
X152901790Y-97069583D01*
X152773212Y-97052632D01*
X152641321Y-97041819D01*
X152506282Y-97037273D01*
X152368260Y-97039120D01*
X152227420Y-97047489D01*
X152083925Y-97062506D01*
X151937942Y-97084300D01*
X151791369Y-97112647D01*
X151646149Y-97147115D01*
X151502475Y-97187512D01*
X151360537Y-97233652D01*
X151220530Y-97285345D01*
X151082645Y-97342401D01*
X150947075Y-97404633D01*
X150814012Y-97471851D01*
X150556178Y-97620490D01*
X150310681Y-97786807D01*
X150079063Y-97969291D01*
X149862862Y-98166430D01*
X149663618Y-98376714D01*
X149482870Y-98598631D01*
X149399913Y-98713480D01*
X149322157Y-98830670D01*
X149249795Y-98950013D01*
X149183020Y-99071320D01*
X149122023Y-99194401D01*
X149066997Y-99319069D01*
X149018135Y-99445134D01*
X148975629Y-99572406D01*
X148939671Y-99700699D01*
X148910454Y-99829821D01*
X148888171Y-99959585D01*
X148873013Y-100089801D01*
X148455981Y-104804267D01*
X148455865Y-104804275D01*
X148455749Y-104804276D01*
X148455632Y-104804270D01*
X148455516Y-104804258D01*
X148455400Y-104804240D01*
X148455284Y-104804217D01*
X148455170Y-104804189D01*
X148455057Y-104804157D01*
X148454945Y-104804121D01*
X148454835Y-104804081D01*
X148454727Y-104804038D01*
X148454621Y-104803993D01*
X148454518Y-104803946D01*
X148454417Y-104803897D01*
X148454226Y-104803795D01*
X148454049Y-104803692D01*
X148453889Y-104803591D01*
X148453748Y-104803496D01*
X148453627Y-104803410D01*
X148453457Y-104803280D01*
X148453397Y-104803230D01*
X148048772Y-109382280D01*
X148050839Y-109382280D01*
X147181641Y-119209585D01*
X147149477Y-119485857D01*
X147102181Y-119761173D01*
X147040162Y-120035132D01*
X146963829Y-120307333D01*
X146873592Y-120577375D01*
X146769860Y-120844857D01*
X146653041Y-121109378D01*
X146523546Y-121370536D01*
X146228162Y-121881162D01*
X145886982Y-122373527D01*
X145503279Y-122844423D01*
X145080327Y-123290640D01*
X144621400Y-123708971D01*
X144129772Y-124096208D01*
X143608717Y-124449142D01*
X143061508Y-124764564D01*
X142491419Y-125039267D01*
X141901724Y-125270041D01*
X141600548Y-125367953D01*
X141295697Y-125453680D01*
X140987582Y-125526820D01*
X140676612Y-125586973D01*
X140366765Y-125633228D01*
X140062211Y-125665097D01*
X139763299Y-125682852D01*
X139470377Y-125686764D01*
X139183795Y-125677104D01*
X138903901Y-125654144D01*
X138631045Y-125618155D01*
X138365575Y-125569407D01*
X138107840Y-125508173D01*
X137858189Y-125434723D01*
X137616970Y-125349328D01*
X137384534Y-125252260D01*
X137161228Y-125143790D01*
X136947402Y-125024189D01*
X136743404Y-124893729D01*
X136549583Y-124752680D01*
X136366289Y-124601313D01*
X136193870Y-124439901D01*
X136032674Y-124268713D01*
X135883052Y-124088022D01*
X135745351Y-123898099D01*
X135619921Y-123699214D01*
X135507111Y-123491639D01*
X135407269Y-123275645D01*
X135320744Y-123051503D01*
X135247885Y-122819485D01*
X135189042Y-122579862D01*
X135144562Y-122332904D01*
X135114796Y-122078884D01*
X135100091Y-121818072D01*
X135100797Y-121550739D01*
X135117262Y-121277157D01*
X135128193Y-121167305D01*
X135141538Y-121057601D01*
X135157269Y-120948070D01*
X135175358Y-120838735D01*
X135195777Y-120729620D01*
X135218499Y-120620748D01*
X135243497Y-120512143D01*
X135270741Y-120403828D01*
X138341872Y-120334065D01*
X138306732Y-120730423D01*
X138298971Y-120859371D01*
X138298639Y-120985370D01*
X138305573Y-121108292D01*
X138319608Y-121228011D01*
X138340578Y-121344398D01*
X138368320Y-121457325D01*
X138402667Y-121566667D01*
X138443457Y-121672293D01*
X138490524Y-121774078D01*
X138543703Y-121871894D01*
X138602829Y-121965612D01*
X138667739Y-122055105D01*
X138738267Y-122140247D01*
X138814248Y-122220908D01*
X138895518Y-122296962D01*
X138981913Y-122368281D01*
X139073267Y-122434738D01*
X139169416Y-122496204D01*
X139270195Y-122552552D01*
X139375439Y-122603655D01*
X139484984Y-122649385D01*
X139598665Y-122689614D01*
X139716318Y-122724216D01*
X139837777Y-122753061D01*
X139962878Y-122776023D01*
X140091456Y-122792974D01*
X140223347Y-122803787D01*
X140358386Y-122808334D01*
X140496408Y-122806486D01*
X140637249Y-122798118D01*
X140780743Y-122783101D01*
X140926727Y-122761307D01*
X141073301Y-122732961D01*
X141218525Y-122698498D01*
X141362207Y-122658107D01*
X141504153Y-122611977D01*
X141644172Y-122560296D01*
X141782071Y-122503253D01*
X141917657Y-122441037D01*
X142050737Y-122373836D01*
X142308611Y-122225236D01*
X142554150Y-122058963D01*
X142785815Y-121876526D01*
X143002064Y-121679435D01*
X143201357Y-121469199D01*
X143382152Y-121247329D01*
X143465131Y-121132502D01*
X143542908Y-121015334D01*
X143615290Y-120896011D01*
X143682084Y-120774723D01*
X143743098Y-120651659D01*
X143798140Y-120527007D01*
X143847016Y-120400956D01*
X143889534Y-120273695D01*
X143925501Y-120145413D01*
X143954725Y-120016297D01*
X143977013Y-119886538D01*
X143992172Y-119756323D01*
X144409201Y-115041880D01*
X144409304Y-115041860D01*
X144409406Y-115041845D01*
X144409508Y-115041835D01*
X144409607Y-115041830D01*
X144409706Y-115041830D01*
X144409803Y-115041834D01*
X144409898Y-115041842D01*
X144409991Y-115041853D01*
X144410082Y-115041868D01*
X144410171Y-115041885D01*
X144410257Y-115041906D01*
X144410342Y-115041928D01*
X144410423Y-115041952D01*
X144410502Y-115041979D01*
X144410577Y-115042006D01*
X144410650Y-115042035D01*
X144410785Y-115042093D01*
X144410907Y-115042153D01*
X144411012Y-115042210D01*
X144411102Y-115042262D01*
X144411173Y-115042307D01*
X144411226Y-115042342D01*
X144411269Y-115042374D01*
X144816413Y-110463326D01*
X144813830Y-110463844D01*
X145683027Y-100636538D01*
X145715190Y-100360264D01*
X145762486Y-100084943D01*
X145824505Y-99810976D01*
X145900838Y-99538763D01*
X145991075Y-99268707D01*
X146094808Y-99001208D01*
X146211626Y-98736669D01*
X146341121Y-98475489D01*
X146636505Y-97964816D01*
X146977685Y-97472400D01*
X147361388Y-97001451D01*
X147784340Y-96555178D01*
X148243267Y-96136794D01*
X148734895Y-95749508D01*
X149255950Y-95396530D01*
X149803159Y-95081071D01*
X150373248Y-94806342D01*
X150962943Y-94575552D01*
X151264119Y-94477638D01*
X151568969Y-94391912D01*
X151877084Y-94318777D01*
X152188054Y-94258633D01*
X152343613Y-94233693D01*
X152497884Y-94212387D01*
X152650827Y-94194681D01*
X152802400Y-94180538D01*
X152952563Y-94169924D01*
X153101275Y-94162802D01*
X153248496Y-94159139D01*
X153394183Y-94158897D01*
X153645307Y-94166614D01*
G37*
G36*
X179056697Y-99970428D02*
G01*
X177062503Y-100312009D01*
X176667178Y-104956169D01*
X178693927Y-104608904D01*
X178541488Y-106397942D01*
X176450660Y-106756060D01*
X176334384Y-108499623D01*
X175793849Y-114852724D01*
X177852641Y-114499773D01*
X177703811Y-116248505D01*
X172718070Y-117103232D01*
X174256995Y-99009764D01*
X179210181Y-98161237D01*
X179056697Y-99970428D01*
G37*
G36*
X152060473Y-98707347D02*
G01*
X152105598Y-98710661D01*
X152149753Y-98715816D01*
X152192895Y-98722779D01*
X152234981Y-98731515D01*
X152275968Y-98741992D01*
X152315812Y-98754175D01*
X152354470Y-98768031D01*
X152391899Y-98783526D01*
X152428055Y-98800627D01*
X152462896Y-98819301D01*
X152496377Y-98839513D01*
X152528456Y-98861230D01*
X152559088Y-98884419D01*
X152588232Y-98909045D01*
X152615843Y-98935076D01*
X152641878Y-98962478D01*
X152666294Y-98991217D01*
X152689048Y-99021259D01*
X152710096Y-99052571D01*
X152729395Y-99085120D01*
X152746901Y-99118872D01*
X152762572Y-99153793D01*
X152776364Y-99189850D01*
X152788233Y-99227009D01*
X152798137Y-99265236D01*
X152806032Y-99304498D01*
X152811875Y-99344762D01*
X152815622Y-99385994D01*
X152817231Y-99428159D01*
X152816657Y-99471226D01*
X152813857Y-99515159D01*
X152807954Y-99565804D01*
X152799271Y-99616283D01*
X152787882Y-99666520D01*
X152773863Y-99716443D01*
X152757290Y-99765976D01*
X152738239Y-99815047D01*
X152716784Y-99863580D01*
X152693001Y-99911501D01*
X152638755Y-100005215D01*
X152576103Y-100095594D01*
X152505649Y-100182047D01*
X152427998Y-100263980D01*
X152343753Y-100340801D01*
X152253518Y-100411917D01*
X152157896Y-100476736D01*
X152057493Y-100534666D01*
X151952910Y-100585112D01*
X151844754Y-100627484D01*
X151789524Y-100645456D01*
X151733626Y-100661187D01*
X151677137Y-100674604D01*
X151620132Y-100685630D01*
X151563362Y-100694100D01*
X151507550Y-100699927D01*
X151452760Y-100703162D01*
X151399057Y-100703854D01*
X151346505Y-100702054D01*
X151295171Y-100697812D01*
X151245117Y-100691177D01*
X151196409Y-100682201D01*
X151149112Y-100670933D01*
X151103291Y-100657423D01*
X151059009Y-100641722D01*
X151016332Y-100623879D01*
X150975325Y-100603944D01*
X150936053Y-100581969D01*
X150898579Y-100558002D01*
X150862970Y-100532094D01*
X150829289Y-100504295D01*
X150797601Y-100474655D01*
X150767971Y-100443224D01*
X150740464Y-100410053D01*
X150715145Y-100375191D01*
X150692077Y-100338689D01*
X150671327Y-100300596D01*
X150652959Y-100260963D01*
X150637037Y-100219840D01*
X150623626Y-100177277D01*
X150612791Y-100133324D01*
X150604597Y-100088031D01*
X150599109Y-100041449D01*
X150596390Y-99993627D01*
X150596507Y-99944616D01*
X150599523Y-99894465D01*
X150605426Y-99843819D01*
X150614111Y-99793341D01*
X150625501Y-99743104D01*
X150639522Y-99693181D01*
X150656097Y-99643648D01*
X150675152Y-99594577D01*
X150696610Y-99546044D01*
X150720396Y-99498122D01*
X150774650Y-99404409D01*
X150837309Y-99314030D01*
X150907770Y-99227577D01*
X150985427Y-99145644D01*
X151069677Y-99068823D01*
X151159915Y-98997707D01*
X151255537Y-98932887D01*
X151355938Y-98874958D01*
X151460514Y-98824512D01*
X151568661Y-98782140D01*
X151623884Y-98764168D01*
X151679774Y-98748437D01*
X151736254Y-98735020D01*
X151793248Y-98723993D01*
X151821757Y-98719431D01*
X151850039Y-98715545D01*
X151878085Y-98712325D01*
X151905884Y-98709764D01*
X151933427Y-98707850D01*
X151960705Y-98706576D01*
X151987706Y-98705931D01*
X152014423Y-98705907D01*
X152060473Y-98707347D01*
G37*
G36*
X141511756Y-119143305D02*
G01*
X141556874Y-119146617D01*
X141601024Y-119151769D01*
X141644161Y-119158729D01*
X141686244Y-119167462D01*
X141727228Y-119177935D01*
X141767069Y-119190114D01*
X141805726Y-119203967D01*
X141843153Y-119219459D01*
X141879309Y-119236556D01*
X141914149Y-119255226D01*
X141947631Y-119275435D01*
X141979710Y-119297149D01*
X142010344Y-119320335D01*
X142039489Y-119344959D01*
X142067102Y-119370988D01*
X142093139Y-119398388D01*
X142117558Y-119427125D01*
X142140314Y-119457167D01*
X142161364Y-119488479D01*
X142180666Y-119521028D01*
X142198175Y-119554780D01*
X142213848Y-119589703D01*
X142227643Y-119625762D01*
X142239514Y-119662924D01*
X142249421Y-119701155D01*
X142257318Y-119740422D01*
X142263162Y-119780691D01*
X142266911Y-119821929D01*
X142268520Y-119864102D01*
X142267947Y-119907177D01*
X142265148Y-119951121D01*
X142259245Y-120001766D01*
X142250560Y-120052244D01*
X142239169Y-120102481D01*
X142225149Y-120152404D01*
X142208573Y-120201937D01*
X142189519Y-120251007D01*
X142168061Y-120299540D01*
X142144275Y-120347462D01*
X142090021Y-120441175D01*
X142027361Y-120531554D01*
X141956900Y-120618007D01*
X141879243Y-120699940D01*
X141794992Y-120776761D01*
X141704754Y-120847878D01*
X141609133Y-120912697D01*
X141508732Y-120970626D01*
X141404156Y-121021073D01*
X141296009Y-121063445D01*
X141240786Y-121081417D01*
X141184896Y-121097148D01*
X141128417Y-121110565D01*
X141071422Y-121121592D01*
X141014641Y-121130061D01*
X140958820Y-121135887D01*
X140904021Y-121139120D01*
X140850311Y-121139810D01*
X140797754Y-121138007D01*
X140746415Y-121133762D01*
X140696358Y-121127124D01*
X140647647Y-121118145D01*
X140600349Y-121106873D01*
X140554526Y-121093359D01*
X140510244Y-121077654D01*
X140467568Y-121059807D01*
X140426563Y-121039869D01*
X140387292Y-121017889D01*
X140349820Y-120993919D01*
X140314213Y-120968008D01*
X140280535Y-120940206D01*
X140248851Y-120910564D01*
X140219225Y-120879132D01*
X140191721Y-120845959D01*
X140166406Y-120811097D01*
X140143343Y-120774595D01*
X140122596Y-120736503D01*
X140104231Y-120696872D01*
X140088313Y-120655752D01*
X140074905Y-120613192D01*
X140064074Y-120569244D01*
X140055882Y-120523957D01*
X140050396Y-120477381D01*
X140047679Y-120429568D01*
X140047796Y-120380565D01*
X140050813Y-120330425D01*
X140056717Y-120279780D01*
X140065405Y-120229302D01*
X140076801Y-120179064D01*
X140090829Y-120129142D01*
X140107413Y-120079608D01*
X140126479Y-120030538D01*
X140147949Y-119982005D01*
X140171749Y-119934083D01*
X140226035Y-119840370D01*
X140288730Y-119749991D01*
X140359230Y-119663538D01*
X140436930Y-119581605D01*
X140521223Y-119504784D01*
X140611505Y-119433668D01*
X140707170Y-119368849D01*
X140807612Y-119310919D01*
X140912227Y-119260473D01*
X141020410Y-119218101D01*
X141075650Y-119200129D01*
X141131554Y-119184398D01*
X141188047Y-119170981D01*
X141245055Y-119159954D01*
X141273538Y-119155392D01*
X141301760Y-119151506D01*
X141329724Y-119148289D01*
X141357431Y-119145728D01*
X141384882Y-119143816D01*
X141412078Y-119142542D01*
X141439021Y-119141895D01*
X141465713Y-119141867D01*
X141511756Y-119143305D01*
G37*
G36*
X194834522Y-120994486D02*
G01*
X194796420Y-121094447D01*
X194761703Y-121188484D01*
X194730254Y-121276775D01*
X194701958Y-121359494D01*
X194676698Y-121436817D01*
X194654357Y-121508920D01*
X194634821Y-121575979D01*
X194617973Y-121638170D01*
X194603697Y-121695668D01*
X194591876Y-121748649D01*
X194582396Y-121797289D01*
X194575139Y-121841764D01*
X194569990Y-121882250D01*
X194566832Y-121918921D01*
X194565550Y-121951955D01*
X194566027Y-121981526D01*
X194568148Y-122007811D01*
X194571796Y-122030985D01*
X194576856Y-122051225D01*
X194583211Y-122068705D01*
X194590745Y-122083602D01*
X194599342Y-122096091D01*
X194608886Y-122106349D01*
X194619261Y-122114550D01*
X194630351Y-122120871D01*
X194642040Y-122125488D01*
X194654211Y-122128575D01*
X194666750Y-122130310D01*
X194679539Y-122130868D01*
X194692463Y-122130424D01*
X194705405Y-122129155D01*
X194718250Y-122127236D01*
X194783576Y-122109970D01*
X194854396Y-122079551D01*
X194930468Y-122035919D01*
X195011553Y-121979009D01*
X195097410Y-121908761D01*
X195187799Y-121825112D01*
X195282481Y-121728001D01*
X195381216Y-121617365D01*
X195483763Y-121493142D01*
X195589882Y-121355270D01*
X195699333Y-121203688D01*
X195811877Y-121038332D01*
X195927273Y-120859142D01*
X196045281Y-120666055D01*
X196165661Y-120459009D01*
X196288173Y-120237942D01*
X196307703Y-120236647D01*
X196327476Y-120236259D01*
X196347450Y-120236754D01*
X196367584Y-120238107D01*
X196387837Y-120240290D01*
X196408170Y-120243280D01*
X196428540Y-120247051D01*
X196448908Y-120251577D01*
X196469232Y-120256833D01*
X196489471Y-120262793D01*
X196509585Y-120269432D01*
X196529533Y-120276724D01*
X196568768Y-120293168D01*
X196606849Y-120311920D01*
X196643449Y-120332777D01*
X196678243Y-120355535D01*
X196710903Y-120379991D01*
X196726331Y-120392792D01*
X196741104Y-120405941D01*
X196755179Y-120419413D01*
X196768518Y-120433182D01*
X196781078Y-120447223D01*
X196792820Y-120461510D01*
X196803701Y-120476018D01*
X196813682Y-120490722D01*
X196822722Y-120505595D01*
X196830779Y-120520613D01*
X196696432Y-120764918D01*
X196557526Y-121004440D01*
X196413960Y-121237995D01*
X196265630Y-121464397D01*
X196112432Y-121682463D01*
X195954264Y-121891009D01*
X195791020Y-122088850D01*
X195622599Y-122274801D01*
X195448897Y-122447679D01*
X195269811Y-122606300D01*
X195085236Y-122749478D01*
X194990859Y-122814906D01*
X194895070Y-122876029D01*
X194797858Y-122932700D01*
X194699210Y-122984770D01*
X194599112Y-123032091D01*
X194497551Y-123074515D01*
X194394516Y-123111895D01*
X194289991Y-123144081D01*
X194183966Y-123170927D01*
X194076427Y-123192284D01*
X193986525Y-123205582D01*
X193901371Y-123214025D01*
X193820841Y-123217905D01*
X193744810Y-123217512D01*
X193673155Y-123213137D01*
X193605751Y-123205070D01*
X193542474Y-123193602D01*
X193483199Y-123179023D01*
X193427803Y-123161625D01*
X193376162Y-123141698D01*
X193328151Y-123119533D01*
X193283645Y-123095420D01*
X193242522Y-123069650D01*
X193204656Y-123042513D01*
X193169923Y-123014301D01*
X193138199Y-122985304D01*
X193109360Y-122955812D01*
X193083282Y-122926116D01*
X193059841Y-122896507D01*
X193038912Y-122867276D01*
X193020370Y-122838713D01*
X193004093Y-122811109D01*
X192977834Y-122759940D01*
X192959139Y-122716094D01*
X192947016Y-122681897D01*
X192938510Y-122651749D01*
X192824064Y-122786303D01*
X192689624Y-122927160D01*
X192605613Y-123008010D01*
X192511365Y-123092770D01*
X192407598Y-123179162D01*
X192295032Y-123264908D01*
X192174383Y-123347731D01*
X192046369Y-123425352D01*
X191911710Y-123495492D01*
X191842112Y-123527045D01*
X191771123Y-123555874D01*
X191698830Y-123581694D01*
X191625325Y-123604221D01*
X191550697Y-123623168D01*
X191475036Y-123638252D01*
X191414306Y-123647332D01*
X191355338Y-123653492D01*
X191298132Y-123656792D01*
X191242689Y-123657293D01*
X191189010Y-123655056D01*
X191137093Y-123650139D01*
X191086940Y-123642603D01*
X191038551Y-123632508D01*
X190991927Y-123619915D01*
X190947068Y-123604883D01*
X190903973Y-123587472D01*
X190862645Y-123567743D01*
X190823082Y-123545756D01*
X190785286Y-123521571D01*
X190749256Y-123495247D01*
X190714993Y-123466846D01*
X190682498Y-123436427D01*
X190651770Y-123404050D01*
X190622811Y-123369776D01*
X190595620Y-123333664D01*
X190570198Y-123295774D01*
X190546545Y-123256167D01*
X190524661Y-123214904D01*
X190504548Y-123172043D01*
X190486205Y-123127645D01*
X190469632Y-123081770D01*
X190454831Y-123034478D01*
X190441801Y-122985830D01*
X190430542Y-122935886D01*
X190421056Y-122884705D01*
X190407401Y-122778874D01*
X190303332Y-122911621D01*
X190197203Y-123039493D01*
X190088976Y-123162194D01*
X189978616Y-123279430D01*
X189866086Y-123390904D01*
X189751351Y-123496321D01*
X189634373Y-123595387D01*
X189515117Y-123687806D01*
X189393546Y-123773283D01*
X189269625Y-123851521D01*
X189143317Y-123922228D01*
X189014585Y-123985106D01*
X188883394Y-124039860D01*
X188749707Y-124086196D01*
X188613488Y-124123819D01*
X188474700Y-124152432D01*
X188294216Y-124174427D01*
X188209625Y-124177742D01*
X188128899Y-124175911D01*
X188052111Y-124168913D01*
X187979333Y-124156730D01*
X187910639Y-124139342D01*
X187846102Y-124116730D01*
X187785795Y-124088874D01*
X187729791Y-124055756D01*
X187678163Y-124017356D01*
X187630984Y-123973655D01*
X187588327Y-123924634D01*
X187550266Y-123870272D01*
X187516872Y-123810552D01*
X187488220Y-123745453D01*
X187464381Y-123674957D01*
X187445430Y-123599044D01*
X187431439Y-123517695D01*
X187422482Y-123430891D01*
X187418631Y-123338612D01*
X187419959Y-123240839D01*
X187426540Y-123137552D01*
X187438446Y-123028734D01*
X187478527Y-122794422D01*
X187540786Y-122537748D01*
X187625807Y-122258560D01*
X187734176Y-121956701D01*
X187787917Y-121808390D01*
X187909926Y-121490620D01*
X187963537Y-121348567D01*
X188010419Y-121219829D01*
X188049222Y-121105975D01*
X188065173Y-121055121D01*
X188078597Y-121008577D01*
X188089327Y-120966540D01*
X188097193Y-120929205D01*
X188102027Y-120896769D01*
X188103660Y-120869429D01*
X188103369Y-120858978D01*
X188102507Y-120848883D01*
X188101086Y-120839148D01*
X188099121Y-120829776D01*
X188096623Y-120820767D01*
X188093608Y-120812126D01*
X188090088Y-120803855D01*
X188086076Y-120795955D01*
X188081587Y-120788431D01*
X188076633Y-120781284D01*
X188071228Y-120774517D01*
X188065385Y-120768132D01*
X188059119Y-120762133D01*
X188052441Y-120756521D01*
X188045366Y-120751300D01*
X188037908Y-120746471D01*
X188030079Y-120742038D01*
X188021893Y-120738003D01*
X188013363Y-120734368D01*
X188004503Y-120731137D01*
X187995326Y-120728311D01*
X187985846Y-120725893D01*
X187976077Y-120723886D01*
X187966030Y-120722293D01*
X187945162Y-120720356D01*
X187923349Y-120720104D01*
X187900699Y-120721557D01*
X187877319Y-120724735D01*
X187832886Y-120734697D01*
X187784555Y-120750012D01*
X187732642Y-120770617D01*
X187677463Y-120796447D01*
X187619335Y-120827438D01*
X187558574Y-120863526D01*
X187495497Y-120904646D01*
X187430422Y-120950734D01*
X187363663Y-121001726D01*
X187295538Y-121057558D01*
X187226364Y-121118165D01*
X187156456Y-121183483D01*
X187086132Y-121253448D01*
X187015708Y-121327995D01*
X186945501Y-121407060D01*
X186875827Y-121490580D01*
X185712077Y-124512617D01*
X184095119Y-124789602D01*
X184593558Y-123520199D01*
X185079040Y-122272446D01*
X185196241Y-121966437D01*
X185249637Y-121824622D01*
X185297237Y-121693509D01*
X185337296Y-121575530D01*
X185353953Y-121522224D01*
X185368070Y-121473114D01*
X185379429Y-121428502D01*
X185387813Y-121388694D01*
X185393004Y-121353991D01*
X185394782Y-121324700D01*
X185394482Y-121315098D01*
X185393611Y-121305796D01*
X185392182Y-121296799D01*
X185390204Y-121288111D01*
X185387691Y-121279738D01*
X185384653Y-121271684D01*
X185381102Y-121263954D01*
X185377049Y-121256553D01*
X185372506Y-121249486D01*
X185367484Y-121242758D01*
X185361995Y-121236373D01*
X185356051Y-121230338D01*
X185349662Y-121224655D01*
X185342840Y-121219331D01*
X185335598Y-121214370D01*
X185327945Y-121209777D01*
X185319894Y-121205558D01*
X185311456Y-121201716D01*
X185302643Y-121198257D01*
X185293466Y-121195185D01*
X185274067Y-121190225D01*
X185253349Y-121186874D01*
X185231406Y-121185171D01*
X185208329Y-121185155D01*
X185184210Y-121186866D01*
X185159141Y-121190342D01*
X185117962Y-121199642D01*
X185072256Y-121214259D01*
X185022393Y-121234187D01*
X184968745Y-121259421D01*
X184911683Y-121289954D01*
X184851579Y-121325779D01*
X184788804Y-121366891D01*
X184723728Y-121413283D01*
X184656725Y-121464948D01*
X184588163Y-121521882D01*
X184518416Y-121584077D01*
X184447854Y-121651527D01*
X184376849Y-121724226D01*
X184305772Y-121802168D01*
X184234994Y-121885346D01*
X184164886Y-121973755D01*
X182991832Y-124978739D01*
X181394000Y-125252621D01*
X181797595Y-124213408D01*
X181737264Y-124252882D01*
X181676245Y-124290780D01*
X181614557Y-124327060D01*
X181552223Y-124361679D01*
X181489263Y-124394598D01*
X181425699Y-124425773D01*
X181361552Y-124455164D01*
X181296843Y-124482728D01*
X181231593Y-124508425D01*
X181165824Y-124532212D01*
X181099556Y-124554048D01*
X181032811Y-124573891D01*
X180965610Y-124591699D01*
X180897974Y-124607432D01*
X180829924Y-124621048D01*
X180761482Y-124632504D01*
X180671269Y-124738261D01*
X180576571Y-124841221D01*
X180477393Y-124941071D01*
X180373740Y-125037498D01*
X180265618Y-125130189D01*
X180153032Y-125218833D01*
X180035986Y-125303116D01*
X179914488Y-125382725D01*
X179788540Y-125457348D01*
X179658149Y-125526672D01*
X179523321Y-125590384D01*
X179384059Y-125648172D01*
X179240370Y-125699723D01*
X179092259Y-125744724D01*
X178939731Y-125782862D01*
X178782790Y-125813826D01*
X178685786Y-125828915D01*
X178591254Y-125840561D01*
X178499198Y-125848813D01*
X178409623Y-125853720D01*
X178322533Y-125855332D01*
X178237934Y-125853698D01*
X178155830Y-125848869D01*
X178076226Y-125840893D01*
X177999125Y-125829821D01*
X177924534Y-125815701D01*
X177852456Y-125798584D01*
X177782895Y-125778520D01*
X177715858Y-125755557D01*
X177651348Y-125729745D01*
X177589370Y-125701134D01*
X177529928Y-125669774D01*
X177473028Y-125635714D01*
X177418673Y-125599004D01*
X177366869Y-125559693D01*
X177317619Y-125517831D01*
X177270930Y-125473467D01*
X177226805Y-125426652D01*
X177185248Y-125377434D01*
X177146266Y-125325864D01*
X177109861Y-125271990D01*
X177076040Y-125215863D01*
X177044805Y-125157533D01*
X177016163Y-125097048D01*
X176990118Y-125034458D01*
X176966674Y-124969813D01*
X176945835Y-124903163D01*
X176927608Y-124834557D01*
X176813704Y-124996028D01*
X176697378Y-125151670D01*
X176578557Y-125301095D01*
X176457165Y-125443912D01*
X176333127Y-125579732D01*
X176206369Y-125708166D01*
X176076816Y-125828824D01*
X175944392Y-125941318D01*
X175809023Y-126045258D01*
X175670635Y-126140254D01*
X175529152Y-126225916D01*
X175384500Y-126301857D01*
X175236604Y-126367686D01*
X175085388Y-126423014D01*
X174930779Y-126467451D01*
X174772701Y-126500609D01*
X174679852Y-126514196D01*
X174591017Y-126522436D01*
X174506247Y-126525334D01*
X174425593Y-126522894D01*
X174349107Y-126515118D01*
X174276841Y-126502011D01*
X174208846Y-126483576D01*
X174145173Y-126459818D01*
X174085875Y-126430740D01*
X174031001Y-126396346D01*
X173980605Y-126356639D01*
X173934738Y-126311624D01*
X173893450Y-126261303D01*
X173856794Y-126205682D01*
X173824821Y-126144763D01*
X173797582Y-126078551D01*
X173775129Y-126007048D01*
X173757514Y-125930260D01*
X173744788Y-125848189D01*
X173737002Y-125760840D01*
X173734209Y-125668216D01*
X173736458Y-125570321D01*
X173756295Y-125358733D01*
X173796923Y-125126106D01*
X173858755Y-124872470D01*
X173942203Y-124597855D01*
X174047679Y-124302292D01*
X174110725Y-124152428D01*
X174237117Y-123823018D01*
X174291229Y-123680495D01*
X174337871Y-123553551D01*
X174375983Y-123442782D01*
X174391509Y-123393649D01*
X174404505Y-123348783D01*
X174414839Y-123308257D01*
X174422377Y-123272147D01*
X174426988Y-123240526D01*
X174428539Y-123213469D01*
X174428248Y-123203026D01*
X174427381Y-123192936D01*
X174425949Y-123183201D01*
X174423962Y-123173825D01*
X174421429Y-123164812D01*
X174418361Y-123156164D01*
X174414767Y-123147887D01*
X174410657Y-123139982D01*
X174406041Y-123132454D01*
X174400929Y-123125306D01*
X174395331Y-123118542D01*
X174389257Y-123112165D01*
X174382717Y-123106179D01*
X174375720Y-123100587D01*
X174368278Y-123095392D01*
X174360399Y-123090599D01*
X174352093Y-123086211D01*
X174343371Y-123082231D01*
X174334242Y-123078663D01*
X174324717Y-123075511D01*
X174314804Y-123072777D01*
X174304515Y-123070465D01*
X174282846Y-123067124D01*
X174259789Y-123065514D01*
X174235423Y-123065665D01*
X174209827Y-123067603D01*
X174183082Y-123071358D01*
X174141905Y-123080679D01*
X174096207Y-123095305D01*
X174046363Y-123115215D01*
X173992744Y-123140388D01*
X173935726Y-123170804D01*
X173875681Y-123206442D01*
X173812982Y-123247282D01*
X173748003Y-123293302D01*
X173681117Y-123344481D01*
X173612698Y-123400800D01*
X173543118Y-123462237D01*
X173472752Y-123528772D01*
X173401972Y-123600383D01*
X173331153Y-123677050D01*
X173260666Y-123758753D01*
X173190887Y-123845471D01*
X172017833Y-126859755D01*
X170417930Y-127133642D01*
X170563655Y-126757952D01*
X170489204Y-126823700D01*
X170413791Y-126886818D01*
X170337411Y-126947221D01*
X170260055Y-127004825D01*
X170181717Y-127059543D01*
X170102390Y-127111292D01*
X170022066Y-127159987D01*
X169940739Y-127205543D01*
X169858401Y-127247874D01*
X169775046Y-127286897D01*
X169690666Y-127322527D01*
X169605254Y-127354678D01*
X169518803Y-127383266D01*
X169431306Y-127408206D01*
X169342756Y-127429413D01*
X169253146Y-127446802D01*
X169163234Y-127460100D01*
X169078070Y-127468544D01*
X168997532Y-127472423D01*
X168921495Y-127472030D01*
X168849834Y-127467655D01*
X168782425Y-127459588D01*
X168719144Y-127448120D01*
X168659867Y-127433541D01*
X168604470Y-127416143D01*
X168552828Y-127396216D01*
X168504816Y-127374050D01*
X168460311Y-127349937D01*
X168419189Y-127324167D01*
X168381324Y-127297030D01*
X168346594Y-127268818D01*
X168314873Y-127239820D01*
X168286037Y-127210328D01*
X168259963Y-127180632D01*
X168236525Y-127151024D01*
X168215599Y-127121792D01*
X168197062Y-127093229D01*
X168180788Y-127065625D01*
X168154536Y-127014455D01*
X168135848Y-126970609D01*
X168123731Y-126936412D01*
X168115230Y-126906263D01*
X168000784Y-127040819D01*
X167866344Y-127181676D01*
X167782333Y-127262526D01*
X167688085Y-127347286D01*
X167584319Y-127433678D01*
X167471752Y-127519425D01*
X167351103Y-127602247D01*
X167223089Y-127679868D01*
X167088429Y-127750008D01*
X167018831Y-127781561D01*
X166947841Y-127810390D01*
X166875548Y-127836210D01*
X166802042Y-127858736D01*
X166727414Y-127877683D01*
X166651752Y-127892767D01*
X166591022Y-127901847D01*
X166532055Y-127908006D01*
X166474850Y-127911305D01*
X166419407Y-127911805D01*
X166365727Y-127909564D01*
X166313811Y-127904645D01*
X166263658Y-127897106D01*
X166215269Y-127887008D01*
X166168645Y-127874411D01*
X166123786Y-127859375D01*
X166080691Y-127841961D01*
X166039363Y-127822228D01*
X165999800Y-127800237D01*
X165962003Y-127776048D01*
X165925973Y-127749721D01*
X165891710Y-127721316D01*
X165859215Y-127690894D01*
X165828487Y-127658515D01*
X165799528Y-127624239D01*
X165772336Y-127588125D01*
X165746914Y-127550235D01*
X165723261Y-127510628D01*
X165701377Y-127469365D01*
X165681264Y-127426506D01*
X165662920Y-127382110D01*
X165646348Y-127336239D01*
X165631546Y-127288952D01*
X165618516Y-127240310D01*
X165607258Y-127190372D01*
X165597772Y-127139199D01*
X165584117Y-127033388D01*
X165480391Y-127164225D01*
X165374607Y-127290669D01*
X165266818Y-127412360D01*
X165157078Y-127528937D01*
X165045440Y-127640038D01*
X164931955Y-127745304D01*
X164816678Y-127844373D01*
X164699661Y-127936886D01*
X164580956Y-128022481D01*
X164460618Y-128100797D01*
X164338698Y-128171474D01*
X164215250Y-128234151D01*
X164090326Y-128288468D01*
X163963980Y-128334063D01*
X163836264Y-128370576D01*
X163707231Y-128397646D01*
X163654369Y-128405801D01*
X163602157Y-128412047D01*
X163550651Y-128416363D01*
X163499910Y-128418727D01*
X163449991Y-128419119D01*
X163400950Y-128417516D01*
X163352845Y-128413897D01*
X163305734Y-128408242D01*
X163259673Y-128400528D01*
X163214720Y-128390735D01*
X163170933Y-128378840D01*
X163128368Y-128364824D01*
X163087083Y-128348664D01*
X163047135Y-128330339D01*
X163008581Y-128309827D01*
X162971479Y-128287109D01*
X162935886Y-128262161D01*
X162901859Y-128234963D01*
X162869456Y-128205493D01*
X162838734Y-128173730D01*
X162809749Y-128139653D01*
X162782561Y-128103241D01*
X162757225Y-128064471D01*
X162733798Y-128023323D01*
X162712340Y-127979776D01*
X162692905Y-127933808D01*
X162675553Y-127885397D01*
X162660340Y-127834523D01*
X162647323Y-127781164D01*
X162636560Y-127725298D01*
X162628108Y-127666905D01*
X162622024Y-127605963D01*
X162517518Y-127724273D01*
X162410204Y-127840058D01*
X162300235Y-127952812D01*
X162187766Y-128062031D01*
X162072949Y-128167208D01*
X161955940Y-128267838D01*
X161836893Y-128363416D01*
X161715961Y-128453436D01*
X161593298Y-128537392D01*
X161469059Y-128614780D01*
X161343398Y-128685094D01*
X161216468Y-128747828D01*
X161088423Y-128802477D01*
X160959418Y-128848536D01*
X160829607Y-128885498D01*
X160699144Y-128912859D01*
X160621476Y-128924404D01*
X160544469Y-128932322D01*
X160468256Y-128936617D01*
X160392971Y-128937290D01*
X160318750Y-128934343D01*
X160245727Y-128927778D01*
X160174035Y-128917599D01*
X160103810Y-128903805D01*
X160035185Y-128886401D01*
X159968296Y-128865388D01*
X159903276Y-128840768D01*
X159840260Y-128812543D01*
X159779382Y-128780715D01*
X159720778Y-128745287D01*
X159664580Y-128706261D01*
X159610924Y-128663638D01*
X159559944Y-128617422D01*
X159511775Y-128567613D01*
X159466550Y-128514215D01*
X159424405Y-128457229D01*
X159385473Y-128396658D01*
X159349889Y-128332503D01*
X159317788Y-128264767D01*
X159289303Y-128193452D01*
X159264570Y-128118560D01*
X159243722Y-128040093D01*
X159226894Y-127958054D01*
X159214221Y-127872444D01*
X159205837Y-127783265D01*
X159201876Y-127690521D01*
X159202472Y-127594212D01*
X159207761Y-127494341D01*
X159211448Y-127454411D01*
X159215705Y-127416248D01*
X159220528Y-127379812D01*
X159225912Y-127345063D01*
X159231854Y-127311963D01*
X159238348Y-127280470D01*
X159245390Y-127250545D01*
X159252977Y-127222149D01*
X159261103Y-127195242D01*
X159269765Y-127169784D01*
X159278958Y-127145736D01*
X159288678Y-127123057D01*
X159298921Y-127101708D01*
X159309681Y-127081649D01*
X159320956Y-127062841D01*
X159332740Y-127045243D01*
X159345029Y-127028817D01*
X159357820Y-127013522D01*
X159371107Y-126999318D01*
X159384886Y-126986166D01*
X159399153Y-126974027D01*
X159413904Y-126962860D01*
X159429135Y-126952625D01*
X159444840Y-126943283D01*
X159461016Y-126934795D01*
X159477658Y-126927120D01*
X159494763Y-126920219D01*
X159512325Y-126914052D01*
X159530341Y-126908579D01*
X159548806Y-126903761D01*
X159587066Y-126895929D01*
X159686524Y-126877335D01*
X159744022Y-126863817D01*
X159805744Y-126846107D01*
X159870976Y-126823170D01*
X159939001Y-126793972D01*
X160009104Y-126757479D01*
X160080569Y-126712656D01*
X160116588Y-126686797D01*
X160152680Y-126658469D01*
X160188754Y-126627541D01*
X160224721Y-126593884D01*
X160260492Y-126557369D01*
X160295978Y-126517867D01*
X160331087Y-126475248D01*
X160365733Y-126429383D01*
X160399824Y-126380143D01*
X160433271Y-126327399D01*
X160465985Y-126271021D01*
X160497877Y-126210879D01*
X160528856Y-126146846D01*
X160558835Y-126078790D01*
X160587722Y-126006584D01*
X160615428Y-125930098D01*
X160628186Y-125889887D01*
X160639179Y-125851388D01*
X160648426Y-125813721D01*
X160652401Y-125794926D01*
X160655947Y-125776009D01*
X160659067Y-125756860D01*
X160661762Y-125737371D01*
X160664037Y-125717430D01*
X160665892Y-125696929D01*
X160667330Y-125675757D01*
X160668355Y-125653804D01*
X160668968Y-125630961D01*
X160669172Y-125607117D01*
X160668512Y-125578740D01*
X160666544Y-125552796D01*
X160665053Y-125540724D01*
X160663214Y-125529244D01*
X160661022Y-125518352D01*
X160658470Y-125508042D01*
X160655550Y-125498309D01*
X160652257Y-125489148D01*
X160648583Y-125480553D01*
X160644522Y-125472519D01*
X160640067Y-125465041D01*
X160635212Y-125458114D01*
X160629950Y-125451732D01*
X160624274Y-125445890D01*
X160618178Y-125440583D01*
X160611655Y-125435806D01*
X160604699Y-125431553D01*
X160597302Y-125427820D01*
X160589458Y-125424600D01*
X160581160Y-125421889D01*
X160572402Y-125419682D01*
X160563177Y-125417972D01*
X160553479Y-125416756D01*
X160543300Y-125416027D01*
X160532634Y-125415780D01*
X160521475Y-125416011D01*
X160509815Y-125416714D01*
X160497649Y-125417883D01*
X160471769Y-125421600D01*
X160424563Y-125431865D01*
X160374961Y-125446934D01*
X160323034Y-125466889D01*
X160268851Y-125491806D01*
X160212483Y-125521765D01*
X160154000Y-125556845D01*
X160093470Y-125597123D01*
X160030966Y-125642679D01*
X159966556Y-125693592D01*
X159900310Y-125749939D01*
X159832299Y-125811800D01*
X159762593Y-125879254D01*
X159691261Y-125952378D01*
X159618374Y-126031252D01*
X159544001Y-126115955D01*
X159468213Y-126206564D01*
X158294641Y-129211550D01*
X156696805Y-129485434D01*
X157077661Y-128507715D01*
X157010443Y-128551673D01*
X156941703Y-128593760D01*
X156871443Y-128633851D01*
X156799666Y-128671822D01*
X156726375Y-128707547D01*
X156651571Y-128740900D01*
X156575257Y-128771758D01*
X156497436Y-128799993D01*
X156418110Y-128825482D01*
X156337281Y-128848099D01*
X156254952Y-128867718D01*
X156171126Y-128884215D01*
X156085804Y-128897465D01*
X155998989Y-128907342D01*
X155910684Y-128913720D01*
X155820892Y-128916475D01*
X155694402Y-129083587D01*
X155564202Y-129245839D01*
X155430436Y-129402848D01*
X155293248Y-129554228D01*
X155152785Y-129699595D01*
X155009190Y-129838564D01*
X154862610Y-129970752D01*
X154713187Y-130095773D01*
X154561069Y-130213243D01*
X154406400Y-130322778D01*
X154249324Y-130423993D01*
X154089987Y-130516504D01*
X153928533Y-130599926D01*
X153765108Y-130673875D01*
X153599856Y-130737966D01*
X153432924Y-130791815D01*
X153432182Y-130792261D01*
X153431436Y-130792663D01*
X153430689Y-130793025D01*
X153429940Y-130793348D01*
X153429189Y-130793637D01*
X153428438Y-130793895D01*
X153427687Y-130794124D01*
X153426937Y-130794328D01*
X153426189Y-130794510D01*
X153425442Y-130794673D01*
X153423958Y-130794954D01*
X153421043Y-130795427D01*
X153364193Y-130810924D01*
X153307189Y-130825351D01*
X153250054Y-130838635D01*
X153192809Y-130850702D01*
X153135477Y-130861480D01*
X153078081Y-130870895D01*
X153020644Y-130878874D01*
X152963187Y-130885344D01*
X152854974Y-130894916D01*
X152749462Y-130900394D01*
X152646663Y-130901826D01*
X152546586Y-130899261D01*
X152449242Y-130892746D01*
X152354642Y-130882332D01*
X152262795Y-130868064D01*
X152173711Y-130849993D01*
X152087402Y-130828165D01*
X152003876Y-130802631D01*
X151923145Y-130773437D01*
X151845219Y-130740632D01*
X151770108Y-130704265D01*
X151697822Y-130664384D01*
X151628372Y-130621037D01*
X151561767Y-130574272D01*
X151498018Y-130524138D01*
X151437136Y-130470683D01*
X151379130Y-130413956D01*
X151324010Y-130354004D01*
X151271788Y-130290876D01*
X151222473Y-130224621D01*
X151176076Y-130155286D01*
X151132606Y-130082921D01*
X151092075Y-130007572D01*
X151054491Y-129929290D01*
X151019867Y-129848121D01*
X150988211Y-129764115D01*
X150959534Y-129677319D01*
X150933846Y-129587782D01*
X150911159Y-129495553D01*
X150891481Y-129400679D01*
X150890083Y-129394277D01*
X150889469Y-129391204D01*
X150888932Y-129388158D01*
X150888487Y-129385095D01*
X150888151Y-129381970D01*
X150888028Y-129380371D01*
X150887938Y-129378740D01*
X150887882Y-129377072D01*
X150887863Y-129375361D01*
X150870864Y-129274031D01*
X150857249Y-129169936D01*
X150847027Y-129063135D01*
X150840203Y-128953690D01*
X150836786Y-128841660D01*
X150836781Y-128727106D01*
X150837369Y-128706984D01*
X152264950Y-128706984D01*
X152268472Y-128811700D01*
X152276123Y-128911843D01*
X152287909Y-129007206D01*
X152303836Y-129097586D01*
X152323908Y-129182775D01*
X152348133Y-129262569D01*
X152376515Y-129336761D01*
X152409060Y-129405148D01*
X152445773Y-129467522D01*
X152486661Y-129523679D01*
X152531729Y-129573414D01*
X152580982Y-129616519D01*
X152634427Y-129652791D01*
X152692068Y-129682024D01*
X152753911Y-129704012D01*
X152819004Y-129718265D01*
X152886628Y-129724792D01*
X152956624Y-129723755D01*
X153028831Y-129715314D01*
X153103089Y-129699633D01*
X153179238Y-129676872D01*
X153257117Y-129647192D01*
X153336566Y-129610756D01*
X153499531Y-129518261D01*
X153666852Y-129400680D01*
X153837246Y-129259304D01*
X154009431Y-129095427D01*
X154182122Y-128910341D01*
X154354039Y-128705339D01*
X154523897Y-128481715D01*
X154690415Y-128240760D01*
X154852309Y-127983767D01*
X155008297Y-127712030D01*
X155157097Y-127426841D01*
X155297425Y-127129492D01*
X155425021Y-126828180D01*
X155536407Y-126532070D01*
X155631550Y-126242801D01*
X155710415Y-125962010D01*
X155743732Y-125825305D01*
X155772966Y-125691335D01*
X155798113Y-125560303D01*
X155819169Y-125432415D01*
X155836130Y-125307875D01*
X155848990Y-125186888D01*
X155857746Y-125069659D01*
X155862394Y-124956392D01*
X155862928Y-124847293D01*
X155859345Y-124742565D01*
X155851640Y-124642414D01*
X155839809Y-124547045D01*
X155823848Y-124456662D01*
X155803752Y-124371470D01*
X155779517Y-124291674D01*
X155751138Y-124217479D01*
X155718612Y-124149089D01*
X155681934Y-124086709D01*
X155641099Y-124030544D01*
X155596103Y-123980799D01*
X155546942Y-123937678D01*
X155493612Y-123901386D01*
X155436108Y-123872128D01*
X155374425Y-123850109D01*
X155358364Y-123845820D01*
X155342154Y-123842025D01*
X155325792Y-123838721D01*
X155309275Y-123835903D01*
X155292601Y-123833569D01*
X155275768Y-123831715D01*
X155258774Y-123830338D01*
X155241615Y-123829436D01*
X155241615Y-123829434D01*
X155175947Y-123830232D01*
X155108345Y-123837548D01*
X155038940Y-123851248D01*
X154967863Y-123871199D01*
X154821217Y-123929319D01*
X154669458Y-124010842D01*
X154513633Y-124114701D01*
X154354794Y-124239829D01*
X154193989Y-124385158D01*
X154032267Y-124549623D01*
X153870678Y-124732156D01*
X153710272Y-124931690D01*
X153552097Y-125147158D01*
X153397203Y-125377494D01*
X153246640Y-125621631D01*
X153101457Y-125878502D01*
X152962703Y-126147039D01*
X152831428Y-126426176D01*
X152703826Y-126727149D01*
X152592383Y-127022979D01*
X152497142Y-127312023D01*
X152418149Y-127592635D01*
X152384759Y-127729266D01*
X152355448Y-127863173D01*
X152330222Y-127994150D01*
X152309086Y-128121992D01*
X152292045Y-128246494D01*
X152279105Y-128367449D01*
X152270273Y-128484653D01*
X152265553Y-128597900D01*
X152264950Y-128706984D01*
X150837369Y-128706984D01*
X150840197Y-128610087D01*
X150847039Y-128490664D01*
X150869244Y-128247444D01*
X150902052Y-128001597D01*
X150945136Y-127753739D01*
X150998167Y-127504490D01*
X151060818Y-127254467D01*
X151132761Y-127004287D01*
X151213666Y-126754570D01*
X151303208Y-126505933D01*
X151506884Y-126014370D01*
X151741166Y-125534542D01*
X152003429Y-125071394D01*
X152291049Y-124629868D01*
X152443547Y-124418758D01*
X152601401Y-124214908D01*
X152764281Y-124018936D01*
X152931860Y-123831459D01*
X153103811Y-123653095D01*
X153279804Y-123484463D01*
X153459512Y-123326180D01*
X153642607Y-123178865D01*
X153828760Y-123043135D01*
X154017645Y-122919608D01*
X154208932Y-122808902D01*
X154402293Y-122711635D01*
X154597401Y-122628426D01*
X154793928Y-122559892D01*
X154991546Y-122506651D01*
X155189925Y-122469320D01*
X155202226Y-122467265D01*
X155214670Y-122465347D01*
X155239794Y-122461862D01*
X155264918Y-122458747D01*
X155289661Y-122455885D01*
X155411644Y-122445773D01*
X155530400Y-122441718D01*
X155645878Y-122443661D01*
X155758026Y-122451541D01*
X155866795Y-122465297D01*
X155972131Y-122484868D01*
X156073985Y-122510194D01*
X156172304Y-122541214D01*
X156267038Y-122577867D01*
X156358136Y-122620092D01*
X156445546Y-122667830D01*
X156529217Y-122721019D01*
X156609098Y-122779598D01*
X156685138Y-122843508D01*
X156757285Y-122912686D01*
X156825489Y-122987073D01*
X156889698Y-123066608D01*
X156949861Y-123151230D01*
X157005926Y-123240879D01*
X157057843Y-123335493D01*
X157105560Y-123435012D01*
X157149027Y-123539375D01*
X157188191Y-123648523D01*
X157223003Y-123762393D01*
X157253409Y-123880926D01*
X157279360Y-124004060D01*
X157300805Y-124131735D01*
X157317691Y-124263891D01*
X157337585Y-124541400D01*
X157338632Y-124836102D01*
X157338384Y-124862745D01*
X157337699Y-124889630D01*
X157335369Y-124943956D01*
X157329332Y-125053660D01*
X157313933Y-125230358D01*
X157292160Y-125409785D01*
X157264148Y-125591596D01*
X157230031Y-125775448D01*
X157189944Y-125960997D01*
X157144022Y-126147900D01*
X157092399Y-126335812D01*
X157035210Y-126524390D01*
X156972590Y-126713291D01*
X156904673Y-126902170D01*
X156831593Y-127090684D01*
X156753486Y-127278490D01*
X156670485Y-127465243D01*
X156582726Y-127650601D01*
X156490344Y-127834219D01*
X156393472Y-128015753D01*
X156457247Y-127999061D01*
X156519282Y-127980280D01*
X156579598Y-127959512D01*
X156638220Y-127936861D01*
X156695167Y-127912428D01*
X156750463Y-127886315D01*
X156804129Y-127858626D01*
X156856187Y-127829462D01*
X156906660Y-127798926D01*
X156955570Y-127767119D01*
X157048788Y-127700107D01*
X157136017Y-127629243D01*
X157217434Y-127555347D01*
X157293215Y-127479238D01*
X157363538Y-127401734D01*
X157428579Y-127323654D01*
X157488514Y-127245818D01*
X157543521Y-127169044D01*
X157593775Y-127094151D01*
X157639453Y-127021958D01*
X157680732Y-126953283D01*
X159313190Y-122755091D01*
X160913095Y-122480692D01*
X160004106Y-124833002D01*
X160152732Y-124703367D01*
X160303656Y-124584593D01*
X160395329Y-124517618D01*
X160496689Y-124447832D01*
X160606895Y-124376921D01*
X160725106Y-124306571D01*
X160850483Y-124238469D01*
X160982185Y-124174300D01*
X161119372Y-124115750D01*
X161261202Y-124064505D01*
X161406836Y-124022252D01*
X161555433Y-123990675D01*
X161613726Y-123981683D01*
X161670063Y-123974983D01*
X161724451Y-123970526D01*
X161776896Y-123968262D01*
X161827405Y-123968142D01*
X161875986Y-123970117D01*
X161922646Y-123974137D01*
X161967391Y-123980154D01*
X162010228Y-123988118D01*
X162051165Y-123997979D01*
X162090208Y-124009689D01*
X162127365Y-124023198D01*
X162162642Y-124038457D01*
X162196047Y-124055416D01*
X162227586Y-124074027D01*
X162257266Y-124094239D01*
X162285095Y-124116004D01*
X162311079Y-124139273D01*
X162335226Y-124163996D01*
X162357542Y-124190123D01*
X162378034Y-124217606D01*
X162396710Y-124246396D01*
X162413576Y-124276442D01*
X162428640Y-124307696D01*
X162441907Y-124340108D01*
X162453387Y-124373630D01*
X162463084Y-124408211D01*
X162471007Y-124443803D01*
X162477162Y-124480356D01*
X162481557Y-124517821D01*
X162484197Y-124556148D01*
X162485091Y-124595289D01*
X162484091Y-124637944D01*
X162481146Y-124682177D01*
X162469897Y-124774692D01*
X162452300Y-124871474D01*
X162429306Y-124971162D01*
X162401869Y-125072394D01*
X162370942Y-125173810D01*
X162337479Y-125274047D01*
X162302432Y-125371745D01*
X162231400Y-125554078D01*
X162165473Y-125709920D01*
X162079431Y-125898569D01*
X162019313Y-126018525D01*
X161954030Y-126134780D01*
X161883953Y-126247000D01*
X161809455Y-126354847D01*
X161730906Y-126457988D01*
X161648679Y-126556085D01*
X161563146Y-126648804D01*
X161474677Y-126735808D01*
X161383645Y-126816762D01*
X161290422Y-126891329D01*
X161195379Y-126959175D01*
X161098887Y-127019964D01*
X161001319Y-127073359D01*
X160903046Y-127119025D01*
X160804440Y-127156626D01*
X160705873Y-127185827D01*
X160702466Y-127267030D01*
X160701732Y-127320836D01*
X160702864Y-127380865D01*
X160706779Y-127445179D01*
X160714391Y-127511844D01*
X160726616Y-127578924D01*
X160734744Y-127612015D01*
X160744369Y-127644483D01*
X160755604Y-127676087D01*
X160768565Y-127706586D01*
X160783366Y-127735735D01*
X160800120Y-127763295D01*
X160818944Y-127789023D01*
X160839950Y-127812677D01*
X160863254Y-127834015D01*
X160888969Y-127852795D01*
X160917211Y-127868775D01*
X160948094Y-127881713D01*
X160981731Y-127891367D01*
X161018238Y-127897495D01*
X161057729Y-127899855D01*
X161100319Y-127898206D01*
X161146121Y-127892305D01*
X161195251Y-127881910D01*
X161288043Y-127853654D01*
X161385748Y-127812503D01*
X161487856Y-127758729D01*
X161593856Y-127692599D01*
X161703239Y-127614385D01*
X161815494Y-127524354D01*
X161930111Y-127422777D01*
X162046579Y-127309923D01*
X162164390Y-127186061D01*
X162283031Y-127051461D01*
X162401994Y-126906392D01*
X162520768Y-126751123D01*
X162638843Y-126585925D01*
X162755709Y-126411066D01*
X162870855Y-126226815D01*
X162983772Y-126033444D01*
X164606927Y-121847653D01*
X166206313Y-121573769D01*
X164411073Y-126208628D01*
X164373780Y-126306814D01*
X164339713Y-126399312D01*
X164308767Y-126486288D01*
X164280835Y-126567904D01*
X164255811Y-126644324D01*
X164233591Y-126715712D01*
X164214067Y-126782232D01*
X164197135Y-126844047D01*
X164182687Y-126901321D01*
X164170619Y-126954218D01*
X164160824Y-127002902D01*
X164153196Y-127047536D01*
X164147630Y-127088283D01*
X164144019Y-127125309D01*
X164142259Y-127158775D01*
X164142242Y-127188847D01*
X164143863Y-127215688D01*
X164147016Y-127239461D01*
X164151596Y-127260331D01*
X164157496Y-127278460D01*
X164164610Y-127294014D01*
X164172833Y-127307154D01*
X164182058Y-127318046D01*
X164192180Y-127326853D01*
X164203093Y-127333739D01*
X164214691Y-127338866D01*
X164226869Y-127342400D01*
X164239519Y-127344504D01*
X164252537Y-127345341D01*
X164265816Y-127345075D01*
X164279251Y-127343870D01*
X164292735Y-127341890D01*
X164356914Y-127325106D01*
X164426450Y-127295765D01*
X164501090Y-127253814D01*
X164580576Y-127199199D01*
X164664652Y-127131866D01*
X164753064Y-127051760D01*
X164845553Y-126958828D01*
X164941866Y-126853015D01*
X165041745Y-126734267D01*
X165144934Y-126602531D01*
X165251178Y-126457751D01*
X165360221Y-126299875D01*
X165381659Y-126267016D01*
X167139598Y-126267016D01*
X167139911Y-126287943D01*
X167140846Y-126307896D01*
X167142397Y-126326889D01*
X167144556Y-126344935D01*
X167147319Y-126362051D01*
X167150679Y-126378249D01*
X167154629Y-126393544D01*
X167159163Y-126407951D01*
X167164275Y-126421483D01*
X167169959Y-126434155D01*
X167176208Y-126445982D01*
X167183017Y-126456977D01*
X167190378Y-126467156D01*
X167198285Y-126476532D01*
X167206733Y-126485119D01*
X167215715Y-126492932D01*
X167225225Y-126499986D01*
X167235256Y-126506294D01*
X167245802Y-126511872D01*
X167256857Y-126516732D01*
X167268414Y-126520890D01*
X167280468Y-126524360D01*
X167293012Y-126527156D01*
X167306039Y-126529293D01*
X167319544Y-126530784D01*
X167333521Y-126531645D01*
X167347962Y-126531889D01*
X167362861Y-126531531D01*
X167394012Y-126529065D01*
X167426921Y-126524363D01*
X167472392Y-126514956D01*
X167517172Y-126502584D01*
X167561213Y-126487462D01*
X167604464Y-126469803D01*
X167646877Y-126449821D01*
X167688401Y-126427731D01*
X167728989Y-126403746D01*
X167768589Y-126378081D01*
X167807153Y-126350948D01*
X167844632Y-126322563D01*
X167880976Y-126293140D01*
X167916135Y-126262891D01*
X167982704Y-126200777D01*
X168043942Y-126137932D01*
X168099456Y-126076069D01*
X168148849Y-126016900D01*
X168191728Y-125962136D01*
X168227696Y-125913491D01*
X168277322Y-125841401D01*
X168294566Y-125814327D01*
X168826831Y-124454207D01*
X168825768Y-124439493D01*
X168820815Y-124400340D01*
X168816052Y-124373938D01*
X168809325Y-124344232D01*
X168800302Y-124312158D01*
X168788653Y-124278652D01*
X168774046Y-124244649D01*
X168765531Y-124227753D01*
X168756152Y-124211084D01*
X168745868Y-124194758D01*
X168734639Y-124178892D01*
X168722422Y-124163604D01*
X168709177Y-124149010D01*
X168694861Y-124135227D01*
X168679434Y-124122373D01*
X168662854Y-124110563D01*
X168645080Y-124099915D01*
X168626071Y-124090546D01*
X168605785Y-124082573D01*
X168584181Y-124076112D01*
X168561218Y-124071282D01*
X168561218Y-124071278D01*
X168547466Y-124069279D01*
X168533245Y-124067845D01*
X168518548Y-124067007D01*
X168503369Y-124066796D01*
X168487701Y-124067242D01*
X168471539Y-124068377D01*
X168454878Y-124070230D01*
X168437709Y-124072834D01*
X168374482Y-124087854D01*
X168311677Y-124110891D01*
X168249398Y-124141488D01*
X168187749Y-124179188D01*
X168126833Y-124223537D01*
X168066756Y-124274077D01*
X168007620Y-124330352D01*
X167949530Y-124391907D01*
X167836905Y-124529030D01*
X167729711Y-124681797D01*
X167628781Y-124846558D01*
X167534948Y-125019663D01*
X167449043Y-125197465D01*
X167371898Y-125376312D01*
X167304346Y-125552557D01*
X167247219Y-125722550D01*
X167201348Y-125882642D01*
X167167566Y-126029183D01*
X167146706Y-126158524D01*
X167139598Y-126267016D01*
X165381659Y-126267016D01*
X165471806Y-126128847D01*
X165585678Y-125944614D01*
X165701580Y-125747121D01*
X165819257Y-125536314D01*
X165888329Y-125322537D01*
X165966514Y-125105987D01*
X166053950Y-124888607D01*
X166150771Y-124672337D01*
X166257113Y-124459118D01*
X166373111Y-124250892D01*
X166498902Y-124049600D01*
X166634621Y-123857184D01*
X166780404Y-123675585D01*
X166857111Y-123589448D01*
X166936385Y-123506743D01*
X167018243Y-123427713D01*
X167102702Y-123352601D01*
X167189778Y-123281649D01*
X167279489Y-123215100D01*
X167371851Y-123153196D01*
X167466882Y-123096181D01*
X167564598Y-123044296D01*
X167665017Y-122997784D01*
X167768155Y-122956889D01*
X167874029Y-122921853D01*
X167982657Y-122892918D01*
X168094054Y-122870327D01*
X168178400Y-122857910D01*
X168258706Y-122850085D01*
X168335062Y-122846575D01*
X168407557Y-122847106D01*
X168476281Y-122851402D01*
X168541321Y-122859188D01*
X168602769Y-122870190D01*
X168660714Y-122884131D01*
X168715243Y-122900736D01*
X168766448Y-122919731D01*
X168814417Y-122940840D01*
X168859240Y-122963787D01*
X168901005Y-122988298D01*
X168939803Y-123014097D01*
X168975722Y-123040910D01*
X169008852Y-123068460D01*
X169039282Y-123096473D01*
X169067101Y-123124673D01*
X169092400Y-123152786D01*
X169115266Y-123180535D01*
X169154061Y-123233844D01*
X169184199Y-123282398D01*
X169206396Y-123323994D01*
X169221367Y-123356432D01*
X169232486Y-123385025D01*
X171085086Y-122472937D01*
X170011249Y-125248993D01*
X169973137Y-125348965D01*
X169938411Y-125443012D01*
X169906954Y-125531310D01*
X169878651Y-125614036D01*
X169853386Y-125691365D01*
X169831041Y-125763473D01*
X169811502Y-125830536D01*
X169794651Y-125892730D01*
X169780373Y-125950229D01*
X169768552Y-126003212D01*
X169759071Y-126051852D01*
X169751815Y-126096326D01*
X169746667Y-126136811D01*
X169743511Y-126173480D01*
X169742232Y-126206512D01*
X169742712Y-126236081D01*
X169744836Y-126262362D01*
X169748487Y-126285533D01*
X169753550Y-126305769D01*
X169759908Y-126323246D01*
X169767446Y-126338139D01*
X169776047Y-126350624D01*
X169785595Y-126360878D01*
X169795973Y-126369075D01*
X169807066Y-126375393D01*
X169818758Y-126380006D01*
X169830933Y-126383091D01*
X169843473Y-126384823D01*
X169856264Y-126385378D01*
X169869189Y-126384933D01*
X169882132Y-126383662D01*
X169894977Y-126381743D01*
X169957934Y-126365322D01*
X170025967Y-126336701D01*
X170098866Y-126295819D01*
X170176422Y-126242618D01*
X170258426Y-126177037D01*
X170344667Y-126099018D01*
X170434938Y-126008501D01*
X170529027Y-125905426D01*
X170626727Y-125789735D01*
X170727827Y-125661368D01*
X170832118Y-125520265D01*
X170939390Y-125366367D01*
X171049436Y-125199615D01*
X171162044Y-125019950D01*
X171277005Y-124827311D01*
X171394111Y-124621639D01*
X171398246Y-124615437D01*
X173034316Y-120403290D01*
X174634219Y-120128887D01*
X173725227Y-122481199D01*
X173873191Y-122351663D01*
X174023717Y-122232995D01*
X174115300Y-122166061D01*
X174216689Y-122096300D01*
X174327081Y-122025389D01*
X174445671Y-121955007D01*
X174571654Y-121886833D01*
X174704225Y-121822546D01*
X174842581Y-121763825D01*
X174985916Y-121712348D01*
X175133425Y-121669793D01*
X175284305Y-121637840D01*
X175341903Y-121628914D01*
X175397589Y-121622188D01*
X175451367Y-121617629D01*
X175503244Y-121615201D01*
X175553224Y-121614869D01*
X175601313Y-121616598D01*
X175647517Y-121620352D01*
X175691842Y-121626097D01*
X175734292Y-121633798D01*
X175774874Y-121643419D01*
X175813593Y-121654925D01*
X175850455Y-121668282D01*
X175885465Y-121683453D01*
X175918629Y-121700404D01*
X175949952Y-121719100D01*
X175979440Y-121739506D01*
X176007098Y-121761586D01*
X176032933Y-121785305D01*
X176056949Y-121810629D01*
X176079152Y-121837522D01*
X176099548Y-121865949D01*
X176118143Y-121895874D01*
X176134941Y-121927264D01*
X176149948Y-121960082D01*
X176163171Y-121994293D01*
X176174614Y-122029863D01*
X176184283Y-122066757D01*
X176192183Y-122104938D01*
X176198321Y-122144372D01*
X176202702Y-122185025D01*
X176205331Y-122226860D01*
X176206214Y-122269842D01*
X176205286Y-122314699D01*
X176202429Y-122360919D01*
X176197602Y-122408730D01*
X176190762Y-122458358D01*
X176181868Y-122510030D01*
X176170878Y-122563971D01*
X176142442Y-122679569D01*
X176105117Y-122806965D01*
X176058569Y-122947969D01*
X176002462Y-123104393D01*
X175936462Y-123278050D01*
X175540103Y-124301243D01*
X175502794Y-124397968D01*
X175468659Y-124489201D01*
X175437598Y-124575094D01*
X175409510Y-124655803D01*
X175384295Y-124731481D01*
X175361852Y-124802280D01*
X175342080Y-124868356D01*
X175324880Y-124929862D01*
X175310149Y-124986951D01*
X175297789Y-125039777D01*
X175287697Y-125088493D01*
X175279774Y-125133255D01*
X175273919Y-125174214D01*
X175270031Y-125211525D01*
X175268010Y-125245342D01*
X175267754Y-125275818D01*
X175269165Y-125303107D01*
X175272140Y-125327363D01*
X175276579Y-125348739D01*
X175282382Y-125367389D01*
X175289448Y-125383467D01*
X175297677Y-125397126D01*
X175306967Y-125408520D01*
X175317219Y-125417803D01*
X175328331Y-125425128D01*
X175340203Y-125430650D01*
X175352735Y-125434521D01*
X175365825Y-125436896D01*
X175379374Y-125437929D01*
X175393280Y-125437772D01*
X175407444Y-125436579D01*
X175421764Y-125434506D01*
X175486356Y-125417557D01*
X175556390Y-125387862D01*
X175631605Y-125345368D01*
X175711739Y-125290022D01*
X175796529Y-125221771D01*
X175885715Y-125140562D01*
X175979034Y-125046343D01*
X176076225Y-124939059D01*
X176177026Y-124818659D01*
X176281175Y-124685088D01*
X176388410Y-124538295D01*
X176468257Y-124422167D01*
X178412296Y-124422167D01*
X178412704Y-124447252D01*
X178413897Y-124471633D01*
X178415863Y-124495298D01*
X178418590Y-124518232D01*
X178422066Y-124540423D01*
X178426280Y-124561859D01*
X178431218Y-124582526D01*
X178436870Y-124602411D01*
X178443223Y-124621501D01*
X178450265Y-124639783D01*
X178457985Y-124657244D01*
X178466370Y-124673871D01*
X178475409Y-124689652D01*
X178485089Y-124704572D01*
X178495399Y-124718620D01*
X178506326Y-124731782D01*
X178517860Y-124744045D01*
X178529987Y-124755396D01*
X178542696Y-124765822D01*
X178555975Y-124775311D01*
X178569812Y-124783848D01*
X178584195Y-124791422D01*
X178599112Y-124798019D01*
X178614551Y-124803626D01*
X178630500Y-124808230D01*
X178646948Y-124811819D01*
X178663882Y-124814378D01*
X178681290Y-124815896D01*
X178699161Y-124816359D01*
X178717482Y-124815754D01*
X178736241Y-124814068D01*
X178755428Y-124811289D01*
X178774589Y-124807005D01*
X178794651Y-124800635D01*
X178815513Y-124792324D01*
X178837078Y-124782218D01*
X178859246Y-124770462D01*
X178881919Y-124757203D01*
X178904996Y-124742587D01*
X178928381Y-124726758D01*
X178975673Y-124692048D01*
X179023005Y-124654238D01*
X179069585Y-124614496D01*
X179114621Y-124573987D01*
X179157322Y-124533877D01*
X179196897Y-124495331D01*
X179263504Y-124427600D01*
X179324386Y-124362221D01*
X179362418Y-124313183D01*
X179404149Y-124248829D01*
X179448796Y-124171371D01*
X179495577Y-124083023D01*
X179592416Y-123882506D01*
X179688409Y-123664980D01*
X179777300Y-123448148D01*
X179852835Y-123249713D01*
X179908757Y-123087377D01*
X179927409Y-123025279D01*
X179938812Y-122978844D01*
X179959985Y-122891758D01*
X180006556Y-122686928D01*
X180031422Y-122566810D01*
X180053104Y-122448997D01*
X180068425Y-122344069D01*
X180072707Y-122299744D01*
X180074207Y-122262608D01*
X180073723Y-122233812D01*
X180072314Y-122206282D01*
X180070005Y-122180001D01*
X180066824Y-122154952D01*
X180062794Y-122131119D01*
X180057944Y-122108483D01*
X180052300Y-122087029D01*
X180045886Y-122066739D01*
X180038731Y-122047596D01*
X180030859Y-122029583D01*
X180022297Y-122012683D01*
X180013072Y-121996879D01*
X180003209Y-121982155D01*
X179992735Y-121968493D01*
X179981675Y-121955876D01*
X179970057Y-121944287D01*
X179957906Y-121933710D01*
X179945248Y-121924127D01*
X179932110Y-121915521D01*
X179918518Y-121907876D01*
X179904497Y-121901174D01*
X179890075Y-121895398D01*
X179875278Y-121890531D01*
X179860131Y-121886557D01*
X179844661Y-121883459D01*
X179828894Y-121881219D01*
X179812856Y-121879820D01*
X179796574Y-121879246D01*
X179780073Y-121879479D01*
X179763380Y-121880503D01*
X179746521Y-121882300D01*
X179729522Y-121884853D01*
X179729530Y-121884853D01*
X179665401Y-121900810D01*
X179601697Y-121926273D01*
X179538523Y-121960702D01*
X179475985Y-122003553D01*
X179414188Y-122054286D01*
X179353239Y-122112357D01*
X179293242Y-122177224D01*
X179234304Y-122248347D01*
X179120026Y-122407186D01*
X179011252Y-122584538D01*
X178908827Y-122776067D01*
X178813598Y-122977434D01*
X178726409Y-123184304D01*
X178648108Y-123392340D01*
X178579539Y-123597204D01*
X178521550Y-123794560D01*
X178474984Y-123980071D01*
X178440690Y-124149401D01*
X178419511Y-124298211D01*
X178412296Y-124422167D01*
X176468257Y-124422167D01*
X176498471Y-124378226D01*
X176611094Y-124204828D01*
X176726018Y-124018048D01*
X176842981Y-123817833D01*
X176961723Y-123604130D01*
X177019786Y-123390989D01*
X177092258Y-123175018D01*
X177179368Y-122958036D01*
X177281346Y-122741862D01*
X177398420Y-122528316D01*
X177530820Y-122319216D01*
X177678774Y-122116383D01*
X177842512Y-121921635D01*
X178022262Y-121736792D01*
X178118214Y-121648653D01*
X178218254Y-121563672D01*
X178322413Y-121482077D01*
X178430717Y-121404095D01*
X178543197Y-121329954D01*
X178659880Y-121259881D01*
X178780796Y-121194103D01*
X178905972Y-121132848D01*
X179035438Y-121076343D01*
X179169221Y-121024815D01*
X179307352Y-120978493D01*
X179449858Y-120937603D01*
X179596768Y-120902373D01*
X179748111Y-120873030D01*
X179861518Y-120855614D01*
X179971483Y-120842791D01*
X180077996Y-120834503D01*
X180181046Y-120830696D01*
X180280624Y-120831312D01*
X180376718Y-120836294D01*
X180469319Y-120845588D01*
X180558415Y-120859135D01*
X180643998Y-120876879D01*
X180726056Y-120898765D01*
X180804580Y-120924736D01*
X180879558Y-120954735D01*
X180950981Y-120988706D01*
X181018839Y-121026592D01*
X181083120Y-121068338D01*
X181143816Y-121113886D01*
X181200914Y-121163180D01*
X181254406Y-121216164D01*
X181304281Y-121272782D01*
X181350528Y-121332976D01*
X181393138Y-121396691D01*
X181432099Y-121463870D01*
X181467402Y-121534456D01*
X181499036Y-121608394D01*
X181526991Y-121685626D01*
X181551257Y-121766097D01*
X181571824Y-121849750D01*
X181588680Y-121936529D01*
X181601816Y-122026376D01*
X181611222Y-122119236D01*
X181616887Y-122215052D01*
X181618800Y-122313769D01*
X181617559Y-122399954D01*
X181613728Y-122487722D01*
X181607286Y-122576959D01*
X181598212Y-122667549D01*
X181586484Y-122759376D01*
X181572080Y-122852324D01*
X181554980Y-122946278D01*
X181535161Y-123041123D01*
X181512603Y-123136742D01*
X181487284Y-123233021D01*
X181459182Y-123329844D01*
X181428277Y-123427095D01*
X181394546Y-123524659D01*
X181357968Y-123622420D01*
X181318522Y-123720263D01*
X181276187Y-123818071D01*
X181352032Y-123781212D01*
X181427230Y-123740000D01*
X181501718Y-123694465D01*
X181575434Y-123644637D01*
X181648318Y-123590545D01*
X181720308Y-123532219D01*
X181791341Y-123469688D01*
X181861356Y-123402981D01*
X181930290Y-123332127D01*
X181998084Y-123257157D01*
X182064673Y-123178100D01*
X182129998Y-123094984D01*
X182193996Y-123007840D01*
X182256605Y-122916696D01*
X182317764Y-122821583D01*
X182377410Y-122722529D01*
X182379482Y-122720455D01*
X183288474Y-120381064D01*
X184698730Y-120602240D01*
X184698395Y-120602632D01*
X184698110Y-120602979D01*
X184697870Y-120603287D01*
X184697673Y-120603562D01*
X184697589Y-120603688D01*
X184697514Y-120603809D01*
X184697448Y-120603924D01*
X184697390Y-120604035D01*
X184697339Y-120604141D01*
X184697295Y-120604245D01*
X184697258Y-120604345D01*
X184697227Y-120604444D01*
X184697202Y-120604542D01*
X184697182Y-120604639D01*
X184697166Y-120604737D01*
X184697155Y-120604836D01*
X184697143Y-120605040D01*
X184697142Y-120605257D01*
X184697158Y-120605753D01*
X184697166Y-120606044D01*
X184697170Y-120606371D01*
X184855537Y-120470331D01*
X185007654Y-120350373D01*
X185099261Y-120283176D01*
X185200211Y-120213363D01*
X185309737Y-120142581D01*
X185427072Y-120072478D01*
X185551449Y-120004701D01*
X185682100Y-119940898D01*
X185818260Y-119882715D01*
X185959161Y-119831800D01*
X186104035Y-119789801D01*
X186252116Y-119758364D01*
X186309515Y-119749493D01*
X186364973Y-119742859D01*
X186418502Y-119738418D01*
X186470114Y-119736125D01*
X186519818Y-119735935D01*
X186567628Y-119737803D01*
X186613552Y-119741684D01*
X186657604Y-119747535D01*
X186699793Y-119755310D01*
X186740131Y-119764965D01*
X186778630Y-119776455D01*
X186815299Y-119789735D01*
X186850151Y-119804760D01*
X186883196Y-119821487D01*
X186914446Y-119839869D01*
X186943912Y-119859863D01*
X186971604Y-119881424D01*
X186997535Y-119904507D01*
X187021714Y-119929067D01*
X187044154Y-119955061D01*
X187064865Y-119982442D01*
X187083858Y-120011166D01*
X187101145Y-120041189D01*
X187116737Y-120072466D01*
X187130645Y-120104952D01*
X187142880Y-120138603D01*
X187153452Y-120173374D01*
X187162374Y-120209220D01*
X187169657Y-120246096D01*
X187175311Y-120283958D01*
X187179347Y-120322762D01*
X187181777Y-120362461D01*
X187252199Y-120289834D01*
X187377782Y-120168783D01*
X187552832Y-120014783D01*
X187657129Y-119930264D01*
X187771657Y-119843312D01*
X187895705Y-119755861D01*
X188028561Y-119669846D01*
X188169514Y-119587201D01*
X188317852Y-119509861D01*
X188472863Y-119439761D01*
X188633835Y-119378834D01*
X188800057Y-119329017D01*
X188884914Y-119308878D01*
X188970817Y-119292242D01*
X189029924Y-119283085D01*
X189086925Y-119276198D01*
X189141837Y-119271539D01*
X189194673Y-119269069D01*
X189245450Y-119268747D01*
X189294181Y-119270532D01*
X189340883Y-119274384D01*
X189385570Y-119280262D01*
X189428257Y-119288126D01*
X189468959Y-119297934D01*
X189507691Y-119309647D01*
X189544469Y-119323224D01*
X189579307Y-119338625D01*
X189612221Y-119355808D01*
X189643225Y-119374733D01*
X189672334Y-119395361D01*
X189699565Y-119417649D01*
X189724930Y-119441558D01*
X189748447Y-119467047D01*
X189770129Y-119494075D01*
X189789992Y-119522602D01*
X189808051Y-119552588D01*
X189824321Y-119583991D01*
X189838817Y-119616771D01*
X189851553Y-119650888D01*
X189862546Y-119686302D01*
X189871810Y-119722970D01*
X189879360Y-119760854D01*
X189885211Y-119799912D01*
X189889379Y-119840104D01*
X189891877Y-119881389D01*
X189892722Y-119923727D01*
X189891862Y-119966931D01*
X189889237Y-120011710D01*
X189884782Y-120058293D01*
X189878433Y-120106906D01*
X189859788Y-120211132D01*
X189832783Y-120326210D01*
X189796895Y-120453958D01*
X189751604Y-120596195D01*
X189696388Y-120754742D01*
X189630725Y-120931418D01*
X189232299Y-121954611D01*
X189195158Y-122051302D01*
X189161182Y-122142502D01*
X189130270Y-122228365D01*
X189102322Y-122309043D01*
X189077237Y-122384692D01*
X189054916Y-122455464D01*
X189035258Y-122521513D01*
X189018163Y-122582994D01*
X189003530Y-122640058D01*
X188991260Y-122692862D01*
X188981252Y-122741557D01*
X188973406Y-122786297D01*
X188967621Y-122827237D01*
X188963797Y-122864530D01*
X188961834Y-122898330D01*
X188961632Y-122928790D01*
X188963090Y-122956064D01*
X188966109Y-122980306D01*
X188970587Y-123001669D01*
X188976425Y-123020307D01*
X188983522Y-123036374D01*
X188991778Y-123050023D01*
X189001093Y-123061409D01*
X189011367Y-123070684D01*
X189022498Y-123078002D01*
X189034388Y-123083518D01*
X189046935Y-123087385D01*
X189060040Y-123089756D01*
X189073602Y-123090785D01*
X189087520Y-123090626D01*
X189101696Y-123089433D01*
X189116027Y-123087359D01*
X189180101Y-123070574D01*
X189249352Y-123041232D01*
X189323567Y-122999276D01*
X189402531Y-122944650D01*
X189486030Y-122877297D01*
X189573850Y-122797161D01*
X189665776Y-122704184D01*
X189761595Y-122598310D01*
X189861091Y-122479482D01*
X189964051Y-122347645D01*
X190070260Y-122202740D01*
X190179504Y-122044712D01*
X190200593Y-122012493D01*
X191962886Y-122012493D01*
X191963199Y-122033421D01*
X191964134Y-122053374D01*
X191965685Y-122072367D01*
X191967844Y-122090414D01*
X191970607Y-122107530D01*
X191973967Y-122123728D01*
X191977917Y-122139023D01*
X191982451Y-122153430D01*
X191987563Y-122166963D01*
X191993247Y-122179635D01*
X191999496Y-122191462D01*
X192006304Y-122202457D01*
X192013666Y-122212636D01*
X192021573Y-122222012D01*
X192030021Y-122230599D01*
X192039003Y-122238412D01*
X192048512Y-122245466D01*
X192058543Y-122251774D01*
X192069089Y-122257352D01*
X192080144Y-122262212D01*
X192091701Y-122266370D01*
X192103755Y-122269840D01*
X192116298Y-122272636D01*
X192129326Y-122274773D01*
X192142831Y-122276264D01*
X192156807Y-122277125D01*
X192171247Y-122277369D01*
X192186147Y-122277010D01*
X192217297Y-122274545D01*
X192250205Y-122269842D01*
X192295676Y-122260435D01*
X192340457Y-122248064D01*
X192384498Y-122232942D01*
X192427750Y-122215283D01*
X192470162Y-122195301D01*
X192511687Y-122173211D01*
X192552275Y-122149226D01*
X192591875Y-122123560D01*
X192630440Y-122096428D01*
X192667919Y-122068043D01*
X192704263Y-122038619D01*
X192739422Y-122008371D01*
X192805991Y-121946257D01*
X192867230Y-121883412D01*
X192922743Y-121821549D01*
X192972137Y-121762380D01*
X193015016Y-121707616D01*
X193050984Y-121658970D01*
X193100610Y-121586881D01*
X193117854Y-121559807D01*
X193650119Y-120199684D01*
X193649056Y-120184970D01*
X193644103Y-120145818D01*
X193639341Y-120119416D01*
X193632614Y-120089710D01*
X193623591Y-120057637D01*
X193611942Y-120024131D01*
X193597335Y-119990128D01*
X193588820Y-119973232D01*
X193579441Y-119956563D01*
X193569157Y-119940237D01*
X193557927Y-119924371D01*
X193545710Y-119909083D01*
X193532464Y-119894489D01*
X193518149Y-119880707D01*
X193502721Y-119867852D01*
X193486141Y-119856042D01*
X193468367Y-119845394D01*
X193449357Y-119836025D01*
X193429071Y-119828052D01*
X193407466Y-119821592D01*
X193384502Y-119816761D01*
X193384502Y-119816755D01*
X193370752Y-119814778D01*
X193356531Y-119813403D01*
X193341835Y-119812648D01*
X193326656Y-119812532D01*
X193310989Y-119813074D01*
X193294827Y-119814291D01*
X193278165Y-119816203D01*
X193260997Y-119818829D01*
X193197770Y-119833848D01*
X193134965Y-119856880D01*
X193072686Y-119887470D01*
X193011037Y-119925162D01*
X192950121Y-119969499D01*
X192890044Y-120020025D01*
X192830908Y-120076285D01*
X192772818Y-120137823D01*
X192660193Y-120274907D01*
X192552999Y-120427630D01*
X192452069Y-120592343D01*
X192358236Y-120765401D01*
X192272331Y-120943154D01*
X192195186Y-121121955D01*
X192127634Y-121298156D01*
X192070507Y-121468109D01*
X192024636Y-121628167D01*
X191990854Y-121774683D01*
X191969994Y-121904007D01*
X191962886Y-122012493D01*
X190200593Y-122012493D01*
X190291569Y-121873504D01*
X190406241Y-121689059D01*
X190523305Y-121491321D01*
X190642547Y-121280234D01*
X190644622Y-121277657D01*
X190713711Y-121063921D01*
X190791901Y-120847491D01*
X190879328Y-120630298D01*
X190976124Y-120414271D01*
X191082425Y-120201343D01*
X191198364Y-119993443D01*
X191324075Y-119792503D01*
X191459692Y-119600453D01*
X191605350Y-119419224D01*
X191681986Y-119333271D01*
X191761183Y-119250747D01*
X191842956Y-119171894D01*
X191927324Y-119096953D01*
X192014302Y-119026165D01*
X192103908Y-118959772D01*
X192196158Y-118898016D01*
X192291069Y-118841136D01*
X192388658Y-118789375D01*
X192488941Y-118742975D01*
X192591935Y-118702176D01*
X192697658Y-118667220D01*
X192806125Y-118638348D01*
X192917354Y-118615801D01*
X193001700Y-118603384D01*
X193082006Y-118595559D01*
X193158362Y-118592049D01*
X193230857Y-118592580D01*
X193299580Y-118596876D01*
X193364621Y-118604662D01*
X193426069Y-118615664D01*
X193484013Y-118629605D01*
X193538543Y-118646210D01*
X193589748Y-118665205D01*
X193637717Y-118686313D01*
X193682539Y-118709261D01*
X193724304Y-118733772D01*
X193763102Y-118759571D01*
X193799021Y-118786384D01*
X193832151Y-118813934D01*
X193862581Y-118841947D01*
X193890401Y-118870147D01*
X193915699Y-118898260D01*
X193938566Y-118926009D01*
X193977360Y-118979318D01*
X194007499Y-119027871D01*
X194029696Y-119069468D01*
X194044666Y-119101906D01*
X194055785Y-119130499D01*
X195908382Y-118218413D01*
X194834522Y-120994486D01*
G37*
D11*
%TO.C,D1*%
X166134878Y-86276821D02*
X165520000Y-86631821D01*
X166514878Y-86935000D02*
X166134878Y-86276821D01*
%TO.C,D11*%
X169910000Y-76590000D02*
X169910000Y-77300000D01*
X170670000Y-76590000D02*
X169910000Y-76590000D01*
%TO.C,D9*%
X163142302Y-67793179D02*
X163757180Y-68148179D01*
X163522302Y-67135000D02*
X163142302Y-67793179D01*
D12*
%TO.C,J2*%
X199710000Y-93190000D02*
X212310000Y-93190000D01*
X199710000Y-99090000D02*
X199710000Y-93190000D01*
X212310000Y-93190000D02*
X212310000Y-99090000D01*
X212310000Y-99090000D02*
X199710000Y-99090000D01*
D13*
X208359500Y-93079300D02*
X203660500Y-93079300D01*
X203660500Y-91936300D01*
X208359500Y-91936300D01*
X208359500Y-93079300D01*
G36*
X208359500Y-93079300D02*
G01*
X203660500Y-93079300D01*
X203660500Y-91936300D01*
X208359500Y-91936300D01*
X208359500Y-93079300D01*
G37*
D11*
%TO.C,D8*%
X157560000Y-66410000D02*
X157560000Y-67170000D01*
X157560000Y-67170000D02*
X158270000Y-67170000D01*
D12*
%TO.C,J3*%
X105190000Y-88790000D02*
X117790000Y-88790000D01*
X105190000Y-94690000D02*
X105190000Y-88790000D01*
X117790000Y-88790000D02*
X117790000Y-94690000D01*
X117790000Y-94690000D02*
X105190000Y-94690000D01*
D13*
X113839500Y-88679300D02*
X109140500Y-88679300D01*
X109140500Y-87536300D01*
X113839500Y-87536300D01*
X113839500Y-88679300D01*
G36*
X113839500Y-88679300D02*
G01*
X109140500Y-88679300D01*
X109140500Y-87536300D01*
X113839500Y-87536300D01*
X113839500Y-88679300D01*
G37*
D11*
%TO.C,D2*%
X160600000Y-88690000D02*
X159890000Y-88690000D01*
X160600000Y-89450000D02*
X160600000Y-88690000D01*
%TO.C,SW1*%
X153240000Y-71790000D02*
X155640000Y-71790000D01*
X153240000Y-75890000D02*
X153240000Y-71790000D01*
X153240000Y-79890000D02*
X153240000Y-83990000D01*
X153240000Y-83990000D02*
X165040000Y-83990000D01*
X155040000Y-85090000D02*
X155340000Y-85390000D01*
X155040000Y-85690000D02*
X155040000Y-85090000D01*
X155340000Y-85390000D02*
X155040000Y-85690000D01*
X157840000Y-71790000D02*
X160440000Y-71790000D01*
X158640000Y-77890000D02*
X159640000Y-77890000D01*
X159140000Y-78390000D02*
X159140000Y-77390000D01*
X162640000Y-71790000D02*
X165040000Y-71790000D01*
X165040000Y-71790000D02*
X165040000Y-75890000D01*
X165040000Y-79890000D02*
X165040000Y-83990000D01*
X162140000Y-77890000D02*
G75*
G02*
X156140000Y-77890000I-3000000J0D01*
G01*
X156140000Y-77890000D02*
G75*
G02*
X162140000Y-77890000I3000000J0D01*
G01*
%TO.C,D10*%
X167656821Y-71159482D02*
X168011821Y-71774360D01*
X168315000Y-70779482D02*
X167656821Y-71159482D01*
%TO.C,D6*%
X148395000Y-73460518D02*
X149053179Y-73840518D01*
X149053179Y-73840518D02*
X149408179Y-73225640D01*
%TO.C,D7*%
X151559482Y-69085000D02*
X151939482Y-69743179D01*
X151939482Y-69743179D02*
X152554360Y-69388179D01*
%TO.C,D5*%
X147650000Y-79040000D02*
X148410000Y-79040000D01*
X148410000Y-79040000D02*
X148410000Y-78330000D01*
%TO.C,D3*%
X154654877Y-88634999D02*
X155034877Y-87976820D01*
X155034877Y-87976820D02*
X154419999Y-87621820D01*
%TO.C,D12*%
X169236821Y-82185122D02*
X168881821Y-82800000D01*
X169895000Y-82565122D02*
X169236821Y-82185122D01*
%TO.C,D4*%
X149971048Y-85055552D02*
X150629227Y-84675552D01*
X150629227Y-84675552D02*
X150274227Y-84060674D01*
%TD*%
M02*
