%TF.GenerationSoftware,KiCad,Pcbnew,8.0.8*%
%TF.CreationDate,2025-02-04T02:19:44-06:00*%
%TF.ProjectId,B-Sides 2025,422d5369-6465-4732-9032-3032352e6b69,rev?*%
%TF.SameCoordinates,Original*%
%TF.FileFunction,Paste,Bot*%
%TF.FilePolarity,Positive*%
%FSLAX46Y46*%
G04 Gerber Fmt 4.6, Leading zero omitted, Abs format (unit mm)*
G04 Created by KiCad (PCBNEW 8.0.8) date 2025-02-04 02:19:44*
%MOMM*%
%LPD*%
G01*
G04 APERTURE LIST*
G04 Aperture macros list*
%AMRoundRect*
0 Rectangle with rounded corners*
0 $1 Rounding radius*
0 $2 $3 $4 $5 $6 $7 $8 $9 X,Y pos of 4 corners*
0 Add a 4 corners polygon primitive as box body*
4,1,4,$2,$3,$4,$5,$6,$7,$8,$9,$2,$3,0*
0 Add four circle primitives for the rounded corners*
1,1,$1+$1,$2,$3*
1,1,$1+$1,$4,$5*
1,1,$1+$1,$6,$7*
1,1,$1+$1,$8,$9*
0 Add four rect primitives between the rounded corners*
20,1,$1+$1,$2,$3,$4,$5,0*
20,1,$1+$1,$4,$5,$6,$7,0*
20,1,$1+$1,$6,$7,$8,$9,0*
20,1,$1+$1,$8,$9,$2,$3,0*%
G04 Aperture macros list end*
%ADD10RoundRect,0.135000X0.185000X-0.135000X0.185000X0.135000X-0.185000X0.135000X-0.185000X-0.135000X0*%
%ADD11RoundRect,0.135000X0.135000X0.185000X-0.135000X0.185000X-0.135000X-0.185000X0.135000X-0.185000X0*%
%ADD12RoundRect,0.135000X-0.185000X0.135000X-0.185000X-0.135000X0.185000X-0.135000X0.185000X0.135000X0*%
%ADD13RoundRect,0.135000X-0.135000X-0.185000X0.135000X-0.185000X0.135000X0.185000X-0.135000X0.185000X0*%
%ADD14RoundRect,0.140000X0.140000X0.170000X-0.140000X0.170000X-0.140000X-0.170000X0.140000X-0.170000X0*%
%ADD15RoundRect,0.140000X0.170000X-0.140000X0.170000X0.140000X-0.170000X0.140000X-0.170000X-0.140000X0*%
%ADD16R,1.000000X1.500000*%
%ADD17R,1.500000X1.000000*%
%ADD18R,6.000000X5.500000*%
%ADD19RoundRect,0.050000X0.050000X0.375000X-0.050000X0.375000X-0.050000X-0.375000X0.050000X-0.375000X0*%
%ADD20RoundRect,0.050000X0.375000X0.050000X-0.375000X0.050000X-0.375000X-0.050000X0.375000X-0.050000X0*%
%ADD21RoundRect,0.167500X0.167500X0.167500X-0.167500X0.167500X-0.167500X-0.167500X0.167500X-0.167500X0*%
G04 APERTURE END LIST*
D10*
%TO.C,R14*%
X157660000Y-83220000D03*
X157660000Y-82200000D03*
%TD*%
%TO.C,R9*%
X158670000Y-83220000D03*
X158670000Y-82200000D03*
%TD*%
D11*
%TO.C,R13*%
X155680000Y-82670000D03*
X154660000Y-82670000D03*
%TD*%
%TO.C,R12*%
X154500000Y-74190000D03*
X153480000Y-74190000D03*
%TD*%
D12*
%TO.C,R11*%
X156610000Y-74280000D03*
X156610000Y-73260000D03*
%TD*%
D11*
%TO.C,R10*%
X156590000Y-83630000D03*
X155570000Y-83630000D03*
%TD*%
D10*
%TO.C,R8*%
X158640000Y-73260000D03*
X158640000Y-74280000D03*
%TD*%
%TO.C,R7*%
X159680000Y-73250000D03*
X159680000Y-74270000D03*
%TD*%
D13*
%TO.C,R6*%
X153420000Y-75320000D03*
X154440000Y-75320000D03*
%TD*%
D10*
%TO.C,R5*%
X161920000Y-73260000D03*
X161920000Y-74280000D03*
%TD*%
D13*
%TO.C,R4*%
X162290000Y-75740000D03*
X163310000Y-75740000D03*
%TD*%
D10*
%TO.C,R3*%
X156040000Y-81220000D03*
X156040000Y-80200000D03*
%TD*%
%TO.C,R2*%
X160770000Y-73200000D03*
X160770000Y-74220000D03*
%TD*%
D11*
%TO.C,R1*%
X160700000Y-83190000D03*
X161720000Y-83190000D03*
%TD*%
D14*
%TO.C,C4*%
X161680000Y-81080000D03*
X160720000Y-81080000D03*
%TD*%
D15*
%TO.C,C3*%
X157610000Y-73290000D03*
X157610000Y-74250000D03*
%TD*%
%TO.C,C2*%
X155610000Y-74280000D03*
X155610000Y-73320000D03*
%TD*%
D14*
%TO.C,C1*%
X162300000Y-82020000D03*
X161340000Y-82020000D03*
%TD*%
D16*
%TO.C,Q1*%
X190924953Y-86463032D03*
X190924953Y-89963032D03*
X189524953Y-86463032D03*
X189524953Y-89963032D03*
%TD*%
D17*
%TO.C,Q2*%
X138200000Y-87600000D03*
X141700000Y-87600000D03*
X138200000Y-89000000D03*
X141700000Y-89000000D03*
%TD*%
D18*
%TO.C,BT1*%
X177200000Y-106465000D03*
X146600000Y-106465000D03*
%TD*%
D19*
%TO.C,U2*%
X159970000Y-76550000D03*
X159570000Y-76550000D03*
X159170000Y-76550000D03*
X158770000Y-76550000D03*
X158370000Y-76550000D03*
D20*
X157720000Y-77200000D03*
X157720000Y-77600000D03*
X157720000Y-78000000D03*
X157720000Y-78400000D03*
X157720000Y-78800000D03*
D19*
X158370000Y-79450000D03*
X158770000Y-79450000D03*
X159170000Y-79450000D03*
X159570000Y-79450000D03*
X159970000Y-79450000D03*
D20*
X160620000Y-78800000D03*
X160620000Y-78400000D03*
X160620000Y-78000000D03*
X160620000Y-77600000D03*
X160620000Y-77200000D03*
D21*
X158760000Y-77590000D03*
X158760000Y-78410000D03*
X159580000Y-77590000D03*
X159580000Y-78410000D03*
%TD*%
M02*
