%TF.GenerationSoftware,KiCad,Pcbnew,8.0.8*%
%TF.CreationDate,2025-01-22T11:30:52-06:00*%
%TF.ProjectId,B-Sides 2025,422d5369-6465-4732-9032-3032352e6b69,rev?*%
%TF.SameCoordinates,Original*%
%TF.FileFunction,Drillmap*%
%TF.FilePolarity,Positive*%
%FSLAX45Y45*%
G04 Gerber Fmt 4.5, Leading zero omitted, Abs format (unit mm)*
G04 Created by KiCad (PCBNEW 8.0.8) date 2025-01-22 11:30:52*
%MOMM*%
%LPD*%
G01*
G04 APERTURE LIST*
%ADD10C,0.050000*%
%ADD11C,0.200000*%
G04 APERTURE END LIST*
D10*
X19857000Y-5719000D02*
X15861000Y-14446000D01*
X12276000Y-5696000D01*
X19857000Y-5719000D01*
D11*
X12534277Y-14759984D02*
X12534277Y-14559984D01*
X12534277Y-14559984D02*
X12581896Y-14559984D01*
X12581896Y-14559984D02*
X12610467Y-14569508D01*
X12610467Y-14569508D02*
X12629515Y-14588555D01*
X12629515Y-14588555D02*
X12639039Y-14607603D01*
X12639039Y-14607603D02*
X12648562Y-14645698D01*
X12648562Y-14645698D02*
X12648562Y-14674269D01*
X12648562Y-14674269D02*
X12639039Y-14712365D01*
X12639039Y-14712365D02*
X12629515Y-14731412D01*
X12629515Y-14731412D02*
X12610467Y-14750460D01*
X12610467Y-14750460D02*
X12581896Y-14759984D01*
X12581896Y-14759984D02*
X12534277Y-14759984D01*
X12734277Y-14759984D02*
X12734277Y-14626650D01*
X12734277Y-14664746D02*
X12743801Y-14645698D01*
X12743801Y-14645698D02*
X12753324Y-14636174D01*
X12753324Y-14636174D02*
X12772372Y-14626650D01*
X12772372Y-14626650D02*
X12791420Y-14626650D01*
X12858086Y-14759984D02*
X12858086Y-14626650D01*
X12858086Y-14559984D02*
X12848562Y-14569508D01*
X12848562Y-14569508D02*
X12858086Y-14579031D01*
X12858086Y-14579031D02*
X12867610Y-14569508D01*
X12867610Y-14569508D02*
X12858086Y-14559984D01*
X12858086Y-14559984D02*
X12858086Y-14579031D01*
X12981896Y-14759984D02*
X12962848Y-14750460D01*
X12962848Y-14750460D02*
X12953324Y-14731412D01*
X12953324Y-14731412D02*
X12953324Y-14559984D01*
X13086658Y-14759984D02*
X13067610Y-14750460D01*
X13067610Y-14750460D02*
X13058086Y-14731412D01*
X13058086Y-14731412D02*
X13058086Y-14559984D01*
X13315229Y-14759984D02*
X13315229Y-14559984D01*
X13315229Y-14559984D02*
X13381896Y-14702841D01*
X13381896Y-14702841D02*
X13448562Y-14559984D01*
X13448562Y-14559984D02*
X13448562Y-14759984D01*
X13629515Y-14759984D02*
X13629515Y-14655222D01*
X13629515Y-14655222D02*
X13619991Y-14636174D01*
X13619991Y-14636174D02*
X13600943Y-14626650D01*
X13600943Y-14626650D02*
X13562848Y-14626650D01*
X13562848Y-14626650D02*
X13543801Y-14636174D01*
X13629515Y-14750460D02*
X13610467Y-14759984D01*
X13610467Y-14759984D02*
X13562848Y-14759984D01*
X13562848Y-14759984D02*
X13543801Y-14750460D01*
X13543801Y-14750460D02*
X13534277Y-14731412D01*
X13534277Y-14731412D02*
X13534277Y-14712365D01*
X13534277Y-14712365D02*
X13543801Y-14693317D01*
X13543801Y-14693317D02*
X13562848Y-14683793D01*
X13562848Y-14683793D02*
X13610467Y-14683793D01*
X13610467Y-14683793D02*
X13629515Y-14674269D01*
X13724753Y-14626650D02*
X13724753Y-14826650D01*
X13724753Y-14636174D02*
X13743801Y-14626650D01*
X13743801Y-14626650D02*
X13781896Y-14626650D01*
X13781896Y-14626650D02*
X13800943Y-14636174D01*
X13800943Y-14636174D02*
X13810467Y-14645698D01*
X13810467Y-14645698D02*
X13819991Y-14664746D01*
X13819991Y-14664746D02*
X13819991Y-14721888D01*
X13819991Y-14721888D02*
X13810467Y-14740936D01*
X13810467Y-14740936D02*
X13800943Y-14750460D01*
X13800943Y-14750460D02*
X13781896Y-14759984D01*
X13781896Y-14759984D02*
X13743801Y-14759984D01*
X13743801Y-14759984D02*
X13724753Y-14750460D01*
X13905705Y-14740936D02*
X13915229Y-14750460D01*
X13915229Y-14750460D02*
X13905705Y-14759984D01*
X13905705Y-14759984D02*
X13896182Y-14750460D01*
X13896182Y-14750460D02*
X13905705Y-14740936D01*
X13905705Y-14740936D02*
X13905705Y-14759984D01*
X13905705Y-14636174D02*
X13915229Y-14645698D01*
X13915229Y-14645698D02*
X13905705Y-14655222D01*
X13905705Y-14655222D02*
X13896182Y-14645698D01*
X13896182Y-14645698D02*
X13905705Y-14636174D01*
X13905705Y-14636174D02*
X13905705Y-14655222D01*
M02*
