%TF.GenerationSoftware,KiCad,Pcbnew,8.0.8*%
%TF.CreationDate,2025-01-22T11:30:51-06:00*%
%TF.ProjectId,B-Sides 2025,422d5369-6465-4732-9032-3032352e6b69,rev?*%
%TF.SameCoordinates,Original*%
%TF.FileFunction,Drillmap*%
%TF.FilePolarity,Positive*%
%FSLAX45Y45*%
G04 Gerber Fmt 4.5, Leading zero omitted, Abs format (unit mm)*
G04 Created by KiCad (PCBNEW 8.0.8) date 2025-01-22 11:30:51*
%MOMM*%
%LPD*%
G01*
G04 APERTURE LIST*
%ADD10C,0.050000*%
%ADD11C,0.200000*%
%ADD12C,0.100000*%
%ADD13C,0.260000*%
G04 APERTURE END LIST*
D10*
X19857000Y-5719000D02*
X15861000Y-14446000D01*
X12276000Y-5696000D01*
X19857000Y-5719000D01*
D11*
D12*
X15303000Y-7585000D02*
X15403000Y-7685000D01*
X15403000Y-7585000D02*
X15303000Y-7685000D01*
X15303000Y-7835000D02*
X15403000Y-7935000D01*
X15403000Y-7835000D02*
X15303000Y-7935000D01*
X15303000Y-8085000D02*
X15403000Y-8185000D01*
X15403000Y-8085000D02*
X15303000Y-8185000D01*
X16753000Y-7585000D02*
X16853000Y-7685000D01*
X16853000Y-7585000D02*
X16753000Y-7685000D01*
X16753000Y-8085000D02*
X16853000Y-8185000D01*
X16853000Y-8085000D02*
X16753000Y-8185000D01*
D13*
X16233000Y-7325000D02*
G75*
G02*
X15973000Y-7325000I-130000J0D01*
G01*
X15973000Y-7325000D02*
G75*
G02*
X16233000Y-7325000I130000J0D01*
G01*
X16233000Y-8445000D02*
G75*
G02*
X15973000Y-8445000I-130000J0D01*
G01*
X15973000Y-8445000D02*
G75*
G02*
X16233000Y-8445000I130000J0D01*
G01*
D11*
X12534277Y-14759984D02*
X12534277Y-14559984D01*
X12534277Y-14559984D02*
X12581896Y-14559984D01*
X12581896Y-14559984D02*
X12610467Y-14569508D01*
X12610467Y-14569508D02*
X12629515Y-14588555D01*
X12629515Y-14588555D02*
X12639039Y-14607603D01*
X12639039Y-14607603D02*
X12648562Y-14645698D01*
X12648562Y-14645698D02*
X12648562Y-14674269D01*
X12648562Y-14674269D02*
X12639039Y-14712365D01*
X12639039Y-14712365D02*
X12629515Y-14731412D01*
X12629515Y-14731412D02*
X12610467Y-14750460D01*
X12610467Y-14750460D02*
X12581896Y-14759984D01*
X12581896Y-14759984D02*
X12534277Y-14759984D01*
X12734277Y-14759984D02*
X12734277Y-14626650D01*
X12734277Y-14664746D02*
X12743801Y-14645698D01*
X12743801Y-14645698D02*
X12753324Y-14636174D01*
X12753324Y-14636174D02*
X12772372Y-14626650D01*
X12772372Y-14626650D02*
X12791420Y-14626650D01*
X12858086Y-14759984D02*
X12858086Y-14626650D01*
X12858086Y-14559984D02*
X12848562Y-14569508D01*
X12848562Y-14569508D02*
X12858086Y-14579031D01*
X12858086Y-14579031D02*
X12867610Y-14569508D01*
X12867610Y-14569508D02*
X12858086Y-14559984D01*
X12858086Y-14559984D02*
X12858086Y-14579031D01*
X12981896Y-14759984D02*
X12962848Y-14750460D01*
X12962848Y-14750460D02*
X12953324Y-14731412D01*
X12953324Y-14731412D02*
X12953324Y-14559984D01*
X13086658Y-14759984D02*
X13067610Y-14750460D01*
X13067610Y-14750460D02*
X13058086Y-14731412D01*
X13058086Y-14731412D02*
X13058086Y-14559984D01*
X13315229Y-14759984D02*
X13315229Y-14559984D01*
X13315229Y-14559984D02*
X13381896Y-14702841D01*
X13381896Y-14702841D02*
X13448562Y-14559984D01*
X13448562Y-14559984D02*
X13448562Y-14759984D01*
X13629515Y-14759984D02*
X13629515Y-14655222D01*
X13629515Y-14655222D02*
X13619991Y-14636174D01*
X13619991Y-14636174D02*
X13600943Y-14626650D01*
X13600943Y-14626650D02*
X13562848Y-14626650D01*
X13562848Y-14626650D02*
X13543801Y-14636174D01*
X13629515Y-14750460D02*
X13610467Y-14759984D01*
X13610467Y-14759984D02*
X13562848Y-14759984D01*
X13562848Y-14759984D02*
X13543801Y-14750460D01*
X13543801Y-14750460D02*
X13534277Y-14731412D01*
X13534277Y-14731412D02*
X13534277Y-14712365D01*
X13534277Y-14712365D02*
X13543801Y-14693317D01*
X13543801Y-14693317D02*
X13562848Y-14683793D01*
X13562848Y-14683793D02*
X13610467Y-14683793D01*
X13610467Y-14683793D02*
X13629515Y-14674269D01*
X13724753Y-14626650D02*
X13724753Y-14826650D01*
X13724753Y-14636174D02*
X13743801Y-14626650D01*
X13743801Y-14626650D02*
X13781896Y-14626650D01*
X13781896Y-14626650D02*
X13800943Y-14636174D01*
X13800943Y-14636174D02*
X13810467Y-14645698D01*
X13810467Y-14645698D02*
X13819991Y-14664746D01*
X13819991Y-14664746D02*
X13819991Y-14721888D01*
X13819991Y-14721888D02*
X13810467Y-14740936D01*
X13810467Y-14740936D02*
X13800943Y-14750460D01*
X13800943Y-14750460D02*
X13781896Y-14759984D01*
X13781896Y-14759984D02*
X13743801Y-14759984D01*
X13743801Y-14759984D02*
X13724753Y-14750460D01*
X13905705Y-14740936D02*
X13915229Y-14750460D01*
X13915229Y-14750460D02*
X13905705Y-14759984D01*
X13905705Y-14759984D02*
X13896182Y-14750460D01*
X13896182Y-14750460D02*
X13905705Y-14740936D01*
X13905705Y-14740936D02*
X13905705Y-14759984D01*
X13905705Y-14636174D02*
X13915229Y-14645698D01*
X13915229Y-14645698D02*
X13905705Y-14655222D01*
X13905705Y-14655222D02*
X13896182Y-14645698D01*
X13896182Y-14645698D02*
X13905705Y-14636174D01*
X13905705Y-14636174D02*
X13905705Y-14655222D01*
D12*
X12173500Y-15038500D02*
X12273500Y-15138500D01*
X12273500Y-15038500D02*
X12173500Y-15138500D01*
D11*
X12639039Y-15179984D02*
X12524753Y-15179984D01*
X12581896Y-15179984D02*
X12581896Y-14979984D01*
X12581896Y-14979984D02*
X12562848Y-15008555D01*
X12562848Y-15008555D02*
X12543801Y-15027603D01*
X12543801Y-15027603D02*
X12524753Y-15037127D01*
X12724753Y-15160936D02*
X12734277Y-15170460D01*
X12734277Y-15170460D02*
X12724753Y-15179984D01*
X12724753Y-15179984D02*
X12715229Y-15170460D01*
X12715229Y-15170460D02*
X12724753Y-15160936D01*
X12724753Y-15160936D02*
X12724753Y-15179984D01*
X12858086Y-14979984D02*
X12877134Y-14979984D01*
X12877134Y-14979984D02*
X12896182Y-14989508D01*
X12896182Y-14989508D02*
X12905705Y-14999031D01*
X12905705Y-14999031D02*
X12915229Y-15018079D01*
X12915229Y-15018079D02*
X12924753Y-15056174D01*
X12924753Y-15056174D02*
X12924753Y-15103793D01*
X12924753Y-15103793D02*
X12915229Y-15141888D01*
X12915229Y-15141888D02*
X12905705Y-15160936D01*
X12905705Y-15160936D02*
X12896182Y-15170460D01*
X12896182Y-15170460D02*
X12877134Y-15179984D01*
X12877134Y-15179984D02*
X12858086Y-15179984D01*
X12858086Y-15179984D02*
X12839039Y-15170460D01*
X12839039Y-15170460D02*
X12829515Y-15160936D01*
X12829515Y-15160936D02*
X12819991Y-15141888D01*
X12819991Y-15141888D02*
X12810467Y-15103793D01*
X12810467Y-15103793D02*
X12810467Y-15056174D01*
X12810467Y-15056174D02*
X12819991Y-15018079D01*
X12819991Y-15018079D02*
X12829515Y-14999031D01*
X12829515Y-14999031D02*
X12839039Y-14989508D01*
X12839039Y-14989508D02*
X12858086Y-14979984D01*
X13048562Y-14979984D02*
X13067610Y-14979984D01*
X13067610Y-14979984D02*
X13086658Y-14989508D01*
X13086658Y-14989508D02*
X13096182Y-14999031D01*
X13096182Y-14999031D02*
X13105705Y-15018079D01*
X13105705Y-15018079D02*
X13115229Y-15056174D01*
X13115229Y-15056174D02*
X13115229Y-15103793D01*
X13115229Y-15103793D02*
X13105705Y-15141888D01*
X13105705Y-15141888D02*
X13096182Y-15160936D01*
X13096182Y-15160936D02*
X13086658Y-15170460D01*
X13086658Y-15170460D02*
X13067610Y-15179984D01*
X13067610Y-15179984D02*
X13048562Y-15179984D01*
X13048562Y-15179984D02*
X13029515Y-15170460D01*
X13029515Y-15170460D02*
X13019991Y-15160936D01*
X13019991Y-15160936D02*
X13010467Y-15141888D01*
X13010467Y-15141888D02*
X13000943Y-15103793D01*
X13000943Y-15103793D02*
X13000943Y-15056174D01*
X13000943Y-15056174D02*
X13010467Y-15018079D01*
X13010467Y-15018079D02*
X13019991Y-14999031D01*
X13019991Y-14999031D02*
X13029515Y-14989508D01*
X13029515Y-14989508D02*
X13048562Y-14979984D01*
X13239039Y-14979984D02*
X13258086Y-14979984D01*
X13258086Y-14979984D02*
X13277134Y-14989508D01*
X13277134Y-14989508D02*
X13286658Y-14999031D01*
X13286658Y-14999031D02*
X13296182Y-15018079D01*
X13296182Y-15018079D02*
X13305705Y-15056174D01*
X13305705Y-15056174D02*
X13305705Y-15103793D01*
X13305705Y-15103793D02*
X13296182Y-15141888D01*
X13296182Y-15141888D02*
X13286658Y-15160936D01*
X13286658Y-15160936D02*
X13277134Y-15170460D01*
X13277134Y-15170460D02*
X13258086Y-15179984D01*
X13258086Y-15179984D02*
X13239039Y-15179984D01*
X13239039Y-15179984D02*
X13219991Y-15170460D01*
X13219991Y-15170460D02*
X13210467Y-15160936D01*
X13210467Y-15160936D02*
X13200943Y-15141888D01*
X13200943Y-15141888D02*
X13191420Y-15103793D01*
X13191420Y-15103793D02*
X13191420Y-15056174D01*
X13191420Y-15056174D02*
X13200943Y-15018079D01*
X13200943Y-15018079D02*
X13210467Y-14999031D01*
X13210467Y-14999031D02*
X13219991Y-14989508D01*
X13219991Y-14989508D02*
X13239039Y-14979984D01*
X13391420Y-15179984D02*
X13391420Y-15046650D01*
X13391420Y-15065698D02*
X13400943Y-15056174D01*
X13400943Y-15056174D02*
X13419991Y-15046650D01*
X13419991Y-15046650D02*
X13448563Y-15046650D01*
X13448563Y-15046650D02*
X13467610Y-15056174D01*
X13467610Y-15056174D02*
X13477134Y-15075222D01*
X13477134Y-15075222D02*
X13477134Y-15179984D01*
X13477134Y-15075222D02*
X13486658Y-15056174D01*
X13486658Y-15056174D02*
X13505705Y-15046650D01*
X13505705Y-15046650D02*
X13534277Y-15046650D01*
X13534277Y-15046650D02*
X13553324Y-15056174D01*
X13553324Y-15056174D02*
X13562848Y-15075222D01*
X13562848Y-15075222D02*
X13562848Y-15179984D01*
X13658086Y-15179984D02*
X13658086Y-15046650D01*
X13658086Y-15065698D02*
X13667610Y-15056174D01*
X13667610Y-15056174D02*
X13686658Y-15046650D01*
X13686658Y-15046650D02*
X13715229Y-15046650D01*
X13715229Y-15046650D02*
X13734277Y-15056174D01*
X13734277Y-15056174D02*
X13743801Y-15075222D01*
X13743801Y-15075222D02*
X13743801Y-15179984D01*
X13743801Y-15075222D02*
X13753324Y-15056174D01*
X13753324Y-15056174D02*
X13772372Y-15046650D01*
X13772372Y-15046650D02*
X13800943Y-15046650D01*
X13800943Y-15046650D02*
X13819991Y-15056174D01*
X13819991Y-15056174D02*
X13829515Y-15075222D01*
X13829515Y-15075222D02*
X13829515Y-15179984D01*
X14219991Y-14970460D02*
X14048563Y-15227603D01*
X14477134Y-14979984D02*
X14496182Y-14979984D01*
X14496182Y-14979984D02*
X14515229Y-14989508D01*
X14515229Y-14989508D02*
X14524753Y-14999031D01*
X14524753Y-14999031D02*
X14534277Y-15018079D01*
X14534277Y-15018079D02*
X14543801Y-15056174D01*
X14543801Y-15056174D02*
X14543801Y-15103793D01*
X14543801Y-15103793D02*
X14534277Y-15141888D01*
X14534277Y-15141888D02*
X14524753Y-15160936D01*
X14524753Y-15160936D02*
X14515229Y-15170460D01*
X14515229Y-15170460D02*
X14496182Y-15179984D01*
X14496182Y-15179984D02*
X14477134Y-15179984D01*
X14477134Y-15179984D02*
X14458086Y-15170460D01*
X14458086Y-15170460D02*
X14448563Y-15160936D01*
X14448563Y-15160936D02*
X14439039Y-15141888D01*
X14439039Y-15141888D02*
X14429515Y-15103793D01*
X14429515Y-15103793D02*
X14429515Y-15056174D01*
X14429515Y-15056174D02*
X14439039Y-15018079D01*
X14439039Y-15018079D02*
X14448563Y-14999031D01*
X14448563Y-14999031D02*
X14458086Y-14989508D01*
X14458086Y-14989508D02*
X14477134Y-14979984D01*
X14629515Y-15160936D02*
X14639039Y-15170460D01*
X14639039Y-15170460D02*
X14629515Y-15179984D01*
X14629515Y-15179984D02*
X14619991Y-15170460D01*
X14619991Y-15170460D02*
X14629515Y-15160936D01*
X14629515Y-15160936D02*
X14629515Y-15179984D01*
X14762848Y-14979984D02*
X14781896Y-14979984D01*
X14781896Y-14979984D02*
X14800944Y-14989508D01*
X14800944Y-14989508D02*
X14810467Y-14999031D01*
X14810467Y-14999031D02*
X14819991Y-15018079D01*
X14819991Y-15018079D02*
X14829515Y-15056174D01*
X14829515Y-15056174D02*
X14829515Y-15103793D01*
X14829515Y-15103793D02*
X14819991Y-15141888D01*
X14819991Y-15141888D02*
X14810467Y-15160936D01*
X14810467Y-15160936D02*
X14800944Y-15170460D01*
X14800944Y-15170460D02*
X14781896Y-15179984D01*
X14781896Y-15179984D02*
X14762848Y-15179984D01*
X14762848Y-15179984D02*
X14743801Y-15170460D01*
X14743801Y-15170460D02*
X14734277Y-15160936D01*
X14734277Y-15160936D02*
X14724753Y-15141888D01*
X14724753Y-15141888D02*
X14715229Y-15103793D01*
X14715229Y-15103793D02*
X14715229Y-15056174D01*
X14715229Y-15056174D02*
X14724753Y-15018079D01*
X14724753Y-15018079D02*
X14734277Y-14999031D01*
X14734277Y-14999031D02*
X14743801Y-14989508D01*
X14743801Y-14989508D02*
X14762848Y-14979984D01*
X14896182Y-14979984D02*
X15019991Y-14979984D01*
X15019991Y-14979984D02*
X14953325Y-15056174D01*
X14953325Y-15056174D02*
X14981896Y-15056174D01*
X14981896Y-15056174D02*
X15000944Y-15065698D01*
X15000944Y-15065698D02*
X15010467Y-15075222D01*
X15010467Y-15075222D02*
X15019991Y-15094269D01*
X15019991Y-15094269D02*
X15019991Y-15141888D01*
X15019991Y-15141888D02*
X15010467Y-15160936D01*
X15010467Y-15160936D02*
X15000944Y-15170460D01*
X15000944Y-15170460D02*
X14981896Y-15179984D01*
X14981896Y-15179984D02*
X14924753Y-15179984D01*
X14924753Y-15179984D02*
X14905706Y-15170460D01*
X14905706Y-15170460D02*
X14896182Y-15160936D01*
X15115229Y-15179984D02*
X15153325Y-15179984D01*
X15153325Y-15179984D02*
X15172372Y-15170460D01*
X15172372Y-15170460D02*
X15181896Y-15160936D01*
X15181896Y-15160936D02*
X15200944Y-15132365D01*
X15200944Y-15132365D02*
X15210467Y-15094269D01*
X15210467Y-15094269D02*
X15210467Y-15018079D01*
X15210467Y-15018079D02*
X15200944Y-14999031D01*
X15200944Y-14999031D02*
X15191420Y-14989508D01*
X15191420Y-14989508D02*
X15172372Y-14979984D01*
X15172372Y-14979984D02*
X15134277Y-14979984D01*
X15134277Y-14979984D02*
X15115229Y-14989508D01*
X15115229Y-14989508D02*
X15105706Y-14999031D01*
X15105706Y-14999031D02*
X15096182Y-15018079D01*
X15096182Y-15018079D02*
X15096182Y-15065698D01*
X15096182Y-15065698D02*
X15105706Y-15084746D01*
X15105706Y-15084746D02*
X15115229Y-15094269D01*
X15115229Y-15094269D02*
X15134277Y-15103793D01*
X15134277Y-15103793D02*
X15172372Y-15103793D01*
X15172372Y-15103793D02*
X15191420Y-15094269D01*
X15191420Y-15094269D02*
X15200944Y-15084746D01*
X15200944Y-15084746D02*
X15210467Y-15065698D01*
X15381896Y-15046650D02*
X15381896Y-15179984D01*
X15334277Y-14970460D02*
X15286658Y-15113317D01*
X15286658Y-15113317D02*
X15410467Y-15113317D01*
X15477134Y-14979984D02*
X15477134Y-15018079D01*
X15553325Y-14979984D02*
X15553325Y-15018079D01*
X15848563Y-15256174D02*
X15839039Y-15246650D01*
X15839039Y-15246650D02*
X15819991Y-15218079D01*
X15819991Y-15218079D02*
X15810468Y-15199031D01*
X15810468Y-15199031D02*
X15800944Y-15170460D01*
X15800944Y-15170460D02*
X15791420Y-15122841D01*
X15791420Y-15122841D02*
X15791420Y-15084746D01*
X15791420Y-15084746D02*
X15800944Y-15037127D01*
X15800944Y-15037127D02*
X15810468Y-15008555D01*
X15810468Y-15008555D02*
X15819991Y-14989508D01*
X15819991Y-14989508D02*
X15839039Y-14960936D01*
X15839039Y-14960936D02*
X15848563Y-14951412D01*
X16019991Y-14979984D02*
X15924753Y-14979984D01*
X15924753Y-14979984D02*
X15915229Y-15075222D01*
X15915229Y-15075222D02*
X15924753Y-15065698D01*
X15924753Y-15065698D02*
X15943801Y-15056174D01*
X15943801Y-15056174D02*
X15991420Y-15056174D01*
X15991420Y-15056174D02*
X16010468Y-15065698D01*
X16010468Y-15065698D02*
X16019991Y-15075222D01*
X16019991Y-15075222D02*
X16029515Y-15094269D01*
X16029515Y-15094269D02*
X16029515Y-15141888D01*
X16029515Y-15141888D02*
X16019991Y-15160936D01*
X16019991Y-15160936D02*
X16010468Y-15170460D01*
X16010468Y-15170460D02*
X15991420Y-15179984D01*
X15991420Y-15179984D02*
X15943801Y-15179984D01*
X15943801Y-15179984D02*
X15924753Y-15170460D01*
X15924753Y-15170460D02*
X15915229Y-15160936D01*
X16267610Y-15179984D02*
X16267610Y-14979984D01*
X16353325Y-15179984D02*
X16353325Y-15075222D01*
X16353325Y-15075222D02*
X16343801Y-15056174D01*
X16343801Y-15056174D02*
X16324753Y-15046650D01*
X16324753Y-15046650D02*
X16296182Y-15046650D01*
X16296182Y-15046650D02*
X16277134Y-15056174D01*
X16277134Y-15056174D02*
X16267610Y-15065698D01*
X16477134Y-15179984D02*
X16458087Y-15170460D01*
X16458087Y-15170460D02*
X16448563Y-15160936D01*
X16448563Y-15160936D02*
X16439039Y-15141888D01*
X16439039Y-15141888D02*
X16439039Y-15084746D01*
X16439039Y-15084746D02*
X16448563Y-15065698D01*
X16448563Y-15065698D02*
X16458087Y-15056174D01*
X16458087Y-15056174D02*
X16477134Y-15046650D01*
X16477134Y-15046650D02*
X16505706Y-15046650D01*
X16505706Y-15046650D02*
X16524753Y-15056174D01*
X16524753Y-15056174D02*
X16534277Y-15065698D01*
X16534277Y-15065698D02*
X16543801Y-15084746D01*
X16543801Y-15084746D02*
X16543801Y-15141888D01*
X16543801Y-15141888D02*
X16534277Y-15160936D01*
X16534277Y-15160936D02*
X16524753Y-15170460D01*
X16524753Y-15170460D02*
X16505706Y-15179984D01*
X16505706Y-15179984D02*
X16477134Y-15179984D01*
X16658087Y-15179984D02*
X16639039Y-15170460D01*
X16639039Y-15170460D02*
X16629515Y-15151412D01*
X16629515Y-15151412D02*
X16629515Y-14979984D01*
X16810468Y-15170460D02*
X16791420Y-15179984D01*
X16791420Y-15179984D02*
X16753325Y-15179984D01*
X16753325Y-15179984D02*
X16734277Y-15170460D01*
X16734277Y-15170460D02*
X16724753Y-15151412D01*
X16724753Y-15151412D02*
X16724753Y-15075222D01*
X16724753Y-15075222D02*
X16734277Y-15056174D01*
X16734277Y-15056174D02*
X16753325Y-15046650D01*
X16753325Y-15046650D02*
X16791420Y-15046650D01*
X16791420Y-15046650D02*
X16810468Y-15056174D01*
X16810468Y-15056174D02*
X16819992Y-15075222D01*
X16819992Y-15075222D02*
X16819992Y-15094269D01*
X16819992Y-15094269D02*
X16724753Y-15113317D01*
X16896182Y-15170460D02*
X16915230Y-15179984D01*
X16915230Y-15179984D02*
X16953325Y-15179984D01*
X16953325Y-15179984D02*
X16972373Y-15170460D01*
X16972373Y-15170460D02*
X16981896Y-15151412D01*
X16981896Y-15151412D02*
X16981896Y-15141888D01*
X16981896Y-15141888D02*
X16972373Y-15122841D01*
X16972373Y-15122841D02*
X16953325Y-15113317D01*
X16953325Y-15113317D02*
X16924753Y-15113317D01*
X16924753Y-15113317D02*
X16905706Y-15103793D01*
X16905706Y-15103793D02*
X16896182Y-15084746D01*
X16896182Y-15084746D02*
X16896182Y-15075222D01*
X16896182Y-15075222D02*
X16905706Y-15056174D01*
X16905706Y-15056174D02*
X16924753Y-15046650D01*
X16924753Y-15046650D02*
X16953325Y-15046650D01*
X16953325Y-15046650D02*
X16972373Y-15056174D01*
X17048563Y-15256174D02*
X17058087Y-15246650D01*
X17058087Y-15246650D02*
X17077134Y-15218079D01*
X17077134Y-15218079D02*
X17086658Y-15199031D01*
X17086658Y-15199031D02*
X17096182Y-15170460D01*
X17096182Y-15170460D02*
X17105706Y-15122841D01*
X17105706Y-15122841D02*
X17105706Y-15084746D01*
X17105706Y-15084746D02*
X17096182Y-15037127D01*
X17096182Y-15037127D02*
X17086658Y-15008555D01*
X17086658Y-15008555D02*
X17077134Y-14989508D01*
X17077134Y-14989508D02*
X17058087Y-14960936D01*
X17058087Y-14960936D02*
X17048563Y-14951412D01*
X12273500Y-15352500D02*
G75*
G02*
X12073500Y-15352500I-100000J0D01*
G01*
X12073500Y-15352500D02*
G75*
G02*
X12273500Y-15352500I100000J0D01*
G01*
X12524753Y-15263031D02*
X12534277Y-15253508D01*
X12534277Y-15253508D02*
X12553324Y-15243984D01*
X12553324Y-15243984D02*
X12600943Y-15243984D01*
X12600943Y-15243984D02*
X12619991Y-15253508D01*
X12619991Y-15253508D02*
X12629515Y-15263031D01*
X12629515Y-15263031D02*
X12639039Y-15282079D01*
X12639039Y-15282079D02*
X12639039Y-15301127D01*
X12639039Y-15301127D02*
X12629515Y-15329698D01*
X12629515Y-15329698D02*
X12515229Y-15443984D01*
X12515229Y-15443984D02*
X12639039Y-15443984D01*
X12724753Y-15424936D02*
X12734277Y-15434460D01*
X12734277Y-15434460D02*
X12724753Y-15443984D01*
X12724753Y-15443984D02*
X12715229Y-15434460D01*
X12715229Y-15434460D02*
X12724753Y-15424936D01*
X12724753Y-15424936D02*
X12724753Y-15443984D01*
X12905705Y-15243984D02*
X12867610Y-15243984D01*
X12867610Y-15243984D02*
X12848562Y-15253508D01*
X12848562Y-15253508D02*
X12839039Y-15263031D01*
X12839039Y-15263031D02*
X12819991Y-15291603D01*
X12819991Y-15291603D02*
X12810467Y-15329698D01*
X12810467Y-15329698D02*
X12810467Y-15405888D01*
X12810467Y-15405888D02*
X12819991Y-15424936D01*
X12819991Y-15424936D02*
X12829515Y-15434460D01*
X12829515Y-15434460D02*
X12848562Y-15443984D01*
X12848562Y-15443984D02*
X12886658Y-15443984D01*
X12886658Y-15443984D02*
X12905705Y-15434460D01*
X12905705Y-15434460D02*
X12915229Y-15424936D01*
X12915229Y-15424936D02*
X12924753Y-15405888D01*
X12924753Y-15405888D02*
X12924753Y-15358269D01*
X12924753Y-15358269D02*
X12915229Y-15339222D01*
X12915229Y-15339222D02*
X12905705Y-15329698D01*
X12905705Y-15329698D02*
X12886658Y-15320174D01*
X12886658Y-15320174D02*
X12848562Y-15320174D01*
X12848562Y-15320174D02*
X12829515Y-15329698D01*
X12829515Y-15329698D02*
X12819991Y-15339222D01*
X12819991Y-15339222D02*
X12810467Y-15358269D01*
X13048562Y-15243984D02*
X13067610Y-15243984D01*
X13067610Y-15243984D02*
X13086658Y-15253508D01*
X13086658Y-15253508D02*
X13096182Y-15263031D01*
X13096182Y-15263031D02*
X13105705Y-15282079D01*
X13105705Y-15282079D02*
X13115229Y-15320174D01*
X13115229Y-15320174D02*
X13115229Y-15367793D01*
X13115229Y-15367793D02*
X13105705Y-15405888D01*
X13105705Y-15405888D02*
X13096182Y-15424936D01*
X13096182Y-15424936D02*
X13086658Y-15434460D01*
X13086658Y-15434460D02*
X13067610Y-15443984D01*
X13067610Y-15443984D02*
X13048562Y-15443984D01*
X13048562Y-15443984D02*
X13029515Y-15434460D01*
X13029515Y-15434460D02*
X13019991Y-15424936D01*
X13019991Y-15424936D02*
X13010467Y-15405888D01*
X13010467Y-15405888D02*
X13000943Y-15367793D01*
X13000943Y-15367793D02*
X13000943Y-15320174D01*
X13000943Y-15320174D02*
X13010467Y-15282079D01*
X13010467Y-15282079D02*
X13019991Y-15263031D01*
X13019991Y-15263031D02*
X13029515Y-15253508D01*
X13029515Y-15253508D02*
X13048562Y-15243984D01*
X13239039Y-15243984D02*
X13258086Y-15243984D01*
X13258086Y-15243984D02*
X13277134Y-15253508D01*
X13277134Y-15253508D02*
X13286658Y-15263031D01*
X13286658Y-15263031D02*
X13296182Y-15282079D01*
X13296182Y-15282079D02*
X13305705Y-15320174D01*
X13305705Y-15320174D02*
X13305705Y-15367793D01*
X13305705Y-15367793D02*
X13296182Y-15405888D01*
X13296182Y-15405888D02*
X13286658Y-15424936D01*
X13286658Y-15424936D02*
X13277134Y-15434460D01*
X13277134Y-15434460D02*
X13258086Y-15443984D01*
X13258086Y-15443984D02*
X13239039Y-15443984D01*
X13239039Y-15443984D02*
X13219991Y-15434460D01*
X13219991Y-15434460D02*
X13210467Y-15424936D01*
X13210467Y-15424936D02*
X13200943Y-15405888D01*
X13200943Y-15405888D02*
X13191420Y-15367793D01*
X13191420Y-15367793D02*
X13191420Y-15320174D01*
X13191420Y-15320174D02*
X13200943Y-15282079D01*
X13200943Y-15282079D02*
X13210467Y-15263031D01*
X13210467Y-15263031D02*
X13219991Y-15253508D01*
X13219991Y-15253508D02*
X13239039Y-15243984D01*
X13391420Y-15443984D02*
X13391420Y-15310650D01*
X13391420Y-15329698D02*
X13400943Y-15320174D01*
X13400943Y-15320174D02*
X13419991Y-15310650D01*
X13419991Y-15310650D02*
X13448563Y-15310650D01*
X13448563Y-15310650D02*
X13467610Y-15320174D01*
X13467610Y-15320174D02*
X13477134Y-15339222D01*
X13477134Y-15339222D02*
X13477134Y-15443984D01*
X13477134Y-15339222D02*
X13486658Y-15320174D01*
X13486658Y-15320174D02*
X13505705Y-15310650D01*
X13505705Y-15310650D02*
X13534277Y-15310650D01*
X13534277Y-15310650D02*
X13553324Y-15320174D01*
X13553324Y-15320174D02*
X13562848Y-15339222D01*
X13562848Y-15339222D02*
X13562848Y-15443984D01*
X13658086Y-15443984D02*
X13658086Y-15310650D01*
X13658086Y-15329698D02*
X13667610Y-15320174D01*
X13667610Y-15320174D02*
X13686658Y-15310650D01*
X13686658Y-15310650D02*
X13715229Y-15310650D01*
X13715229Y-15310650D02*
X13734277Y-15320174D01*
X13734277Y-15320174D02*
X13743801Y-15339222D01*
X13743801Y-15339222D02*
X13743801Y-15443984D01*
X13743801Y-15339222D02*
X13753324Y-15320174D01*
X13753324Y-15320174D02*
X13772372Y-15310650D01*
X13772372Y-15310650D02*
X13800943Y-15310650D01*
X13800943Y-15310650D02*
X13819991Y-15320174D01*
X13819991Y-15320174D02*
X13829515Y-15339222D01*
X13829515Y-15339222D02*
X13829515Y-15443984D01*
X14219991Y-15234460D02*
X14048563Y-15491603D01*
X14477134Y-15243984D02*
X14496182Y-15243984D01*
X14496182Y-15243984D02*
X14515229Y-15253508D01*
X14515229Y-15253508D02*
X14524753Y-15263031D01*
X14524753Y-15263031D02*
X14534277Y-15282079D01*
X14534277Y-15282079D02*
X14543801Y-15320174D01*
X14543801Y-15320174D02*
X14543801Y-15367793D01*
X14543801Y-15367793D02*
X14534277Y-15405888D01*
X14534277Y-15405888D02*
X14524753Y-15424936D01*
X14524753Y-15424936D02*
X14515229Y-15434460D01*
X14515229Y-15434460D02*
X14496182Y-15443984D01*
X14496182Y-15443984D02*
X14477134Y-15443984D01*
X14477134Y-15443984D02*
X14458086Y-15434460D01*
X14458086Y-15434460D02*
X14448563Y-15424936D01*
X14448563Y-15424936D02*
X14439039Y-15405888D01*
X14439039Y-15405888D02*
X14429515Y-15367793D01*
X14429515Y-15367793D02*
X14429515Y-15320174D01*
X14429515Y-15320174D02*
X14439039Y-15282079D01*
X14439039Y-15282079D02*
X14448563Y-15263031D01*
X14448563Y-15263031D02*
X14458086Y-15253508D01*
X14458086Y-15253508D02*
X14477134Y-15243984D01*
X14629515Y-15424936D02*
X14639039Y-15434460D01*
X14639039Y-15434460D02*
X14629515Y-15443984D01*
X14629515Y-15443984D02*
X14619991Y-15434460D01*
X14619991Y-15434460D02*
X14629515Y-15424936D01*
X14629515Y-15424936D02*
X14629515Y-15443984D01*
X14829515Y-15443984D02*
X14715229Y-15443984D01*
X14772372Y-15443984D02*
X14772372Y-15243984D01*
X14772372Y-15243984D02*
X14753325Y-15272555D01*
X14753325Y-15272555D02*
X14734277Y-15291603D01*
X14734277Y-15291603D02*
X14715229Y-15301127D01*
X14953325Y-15243984D02*
X14972372Y-15243984D01*
X14972372Y-15243984D02*
X14991420Y-15253508D01*
X14991420Y-15253508D02*
X15000944Y-15263031D01*
X15000944Y-15263031D02*
X15010467Y-15282079D01*
X15010467Y-15282079D02*
X15019991Y-15320174D01*
X15019991Y-15320174D02*
X15019991Y-15367793D01*
X15019991Y-15367793D02*
X15010467Y-15405888D01*
X15010467Y-15405888D02*
X15000944Y-15424936D01*
X15000944Y-15424936D02*
X14991420Y-15434460D01*
X14991420Y-15434460D02*
X14972372Y-15443984D01*
X14972372Y-15443984D02*
X14953325Y-15443984D01*
X14953325Y-15443984D02*
X14934277Y-15434460D01*
X14934277Y-15434460D02*
X14924753Y-15424936D01*
X14924753Y-15424936D02*
X14915229Y-15405888D01*
X14915229Y-15405888D02*
X14905706Y-15367793D01*
X14905706Y-15367793D02*
X14905706Y-15320174D01*
X14905706Y-15320174D02*
X14915229Y-15282079D01*
X14915229Y-15282079D02*
X14924753Y-15263031D01*
X14924753Y-15263031D02*
X14934277Y-15253508D01*
X14934277Y-15253508D02*
X14953325Y-15243984D01*
X15096182Y-15263031D02*
X15105706Y-15253508D01*
X15105706Y-15253508D02*
X15124753Y-15243984D01*
X15124753Y-15243984D02*
X15172372Y-15243984D01*
X15172372Y-15243984D02*
X15191420Y-15253508D01*
X15191420Y-15253508D02*
X15200944Y-15263031D01*
X15200944Y-15263031D02*
X15210467Y-15282079D01*
X15210467Y-15282079D02*
X15210467Y-15301127D01*
X15210467Y-15301127D02*
X15200944Y-15329698D01*
X15200944Y-15329698D02*
X15086658Y-15443984D01*
X15086658Y-15443984D02*
X15210467Y-15443984D01*
X15381896Y-15310650D02*
X15381896Y-15443984D01*
X15334277Y-15234460D02*
X15286658Y-15377317D01*
X15286658Y-15377317D02*
X15410467Y-15377317D01*
X15477134Y-15243984D02*
X15477134Y-15282079D01*
X15553325Y-15243984D02*
X15553325Y-15282079D01*
X15848563Y-15520174D02*
X15839039Y-15510650D01*
X15839039Y-15510650D02*
X15819991Y-15482079D01*
X15819991Y-15482079D02*
X15810468Y-15463031D01*
X15810468Y-15463031D02*
X15800944Y-15434460D01*
X15800944Y-15434460D02*
X15791420Y-15386841D01*
X15791420Y-15386841D02*
X15791420Y-15348746D01*
X15791420Y-15348746D02*
X15800944Y-15301127D01*
X15800944Y-15301127D02*
X15810468Y-15272555D01*
X15810468Y-15272555D02*
X15819991Y-15253508D01*
X15819991Y-15253508D02*
X15839039Y-15224936D01*
X15839039Y-15224936D02*
X15848563Y-15215412D01*
X15915229Y-15263031D02*
X15924753Y-15253508D01*
X15924753Y-15253508D02*
X15943801Y-15243984D01*
X15943801Y-15243984D02*
X15991420Y-15243984D01*
X15991420Y-15243984D02*
X16010468Y-15253508D01*
X16010468Y-15253508D02*
X16019991Y-15263031D01*
X16019991Y-15263031D02*
X16029515Y-15282079D01*
X16029515Y-15282079D02*
X16029515Y-15301127D01*
X16029515Y-15301127D02*
X16019991Y-15329698D01*
X16019991Y-15329698D02*
X15905706Y-15443984D01*
X15905706Y-15443984D02*
X16029515Y-15443984D01*
X16267610Y-15443984D02*
X16267610Y-15243984D01*
X16353325Y-15443984D02*
X16353325Y-15339222D01*
X16353325Y-15339222D02*
X16343801Y-15320174D01*
X16343801Y-15320174D02*
X16324753Y-15310650D01*
X16324753Y-15310650D02*
X16296182Y-15310650D01*
X16296182Y-15310650D02*
X16277134Y-15320174D01*
X16277134Y-15320174D02*
X16267610Y-15329698D01*
X16477134Y-15443984D02*
X16458087Y-15434460D01*
X16458087Y-15434460D02*
X16448563Y-15424936D01*
X16448563Y-15424936D02*
X16439039Y-15405888D01*
X16439039Y-15405888D02*
X16439039Y-15348746D01*
X16439039Y-15348746D02*
X16448563Y-15329698D01*
X16448563Y-15329698D02*
X16458087Y-15320174D01*
X16458087Y-15320174D02*
X16477134Y-15310650D01*
X16477134Y-15310650D02*
X16505706Y-15310650D01*
X16505706Y-15310650D02*
X16524753Y-15320174D01*
X16524753Y-15320174D02*
X16534277Y-15329698D01*
X16534277Y-15329698D02*
X16543801Y-15348746D01*
X16543801Y-15348746D02*
X16543801Y-15405888D01*
X16543801Y-15405888D02*
X16534277Y-15424936D01*
X16534277Y-15424936D02*
X16524753Y-15434460D01*
X16524753Y-15434460D02*
X16505706Y-15443984D01*
X16505706Y-15443984D02*
X16477134Y-15443984D01*
X16658087Y-15443984D02*
X16639039Y-15434460D01*
X16639039Y-15434460D02*
X16629515Y-15415412D01*
X16629515Y-15415412D02*
X16629515Y-15243984D01*
X16810468Y-15434460D02*
X16791420Y-15443984D01*
X16791420Y-15443984D02*
X16753325Y-15443984D01*
X16753325Y-15443984D02*
X16734277Y-15434460D01*
X16734277Y-15434460D02*
X16724753Y-15415412D01*
X16724753Y-15415412D02*
X16724753Y-15339222D01*
X16724753Y-15339222D02*
X16734277Y-15320174D01*
X16734277Y-15320174D02*
X16753325Y-15310650D01*
X16753325Y-15310650D02*
X16791420Y-15310650D01*
X16791420Y-15310650D02*
X16810468Y-15320174D01*
X16810468Y-15320174D02*
X16819992Y-15339222D01*
X16819992Y-15339222D02*
X16819992Y-15358269D01*
X16819992Y-15358269D02*
X16724753Y-15377317D01*
X16896182Y-15434460D02*
X16915230Y-15443984D01*
X16915230Y-15443984D02*
X16953325Y-15443984D01*
X16953325Y-15443984D02*
X16972373Y-15434460D01*
X16972373Y-15434460D02*
X16981896Y-15415412D01*
X16981896Y-15415412D02*
X16981896Y-15405888D01*
X16981896Y-15405888D02*
X16972373Y-15386841D01*
X16972373Y-15386841D02*
X16953325Y-15377317D01*
X16953325Y-15377317D02*
X16924753Y-15377317D01*
X16924753Y-15377317D02*
X16905706Y-15367793D01*
X16905706Y-15367793D02*
X16896182Y-15348746D01*
X16896182Y-15348746D02*
X16896182Y-15339222D01*
X16896182Y-15339222D02*
X16905706Y-15320174D01*
X16905706Y-15320174D02*
X16924753Y-15310650D01*
X16924753Y-15310650D02*
X16953325Y-15310650D01*
X16953325Y-15310650D02*
X16972373Y-15320174D01*
X17048563Y-15520174D02*
X17058087Y-15510650D01*
X17058087Y-15510650D02*
X17077134Y-15482079D01*
X17077134Y-15482079D02*
X17086658Y-15463031D01*
X17086658Y-15463031D02*
X17096182Y-15434460D01*
X17096182Y-15434460D02*
X17105706Y-15386841D01*
X17105706Y-15386841D02*
X17105706Y-15348746D01*
X17105706Y-15348746D02*
X17096182Y-15301127D01*
X17096182Y-15301127D02*
X17086658Y-15272555D01*
X17086658Y-15272555D02*
X17077134Y-15253508D01*
X17077134Y-15253508D02*
X17058087Y-15224936D01*
X17058087Y-15224936D02*
X17048563Y-15215412D01*
M02*
