%TF.GenerationSoftware,KiCad,Pcbnew,8.0.8*%
%TF.CreationDate,2025-01-22T11:30:49-06:00*%
%TF.ProjectId,B-Sides 2025,422d5369-6465-4732-9032-3032352e6b69,rev?*%
%TF.SameCoordinates,Original*%
%TF.FileFunction,Paste,Top*%
%TF.FilePolarity,Positive*%
%FSLAX46Y46*%
G04 Gerber Fmt 4.6, Leading zero omitted, Abs format (unit mm)*
G04 Created by KiCad (PCBNEW 8.0.8) date 2025-01-22 11:30:49*
%MOMM*%
%LPD*%
G01*
G04 APERTURE LIST*
G04 Aperture macros list*
%AMRoundRect*
0 Rectangle with rounded corners*
0 $1 Rounding radius*
0 $2 $3 $4 $5 $6 $7 $8 $9 X,Y pos of 4 corners*
0 Add a 4 corners polygon primitive as box body*
4,1,4,$2,$3,$4,$5,$6,$7,$8,$9,$2,$3,0*
0 Add four circle primitives for the rounded corners*
1,1,$1+$1,$2,$3*
1,1,$1+$1,$4,$5*
1,1,$1+$1,$6,$7*
1,1,$1+$1,$8,$9*
0 Add four rect primitives between the rounded corners*
20,1,$1+$1,$2,$3,$4,$5,0*
20,1,$1+$1,$4,$5,$6,$7,0*
20,1,$1+$1,$6,$7,$8,$9,0*
20,1,$1+$1,$8,$9,$2,$3,0*%
G04 Aperture macros list end*
%ADD10RoundRect,0.150000X-0.825000X-0.150000X0.825000X-0.150000X0.825000X0.150000X-0.825000X0.150000X0*%
%ADD11RoundRect,0.200000X-0.200000X-0.275000X0.200000X-0.275000X0.200000X0.275000X-0.200000X0.275000X0*%
%ADD12R,1.000000X1.500000*%
%ADD13RoundRect,0.218750X-0.218750X-0.256250X0.218750X-0.256250X0.218750X0.256250X-0.218750X0.256250X0*%
%ADD14RoundRect,0.237500X-0.300000X-0.237500X0.300000X-0.237500X0.300000X0.237500X-0.300000X0.237500X0*%
G04 APERTURE END LIST*
D10*
%TO.C,U1*%
X158225000Y-93577500D03*
X158225000Y-94847500D03*
X158225000Y-96117500D03*
X158225000Y-97387500D03*
X158225000Y-98657500D03*
X158225000Y-99927500D03*
X158225000Y-101197500D03*
X163175000Y-101197500D03*
X163175000Y-99927500D03*
X163175000Y-98657500D03*
X163175000Y-97387500D03*
X163175000Y-96117500D03*
X163175000Y-94847500D03*
X163175000Y-93577500D03*
%TD*%
D11*
%TO.C,R13*%
X160460000Y-90650000D03*
X162110000Y-90650000D03*
%TD*%
%TO.C,R12*%
X160315000Y-87590000D03*
X161965000Y-87590000D03*
%TD*%
%TO.C,R11*%
X166285000Y-87570000D03*
X167935000Y-87570000D03*
%TD*%
%TO.C,R10*%
X160415000Y-89080000D03*
X162065000Y-89080000D03*
%TD*%
%TO.C,R8*%
X141995000Y-82660000D03*
X143645000Y-82660000D03*
%TD*%
%TO.C,R7*%
X164325000Y-90910000D03*
X165975000Y-90910000D03*
%TD*%
%TO.C,R6*%
X159695000Y-105350000D03*
X161345000Y-105350000D03*
%TD*%
%TO.C,R5*%
X159765000Y-103440000D03*
X161415000Y-103440000D03*
%TD*%
%TO.C,R4*%
X159735000Y-109220000D03*
X161385000Y-109220000D03*
%TD*%
%TO.C,R3*%
X159695000Y-107360000D03*
X161345000Y-107360000D03*
%TD*%
%TO.C,R2*%
X164085000Y-89150000D03*
X165735000Y-89150000D03*
%TD*%
%TO.C,R1*%
X157345000Y-87560000D03*
X158995000Y-87560000D03*
%TD*%
D12*
%TO.C,Q2*%
X142000000Y-75510000D03*
X142000000Y-79010000D03*
X143400000Y-75510000D03*
X143400000Y-79010000D03*
%TD*%
%TO.C,Q1*%
X182990000Y-75220000D03*
X182990000Y-78720000D03*
X184390000Y-75220000D03*
X184390000Y-78720000D03*
%TD*%
D13*
%TO.C,D12*%
X173372500Y-78590000D03*
X174947500Y-78590000D03*
%TD*%
%TO.C,D11*%
X172322500Y-84750000D03*
X173897500Y-84750000D03*
%TD*%
%TO.C,D10*%
X156862500Y-90020000D03*
X158437500Y-90020000D03*
%TD*%
%TO.C,D9*%
X147482500Y-72270000D03*
X149057500Y-72270000D03*
%TD*%
%TO.C,D8*%
X154842500Y-65620000D03*
X156417500Y-65620000D03*
%TD*%
%TO.C,D7*%
X148762500Y-68760000D03*
X150337500Y-68760000D03*
%TD*%
%TO.C,D6*%
X147412500Y-75430000D03*
X148987500Y-75430000D03*
%TD*%
%TO.C,D5*%
X147942500Y-80300000D03*
X149517500Y-80300000D03*
%TD*%
%TO.C,D4*%
X170042500Y-89030000D03*
X171617500Y-89030000D03*
%TD*%
%TO.C,D3*%
X166282500Y-68080000D03*
X167857500Y-68080000D03*
%TD*%
%TO.C,D2*%
X148372500Y-84850000D03*
X149947500Y-84850000D03*
%TD*%
%TO.C,D1*%
X152692500Y-89190000D03*
X154267500Y-89190000D03*
%TD*%
D14*
%TO.C,C4*%
X146035000Y-104530000D03*
X147760000Y-104530000D03*
%TD*%
%TO.C,C3*%
X171327500Y-81530000D03*
X173052500Y-81530000D03*
%TD*%
%TO.C,C2*%
X166577500Y-92640000D03*
X168302500Y-92640000D03*
%TD*%
%TO.C,C1*%
X154597500Y-91890000D03*
X156322500Y-91890000D03*
%TD*%
M02*
