%TF.GenerationSoftware,KiCad,Pcbnew,8.0.8*%
%TF.CreationDate,2025-01-22T11:30:49-06:00*%
%TF.ProjectId,B-Sides 2025,422d5369-6465-4732-9032-3032352e6b69,rev?*%
%TF.SameCoordinates,Original*%
%TF.FileFunction,Legend,Top*%
%TF.FilePolarity,Positive*%
%FSLAX46Y46*%
G04 Gerber Fmt 4.6, Leading zero omitted, Abs format (unit mm)*
G04 Created by KiCad (PCBNEW 8.0.8) date 2025-01-22 11:30:49*
%MOMM*%
%LPD*%
G01*
G04 APERTURE LIST*
%ADD10C,0.150000*%
%ADD11C,0.120000*%
G04 APERTURE END LIST*
D10*
X159938095Y-91562319D02*
X159938095Y-92371842D01*
X159938095Y-92371842D02*
X159985714Y-92467080D01*
X159985714Y-92467080D02*
X160033333Y-92514700D01*
X160033333Y-92514700D02*
X160128571Y-92562319D01*
X160128571Y-92562319D02*
X160319047Y-92562319D01*
X160319047Y-92562319D02*
X160414285Y-92514700D01*
X160414285Y-92514700D02*
X160461904Y-92467080D01*
X160461904Y-92467080D02*
X160509523Y-92371842D01*
X160509523Y-92371842D02*
X160509523Y-91562319D01*
X161509523Y-92562319D02*
X160938095Y-92562319D01*
X161223809Y-92562319D02*
X161223809Y-91562319D01*
X161223809Y-91562319D02*
X161128571Y-91705176D01*
X161128571Y-91705176D02*
X161033333Y-91800414D01*
X161033333Y-91800414D02*
X160938095Y-91848033D01*
X154996667Y-72057200D02*
X155139524Y-72104819D01*
X155139524Y-72104819D02*
X155377619Y-72104819D01*
X155377619Y-72104819D02*
X155472857Y-72057200D01*
X155472857Y-72057200D02*
X155520476Y-72009580D01*
X155520476Y-72009580D02*
X155568095Y-71914342D01*
X155568095Y-71914342D02*
X155568095Y-71819104D01*
X155568095Y-71819104D02*
X155520476Y-71723866D01*
X155520476Y-71723866D02*
X155472857Y-71676247D01*
X155472857Y-71676247D02*
X155377619Y-71628628D01*
X155377619Y-71628628D02*
X155187143Y-71581009D01*
X155187143Y-71581009D02*
X155091905Y-71533390D01*
X155091905Y-71533390D02*
X155044286Y-71485771D01*
X155044286Y-71485771D02*
X154996667Y-71390533D01*
X154996667Y-71390533D02*
X154996667Y-71295295D01*
X154996667Y-71295295D02*
X155044286Y-71200057D01*
X155044286Y-71200057D02*
X155091905Y-71152438D01*
X155091905Y-71152438D02*
X155187143Y-71104819D01*
X155187143Y-71104819D02*
X155425238Y-71104819D01*
X155425238Y-71104819D02*
X155568095Y-71152438D01*
X155901429Y-71104819D02*
X156139524Y-72104819D01*
X156139524Y-72104819D02*
X156330000Y-71390533D01*
X156330000Y-71390533D02*
X156520476Y-72104819D01*
X156520476Y-72104819D02*
X156758572Y-71104819D01*
X157663333Y-72104819D02*
X157091905Y-72104819D01*
X157377619Y-72104819D02*
X157377619Y-71104819D01*
X157377619Y-71104819D02*
X157282381Y-71247676D01*
X157282381Y-71247676D02*
X157187143Y-71342914D01*
X157187143Y-71342914D02*
X157091905Y-71390533D01*
X160642142Y-89674819D02*
X160308809Y-89198628D01*
X160070714Y-89674819D02*
X160070714Y-88674819D01*
X160070714Y-88674819D02*
X160451666Y-88674819D01*
X160451666Y-88674819D02*
X160546904Y-88722438D01*
X160546904Y-88722438D02*
X160594523Y-88770057D01*
X160594523Y-88770057D02*
X160642142Y-88865295D01*
X160642142Y-88865295D02*
X160642142Y-89008152D01*
X160642142Y-89008152D02*
X160594523Y-89103390D01*
X160594523Y-89103390D02*
X160546904Y-89151009D01*
X160546904Y-89151009D02*
X160451666Y-89198628D01*
X160451666Y-89198628D02*
X160070714Y-89198628D01*
X161594523Y-89674819D02*
X161023095Y-89674819D01*
X161308809Y-89674819D02*
X161308809Y-88674819D01*
X161308809Y-88674819D02*
X161213571Y-88817676D01*
X161213571Y-88817676D02*
X161118333Y-88912914D01*
X161118333Y-88912914D02*
X161023095Y-88960533D01*
X161927857Y-88674819D02*
X162546904Y-88674819D01*
X162546904Y-88674819D02*
X162213571Y-89055771D01*
X162213571Y-89055771D02*
X162356428Y-89055771D01*
X162356428Y-89055771D02*
X162451666Y-89103390D01*
X162451666Y-89103390D02*
X162499285Y-89151009D01*
X162499285Y-89151009D02*
X162546904Y-89246247D01*
X162546904Y-89246247D02*
X162546904Y-89484342D01*
X162546904Y-89484342D02*
X162499285Y-89579580D01*
X162499285Y-89579580D02*
X162451666Y-89627200D01*
X162451666Y-89627200D02*
X162356428Y-89674819D01*
X162356428Y-89674819D02*
X162070714Y-89674819D01*
X162070714Y-89674819D02*
X161975476Y-89627200D01*
X161975476Y-89627200D02*
X161927857Y-89579580D01*
X160497142Y-86614819D02*
X160163809Y-86138628D01*
X159925714Y-86614819D02*
X159925714Y-85614819D01*
X159925714Y-85614819D02*
X160306666Y-85614819D01*
X160306666Y-85614819D02*
X160401904Y-85662438D01*
X160401904Y-85662438D02*
X160449523Y-85710057D01*
X160449523Y-85710057D02*
X160497142Y-85805295D01*
X160497142Y-85805295D02*
X160497142Y-85948152D01*
X160497142Y-85948152D02*
X160449523Y-86043390D01*
X160449523Y-86043390D02*
X160401904Y-86091009D01*
X160401904Y-86091009D02*
X160306666Y-86138628D01*
X160306666Y-86138628D02*
X159925714Y-86138628D01*
X161449523Y-86614819D02*
X160878095Y-86614819D01*
X161163809Y-86614819D02*
X161163809Y-85614819D01*
X161163809Y-85614819D02*
X161068571Y-85757676D01*
X161068571Y-85757676D02*
X160973333Y-85852914D01*
X160973333Y-85852914D02*
X160878095Y-85900533D01*
X161830476Y-85710057D02*
X161878095Y-85662438D01*
X161878095Y-85662438D02*
X161973333Y-85614819D01*
X161973333Y-85614819D02*
X162211428Y-85614819D01*
X162211428Y-85614819D02*
X162306666Y-85662438D01*
X162306666Y-85662438D02*
X162354285Y-85710057D01*
X162354285Y-85710057D02*
X162401904Y-85805295D01*
X162401904Y-85805295D02*
X162401904Y-85900533D01*
X162401904Y-85900533D02*
X162354285Y-86043390D01*
X162354285Y-86043390D02*
X161782857Y-86614819D01*
X161782857Y-86614819D02*
X162401904Y-86614819D01*
X166467142Y-86594819D02*
X166133809Y-86118628D01*
X165895714Y-86594819D02*
X165895714Y-85594819D01*
X165895714Y-85594819D02*
X166276666Y-85594819D01*
X166276666Y-85594819D02*
X166371904Y-85642438D01*
X166371904Y-85642438D02*
X166419523Y-85690057D01*
X166419523Y-85690057D02*
X166467142Y-85785295D01*
X166467142Y-85785295D02*
X166467142Y-85928152D01*
X166467142Y-85928152D02*
X166419523Y-86023390D01*
X166419523Y-86023390D02*
X166371904Y-86071009D01*
X166371904Y-86071009D02*
X166276666Y-86118628D01*
X166276666Y-86118628D02*
X165895714Y-86118628D01*
X167419523Y-86594819D02*
X166848095Y-86594819D01*
X167133809Y-86594819D02*
X167133809Y-85594819D01*
X167133809Y-85594819D02*
X167038571Y-85737676D01*
X167038571Y-85737676D02*
X166943333Y-85832914D01*
X166943333Y-85832914D02*
X166848095Y-85880533D01*
X168371904Y-86594819D02*
X167800476Y-86594819D01*
X168086190Y-86594819D02*
X168086190Y-85594819D01*
X168086190Y-85594819D02*
X167990952Y-85737676D01*
X167990952Y-85737676D02*
X167895714Y-85832914D01*
X167895714Y-85832914D02*
X167800476Y-85880533D01*
X160597142Y-88104819D02*
X160263809Y-87628628D01*
X160025714Y-88104819D02*
X160025714Y-87104819D01*
X160025714Y-87104819D02*
X160406666Y-87104819D01*
X160406666Y-87104819D02*
X160501904Y-87152438D01*
X160501904Y-87152438D02*
X160549523Y-87200057D01*
X160549523Y-87200057D02*
X160597142Y-87295295D01*
X160597142Y-87295295D02*
X160597142Y-87438152D01*
X160597142Y-87438152D02*
X160549523Y-87533390D01*
X160549523Y-87533390D02*
X160501904Y-87581009D01*
X160501904Y-87581009D02*
X160406666Y-87628628D01*
X160406666Y-87628628D02*
X160025714Y-87628628D01*
X161549523Y-88104819D02*
X160978095Y-88104819D01*
X161263809Y-88104819D02*
X161263809Y-87104819D01*
X161263809Y-87104819D02*
X161168571Y-87247676D01*
X161168571Y-87247676D02*
X161073333Y-87342914D01*
X161073333Y-87342914D02*
X160978095Y-87390533D01*
X162168571Y-87104819D02*
X162263809Y-87104819D01*
X162263809Y-87104819D02*
X162359047Y-87152438D01*
X162359047Y-87152438D02*
X162406666Y-87200057D01*
X162406666Y-87200057D02*
X162454285Y-87295295D01*
X162454285Y-87295295D02*
X162501904Y-87485771D01*
X162501904Y-87485771D02*
X162501904Y-87723866D01*
X162501904Y-87723866D02*
X162454285Y-87914342D01*
X162454285Y-87914342D02*
X162406666Y-88009580D01*
X162406666Y-88009580D02*
X162359047Y-88057200D01*
X162359047Y-88057200D02*
X162263809Y-88104819D01*
X162263809Y-88104819D02*
X162168571Y-88104819D01*
X162168571Y-88104819D02*
X162073333Y-88057200D01*
X162073333Y-88057200D02*
X162025714Y-88009580D01*
X162025714Y-88009580D02*
X161978095Y-87914342D01*
X161978095Y-87914342D02*
X161930476Y-87723866D01*
X161930476Y-87723866D02*
X161930476Y-87485771D01*
X161930476Y-87485771D02*
X161978095Y-87295295D01*
X161978095Y-87295295D02*
X162025714Y-87200057D01*
X162025714Y-87200057D02*
X162073333Y-87152438D01*
X162073333Y-87152438D02*
X162168571Y-87104819D01*
X142653333Y-81684819D02*
X142320000Y-81208628D01*
X142081905Y-81684819D02*
X142081905Y-80684819D01*
X142081905Y-80684819D02*
X142462857Y-80684819D01*
X142462857Y-80684819D02*
X142558095Y-80732438D01*
X142558095Y-80732438D02*
X142605714Y-80780057D01*
X142605714Y-80780057D02*
X142653333Y-80875295D01*
X142653333Y-80875295D02*
X142653333Y-81018152D01*
X142653333Y-81018152D02*
X142605714Y-81113390D01*
X142605714Y-81113390D02*
X142558095Y-81161009D01*
X142558095Y-81161009D02*
X142462857Y-81208628D01*
X142462857Y-81208628D02*
X142081905Y-81208628D01*
X143224762Y-81113390D02*
X143129524Y-81065771D01*
X143129524Y-81065771D02*
X143081905Y-81018152D01*
X143081905Y-81018152D02*
X143034286Y-80922914D01*
X143034286Y-80922914D02*
X143034286Y-80875295D01*
X143034286Y-80875295D02*
X143081905Y-80780057D01*
X143081905Y-80780057D02*
X143129524Y-80732438D01*
X143129524Y-80732438D02*
X143224762Y-80684819D01*
X143224762Y-80684819D02*
X143415238Y-80684819D01*
X143415238Y-80684819D02*
X143510476Y-80732438D01*
X143510476Y-80732438D02*
X143558095Y-80780057D01*
X143558095Y-80780057D02*
X143605714Y-80875295D01*
X143605714Y-80875295D02*
X143605714Y-80922914D01*
X143605714Y-80922914D02*
X143558095Y-81018152D01*
X143558095Y-81018152D02*
X143510476Y-81065771D01*
X143510476Y-81065771D02*
X143415238Y-81113390D01*
X143415238Y-81113390D02*
X143224762Y-81113390D01*
X143224762Y-81113390D02*
X143129524Y-81161009D01*
X143129524Y-81161009D02*
X143081905Y-81208628D01*
X143081905Y-81208628D02*
X143034286Y-81303866D01*
X143034286Y-81303866D02*
X143034286Y-81494342D01*
X143034286Y-81494342D02*
X143081905Y-81589580D01*
X143081905Y-81589580D02*
X143129524Y-81637200D01*
X143129524Y-81637200D02*
X143224762Y-81684819D01*
X143224762Y-81684819D02*
X143415238Y-81684819D01*
X143415238Y-81684819D02*
X143510476Y-81637200D01*
X143510476Y-81637200D02*
X143558095Y-81589580D01*
X143558095Y-81589580D02*
X143605714Y-81494342D01*
X143605714Y-81494342D02*
X143605714Y-81303866D01*
X143605714Y-81303866D02*
X143558095Y-81208628D01*
X143558095Y-81208628D02*
X143510476Y-81161009D01*
X143510476Y-81161009D02*
X143415238Y-81113390D01*
X164983333Y-89934819D02*
X164650000Y-89458628D01*
X164411905Y-89934819D02*
X164411905Y-88934819D01*
X164411905Y-88934819D02*
X164792857Y-88934819D01*
X164792857Y-88934819D02*
X164888095Y-88982438D01*
X164888095Y-88982438D02*
X164935714Y-89030057D01*
X164935714Y-89030057D02*
X164983333Y-89125295D01*
X164983333Y-89125295D02*
X164983333Y-89268152D01*
X164983333Y-89268152D02*
X164935714Y-89363390D01*
X164935714Y-89363390D02*
X164888095Y-89411009D01*
X164888095Y-89411009D02*
X164792857Y-89458628D01*
X164792857Y-89458628D02*
X164411905Y-89458628D01*
X165316667Y-88934819D02*
X165983333Y-88934819D01*
X165983333Y-88934819D02*
X165554762Y-89934819D01*
X160353333Y-104374819D02*
X160020000Y-103898628D01*
X159781905Y-104374819D02*
X159781905Y-103374819D01*
X159781905Y-103374819D02*
X160162857Y-103374819D01*
X160162857Y-103374819D02*
X160258095Y-103422438D01*
X160258095Y-103422438D02*
X160305714Y-103470057D01*
X160305714Y-103470057D02*
X160353333Y-103565295D01*
X160353333Y-103565295D02*
X160353333Y-103708152D01*
X160353333Y-103708152D02*
X160305714Y-103803390D01*
X160305714Y-103803390D02*
X160258095Y-103851009D01*
X160258095Y-103851009D02*
X160162857Y-103898628D01*
X160162857Y-103898628D02*
X159781905Y-103898628D01*
X161210476Y-103374819D02*
X161020000Y-103374819D01*
X161020000Y-103374819D02*
X160924762Y-103422438D01*
X160924762Y-103422438D02*
X160877143Y-103470057D01*
X160877143Y-103470057D02*
X160781905Y-103612914D01*
X160781905Y-103612914D02*
X160734286Y-103803390D01*
X160734286Y-103803390D02*
X160734286Y-104184342D01*
X160734286Y-104184342D02*
X160781905Y-104279580D01*
X160781905Y-104279580D02*
X160829524Y-104327200D01*
X160829524Y-104327200D02*
X160924762Y-104374819D01*
X160924762Y-104374819D02*
X161115238Y-104374819D01*
X161115238Y-104374819D02*
X161210476Y-104327200D01*
X161210476Y-104327200D02*
X161258095Y-104279580D01*
X161258095Y-104279580D02*
X161305714Y-104184342D01*
X161305714Y-104184342D02*
X161305714Y-103946247D01*
X161305714Y-103946247D02*
X161258095Y-103851009D01*
X161258095Y-103851009D02*
X161210476Y-103803390D01*
X161210476Y-103803390D02*
X161115238Y-103755771D01*
X161115238Y-103755771D02*
X160924762Y-103755771D01*
X160924762Y-103755771D02*
X160829524Y-103803390D01*
X160829524Y-103803390D02*
X160781905Y-103851009D01*
X160781905Y-103851009D02*
X160734286Y-103946247D01*
X160423333Y-102464819D02*
X160090000Y-101988628D01*
X159851905Y-102464819D02*
X159851905Y-101464819D01*
X159851905Y-101464819D02*
X160232857Y-101464819D01*
X160232857Y-101464819D02*
X160328095Y-101512438D01*
X160328095Y-101512438D02*
X160375714Y-101560057D01*
X160375714Y-101560057D02*
X160423333Y-101655295D01*
X160423333Y-101655295D02*
X160423333Y-101798152D01*
X160423333Y-101798152D02*
X160375714Y-101893390D01*
X160375714Y-101893390D02*
X160328095Y-101941009D01*
X160328095Y-101941009D02*
X160232857Y-101988628D01*
X160232857Y-101988628D02*
X159851905Y-101988628D01*
X161328095Y-101464819D02*
X160851905Y-101464819D01*
X160851905Y-101464819D02*
X160804286Y-101941009D01*
X160804286Y-101941009D02*
X160851905Y-101893390D01*
X160851905Y-101893390D02*
X160947143Y-101845771D01*
X160947143Y-101845771D02*
X161185238Y-101845771D01*
X161185238Y-101845771D02*
X161280476Y-101893390D01*
X161280476Y-101893390D02*
X161328095Y-101941009D01*
X161328095Y-101941009D02*
X161375714Y-102036247D01*
X161375714Y-102036247D02*
X161375714Y-102274342D01*
X161375714Y-102274342D02*
X161328095Y-102369580D01*
X161328095Y-102369580D02*
X161280476Y-102417200D01*
X161280476Y-102417200D02*
X161185238Y-102464819D01*
X161185238Y-102464819D02*
X160947143Y-102464819D01*
X160947143Y-102464819D02*
X160851905Y-102417200D01*
X160851905Y-102417200D02*
X160804286Y-102369580D01*
X160393333Y-108244819D02*
X160060000Y-107768628D01*
X159821905Y-108244819D02*
X159821905Y-107244819D01*
X159821905Y-107244819D02*
X160202857Y-107244819D01*
X160202857Y-107244819D02*
X160298095Y-107292438D01*
X160298095Y-107292438D02*
X160345714Y-107340057D01*
X160345714Y-107340057D02*
X160393333Y-107435295D01*
X160393333Y-107435295D02*
X160393333Y-107578152D01*
X160393333Y-107578152D02*
X160345714Y-107673390D01*
X160345714Y-107673390D02*
X160298095Y-107721009D01*
X160298095Y-107721009D02*
X160202857Y-107768628D01*
X160202857Y-107768628D02*
X159821905Y-107768628D01*
X161250476Y-107578152D02*
X161250476Y-108244819D01*
X161012381Y-107197200D02*
X160774286Y-107911485D01*
X160774286Y-107911485D02*
X161393333Y-107911485D01*
X160353333Y-106384819D02*
X160020000Y-105908628D01*
X159781905Y-106384819D02*
X159781905Y-105384819D01*
X159781905Y-105384819D02*
X160162857Y-105384819D01*
X160162857Y-105384819D02*
X160258095Y-105432438D01*
X160258095Y-105432438D02*
X160305714Y-105480057D01*
X160305714Y-105480057D02*
X160353333Y-105575295D01*
X160353333Y-105575295D02*
X160353333Y-105718152D01*
X160353333Y-105718152D02*
X160305714Y-105813390D01*
X160305714Y-105813390D02*
X160258095Y-105861009D01*
X160258095Y-105861009D02*
X160162857Y-105908628D01*
X160162857Y-105908628D02*
X159781905Y-105908628D01*
X160686667Y-105384819D02*
X161305714Y-105384819D01*
X161305714Y-105384819D02*
X160972381Y-105765771D01*
X160972381Y-105765771D02*
X161115238Y-105765771D01*
X161115238Y-105765771D02*
X161210476Y-105813390D01*
X161210476Y-105813390D02*
X161258095Y-105861009D01*
X161258095Y-105861009D02*
X161305714Y-105956247D01*
X161305714Y-105956247D02*
X161305714Y-106194342D01*
X161305714Y-106194342D02*
X161258095Y-106289580D01*
X161258095Y-106289580D02*
X161210476Y-106337200D01*
X161210476Y-106337200D02*
X161115238Y-106384819D01*
X161115238Y-106384819D02*
X160829524Y-106384819D01*
X160829524Y-106384819D02*
X160734286Y-106337200D01*
X160734286Y-106337200D02*
X160686667Y-106289580D01*
X164743333Y-88174819D02*
X164410000Y-87698628D01*
X164171905Y-88174819D02*
X164171905Y-87174819D01*
X164171905Y-87174819D02*
X164552857Y-87174819D01*
X164552857Y-87174819D02*
X164648095Y-87222438D01*
X164648095Y-87222438D02*
X164695714Y-87270057D01*
X164695714Y-87270057D02*
X164743333Y-87365295D01*
X164743333Y-87365295D02*
X164743333Y-87508152D01*
X164743333Y-87508152D02*
X164695714Y-87603390D01*
X164695714Y-87603390D02*
X164648095Y-87651009D01*
X164648095Y-87651009D02*
X164552857Y-87698628D01*
X164552857Y-87698628D02*
X164171905Y-87698628D01*
X165124286Y-87270057D02*
X165171905Y-87222438D01*
X165171905Y-87222438D02*
X165267143Y-87174819D01*
X165267143Y-87174819D02*
X165505238Y-87174819D01*
X165505238Y-87174819D02*
X165600476Y-87222438D01*
X165600476Y-87222438D02*
X165648095Y-87270057D01*
X165648095Y-87270057D02*
X165695714Y-87365295D01*
X165695714Y-87365295D02*
X165695714Y-87460533D01*
X165695714Y-87460533D02*
X165648095Y-87603390D01*
X165648095Y-87603390D02*
X165076667Y-88174819D01*
X165076667Y-88174819D02*
X165695714Y-88174819D01*
X158003333Y-86584819D02*
X157670000Y-86108628D01*
X157431905Y-86584819D02*
X157431905Y-85584819D01*
X157431905Y-85584819D02*
X157812857Y-85584819D01*
X157812857Y-85584819D02*
X157908095Y-85632438D01*
X157908095Y-85632438D02*
X157955714Y-85680057D01*
X157955714Y-85680057D02*
X158003333Y-85775295D01*
X158003333Y-85775295D02*
X158003333Y-85918152D01*
X158003333Y-85918152D02*
X157955714Y-86013390D01*
X157955714Y-86013390D02*
X157908095Y-86061009D01*
X157908095Y-86061009D02*
X157812857Y-86108628D01*
X157812857Y-86108628D02*
X157431905Y-86108628D01*
X158955714Y-86584819D02*
X158384286Y-86584819D01*
X158670000Y-86584819D02*
X158670000Y-85584819D01*
X158670000Y-85584819D02*
X158574762Y-85727676D01*
X158574762Y-85727676D02*
X158479524Y-85822914D01*
X158479524Y-85822914D02*
X158384286Y-85870533D01*
X142604761Y-74254057D02*
X142509523Y-74206438D01*
X142509523Y-74206438D02*
X142414285Y-74111200D01*
X142414285Y-74111200D02*
X142271428Y-73968342D01*
X142271428Y-73968342D02*
X142176190Y-73920723D01*
X142176190Y-73920723D02*
X142080952Y-73920723D01*
X142128571Y-74158819D02*
X142033333Y-74111200D01*
X142033333Y-74111200D02*
X141938095Y-74015961D01*
X141938095Y-74015961D02*
X141890476Y-73825485D01*
X141890476Y-73825485D02*
X141890476Y-73492152D01*
X141890476Y-73492152D02*
X141938095Y-73301676D01*
X141938095Y-73301676D02*
X142033333Y-73206438D01*
X142033333Y-73206438D02*
X142128571Y-73158819D01*
X142128571Y-73158819D02*
X142319047Y-73158819D01*
X142319047Y-73158819D02*
X142414285Y-73206438D01*
X142414285Y-73206438D02*
X142509523Y-73301676D01*
X142509523Y-73301676D02*
X142557142Y-73492152D01*
X142557142Y-73492152D02*
X142557142Y-73825485D01*
X142557142Y-73825485D02*
X142509523Y-74015961D01*
X142509523Y-74015961D02*
X142414285Y-74111200D01*
X142414285Y-74111200D02*
X142319047Y-74158819D01*
X142319047Y-74158819D02*
X142128571Y-74158819D01*
X142938095Y-73254057D02*
X142985714Y-73206438D01*
X142985714Y-73206438D02*
X143080952Y-73158819D01*
X143080952Y-73158819D02*
X143319047Y-73158819D01*
X143319047Y-73158819D02*
X143414285Y-73206438D01*
X143414285Y-73206438D02*
X143461904Y-73254057D01*
X143461904Y-73254057D02*
X143509523Y-73349295D01*
X143509523Y-73349295D02*
X143509523Y-73444533D01*
X143509523Y-73444533D02*
X143461904Y-73587390D01*
X143461904Y-73587390D02*
X142890476Y-74158819D01*
X142890476Y-74158819D02*
X143509523Y-74158819D01*
X183594761Y-73964057D02*
X183499523Y-73916438D01*
X183499523Y-73916438D02*
X183404285Y-73821200D01*
X183404285Y-73821200D02*
X183261428Y-73678342D01*
X183261428Y-73678342D02*
X183166190Y-73630723D01*
X183166190Y-73630723D02*
X183070952Y-73630723D01*
X183118571Y-73868819D02*
X183023333Y-73821200D01*
X183023333Y-73821200D02*
X182928095Y-73725961D01*
X182928095Y-73725961D02*
X182880476Y-73535485D01*
X182880476Y-73535485D02*
X182880476Y-73202152D01*
X182880476Y-73202152D02*
X182928095Y-73011676D01*
X182928095Y-73011676D02*
X183023333Y-72916438D01*
X183023333Y-72916438D02*
X183118571Y-72868819D01*
X183118571Y-72868819D02*
X183309047Y-72868819D01*
X183309047Y-72868819D02*
X183404285Y-72916438D01*
X183404285Y-72916438D02*
X183499523Y-73011676D01*
X183499523Y-73011676D02*
X183547142Y-73202152D01*
X183547142Y-73202152D02*
X183547142Y-73535485D01*
X183547142Y-73535485D02*
X183499523Y-73725961D01*
X183499523Y-73725961D02*
X183404285Y-73821200D01*
X183404285Y-73821200D02*
X183309047Y-73868819D01*
X183309047Y-73868819D02*
X183118571Y-73868819D01*
X184499523Y-73868819D02*
X183928095Y-73868819D01*
X184213809Y-73868819D02*
X184213809Y-72868819D01*
X184213809Y-72868819D02*
X184118571Y-73011676D01*
X184118571Y-73011676D02*
X184023333Y-73106914D01*
X184023333Y-73106914D02*
X183928095Y-73154533D01*
X172945714Y-77614819D02*
X172945714Y-76614819D01*
X172945714Y-76614819D02*
X173183809Y-76614819D01*
X173183809Y-76614819D02*
X173326666Y-76662438D01*
X173326666Y-76662438D02*
X173421904Y-76757676D01*
X173421904Y-76757676D02*
X173469523Y-76852914D01*
X173469523Y-76852914D02*
X173517142Y-77043390D01*
X173517142Y-77043390D02*
X173517142Y-77186247D01*
X173517142Y-77186247D02*
X173469523Y-77376723D01*
X173469523Y-77376723D02*
X173421904Y-77471961D01*
X173421904Y-77471961D02*
X173326666Y-77567200D01*
X173326666Y-77567200D02*
X173183809Y-77614819D01*
X173183809Y-77614819D02*
X172945714Y-77614819D01*
X174469523Y-77614819D02*
X173898095Y-77614819D01*
X174183809Y-77614819D02*
X174183809Y-76614819D01*
X174183809Y-76614819D02*
X174088571Y-76757676D01*
X174088571Y-76757676D02*
X173993333Y-76852914D01*
X173993333Y-76852914D02*
X173898095Y-76900533D01*
X174850476Y-76710057D02*
X174898095Y-76662438D01*
X174898095Y-76662438D02*
X174993333Y-76614819D01*
X174993333Y-76614819D02*
X175231428Y-76614819D01*
X175231428Y-76614819D02*
X175326666Y-76662438D01*
X175326666Y-76662438D02*
X175374285Y-76710057D01*
X175374285Y-76710057D02*
X175421904Y-76805295D01*
X175421904Y-76805295D02*
X175421904Y-76900533D01*
X175421904Y-76900533D02*
X175374285Y-77043390D01*
X175374285Y-77043390D02*
X174802857Y-77614819D01*
X174802857Y-77614819D02*
X175421904Y-77614819D01*
X171895714Y-83774819D02*
X171895714Y-82774819D01*
X171895714Y-82774819D02*
X172133809Y-82774819D01*
X172133809Y-82774819D02*
X172276666Y-82822438D01*
X172276666Y-82822438D02*
X172371904Y-82917676D01*
X172371904Y-82917676D02*
X172419523Y-83012914D01*
X172419523Y-83012914D02*
X172467142Y-83203390D01*
X172467142Y-83203390D02*
X172467142Y-83346247D01*
X172467142Y-83346247D02*
X172419523Y-83536723D01*
X172419523Y-83536723D02*
X172371904Y-83631961D01*
X172371904Y-83631961D02*
X172276666Y-83727200D01*
X172276666Y-83727200D02*
X172133809Y-83774819D01*
X172133809Y-83774819D02*
X171895714Y-83774819D01*
X173419523Y-83774819D02*
X172848095Y-83774819D01*
X173133809Y-83774819D02*
X173133809Y-82774819D01*
X173133809Y-82774819D02*
X173038571Y-82917676D01*
X173038571Y-82917676D02*
X172943333Y-83012914D01*
X172943333Y-83012914D02*
X172848095Y-83060533D01*
X174371904Y-83774819D02*
X173800476Y-83774819D01*
X174086190Y-83774819D02*
X174086190Y-82774819D01*
X174086190Y-82774819D02*
X173990952Y-82917676D01*
X173990952Y-82917676D02*
X173895714Y-83012914D01*
X173895714Y-83012914D02*
X173800476Y-83060533D01*
X156435714Y-89044819D02*
X156435714Y-88044819D01*
X156435714Y-88044819D02*
X156673809Y-88044819D01*
X156673809Y-88044819D02*
X156816666Y-88092438D01*
X156816666Y-88092438D02*
X156911904Y-88187676D01*
X156911904Y-88187676D02*
X156959523Y-88282914D01*
X156959523Y-88282914D02*
X157007142Y-88473390D01*
X157007142Y-88473390D02*
X157007142Y-88616247D01*
X157007142Y-88616247D02*
X156959523Y-88806723D01*
X156959523Y-88806723D02*
X156911904Y-88901961D01*
X156911904Y-88901961D02*
X156816666Y-88997200D01*
X156816666Y-88997200D02*
X156673809Y-89044819D01*
X156673809Y-89044819D02*
X156435714Y-89044819D01*
X157959523Y-89044819D02*
X157388095Y-89044819D01*
X157673809Y-89044819D02*
X157673809Y-88044819D01*
X157673809Y-88044819D02*
X157578571Y-88187676D01*
X157578571Y-88187676D02*
X157483333Y-88282914D01*
X157483333Y-88282914D02*
X157388095Y-88330533D01*
X158578571Y-88044819D02*
X158673809Y-88044819D01*
X158673809Y-88044819D02*
X158769047Y-88092438D01*
X158769047Y-88092438D02*
X158816666Y-88140057D01*
X158816666Y-88140057D02*
X158864285Y-88235295D01*
X158864285Y-88235295D02*
X158911904Y-88425771D01*
X158911904Y-88425771D02*
X158911904Y-88663866D01*
X158911904Y-88663866D02*
X158864285Y-88854342D01*
X158864285Y-88854342D02*
X158816666Y-88949580D01*
X158816666Y-88949580D02*
X158769047Y-88997200D01*
X158769047Y-88997200D02*
X158673809Y-89044819D01*
X158673809Y-89044819D02*
X158578571Y-89044819D01*
X158578571Y-89044819D02*
X158483333Y-88997200D01*
X158483333Y-88997200D02*
X158435714Y-88949580D01*
X158435714Y-88949580D02*
X158388095Y-88854342D01*
X158388095Y-88854342D02*
X158340476Y-88663866D01*
X158340476Y-88663866D02*
X158340476Y-88425771D01*
X158340476Y-88425771D02*
X158388095Y-88235295D01*
X158388095Y-88235295D02*
X158435714Y-88140057D01*
X158435714Y-88140057D02*
X158483333Y-88092438D01*
X158483333Y-88092438D02*
X158578571Y-88044819D01*
X147531905Y-71294819D02*
X147531905Y-70294819D01*
X147531905Y-70294819D02*
X147770000Y-70294819D01*
X147770000Y-70294819D02*
X147912857Y-70342438D01*
X147912857Y-70342438D02*
X148008095Y-70437676D01*
X148008095Y-70437676D02*
X148055714Y-70532914D01*
X148055714Y-70532914D02*
X148103333Y-70723390D01*
X148103333Y-70723390D02*
X148103333Y-70866247D01*
X148103333Y-70866247D02*
X148055714Y-71056723D01*
X148055714Y-71056723D02*
X148008095Y-71151961D01*
X148008095Y-71151961D02*
X147912857Y-71247200D01*
X147912857Y-71247200D02*
X147770000Y-71294819D01*
X147770000Y-71294819D02*
X147531905Y-71294819D01*
X148579524Y-71294819D02*
X148770000Y-71294819D01*
X148770000Y-71294819D02*
X148865238Y-71247200D01*
X148865238Y-71247200D02*
X148912857Y-71199580D01*
X148912857Y-71199580D02*
X149008095Y-71056723D01*
X149008095Y-71056723D02*
X149055714Y-70866247D01*
X149055714Y-70866247D02*
X149055714Y-70485295D01*
X149055714Y-70485295D02*
X149008095Y-70390057D01*
X149008095Y-70390057D02*
X148960476Y-70342438D01*
X148960476Y-70342438D02*
X148865238Y-70294819D01*
X148865238Y-70294819D02*
X148674762Y-70294819D01*
X148674762Y-70294819D02*
X148579524Y-70342438D01*
X148579524Y-70342438D02*
X148531905Y-70390057D01*
X148531905Y-70390057D02*
X148484286Y-70485295D01*
X148484286Y-70485295D02*
X148484286Y-70723390D01*
X148484286Y-70723390D02*
X148531905Y-70818628D01*
X148531905Y-70818628D02*
X148579524Y-70866247D01*
X148579524Y-70866247D02*
X148674762Y-70913866D01*
X148674762Y-70913866D02*
X148865238Y-70913866D01*
X148865238Y-70913866D02*
X148960476Y-70866247D01*
X148960476Y-70866247D02*
X149008095Y-70818628D01*
X149008095Y-70818628D02*
X149055714Y-70723390D01*
X154891905Y-64644819D02*
X154891905Y-63644819D01*
X154891905Y-63644819D02*
X155130000Y-63644819D01*
X155130000Y-63644819D02*
X155272857Y-63692438D01*
X155272857Y-63692438D02*
X155368095Y-63787676D01*
X155368095Y-63787676D02*
X155415714Y-63882914D01*
X155415714Y-63882914D02*
X155463333Y-64073390D01*
X155463333Y-64073390D02*
X155463333Y-64216247D01*
X155463333Y-64216247D02*
X155415714Y-64406723D01*
X155415714Y-64406723D02*
X155368095Y-64501961D01*
X155368095Y-64501961D02*
X155272857Y-64597200D01*
X155272857Y-64597200D02*
X155130000Y-64644819D01*
X155130000Y-64644819D02*
X154891905Y-64644819D01*
X156034762Y-64073390D02*
X155939524Y-64025771D01*
X155939524Y-64025771D02*
X155891905Y-63978152D01*
X155891905Y-63978152D02*
X155844286Y-63882914D01*
X155844286Y-63882914D02*
X155844286Y-63835295D01*
X155844286Y-63835295D02*
X155891905Y-63740057D01*
X155891905Y-63740057D02*
X155939524Y-63692438D01*
X155939524Y-63692438D02*
X156034762Y-63644819D01*
X156034762Y-63644819D02*
X156225238Y-63644819D01*
X156225238Y-63644819D02*
X156320476Y-63692438D01*
X156320476Y-63692438D02*
X156368095Y-63740057D01*
X156368095Y-63740057D02*
X156415714Y-63835295D01*
X156415714Y-63835295D02*
X156415714Y-63882914D01*
X156415714Y-63882914D02*
X156368095Y-63978152D01*
X156368095Y-63978152D02*
X156320476Y-64025771D01*
X156320476Y-64025771D02*
X156225238Y-64073390D01*
X156225238Y-64073390D02*
X156034762Y-64073390D01*
X156034762Y-64073390D02*
X155939524Y-64121009D01*
X155939524Y-64121009D02*
X155891905Y-64168628D01*
X155891905Y-64168628D02*
X155844286Y-64263866D01*
X155844286Y-64263866D02*
X155844286Y-64454342D01*
X155844286Y-64454342D02*
X155891905Y-64549580D01*
X155891905Y-64549580D02*
X155939524Y-64597200D01*
X155939524Y-64597200D02*
X156034762Y-64644819D01*
X156034762Y-64644819D02*
X156225238Y-64644819D01*
X156225238Y-64644819D02*
X156320476Y-64597200D01*
X156320476Y-64597200D02*
X156368095Y-64549580D01*
X156368095Y-64549580D02*
X156415714Y-64454342D01*
X156415714Y-64454342D02*
X156415714Y-64263866D01*
X156415714Y-64263866D02*
X156368095Y-64168628D01*
X156368095Y-64168628D02*
X156320476Y-64121009D01*
X156320476Y-64121009D02*
X156225238Y-64073390D01*
X148811905Y-67784819D02*
X148811905Y-66784819D01*
X148811905Y-66784819D02*
X149050000Y-66784819D01*
X149050000Y-66784819D02*
X149192857Y-66832438D01*
X149192857Y-66832438D02*
X149288095Y-66927676D01*
X149288095Y-66927676D02*
X149335714Y-67022914D01*
X149335714Y-67022914D02*
X149383333Y-67213390D01*
X149383333Y-67213390D02*
X149383333Y-67356247D01*
X149383333Y-67356247D02*
X149335714Y-67546723D01*
X149335714Y-67546723D02*
X149288095Y-67641961D01*
X149288095Y-67641961D02*
X149192857Y-67737200D01*
X149192857Y-67737200D02*
X149050000Y-67784819D01*
X149050000Y-67784819D02*
X148811905Y-67784819D01*
X149716667Y-66784819D02*
X150383333Y-66784819D01*
X150383333Y-66784819D02*
X149954762Y-67784819D01*
X147461905Y-74454819D02*
X147461905Y-73454819D01*
X147461905Y-73454819D02*
X147700000Y-73454819D01*
X147700000Y-73454819D02*
X147842857Y-73502438D01*
X147842857Y-73502438D02*
X147938095Y-73597676D01*
X147938095Y-73597676D02*
X147985714Y-73692914D01*
X147985714Y-73692914D02*
X148033333Y-73883390D01*
X148033333Y-73883390D02*
X148033333Y-74026247D01*
X148033333Y-74026247D02*
X147985714Y-74216723D01*
X147985714Y-74216723D02*
X147938095Y-74311961D01*
X147938095Y-74311961D02*
X147842857Y-74407200D01*
X147842857Y-74407200D02*
X147700000Y-74454819D01*
X147700000Y-74454819D02*
X147461905Y-74454819D01*
X148890476Y-73454819D02*
X148700000Y-73454819D01*
X148700000Y-73454819D02*
X148604762Y-73502438D01*
X148604762Y-73502438D02*
X148557143Y-73550057D01*
X148557143Y-73550057D02*
X148461905Y-73692914D01*
X148461905Y-73692914D02*
X148414286Y-73883390D01*
X148414286Y-73883390D02*
X148414286Y-74264342D01*
X148414286Y-74264342D02*
X148461905Y-74359580D01*
X148461905Y-74359580D02*
X148509524Y-74407200D01*
X148509524Y-74407200D02*
X148604762Y-74454819D01*
X148604762Y-74454819D02*
X148795238Y-74454819D01*
X148795238Y-74454819D02*
X148890476Y-74407200D01*
X148890476Y-74407200D02*
X148938095Y-74359580D01*
X148938095Y-74359580D02*
X148985714Y-74264342D01*
X148985714Y-74264342D02*
X148985714Y-74026247D01*
X148985714Y-74026247D02*
X148938095Y-73931009D01*
X148938095Y-73931009D02*
X148890476Y-73883390D01*
X148890476Y-73883390D02*
X148795238Y-73835771D01*
X148795238Y-73835771D02*
X148604762Y-73835771D01*
X148604762Y-73835771D02*
X148509524Y-73883390D01*
X148509524Y-73883390D02*
X148461905Y-73931009D01*
X148461905Y-73931009D02*
X148414286Y-74026247D01*
X147991905Y-79324819D02*
X147991905Y-78324819D01*
X147991905Y-78324819D02*
X148230000Y-78324819D01*
X148230000Y-78324819D02*
X148372857Y-78372438D01*
X148372857Y-78372438D02*
X148468095Y-78467676D01*
X148468095Y-78467676D02*
X148515714Y-78562914D01*
X148515714Y-78562914D02*
X148563333Y-78753390D01*
X148563333Y-78753390D02*
X148563333Y-78896247D01*
X148563333Y-78896247D02*
X148515714Y-79086723D01*
X148515714Y-79086723D02*
X148468095Y-79181961D01*
X148468095Y-79181961D02*
X148372857Y-79277200D01*
X148372857Y-79277200D02*
X148230000Y-79324819D01*
X148230000Y-79324819D02*
X147991905Y-79324819D01*
X149468095Y-78324819D02*
X148991905Y-78324819D01*
X148991905Y-78324819D02*
X148944286Y-78801009D01*
X148944286Y-78801009D02*
X148991905Y-78753390D01*
X148991905Y-78753390D02*
X149087143Y-78705771D01*
X149087143Y-78705771D02*
X149325238Y-78705771D01*
X149325238Y-78705771D02*
X149420476Y-78753390D01*
X149420476Y-78753390D02*
X149468095Y-78801009D01*
X149468095Y-78801009D02*
X149515714Y-78896247D01*
X149515714Y-78896247D02*
X149515714Y-79134342D01*
X149515714Y-79134342D02*
X149468095Y-79229580D01*
X149468095Y-79229580D02*
X149420476Y-79277200D01*
X149420476Y-79277200D02*
X149325238Y-79324819D01*
X149325238Y-79324819D02*
X149087143Y-79324819D01*
X149087143Y-79324819D02*
X148991905Y-79277200D01*
X148991905Y-79277200D02*
X148944286Y-79229580D01*
X170091905Y-88054819D02*
X170091905Y-87054819D01*
X170091905Y-87054819D02*
X170330000Y-87054819D01*
X170330000Y-87054819D02*
X170472857Y-87102438D01*
X170472857Y-87102438D02*
X170568095Y-87197676D01*
X170568095Y-87197676D02*
X170615714Y-87292914D01*
X170615714Y-87292914D02*
X170663333Y-87483390D01*
X170663333Y-87483390D02*
X170663333Y-87626247D01*
X170663333Y-87626247D02*
X170615714Y-87816723D01*
X170615714Y-87816723D02*
X170568095Y-87911961D01*
X170568095Y-87911961D02*
X170472857Y-88007200D01*
X170472857Y-88007200D02*
X170330000Y-88054819D01*
X170330000Y-88054819D02*
X170091905Y-88054819D01*
X171520476Y-87388152D02*
X171520476Y-88054819D01*
X171282381Y-87007200D02*
X171044286Y-87721485D01*
X171044286Y-87721485D02*
X171663333Y-87721485D01*
X166331905Y-67104819D02*
X166331905Y-66104819D01*
X166331905Y-66104819D02*
X166570000Y-66104819D01*
X166570000Y-66104819D02*
X166712857Y-66152438D01*
X166712857Y-66152438D02*
X166808095Y-66247676D01*
X166808095Y-66247676D02*
X166855714Y-66342914D01*
X166855714Y-66342914D02*
X166903333Y-66533390D01*
X166903333Y-66533390D02*
X166903333Y-66676247D01*
X166903333Y-66676247D02*
X166855714Y-66866723D01*
X166855714Y-66866723D02*
X166808095Y-66961961D01*
X166808095Y-66961961D02*
X166712857Y-67057200D01*
X166712857Y-67057200D02*
X166570000Y-67104819D01*
X166570000Y-67104819D02*
X166331905Y-67104819D01*
X167236667Y-66104819D02*
X167855714Y-66104819D01*
X167855714Y-66104819D02*
X167522381Y-66485771D01*
X167522381Y-66485771D02*
X167665238Y-66485771D01*
X167665238Y-66485771D02*
X167760476Y-66533390D01*
X167760476Y-66533390D02*
X167808095Y-66581009D01*
X167808095Y-66581009D02*
X167855714Y-66676247D01*
X167855714Y-66676247D02*
X167855714Y-66914342D01*
X167855714Y-66914342D02*
X167808095Y-67009580D01*
X167808095Y-67009580D02*
X167760476Y-67057200D01*
X167760476Y-67057200D02*
X167665238Y-67104819D01*
X167665238Y-67104819D02*
X167379524Y-67104819D01*
X167379524Y-67104819D02*
X167284286Y-67057200D01*
X167284286Y-67057200D02*
X167236667Y-67009580D01*
X148421905Y-83874819D02*
X148421905Y-82874819D01*
X148421905Y-82874819D02*
X148660000Y-82874819D01*
X148660000Y-82874819D02*
X148802857Y-82922438D01*
X148802857Y-82922438D02*
X148898095Y-83017676D01*
X148898095Y-83017676D02*
X148945714Y-83112914D01*
X148945714Y-83112914D02*
X148993333Y-83303390D01*
X148993333Y-83303390D02*
X148993333Y-83446247D01*
X148993333Y-83446247D02*
X148945714Y-83636723D01*
X148945714Y-83636723D02*
X148898095Y-83731961D01*
X148898095Y-83731961D02*
X148802857Y-83827200D01*
X148802857Y-83827200D02*
X148660000Y-83874819D01*
X148660000Y-83874819D02*
X148421905Y-83874819D01*
X149374286Y-82970057D02*
X149421905Y-82922438D01*
X149421905Y-82922438D02*
X149517143Y-82874819D01*
X149517143Y-82874819D02*
X149755238Y-82874819D01*
X149755238Y-82874819D02*
X149850476Y-82922438D01*
X149850476Y-82922438D02*
X149898095Y-82970057D01*
X149898095Y-82970057D02*
X149945714Y-83065295D01*
X149945714Y-83065295D02*
X149945714Y-83160533D01*
X149945714Y-83160533D02*
X149898095Y-83303390D01*
X149898095Y-83303390D02*
X149326667Y-83874819D01*
X149326667Y-83874819D02*
X149945714Y-83874819D01*
X152741905Y-88214819D02*
X152741905Y-87214819D01*
X152741905Y-87214819D02*
X152980000Y-87214819D01*
X152980000Y-87214819D02*
X153122857Y-87262438D01*
X153122857Y-87262438D02*
X153218095Y-87357676D01*
X153218095Y-87357676D02*
X153265714Y-87452914D01*
X153265714Y-87452914D02*
X153313333Y-87643390D01*
X153313333Y-87643390D02*
X153313333Y-87786247D01*
X153313333Y-87786247D02*
X153265714Y-87976723D01*
X153265714Y-87976723D02*
X153218095Y-88071961D01*
X153218095Y-88071961D02*
X153122857Y-88167200D01*
X153122857Y-88167200D02*
X152980000Y-88214819D01*
X152980000Y-88214819D02*
X152741905Y-88214819D01*
X154265714Y-88214819D02*
X153694286Y-88214819D01*
X153980000Y-88214819D02*
X153980000Y-87214819D01*
X153980000Y-87214819D02*
X153884762Y-87357676D01*
X153884762Y-87357676D02*
X153789524Y-87452914D01*
X153789524Y-87452914D02*
X153694286Y-87500533D01*
X146730833Y-103459580D02*
X146683214Y-103507200D01*
X146683214Y-103507200D02*
X146540357Y-103554819D01*
X146540357Y-103554819D02*
X146445119Y-103554819D01*
X146445119Y-103554819D02*
X146302262Y-103507200D01*
X146302262Y-103507200D02*
X146207024Y-103411961D01*
X146207024Y-103411961D02*
X146159405Y-103316723D01*
X146159405Y-103316723D02*
X146111786Y-103126247D01*
X146111786Y-103126247D02*
X146111786Y-102983390D01*
X146111786Y-102983390D02*
X146159405Y-102792914D01*
X146159405Y-102792914D02*
X146207024Y-102697676D01*
X146207024Y-102697676D02*
X146302262Y-102602438D01*
X146302262Y-102602438D02*
X146445119Y-102554819D01*
X146445119Y-102554819D02*
X146540357Y-102554819D01*
X146540357Y-102554819D02*
X146683214Y-102602438D01*
X146683214Y-102602438D02*
X146730833Y-102650057D01*
X147587976Y-102888152D02*
X147587976Y-103554819D01*
X147349881Y-102507200D02*
X147111786Y-103221485D01*
X147111786Y-103221485D02*
X147730833Y-103221485D01*
X172023333Y-80459580D02*
X171975714Y-80507200D01*
X171975714Y-80507200D02*
X171832857Y-80554819D01*
X171832857Y-80554819D02*
X171737619Y-80554819D01*
X171737619Y-80554819D02*
X171594762Y-80507200D01*
X171594762Y-80507200D02*
X171499524Y-80411961D01*
X171499524Y-80411961D02*
X171451905Y-80316723D01*
X171451905Y-80316723D02*
X171404286Y-80126247D01*
X171404286Y-80126247D02*
X171404286Y-79983390D01*
X171404286Y-79983390D02*
X171451905Y-79792914D01*
X171451905Y-79792914D02*
X171499524Y-79697676D01*
X171499524Y-79697676D02*
X171594762Y-79602438D01*
X171594762Y-79602438D02*
X171737619Y-79554819D01*
X171737619Y-79554819D02*
X171832857Y-79554819D01*
X171832857Y-79554819D02*
X171975714Y-79602438D01*
X171975714Y-79602438D02*
X172023333Y-79650057D01*
X172356667Y-79554819D02*
X172975714Y-79554819D01*
X172975714Y-79554819D02*
X172642381Y-79935771D01*
X172642381Y-79935771D02*
X172785238Y-79935771D01*
X172785238Y-79935771D02*
X172880476Y-79983390D01*
X172880476Y-79983390D02*
X172928095Y-80031009D01*
X172928095Y-80031009D02*
X172975714Y-80126247D01*
X172975714Y-80126247D02*
X172975714Y-80364342D01*
X172975714Y-80364342D02*
X172928095Y-80459580D01*
X172928095Y-80459580D02*
X172880476Y-80507200D01*
X172880476Y-80507200D02*
X172785238Y-80554819D01*
X172785238Y-80554819D02*
X172499524Y-80554819D01*
X172499524Y-80554819D02*
X172404286Y-80507200D01*
X172404286Y-80507200D02*
X172356667Y-80459580D01*
X167273333Y-91569580D02*
X167225714Y-91617200D01*
X167225714Y-91617200D02*
X167082857Y-91664819D01*
X167082857Y-91664819D02*
X166987619Y-91664819D01*
X166987619Y-91664819D02*
X166844762Y-91617200D01*
X166844762Y-91617200D02*
X166749524Y-91521961D01*
X166749524Y-91521961D02*
X166701905Y-91426723D01*
X166701905Y-91426723D02*
X166654286Y-91236247D01*
X166654286Y-91236247D02*
X166654286Y-91093390D01*
X166654286Y-91093390D02*
X166701905Y-90902914D01*
X166701905Y-90902914D02*
X166749524Y-90807676D01*
X166749524Y-90807676D02*
X166844762Y-90712438D01*
X166844762Y-90712438D02*
X166987619Y-90664819D01*
X166987619Y-90664819D02*
X167082857Y-90664819D01*
X167082857Y-90664819D02*
X167225714Y-90712438D01*
X167225714Y-90712438D02*
X167273333Y-90760057D01*
X167654286Y-90760057D02*
X167701905Y-90712438D01*
X167701905Y-90712438D02*
X167797143Y-90664819D01*
X167797143Y-90664819D02*
X168035238Y-90664819D01*
X168035238Y-90664819D02*
X168130476Y-90712438D01*
X168130476Y-90712438D02*
X168178095Y-90760057D01*
X168178095Y-90760057D02*
X168225714Y-90855295D01*
X168225714Y-90855295D02*
X168225714Y-90950533D01*
X168225714Y-90950533D02*
X168178095Y-91093390D01*
X168178095Y-91093390D02*
X167606667Y-91664819D01*
X167606667Y-91664819D02*
X168225714Y-91664819D01*
X155293333Y-90819580D02*
X155245714Y-90867200D01*
X155245714Y-90867200D02*
X155102857Y-90914819D01*
X155102857Y-90914819D02*
X155007619Y-90914819D01*
X155007619Y-90914819D02*
X154864762Y-90867200D01*
X154864762Y-90867200D02*
X154769524Y-90771961D01*
X154769524Y-90771961D02*
X154721905Y-90676723D01*
X154721905Y-90676723D02*
X154674286Y-90486247D01*
X154674286Y-90486247D02*
X154674286Y-90343390D01*
X154674286Y-90343390D02*
X154721905Y-90152914D01*
X154721905Y-90152914D02*
X154769524Y-90057676D01*
X154769524Y-90057676D02*
X154864762Y-89962438D01*
X154864762Y-89962438D02*
X155007619Y-89914819D01*
X155007619Y-89914819D02*
X155102857Y-89914819D01*
X155102857Y-89914819D02*
X155245714Y-89962438D01*
X155245714Y-89962438D02*
X155293333Y-90010057D01*
X156245714Y-90914819D02*
X155674286Y-90914819D01*
X155960000Y-90914819D02*
X155960000Y-89914819D01*
X155960000Y-89914819D02*
X155864762Y-90057676D01*
X155864762Y-90057676D02*
X155769524Y-90152914D01*
X155769524Y-90152914D02*
X155674286Y-90200533D01*
D11*
%TO.C,U1*%
X160700000Y-92952500D02*
X158750000Y-92952500D01*
X160700000Y-92952500D02*
X162650000Y-92952500D01*
X160700000Y-101822500D02*
X158750000Y-101822500D01*
X160700000Y-101822500D02*
X162650000Y-101822500D01*
X158000000Y-93017500D02*
X157760000Y-92687500D01*
X158240000Y-92687500D01*
X158000000Y-93017500D01*
G36*
X158000000Y-93017500D02*
G01*
X157760000Y-92687500D01*
X158240000Y-92687500D01*
X158000000Y-93017500D01*
G37*
%TO.C,SW1*%
X153230000Y-74750000D02*
X153830000Y-74750000D01*
X153530000Y-75050000D02*
X153230000Y-74750000D01*
X153830000Y-74750000D02*
X153530000Y-75050000D01*
X154930000Y-72950000D02*
X154930000Y-84750000D01*
X159030000Y-72950000D02*
X154930000Y-72950000D01*
X159030000Y-84750000D02*
X154930000Y-84750000D01*
X160530000Y-78850000D02*
X161530000Y-78850000D01*
X161030000Y-78350000D02*
X161030000Y-79350000D01*
X163030000Y-72950000D02*
X167130000Y-72950000D01*
X167130000Y-72950000D02*
X167130000Y-75350000D01*
X167130000Y-77550000D02*
X167130000Y-80150000D01*
X167130000Y-82350000D02*
X167130000Y-84750000D01*
X167130000Y-84750000D02*
X163030000Y-84750000D01*
X164030000Y-78850000D02*
G75*
G02*
X158030000Y-78850000I-3000000J0D01*
G01*
X158030000Y-78850000D02*
G75*
G02*
X164030000Y-78850000I3000000J0D01*
G01*
%TO.C,R13*%
X161047742Y-90127500D02*
X161522258Y-90127500D01*
X161047742Y-91172500D02*
X161522258Y-91172500D01*
%TO.C,R12*%
X160902742Y-87067500D02*
X161377258Y-87067500D01*
X160902742Y-88112500D02*
X161377258Y-88112500D01*
%TO.C,R11*%
X166872742Y-87047500D02*
X167347258Y-87047500D01*
X166872742Y-88092500D02*
X167347258Y-88092500D01*
%TO.C,R10*%
X161002742Y-88557500D02*
X161477258Y-88557500D01*
X161002742Y-89602500D02*
X161477258Y-89602500D01*
%TO.C,R8*%
X142582742Y-82137500D02*
X143057258Y-82137500D01*
X142582742Y-83182500D02*
X143057258Y-83182500D01*
%TO.C,R7*%
X164912742Y-90387500D02*
X165387258Y-90387500D01*
X164912742Y-91432500D02*
X165387258Y-91432500D01*
%TO.C,R6*%
X160282742Y-104827500D02*
X160757258Y-104827500D01*
X160282742Y-105872500D02*
X160757258Y-105872500D01*
%TO.C,R5*%
X160352742Y-102917500D02*
X160827258Y-102917500D01*
X160352742Y-103962500D02*
X160827258Y-103962500D01*
%TO.C,R4*%
X160322742Y-108697500D02*
X160797258Y-108697500D01*
X160322742Y-109742500D02*
X160797258Y-109742500D01*
%TO.C,R3*%
X160282742Y-106837500D02*
X160757258Y-106837500D01*
X160282742Y-107882500D02*
X160757258Y-107882500D01*
%TO.C,R2*%
X164672742Y-88627500D02*
X165147258Y-88627500D01*
X164672742Y-89672500D02*
X165147258Y-89672500D01*
%TO.C,R1*%
X157932742Y-87037500D02*
X158407258Y-87037500D01*
X157932742Y-88082500D02*
X158407258Y-88082500D01*
D10*
%TO.C,Q2*%
X141200000Y-79960000D02*
X141200000Y-75470000D01*
X143200000Y-74460000D02*
X144200000Y-74460000D01*
X144200000Y-79960000D02*
X144200000Y-74460000D01*
D11*
X141230000Y-75020000D02*
X140950000Y-75020000D01*
X141230000Y-74740000D01*
X141230000Y-75020000D01*
G36*
X141230000Y-75020000D02*
G01*
X140950000Y-75020000D01*
X141230000Y-74740000D01*
X141230000Y-75020000D01*
G37*
D10*
%TO.C,Q1*%
X182190000Y-79670000D02*
X182190000Y-75180000D01*
X184190000Y-74170000D02*
X185190000Y-74170000D01*
X185190000Y-79670000D02*
X185190000Y-74170000D01*
D11*
X182220000Y-74730000D02*
X181940000Y-74730000D01*
X182220000Y-74450000D01*
X182220000Y-74730000D01*
G36*
X182220000Y-74730000D02*
G01*
X181940000Y-74730000D01*
X182220000Y-74450000D01*
X182220000Y-74730000D01*
G37*
%TO.C,D12*%
X172675000Y-77855000D02*
X172675000Y-79325000D01*
X172675000Y-79325000D02*
X174960000Y-79325000D01*
X174960000Y-77855000D02*
X172675000Y-77855000D01*
%TO.C,D11*%
X171625000Y-84015000D02*
X171625000Y-85485000D01*
X171625000Y-85485000D02*
X173910000Y-85485000D01*
X173910000Y-84015000D02*
X171625000Y-84015000D01*
%TO.C,D10*%
X156165000Y-89285000D02*
X156165000Y-90755000D01*
X156165000Y-90755000D02*
X158450000Y-90755000D01*
X158450000Y-89285000D02*
X156165000Y-89285000D01*
%TO.C,D9*%
X146785000Y-71535000D02*
X146785000Y-73005000D01*
X146785000Y-73005000D02*
X149070000Y-73005000D01*
X149070000Y-71535000D02*
X146785000Y-71535000D01*
%TO.C,D8*%
X154145000Y-64885000D02*
X154145000Y-66355000D01*
X154145000Y-66355000D02*
X156430000Y-66355000D01*
X156430000Y-64885000D02*
X154145000Y-64885000D01*
%TO.C,D7*%
X148065000Y-68025000D02*
X148065000Y-69495000D01*
X148065000Y-69495000D02*
X150350000Y-69495000D01*
X150350000Y-68025000D02*
X148065000Y-68025000D01*
%TO.C,D6*%
X146715000Y-74695000D02*
X146715000Y-76165000D01*
X146715000Y-76165000D02*
X149000000Y-76165000D01*
X149000000Y-74695000D02*
X146715000Y-74695000D01*
%TO.C,D5*%
X147245000Y-79565000D02*
X147245000Y-81035000D01*
X147245000Y-81035000D02*
X149530000Y-81035000D01*
X149530000Y-79565000D02*
X147245000Y-79565000D01*
%TO.C,D4*%
X169345000Y-88295000D02*
X169345000Y-89765000D01*
X169345000Y-89765000D02*
X171630000Y-89765000D01*
X171630000Y-88295000D02*
X169345000Y-88295000D01*
%TO.C,D3*%
X165585000Y-67345000D02*
X165585000Y-68815000D01*
X165585000Y-68815000D02*
X167870000Y-68815000D01*
X167870000Y-67345000D02*
X165585000Y-67345000D01*
%TO.C,D2*%
X147675000Y-84115000D02*
X147675000Y-85585000D01*
X147675000Y-85585000D02*
X149960000Y-85585000D01*
X149960000Y-84115000D02*
X147675000Y-84115000D01*
%TO.C,D1*%
X151995000Y-88455000D02*
X151995000Y-89925000D01*
X151995000Y-89925000D02*
X154280000Y-89925000D01*
X154280000Y-88455000D02*
X151995000Y-88455000D01*
%TO.C,C4*%
X146751233Y-104020000D02*
X147043767Y-104020000D01*
X146751233Y-105040000D02*
X147043767Y-105040000D01*
%TO.C,C3*%
X172043733Y-81020000D02*
X172336267Y-81020000D01*
X172043733Y-82040000D02*
X172336267Y-82040000D01*
%TO.C,C2*%
X167293733Y-92130000D02*
X167586267Y-92130000D01*
X167293733Y-93150000D02*
X167586267Y-93150000D01*
%TO.C,C1*%
X155313733Y-91380000D02*
X155606267Y-91380000D01*
X155313733Y-92400000D02*
X155606267Y-92400000D01*
%TD*%
M02*
