%TF.GenerationSoftware,KiCad,Pcbnew,8.0.8*%
%TF.CreationDate,2025-01-22T11:30:49-06:00*%
%TF.ProjectId,B-Sides 2025,422d5369-6465-4732-9032-3032352e6b69,rev?*%
%TF.SameCoordinates,Original*%
%TF.FileFunction,Legend,Bot*%
%TF.FilePolarity,Positive*%
%FSLAX46Y46*%
G04 Gerber Fmt 4.6, Leading zero omitted, Abs format (unit mm)*
G04 Created by KiCad (PCBNEW 8.0.8) date 2025-01-22 11:30:49*
%MOMM*%
%LPD*%
G01*
G04 APERTURE LIST*
%ADD10C,0.150000*%
%ADD11C,0.120000*%
G04 APERTURE END LIST*
D10*
X160735714Y-72601009D02*
X160592857Y-72648628D01*
X160592857Y-72648628D02*
X160545238Y-72696247D01*
X160545238Y-72696247D02*
X160497619Y-72791485D01*
X160497619Y-72791485D02*
X160497619Y-72934342D01*
X160497619Y-72934342D02*
X160545238Y-73029580D01*
X160545238Y-73029580D02*
X160592857Y-73077200D01*
X160592857Y-73077200D02*
X160688095Y-73124819D01*
X160688095Y-73124819D02*
X161069047Y-73124819D01*
X161069047Y-73124819D02*
X161069047Y-72124819D01*
X161069047Y-72124819D02*
X160735714Y-72124819D01*
X160735714Y-72124819D02*
X160640476Y-72172438D01*
X160640476Y-72172438D02*
X160592857Y-72220057D01*
X160592857Y-72220057D02*
X160545238Y-72315295D01*
X160545238Y-72315295D02*
X160545238Y-72410533D01*
X160545238Y-72410533D02*
X160592857Y-72505771D01*
X160592857Y-72505771D02*
X160640476Y-72553390D01*
X160640476Y-72553390D02*
X160735714Y-72601009D01*
X160735714Y-72601009D02*
X161069047Y-72601009D01*
X160211904Y-72124819D02*
X159640476Y-72124819D01*
X159926190Y-73124819D02*
X159926190Y-72124819D01*
X158783333Y-73124819D02*
X159354761Y-73124819D01*
X159069047Y-73124819D02*
X159069047Y-72124819D01*
X159069047Y-72124819D02*
X159164285Y-72267676D01*
X159164285Y-72267676D02*
X159259523Y-72362914D01*
X159259523Y-72362914D02*
X159354761Y-72410533D01*
D11*
%TO.C,BT1*%
X172800000Y-83970000D02*
X172800000Y-80670000D01*
X172800000Y-94370000D02*
X172800000Y-90170000D01*
X163900000Y-74820000D02*
X163900000Y-74020000D01*
X156000000Y-74020000D02*
X163900000Y-74020000D01*
X172800000Y-80670000D02*
X163900000Y-74820000D01*
X156000000Y-74820000D02*
X156000000Y-74020000D01*
X147100000Y-80670000D02*
X156000000Y-74820000D01*
X147100000Y-83970000D02*
X147100000Y-80670000D01*
X147100000Y-94370000D02*
X147100000Y-90170000D01*
X172800000Y-94320000D02*
G75*
G02*
X170100000Y-97020000I-2700001J1D01*
G01*
X170100000Y-97020000D02*
G75*
G02*
X169428249Y-96741751I2J950003D01*
G01*
X150471751Y-96741751D02*
G75*
G02*
X149800000Y-97019999I-671751J671751D01*
G01*
X149800000Y-97020000D02*
G75*
G02*
X147100000Y-94320000I0J2700000D01*
G01*
%TD*%
M02*
