%TF.GenerationSoftware,KiCad,Pcbnew,9.0.4*%
%TF.CreationDate,2025-10-13T15:08:01-05:00*%
%TF.ProjectId,tplane2025,74706c61-6e65-4323-9032-352e6b696361,rev?*%
%TF.SameCoordinates,Original*%
%TF.FileFunction,Legend,Top*%
%TF.FilePolarity,Positive*%
%FSLAX46Y46*%
G04 Gerber Fmt 4.6, Leading zero omitted, Abs format (unit mm)*
G04 Created by KiCad (PCBNEW 9.0.4) date 2025-10-13 15:08:01*
%MOMM*%
%LPD*%
G01*
G04 APERTURE LIST*
%ADD10C,0.100000*%
%ADD11C,0.010000*%
%ADD12C,1.000000*%
%ADD13C,0.000000*%
G04 APERTURE END LIST*
D10*
X146131810Y-96180586D02*
X146386273Y-96098752D01*
X146396725Y-96295078D02*
X146131810Y-96180586D01*
X146074759Y-96295078D02*
X146396725Y-96295078D01*
X146627973Y-96458035D02*
X146074759Y-96295078D01*
X146038698Y-96367444D02*
X146627973Y-96458035D01*
X146789498Y-95574322D02*
X146387580Y-95667307D01*
X146460000Y-95520000D02*
X146789498Y-95574322D01*
X141908988Y-95597743D02*
X142091897Y-95681358D01*
X142081382Y-95755834D02*
X141908988Y-95597743D01*
X141503978Y-95681358D02*
X142081382Y-95755834D01*
X142070000Y-95830000D02*
X141503978Y-95681358D01*
X141767858Y-94827956D02*
X142181809Y-95044619D01*
X142190000Y-94950000D02*
X141767858Y-94827956D01*
X146230443Y-60687786D02*
X146391811Y-60780210D01*
X146348293Y-60864615D02*
X146230443Y-60687786D01*
X146154800Y-60686987D02*
X146348293Y-60864615D01*
X146302895Y-60952667D02*
X146154800Y-60686987D01*
X146023108Y-60685596D02*
X146302895Y-60952667D01*
X146257249Y-61041202D02*
X146023108Y-60685596D01*
X145756394Y-60682779D02*
X146257249Y-61041202D01*
X146440000Y-60690000D02*
X145756394Y-60682779D01*
X145980000Y-61570000D02*
X145675252Y-61581519D01*
X157320874Y-64650000D02*
X157414174Y-64558106D01*
X157596429Y-64925555D02*
X157320874Y-64650000D01*
X157280000Y-64680000D02*
X157596429Y-64925555D01*
X157580000Y-64140494D02*
X157731245Y-64029376D01*
X157590000Y-64190658D02*
X157872489Y-64090329D01*
X157600000Y-64190658D02*
X157590000Y-64190658D01*
X158104978Y-64190658D02*
X157640000Y-64190658D01*
X157640000Y-63990000D02*
X158104978Y-64190658D01*
X157680000Y-63910000D02*
X158104978Y-64190658D01*
D11*
X157760839Y-64496527D02*
X157748775Y-64487554D01*
X157736139Y-64478252D01*
X157722822Y-64468547D01*
X157708678Y-64458334D01*
X157693488Y-64447461D01*
X157676899Y-64435681D01*
X157658280Y-64422551D01*
X157636232Y-64407091D01*
X157611185Y-64389589D01*
X157585606Y-64371714D01*
X157572827Y-64362762D01*
X157560061Y-64353793D01*
X157547313Y-64344800D01*
X157534587Y-64335778D01*
X157521886Y-64326721D01*
X157509217Y-64317623D01*
D12*
X158422117Y-65016310D02*
X158392957Y-64992296D01*
X158362659Y-64967446D01*
X158331172Y-64941721D01*
X158298434Y-64915075D01*
X158264365Y-64887446D01*
X158228855Y-64858747D01*
X158191747Y-64828856D01*
X158152797Y-64797578D01*
X158111587Y-64764581D01*
X158067305Y-64729218D01*
X158017994Y-64689927D01*
X157972480Y-64653712D01*
X157922017Y-64613552D01*
X157899879Y-64595898D01*
X157880000Y-64580000D01*
X154100706Y-94656232D02*
X154135042Y-94641666D01*
X154169348Y-94627025D01*
X154203625Y-94612310D01*
X154237871Y-94597520D01*
X154272088Y-94582657D01*
X154306275Y-94567719D01*
X154340431Y-94552707D01*
X154374557Y-94537622D01*
X154408653Y-94522462D01*
X154442718Y-94507228D01*
X154476752Y-94491921D01*
X154510755Y-94476540D01*
X154544728Y-94461085D01*
X154578669Y-94445556D01*
X154612578Y-94429954D01*
X154646457Y-94414278D01*
X154680303Y-94398528D01*
X154714119Y-94382705D01*
X154747902Y-94366809D01*
X154781653Y-94350839D01*
X154815372Y-94334796D01*
X154849059Y-94318680D01*
X154876179Y-94305641D01*
X156364121Y-93497485D02*
X156395967Y-93478088D01*
X156427784Y-93458615D01*
X156459572Y-93439067D01*
X156491330Y-93419442D01*
X156523058Y-93399742D01*
X156554755Y-93379967D01*
X156586422Y-93360117D01*
X156618058Y-93340192D01*
X156649663Y-93320192D01*
X156681236Y-93300117D01*
X156712777Y-93279968D01*
X156744285Y-93259745D01*
X156775761Y-93239448D01*
X156807204Y-93219077D01*
X156838613Y-93198632D01*
X156869989Y-93178114D01*
X156901331Y-93157522D01*
X156932638Y-93136858D01*
X156963910Y-93116120D01*
X156995147Y-93095310D01*
X157026349Y-93074428D01*
X157057515Y-93053473D01*
X157074490Y-93042019D01*
X144399845Y-61285396D02*
X144362922Y-61291078D01*
X144326013Y-61296839D01*
X144289117Y-61302679D01*
X144252236Y-61308597D01*
X144215368Y-61314595D01*
X144178515Y-61320671D01*
X144141676Y-61326825D01*
X144104851Y-61333059D01*
X144068040Y-61339371D01*
X144031244Y-61345762D01*
X143994463Y-61352231D01*
X143957696Y-61358779D01*
X143920944Y-61365406D01*
X143884207Y-61372111D01*
X143847485Y-61378895D01*
X143810778Y-61385757D01*
X143774086Y-61392698D01*
X143737409Y-61399717D01*
X143700747Y-61406815D01*
X143664101Y-61413991D01*
X143627471Y-61421246D01*
X143590856Y-61428579D01*
X143554257Y-61435991D01*
X143537741Y-61439362D01*
D10*
X152668809Y-73732374D02*
X152667604Y-73730361D01*
X152666416Y-73728338D01*
X152665246Y-73726305D01*
X152664093Y-73724263D01*
X152662958Y-73722211D01*
X152661841Y-73720150D01*
X152660742Y-73718080D01*
X152659660Y-73716001D01*
X152658597Y-73713913D01*
X152657551Y-73711817D01*
X152656524Y-73709712D01*
X152655515Y-73707599D01*
X152654525Y-73705479D01*
X152653553Y-73703350D01*
X152652600Y-73701215D01*
X152651665Y-73699071D01*
X152650749Y-73696921D01*
X152649851Y-73694763D01*
X152648973Y-73692599D01*
X152648113Y-73690427D01*
X152647273Y-73688251D01*
X152646451Y-73686066D01*
X152645649Y-73683877D01*
X152644865Y-73681681D01*
X152644101Y-73679480D01*
X152643356Y-73677272D01*
X152642631Y-73675061D01*
X152641925Y-73672843D01*
X152641238Y-73670621D01*
X152640571Y-73668393D01*
X152639923Y-73666162D01*
X152639295Y-73663925D01*
X152638687Y-73661686D01*
X152638098Y-73659440D01*
X152637529Y-73657192D01*
X152636979Y-73654939D01*
X152636450Y-73652684D01*
X152635939Y-73650424D01*
X152635450Y-73648163D01*
X152634979Y-73645896D01*
X152634529Y-73643629D01*
X152634098Y-73641356D01*
X152633688Y-73639084D01*
X152633297Y-73636806D01*
X152632926Y-73634529D01*
X152632575Y-73632248D01*
X152632245Y-73629966D01*
X152631934Y-73627681D01*
X152631643Y-73625396D01*
X152631372Y-73623108D01*
X152631121Y-73620820D01*
X152630890Y-73618529D01*
X152630680Y-73616239D01*
X152630489Y-73613946D01*
X152630318Y-73611655D01*
X152630168Y-73609360D01*
X152629957Y-73605445D01*
X148132398Y-87738403D02*
X148082642Y-87835252D01*
X148032906Y-87932108D01*
X147986739Y-88022061D01*
X147940592Y-88112022D01*
X147897158Y-88196739D01*
X147853743Y-88281464D01*
X147812494Y-88362006D01*
X147771265Y-88442557D01*
X147731825Y-88519658D01*
X147692403Y-88596767D01*
X147654497Y-88670958D01*
X147616609Y-88745157D01*
X147580029Y-88816841D01*
X147543468Y-88888533D01*
X147508052Y-88958024D01*
X147472655Y-89027522D01*
X147438274Y-89095071D01*
X147403913Y-89162627D01*
X147370461Y-89228438D01*
X147337030Y-89294256D01*
X147304421Y-89358498D01*
X147271831Y-89422748D01*
X147239991Y-89485565D01*
X147208170Y-89548389D01*
X147177036Y-89609901D01*
X147145922Y-89671420D01*
X147115440Y-89731733D01*
X147084978Y-89792052D01*
X147055103Y-89851256D01*
X147025246Y-89910466D01*
X146995935Y-89968639D01*
X146966643Y-90026819D01*
X146937861Y-90084032D01*
X146909098Y-90141253D01*
X146880812Y-90197568D01*
X146852546Y-90253890D01*
X146824728Y-90309363D01*
X146796930Y-90364843D01*
X146769555Y-90419523D01*
X146742199Y-90474210D01*
X146715243Y-90528142D01*
X146688306Y-90582081D01*
X146661749Y-90635306D01*
X146635211Y-90688537D01*
X146609033Y-90741092D01*
X146582874Y-90793653D01*
X146562550Y-90834522D01*
D12*
X160245030Y-66754167D02*
X160232380Y-66740263D01*
X160219715Y-66726373D01*
X160207036Y-66712499D01*
X160194344Y-66698638D01*
X160181638Y-66684792D01*
X160168917Y-66670960D01*
X160156184Y-66657143D01*
X160143435Y-66643340D01*
X160130674Y-66629552D01*
X160117898Y-66615778D01*
X160105110Y-66602020D01*
X160092306Y-66588275D01*
X160079490Y-66574546D01*
X160066659Y-66560830D01*
X160053815Y-66547130D01*
X160040957Y-66533443D01*
X160028086Y-66519772D01*
X160015200Y-66506115D01*
X160002302Y-66492473D01*
X159989388Y-66478845D01*
X159976463Y-66465233D01*
X159963522Y-66451634D01*
X159950569Y-66438051D01*
X159937601Y-66424482D01*
X159924621Y-66410928D01*
X159911626Y-66397388D01*
X159898618Y-66383864D01*
X159885596Y-66370354D01*
X159872561Y-66356859D01*
X159859512Y-66343378D01*
X159846450Y-66329913D01*
X159833374Y-66316461D01*
X159820285Y-66303026D01*
X159807182Y-66289604D01*
X159794066Y-66276198D01*
X159780936Y-66262806D01*
X159767793Y-66249429D01*
X159754636Y-66236067D01*
X159741466Y-66222720D01*
X159728282Y-66209387D01*
X159715085Y-66196070D01*
X159701874Y-66182768D01*
X159688651Y-66169480D01*
X159675413Y-66156207D01*
X159665394Y-66146180D01*
D10*
X138085112Y-76970380D02*
X138085390Y-76974968D01*
X138085748Y-76979553D01*
X138086186Y-76984134D01*
X138086704Y-76988711D01*
X138087301Y-76993282D01*
X138087978Y-76997846D01*
X138088735Y-77002401D01*
X138089571Y-77006947D01*
X138090486Y-77011482D01*
X138091480Y-77016004D01*
X138092553Y-77020512D01*
X138093704Y-77025005D01*
X138094933Y-77029481D01*
X138096241Y-77033940D01*
X138097626Y-77038378D01*
X138099088Y-77042796D01*
X138100627Y-77047192D01*
X138102242Y-77051563D01*
X138103933Y-77055909D01*
X138105699Y-77060228D01*
X138107540Y-77064518D01*
X138109455Y-77068778D01*
X138111443Y-77073007D01*
X138113505Y-77077203D01*
X138115638Y-77081364D01*
X138117843Y-77085489D01*
X138120118Y-77089576D01*
X138122464Y-77093625D01*
X138124357Y-77096781D01*
X157707415Y-58966621D02*
X157711354Y-58968987D01*
X157715253Y-58971422D01*
X157719112Y-58973926D01*
X157722929Y-58976498D01*
X157726703Y-58979138D01*
X157730435Y-58981845D01*
X157734121Y-58984618D01*
X157737762Y-58987457D01*
X157741357Y-58990361D01*
X157744904Y-58993330D01*
X157748402Y-58996361D01*
X157751850Y-58999455D01*
X157755248Y-59002611D01*
X157758593Y-59005828D01*
X157761886Y-59009104D01*
X157765124Y-59012440D01*
X157768307Y-59015833D01*
X157771434Y-59019283D01*
X157774504Y-59022789D01*
X157777516Y-59026350D01*
X157780468Y-59029964D01*
X157783359Y-59033631D01*
X157786189Y-59037349D01*
X157788957Y-59041117D01*
X157791661Y-59044933D01*
X157794300Y-59048797D01*
X157796875Y-59052707D01*
X157799383Y-59056661D01*
X157801789Y-59060602D01*
D12*
X142690732Y-61634805D02*
X142672641Y-61639470D01*
X142654558Y-61644153D01*
X142636482Y-61648856D01*
X142618413Y-61653577D01*
X142600351Y-61658317D01*
X142582296Y-61663076D01*
X142564248Y-61667854D01*
X142546207Y-61672650D01*
X142528173Y-61677466D01*
X142510147Y-61682300D01*
X142492128Y-61687153D01*
X142474116Y-61692024D01*
X142456110Y-61696915D01*
X142438113Y-61701824D01*
X142420122Y-61706752D01*
X142402139Y-61711699D01*
X142384162Y-61716665D01*
X142366193Y-61721649D01*
X142348231Y-61726652D01*
X142330277Y-61731674D01*
X142312329Y-61736714D01*
X142294389Y-61741773D01*
X142276456Y-61746852D01*
X142258530Y-61751948D01*
X142240611Y-61757064D01*
X142222700Y-61762198D01*
X142204796Y-61767351D01*
X142186900Y-61772522D01*
X142151128Y-61782922D01*
X142115386Y-61793396D01*
X142079673Y-61803945D01*
X142043989Y-61814569D01*
X142008334Y-61825267D01*
X141972710Y-61836040D01*
X141937114Y-61846888D01*
X141901548Y-61857811D01*
X141866012Y-61868807D01*
X141860001Y-61870676D01*
D10*
X152763184Y-73825829D02*
X152759250Y-73823478D01*
X152755355Y-73821057D01*
X152751498Y-73818567D01*
X152747682Y-73816007D01*
X152743907Y-73813379D01*
X152740174Y-73810683D01*
X152736485Y-73807919D01*
X152732839Y-73805089D01*
X152729240Y-73802194D01*
X152725687Y-73799233D01*
X152722182Y-73796209D01*
X152718726Y-73793121D01*
X152715320Y-73789970D01*
X152711966Y-73786759D01*
X152708663Y-73783486D01*
X152705414Y-73780155D01*
X152702220Y-73776765D01*
X152699082Y-73773317D01*
X152696001Y-73769814D01*
X152692978Y-73766255D01*
X152690014Y-73762643D01*
X152687110Y-73758979D01*
X152684268Y-73755263D01*
X152681489Y-73751497D01*
X152678773Y-73747683D01*
X152676121Y-73743821D01*
X152673535Y-73739914D01*
X152671016Y-73735963D01*
X152668809Y-73732374D01*
X157087614Y-74114728D02*
X157087289Y-74110157D01*
X157086885Y-74105589D01*
X157086401Y-74101025D01*
X157085837Y-74096465D01*
X157085193Y-74091912D01*
X157084470Y-74087365D01*
X157083667Y-74082828D01*
X157082785Y-74078300D01*
X157081823Y-74073783D01*
X157080783Y-74069279D01*
X157079663Y-74064789D01*
X157078466Y-74060313D01*
X157077190Y-74055855D01*
X157075836Y-74051414D01*
X157074404Y-74046993D01*
X157072895Y-74042592D01*
X157071309Y-74038214D01*
X157069647Y-74033860D01*
X157067909Y-74029531D01*
X157066096Y-74025229D01*
X157064208Y-74020956D01*
X157062246Y-74016712D01*
X157060210Y-74012500D01*
X157058101Y-74008320D01*
X157055920Y-74004175D01*
X157053668Y-74000067D01*
X157051345Y-73995995D01*
X157048952Y-73991963D01*
X157047449Y-73989507D01*
D12*
X158422117Y-92034220D02*
X158436633Y-92022227D01*
X158451137Y-92010219D01*
X158465624Y-91998198D01*
X158480098Y-91986163D01*
X158494554Y-91974115D01*
X158508998Y-91962053D01*
X158523425Y-91949978D01*
X158537839Y-91937888D01*
X158552236Y-91925786D01*
X158566620Y-91913670D01*
X158580987Y-91901541D01*
X158595341Y-91889397D01*
X158609677Y-91877242D01*
X158624001Y-91865071D01*
X158638307Y-91852889D01*
X158652600Y-91840692D01*
X158666876Y-91828483D01*
X158681138Y-91816259D01*
X158695383Y-91804024D01*
X158709615Y-91791774D01*
X158723830Y-91779512D01*
X158738031Y-91767235D01*
X158752215Y-91754947D01*
X158766386Y-91742644D01*
X158780539Y-91730330D01*
X158794679Y-91718001D01*
X158808801Y-91705660D01*
X158822910Y-91693305D01*
X158837001Y-91680938D01*
X158851079Y-91668557D01*
X158865139Y-91656165D01*
X158879186Y-91643757D01*
X158893215Y-91631339D01*
X158907230Y-91618906D01*
X158921228Y-91606462D01*
X158935212Y-91594003D01*
X158949179Y-91581534D01*
X158963131Y-91569049D01*
X158977066Y-91556554D01*
X158990987Y-91544044D01*
X159004891Y-91531524D01*
X159018780Y-91518988D01*
X159032652Y-91506442D01*
X159046510Y-91493882D01*
X159057407Y-91483986D01*
D10*
X146525010Y-76129278D02*
X146525712Y-76124628D01*
X146526334Y-76119978D01*
X146526874Y-76115329D01*
X146527335Y-76110682D01*
X146527715Y-76106037D01*
X146528014Y-76101394D01*
X146528234Y-76096755D01*
X146528374Y-76092120D01*
X146528433Y-76087490D01*
X146528413Y-76082864D01*
X146528313Y-76078245D01*
X146528133Y-76073632D01*
X146527874Y-76069027D01*
X146527535Y-76064430D01*
X146527117Y-76059842D01*
X146526620Y-76055263D01*
X146526044Y-76050696D01*
X146525388Y-76046139D01*
X146524654Y-76041595D01*
X146523841Y-76037064D01*
X146522949Y-76032547D01*
X146521979Y-76028045D01*
X146520931Y-76023560D01*
X146519805Y-76019091D01*
X146518601Y-76014641D01*
X146517790Y-76011803D01*
D12*
X164770155Y-79426221D02*
X164771101Y-79407354D01*
X164772028Y-79388481D01*
X164772934Y-79369614D01*
X164773821Y-79350741D01*
X164774687Y-79331873D01*
X164775533Y-79313001D01*
X164776360Y-79294133D01*
X164777166Y-79275260D01*
X164777952Y-79256393D01*
X164778718Y-79237521D01*
X164779464Y-79218654D01*
X164780191Y-79199781D01*
X164780897Y-79180915D01*
X164781583Y-79162043D01*
X164782249Y-79143177D01*
X164782895Y-79124305D01*
X164783521Y-79105440D01*
X164784127Y-79086569D01*
X164784713Y-79067704D01*
X164785279Y-79048834D01*
X164785824Y-79029969D01*
X164786350Y-79011100D01*
X164786856Y-78992236D01*
X164787342Y-78973367D01*
X164787807Y-78954505D01*
X164788253Y-78935637D01*
X164788679Y-78916775D01*
X164789084Y-78897908D01*
X164789470Y-78879048D01*
X164789836Y-78860182D01*
X164790181Y-78841322D01*
X164790507Y-78822458D01*
X164790812Y-78803600D01*
X164791098Y-78784736D01*
X164791363Y-78765879D01*
X164791609Y-78747018D01*
X164791834Y-78728162D01*
X164792039Y-78709301D01*
X164792225Y-78690447D01*
X164792390Y-78671588D01*
X164792535Y-78652736D01*
X164792661Y-78633878D01*
X164792766Y-78615027D01*
X164792851Y-78596172D01*
X164792917Y-78577322D01*
X164792962Y-78558469D01*
X164792993Y-78525265D01*
X145670000Y-61130000D02*
X145675894Y-61129926D01*
X145681263Y-61129879D01*
X145685739Y-61129860D01*
X145689786Y-61129864D01*
X145693107Y-61129886D01*
X145696082Y-61129928D01*
X145698475Y-61129981D01*
X145700592Y-61130049D01*
X145702252Y-61130122D01*
X145703697Y-61130206D01*
X145704791Y-61130291D01*
X145705723Y-61130384D01*
X145706397Y-61130471D01*
X145706952Y-61130564D01*
X145707327Y-61130647D01*
X145707621Y-61130735D01*
X145707798Y-61130808D01*
X145707925Y-61130885D01*
X145707987Y-61130946D01*
X145708020Y-61131009D01*
X145708024Y-61131062D01*
X145708007Y-61131116D01*
X145707905Y-61131234D01*
X145707658Y-61131386D01*
X145707168Y-61131584D01*
X145706306Y-61131839D01*
X145704913Y-61132162D01*
X145702792Y-61132567D01*
X145699713Y-61133070D01*
X145695405Y-61133689D01*
X145689545Y-61134447D01*
X145681748Y-61135373D01*
X145671541Y-61136503D01*
X145658313Y-61137887D01*
X145641224Y-61139593D01*
X145618983Y-61141735D01*
X145589244Y-61144521D01*
X145546160Y-61148486D01*
X145526849Y-61150253D01*
X145468954Y-61155562D01*
X145438359Y-61158393D01*
X145406902Y-61161335D01*
X145374760Y-61164381D01*
X145342109Y-61167526D01*
X145309128Y-61170764D01*
X145275993Y-61174089D01*
X159057407Y-91483986D02*
X159071308Y-91471338D01*
X159085196Y-91458675D01*
X159099069Y-91445998D01*
X159112928Y-91433307D01*
X159126772Y-91420603D01*
X159140602Y-91407884D01*
X159154417Y-91395152D01*
X159168219Y-91382406D01*
X159182005Y-91369646D01*
X159195777Y-91356872D01*
X159209535Y-91344084D01*
X159223278Y-91331282D01*
X159237006Y-91318467D01*
X159250721Y-91305637D01*
X159264420Y-91292794D01*
X159278106Y-91279937D01*
X159291776Y-91267066D01*
X159305432Y-91254181D01*
X159319073Y-91241284D01*
X159332701Y-91228371D01*
X159346313Y-91215446D01*
X159359911Y-91202506D01*
X159373494Y-91189553D01*
X159387063Y-91176585D01*
X159400616Y-91163605D01*
X159414156Y-91150611D01*
X159427680Y-91137603D01*
X159441190Y-91124581D01*
X159454685Y-91111546D01*
X159468166Y-91098497D01*
X159481632Y-91085435D01*
X159495083Y-91072358D01*
X159508519Y-91059269D01*
X159521942Y-91046165D01*
X159535348Y-91033048D01*
X159548741Y-91019918D01*
X159562118Y-91006774D01*
X159575481Y-90993616D01*
X159588829Y-90980446D01*
X159602162Y-90967261D01*
X159615480Y-90954063D01*
X159628784Y-90940851D01*
X159642073Y-90927627D01*
X159655347Y-90914388D01*
X159665394Y-90904349D01*
D10*
X152761740Y-78422620D02*
X152034177Y-79991286D01*
D12*
X138721224Y-93984030D02*
X138737728Y-93992984D01*
X138754243Y-94001921D01*
X138770759Y-94010836D01*
X138787285Y-94019734D01*
X138803813Y-94028610D01*
X138820351Y-94037469D01*
X138836890Y-94046306D01*
X138853440Y-94055125D01*
X138869991Y-94063923D01*
X138886552Y-94072703D01*
X138903114Y-94081461D01*
X138919687Y-94090202D01*
X138936260Y-94098921D01*
X138952844Y-94107623D01*
X138969429Y-94116303D01*
X138986024Y-94124965D01*
X139002620Y-94133605D01*
X139019226Y-94142229D01*
X139035833Y-94150829D01*
X139052450Y-94159413D01*
X139069067Y-94167975D01*
X139085695Y-94176519D01*
X139102323Y-94185041D01*
X139118962Y-94193545D01*
X139135601Y-94202028D01*
X139152250Y-94210493D01*
X139168900Y-94218936D01*
X139185559Y-94227362D01*
X139202219Y-94235765D01*
X139218889Y-94244151D01*
X139235560Y-94252515D01*
X139252240Y-94260862D01*
X139268921Y-94269186D01*
X139285612Y-94277493D01*
X139302302Y-94285777D01*
X139319003Y-94294044D01*
X139335704Y-94302289D01*
X139352415Y-94310517D01*
X139369125Y-94318722D01*
X139385846Y-94326910D01*
X139402567Y-94335075D01*
X139419297Y-94343223D01*
X139436027Y-94351349D01*
X139452768Y-94359457D01*
X139476090Y-94370716D01*
D10*
X142435403Y-100398643D02*
X142435413Y-100398788D01*
X142435443Y-100398927D01*
X142435559Y-100399181D01*
X142435755Y-100399415D01*
X142436047Y-100399634D01*
X142436459Y-100399839D01*
X142437020Y-100400026D01*
X142437768Y-100400187D01*
X142438741Y-100400311D01*
X142439986Y-100400387D01*
X142441553Y-100400399D01*
X142443494Y-100400332D01*
X142445870Y-100400167D01*
X142448743Y-100399886D01*
X142452180Y-100399466D01*
X142456254Y-100398887D01*
X142461041Y-100398123D01*
X142466622Y-100397150D01*
X142473081Y-100395941D01*
X142480510Y-100394469D01*
X142489000Y-100392702D01*
X142498650Y-100390612D01*
X142509563Y-100388165D01*
X142521844Y-100385328D01*
X142535604Y-100382066D01*
X142550955Y-100378344D01*
X142568017Y-100374125D01*
X142586910Y-100369370D01*
X142607758Y-100364040D01*
X142630688Y-100358094D01*
X142655831Y-100351491D01*
X142683319Y-100344190D01*
X142713286Y-100336147D01*
X142745867Y-100327320D01*
X142781199Y-100317665D01*
X142819417Y-100307139D01*
X142860655Y-100295698D01*
X142905047Y-100283299D01*
X142952720Y-100269902D01*
X143003796Y-100255465D01*
X143058390Y-100239953D01*
X143116603Y-100223329D01*
X143157060Y-100211732D01*
X145060695Y-93955971D02*
X144350458Y-95531987D01*
X153872447Y-74864869D02*
X153877211Y-74864909D01*
X153881956Y-74865028D01*
X153886682Y-74865227D01*
X153891389Y-74865505D01*
X153896077Y-74865861D01*
X153900744Y-74866296D01*
X153905391Y-74866809D01*
X153910016Y-74867400D01*
X153914620Y-74868068D01*
X153919202Y-74868814D01*
X153923761Y-74869637D01*
X153928298Y-74870537D01*
X153932810Y-74871514D01*
X153937299Y-74872567D01*
X153941762Y-74873696D01*
X153946200Y-74874900D01*
X153950612Y-74876181D01*
X153954998Y-74877537D01*
X153959356Y-74878967D01*
X153963685Y-74880473D01*
X153967986Y-74882053D01*
X153972257Y-74883707D01*
X153976498Y-74885435D01*
X153980707Y-74887236D01*
X153984885Y-74889110D01*
X153989029Y-74891058D01*
X153993140Y-74893077D01*
X153997216Y-74895169D01*
X154001257Y-74897331D01*
X154005261Y-74899565D01*
X154005411Y-74899651D01*
D12*
X157074490Y-93042019D02*
X157090058Y-93031489D01*
X157105614Y-93020944D01*
X157121155Y-93010384D01*
X157136684Y-92999808D01*
X157152198Y-92989219D01*
X157167700Y-92978613D01*
X157183187Y-92967993D01*
X157198662Y-92957358D01*
X157214122Y-92946708D01*
X157229570Y-92936042D01*
X157245003Y-92925363D01*
X157260424Y-92914667D01*
X157275830Y-92903958D01*
X157291224Y-92893232D01*
X157306603Y-92882493D01*
X157321970Y-92871737D01*
X157337322Y-92860968D01*
X157352662Y-92850183D01*
X157367987Y-92839384D01*
X157383299Y-92828568D01*
X157398597Y-92817739D01*
X157413883Y-92806894D01*
X157429153Y-92796035D01*
X157444412Y-92785161D01*
X157459655Y-92774272D01*
X157474887Y-92763367D01*
X157490103Y-92752449D01*
X157505307Y-92741514D01*
X157520497Y-92730566D01*
X157535674Y-92719602D01*
X157550836Y-92708624D01*
X157565986Y-92697630D01*
X157581121Y-92686622D01*
X157596244Y-92675599D01*
X157611352Y-92664561D01*
X157626447Y-92653508D01*
X157641528Y-92642441D01*
X157656597Y-92631358D01*
X157671650Y-92620261D01*
X157686691Y-92609148D01*
X157701718Y-92598022D01*
X157716732Y-92586879D01*
X157731731Y-92575723D01*
X157746718Y-92564551D01*
X157760839Y-92554002D01*
D10*
X141526175Y-75818065D02*
X141521416Y-75818025D01*
X141516675Y-75817906D01*
X141511953Y-75817707D01*
X141507250Y-75817429D01*
X141502566Y-75817073D01*
X141497903Y-75816638D01*
X141493259Y-75816125D01*
X141488637Y-75815534D01*
X141484036Y-75814866D01*
X141479457Y-75814120D01*
X141474900Y-75813296D01*
X141470366Y-75812396D01*
X141465855Y-75811420D01*
X141461368Y-75810367D01*
X141456906Y-75809237D01*
X141452469Y-75808032D01*
X141448058Y-75806751D01*
X141443673Y-75805395D01*
X141439316Y-75803964D01*
X141434986Y-75802457D01*
X141430685Y-75800877D01*
X141426413Y-75799222D01*
X141422172Y-75797493D01*
X141417961Y-75795691D01*
X141413783Y-75793815D01*
X141409637Y-75791867D01*
X141405524Y-75789846D01*
X141401446Y-75787753D01*
X141397403Y-75785588D01*
X141393397Y-75783353D01*
X141391898Y-75782493D01*
D12*
X130934993Y-71775939D02*
X130927748Y-71793094D01*
X130920521Y-71810258D01*
X130913312Y-71827431D01*
X130906120Y-71844612D01*
X130898947Y-71861803D01*
X130891792Y-71879002D01*
X130884655Y-71896210D01*
X130877536Y-71913427D01*
X130870435Y-71930652D01*
X130863351Y-71947886D01*
X130856287Y-71965129D01*
X130849240Y-71982380D01*
X130842211Y-71999640D01*
X130835200Y-72016909D01*
X130828207Y-72034186D01*
X130821233Y-72051472D01*
X130814276Y-72068766D01*
X130807338Y-72086070D01*
X130800418Y-72103381D01*
X130793516Y-72120701D01*
X130786632Y-72138029D01*
X130779766Y-72155366D01*
X130772919Y-72172711D01*
X130766089Y-72190065D01*
X130759278Y-72207427D01*
X130752485Y-72224797D01*
X130745711Y-72242176D01*
X130738954Y-72259563D01*
X130732216Y-72276958D01*
X130725496Y-72294362D01*
X130718794Y-72311774D01*
X130712111Y-72329194D01*
X130705446Y-72346622D01*
X130698799Y-72364059D01*
X130692170Y-72381503D01*
X130685560Y-72398956D01*
X130678968Y-72416417D01*
X130672394Y-72433886D01*
X130665839Y-72451363D01*
X130659302Y-72468848D01*
X130652783Y-72486341D01*
X130646283Y-72503843D01*
X130639801Y-72521351D01*
X130633337Y-72538869D01*
X130621548Y-72570970D01*
D10*
X142455878Y-100347189D02*
X142455594Y-100347900D01*
X142455239Y-100348582D01*
X142454804Y-100349257D01*
X142454267Y-100349951D01*
X142453578Y-100350725D01*
X142452928Y-100351404D01*
X142452222Y-100352143D01*
X142451542Y-100352914D01*
X142451220Y-100353320D01*
X142450915Y-100353747D01*
X142450629Y-100354196D01*
X142450367Y-100354673D01*
D12*
X161803064Y-88313445D02*
X161813576Y-88297868D01*
X161824072Y-88282278D01*
X161834547Y-88266683D01*
X161845007Y-88251076D01*
X161855446Y-88235464D01*
X161865869Y-88219839D01*
X161876272Y-88204209D01*
X161886658Y-88188567D01*
X161897024Y-88172919D01*
X161907374Y-88157260D01*
X161917704Y-88141595D01*
X161928017Y-88125919D01*
X161938310Y-88110237D01*
X161948587Y-88094544D01*
X161958843Y-88078846D01*
X161969082Y-88063136D01*
X161979301Y-88047421D01*
X161989504Y-88031694D01*
X161999686Y-88015963D01*
X162009852Y-88000220D01*
X162019997Y-87984472D01*
X162030125Y-87968713D01*
X162040233Y-87952949D01*
X162050324Y-87937174D01*
X162060394Y-87921395D01*
X162070448Y-87905603D01*
X162080481Y-87889808D01*
X162090497Y-87874001D01*
X162100493Y-87858190D01*
X162110472Y-87842368D01*
X162120429Y-87826542D01*
X162130371Y-87810704D01*
X162140291Y-87794863D01*
X162150194Y-87779010D01*
X162160077Y-87763153D01*
X162169942Y-87747286D01*
X162179787Y-87731414D01*
X162189615Y-87715532D01*
X162199421Y-87699645D01*
X162209211Y-87683748D01*
X162218979Y-87667847D01*
X162228731Y-87651936D01*
X162238462Y-87636020D01*
X162248175Y-87620094D01*
X162258529Y-87603076D01*
X134107239Y-66819238D02*
X134082121Y-66846934D01*
X134057053Y-66874693D01*
X134032035Y-66902516D01*
X134007069Y-66930401D01*
X133982153Y-66958350D01*
X133957289Y-66986361D01*
X133932477Y-67014435D01*
X133907716Y-67042570D01*
X133883007Y-67070769D01*
X133858350Y-67099029D01*
X133833745Y-67127350D01*
X133809193Y-67155734D01*
X133784694Y-67184178D01*
X133760247Y-67212684D01*
X133735853Y-67241251D01*
X133711513Y-67269879D01*
X133687226Y-67298567D01*
X133662993Y-67327316D01*
X133638813Y-67356125D01*
X133614688Y-67384994D01*
X133590617Y-67413923D01*
X133566600Y-67442911D01*
X133557005Y-67454528D01*
D10*
X143675528Y-97120867D02*
X143661570Y-97154896D01*
X143647631Y-97188933D01*
X143633756Y-97222867D01*
X143619899Y-97256808D01*
X143606106Y-97290647D01*
X143592331Y-97324494D01*
X143578618Y-97358240D01*
X143564925Y-97391993D01*
X143551293Y-97425648D01*
X143537680Y-97459310D01*
X143524128Y-97492874D01*
X143510594Y-97526445D01*
X143497122Y-97559920D01*
X143483667Y-97593402D01*
X143470273Y-97626789D01*
X143456898Y-97660182D01*
X143443582Y-97693482D01*
X143430284Y-97726789D01*
X143417045Y-97760003D01*
X143403825Y-97793224D01*
X143390663Y-97826353D01*
X143377520Y-97859490D01*
X143364435Y-97892536D01*
X143351368Y-97925588D01*
X143338358Y-97958552D01*
X143325367Y-97991522D01*
X143312432Y-98024404D01*
X143299516Y-98057293D01*
X143286656Y-98090094D01*
X143273814Y-98122903D01*
X143261028Y-98155625D01*
X143248261Y-98188354D01*
X143235549Y-98220997D01*
X143222855Y-98253648D01*
X143210216Y-98286214D01*
X143197595Y-98318787D01*
X143185029Y-98351277D01*
X143172481Y-98383774D01*
X143159986Y-98416188D01*
X143147510Y-98448609D01*
X143135087Y-98480949D01*
X143122683Y-98513296D01*
X143110332Y-98545562D01*
X143097999Y-98577835D01*
X143085718Y-98610028D01*
X143073455Y-98642228D01*
X143061245Y-98674349D01*
X143049053Y-98706477D01*
X143041945Y-98725234D01*
D12*
X131672268Y-86935073D02*
X131681223Y-86951537D01*
X131690195Y-86967990D01*
X131699183Y-86984431D01*
X131708189Y-87000861D01*
X131717210Y-87017279D01*
X131726248Y-87033687D01*
X131735303Y-87050082D01*
X131744374Y-87066467D01*
X131753462Y-87082839D01*
X131762566Y-87099201D01*
X131771687Y-87115551D01*
X131780825Y-87131890D01*
X131789979Y-87148217D01*
X131799149Y-87164533D01*
X131808336Y-87180838D01*
X131817540Y-87197131D01*
X131826760Y-87213413D01*
X131835997Y-87229684D01*
X131845250Y-87245942D01*
X131854520Y-87262190D01*
X131863806Y-87278426D01*
X131873109Y-87294651D01*
X131882428Y-87310865D01*
X131891764Y-87327067D01*
X131901116Y-87343257D01*
X131910485Y-87359437D01*
X131919870Y-87375605D01*
X131929272Y-87391761D01*
X131938691Y-87407906D01*
X131948126Y-87424040D01*
X131957577Y-87440162D01*
X131967045Y-87456273D01*
X131976530Y-87472373D01*
X131986031Y-87488461D01*
X131995548Y-87504538D01*
X132005082Y-87520603D01*
X132014632Y-87536657D01*
X132024199Y-87552700D01*
X132033783Y-87568731D01*
X132043383Y-87584751D01*
X132052999Y-87600759D01*
X132062632Y-87616756D01*
X132072281Y-87632742D01*
X132081947Y-87648716D01*
X132093738Y-87668150D01*
X164241841Y-74150038D02*
X164237175Y-74131945D01*
X164232491Y-74113859D01*
X164227788Y-74095781D01*
X164223066Y-74077710D01*
X164218325Y-74059645D01*
X164213566Y-74041588D01*
X164208788Y-74023538D01*
X164203991Y-74005496D01*
X164199175Y-73987461D01*
X164194340Y-73969433D01*
X164189487Y-73951412D01*
X164184615Y-73933398D01*
X164179724Y-73915392D01*
X164174814Y-73897393D01*
X164169886Y-73879401D01*
X164164939Y-73861417D01*
X164159973Y-73843439D01*
X164154989Y-73825470D01*
X164149985Y-73807507D01*
X164144963Y-73789552D01*
X164139922Y-73771603D01*
X164134863Y-73753663D01*
X164129785Y-73735729D01*
X164124688Y-73717804D01*
X164119572Y-73699885D01*
X164114438Y-73681974D01*
X164109285Y-73664069D01*
X164104114Y-73646173D01*
X164098923Y-73628284D01*
X164093714Y-73610402D01*
X164088487Y-73592527D01*
X164083240Y-73574661D01*
X164077975Y-73556801D01*
X164072692Y-73538949D01*
X164067389Y-73521104D01*
X164062068Y-73503267D01*
X164056729Y-73485437D01*
X164051370Y-73467614D01*
X164045993Y-73449799D01*
X164040598Y-73431992D01*
X164035184Y-73414192D01*
X164029751Y-73396399D01*
X164024299Y-73378614D01*
X164018829Y-73360837D01*
X164013341Y-73343066D01*
X164007833Y-73325304D01*
X164005969Y-73319306D01*
X160245030Y-90296363D02*
X160270150Y-90268665D01*
X160295219Y-90240905D01*
X160320238Y-90213080D01*
X160345205Y-90185193D01*
X160370122Y-90157244D01*
X160394987Y-90129231D01*
X160419800Y-90101156D01*
X160444562Y-90073019D01*
X160469272Y-90044820D01*
X160493930Y-90016559D01*
X160518535Y-89988237D01*
X160543088Y-89959853D01*
X160567588Y-89931408D01*
X160592035Y-89902901D01*
X160616429Y-89874334D01*
X160640769Y-89845706D01*
X160665056Y-89817017D01*
X160689289Y-89788269D01*
X160713468Y-89759460D01*
X160737594Y-89730591D01*
X160761664Y-89701663D01*
X160785680Y-89672675D01*
X160795264Y-89661072D01*
X141860001Y-61870676D02*
X141824473Y-61881768D01*
X141788966Y-61892938D01*
X141753478Y-61904185D01*
X141718011Y-61915510D01*
X141682563Y-61926912D01*
X141647136Y-61938392D01*
X141611730Y-61949949D01*
X141576344Y-61961584D01*
X141540978Y-61973296D01*
X141505633Y-61985085D01*
X141470309Y-61996952D01*
X141435005Y-62008896D01*
X141399723Y-62020918D01*
X141364462Y-62033017D01*
X141329221Y-62045193D01*
X141294002Y-62057447D01*
X141258804Y-62069777D01*
X141223628Y-62082186D01*
X141188473Y-62094671D01*
X141153339Y-62107233D01*
X141118227Y-62119873D01*
X141083137Y-62132590D01*
X141048069Y-62145384D01*
X141046594Y-62145924D01*
D13*
G36*
X129913412Y-37590650D02*
G01*
X129918022Y-37591114D01*
X129922510Y-37591874D01*
X129926869Y-37592918D01*
X129931092Y-37594233D01*
X129935171Y-37595809D01*
X129939101Y-37597634D01*
X129942873Y-37599695D01*
X129946481Y-37601982D01*
X129949918Y-37604482D01*
X129953177Y-37607184D01*
X129956251Y-37610076D01*
X129959134Y-37613147D01*
X129961817Y-37616384D01*
X129964294Y-37619776D01*
X129966559Y-37623312D01*
X129968604Y-37626979D01*
X129970422Y-37630766D01*
X129972006Y-37634661D01*
X129973350Y-37638653D01*
X129974446Y-37642730D01*
X129975287Y-37646880D01*
X129975867Y-37651091D01*
X129976178Y-37655352D01*
X129976213Y-37659651D01*
X129975966Y-37663976D01*
X129975430Y-37668316D01*
X129974597Y-37672659D01*
X129973460Y-37676993D01*
X129972014Y-37681307D01*
X129970250Y-37685589D01*
X129968161Y-37689826D01*
X125890632Y-45313627D01*
X125888541Y-45317869D01*
X125886775Y-45322154D01*
X125885327Y-45326471D01*
X125884189Y-45330808D01*
X125883356Y-45335153D01*
X125882820Y-45339495D01*
X125882574Y-45343821D01*
X125882610Y-45348121D01*
X125882923Y-45352382D01*
X125883504Y-45356594D01*
X125884348Y-45360743D01*
X125885446Y-45364819D01*
X125886792Y-45368810D01*
X125888379Y-45372705D01*
X125890200Y-45376490D01*
X125892248Y-45380156D01*
X125894516Y-45383690D01*
X125896996Y-45387081D01*
X125899682Y-45390316D01*
X125902568Y-45393385D01*
X125905644Y-45396275D01*
X125908906Y-45398975D01*
X125912346Y-45401473D01*
X125915956Y-45403758D01*
X125919730Y-45405818D01*
X125923660Y-45407641D01*
X125927741Y-45409215D01*
X125931964Y-45410530D01*
X125936323Y-45411572D01*
X125940810Y-45412332D01*
X125945420Y-45412796D01*
X125950144Y-45412953D01*
X128087719Y-45412953D01*
X128092295Y-45413101D01*
X128096767Y-45413538D01*
X128101127Y-45414254D01*
X128105369Y-45415239D01*
X128109486Y-45416480D01*
X128113471Y-45417969D01*
X128117319Y-45419695D01*
X128121021Y-45421646D01*
X128124571Y-45423813D01*
X128127964Y-45426184D01*
X128131191Y-45428750D01*
X128134246Y-45431500D01*
X128137123Y-45434422D01*
X128139814Y-45437508D01*
X128142314Y-45440745D01*
X128144615Y-45444124D01*
X128146711Y-45447634D01*
X128148595Y-45451265D01*
X128150260Y-45455005D01*
X128151699Y-45458845D01*
X128152907Y-45462774D01*
X128153875Y-45466780D01*
X128154598Y-45470855D01*
X128155069Y-45474986D01*
X128155281Y-45479165D01*
X128155227Y-45483379D01*
X128154900Y-45487619D01*
X128154295Y-45491873D01*
X128153404Y-45496132D01*
X128152220Y-45500385D01*
X128150738Y-45504622D01*
X128148949Y-45508831D01*
X127421673Y-47046550D01*
X126683733Y-48556740D01*
X125188060Y-51526991D01*
X123686324Y-54484503D01*
X122940806Y-55978770D01*
X122202921Y-57494196D01*
X121486854Y-57901116D01*
X126997778Y-46156293D01*
X126999566Y-46152080D01*
X127001048Y-46147840D01*
X127002231Y-46143584D01*
X127003120Y-46139322D01*
X127003723Y-46135065D01*
X127004047Y-46130823D01*
X127004098Y-46126607D01*
X127003883Y-46122427D01*
X127003409Y-46118294D01*
X127002683Y-46114218D01*
X127001711Y-46110211D01*
X127000500Y-46106281D01*
X126999057Y-46102441D01*
X126997389Y-46098700D01*
X126995502Y-46095070D01*
X126993403Y-46091560D01*
X126991100Y-46088181D01*
X126988598Y-46084944D01*
X126985904Y-46081859D01*
X126983026Y-46078936D01*
X126979970Y-46076187D01*
X126976743Y-46073622D01*
X126973351Y-46071251D01*
X126969801Y-46069085D01*
X126966101Y-46067134D01*
X126962256Y-46065410D01*
X126958274Y-46063921D01*
X126954162Y-46062680D01*
X126949925Y-46061696D01*
X126945572Y-46060980D01*
X126941108Y-46060543D01*
X126936540Y-46060395D01*
X124799002Y-46060395D01*
X124794277Y-46060238D01*
X124789666Y-46059774D01*
X124785178Y-46059014D01*
X124780818Y-46057971D01*
X124776595Y-46056657D01*
X124772514Y-46055082D01*
X124768582Y-46053259D01*
X124764808Y-46051199D01*
X124761197Y-46048914D01*
X124757758Y-46046416D01*
X124754496Y-46043716D01*
X124751419Y-46040825D01*
X124748534Y-46037757D01*
X124745847Y-46034522D01*
X124743367Y-46031132D01*
X124741099Y-46027598D01*
X124739052Y-46023933D01*
X124737231Y-46020148D01*
X124735644Y-46016255D01*
X124734298Y-46012265D01*
X124733200Y-46008190D01*
X124732357Y-46004042D01*
X124731776Y-45999833D01*
X124731463Y-45995574D01*
X124731427Y-45991276D01*
X124731673Y-45986952D01*
X124732210Y-45982613D01*
X124733043Y-45978271D01*
X124734180Y-45973938D01*
X124735629Y-45969625D01*
X124737395Y-45965344D01*
X124739486Y-45961106D01*
X128816999Y-38337285D01*
X128819086Y-38333044D01*
X128820849Y-38328759D01*
X128822295Y-38324443D01*
X128823430Y-38320106D01*
X128824260Y-38315762D01*
X128824795Y-38311420D01*
X128825039Y-38307094D01*
X128825001Y-38302794D01*
X128824687Y-38298533D01*
X128824104Y-38294322D01*
X128823260Y-38290172D01*
X128822160Y-38286096D01*
X128820813Y-38282105D01*
X128819226Y-38278211D01*
X128817404Y-38274425D01*
X128815356Y-38270759D01*
X128813088Y-38267225D01*
X128810608Y-38263834D01*
X128807921Y-38260598D01*
X128805036Y-38257530D01*
X128801960Y-38254639D01*
X128798698Y-38251939D01*
X128795259Y-38249440D01*
X128791649Y-38247155D01*
X128787875Y-38245095D01*
X128783945Y-38243272D01*
X128779864Y-38241697D01*
X128775641Y-38240383D01*
X128771283Y-38239340D01*
X128766795Y-38238581D01*
X128762186Y-38238116D01*
X128757462Y-38237959D01*
X124447712Y-38237959D01*
X124762603Y-37627192D01*
X124764907Y-37623079D01*
X124767468Y-37619171D01*
X124770272Y-37615476D01*
X124773306Y-37612002D01*
X124776556Y-37608758D01*
X124780007Y-37605752D01*
X124783647Y-37602992D01*
X124787461Y-37600488D01*
X124791435Y-37598246D01*
X124795556Y-37596276D01*
X124799810Y-37594587D01*
X124804182Y-37593186D01*
X124808659Y-37592081D01*
X124813228Y-37591282D01*
X124817874Y-37590796D01*
X124822584Y-37590632D01*
X129908687Y-37590492D01*
X129913412Y-37590650D01*
G37*
D10*
X152034177Y-79991286D02*
X151280755Y-81550501D01*
X150590993Y-57050777D02*
X150586346Y-57050817D01*
X150581704Y-57050937D01*
X150577067Y-57051136D01*
X150572436Y-57051415D01*
X150567812Y-57051774D01*
X150563198Y-57052212D01*
X150558592Y-57052729D01*
X150553998Y-57053325D01*
X150549415Y-57054001D01*
X150544845Y-57054755D01*
X150540288Y-57055588D01*
X150535748Y-57056500D01*
X150531223Y-57057489D01*
X150526716Y-57058557D01*
X150522228Y-57059702D01*
X150517760Y-57060924D01*
X150513314Y-57062224D01*
X150508890Y-57063600D01*
X150504490Y-57065052D01*
X150500115Y-57066580D01*
X150495766Y-57068184D01*
X150491445Y-57069862D01*
X150487154Y-57071615D01*
X150482892Y-57073442D01*
X150478662Y-57075343D01*
X150474466Y-57077316D01*
X150470303Y-57079362D01*
X150466176Y-57081479D01*
X150462086Y-57083667D01*
X150458035Y-57085925D01*
X150454022Y-57088253D01*
X150450051Y-57090650D01*
X150449365Y-57091073D01*
X144256606Y-91338026D02*
X144276539Y-91216939D01*
X144296540Y-91094951D01*
X144316612Y-90972037D01*
X144336759Y-90848168D01*
X144356985Y-90723317D01*
X144377294Y-90597454D01*
X144397691Y-90470547D01*
X144418181Y-90342561D01*
X144438768Y-90213463D01*
X144459458Y-90083213D01*
X144480257Y-89951773D01*
X144501170Y-89819098D01*
X144522204Y-89685144D01*
X144543366Y-89549863D01*
X144564664Y-89413201D01*
X144586105Y-89275104D01*
X144607697Y-89135512D01*
X144629450Y-88994360D01*
X144651374Y-88851579D01*
X144673478Y-88707094D01*
X144695776Y-88560823D01*
X144718279Y-88412678D01*
X144735829Y-88296776D01*
D12*
X133037223Y-68115806D02*
X133014871Y-68145761D01*
X132992578Y-68175771D01*
X132970344Y-68205835D01*
X132948169Y-68235954D01*
X132926054Y-68266127D01*
X132903998Y-68296354D01*
X132882002Y-68326636D01*
X132860065Y-68356972D01*
X132838187Y-68387362D01*
X132816369Y-68417806D01*
X132794611Y-68448304D01*
X132772912Y-68478857D01*
X132751273Y-68509464D01*
X132729694Y-68540125D01*
X132708174Y-68570840D01*
X132686714Y-68601609D01*
X132665314Y-68632432D01*
X132643974Y-68663309D01*
X132622694Y-68694240D01*
X132601473Y-68725226D01*
X132580313Y-68756265D01*
X132559213Y-68787358D01*
X132549205Y-68802155D01*
X162680000Y-86870000D02*
X162688953Y-86853499D01*
X162697888Y-86836986D01*
X162706802Y-86820473D01*
X162715699Y-86803949D01*
X162724574Y-86787424D01*
X162733431Y-86770888D01*
X162742267Y-86754350D01*
X162751086Y-86737803D01*
X162759882Y-86721254D01*
X162768662Y-86704694D01*
X162777419Y-86688134D01*
X162786159Y-86671563D01*
X162794877Y-86654991D01*
X162803579Y-86638408D01*
X162812258Y-86621825D01*
X162820919Y-86605231D01*
X162829559Y-86588636D01*
X162838182Y-86572031D01*
X162846782Y-86555425D01*
X162855366Y-86538809D01*
X162863927Y-86522192D01*
X162872471Y-86505565D01*
X162880992Y-86488937D01*
X162889497Y-86472299D01*
X162897979Y-86455660D01*
X162906445Y-86439011D01*
X162914888Y-86422361D01*
X162923313Y-86405701D01*
X162931717Y-86389041D01*
X162940103Y-86372371D01*
X162948467Y-86355700D01*
X162956814Y-86339019D01*
X162965139Y-86322337D01*
X162973446Y-86305646D01*
X162981731Y-86288954D01*
X162989999Y-86272253D01*
X162998244Y-86255551D01*
X163006472Y-86238839D01*
X163014678Y-86222127D01*
X163022867Y-86205404D01*
X163031033Y-86188682D01*
X163039182Y-86171950D01*
X163047308Y-86155218D01*
X163055417Y-86138476D01*
X163066686Y-86115134D01*
X132093739Y-69512524D02*
X132074385Y-69544453D01*
X132055098Y-69576428D01*
X132035876Y-69608448D01*
X132016720Y-69640514D01*
X131997630Y-69672625D01*
X131978607Y-69704782D01*
X131959649Y-69736984D01*
X131940757Y-69769232D01*
X131921931Y-69801526D01*
X131903171Y-69833865D01*
X131884478Y-69866250D01*
X131865850Y-69898680D01*
X131847289Y-69931155D01*
X131828793Y-69963677D01*
X131810364Y-69996243D01*
X131792001Y-70028856D01*
X131773704Y-70061514D01*
X131755474Y-70094217D01*
X131737309Y-70126966D01*
X131719211Y-70159760D01*
X131701179Y-70192600D01*
X131683213Y-70225486D01*
X131672269Y-70245601D01*
X150814527Y-95676240D02*
X150832864Y-95672477D01*
X150851194Y-95668696D01*
X150869517Y-95664895D01*
X150887833Y-95661076D01*
X150906142Y-95657237D01*
X150924444Y-95653380D01*
X150942739Y-95649503D01*
X150961028Y-95645608D01*
X150979309Y-95641693D01*
X150997583Y-95637760D01*
X151015850Y-95633808D01*
X151034110Y-95629836D01*
X151052362Y-95625846D01*
X151070608Y-95621837D01*
X151088847Y-95617809D01*
X151107078Y-95613763D01*
X151125302Y-95609697D01*
X151143519Y-95605612D01*
X151161729Y-95601509D01*
X151179932Y-95597386D01*
X151198127Y-95593245D01*
X151216315Y-95589085D01*
X151234496Y-95584906D01*
X151252669Y-95580708D01*
X151270836Y-95576492D01*
X151288994Y-95572256D01*
X151307146Y-95568002D01*
X151325290Y-95563729D01*
X151343427Y-95559437D01*
X151361556Y-95555126D01*
X151379678Y-95550797D01*
X151397792Y-95546449D01*
X151415899Y-95542082D01*
X151433999Y-95537696D01*
X151452091Y-95533291D01*
X151470175Y-95528868D01*
X151488252Y-95524426D01*
X151506322Y-95519965D01*
X151524383Y-95515486D01*
X151542438Y-95510987D01*
X151560484Y-95506470D01*
X151578523Y-95501935D01*
X151596555Y-95497380D01*
X151614578Y-95492807D01*
X151632594Y-95488216D01*
X151650603Y-95483605D01*
X151661536Y-95480796D01*
D10*
X142450367Y-100354673D02*
X142450096Y-100355621D01*
X142449317Y-100358034D01*
X142447602Y-100363083D01*
X142444313Y-100372539D01*
X142442767Y-100376954D01*
X142440053Y-100384713D01*
X142437695Y-100391517D01*
X142436756Y-100394278D01*
X142436033Y-100396462D01*
X142435567Y-100397955D01*
X142435445Y-100398406D01*
X142435403Y-100398643D01*
X161110150Y-57307518D02*
X161109897Y-57302941D01*
X161109565Y-57298365D01*
X161109153Y-57293793D01*
X161108661Y-57289225D01*
X161108089Y-57284662D01*
X161107438Y-57280105D01*
X161106707Y-57275556D01*
X161105896Y-57271016D01*
X161105006Y-57266486D01*
X161104037Y-57261968D01*
X161102990Y-57257462D01*
X161101863Y-57252971D01*
X161100658Y-57248495D01*
X161099374Y-57244035D01*
X161098013Y-57239594D01*
X161096574Y-57235173D01*
X161095058Y-57230772D01*
X161093466Y-57226395D01*
X161091797Y-57222041D01*
X161090052Y-57217713D01*
X161088231Y-57213412D01*
X161086337Y-57209139D01*
X161084367Y-57204896D01*
X161082325Y-57200685D01*
X161080209Y-57196507D01*
X161078022Y-57192363D01*
X161075763Y-57188256D01*
X161073433Y-57184185D01*
X161071298Y-57180591D01*
X149490000Y-58930000D02*
X147509577Y-58930000D01*
X149721409Y-84649767D02*
X149641479Y-84805819D01*
X149557901Y-84968824D01*
X149469946Y-85140194D01*
X149376586Y-85321924D01*
X149276279Y-85517010D01*
X149166507Y-85730336D01*
X149042591Y-85970987D01*
X148893581Y-86260215D01*
X148763740Y-86512168D01*
X148605787Y-86818676D01*
X148526825Y-86971937D01*
X148447881Y-87125206D01*
X148368960Y-87278485D01*
X148290069Y-87431776D01*
X148211213Y-87585081D01*
X148132398Y-87738403D01*
D12*
X135294862Y-65631615D02*
X135280958Y-65644265D01*
X135267068Y-65656930D01*
X135253194Y-65669609D01*
X135239333Y-65682301D01*
X135225487Y-65695007D01*
X135211655Y-65707728D01*
X135197838Y-65720461D01*
X135184035Y-65733210D01*
X135170247Y-65745971D01*
X135156473Y-65758747D01*
X135142715Y-65771535D01*
X135128970Y-65784339D01*
X135115241Y-65797155D01*
X135101525Y-65809986D01*
X135087825Y-65822830D01*
X135074138Y-65835688D01*
X135060467Y-65848559D01*
X135046810Y-65861445D01*
X135033168Y-65874343D01*
X135019540Y-65887257D01*
X135005928Y-65900182D01*
X134992329Y-65913123D01*
X134978746Y-65926076D01*
X134965177Y-65939044D01*
X134951623Y-65952024D01*
X134938083Y-65965019D01*
X134924559Y-65978027D01*
X134911049Y-65991049D01*
X134897554Y-66004084D01*
X134884073Y-66017133D01*
X134870608Y-66030195D01*
X134857156Y-66043271D01*
X134843721Y-66056360D01*
X134830299Y-66069463D01*
X134816893Y-66082579D01*
X134803501Y-66095709D01*
X134790124Y-66108852D01*
X134776762Y-66122009D01*
X134763415Y-66135179D01*
X134750082Y-66148363D01*
X134736765Y-66161560D01*
X134723463Y-66174771D01*
X134710175Y-66187994D01*
X134696902Y-66201232D01*
X134686875Y-66211251D01*
X130110428Y-82965565D02*
X130115093Y-82983655D01*
X130119776Y-83001737D01*
X130124478Y-83019813D01*
X130129199Y-83037881D01*
X130133939Y-83055942D01*
X130138698Y-83073996D01*
X130143475Y-83092044D01*
X130148272Y-83110084D01*
X130153087Y-83128117D01*
X130157921Y-83146143D01*
X130162774Y-83164162D01*
X130167645Y-83182173D01*
X130172536Y-83200178D01*
X130177445Y-83218176D01*
X130187319Y-83254150D01*
X130197269Y-83290095D01*
X130207294Y-83326011D01*
X130217394Y-83361900D01*
X130227569Y-83397759D01*
X130237819Y-83433589D01*
X130248144Y-83469391D01*
X130258543Y-83505164D01*
X130269018Y-83540908D01*
X130279568Y-83576623D01*
X130290192Y-83612309D01*
X130300891Y-83647966D01*
X130311665Y-83683593D01*
X130322514Y-83719192D01*
X130333437Y-83754761D01*
X130344435Y-83790301D01*
X130346299Y-83796298D01*
D10*
X144735829Y-88296776D02*
X144758931Y-88143736D01*
X144782314Y-87988310D01*
X144805998Y-87830345D01*
X144830008Y-87669671D01*
X144854371Y-87506097D01*
X144879118Y-87339405D01*
X144904285Y-87169349D01*
X144929912Y-86995647D01*
X144956045Y-86817970D01*
X144982739Y-86635935D01*
X145010058Y-86449090D01*
X145038081Y-86256893D01*
X145066900Y-86058684D01*
X145096632Y-85853651D01*
X145127424Y-85640763D01*
X145159466Y-85418690D01*
X145193011Y-85185646D01*
X145228415Y-84939148D01*
X145266199Y-84675537D01*
X145307192Y-84389000D01*
X145352869Y-84069188D01*
X145406415Y-83693766D01*
X145473372Y-83223907D01*
X145546315Y-82712059D01*
X145582808Y-82456189D01*
X145619328Y-82200361D01*
D12*
X129649712Y-80380305D02*
X129653546Y-80417659D01*
X129657458Y-80454994D01*
X129661449Y-80492310D01*
X129665518Y-80529608D01*
X129669665Y-80566886D01*
X129673891Y-80604145D01*
X129678195Y-80641385D01*
X129682577Y-80678606D01*
X129687038Y-80715807D01*
X129691577Y-80752989D01*
X129696194Y-80790150D01*
X129700889Y-80827293D01*
X129705662Y-80864415D01*
X129710513Y-80901517D01*
X129715442Y-80938599D01*
X129720450Y-80975660D01*
X129725535Y-81012701D01*
X129730698Y-81049722D01*
X129735939Y-81086722D01*
X129741258Y-81123701D01*
X129746654Y-81160660D01*
X129752129Y-81197597D01*
X129757681Y-81234513D01*
X129761019Y-81256453D01*
X136591430Y-64561599D02*
X136561638Y-64583929D01*
X136531874Y-64606337D01*
X136502140Y-64628824D01*
X136472435Y-64651389D01*
X136442760Y-64674032D01*
X136413113Y-64696753D01*
X136383496Y-64719552D01*
X136353909Y-64742429D01*
X136324352Y-64765385D01*
X136294824Y-64788419D01*
X136265326Y-64811531D01*
X136235857Y-64834721D01*
X136206419Y-64857989D01*
X136177012Y-64881335D01*
X136147634Y-64904759D01*
X136118287Y-64928262D01*
X136088970Y-64951842D01*
X136059683Y-64975501D01*
X136030428Y-64999237D01*
X136001203Y-65023052D01*
X135972008Y-65046945D01*
X135942845Y-65070915D01*
X135930152Y-65081381D01*
D10*
X160841204Y-57050777D02*
X150590993Y-57050777D01*
D12*
X151661536Y-95480796D02*
X151679628Y-95476131D01*
X151697712Y-95471447D01*
X151715790Y-95466744D01*
X151733860Y-95462023D01*
X151751923Y-95457282D01*
X151769979Y-95452523D01*
X151788027Y-95447745D01*
X151806069Y-95442949D01*
X151824103Y-95438133D01*
X151842130Y-95433299D01*
X151860150Y-95428446D01*
X151878163Y-95423574D01*
X151896168Y-95418683D01*
X151914166Y-95413774D01*
X151932157Y-95408846D01*
X151950141Y-95403899D01*
X151968118Y-95398934D01*
X151986086Y-95393949D01*
X152004049Y-95388946D01*
X152022003Y-95383925D01*
X152039950Y-95378884D01*
X152057890Y-95373825D01*
X152075823Y-95368747D01*
X152093748Y-95363650D01*
X152111667Y-95358535D01*
X152129577Y-95353401D01*
X152147481Y-95348248D01*
X152165377Y-95343077D01*
X152183266Y-95337886D01*
X152201147Y-95332678D01*
X152219021Y-95327450D01*
X152236887Y-95322204D01*
X152254747Y-95316939D01*
X152272598Y-95311656D01*
X152290443Y-95306353D01*
X152308280Y-95301032D01*
X152326110Y-95295693D01*
X152343932Y-95290335D01*
X152361747Y-95284958D01*
X152379554Y-95279562D01*
X152397354Y-95274148D01*
X152415146Y-95268716D01*
X152432931Y-95263264D01*
X152450709Y-95257794D01*
X152486241Y-95246798D01*
X152492268Y-95244925D01*
D10*
X144090435Y-96144174D02*
X144058792Y-96217994D01*
X144020251Y-96307730D01*
X143992532Y-96372208D01*
X143952390Y-96465597D01*
X143932334Y-96512298D01*
X143912297Y-96559005D01*
X143892284Y-96605720D01*
X143872302Y-96652448D01*
X143852358Y-96699189D01*
X143832456Y-96745946D01*
X143812603Y-96792722D01*
X143792806Y-96839518D01*
X143773070Y-96886338D01*
X143753402Y-96933183D01*
X143743595Y-96956616D01*
X143733808Y-96980057D01*
X143724040Y-97003504D01*
X143714293Y-97026960D01*
X143704568Y-97050424D01*
X143694865Y-97073896D01*
X143685184Y-97097377D01*
X143675528Y-97120867D01*
X153457672Y-76842403D02*
X152761740Y-78422620D01*
X142389460Y-100391687D02*
X142391778Y-100391673D01*
X142394098Y-100391579D01*
X142396417Y-100391406D01*
X142397575Y-100391289D01*
X142398732Y-100391152D01*
X142399886Y-100390995D01*
X142401038Y-100390819D01*
X142402186Y-100390622D01*
X142403332Y-100390406D01*
X142404474Y-100390170D01*
X142405612Y-100389915D01*
X142406745Y-100389640D01*
X142407873Y-100389346D01*
X142408995Y-100389032D01*
X142410113Y-100388699D01*
X142411223Y-100388348D01*
X142412328Y-100387977D01*
X142413425Y-100387587D01*
X142414515Y-100387179D01*
X142415597Y-100386752D01*
X142416672Y-100386307D01*
X142417737Y-100385844D01*
X142418795Y-100385362D01*
X142419842Y-100384863D01*
X142420882Y-100384345D01*
X142421910Y-100383810D01*
X142422930Y-100383258D01*
X142423938Y-100382689D01*
X142424938Y-100382101D01*
X142425924Y-100381498D01*
X142426902Y-100380877D01*
X142427866Y-100380241D01*
X142428821Y-100379586D01*
X142429762Y-100378917D01*
X142430693Y-100378231D01*
X142431609Y-100377530D01*
X142432516Y-100376811D01*
X142433407Y-100376079D01*
X142434288Y-100375329D01*
X142435154Y-100374566D01*
X142436008Y-100373786D01*
X142436848Y-100372992D01*
X142437675Y-100372182D01*
X142438487Y-100371359D01*
X142439288Y-100370519D01*
X142440072Y-100369667D01*
X142440844Y-100368799D01*
X142441600Y-100367918D01*
X142442344Y-100367021D01*
X142443071Y-100366113D01*
X142443785Y-100365188D01*
X142444483Y-100364252D01*
X142445168Y-100363299D01*
X142445836Y-100362336D01*
X142446490Y-100361356D01*
X142447128Y-100360365D01*
X142447752Y-100359359D01*
X142448359Y-100358342D01*
X142448952Y-100357309D01*
X142449528Y-100356265D01*
X142450089Y-100355206D01*
X142450363Y-100354674D01*
X146259475Y-75818065D02*
X141526175Y-75818065D01*
D12*
X164005969Y-83731225D02*
X164011483Y-83713465D01*
X164016978Y-83695697D01*
X164022454Y-83677922D01*
X164027912Y-83660139D01*
X164033351Y-83642348D01*
X164038772Y-83624550D01*
X164044174Y-83606745D01*
X164049557Y-83588932D01*
X164054922Y-83571112D01*
X164060268Y-83553284D01*
X164065595Y-83535448D01*
X164070904Y-83517605D01*
X164076194Y-83499755D01*
X164081466Y-83481897D01*
X164086719Y-83464032D01*
X164091953Y-83446159D01*
X164097168Y-83428279D01*
X164102365Y-83410392D01*
X164107543Y-83392497D01*
X164112703Y-83374594D01*
X164117844Y-83356685D01*
X164122966Y-83338767D01*
X164128069Y-83320843D01*
X164133154Y-83302911D01*
X164138220Y-83284972D01*
X164143267Y-83267025D01*
X164148296Y-83249071D01*
X164153306Y-83231110D01*
X164158297Y-83213142D01*
X164163269Y-83195165D01*
X164168223Y-83177182D01*
X164173158Y-83159192D01*
X164178074Y-83141194D01*
X164182972Y-83123189D01*
X164187850Y-83105177D01*
X164192710Y-83087157D01*
X164197552Y-83069130D01*
X164202374Y-83051095D01*
X164207178Y-83033054D01*
X164211963Y-83015005D01*
X164216729Y-82996950D01*
X164221476Y-82978886D01*
X164226205Y-82960816D01*
X164230915Y-82942738D01*
X164235606Y-82924654D01*
X164240278Y-82906562D01*
X164241841Y-82900491D01*
X131285582Y-86180208D02*
X131301757Y-86213684D01*
X131318010Y-86247139D01*
X131334343Y-86280574D01*
X131350754Y-86313988D01*
X131367244Y-86347381D01*
X131383813Y-86380753D01*
X131400461Y-86414104D01*
X131417188Y-86447433D01*
X131433993Y-86480741D01*
X131450876Y-86514027D01*
X131467838Y-86547290D01*
X131484878Y-86580531D01*
X131501997Y-86613750D01*
X131519194Y-86646946D01*
X131536469Y-86680119D01*
X131553822Y-86713269D01*
X131571253Y-86746395D01*
X131588762Y-86779498D01*
X131606349Y-86812576D01*
X131624014Y-86845631D01*
X131641756Y-86878662D01*
X131659576Y-86911668D01*
X131672268Y-86935073D01*
X135930151Y-92099293D02*
X135944730Y-92111311D01*
X135959321Y-92123315D01*
X135973916Y-92135294D01*
X135988523Y-92147258D01*
X136003133Y-92159199D01*
X136017755Y-92171124D01*
X136032380Y-92183025D01*
X136047018Y-92194911D01*
X136061659Y-92206773D01*
X136076312Y-92218620D01*
X136090968Y-92230443D01*
X136105636Y-92242251D01*
X136120307Y-92254035D01*
X136134991Y-92265803D01*
X136149677Y-92277548D01*
X136164376Y-92289277D01*
X136179077Y-92300983D01*
X136193791Y-92312673D01*
X136208508Y-92324340D01*
X136223237Y-92335991D01*
X136237968Y-92347618D01*
X136252712Y-92359230D01*
X136267459Y-92370819D01*
X136282218Y-92382392D01*
X136296979Y-92393941D01*
X136311753Y-92405474D01*
X136326529Y-92416984D01*
X136341318Y-92428479D01*
X136356109Y-92439950D01*
X136370913Y-92451405D01*
X136385719Y-92462837D01*
X136400537Y-92474253D01*
X136415358Y-92485646D01*
X136430191Y-92497023D01*
X136445027Y-92508376D01*
X136459874Y-92519714D01*
X136474724Y-92531028D01*
X136489587Y-92542327D01*
X136504452Y-92553602D01*
X136519329Y-92564861D01*
X136534208Y-92576097D01*
X136549099Y-92587317D01*
X136563993Y-92598514D01*
X136578899Y-92609695D01*
X136591430Y-92619075D01*
D10*
X161071298Y-57180591D02*
X161070078Y-57178592D01*
X161068841Y-57176603D01*
X161067587Y-57174625D01*
X161066317Y-57172657D01*
X161065029Y-57170701D01*
X161063725Y-57168756D01*
X161062405Y-57166822D01*
X161061067Y-57164899D01*
X161059714Y-57162989D01*
X161058345Y-57161089D01*
X161056960Y-57159203D01*
X161055558Y-57157328D01*
X161054142Y-57155466D01*
X161052709Y-57153615D01*
X161051261Y-57151779D01*
X161049797Y-57149954D01*
X161048319Y-57148143D01*
X161046825Y-57146345D01*
X161045317Y-57144561D01*
X161043793Y-57142789D01*
X161042256Y-57141032D01*
X161040703Y-57139288D01*
X161039136Y-57137559D01*
X161037555Y-57135842D01*
X161035960Y-57134142D01*
X161034350Y-57132454D01*
X161032728Y-57130782D01*
X161031091Y-57129124D01*
X161029441Y-57127482D01*
X161027777Y-57125853D01*
X161026101Y-57124241D01*
X161024411Y-57122643D01*
X161022709Y-57121061D01*
X161020993Y-57119494D01*
X161019265Y-57117943D01*
X161017524Y-57116407D01*
X161015772Y-57114888D01*
X161014006Y-57113383D01*
X161012229Y-57111896D01*
X161010439Y-57110424D01*
X161008639Y-57108969D01*
X161006826Y-57107529D01*
X161005002Y-57106107D01*
X161003166Y-57104700D01*
X161001320Y-57103312D01*
X160999462Y-57101938D01*
X160997594Y-57100583D01*
X160995713Y-57099244D01*
X160993824Y-57097922D01*
X160991923Y-57096617D01*
X160990013Y-57095330D01*
X160988090Y-57094059D01*
X160986160Y-57092806D01*
X160984217Y-57091570D01*
X160982267Y-57090353D01*
X160980305Y-57089151D01*
X160976924Y-57087136D01*
D12*
X141046593Y-95034749D02*
X141081664Y-95047549D01*
X141119139Y-95061145D01*
X141159620Y-95075750D01*
X141204150Y-95091737D01*
X141254878Y-95109870D01*
X141317920Y-95132336D01*
X141333484Y-95137877D01*
X141391210Y-95158438D01*
X141419076Y-95168383D01*
X141446193Y-95178083D01*
X141472498Y-95187526D01*
X141497926Y-95196694D01*
X141522415Y-95205573D01*
X141545899Y-95214148D01*
X141568316Y-95222404D01*
X141579105Y-95226408D01*
X141589602Y-95230326D01*
X141599801Y-95234157D01*
X141609693Y-95237899D01*
X141619271Y-95241550D01*
X141628526Y-95245108D01*
X141637451Y-95248571D01*
X141646037Y-95251937D01*
X141654277Y-95255205D01*
X141662162Y-95258373D01*
X141669685Y-95261438D01*
X141676838Y-95264399D01*
X141683612Y-95267253D01*
X141690000Y-95270000D01*
D10*
X144340878Y-99774511D02*
X146038701Y-96367444D01*
X149676780Y-74606683D02*
X149677009Y-74611279D01*
X149677317Y-74615873D01*
X149677706Y-74620463D01*
X149678174Y-74625049D01*
X149678722Y-74629630D01*
X149679350Y-74634203D01*
X149680057Y-74638768D01*
X149680843Y-74643323D01*
X149681708Y-74647868D01*
X149682653Y-74652400D01*
X149683676Y-74656919D01*
X149684778Y-74661423D01*
X149685958Y-74665911D01*
X149687216Y-74670381D01*
X149688552Y-74674832D01*
X149689965Y-74679263D01*
X149691455Y-74683671D01*
X149693022Y-74688056D01*
X149694664Y-74692416D01*
X149696382Y-74696749D01*
X149698174Y-74701055D01*
X149700042Y-74705331D01*
X149701982Y-74709577D01*
X149703996Y-74713790D01*
X149706083Y-74717969D01*
X149708241Y-74722113D01*
X149710470Y-74726220D01*
X149712770Y-74730288D01*
X149715108Y-74734266D01*
D12*
X161315046Y-88999795D02*
X161337397Y-88969841D01*
X161359689Y-88939833D01*
X161381921Y-88909771D01*
X161404095Y-88879654D01*
X161426209Y-88849484D01*
X161448263Y-88819258D01*
X161470258Y-88788979D01*
X161492193Y-88758645D01*
X161514069Y-88728258D01*
X161535886Y-88697816D01*
X161557642Y-88667320D01*
X161579339Y-88636770D01*
X161600977Y-88606165D01*
X161622554Y-88575507D01*
X161644072Y-88544795D01*
X161665530Y-88514028D01*
X161686928Y-88483208D01*
X161708266Y-88452334D01*
X161729545Y-88421405D01*
X161750763Y-88390423D01*
X161771921Y-88359387D01*
X161793019Y-88328297D01*
X161803064Y-88313445D01*
X130346299Y-83796298D02*
X130357391Y-83831826D01*
X130368561Y-83867333D01*
X130379808Y-83902821D01*
X130391133Y-83938288D01*
X130402535Y-83973735D01*
X130414015Y-84009162D01*
X130425572Y-84044568D01*
X130437206Y-84079954D01*
X130448918Y-84115319D01*
X130460707Y-84150663D01*
X130472574Y-84185986D01*
X130484518Y-84221289D01*
X130496539Y-84256570D01*
X130508638Y-84291831D01*
X130520814Y-84327070D01*
X130533067Y-84362288D01*
X130545397Y-84397485D01*
X130557805Y-84432660D01*
X130570290Y-84467813D01*
X130582852Y-84502945D01*
X130595491Y-84538055D01*
X130608207Y-84573144D01*
X130621000Y-84608210D01*
X130621547Y-84609703D01*
D10*
X146060224Y-79158454D02*
X146525010Y-76129278D01*
D12*
X164770155Y-77624310D02*
X164768209Y-77586712D01*
X164766183Y-77549128D01*
X164764079Y-77511556D01*
X164761894Y-77473998D01*
X164759631Y-77436453D01*
X164757288Y-77398921D01*
X164754866Y-77361403D01*
X164752364Y-77323898D01*
X164749783Y-77286405D01*
X164747123Y-77248927D01*
X164744384Y-77211461D01*
X164741566Y-77174008D01*
X164738668Y-77136569D01*
X164735691Y-77099143D01*
X164732635Y-77061730D01*
X164729500Y-77024330D01*
X164726286Y-76986943D01*
X164722992Y-76949570D01*
X164719620Y-76912210D01*
X164716168Y-76874863D01*
X164712637Y-76837529D01*
X164709027Y-76800209D01*
X164705338Y-76762901D01*
X164702557Y-76735298D01*
X140251563Y-94721307D02*
X140268721Y-94728553D01*
X140285888Y-94735781D01*
X140303063Y-94742991D01*
X140320247Y-94750184D01*
X140337440Y-94757358D01*
X140354641Y-94764514D01*
X140371851Y-94771652D01*
X140389070Y-94778772D01*
X140406297Y-94785873D01*
X140423534Y-94792957D01*
X140440778Y-94800023D01*
X140458032Y-94807070D01*
X140475293Y-94814100D01*
X140492564Y-94821111D01*
X140509842Y-94828104D01*
X140527130Y-94835079D01*
X140544425Y-94842036D01*
X140561729Y-94848975D01*
X140579041Y-94855895D01*
X140596363Y-94862798D01*
X140613692Y-94869682D01*
X140631030Y-94876548D01*
X140648375Y-94883395D01*
X140665730Y-94890225D01*
X140683092Y-94897036D01*
X140700463Y-94903829D01*
X140717842Y-94910604D01*
X140735229Y-94917360D01*
X140752624Y-94924098D01*
X140770028Y-94930818D01*
X140787440Y-94937520D01*
X140804860Y-94944203D01*
X140822288Y-94950868D01*
X140839724Y-94957515D01*
X140857168Y-94964143D01*
X140874621Y-94970753D01*
X140892081Y-94977345D01*
X140909549Y-94983918D01*
X140927025Y-94990473D01*
X140944510Y-94997010D01*
X140962002Y-95003528D01*
X140979502Y-95010028D01*
X140997010Y-95016509D01*
X141014526Y-95022972D01*
X141046593Y-95034749D01*
D10*
X156818797Y-73862187D02*
X152898904Y-73862187D01*
X146038701Y-96367444D02*
X146038698Y-96367444D01*
X142450363Y-100354674D02*
X142470129Y-100274307D01*
X142489866Y-100193721D01*
X142509575Y-100112915D01*
X142529256Y-100031886D01*
X142548909Y-99950633D01*
X142568535Y-99869154D01*
X142588134Y-99787445D01*
X142607706Y-99705506D01*
X142627251Y-99623334D01*
X142646771Y-99540927D01*
X142666264Y-99458283D01*
X142685732Y-99375399D01*
X142705174Y-99292273D01*
X142724592Y-99208903D01*
X142743985Y-99125287D01*
X142763353Y-99041421D01*
X142782698Y-98957304D01*
X142802019Y-98872934D01*
X142821317Y-98788306D01*
X142840592Y-98703420D01*
X142859845Y-98618271D01*
X142879075Y-98532858D01*
X142898284Y-98447178D01*
X142917472Y-98361228D01*
X142936638Y-98275004D01*
X142955784Y-98188505D01*
X142974910Y-98101727D01*
X142994017Y-98014666D01*
X143013104Y-97927321D01*
X143032172Y-97839687D01*
X143051222Y-97751762D01*
X143070255Y-97663542D01*
X143089269Y-97575024D01*
X143108267Y-97486204D01*
X143127249Y-97397078D01*
X143132249Y-97373538D01*
D12*
X138721225Y-63196646D02*
X138704762Y-63205600D01*
X138688310Y-63214572D01*
X138671870Y-63223559D01*
X138655441Y-63232564D01*
X138639024Y-63241585D01*
X138622618Y-63250622D01*
X138606224Y-63259676D01*
X138589840Y-63268747D01*
X138573469Y-63277833D01*
X138557108Y-63286937D01*
X138540760Y-63296057D01*
X138524422Y-63305194D01*
X138508096Y-63314347D01*
X138491782Y-63323516D01*
X138475479Y-63332702D01*
X138459187Y-63341905D01*
X138442907Y-63351124D01*
X138426638Y-63360360D01*
X138410381Y-63369612D01*
X138394134Y-63378881D01*
X138377900Y-63388166D01*
X138361677Y-63397468D01*
X138345466Y-63406786D01*
X138329265Y-63416121D01*
X138313077Y-63425472D01*
X138296899Y-63434840D01*
X138280733Y-63444224D01*
X138264579Y-63453625D01*
X138248436Y-63463042D01*
X138232304Y-63472476D01*
X138216184Y-63481925D01*
X138200075Y-63491392D01*
X138183978Y-63500875D01*
X138167892Y-63510375D01*
X138151818Y-63519891D01*
X138135755Y-63529423D01*
X138119703Y-63538972D01*
X138103663Y-63548538D01*
X138087635Y-63558120D01*
X138071617Y-63567718D01*
X138055612Y-63577333D01*
X138039617Y-63586964D01*
X138023634Y-63596612D01*
X138007663Y-63606276D01*
X137988148Y-63618116D01*
D10*
X143401459Y-96014752D02*
X143417043Y-95936711D01*
X143434069Y-95851844D01*
X143453168Y-95757023D01*
X143475717Y-95645434D01*
X143502909Y-95511151D01*
X143531853Y-95368208D01*
X143546302Y-95296730D01*
X143560724Y-95225243D01*
X143575108Y-95153745D01*
X143589447Y-95082234D01*
X143603731Y-95010705D01*
X143617951Y-94939158D01*
X143625033Y-94903376D01*
X143632097Y-94867589D01*
X143639139Y-94831795D01*
X143646160Y-94795994D01*
X143653158Y-94760187D01*
X143660132Y-94724373D01*
X143667080Y-94688551D01*
X143674003Y-94652721D01*
X143680897Y-94616883D01*
X143687763Y-94581036D01*
X143694599Y-94545180D01*
X143701404Y-94509315D01*
X143708177Y-94473441D01*
X143714917Y-94437556D01*
X143721622Y-94401661D01*
X143728292Y-94365756D01*
D12*
X164437284Y-82053482D02*
X164441018Y-82035183D01*
X164444734Y-82016876D01*
X164448429Y-81998569D01*
X164452105Y-81980255D01*
X164455761Y-81961941D01*
X164459398Y-81943619D01*
X164463014Y-81925297D01*
X164466612Y-81906968D01*
X164470189Y-81888638D01*
X164473747Y-81870301D01*
X164477285Y-81851963D01*
X164480804Y-81833619D01*
X164484303Y-81815274D01*
X164487783Y-81796923D01*
X164491242Y-81778570D01*
X164494682Y-81760211D01*
X164498102Y-81741852D01*
X164501503Y-81723485D01*
X164504884Y-81705118D01*
X164508246Y-81686744D01*
X164511587Y-81668370D01*
X164514909Y-81649989D01*
X164518211Y-81631608D01*
X164521494Y-81613220D01*
X164524757Y-81594831D01*
X164528000Y-81576436D01*
X164531224Y-81558040D01*
X164534428Y-81539637D01*
X164537612Y-81521234D01*
X164540776Y-81502825D01*
X164543921Y-81484415D01*
X164547046Y-81465998D01*
X164550151Y-81447582D01*
X164553237Y-81429158D01*
X164556303Y-81410734D01*
X164559350Y-81392304D01*
X164562376Y-81373873D01*
X164565383Y-81355436D01*
X164568370Y-81336998D01*
X164571337Y-81318554D01*
X164574285Y-81300110D01*
X164577213Y-81281659D01*
X164580121Y-81263208D01*
X164583010Y-81244750D01*
X164585879Y-81226292D01*
X164588728Y-81207828D01*
X164591249Y-81191380D01*
X137277779Y-64073581D02*
X137262211Y-64084111D01*
X137246654Y-64094657D01*
X137231113Y-64105217D01*
X137215584Y-64115793D01*
X137200069Y-64126382D01*
X137184567Y-64136988D01*
X137169080Y-64147608D01*
X137153604Y-64158244D01*
X137138144Y-64168894D01*
X137122696Y-64179560D01*
X137107262Y-64190240D01*
X137091841Y-64200936D01*
X137076435Y-64211646D01*
X137061040Y-64222371D01*
X137045661Y-64233111D01*
X137030294Y-64243867D01*
X137014942Y-64254636D01*
X136999602Y-64265422D01*
X136984276Y-64276221D01*
X136968963Y-64287037D01*
X136953665Y-64297866D01*
X136938379Y-64308711D01*
X136923108Y-64319571D01*
X136907849Y-64330446D01*
X136892606Y-64341335D01*
X136877374Y-64352240D01*
X136862157Y-64363158D01*
X136846953Y-64374093D01*
X136831763Y-64385042D01*
X136816585Y-64396006D01*
X136801423Y-64406984D01*
X136786273Y-64417978D01*
X136771137Y-64428986D01*
X136756014Y-64440010D01*
X136740906Y-64451048D01*
X136725810Y-64462102D01*
X136710729Y-64473169D01*
X136695660Y-64484252D01*
X136680606Y-64495349D01*
X136665565Y-64506462D01*
X136650538Y-64517589D01*
X136635524Y-64528731D01*
X136620525Y-64539888D01*
X136605537Y-64551060D01*
X136591430Y-64561599D01*
D10*
X141669771Y-98671288D02*
X141669162Y-98675861D01*
X141668631Y-98680446D01*
X141668180Y-98685040D01*
X141667809Y-98689642D01*
X141667517Y-98694252D01*
X141667305Y-98698867D01*
X141667173Y-98703487D01*
X141667120Y-98708110D01*
X141667148Y-98712734D01*
X141667255Y-98717359D01*
X141667443Y-98721983D01*
X141667710Y-98726605D01*
X141668057Y-98731223D01*
X141668484Y-98735836D01*
X141668991Y-98740442D01*
X141669577Y-98745040D01*
X141670243Y-98749628D01*
X141670988Y-98754206D01*
X141671390Y-98756490D01*
X141671812Y-98758771D01*
X141672254Y-98761049D01*
X141672715Y-98763323D01*
X141673196Y-98765593D01*
X141673697Y-98767859D01*
X141674217Y-98770121D01*
X141674756Y-98772379D01*
X141675315Y-98774632D01*
X141675894Y-98776881D01*
X141676492Y-98779125D01*
X141677109Y-98781364D01*
X141677746Y-98783597D01*
X141678402Y-98785826D01*
X141679077Y-98788048D01*
X141679772Y-98790265D01*
X141680485Y-98792476D01*
X141681218Y-98794682D01*
X141681969Y-98796880D01*
X141682740Y-98799073D01*
X141683529Y-98801259D01*
X141684338Y-98803438D01*
X141685165Y-98805611D01*
X141686011Y-98807776D01*
X141686876Y-98809934D01*
X141687759Y-98812086D01*
X141687885Y-98812388D01*
X144502321Y-77250747D02*
X144506457Y-77252724D01*
X144510561Y-77254775D01*
X144514633Y-77256898D01*
X144518670Y-77259094D01*
X144522673Y-77261362D01*
X144526640Y-77263702D01*
X144530570Y-77266112D01*
X144534462Y-77268592D01*
X144538315Y-77271143D01*
X144542127Y-77273762D01*
X144545897Y-77276450D01*
X144549625Y-77279205D01*
X144553309Y-77282027D01*
X144556948Y-77284915D01*
X144560540Y-77287869D01*
X144564085Y-77290887D01*
X144567581Y-77293968D01*
X144571027Y-77297112D01*
X144574422Y-77300317D01*
X144577764Y-77303583D01*
X144581053Y-77306908D01*
X144584288Y-77310292D01*
X144587466Y-77313733D01*
X144590587Y-77317230D01*
X144591446Y-77318213D01*
D12*
X130621548Y-72570970D02*
X130615138Y-72588505D01*
X130608747Y-72606048D01*
X130602376Y-72623594D01*
X130596023Y-72641149D01*
X130589690Y-72658705D01*
X130583376Y-72676271D01*
X130577082Y-72693839D01*
X130570806Y-72711415D01*
X130564550Y-72728993D01*
X130558313Y-72746581D01*
X130552096Y-72764170D01*
X130545898Y-72781768D01*
X130539720Y-72799368D01*
X130533560Y-72816977D01*
X130527420Y-72834588D01*
X130521299Y-72852208D01*
X130515198Y-72869829D01*
X130509115Y-72887459D01*
X130503053Y-72905092D01*
X130497009Y-72922732D01*
X130490986Y-72940375D01*
X130484980Y-72958027D01*
X130478995Y-72975680D01*
X130473029Y-72993342D01*
X130467083Y-73011006D01*
X130461155Y-73028678D01*
X130455247Y-73046353D01*
X130449358Y-73064035D01*
X130443489Y-73081720D01*
X130437639Y-73099413D01*
X130431808Y-73117108D01*
X130425997Y-73134812D01*
X130420205Y-73152517D01*
X130414432Y-73170231D01*
X130408680Y-73187947D01*
X130402945Y-73205671D01*
X130397232Y-73223397D01*
X130391536Y-73241131D01*
X130385861Y-73258867D01*
X130380204Y-73276612D01*
X130374568Y-73294358D01*
X130368950Y-73312112D01*
X130363352Y-73329869D01*
X130357773Y-73347633D01*
X130352214Y-73365400D01*
X130346674Y-73383174D01*
X130346300Y-73384376D01*
X130346300Y-73384376D02*
X130340785Y-73402140D01*
X130335289Y-73419911D01*
X130329812Y-73437690D01*
X130324353Y-73455476D01*
X130318913Y-73473269D01*
X130313492Y-73491070D01*
X130308089Y-73508878D01*
X130302705Y-73526694D01*
X130297339Y-73544517D01*
X130291993Y-73562347D01*
X130286665Y-73580185D01*
X130281355Y-73598030D01*
X130276065Y-73615882D01*
X130270793Y-73633742D01*
X130265539Y-73651608D01*
X130260305Y-73669483D01*
X130255089Y-73687364D01*
X130249892Y-73705253D01*
X130244713Y-73723149D01*
X130239554Y-73741052D01*
X130234413Y-73758962D01*
X130229290Y-73776880D01*
X130224187Y-73794805D01*
X130219102Y-73812738D01*
X130214036Y-73830677D01*
X130208989Y-73848624D01*
X130203960Y-73866578D01*
X130198950Y-73884539D01*
X130193959Y-73902507D01*
X130188987Y-73920483D01*
X130184034Y-73938465D01*
X130179099Y-73956455D01*
X130174183Y-73974452D01*
X130169286Y-73992456D01*
X130164407Y-74010467D01*
X130159548Y-74028486D01*
X130154707Y-74046511D01*
X130149885Y-74064544D01*
X130145082Y-74082584D01*
X130140297Y-74100631D01*
X130135532Y-74118685D01*
X130130785Y-74136746D01*
X130126057Y-74154814D01*
X130121348Y-74172890D01*
X130116657Y-74190972D01*
X130111986Y-74209061D01*
X130110429Y-74215108D01*
D10*
X144591446Y-77318213D02*
X144592976Y-77319989D01*
X144594490Y-77321778D01*
X144595989Y-77323578D01*
X144597472Y-77325392D01*
X144598938Y-77327217D01*
X144600389Y-77329054D01*
X144601823Y-77330902D01*
X144603241Y-77332763D01*
X144604643Y-77334634D01*
X144606028Y-77336518D01*
X144607396Y-77338411D01*
X144608747Y-77340317D01*
X144610081Y-77342232D01*
X144611399Y-77344158D01*
X144612699Y-77346094D01*
X144613982Y-77348042D01*
X144615248Y-77349998D01*
X144616496Y-77351966D01*
X144617727Y-77353942D01*
X144618940Y-77355929D01*
X144620135Y-77357923D01*
X144621314Y-77359929D01*
X144622473Y-77361943D01*
X144623615Y-77363966D01*
X144624739Y-77365997D01*
X144625845Y-77368039D01*
X144626932Y-77370087D01*
X144628002Y-77372145D01*
X144629052Y-77374210D01*
X144630085Y-77376284D01*
X144631099Y-77378365D01*
X144632095Y-77380455D01*
X144633072Y-77382550D01*
X144634030Y-77384655D01*
X144634970Y-77386766D01*
X144635891Y-77388885D01*
X144636792Y-77391009D01*
X144637676Y-77393143D01*
X144638540Y-77395280D01*
X144639386Y-77397427D01*
X144640211Y-77399577D01*
X144641019Y-77401736D01*
X144641807Y-77403899D01*
X144642576Y-77406071D01*
X144643325Y-77408245D01*
X144644056Y-77410428D01*
X144644767Y-77412614D01*
X144645459Y-77414807D01*
X144645787Y-77415870D01*
X154140870Y-75113208D02*
X154141039Y-75115497D01*
X154141188Y-75117790D01*
X154141318Y-75120081D01*
X154141427Y-75122375D01*
X154141516Y-75124667D01*
X154141585Y-75126961D01*
X154141634Y-75129254D01*
X154141663Y-75131548D01*
X154141672Y-75133841D01*
X154141661Y-75136135D01*
X154141630Y-75138427D01*
X154141578Y-75140720D01*
X154141507Y-75143011D01*
X154141416Y-75145304D01*
X154141305Y-75147593D01*
X154141173Y-75149884D01*
X154141022Y-75152171D01*
X154140850Y-75154460D01*
X154140659Y-75156745D01*
X154140448Y-75159031D01*
X154140216Y-75161313D01*
X154139965Y-75163597D01*
X154139694Y-75165876D01*
X154139402Y-75168156D01*
X154139091Y-75170432D01*
X154138759Y-75172709D01*
X154138408Y-75174980D01*
X154138037Y-75177253D01*
X154137646Y-75179521D01*
X154137234Y-75181789D01*
X154136803Y-75184052D01*
X154136352Y-75186315D01*
X154135881Y-75188574D01*
X154135390Y-75190832D01*
X154134879Y-75193085D01*
X154134348Y-75195338D01*
X154133797Y-75197586D01*
X154133226Y-75199833D01*
X154132636Y-75202075D01*
X154132025Y-75204316D01*
X154131395Y-75206552D01*
X154130744Y-75208787D01*
X154130073Y-75211016D01*
X154129383Y-75213244D01*
X154128673Y-75215467D01*
X154127942Y-75217689D01*
X154127192Y-75219905D01*
X154126421Y-75222119D01*
X154125632Y-75224328D01*
X154124821Y-75226535D01*
X154123991Y-75228736D01*
X154123141Y-75230935D01*
X154122271Y-75233129D01*
X154121380Y-75235320D01*
X154120471Y-75237506D01*
X154119540Y-75239689D01*
X154118590Y-75241867D01*
X154117620Y-75244042D01*
X154115668Y-75248273D01*
D12*
X134686874Y-90969424D02*
X134713415Y-90995909D01*
X134740016Y-91022339D01*
X134766676Y-91048716D01*
X134793395Y-91075039D01*
X134820173Y-91101307D01*
X134847009Y-91127521D01*
X134873905Y-91153681D01*
X134900859Y-91179786D01*
X134927871Y-91205836D01*
X134954943Y-91231832D01*
X134982072Y-91257773D01*
X135009260Y-91283659D01*
X135036506Y-91309490D01*
X135063811Y-91335266D01*
X135091173Y-91360986D01*
X135118593Y-91386652D01*
X135146071Y-91412262D01*
X135173607Y-91437816D01*
X135201201Y-91463315D01*
X135228852Y-91488758D01*
X135256561Y-91514146D01*
X135284327Y-91539477D01*
X135294861Y-91549059D01*
X134107238Y-90361436D02*
X134119889Y-90375340D01*
X134132555Y-90389231D01*
X134145233Y-90403106D01*
X134157927Y-90416968D01*
X134170633Y-90430814D01*
X134183355Y-90444647D01*
X134196089Y-90458464D01*
X134208838Y-90472268D01*
X134221600Y-90486057D01*
X134234376Y-90499831D01*
X134247166Y-90513591D01*
X134259970Y-90527336D01*
X134272787Y-90541067D01*
X134285619Y-90554783D01*
X134298464Y-90568484D01*
X134311323Y-90582172D01*
X134324195Y-90595844D01*
X134337082Y-90609502D01*
X134349981Y-90623145D01*
X134362895Y-90636774D01*
X134375822Y-90650387D01*
X134388764Y-90663987D01*
X134401718Y-90677571D01*
X134414687Y-90691141D01*
X134427668Y-90704696D01*
X134440664Y-90718237D01*
X134453673Y-90731763D01*
X134466696Y-90745274D01*
X134479732Y-90758770D01*
X134492782Y-90772252D01*
X134505845Y-90785719D01*
X134518923Y-90799171D01*
X134532013Y-90812608D01*
X134545117Y-90826031D01*
X134558235Y-90839438D01*
X134571366Y-90852832D01*
X134584510Y-90866209D01*
X134597669Y-90879573D01*
X134610840Y-90892921D01*
X134624025Y-90906255D01*
X134637223Y-90919574D01*
X134650435Y-90932878D01*
X134663660Y-90946167D01*
X134676899Y-90959441D01*
X134686874Y-90969424D01*
D10*
X144645787Y-77415870D02*
X144646451Y-77418074D01*
X144647097Y-77420286D01*
X144647723Y-77422502D01*
X144648330Y-77424725D01*
X144648918Y-77426951D01*
X144649486Y-77429184D01*
X144650035Y-77431420D01*
X144650564Y-77433663D01*
X144651074Y-77435909D01*
X144651565Y-77438162D01*
X144652035Y-77440416D01*
X144652487Y-77442677D01*
X144652918Y-77444940D01*
X144653330Y-77447210D01*
X144653723Y-77449481D01*
X144654096Y-77451758D01*
X144654448Y-77454036D01*
X144654782Y-77456320D01*
X144655095Y-77458605D01*
X144655389Y-77460896D01*
X144655663Y-77463188D01*
X144655917Y-77465485D01*
X144656151Y-77467783D01*
X144656365Y-77470085D01*
X144656560Y-77472389D01*
X144656735Y-77474697D01*
X144656889Y-77477005D01*
X144657024Y-77479318D01*
X144657139Y-77481630D01*
X144657234Y-77483948D01*
X144657308Y-77486265D01*
X144657363Y-77488586D01*
X144657398Y-77490906D01*
X144657413Y-77493231D01*
X144657408Y-77495555D01*
X144657383Y-77497883D01*
X144657337Y-77500210D01*
X144657272Y-77502541D01*
X144657186Y-77504870D01*
X144657081Y-77507203D01*
X144656955Y-77509535D01*
X144656809Y-77511870D01*
X144656643Y-77514204D01*
X144656457Y-77516540D01*
X144656251Y-77518875D01*
X144656024Y-77521213D01*
X144655778Y-77523549D01*
X144655511Y-77525888D01*
X144655224Y-77528225D01*
X144654916Y-77530565D01*
X144654713Y-77532034D01*
D12*
X129582114Y-79491293D02*
X129584059Y-79528883D01*
X129586084Y-79566461D01*
X129588189Y-79604025D01*
X129590372Y-79641577D01*
X129592635Y-79679115D01*
X129594978Y-79716641D01*
X129597399Y-79754154D01*
X129599900Y-79791654D01*
X129602480Y-79829141D01*
X129605140Y-79866615D01*
X129607879Y-79904077D01*
X129610697Y-79941525D01*
X129613594Y-79978961D01*
X129616571Y-80016384D01*
X129619626Y-80053794D01*
X129622761Y-80091191D01*
X129625975Y-80128576D01*
X129629269Y-80165947D01*
X129632641Y-80203306D01*
X129636093Y-80240652D01*
X129639623Y-80277985D01*
X129643233Y-80315305D01*
X129646922Y-80352613D01*
X129649712Y-80380305D01*
D10*
X149715108Y-74734266D02*
X149716321Y-74736270D01*
X149717550Y-74738264D01*
X149718797Y-74740247D01*
X149720060Y-74742219D01*
X149721340Y-74744180D01*
X149722636Y-74746130D01*
X149723949Y-74748068D01*
X149725278Y-74749995D01*
X149726623Y-74751909D01*
X149727985Y-74753812D01*
X149729362Y-74755703D01*
X149730755Y-74757582D01*
X149732164Y-74759448D01*
X149733589Y-74761302D01*
X149735028Y-74763143D01*
X149736484Y-74764971D01*
X149737954Y-74766786D01*
X149739440Y-74768588D01*
X149740940Y-74770376D01*
X149742456Y-74772151D01*
X149743985Y-74773912D01*
X149745530Y-74775660D01*
X149747089Y-74777393D01*
X149748663Y-74779114D01*
X149750249Y-74780818D01*
X149751851Y-74782510D01*
X149753466Y-74784186D01*
X149755096Y-74785849D01*
X149756738Y-74787496D01*
X149758394Y-74789129D01*
X149760063Y-74790746D01*
X149761747Y-74792349D01*
X149763442Y-74793935D01*
X149765151Y-74795508D01*
X149766872Y-74797064D01*
X149768607Y-74798605D01*
X149770353Y-74800130D01*
X149772113Y-74801640D01*
X149773883Y-74803133D01*
X149775667Y-74804611D01*
X149777462Y-74806072D01*
X149779270Y-74807518D01*
X149781088Y-74808947D01*
X149782920Y-74810360D01*
X149784761Y-74811756D01*
X149786615Y-74813136D01*
X149788479Y-74814498D01*
X149790356Y-74815846D01*
X149792241Y-74817174D01*
X149794140Y-74818488D01*
X149796047Y-74819783D01*
X149797967Y-74821062D01*
X149799895Y-74822323D01*
X149801835Y-74823568D01*
X149803784Y-74824794D01*
X149805744Y-74826004D01*
X149809482Y-74828247D01*
D12*
X147286308Y-96031949D02*
X147323986Y-96031909D01*
X147361668Y-96031789D01*
X147399353Y-96031589D01*
X147437041Y-96031309D01*
X147474732Y-96030949D01*
X147512426Y-96030510D01*
X147550123Y-96029990D01*
X147587822Y-96029390D01*
X147625523Y-96028710D01*
X147663226Y-96027950D01*
X147700931Y-96027110D01*
X147738638Y-96026190D01*
X147776346Y-96025190D01*
X147814056Y-96024111D01*
X147851767Y-96022951D01*
X147889479Y-96021711D01*
X147927192Y-96020391D01*
X147964905Y-96018990D01*
X148002619Y-96017510D01*
X148040334Y-96015950D01*
X148078048Y-96014310D01*
X148115762Y-96012590D01*
X148153476Y-96010790D01*
X148187264Y-96009109D01*
X159665394Y-90904349D02*
X159691869Y-90877818D01*
X159718291Y-90851227D01*
X159744659Y-90824576D01*
X159770974Y-90797866D01*
X159797235Y-90771096D01*
X159823442Y-90744267D01*
X159849595Y-90717379D01*
X159875694Y-90690431D01*
X159901739Y-90663425D01*
X159927729Y-90636359D01*
X159953666Y-90609235D01*
X159979548Y-90582052D01*
X160005375Y-90554809D01*
X160031148Y-90527509D01*
X160056866Y-90500149D01*
X160082529Y-90472732D01*
X160108138Y-90445255D01*
X160133691Y-90417721D01*
X160159190Y-90390128D01*
X160184633Y-90362477D01*
X160210020Y-90334768D01*
X160235353Y-90307001D01*
X160245030Y-90296363D01*
D10*
X143157060Y-100211732D02*
X144178249Y-99911677D01*
X146517790Y-76011803D02*
X146516454Y-76007370D01*
X146515042Y-76002959D01*
X146513553Y-75998573D01*
X146511989Y-75994211D01*
X146510349Y-75989876D01*
X146508635Y-75985569D01*
X146506846Y-75981291D01*
X146504982Y-75977043D01*
X146503046Y-75972826D01*
X146501037Y-75968643D01*
X146498955Y-75964494D01*
X146496802Y-75960380D01*
X146494578Y-75956304D01*
X146492284Y-75952265D01*
X146489921Y-75948267D01*
X146487488Y-75944309D01*
X146484988Y-75940393D01*
X146482421Y-75936521D01*
X146479787Y-75932694D01*
X146477089Y-75928913D01*
X146474325Y-75925179D01*
X146472920Y-75923331D01*
X146471499Y-75921494D01*
X146470062Y-75919671D01*
X146468609Y-75917859D01*
X146467142Y-75916061D01*
X146465659Y-75914275D01*
X146464106Y-75912439D01*
D12*
X135294861Y-91549059D02*
X135322558Y-91574179D01*
X135350319Y-91599248D01*
X135378143Y-91624266D01*
X135406030Y-91649234D01*
X135433980Y-91674150D01*
X135461992Y-91699015D01*
X135490067Y-91723829D01*
X135518204Y-91748591D01*
X135546404Y-91773301D01*
X135574665Y-91797959D01*
X135602989Y-91822565D01*
X135631373Y-91847119D01*
X135659820Y-91871619D01*
X135688327Y-91896067D01*
X135716896Y-91920462D01*
X135745525Y-91944804D01*
X135774215Y-91969092D01*
X135802965Y-91993327D01*
X135831776Y-92017508D01*
X135860647Y-92041635D01*
X135889578Y-92065708D01*
X135918568Y-92089726D01*
X135930151Y-92099293D01*
X132549204Y-88378518D02*
X132559735Y-88394088D01*
X132570281Y-88409645D01*
X132580842Y-88425188D01*
X132591419Y-88440718D01*
X132602009Y-88456234D01*
X132612616Y-88471737D01*
X132623237Y-88487225D01*
X132633873Y-88502702D01*
X132644524Y-88518163D01*
X132655190Y-88533612D01*
X132665870Y-88549046D01*
X132676567Y-88564468D01*
X132687277Y-88579874D01*
X132698003Y-88595269D01*
X132708743Y-88610649D01*
X132719499Y-88626016D01*
X132730268Y-88641369D01*
X132741054Y-88656709D01*
X132751853Y-88672034D01*
X132762669Y-88687347D01*
X132773498Y-88702645D01*
X132784343Y-88717931D01*
X132795202Y-88733202D01*
X132806077Y-88748460D01*
X132816966Y-88763704D01*
X132827870Y-88778935D01*
X132838789Y-88794151D01*
X132849723Y-88809355D01*
X132860671Y-88824544D01*
X132871635Y-88839721D01*
X132882613Y-88854883D01*
X132893606Y-88870032D01*
X132904613Y-88885166D01*
X132915637Y-88900289D01*
X132926673Y-88915396D01*
X132937726Y-88930490D01*
X132948793Y-88945570D01*
X132959875Y-88960638D01*
X132970971Y-88975690D01*
X132982083Y-88990730D01*
X132993208Y-89005755D01*
X133004349Y-89020768D01*
X133015504Y-89035765D01*
X133026675Y-89050750D01*
X133037222Y-89064868D01*
X163066686Y-70935395D02*
X163050514Y-70901924D01*
X163034262Y-70868473D01*
X163017931Y-70835041D01*
X163001521Y-70801630D01*
X162985033Y-70768240D01*
X162968465Y-70734870D01*
X162951818Y-70701521D01*
X162935092Y-70668193D01*
X162918288Y-70634887D01*
X162901404Y-70601601D01*
X162884443Y-70568338D01*
X162867402Y-70535096D01*
X162850283Y-70501877D01*
X162833085Y-70468680D01*
X162815810Y-70435505D01*
X162798455Y-70402353D01*
X162781023Y-70369224D01*
X162763512Y-70336118D01*
X162745923Y-70303036D01*
X162728256Y-70269977D01*
X162710512Y-70236942D01*
X162692689Y-70203931D01*
X162680000Y-70180530D01*
D10*
X141687885Y-98812388D02*
X142330393Y-100351259D01*
X141297654Y-75690875D02*
X141295234Y-75686892D01*
X141292882Y-75682867D01*
X141290599Y-75678801D01*
X141289484Y-75676753D01*
X141288386Y-75674696D01*
X141287306Y-75672629D01*
X141286244Y-75670553D01*
X141285199Y-75668468D01*
X141284172Y-75666374D01*
X141283164Y-75664272D01*
X141282173Y-75662160D01*
X141281201Y-75660041D01*
X141280247Y-75657913D01*
X141279311Y-75655778D01*
X141278394Y-75653634D01*
X141277495Y-75651484D01*
X141276615Y-75649325D01*
X141275754Y-75647160D01*
X141274911Y-75644987D01*
X141274087Y-75642808D01*
X141273282Y-75640622D01*
X141272496Y-75638430D01*
X141271729Y-75636231D01*
X141270981Y-75634026D01*
X141270252Y-75631815D01*
X141269543Y-75629599D01*
X141268852Y-75627377D01*
X141268181Y-75625150D01*
X141267530Y-75622917D01*
X141266897Y-75620681D01*
X141266284Y-75618438D01*
X141265691Y-75616192D01*
X141265117Y-75613940D01*
X141264563Y-75611685D01*
X141264029Y-75609425D01*
X141263514Y-75607163D01*
X141263019Y-75604895D01*
X141262543Y-75602625D01*
X141262087Y-75600350D01*
X141261652Y-75598074D01*
X141261235Y-75595793D01*
X141260839Y-75593511D01*
X141260463Y-75591224D01*
X141260106Y-75588937D01*
X141259770Y-75586646D01*
X141259453Y-75584354D01*
X141259156Y-75582059D01*
X141258880Y-75579763D01*
X141258623Y-75577464D01*
X141258386Y-75575165D01*
X141258169Y-75572863D01*
X141257972Y-75570562D01*
X141257796Y-75568258D01*
X141257620Y-75565654D01*
D12*
X131672269Y-70245601D02*
X131663318Y-70262100D01*
X131654384Y-70278609D01*
X131645471Y-70295120D01*
X131636576Y-70311641D01*
X131627702Y-70328165D01*
X131618846Y-70344698D01*
X131610011Y-70361234D01*
X131601193Y-70377780D01*
X131592398Y-70394327D01*
X131583619Y-70410885D01*
X131574862Y-70427444D01*
X131566123Y-70444014D01*
X131557405Y-70460585D01*
X131548704Y-70477167D01*
X131540025Y-70493750D01*
X131531364Y-70510343D01*
X131522724Y-70526937D01*
X131514102Y-70543542D01*
X131505501Y-70560148D01*
X131496918Y-70576765D01*
X131488356Y-70593382D01*
X131479812Y-70610010D01*
X131471290Y-70626638D01*
X131462785Y-70643277D01*
X131454302Y-70659917D01*
X131445836Y-70676567D01*
X131437393Y-70693218D01*
X131428966Y-70709879D01*
X131420562Y-70726541D01*
X131412175Y-70743213D01*
X131403810Y-70759886D01*
X131395462Y-70776569D01*
X131387136Y-70793253D01*
X131378828Y-70809946D01*
X131370541Y-70826641D01*
X131362273Y-70843345D01*
X131354026Y-70860050D01*
X131345796Y-70876764D01*
X131337589Y-70893480D01*
X131329399Y-70910205D01*
X131321231Y-70926930D01*
X131313080Y-70943666D01*
X131304952Y-70960402D01*
X131296841Y-70977147D01*
X131285583Y-71000466D01*
D10*
X149708676Y-74469257D02*
X149706467Y-74473473D01*
X149704337Y-74477710D01*
X149702285Y-74481968D01*
X149700312Y-74486247D01*
X149698418Y-74490546D01*
X149696602Y-74494864D01*
X149694864Y-74499202D01*
X149693205Y-74503558D01*
X149691625Y-74507932D01*
X149690122Y-74512323D01*
X149688699Y-74516732D01*
X149687354Y-74521156D01*
X149686087Y-74525597D01*
X149684899Y-74530052D01*
X149683790Y-74534523D01*
X149682759Y-74539006D01*
X149681808Y-74543503D01*
X149680935Y-74548012D01*
X149680141Y-74552533D01*
X149679426Y-74557065D01*
X149678791Y-74561607D01*
X149678235Y-74566158D01*
X149677758Y-74570717D01*
X149677361Y-74575283D01*
X149677043Y-74579857D01*
X149676804Y-74584435D01*
X149676646Y-74589019D01*
X149676567Y-74593606D01*
X149676568Y-74598195D01*
X149676649Y-74602786D01*
X149676780Y-74606683D01*
D12*
X129914985Y-82118557D02*
X129918747Y-82136892D01*
X129922528Y-82155220D01*
X129926328Y-82173541D01*
X129930147Y-82191855D01*
X129933985Y-82210162D01*
X129937842Y-82228462D01*
X129941718Y-82246755D01*
X129945613Y-82265042D01*
X129949527Y-82283321D01*
X129953460Y-82301593D01*
X129957412Y-82319858D01*
X129961382Y-82338116D01*
X129965372Y-82356367D01*
X129969380Y-82374611D01*
X129973408Y-82392848D01*
X129977454Y-82411077D01*
X129981520Y-82429299D01*
X129985604Y-82447515D01*
X129989707Y-82465723D01*
X129993829Y-82483923D01*
X129997969Y-82502117D01*
X130002129Y-82520303D01*
X130006307Y-82538482D01*
X130010505Y-82556654D01*
X130014721Y-82574818D01*
X130018956Y-82592975D01*
X130023209Y-82611125D01*
X130027482Y-82629267D01*
X130031773Y-82647402D01*
X130036084Y-82665529D01*
X130040413Y-82683649D01*
X130044760Y-82701762D01*
X130049127Y-82719867D01*
X130053512Y-82737965D01*
X130057916Y-82756055D01*
X130062339Y-82774138D01*
X130066781Y-82792213D01*
X130071241Y-82810281D01*
X130075720Y-82828341D01*
X130080218Y-82846393D01*
X130084734Y-82864438D01*
X130089269Y-82882475D01*
X130093823Y-82900505D01*
X130098396Y-82918527D01*
X130102987Y-82936541D01*
X130107597Y-82954547D01*
X130110428Y-82965565D01*
D10*
X149945728Y-74864869D02*
X153872447Y-74864869D01*
D12*
X161315046Y-68050735D02*
X161292719Y-68020946D01*
X161270313Y-67991186D01*
X161247829Y-67961455D01*
X161225266Y-67931753D01*
X161202625Y-67902080D01*
X161179906Y-67872436D01*
X161157108Y-67842821D01*
X161134233Y-67813235D01*
X161111278Y-67783679D01*
X161088246Y-67754153D01*
X161065135Y-67724656D01*
X161041945Y-67695189D01*
X161018678Y-67665751D01*
X160995332Y-67636344D01*
X160971908Y-67606966D01*
X160948406Y-67577619D01*
X160924825Y-67548302D01*
X160901166Y-67519015D01*
X160877429Y-67489759D01*
X160853614Y-67460533D01*
X160829720Y-67431337D01*
X160805748Y-67402173D01*
X160795264Y-67389457D01*
D10*
X161079174Y-57444551D02*
X161081359Y-57440305D01*
X161083465Y-57436039D01*
X161085492Y-57431754D01*
X161087439Y-57427449D01*
X161089308Y-57423127D01*
X161091097Y-57418786D01*
X161092807Y-57414428D01*
X161094438Y-57410053D01*
X161095990Y-57405662D01*
X161097463Y-57401255D01*
X161098857Y-57396833D01*
X161100172Y-57392396D01*
X161101408Y-57387945D01*
X161102565Y-57383480D01*
X161103643Y-57379003D01*
X161104641Y-57374514D01*
X161105561Y-57370013D01*
X161106401Y-57365502D01*
X161107162Y-57360981D01*
X161107844Y-57356450D01*
X161108446Y-57351911D01*
X161108969Y-57347365D01*
X161109412Y-57342811D01*
X161109775Y-57338252D01*
X161110059Y-57333687D01*
X161110264Y-57329118D01*
X161110388Y-57324547D01*
X161110433Y-57319972D01*
X161110398Y-57315397D01*
X161110283Y-57310821D01*
X161110150Y-57307518D01*
D12*
X140251564Y-62459369D02*
X140217234Y-62473933D01*
X140182932Y-62488572D01*
X140148660Y-62503284D01*
X140114418Y-62518072D01*
X140080205Y-62532934D01*
X140046021Y-62547870D01*
X140011868Y-62562880D01*
X139977745Y-62577964D01*
X139943651Y-62593123D01*
X139909588Y-62608355D01*
X139875556Y-62623662D01*
X139841554Y-62639043D01*
X139807582Y-62654497D01*
X139773641Y-62670026D01*
X139739732Y-62685628D01*
X139705853Y-62701304D01*
X139672005Y-62717054D01*
X139638189Y-62732877D01*
X139604405Y-62748774D01*
X139570651Y-62764745D01*
X139536930Y-62780788D01*
X139503241Y-62796906D01*
X139476091Y-62809959D01*
X134686875Y-66211251D02*
X134660394Y-66237788D01*
X134633967Y-66264385D01*
X134607594Y-66291041D01*
X134581275Y-66317756D01*
X134555009Y-66344531D01*
X134528798Y-66371364D01*
X134502641Y-66398257D01*
X134476538Y-66425209D01*
X134450490Y-66452219D01*
X134424496Y-66479288D01*
X134398557Y-66506416D01*
X134372672Y-66533602D01*
X134346842Y-66560847D01*
X134321067Y-66588150D01*
X134295347Y-66615512D01*
X134269682Y-66642931D01*
X134244073Y-66670409D01*
X134218518Y-66697945D01*
X134193019Y-66725539D01*
X134167575Y-66753191D01*
X134142187Y-66780900D01*
X134116854Y-66808667D01*
X134107239Y-66819238D01*
X162258529Y-87603076D02*
X162277876Y-87571158D01*
X162297158Y-87539194D01*
X162316374Y-87507183D01*
X162335525Y-87475126D01*
X162354611Y-87443023D01*
X162373630Y-87410873D01*
X162392585Y-87378678D01*
X162411473Y-87346436D01*
X162430296Y-87314147D01*
X162449053Y-87281813D01*
X162467745Y-87249432D01*
X162486371Y-87217004D01*
X162504932Y-87184531D01*
X162523426Y-87152011D01*
X162541855Y-87119445D01*
X162560218Y-87086833D01*
X162578516Y-87054175D01*
X162596748Y-87021470D01*
X162614913Y-86988719D01*
X162633013Y-86955921D01*
X162651048Y-86923078D01*
X162669016Y-86890188D01*
X162680000Y-86870000D01*
X160795264Y-67389457D02*
X160783272Y-67374942D01*
X160771265Y-67360439D01*
X160759245Y-67345953D01*
X160747210Y-67331480D01*
X160735163Y-67317024D01*
X160723101Y-67302581D01*
X160711027Y-67288155D01*
X160698938Y-67273742D01*
X160686837Y-67259345D01*
X160674720Y-67244962D01*
X160662592Y-67230596D01*
X160650449Y-67216242D01*
X160638294Y-67201906D01*
X160626123Y-67187583D01*
X160613941Y-67173277D01*
X160601744Y-67158984D01*
X160589536Y-67144708D01*
X160577312Y-67130446D01*
X160565076Y-67116200D01*
X160552826Y-67101968D01*
X160540564Y-67087754D01*
X160528287Y-67073552D01*
X160515999Y-67059368D01*
X160503696Y-67045197D01*
X160491381Y-67031043D01*
X160479051Y-67016903D01*
X160466711Y-67002780D01*
X160454355Y-66988671D01*
X160441988Y-66974579D01*
X160429606Y-66960501D01*
X160417213Y-66946440D01*
X160404805Y-66932392D01*
X160392386Y-66918363D01*
X160379952Y-66904346D01*
X160367507Y-66890348D01*
X160355048Y-66876363D01*
X160342577Y-66862395D01*
X160330092Y-66848441D01*
X160317596Y-66834505D01*
X160305085Y-66820583D01*
X160292563Y-66806678D01*
X160280027Y-66792787D01*
X160267479Y-66778914D01*
X160254917Y-66765055D01*
X160245030Y-66754167D01*
X163066686Y-86115134D02*
X163074786Y-86098302D01*
X163082868Y-86081459D01*
X163090931Y-86064611D01*
X163098976Y-86047753D01*
X163107002Y-86030888D01*
X163115011Y-86014014D01*
X163123000Y-85997134D01*
X163130972Y-85980244D01*
X163138925Y-85963349D01*
X163146860Y-85946443D01*
X163154775Y-85929531D01*
X163162673Y-85912610D01*
X163170552Y-85895683D01*
X163178414Y-85878746D01*
X163186255Y-85861804D01*
X163194080Y-85844851D01*
X163201885Y-85827893D01*
X163209672Y-85810926D01*
X163217440Y-85793952D01*
X163225191Y-85776969D01*
X163232922Y-85759980D01*
X163240635Y-85742982D01*
X163248329Y-85725978D01*
X163256006Y-85708964D01*
X163263663Y-85691945D01*
X163271302Y-85674916D01*
X163278922Y-85657882D01*
X163286525Y-85640838D01*
X163294107Y-85623788D01*
X163301673Y-85606729D01*
X163309218Y-85589665D01*
X163316746Y-85572591D01*
X163324255Y-85555512D01*
X163331746Y-85538423D01*
X163339217Y-85521329D01*
X163346671Y-85504225D01*
X163354105Y-85487116D01*
X163361522Y-85469998D01*
X163368919Y-85452874D01*
X163376298Y-85435741D01*
X163383658Y-85418603D01*
X163391000Y-85401455D01*
X163398322Y-85384302D01*
X163405627Y-85367140D01*
X163417277Y-85339662D01*
D10*
X138124357Y-77096781D02*
X138126816Y-77100741D01*
X138129343Y-77104659D01*
X138131938Y-77108534D01*
X138133260Y-77110455D01*
X138134599Y-77112365D01*
X138135954Y-77114263D01*
X138137325Y-77116150D01*
X138138713Y-77118025D01*
X138140117Y-77119888D01*
X138141536Y-77121738D01*
X138142972Y-77123577D01*
X138144423Y-77125403D01*
X138145889Y-77127217D01*
X138147371Y-77129017D01*
X138148869Y-77130805D01*
X138150381Y-77132579D01*
X138151908Y-77134341D01*
X138153450Y-77136089D01*
X138155007Y-77137823D01*
X138156579Y-77139544D01*
X138158165Y-77141251D01*
X138159765Y-77142943D01*
X138161380Y-77144622D01*
X138163008Y-77146286D01*
X138164651Y-77147937D01*
X138166307Y-77149572D01*
X138167977Y-77151193D01*
X138169660Y-77152798D01*
X138171357Y-77154390D01*
X138173066Y-77155965D01*
X138174790Y-77157527D01*
X138176525Y-77159071D01*
X138178274Y-77160602D01*
X138180034Y-77162116D01*
X138181809Y-77163615D01*
X138183594Y-77165097D01*
X138185393Y-77166565D01*
X138187202Y-77168015D01*
X138189025Y-77169450D01*
X138190858Y-77170868D01*
X138192704Y-77172271D01*
X138194560Y-77173656D01*
X138196429Y-77175026D01*
X138198308Y-77176378D01*
X138200199Y-77177714D01*
X138202100Y-77179033D01*
X138204013Y-77180335D01*
X138205934Y-77181620D01*
X138207869Y-77182888D01*
X138209811Y-77184139D01*
X138211766Y-77185373D01*
X138213729Y-77186588D01*
X138215704Y-77187788D01*
X138218732Y-77189582D01*
D12*
X137277778Y-93107094D02*
X137293360Y-93117609D01*
X137308953Y-93128107D01*
X137324552Y-93138585D01*
X137340163Y-93149047D01*
X137355780Y-93159489D01*
X137371408Y-93169914D01*
X137387042Y-93180319D01*
X137402687Y-93190708D01*
X137418338Y-93201076D01*
X137434000Y-93211428D01*
X137449668Y-93221759D01*
X137465347Y-93232074D01*
X137481031Y-93242369D01*
X137496727Y-93252647D01*
X137512427Y-93262904D01*
X137528139Y-93273145D01*
X137543856Y-93283365D01*
X137559584Y-93293569D01*
X137575317Y-93303752D01*
X137591062Y-93313918D01*
X137606810Y-93324064D01*
X137622571Y-93334193D01*
X137638335Y-93344301D01*
X137654111Y-93354393D01*
X137669892Y-93364463D01*
X137685683Y-93374518D01*
X137701479Y-93384551D01*
X137717286Y-93394567D01*
X137733097Y-93404562D01*
X137748919Y-93414541D01*
X137764745Y-93424498D01*
X137780582Y-93434439D01*
X137796423Y-93444359D01*
X137812275Y-93454262D01*
X137828130Y-93464143D01*
X137843997Y-93474008D01*
X137859867Y-93483852D01*
X137875748Y-93493679D01*
X137891633Y-93503484D01*
X137907528Y-93513273D01*
X137923427Y-93523040D01*
X137939337Y-93532790D01*
X137955249Y-93542519D01*
X137971173Y-93552231D01*
X137988147Y-93562558D01*
X162258529Y-69447453D02*
X162239135Y-69415611D01*
X162219664Y-69383797D01*
X162200116Y-69352012D01*
X162180493Y-69320256D01*
X162160794Y-69288529D01*
X162141019Y-69256831D01*
X162121168Y-69225164D01*
X162101242Y-69193526D01*
X162081240Y-69161920D01*
X162061164Y-69130344D01*
X162041012Y-69098799D01*
X162020786Y-69067286D01*
X162000485Y-69035805D01*
X161980110Y-69004356D01*
X161959661Y-68972940D01*
X161939138Y-68941556D01*
X161918541Y-68910206D01*
X161897870Y-68878890D01*
X161877126Y-68847607D01*
X161856309Y-68816359D01*
X161835419Y-68785146D01*
X161814456Y-68753967D01*
X161803064Y-68737084D01*
D10*
X138353928Y-77225676D02*
X144388521Y-77225676D01*
D12*
X160795264Y-89661072D02*
X160807281Y-89646495D01*
X160819284Y-89631904D01*
X160831262Y-89617311D01*
X160843225Y-89602705D01*
X160855165Y-89588096D01*
X160867089Y-89573475D01*
X160878990Y-89558851D01*
X160890875Y-89544213D01*
X160902737Y-89529574D01*
X160914583Y-89514921D01*
X160926406Y-89500266D01*
X160938213Y-89485598D01*
X160949997Y-89470927D01*
X160961765Y-89456244D01*
X160973510Y-89441558D01*
X160985239Y-89426860D01*
X160996944Y-89412159D01*
X161008635Y-89397445D01*
X161020301Y-89382728D01*
X161031952Y-89367999D01*
X161043580Y-89353268D01*
X161055192Y-89338523D01*
X161066781Y-89323777D01*
X161078354Y-89309018D01*
X161089903Y-89294256D01*
X161101437Y-89279482D01*
X161112947Y-89264705D01*
X161124442Y-89249916D01*
X161135914Y-89235124D01*
X161147369Y-89220320D01*
X161158802Y-89205513D01*
X161170218Y-89190694D01*
X161181612Y-89175873D01*
X161192989Y-89161039D01*
X161204343Y-89146202D01*
X161215682Y-89131354D01*
X161226997Y-89116503D01*
X161238296Y-89101639D01*
X161249572Y-89086774D01*
X161260832Y-89071895D01*
X161272069Y-89057015D01*
X161283290Y-89042122D01*
X161294488Y-89027227D01*
X161305670Y-89012320D01*
X161315046Y-88999795D01*
D10*
X143728292Y-94365756D02*
X143747061Y-94264204D01*
X143765846Y-94162130D01*
X143784648Y-94059523D01*
X143803468Y-93956374D01*
X143822308Y-93852670D01*
X143841170Y-93748402D01*
X143860054Y-93643558D01*
X143878964Y-93538126D01*
X143897900Y-93432093D01*
X143916864Y-93325448D01*
X143935859Y-93218176D01*
X143954887Y-93110263D01*
X143973948Y-93001696D01*
X143993047Y-92892459D01*
X144012184Y-92782536D01*
X144031362Y-92671912D01*
X144050584Y-92560569D01*
X144069853Y-92448490D01*
X144089170Y-92335656D01*
X144108539Y-92222046D01*
X144127963Y-92107642D01*
X144147444Y-91992422D01*
X144166986Y-91876363D01*
X144186593Y-91759442D01*
X144206267Y-91641635D01*
X144226013Y-91522914D01*
X144245835Y-91403253D01*
X144256606Y-91338026D01*
X150449365Y-57091073D02*
X150447399Y-57092303D01*
X150445443Y-57093550D01*
X150443498Y-57094813D01*
X150441564Y-57096093D01*
X150439641Y-57097390D01*
X150437730Y-57098704D01*
X150435830Y-57100033D01*
X150433941Y-57101380D01*
X150432064Y-57102742D01*
X150430199Y-57104121D01*
X150428347Y-57105515D01*
X150426506Y-57106925D01*
X150424677Y-57108351D01*
X150422861Y-57109794D01*
X150421058Y-57111251D01*
X150419266Y-57112724D01*
X150417489Y-57114212D01*
X150415723Y-57115716D01*
X150413972Y-57117234D01*
X150412233Y-57118768D01*
X150410508Y-57120316D01*
X150408796Y-57121880D01*
X150407098Y-57123458D01*
X150405413Y-57125050D01*
X150403743Y-57126657D01*
X150402086Y-57128279D01*
X150400444Y-57129914D01*
X150398815Y-57131564D01*
X150397202Y-57133227D01*
X150395602Y-57134905D01*
X150394017Y-57136595D01*
X150392447Y-57138300D01*
X150390892Y-57140018D01*
X150389351Y-57141750D01*
X150387826Y-57143494D01*
X150386315Y-57145253D01*
X150384821Y-57147023D01*
X150383341Y-57148807D01*
X150381877Y-57150603D01*
X150380428Y-57152413D01*
X150378995Y-57154234D01*
X150377577Y-57156069D01*
X150376176Y-57157914D01*
X150374790Y-57159774D01*
X150373421Y-57161643D01*
X150372067Y-57163527D01*
X150370730Y-57165420D01*
X150369408Y-57167327D01*
X150368104Y-57169244D01*
X150366815Y-57171174D01*
X150365544Y-57173113D01*
X150364288Y-57175066D01*
X150363050Y-57177028D01*
X150361828Y-57179002D01*
X150360624Y-57180986D01*
X150359435Y-57182982D01*
X150358264Y-57184987D01*
X150357110Y-57187005D01*
X150355973Y-57189031D01*
X150354853Y-57191070D01*
X150353751Y-57193116D01*
X150352665Y-57195175D01*
X150351598Y-57197242D01*
X150350547Y-57199321D01*
X150350265Y-57199886D01*
D12*
X137988147Y-93562558D02*
X138020081Y-93581914D01*
X138052060Y-93601205D01*
X138084085Y-93620429D01*
X138116155Y-93639587D01*
X138148270Y-93658680D01*
X138180431Y-93677706D01*
X138212637Y-93696666D01*
X138244889Y-93715560D01*
X138277186Y-93734387D01*
X138309528Y-93753149D01*
X138341916Y-93771844D01*
X138374349Y-93790473D01*
X138406827Y-93809036D01*
X138439351Y-93827533D01*
X138471920Y-93845963D01*
X138504534Y-93864328D01*
X138537194Y-93882625D01*
X138569898Y-93900857D01*
X138602649Y-93919022D01*
X138635444Y-93937121D01*
X138668285Y-93955153D01*
X138701171Y-93973119D01*
X138721224Y-93984030D01*
D10*
X146464106Y-75912439D02*
X146461060Y-75908931D01*
X146457953Y-75905475D01*
X146456378Y-75903767D01*
X146454787Y-75902073D01*
X146453182Y-75900392D01*
X146451563Y-75898726D01*
X146449929Y-75897073D01*
X146448281Y-75895434D01*
X146446620Y-75893810D01*
X146444944Y-75892199D01*
X146443254Y-75890604D01*
X146441550Y-75889022D01*
X146439834Y-75887456D01*
X146438103Y-75885905D01*
X146436360Y-75884368D01*
X146434603Y-75882847D01*
X146432834Y-75881341D01*
X146431051Y-75879850D01*
X146429256Y-75878375D01*
X146427449Y-75876915D01*
X146425629Y-75875472D01*
X146423796Y-75874043D01*
X146421952Y-75872632D01*
X146420096Y-75871235D01*
X146418228Y-75869856D01*
X146416348Y-75868492D01*
X146414457Y-75867145D01*
X146412554Y-75865814D01*
X146410640Y-75864500D01*
X146408715Y-75863202D01*
X146406779Y-75861921D01*
X146404832Y-75860657D01*
X146402875Y-75859411D01*
X146400907Y-75858180D01*
X146398929Y-75856968D01*
X146396940Y-75855772D01*
X146394942Y-75854594D01*
X146392933Y-75853433D01*
X146390916Y-75852290D01*
X146388887Y-75851164D01*
X146386851Y-75850056D01*
X146384803Y-75848966D01*
X146382748Y-75847893D01*
X146380683Y-75846838D01*
X146378610Y-75845802D01*
X146376526Y-75844783D01*
X146374456Y-75843792D01*
X144388521Y-77225676D02*
X144393230Y-77225716D01*
X144397927Y-77225835D01*
X144402611Y-77226034D01*
X144407281Y-77226313D01*
X144411937Y-77226670D01*
X144416578Y-77227106D01*
X144421204Y-77227621D01*
X144425813Y-77228214D01*
X144430404Y-77228886D01*
X144434978Y-77229635D01*
X144439532Y-77230462D01*
X144444067Y-77231367D01*
X144448582Y-77232349D01*
X144453075Y-77233408D01*
X144457546Y-77234544D01*
X144461994Y-77235756D01*
X144466418Y-77237045D01*
X144470817Y-77238409D01*
X144475189Y-77239849D01*
X144479535Y-77241364D01*
X144483852Y-77242953D01*
X144488141Y-77244618D01*
X144492399Y-77246356D01*
X144496627Y-77248167D01*
X144500822Y-77250052D01*
X144502321Y-77250747D01*
D12*
X163730721Y-72505899D02*
X163717843Y-72470843D01*
X163704891Y-72435819D01*
X163691866Y-72400827D01*
X163678767Y-72365868D01*
X163665596Y-72330942D01*
X163652351Y-72296048D01*
X163639034Y-72261188D01*
X163625643Y-72226361D01*
X163612180Y-72191567D01*
X163598644Y-72156807D01*
X163585035Y-72122081D01*
X163571354Y-72087388D01*
X163557600Y-72052730D01*
X163543773Y-72018106D01*
X163529874Y-71983516D01*
X163515903Y-71948961D01*
X163501860Y-71914440D01*
X163487744Y-71879955D01*
X163473557Y-71845504D01*
X163459297Y-71811089D01*
X163444965Y-71776709D01*
X163430562Y-71742365D01*
X163417277Y-71710869D01*
X130621547Y-84609703D02*
X130634424Y-84644756D01*
X130647374Y-84679776D01*
X130660398Y-84714765D01*
X130673496Y-84749721D01*
X130686666Y-84784645D01*
X130699910Y-84819536D01*
X130713227Y-84854395D01*
X130726617Y-84889221D01*
X130740080Y-84924013D01*
X130753615Y-84958773D01*
X130767224Y-84993499D01*
X130780905Y-85028191D01*
X130794659Y-85062849D01*
X130808486Y-85097474D01*
X130822385Y-85132064D01*
X130836357Y-85166620D01*
X130850400Y-85201142D01*
X130864517Y-85235629D01*
X130878705Y-85270081D01*
X130892965Y-85304498D01*
X130907298Y-85338880D01*
X130921702Y-85373227D01*
X130934992Y-85404734D01*
D10*
X141285579Y-75429540D02*
X149490000Y-58930000D01*
X138218732Y-77189582D02*
X138220724Y-77190733D01*
X138222727Y-77191867D01*
X138224737Y-77192982D01*
X138226759Y-77194080D01*
X138228787Y-77195159D01*
X138230826Y-77196221D01*
X138232871Y-77197264D01*
X138234928Y-77198291D01*
X138236990Y-77199297D01*
X138239064Y-77200287D01*
X138241143Y-77201257D01*
X138243233Y-77202210D01*
X138245328Y-77203144D01*
X138247434Y-77204060D01*
X138249545Y-77204957D01*
X138251666Y-77205836D01*
X138253792Y-77206696D01*
X138255929Y-77207538D01*
X138258070Y-77208360D01*
X138260221Y-77209165D01*
X138262377Y-77209950D01*
X138264543Y-77210718D01*
X138266713Y-77211465D01*
X138268893Y-77212195D01*
X138271077Y-77212905D01*
X138273271Y-77213597D01*
X138275468Y-77214270D01*
X138277675Y-77214924D01*
X138279886Y-77215558D01*
X138282106Y-77216175D01*
X138284330Y-77216771D01*
X138286563Y-77217349D01*
X138288799Y-77217908D01*
X138291044Y-77218447D01*
X138293293Y-77218968D01*
X138295550Y-77219469D01*
X138297811Y-77219951D01*
X138300081Y-77220414D01*
X138302353Y-77220857D01*
X138304634Y-77221282D01*
X138306918Y-77221686D01*
X138309211Y-77222072D01*
X138311506Y-77222438D01*
X138313809Y-77222785D01*
X138316116Y-77223112D01*
X138318430Y-77223420D01*
X138320748Y-77223708D01*
X138323073Y-77223977D01*
X138325401Y-77224226D01*
X138327736Y-77224455D01*
X138330074Y-77224665D01*
X138332420Y-77224855D01*
X138334769Y-77225026D01*
X138337125Y-77225177D01*
X138339483Y-77225307D01*
X138341849Y-77225419D01*
X138344218Y-77225510D01*
X138346593Y-77225581D01*
X138348971Y-77225633D01*
X138351356Y-77225664D01*
X138353928Y-77225676D01*
X157047449Y-73989507D02*
X157046207Y-73987520D01*
X157044947Y-73985544D01*
X157043671Y-73983579D01*
X157042379Y-73981625D01*
X157041069Y-73979682D01*
X157039743Y-73977750D01*
X157038402Y-73975831D01*
X157037043Y-73973922D01*
X157035669Y-73972026D01*
X157034279Y-73970142D01*
X157032873Y-73968270D01*
X157031451Y-73966411D01*
X157030014Y-73964564D01*
X157028561Y-73962730D01*
X157027094Y-73960910D01*
X157025610Y-73959101D01*
X157024112Y-73957307D01*
X157022599Y-73955525D01*
X157021072Y-73953758D01*
X157019529Y-73952004D01*
X157017973Y-73950264D01*
X157016401Y-73948538D01*
X157014817Y-73946826D01*
X157013217Y-73945128D01*
X157011604Y-73943445D01*
X157009977Y-73941776D01*
X157008337Y-73940123D01*
X157006682Y-73938483D01*
X157005015Y-73936860D01*
X157003334Y-73935250D01*
X157001641Y-73933657D01*
X156999934Y-73932078D01*
X156998215Y-73930516D01*
X156996482Y-73928968D01*
X156994739Y-73927437D01*
X156992981Y-73925921D01*
X156991213Y-73924422D01*
X156989431Y-73922937D01*
X156987639Y-73921471D01*
X156985834Y-73920018D01*
X156984018Y-73918584D01*
X156982190Y-73917165D01*
X156980351Y-73915764D01*
X156978500Y-73914378D01*
X156976640Y-73913010D01*
X156974766Y-73911657D01*
X156972884Y-73910323D01*
X156970989Y-73909005D01*
X156969086Y-73907705D01*
X156967170Y-73906420D01*
X156965246Y-73905155D01*
X156963310Y-73903905D01*
X156961366Y-73902674D01*
X156959410Y-73901459D01*
X156957446Y-73900263D01*
X156955471Y-73899084D01*
X156953205Y-73897759D01*
D12*
X133557005Y-67454528D02*
X133544987Y-67469106D01*
X133532984Y-67483697D01*
X133521005Y-67498291D01*
X133509042Y-67512897D01*
X133497102Y-67527507D01*
X133485177Y-67542129D01*
X133473276Y-67556754D01*
X133461390Y-67571391D01*
X133449528Y-67586031D01*
X133437682Y-67600685D01*
X133425859Y-67615340D01*
X133414051Y-67630009D01*
X133402267Y-67644680D01*
X133390499Y-67659364D01*
X133378754Y-67674050D01*
X133367024Y-67688749D01*
X133355318Y-67703451D01*
X133343628Y-67718165D01*
X133331961Y-67732882D01*
X133320309Y-67747611D01*
X133308681Y-67762343D01*
X133297069Y-67777088D01*
X133285480Y-67791835D01*
X133273907Y-67806595D01*
X133262357Y-67821357D01*
X133250823Y-67836132D01*
X133239312Y-67850909D01*
X133227817Y-67865698D01*
X133216345Y-67880491D01*
X133204889Y-67895295D01*
X133193456Y-67910102D01*
X133182039Y-67924922D01*
X133170646Y-67939744D01*
X133159268Y-67954578D01*
X133147914Y-67969415D01*
X133136575Y-67984264D01*
X133125259Y-67999115D01*
X133113960Y-68013979D01*
X133102683Y-68028845D01*
X133091423Y-68043724D01*
X133080186Y-68058605D01*
X133068964Y-68073498D01*
X133057766Y-68088393D01*
X133046584Y-68103301D01*
X133037223Y-68115806D01*
D10*
X145619328Y-82200361D02*
X146060224Y-79158454D01*
D12*
X164241841Y-82900491D02*
X164246462Y-82882490D01*
X164251065Y-82864481D01*
X164255649Y-82846465D01*
X164260214Y-82828441D01*
X164264760Y-82810409D01*
X164269288Y-82792369D01*
X164273797Y-82774322D01*
X164278287Y-82756268D01*
X164282759Y-82738205D01*
X164287212Y-82720136D01*
X164291646Y-82702058D01*
X164296061Y-82683973D01*
X164300458Y-82665881D01*
X164304836Y-82647781D01*
X164309195Y-82629674D01*
X164313535Y-82611559D01*
X164317857Y-82593436D01*
X164322160Y-82575307D01*
X164326444Y-82557169D01*
X164330709Y-82539025D01*
X164334955Y-82520873D01*
X164339183Y-82502714D01*
X164343391Y-82484547D01*
X164347581Y-82466373D01*
X164351752Y-82448192D01*
X164355904Y-82430004D01*
X164360038Y-82411808D01*
X164364152Y-82393605D01*
X164368248Y-82375395D01*
X164372324Y-82357177D01*
X164376382Y-82338953D01*
X164380421Y-82320721D01*
X164384441Y-82302482D01*
X164388442Y-82284236D01*
X164392424Y-82265983D01*
X164396388Y-82247722D01*
X164400332Y-82229455D01*
X164404257Y-82211181D01*
X164408164Y-82192899D01*
X164412051Y-82174611D01*
X164415920Y-82156315D01*
X164419769Y-82138013D01*
X164423600Y-82119703D01*
X164427412Y-82101387D01*
X164431204Y-82083063D01*
X164434978Y-82064733D01*
X164437284Y-82053482D01*
D10*
X157059524Y-74250842D02*
X157061614Y-74246558D01*
X157063625Y-74242255D01*
X157065556Y-74237934D01*
X157067408Y-74233596D01*
X157069181Y-74229240D01*
X157070874Y-74224867D01*
X157072489Y-74220478D01*
X157074024Y-74216073D01*
X157075479Y-74211653D01*
X157076856Y-74207219D01*
X157078153Y-74202771D01*
X157079372Y-74198309D01*
X157080511Y-74193834D01*
X157081571Y-74189348D01*
X157082551Y-74184850D01*
X157083453Y-74180341D01*
X157084275Y-74175822D01*
X157085017Y-74171293D01*
X157085681Y-74166756D01*
X157086264Y-74162211D01*
X157086769Y-74157659D01*
X157087193Y-74153101D01*
X157087538Y-74148538D01*
X157087803Y-74143969D01*
X157087989Y-74139398D01*
X157088095Y-74134823D01*
X157088121Y-74130247D01*
X157088067Y-74125671D01*
X157087933Y-74121094D01*
X157087719Y-74116519D01*
X157087614Y-74114728D01*
D12*
X164702557Y-76735298D02*
X164698724Y-76697950D01*
X164694812Y-76660619D01*
X164690822Y-76623307D01*
X164686753Y-76586013D01*
X164682606Y-76548738D01*
X164678381Y-76511481D01*
X164674077Y-76474243D01*
X164669694Y-76437024D01*
X164665234Y-76399823D01*
X164660695Y-76362642D01*
X164656078Y-76325480D01*
X164651383Y-76288337D01*
X164646609Y-76251213D01*
X164641758Y-76214109D01*
X164636828Y-76177024D01*
X164631820Y-76139960D01*
X164626735Y-76102915D01*
X164621571Y-76065890D01*
X164616329Y-76028885D01*
X164611010Y-75991900D01*
X164605612Y-75954935D01*
X164600137Y-75917991D01*
X164594584Y-75881068D01*
X164591249Y-75859150D01*
X162680000Y-70180530D02*
X162671044Y-70164065D01*
X162662072Y-70147611D01*
X162653083Y-70131169D01*
X162644077Y-70114738D01*
X162635056Y-70098319D01*
X162626017Y-70081911D01*
X162616962Y-70065516D01*
X162607891Y-70049131D01*
X162598803Y-70032758D01*
X162589699Y-70016396D01*
X162580578Y-70000046D01*
X162571441Y-69983707D01*
X162562287Y-69967381D01*
X162553117Y-69951065D01*
X162543930Y-69934761D01*
X162534727Y-69918469D01*
X162525508Y-69902188D01*
X162516272Y-69885919D01*
X162507019Y-69869661D01*
X162497750Y-69853414D01*
X162488465Y-69837180D01*
X162479163Y-69820956D01*
X162469845Y-69804745D01*
X162460510Y-69788544D01*
X162451159Y-69772356D01*
X162441791Y-69756179D01*
X162432407Y-69740013D01*
X162423006Y-69723859D01*
X162413590Y-69707717D01*
X162404156Y-69691585D01*
X162394707Y-69675466D01*
X162385240Y-69659358D01*
X162375758Y-69643262D01*
X162366258Y-69627176D01*
X162356743Y-69611103D01*
X162347211Y-69595041D01*
X162337663Y-69578991D01*
X162328098Y-69562952D01*
X162318517Y-69546925D01*
X162308919Y-69530909D01*
X162299305Y-69514905D01*
X162289675Y-69498912D01*
X162280028Y-69482931D01*
X162270365Y-69466961D01*
X162258529Y-69447453D01*
X153305675Y-94969676D02*
X153340730Y-94956798D01*
X153375752Y-94943847D01*
X153410742Y-94930823D01*
X153445700Y-94917725D01*
X153480624Y-94904555D01*
X153515516Y-94891311D01*
X153550374Y-94877994D01*
X153585200Y-94864604D01*
X153619991Y-94851142D01*
X153654749Y-94837607D01*
X153689474Y-94823999D01*
X153724164Y-94810318D01*
X153758820Y-94796565D01*
X153793442Y-94782740D01*
X153828029Y-94768842D01*
X153862582Y-94754872D01*
X153897100Y-94740830D01*
X153931583Y-94726715D01*
X153966031Y-94712529D01*
X154000443Y-94698270D01*
X154034820Y-94683940D01*
X154051996Y-94676748D01*
X154069162Y-94669538D01*
X154100706Y-94656232D01*
D10*
X144350458Y-95531987D02*
X144337614Y-95561381D01*
X144324295Y-95592056D01*
X144310401Y-95624254D01*
X144295789Y-95658311D01*
X144280250Y-95694723D01*
X144263457Y-95734269D01*
X144244832Y-95778323D01*
X144223149Y-95829794D01*
X144193866Y-95899481D01*
X144168143Y-95960702D01*
X144155265Y-95991307D01*
X144142366Y-96021904D01*
X144129441Y-96052492D01*
X144116481Y-96083068D01*
X144103482Y-96113629D01*
X144090435Y-96144174D01*
X150350265Y-57199886D02*
X149490000Y-58930000D01*
X160976924Y-57087136D02*
X160974936Y-57085982D01*
X160972936Y-57084845D01*
X160970928Y-57083727D01*
X160968910Y-57082626D01*
X160966885Y-57081543D01*
X160964848Y-57080477D01*
X160962805Y-57079431D01*
X160960750Y-57078401D01*
X160958690Y-57077391D01*
X160956618Y-57076397D01*
X160954541Y-57075423D01*
X160952453Y-57074466D01*
X160950359Y-57073529D01*
X160948255Y-57072608D01*
X160946145Y-57071708D01*
X160944025Y-57070824D01*
X160941899Y-57069960D01*
X160939764Y-57069114D01*
X160937623Y-57068287D01*
X160935472Y-57067478D01*
X160933317Y-57066689D01*
X160931152Y-57065917D01*
X160928982Y-57065165D01*
X160926803Y-57064430D01*
X160924619Y-57063716D01*
X160922425Y-57063019D01*
X160920228Y-57062342D01*
X160918021Y-57061684D01*
X160915810Y-57061045D01*
X160913590Y-57060424D01*
X160911366Y-57059823D01*
X160909133Y-57059240D01*
X160906896Y-57058677D01*
X160904651Y-57058133D01*
X160902402Y-57057608D01*
X160900144Y-57057102D01*
X160897883Y-57056615D01*
X160895614Y-57056148D01*
X160893341Y-57055700D01*
X160891059Y-57055271D01*
X160888775Y-57054861D01*
X160886482Y-57054471D01*
X160884187Y-57054100D01*
X160881883Y-57053749D01*
X160879576Y-57053417D01*
X160877262Y-57053104D01*
X160874944Y-57052812D01*
X160872619Y-57052538D01*
X160870291Y-57052284D01*
X160867955Y-57052050D01*
X160865617Y-57051836D01*
X160863271Y-57051641D01*
X160860923Y-57051466D01*
X160858567Y-57051310D01*
X160856209Y-57051175D01*
X160853843Y-57051059D01*
X160851475Y-57050963D01*
X160849100Y-57050887D01*
X160846722Y-57050830D01*
X160844338Y-57050794D01*
X160841204Y-57050777D01*
D12*
X130110429Y-74215108D02*
X130105808Y-74233110D01*
X130101205Y-74251120D01*
X130096621Y-74269137D01*
X130092055Y-74287162D01*
X130087509Y-74305195D01*
X130082981Y-74323236D01*
X130078471Y-74341284D01*
X130073981Y-74359339D01*
X130069509Y-74377402D01*
X130065056Y-74395473D01*
X130060622Y-74413551D01*
X130056206Y-74431636D01*
X130051809Y-74449730D01*
X130047431Y-74467830D01*
X130043072Y-74485938D01*
X130038732Y-74504054D01*
X130034410Y-74522177D01*
X130030107Y-74540307D01*
X130025823Y-74558445D01*
X130021558Y-74576590D01*
X130017311Y-74594742D01*
X130013084Y-74612902D01*
X130008875Y-74631069D01*
X130004685Y-74649243D01*
X130000514Y-74667425D01*
X129996362Y-74685614D01*
X129992228Y-74703810D01*
X129988114Y-74722013D01*
X129984018Y-74740224D01*
X129979941Y-74758442D01*
X129975884Y-74776666D01*
X129971845Y-74794898D01*
X129967825Y-74813138D01*
X129963823Y-74831384D01*
X129959841Y-74849637D01*
X129955878Y-74867898D01*
X129951934Y-74886165D01*
X129948008Y-74904440D01*
X129944102Y-74922721D01*
X129940214Y-74941010D01*
X129936346Y-74959305D01*
X129932496Y-74977608D01*
X129928666Y-74995917D01*
X129924854Y-75014234D01*
X129921061Y-75032557D01*
X129917288Y-75050887D01*
X129914986Y-75062117D01*
X129582115Y-77689380D02*
X129581169Y-77708247D01*
X129580242Y-77727120D01*
X129579336Y-77745987D01*
X129578449Y-77764860D01*
X129577583Y-77783727D01*
X129576736Y-77802600D01*
X129575910Y-77821467D01*
X129575104Y-77840340D01*
X129574317Y-77859207D01*
X129573551Y-77878079D01*
X129572805Y-77896946D01*
X129572079Y-77915817D01*
X129571373Y-77934684D01*
X129570686Y-77953555D01*
X129570020Y-77972421D01*
X129569374Y-77991292D01*
X129568748Y-78010157D01*
X129568142Y-78029028D01*
X129567556Y-78047893D01*
X129566990Y-78066762D01*
X129566445Y-78085626D01*
X129565919Y-78104495D01*
X129565413Y-78123358D01*
X129564927Y-78142226D01*
X129564461Y-78161088D01*
X129564016Y-78179955D01*
X129563590Y-78198817D01*
X129563184Y-78217683D01*
X129562799Y-78236543D01*
X129562433Y-78255408D01*
X129562087Y-78274267D01*
X129561762Y-78293130D01*
X129561456Y-78311988D01*
X129561171Y-78330850D01*
X129560905Y-78349707D01*
X129560660Y-78368568D01*
X129560434Y-78387422D01*
X129560229Y-78406282D01*
X129560043Y-78425135D01*
X129559878Y-78443993D01*
X129559733Y-78462845D01*
X129559607Y-78481701D01*
X129559502Y-78500551D01*
X129559417Y-78519406D01*
X129559351Y-78538254D01*
X129559306Y-78557107D01*
X129559275Y-78590338D01*
D10*
X149809482Y-74828247D02*
X149811465Y-74829403D01*
X149813460Y-74830543D01*
X149815462Y-74831663D01*
X149817476Y-74832768D01*
X149819497Y-74833853D01*
X149821529Y-74834922D01*
X149823568Y-74835971D01*
X149825618Y-74837004D01*
X149827675Y-74838018D01*
X149829743Y-74839015D01*
X149831817Y-74839992D01*
X149833902Y-74840953D01*
X149835993Y-74841894D01*
X149838095Y-74842818D01*
X149840202Y-74843722D01*
X149842320Y-74844609D01*
X149844443Y-74845477D01*
X149846576Y-74846328D01*
X149848715Y-74847158D01*
X149850864Y-74847972D01*
X149853017Y-74848765D01*
X149855181Y-74849541D01*
X149857350Y-74850298D01*
X149859528Y-74851036D01*
X149861711Y-74851755D01*
X149863903Y-74852456D01*
X149866100Y-74853138D01*
X149868306Y-74853801D01*
X149870516Y-74854444D01*
X149872736Y-74855070D01*
X149874959Y-74855675D01*
X149877192Y-74856263D01*
X149879428Y-74856830D01*
X149881673Y-74857380D01*
X149883922Y-74857909D01*
X149886180Y-74858420D01*
X149888441Y-74858911D01*
X149890711Y-74859384D01*
X149892984Y-74859836D01*
X149895265Y-74860270D01*
X149897550Y-74860684D01*
X149899843Y-74861079D01*
X149902139Y-74861455D01*
X149904443Y-74861811D01*
X149906751Y-74862148D01*
X149909066Y-74862465D01*
X149911384Y-74862763D01*
X149913710Y-74863041D01*
X149916038Y-74863300D01*
X149918374Y-74863539D01*
X149920713Y-74863759D01*
X149923060Y-74863958D01*
X149925409Y-74864138D01*
X149927765Y-74864299D01*
X149930124Y-74864439D01*
X149932490Y-74864560D01*
X149934858Y-74864661D01*
X149937234Y-74864742D01*
X149939612Y-74864803D01*
X149941997Y-74864845D01*
X149945728Y-74864869D01*
D12*
X146720000Y-96020000D02*
X146719116Y-96020113D01*
X146718389Y-96020228D01*
X146717901Y-96020325D01*
X146717522Y-96020423D01*
X146717296Y-96020502D01*
X146717137Y-96020581D01*
X146717061Y-96020640D01*
X146717022Y-96020700D01*
X146717017Y-96020746D01*
X146717033Y-96020792D01*
X146717135Y-96020889D01*
X146717396Y-96021013D01*
X146717937Y-96021171D01*
X146718918Y-96021369D01*
X146720543Y-96021609D01*
X146723055Y-96021894D01*
X146726733Y-96022226D01*
X146731888Y-96022608D01*
X146738856Y-96023040D01*
X146747987Y-96023523D01*
X146759624Y-96024056D01*
X146774087Y-96024636D01*
X146791644Y-96025257D01*
X146812484Y-96025913D01*
X146836688Y-96026593D01*
X146864214Y-96027284D01*
X146894883Y-96027972D01*
X146928392Y-96028641D01*
X146946123Y-96028965D01*
X146964332Y-96029278D01*
X146983067Y-96029579D01*
X147002227Y-96029867D01*
X147021714Y-96030139D01*
X147041565Y-96030397D01*
X147061553Y-96030636D01*
X147081842Y-96030858D01*
X147102092Y-96031059D01*
X147122580Y-96031242D01*
X147142876Y-96031403D01*
X147163352Y-96031545D01*
X147183508Y-96031665D01*
X147203787Y-96031764D01*
X147223645Y-96031842D01*
X147243576Y-96031899D01*
X147263007Y-96031934D01*
X147282467Y-96031949D01*
X147286308Y-96031949D01*
D10*
X154099524Y-74989694D02*
X154101991Y-74993658D01*
X154104391Y-74997665D01*
X154105565Y-74999684D01*
X154106722Y-75001713D01*
X154107862Y-75003752D01*
X154108984Y-75005801D01*
X154110089Y-75007860D01*
X154111176Y-75009928D01*
X154112245Y-75012005D01*
X154113296Y-75014091D01*
X154114330Y-75016185D01*
X154115345Y-75018289D01*
X154116342Y-75020401D01*
X154117321Y-75022521D01*
X154118281Y-75024649D01*
X154119224Y-75026785D01*
X154120147Y-75028928D01*
X154121052Y-75031080D01*
X154121939Y-75033238D01*
X154122806Y-75035404D01*
X154123655Y-75037576D01*
X154124485Y-75039755D01*
X154125296Y-75041940D01*
X154126088Y-75044132D01*
X154126861Y-75046330D01*
X154127615Y-75048534D01*
X154128349Y-75050743D01*
X154129065Y-75052958D01*
X154129761Y-75055178D01*
X154130437Y-75057404D01*
X154131094Y-75059634D01*
X154131732Y-75061870D01*
X154132350Y-75064109D01*
X154132949Y-75066354D01*
X154133528Y-75068601D01*
X154134088Y-75070855D01*
X154134627Y-75073110D01*
X154135147Y-75075371D01*
X154135647Y-75077633D01*
X154136128Y-75079901D01*
X154136588Y-75082170D01*
X154137029Y-75084443D01*
X154137450Y-75086718D01*
X154137851Y-75088997D01*
X154138232Y-75091277D01*
X154138593Y-75093561D01*
X154138935Y-75095844D01*
X154139256Y-75098133D01*
X154139557Y-75100420D01*
X154139838Y-75102712D01*
X154140100Y-75105002D01*
X154140341Y-75107296D01*
X154140562Y-75109589D01*
X154140763Y-75111886D01*
X154140870Y-75113208D01*
D12*
X164591249Y-75859150D02*
X164585566Y-75822224D01*
X164579805Y-75785312D01*
X164573965Y-75748415D01*
X164568046Y-75711531D01*
X164562048Y-75674662D01*
X164555972Y-75637807D01*
X164549817Y-75600966D01*
X164543584Y-75564140D01*
X164537271Y-75527328D01*
X164530881Y-75490532D01*
X164524411Y-75453750D01*
X164517863Y-75416983D01*
X164511236Y-75380230D01*
X164504531Y-75343493D01*
X164497748Y-75306771D01*
X164490885Y-75270065D01*
X164483945Y-75233374D01*
X164476926Y-75196698D01*
X164469828Y-75160038D01*
X164462652Y-75123393D01*
X164455398Y-75086764D01*
X164448065Y-75050151D01*
X164440654Y-75013554D01*
X164437284Y-74997047D01*
X163730721Y-84544631D02*
X163737130Y-84527099D01*
X163743521Y-84509557D01*
X163749891Y-84492014D01*
X163756243Y-84474462D01*
X163762575Y-84456907D01*
X163768889Y-84439343D01*
X163775182Y-84421778D01*
X163781458Y-84404203D01*
X163787712Y-84386626D01*
X163793949Y-84369041D01*
X163800165Y-84351453D01*
X163806363Y-84333857D01*
X163812541Y-84316258D01*
X163818701Y-84298650D01*
X163824840Y-84281041D01*
X163830961Y-84263423D01*
X163837061Y-84245802D01*
X163843143Y-84228173D01*
X163849205Y-84210542D01*
X163855249Y-84192902D01*
X163861272Y-84175260D01*
X163867277Y-84157609D01*
X163873262Y-84139957D01*
X163879228Y-84122295D01*
X163885174Y-84104632D01*
X163891102Y-84086960D01*
X163897010Y-84069286D01*
X163902899Y-84051604D01*
X163908767Y-84033919D01*
X163914618Y-84016226D01*
X163920448Y-83998531D01*
X163926260Y-83980828D01*
X163932051Y-83963122D01*
X163937824Y-83945408D01*
X163943577Y-83927692D01*
X163949311Y-83909968D01*
X163955025Y-83892242D01*
X163960721Y-83874507D01*
X163966396Y-83856770D01*
X163972053Y-83839025D01*
X163977690Y-83821278D01*
X163983308Y-83803523D01*
X163988906Y-83785766D01*
X163994486Y-83768001D01*
X164000045Y-83750233D01*
X164005586Y-83732458D01*
X164005969Y-83731225D01*
X139476091Y-62809959D02*
X139442619Y-62826132D01*
X139409166Y-62842384D01*
X139375734Y-62858716D01*
X139342322Y-62875126D01*
X139308930Y-62891615D01*
X139275560Y-62908184D01*
X139242210Y-62924831D01*
X139208881Y-62941557D01*
X139175574Y-62958362D01*
X139142288Y-62975246D01*
X139109024Y-62992208D01*
X139075782Y-63009249D01*
X139042562Y-63026368D01*
X139009364Y-63043566D01*
X138976189Y-63060842D01*
X138943037Y-63078197D01*
X138909907Y-63095629D01*
X138876801Y-63113140D01*
X138843718Y-63130729D01*
X138810659Y-63148396D01*
X138777624Y-63166141D01*
X138744613Y-63183964D01*
X138721225Y-63196646D01*
D10*
X151280755Y-81550501D02*
X151233167Y-81647265D01*
X151185036Y-81744950D01*
X151136345Y-81843594D01*
X151087072Y-81943237D01*
X151037195Y-82043922D01*
X150986689Y-82145697D01*
X150935529Y-82248611D01*
X150883686Y-82352720D01*
X150831130Y-82458083D01*
X150777828Y-82564763D01*
X150723743Y-82672833D01*
X150668835Y-82782369D01*
X150613061Y-82893456D01*
X150556373Y-83006187D01*
X150498716Y-83120668D01*
X150440031Y-83237013D01*
X150380251Y-83355353D01*
X150319301Y-83475834D01*
X150257095Y-83598622D01*
X150193535Y-83723906D01*
X150128509Y-83851906D01*
X150061887Y-83982874D01*
X149993514Y-84117108D01*
X149923210Y-84254961D01*
X149850754Y-84396859D01*
X149775880Y-84543320D01*
X149721409Y-84649767D01*
D12*
X130934992Y-85404734D02*
X130949553Y-85439057D01*
X130964188Y-85473352D01*
X130978898Y-85507618D01*
X130993683Y-85541855D01*
X131008543Y-85576062D01*
X131023477Y-85610241D01*
X131038485Y-85644391D01*
X131053568Y-85678511D01*
X131068725Y-85712602D01*
X131083957Y-85746663D01*
X131099263Y-85780694D01*
X131114643Y-85814695D01*
X131130097Y-85848666D01*
X131145626Y-85882607D01*
X131161229Y-85916518D01*
X131176905Y-85950398D01*
X131192656Y-85984248D01*
X131208481Y-86018067D01*
X131224379Y-86051856D01*
X131240351Y-86085613D01*
X131256397Y-86119339D01*
X131272517Y-86153034D01*
X131285582Y-86180208D01*
X129559275Y-78590338D02*
X129559315Y-78628014D01*
X129559435Y-78665694D01*
X129559635Y-78703377D01*
X129559915Y-78741064D01*
X129560275Y-78778754D01*
X129560714Y-78816447D01*
X129561234Y-78854144D01*
X129561834Y-78891843D01*
X129562514Y-78929545D01*
X129563274Y-78967249D01*
X129564114Y-79004956D01*
X129565034Y-79042664D01*
X129566034Y-79080375D01*
X129567114Y-79118088D01*
X129568274Y-79155802D01*
X129569514Y-79193518D01*
X129570834Y-79231235D01*
X129572234Y-79268953D01*
X129573714Y-79306672D01*
X129575275Y-79344392D01*
X129576915Y-79382113D01*
X129578635Y-79419834D01*
X129580436Y-79457555D01*
X129582114Y-79491293D01*
D13*
G36*
X121081776Y-58028091D02*
G01*
X121082101Y-58028489D01*
X121082425Y-58028876D01*
X121083075Y-58029616D01*
X121083727Y-58030319D01*
X121084383Y-58030990D01*
X121085044Y-58031636D01*
X121085711Y-58032263D01*
X121086386Y-58032878D01*
X121087070Y-58033488D01*
X121086951Y-58033390D01*
X121086827Y-58033297D01*
X121086698Y-58033210D01*
X121086564Y-58033128D01*
X121086286Y-58032977D01*
X121085996Y-58032838D01*
X121085697Y-58032709D01*
X121085393Y-58032586D01*
X121084784Y-58032340D01*
X121084487Y-58032210D01*
X121084198Y-58032069D01*
X121083922Y-58031914D01*
X121083790Y-58031830D01*
X121083663Y-58031740D01*
X121083541Y-58031646D01*
X121083424Y-58031545D01*
X121083312Y-58031437D01*
X121083207Y-58031323D01*
X121083109Y-58031201D01*
X121083018Y-58031071D01*
X121082935Y-58030933D01*
X121082860Y-58030785D01*
X121081727Y-58028082D01*
X121081776Y-58028091D01*
G37*
D10*
X142091897Y-95681358D02*
X141669771Y-98671288D01*
D12*
X129761020Y-75924220D02*
X129758211Y-75942671D01*
X129755421Y-75961129D01*
X129752651Y-75979590D01*
X129749900Y-75998058D01*
X129747168Y-76016530D01*
X129744456Y-76035009D01*
X129741764Y-76053492D01*
X129739090Y-76071981D01*
X129736437Y-76090474D01*
X129733802Y-76108973D01*
X129731188Y-76127476D01*
X129728592Y-76145986D01*
X129726017Y-76164500D01*
X129723460Y-76183020D01*
X129720924Y-76201544D01*
X129718406Y-76220074D01*
X129715908Y-76238608D01*
X129713430Y-76257148D01*
X129710971Y-76275692D01*
X129708532Y-76294243D01*
X129706112Y-76312797D01*
X129703712Y-76331357D01*
X129701331Y-76349922D01*
X129698970Y-76368492D01*
X129696628Y-76387066D01*
X129694306Y-76405647D01*
X129692003Y-76424231D01*
X129689720Y-76442821D01*
X129687457Y-76461415D01*
X129685213Y-76480015D01*
X129682988Y-76498619D01*
X129680783Y-76517228D01*
X129678598Y-76535842D01*
X129676432Y-76554461D01*
X129674286Y-76573084D01*
X129672160Y-76591713D01*
X129670053Y-76610346D01*
X129667965Y-76628985D01*
X129665898Y-76647627D01*
X129663850Y-76666275D01*
X129661821Y-76684927D01*
X129659812Y-76703585D01*
X129657823Y-76722246D01*
X129655853Y-76740913D01*
X129653903Y-76759583D01*
X129651972Y-76778260D01*
X129649713Y-76800368D01*
D10*
X143132249Y-97373538D02*
X143141405Y-97330216D01*
X143150723Y-97285748D01*
X143160226Y-97240008D01*
X143169945Y-97192845D01*
X143179915Y-97144072D01*
X143190182Y-97093456D01*
X143200805Y-97040695D01*
X143211859Y-96985389D01*
X143223454Y-96926986D01*
X143235743Y-96864687D01*
X143248969Y-96797246D01*
X143263547Y-96722515D01*
X143280327Y-96636113D01*
X143301719Y-96525616D01*
X143306677Y-96499981D01*
X143330166Y-96378611D01*
X143341936Y-96317934D01*
X143353737Y-96257266D01*
X143365580Y-96196611D01*
X143377474Y-96135971D01*
X143389430Y-96075351D01*
X143395435Y-96045048D01*
X143401459Y-96014752D01*
D12*
X163417277Y-71710869D02*
X163402710Y-71676532D01*
X163388068Y-71642224D01*
X163373353Y-71607946D01*
X163358563Y-71573698D01*
X163343698Y-71539479D01*
X163328760Y-71505291D01*
X163313748Y-71471133D01*
X163298661Y-71437006D01*
X163283501Y-71402908D01*
X163268266Y-71368842D01*
X163252958Y-71334806D01*
X163237576Y-71300801D01*
X163222120Y-71266827D01*
X163206590Y-71232884D01*
X163190987Y-71198972D01*
X163175310Y-71165092D01*
X163159560Y-71131243D01*
X163143736Y-71097426D01*
X163127839Y-71063641D01*
X163111868Y-71029888D01*
X163095824Y-70996167D01*
X163079707Y-70962478D01*
X163066686Y-70935395D01*
X164591249Y-81191380D02*
X164594059Y-81172926D01*
X164596849Y-81154465D01*
X164599620Y-81136000D01*
X164602371Y-81117529D01*
X164605103Y-81099054D01*
X164607815Y-81080573D01*
X164610508Y-81062087D01*
X164613182Y-81043596D01*
X164615836Y-81025100D01*
X164618470Y-81006599D01*
X164621085Y-80988093D01*
X164623681Y-80969581D01*
X164626257Y-80951065D01*
X164628814Y-80932544D01*
X164631351Y-80914018D01*
X164633868Y-80895486D01*
X164636366Y-80876950D01*
X164638845Y-80858409D01*
X164641304Y-80839863D01*
X164643743Y-80821312D01*
X164646163Y-80802756D01*
X164648564Y-80784195D01*
X164650944Y-80765630D01*
X164653306Y-80747058D01*
X164655647Y-80728484D01*
X164657970Y-80709903D01*
X164660272Y-80691318D01*
X164662556Y-80672728D01*
X164664819Y-80654134D01*
X164667063Y-80635534D01*
X164669287Y-80616930D01*
X164671492Y-80598320D01*
X164673677Y-80579707D01*
X164675843Y-80561088D01*
X164677989Y-80542466D01*
X164680116Y-80523837D01*
X164682222Y-80505206D01*
X164684310Y-80486568D01*
X164686377Y-80467927D01*
X164688425Y-80449280D01*
X164690454Y-80430629D01*
X164692463Y-80411973D01*
X164694452Y-80393313D01*
X164696421Y-80374648D01*
X164698371Y-80355979D01*
X164700301Y-80337305D01*
X164702557Y-80315233D01*
D10*
X152898904Y-73862187D02*
X152894139Y-73862147D01*
X152889392Y-73862028D01*
X152884665Y-73861829D01*
X152879957Y-73861551D01*
X152875269Y-73861195D01*
X152870602Y-73860760D01*
X152865955Y-73860247D01*
X152861330Y-73859657D01*
X152856726Y-73858988D01*
X152852144Y-73858243D01*
X152847585Y-73857420D01*
X152843048Y-73856520D01*
X152838536Y-73855544D01*
X152834047Y-73854491D01*
X152829583Y-73853362D01*
X152825145Y-73852157D01*
X152820732Y-73850877D01*
X152816346Y-73849521D01*
X152811988Y-73848091D01*
X152807657Y-73846585D01*
X152803355Y-73845005D01*
X152799082Y-73843351D01*
X152794839Y-73841623D01*
X152790628Y-73839821D01*
X152786448Y-73837946D01*
X152782301Y-73835998D01*
X152778187Y-73833978D01*
X152774107Y-73831886D01*
X152770063Y-73829722D01*
X152766055Y-73827487D01*
X152763184Y-73825829D01*
X138115038Y-76833609D02*
X138112889Y-76837865D01*
X138110820Y-76842141D01*
X138108830Y-76846436D01*
X138106918Y-76850751D01*
X138105086Y-76855084D01*
X138103332Y-76859435D01*
X138101658Y-76863804D01*
X138100062Y-76868190D01*
X138098545Y-76872592D01*
X138097107Y-76877010D01*
X138095748Y-76881443D01*
X138094468Y-76885891D01*
X138093267Y-76890353D01*
X138092145Y-76894828D01*
X138091102Y-76899316D01*
X138090138Y-76903816D01*
X138089253Y-76908327D01*
X138088447Y-76912849D01*
X138087721Y-76917381D01*
X138087074Y-76921921D01*
X138086506Y-76926470D01*
X138086018Y-76931025D01*
X138085610Y-76935588D01*
X138085281Y-76940155D01*
X138085032Y-76944728D01*
X138084863Y-76949304D01*
X138084773Y-76953882D01*
X138084763Y-76958463D01*
X138084833Y-76963043D01*
X138084983Y-76967624D01*
X138085112Y-76970380D01*
X149490000Y-58930000D02*
X157571169Y-58930000D01*
D12*
X149952423Y-95830205D02*
X149989359Y-95824521D01*
X150026280Y-95818758D01*
X150063186Y-95812916D01*
X150100078Y-95806996D01*
X150136954Y-95800997D01*
X150173816Y-95794919D01*
X150210663Y-95788763D01*
X150247495Y-95782528D01*
X150284311Y-95776215D01*
X150321112Y-95769823D01*
X150357898Y-95763353D01*
X150394668Y-95756804D01*
X150431423Y-95750177D01*
X150468162Y-95743472D01*
X150504885Y-95736688D01*
X150541593Y-95729825D01*
X150578284Y-95722884D01*
X150614959Y-95715865D01*
X150651618Y-95708768D01*
X150688261Y-95701592D01*
X150724888Y-95694338D01*
X150761498Y-95687006D01*
X150798092Y-95679595D01*
X150814527Y-95676240D01*
D10*
X146562550Y-90834522D02*
X146536843Y-90886256D01*
X146511155Y-90937997D01*
X146485789Y-90989135D01*
X146460442Y-91040280D01*
X146435403Y-91090849D01*
X146410383Y-91141425D01*
X146385657Y-91191451D01*
X146360951Y-91241485D01*
X146336527Y-91290991D01*
X146312122Y-91340505D01*
X146287988Y-91389514D01*
X146263873Y-91438530D01*
X146240019Y-91487062D01*
X146216184Y-91535601D01*
X146192599Y-91583675D01*
X146169034Y-91631755D01*
X146145711Y-91679389D01*
X146122406Y-91727029D01*
X146099335Y-91774238D01*
X146076283Y-91821454D01*
X146053456Y-91868255D01*
X146030648Y-91915063D01*
X146008057Y-91961470D01*
X145985486Y-92007884D01*
X145963125Y-92053910D01*
X145940783Y-92099944D01*
X145918646Y-92145604D01*
X145896527Y-92191270D01*
X145874606Y-92236575D01*
X145852704Y-92281887D01*
X145830993Y-92326848D01*
X145809302Y-92371816D01*
X145787797Y-92416444D01*
X145766310Y-92461080D01*
X145745005Y-92505386D01*
X145723718Y-92549699D01*
X145702608Y-92593693D01*
X145681516Y-92637694D01*
X145660595Y-92681384D01*
X145639693Y-92725082D01*
X145618958Y-92768478D01*
X145598241Y-92811881D01*
X145577687Y-92854991D01*
X145557152Y-92898109D01*
X145536774Y-92940941D01*
X145516416Y-92983780D01*
X145496211Y-93026342D01*
X145476025Y-93068911D01*
X145455990Y-93111210D01*
X145435974Y-93153516D01*
X145416104Y-93195558D01*
X145396253Y-93237608D01*
X145376546Y-93279402D01*
X145356857Y-93321202D01*
X145337309Y-93362753D01*
X145317779Y-93404310D01*
X145298386Y-93445624D01*
X145279012Y-93486944D01*
X145259772Y-93528027D01*
X145240551Y-93569116D01*
X145221460Y-93609973D01*
X145202389Y-93650837D01*
X145183446Y-93691474D01*
X145164521Y-93732118D01*
X145145722Y-93772540D01*
X145126942Y-93812969D01*
X145108285Y-93853182D01*
X145089647Y-93893401D01*
X145060695Y-93955971D01*
D12*
X129914986Y-75062117D02*
X129911252Y-75080413D01*
X129907538Y-75098715D01*
X129903843Y-75117019D01*
X129900168Y-75135330D01*
X129896512Y-75153642D01*
X129892876Y-75171960D01*
X129889260Y-75190280D01*
X129885663Y-75208607D01*
X129882086Y-75226935D01*
X129878528Y-75245269D01*
X129874990Y-75263605D01*
X129871472Y-75281948D01*
X129867973Y-75300291D01*
X129864494Y-75318642D01*
X129861035Y-75336993D01*
X129857594Y-75355351D01*
X129854175Y-75373710D01*
X129850774Y-75392076D01*
X129847393Y-75410443D01*
X129844031Y-75428817D01*
X129840690Y-75447191D01*
X129837368Y-75465572D01*
X129834065Y-75483954D01*
X129830782Y-75502343D01*
X129827520Y-75520733D01*
X129824276Y-75539129D01*
X129821052Y-75557526D01*
X129817848Y-75575930D01*
X129814664Y-75594335D01*
X129811499Y-75612746D01*
X129808354Y-75631158D01*
X129805228Y-75649577D01*
X129802122Y-75667996D01*
X129799036Y-75686422D01*
X129795970Y-75704849D01*
X129792923Y-75723282D01*
X129789896Y-75741716D01*
X129786888Y-75760156D01*
X129783901Y-75778597D01*
X129780932Y-75797045D01*
X129777984Y-75815494D01*
X129775055Y-75833948D01*
X129772146Y-75852404D01*
X129769257Y-75870866D01*
X129766387Y-75889328D01*
X129763537Y-75907797D01*
X129761020Y-75924220D01*
X164702557Y-80315233D02*
X164704441Y-80296582D01*
X164706305Y-80277926D01*
X164708150Y-80259269D01*
X164709975Y-80240606D01*
X164711780Y-80221942D01*
X164713565Y-80203273D01*
X164715330Y-80184602D01*
X164717076Y-80165926D01*
X164718802Y-80147249D01*
X164720508Y-80128567D01*
X164722194Y-80109883D01*
X164723861Y-80091194D01*
X164725507Y-80072504D01*
X164727134Y-80053808D01*
X164728741Y-80035111D01*
X164730329Y-80016409D01*
X164731896Y-79997706D01*
X164733444Y-79978997D01*
X164734972Y-79960287D01*
X164736480Y-79941572D01*
X164737968Y-79922855D01*
X164739437Y-79904133D01*
X164740885Y-79885410D01*
X164742314Y-79866682D01*
X164743723Y-79847952D01*
X164745112Y-79829217D01*
X164746482Y-79810481D01*
X164747831Y-79791739D01*
X164749161Y-79772996D01*
X164750471Y-79754248D01*
X164751761Y-79735498D01*
X164753032Y-79716744D01*
X164754282Y-79697988D01*
X164755513Y-79679226D01*
X164756723Y-79660464D01*
X164757915Y-79641696D01*
X164759086Y-79622926D01*
X164760237Y-79604152D01*
X164761368Y-79585376D01*
X164762480Y-79566595D01*
X164763572Y-79547813D01*
X164764644Y-79529025D01*
X164765696Y-79510236D01*
X164766728Y-79491442D01*
X164767740Y-79472646D01*
X164768733Y-79453845D01*
X164770155Y-79426221D01*
D10*
X146038698Y-96367444D02*
X157059524Y-74250842D01*
D12*
X155631044Y-93918956D02*
X155647509Y-93910000D01*
X155663963Y-93901028D01*
X155680405Y-93892039D01*
X155696836Y-93883034D01*
X155713254Y-93874012D01*
X155729662Y-93864974D01*
X155746058Y-93855919D01*
X155762442Y-93846848D01*
X155778815Y-93837760D01*
X155795176Y-93828656D01*
X155811525Y-93819536D01*
X155827864Y-93810399D01*
X155844190Y-93801245D01*
X155860505Y-93792075D01*
X155876808Y-93782889D01*
X155893101Y-93773686D01*
X155909380Y-93764467D01*
X155925650Y-93755231D01*
X155941906Y-93745980D01*
X155958152Y-93736711D01*
X155974386Y-93727426D01*
X155990609Y-93718124D01*
X156006819Y-93708807D01*
X156023019Y-93699472D01*
X156039207Y-93690122D01*
X156055383Y-93680755D01*
X156071548Y-93671371D01*
X156087701Y-93661971D01*
X156103842Y-93652555D01*
X156119973Y-93643122D01*
X156136091Y-93633673D01*
X156152198Y-93624207D01*
X156168293Y-93614725D01*
X156184377Y-93605227D01*
X156200449Y-93595712D01*
X156216511Y-93586181D01*
X156232559Y-93576633D01*
X156248597Y-93567069D01*
X156264623Y-93557489D01*
X156280638Y-93547892D01*
X156296641Y-93538279D01*
X156312632Y-93528649D01*
X156328612Y-93519003D01*
X156344581Y-93509341D01*
X156364121Y-93497485D01*
X149076275Y-95941512D02*
X149113621Y-95937679D01*
X149150950Y-95933768D01*
X149188260Y-95929778D01*
X149225551Y-95925710D01*
X149262825Y-95921563D01*
X149300080Y-95917338D01*
X149337316Y-95913034D01*
X149374534Y-95908652D01*
X149411733Y-95904192D01*
X149448912Y-95899653D01*
X149486073Y-95895036D01*
X149523215Y-95890341D01*
X149560337Y-95885568D01*
X149597440Y-95880717D01*
X149634523Y-95875788D01*
X149671587Y-95870780D01*
X149708631Y-95865695D01*
X149745655Y-95860531D01*
X149782658Y-95855290D01*
X149819642Y-95849970D01*
X149856606Y-95844573D01*
X149893549Y-95839098D01*
X149930472Y-95833545D01*
X149952423Y-95830205D01*
D10*
X144178249Y-99911677D02*
X144182692Y-99910308D01*
X144187105Y-99908865D01*
X144191488Y-99907347D01*
X144195840Y-99905756D01*
X144200159Y-99904091D01*
X144204445Y-99902354D01*
X144208697Y-99900545D01*
X144212914Y-99898663D01*
X144217095Y-99896710D01*
X144221238Y-99894687D01*
X144225344Y-99892593D01*
X144229410Y-99890429D01*
X144233436Y-99888196D01*
X144237422Y-99885894D01*
X144241366Y-99883524D01*
X144245266Y-99881086D01*
X144249123Y-99878582D01*
X144252936Y-99876011D01*
X144256702Y-99873375D01*
X144260422Y-99870674D01*
X144264094Y-99867908D01*
X144267717Y-99865079D01*
X144271292Y-99862187D01*
X144273805Y-99860091D01*
X142330393Y-100351259D02*
X142330874Y-100352387D01*
X142331370Y-100353498D01*
X142331881Y-100354596D01*
X142332407Y-100355677D01*
X142332948Y-100356745D01*
X142333503Y-100357796D01*
X142334074Y-100358834D01*
X142334658Y-100359855D01*
X142335870Y-100361855D01*
X142337139Y-100363795D01*
X142338464Y-100365675D01*
X142339844Y-100367495D01*
X142341278Y-100369256D01*
X142342765Y-100370955D01*
X142344304Y-100372594D01*
X142345895Y-100374172D01*
X142347536Y-100375688D01*
X142349227Y-100377141D01*
X142350967Y-100378531D01*
X142352753Y-100379857D01*
X142354586Y-100381119D01*
X142356464Y-100382314D01*
X142358386Y-100383443D01*
X142360350Y-100384505D01*
X142362354Y-100385497D01*
X142364396Y-100386420D01*
X142366476Y-100387272D01*
X142368590Y-100388052D01*
X142370736Y-100388760D01*
X142372913Y-100389393D01*
X142375117Y-100389951D01*
X142377346Y-100390433D01*
X142379598Y-100390838D01*
X142381868Y-100391165D01*
X142384155Y-100391414D01*
X142386454Y-100391585D01*
X142388763Y-100391675D01*
X142389460Y-100391687D01*
D12*
X143537741Y-61439362D02*
X143519406Y-61443124D01*
X143501079Y-61446905D01*
X143482758Y-61450705D01*
X143464444Y-61454524D01*
X143446137Y-61458362D01*
X143427837Y-61462219D01*
X143409544Y-61466095D01*
X143391258Y-61469990D01*
X143372979Y-61473904D01*
X143354707Y-61477836D01*
X143336442Y-61481788D01*
X143318184Y-61485759D01*
X143299933Y-61489748D01*
X143281690Y-61493757D01*
X143263453Y-61497784D01*
X143245224Y-61501830D01*
X143227002Y-61505896D01*
X143208787Y-61509980D01*
X143190579Y-61514083D01*
X143172378Y-61518205D01*
X143154185Y-61522345D01*
X143135999Y-61526505D01*
X143117820Y-61530683D01*
X143099648Y-61534880D01*
X143081484Y-61539097D01*
X143063327Y-61543331D01*
X143045178Y-61547585D01*
X143027035Y-61551858D01*
X143008901Y-61556149D01*
X142990773Y-61560459D01*
X142972653Y-61564788D01*
X142954541Y-61569136D01*
X142936436Y-61573502D01*
X142918338Y-61577888D01*
X142900248Y-61582292D01*
X142882165Y-61586715D01*
X142864090Y-61591156D01*
X142846023Y-61595616D01*
X142827963Y-61600095D01*
X142809910Y-61604593D01*
X142791866Y-61609110D01*
X142773828Y-61613645D01*
X142755799Y-61618199D01*
X142737777Y-61622771D01*
X142719763Y-61627362D01*
X142701756Y-61631972D01*
X142690732Y-61634805D01*
X157760839Y-92554002D02*
X157790628Y-92531675D01*
X157820388Y-92509269D01*
X157850119Y-92486785D01*
X157879821Y-92464222D01*
X157909494Y-92441581D01*
X157939138Y-92418862D01*
X157968753Y-92396064D01*
X157998339Y-92373189D01*
X158027895Y-92350234D01*
X158057421Y-92327202D01*
X158086918Y-92304091D01*
X158116385Y-92280901D01*
X158145823Y-92257634D01*
X158175230Y-92234288D01*
X158204608Y-92210864D01*
X158233955Y-92187362D01*
X158263272Y-92163781D01*
X158292559Y-92140122D01*
X158321815Y-92116385D01*
X158351041Y-92092570D01*
X158380237Y-92068676D01*
X158409401Y-92044704D01*
X158422117Y-92034220D01*
D10*
X143041945Y-98725234D02*
X143029831Y-98757247D01*
X143017735Y-98789267D01*
X143005688Y-98821216D01*
X142993659Y-98853172D01*
X142981678Y-98885058D01*
X142969716Y-98916952D01*
X142957802Y-98948776D01*
X142945906Y-98980607D01*
X142934056Y-99012370D01*
X142922226Y-99044140D01*
X142910442Y-99075842D01*
X142898678Y-99107551D01*
X142886959Y-99139193D01*
X142875259Y-99170842D01*
X142863605Y-99202424D01*
X142851970Y-99234014D01*
X142840380Y-99265538D01*
X142828810Y-99297068D01*
X142817284Y-99328534D01*
X142805777Y-99360007D01*
X142794315Y-99391415D01*
X142782872Y-99422830D01*
X142771474Y-99454181D01*
X142760094Y-99485539D01*
X142748758Y-99516834D01*
X142737442Y-99548136D01*
X142726169Y-99579375D01*
X142714915Y-99610621D01*
X142703705Y-99641806D01*
X142692513Y-99672997D01*
X142681365Y-99704126D01*
X142670236Y-99735263D01*
X142659149Y-99766339D01*
X142648082Y-99797421D01*
X142637057Y-99828444D01*
X142626051Y-99859473D01*
X142615087Y-99890442D01*
X142604142Y-99921419D01*
X142593240Y-99952336D01*
X142582356Y-99983260D01*
X142571514Y-100014126D01*
X142560691Y-100044998D01*
X142549909Y-100075813D01*
X142539147Y-100106634D01*
X142528425Y-100137397D01*
X142517722Y-100168168D01*
X142507061Y-100198882D01*
X142496418Y-100229602D01*
X142485816Y-100260266D01*
X142475233Y-100290937D01*
X142455878Y-100347189D01*
D12*
X152492268Y-95244925D02*
X152527798Y-95233832D01*
X152563308Y-95222662D01*
X152598797Y-95211414D01*
X152634265Y-95200089D01*
X152669714Y-95188687D01*
X152705141Y-95177207D01*
X152740547Y-95165650D01*
X152775933Y-95154015D01*
X152811298Y-95142303D01*
X152846641Y-95130514D01*
X152881964Y-95118648D01*
X152917265Y-95106704D01*
X152952545Y-95094684D01*
X152987803Y-95082586D01*
X153023040Y-95070411D01*
X153058256Y-95058158D01*
X153093449Y-95045829D01*
X153128621Y-95033423D01*
X153163771Y-95020939D01*
X153198899Y-95008378D01*
X153234005Y-94995740D01*
X153269089Y-94983026D01*
X153304151Y-94970234D01*
X153305675Y-94969676D01*
D10*
X144273805Y-99860091D02*
X144277293Y-99857092D01*
X144280730Y-99854031D01*
X144284117Y-99850908D01*
X144287451Y-99847725D01*
X144290732Y-99844482D01*
X144293959Y-99841179D01*
X144297131Y-99837819D01*
X144298696Y-99836118D01*
X144300246Y-99834402D01*
X144301783Y-99832672D01*
X144303305Y-99830929D01*
X144304812Y-99829171D01*
X144306305Y-99827400D01*
X144307784Y-99825615D01*
X144309247Y-99823817D01*
X144310695Y-99822005D01*
X144312129Y-99820181D01*
X144313547Y-99818343D01*
X144314950Y-99816492D01*
X144316337Y-99814629D01*
X144317709Y-99812752D01*
X144319066Y-99810863D01*
X144320407Y-99808962D01*
X144321731Y-99807049D01*
X144323041Y-99805122D01*
X144324333Y-99803185D01*
X144325610Y-99801235D01*
X144326871Y-99799273D01*
X144328116Y-99797300D01*
X144329344Y-99795315D01*
X144330555Y-99793319D01*
X144331750Y-99791311D01*
X144332929Y-99789292D01*
X144334090Y-99787263D01*
X144335235Y-99785222D01*
X144336363Y-99783171D01*
X144337474Y-99781109D01*
X144338567Y-99779036D01*
X144339644Y-99776953D01*
X144340878Y-99774511D01*
D12*
X164792993Y-78525265D02*
X164792953Y-78487587D01*
X164792833Y-78449905D01*
X164792633Y-78412219D01*
X164792353Y-78374531D01*
X164791993Y-78336839D01*
X164791554Y-78299144D01*
X164791034Y-78261447D01*
X164790434Y-78223746D01*
X164789754Y-78186044D01*
X164788994Y-78148339D01*
X164788154Y-78110632D01*
X164787234Y-78072923D01*
X164786234Y-78035212D01*
X164785154Y-77997499D01*
X164783994Y-77959785D01*
X164782754Y-77922070D01*
X164781434Y-77884354D01*
X164780034Y-77846637D01*
X164778554Y-77808919D01*
X164776994Y-77771201D01*
X164775354Y-77733482D01*
X164773633Y-77695763D01*
X164771833Y-77658044D01*
X164770155Y-77624310D01*
D10*
X154005411Y-74899651D02*
X154009383Y-74901962D01*
X154013317Y-74904343D01*
X154017213Y-74906795D01*
X154021069Y-74909315D01*
X154024884Y-74911905D01*
X154028657Y-74914562D01*
X154032388Y-74917287D01*
X154036074Y-74920079D01*
X154039714Y-74922936D01*
X154043308Y-74925859D01*
X154046855Y-74928845D01*
X154050352Y-74931895D01*
X154053800Y-74935007D01*
X154057196Y-74938181D01*
X154060540Y-74941415D01*
X154063830Y-74944708D01*
X154067066Y-74948060D01*
X154070245Y-74951469D01*
X154073367Y-74954933D01*
X154076431Y-74958453D01*
X154079436Y-74962025D01*
X154082380Y-74965651D01*
X154085262Y-74969327D01*
X154088082Y-74973052D01*
X154090838Y-74976826D01*
X154093529Y-74980647D01*
X154096155Y-74984514D01*
X154097443Y-74986464D01*
X154098714Y-74988424D01*
X154099524Y-74989694D01*
D12*
X132093738Y-87668150D02*
X132113132Y-87699991D01*
X132132602Y-87731803D01*
X132152148Y-87763587D01*
X132171770Y-87795342D01*
X132191469Y-87827067D01*
X132211242Y-87858763D01*
X132231092Y-87890428D01*
X132251017Y-87922063D01*
X132271017Y-87953668D01*
X132291091Y-87985241D01*
X132311241Y-88016783D01*
X132331465Y-88048294D01*
X132351764Y-88079772D01*
X132372137Y-88111218D01*
X132392584Y-88142631D01*
X132413105Y-88174010D01*
X132433700Y-88205357D01*
X132454368Y-88236670D01*
X132475110Y-88267948D01*
X132495924Y-88299192D01*
X132516812Y-88330401D01*
X132537772Y-88361575D01*
X132549204Y-88378518D01*
X132549205Y-68802155D02*
X132538693Y-68817732D01*
X132528198Y-68833321D01*
X132517722Y-68848916D01*
X132507263Y-68864523D01*
X132496824Y-68880136D01*
X132486401Y-68895761D01*
X132475998Y-68911391D01*
X132465611Y-68927033D01*
X132455245Y-68942681D01*
X132444894Y-68958341D01*
X132434565Y-68974006D01*
X132424251Y-68989683D01*
X132413958Y-69005365D01*
X132403681Y-69021058D01*
X132393425Y-69036757D01*
X132383185Y-69052468D01*
X132372965Y-69068184D01*
X132362762Y-69083911D01*
X132352579Y-69099643D01*
X132342413Y-69115387D01*
X132332268Y-69131136D01*
X132322139Y-69146896D01*
X132312030Y-69162661D01*
X132301938Y-69178437D01*
X132291867Y-69194218D01*
X132281813Y-69210010D01*
X132271779Y-69225806D01*
X132261762Y-69241614D01*
X132251766Y-69257427D01*
X132241786Y-69273250D01*
X132231827Y-69289078D01*
X132221885Y-69304917D01*
X132211964Y-69320760D01*
X132202059Y-69336615D01*
X132192176Y-69352473D01*
X132182309Y-69368342D01*
X132172463Y-69384216D01*
X132162635Y-69400100D01*
X132152827Y-69415988D01*
X132143036Y-69431887D01*
X132133266Y-69447790D01*
X132123513Y-69463704D01*
X132113781Y-69479621D01*
X132104066Y-69495549D01*
X132093739Y-69512524D01*
X161803064Y-68737084D02*
X161792535Y-68721517D01*
X161781990Y-68705961D01*
X161771431Y-68690421D01*
X161760855Y-68674893D01*
X161750266Y-68659379D01*
X161739661Y-68643878D01*
X161729042Y-68628391D01*
X161718406Y-68612917D01*
X161707757Y-68597457D01*
X161697092Y-68582010D01*
X161686413Y-68566578D01*
X161675718Y-68551157D01*
X161665009Y-68535752D01*
X161654284Y-68520359D01*
X161643545Y-68504980D01*
X161632790Y-68489614D01*
X161622021Y-68474263D01*
X161611236Y-68458923D01*
X161600437Y-68443599D01*
X161589622Y-68428287D01*
X161578793Y-68412990D01*
X161567949Y-68397705D01*
X161557090Y-68382435D01*
X161546216Y-68367177D01*
X161535328Y-68351934D01*
X161524423Y-68336703D01*
X161513505Y-68321487D01*
X161502571Y-68306283D01*
X161491623Y-68291095D01*
X161480660Y-68275918D01*
X161469682Y-68260757D01*
X161458689Y-68245607D01*
X161447681Y-68230473D01*
X161436658Y-68215350D01*
X161425621Y-68200243D01*
X161414568Y-68185148D01*
X161403501Y-68170068D01*
X161392419Y-68155000D01*
X161381322Y-68139947D01*
X161370210Y-68124906D01*
X161359084Y-68109881D01*
X161347942Y-68094867D01*
X161336787Y-68079869D01*
X161325615Y-68064882D01*
X161315046Y-68050735D01*
D13*
G36*
X124447683Y-38238023D02*
G01*
X124447661Y-38238075D01*
X124447637Y-38238125D01*
X124447612Y-38238173D01*
X124447586Y-38238218D01*
X124447559Y-38238261D01*
X124447531Y-38238302D01*
X124447502Y-38238341D01*
X124447473Y-38238378D01*
X124447443Y-38238413D01*
X124447382Y-38238479D01*
X124447320Y-38238541D01*
X124447258Y-38238598D01*
X124447135Y-38238706D01*
X124447076Y-38238758D01*
X124447020Y-38238810D01*
X124446968Y-38238864D01*
X124446943Y-38238892D01*
X124446919Y-38238921D01*
X124446897Y-38238951D01*
X124446876Y-38238982D01*
X124446857Y-38239013D01*
X124446839Y-38239047D01*
X120521127Y-46195403D01*
X120519266Y-46199508D01*
X120517709Y-46203645D01*
X120516450Y-46207805D01*
X120515481Y-46211977D01*
X120514796Y-46216149D01*
X120514390Y-46220311D01*
X120514254Y-46224453D01*
X120514383Y-46228564D01*
X120514770Y-46232633D01*
X120515409Y-46236649D01*
X120516292Y-46240602D01*
X120517414Y-46244480D01*
X120518767Y-46248274D01*
X120520345Y-46251972D01*
X120522141Y-46255564D01*
X120524150Y-46259039D01*
X120526364Y-46262387D01*
X120528776Y-46265596D01*
X120531381Y-46268656D01*
X120534171Y-46271556D01*
X120537140Y-46274286D01*
X120540282Y-46276835D01*
X120543589Y-46279192D01*
X120547055Y-46281346D01*
X120550675Y-46283286D01*
X120554440Y-46285003D01*
X120558344Y-46286485D01*
X120562382Y-46287722D01*
X120566545Y-46288702D01*
X120570829Y-46289416D01*
X120575225Y-46289852D01*
X120579728Y-46290000D01*
X123010000Y-46290000D01*
X123013795Y-46290107D01*
X123017528Y-46290423D01*
X123021194Y-46290944D01*
X123024787Y-46291661D01*
X123028302Y-46292570D01*
X123031734Y-46293665D01*
X123035078Y-46294938D01*
X123038329Y-46296384D01*
X123041481Y-46297997D01*
X123044530Y-46299771D01*
X123047469Y-46301699D01*
X123050294Y-46303776D01*
X123052999Y-46305995D01*
X123055580Y-46308350D01*
X123058030Y-46310835D01*
X123060346Y-46313444D01*
X123062521Y-46316170D01*
X123064550Y-46319008D01*
X123066429Y-46321952D01*
X123068151Y-46324995D01*
X123069712Y-46328131D01*
X123071106Y-46331354D01*
X123072329Y-46334658D01*
X123073375Y-46338036D01*
X123074238Y-46341484D01*
X123074914Y-46344994D01*
X123075397Y-46348560D01*
X123075682Y-46352176D01*
X123075765Y-46355836D01*
X123075638Y-46359535D01*
X123075299Y-46363265D01*
X123074740Y-46367021D01*
X121030401Y-57860082D01*
X121029911Y-57863163D01*
X121029540Y-57866192D01*
X121029278Y-57869173D01*
X121029114Y-57872113D01*
X121029036Y-57875014D01*
X121029034Y-57877884D01*
X121029210Y-57883545D01*
X121030682Y-57905870D01*
X120751630Y-57237536D01*
X120750814Y-57235498D01*
X120750073Y-57233435D01*
X120749409Y-57231351D01*
X120748821Y-57229246D01*
X120748307Y-57227123D01*
X120747867Y-57224984D01*
X120747501Y-57222832D01*
X120747208Y-57220668D01*
X120746987Y-57218494D01*
X120746838Y-57216313D01*
X120746760Y-57214127D01*
X120746753Y-57211938D01*
X120746816Y-57209748D01*
X120746949Y-57207559D01*
X120747150Y-57205373D01*
X120747420Y-57203193D01*
X122182866Y-47035903D01*
X122183284Y-47032216D01*
X122183495Y-47028559D01*
X122183505Y-47024937D01*
X122183319Y-47021358D01*
X122182941Y-47017825D01*
X122182377Y-47014345D01*
X122181630Y-47010924D01*
X122180707Y-47007567D01*
X122179611Y-47004280D01*
X122178348Y-47001069D01*
X122176923Y-46997939D01*
X122175340Y-46994896D01*
X122173605Y-46991946D01*
X122171722Y-46989095D01*
X122169696Y-46986347D01*
X122167532Y-46983710D01*
X122165235Y-46981188D01*
X122162810Y-46978788D01*
X122160262Y-46976515D01*
X122157595Y-46974374D01*
X122154814Y-46972372D01*
X122151925Y-46970514D01*
X122148932Y-46968806D01*
X122145840Y-46967253D01*
X122142654Y-46965862D01*
X122139378Y-46964638D01*
X122136019Y-46963586D01*
X122132580Y-46962713D01*
X122129066Y-46962024D01*
X122125482Y-46961525D01*
X122121834Y-46961221D01*
X122118126Y-46961119D01*
X119066128Y-46961119D01*
X119061578Y-46960969D01*
X119057137Y-46960526D01*
X119052810Y-46959802D01*
X119048606Y-46958808D01*
X119044530Y-46957554D01*
X119040590Y-46956051D01*
X119036792Y-46954310D01*
X119033143Y-46952343D01*
X119029650Y-46950161D01*
X119026319Y-46947773D01*
X119023158Y-46945192D01*
X119020172Y-46942428D01*
X119017369Y-46939493D01*
X119014756Y-46936396D01*
X119012339Y-46933150D01*
X119010124Y-46929765D01*
X119008120Y-46926252D01*
X119006332Y-46922622D01*
X119004767Y-46918887D01*
X119003432Y-46915056D01*
X119002334Y-46911142D01*
X119001479Y-46907155D01*
X119000875Y-46903106D01*
X119000527Y-46899005D01*
X119000443Y-46894865D01*
X119000630Y-46890696D01*
X119001094Y-46886509D01*
X119001842Y-46882314D01*
X119002880Y-46878124D01*
X119004216Y-46873948D01*
X119005856Y-46869799D01*
X119007807Y-46865686D01*
X123437491Y-38273650D01*
X123439729Y-38269657D01*
X123442219Y-38265864D01*
X123444946Y-38262280D01*
X123447897Y-38258912D01*
X123451058Y-38255767D01*
X123454416Y-38252855D01*
X123457957Y-38250183D01*
X123461667Y-38247758D01*
X123465533Y-38245589D01*
X123469542Y-38243683D01*
X123473678Y-38242049D01*
X123477930Y-38240694D01*
X123482283Y-38239627D01*
X123486723Y-38238854D01*
X123491237Y-38238385D01*
X123495812Y-38238227D01*
X124447704Y-38237967D01*
X124447683Y-38238023D01*
G37*
D10*
X144654713Y-77532034D02*
X142091897Y-95681358D01*
X141391898Y-75782493D02*
X141387929Y-75780152D01*
X141383998Y-75777742D01*
X141380108Y-75775262D01*
X141376260Y-75772714D01*
X141372453Y-75770098D01*
X141368690Y-75767415D01*
X141364971Y-75764666D01*
X141361298Y-75761851D01*
X141357672Y-75758972D01*
X141354093Y-75756028D01*
X141350564Y-75753021D01*
X141347084Y-75749952D01*
X141343656Y-75746821D01*
X141340280Y-75743630D01*
X141336957Y-75740379D01*
X141333689Y-75737070D01*
X141330477Y-75733704D01*
X141327322Y-75730281D01*
X141324224Y-75726803D01*
X141321185Y-75723272D01*
X141318207Y-75719687D01*
X141315289Y-75716051D01*
X141312434Y-75712365D01*
X141309642Y-75708629D01*
X141306914Y-75704846D01*
X141304251Y-75701016D01*
X141301654Y-75697141D01*
X141300381Y-75695187D01*
X141299124Y-75693222D01*
X141297654Y-75690875D01*
X147509577Y-58930000D02*
X147504932Y-58930040D01*
X147500290Y-58930160D01*
X147495654Y-58930359D01*
X147491024Y-58930638D01*
X147486400Y-58930997D01*
X147481786Y-58931435D01*
X147477180Y-58931952D01*
X147472585Y-58932549D01*
X147468001Y-58933225D01*
X147463430Y-58933979D01*
X147458873Y-58934812D01*
X147454331Y-58935724D01*
X147449806Y-58936714D01*
X147445298Y-58937781D01*
X147440809Y-58938927D01*
X147436340Y-58940149D01*
X147431893Y-58941449D01*
X147427468Y-58942825D01*
X147423067Y-58944278D01*
X147418691Y-58945806D01*
X147414342Y-58947410D01*
X147410021Y-58949088D01*
X147405729Y-58950841D01*
X147401468Y-58952668D01*
X147397239Y-58954568D01*
X147393042Y-58956541D01*
X147388881Y-58958586D01*
X147384755Y-58960703D01*
X147380667Y-58962890D01*
X147376617Y-58965148D01*
X147372606Y-58967474D01*
X147369656Y-58969246D01*
X154115668Y-75248273D02*
X154089291Y-75314492D01*
X154062762Y-75380873D01*
X154036082Y-75447419D01*
X154009249Y-75514131D01*
X153982262Y-75581013D01*
X153955120Y-75648065D01*
X153927821Y-75715292D01*
X153900365Y-75782694D01*
X153872750Y-75850274D01*
X153844975Y-75918034D01*
X153817038Y-75985978D01*
X153788939Y-76054108D01*
X153760676Y-76122425D01*
X153732247Y-76190934D01*
X153703652Y-76259636D01*
X153674888Y-76328534D01*
X153645955Y-76397632D01*
X153616851Y-76466931D01*
X153587573Y-76536436D01*
X153558122Y-76606148D01*
X153528494Y-76676072D01*
X153498690Y-76746209D01*
X153468705Y-76816565D01*
X153457672Y-76842403D01*
D12*
X139476090Y-94370716D02*
X139492923Y-94378816D01*
X139509767Y-94386899D01*
X139526616Y-94394962D01*
X139543475Y-94403008D01*
X139560340Y-94411034D01*
X139577215Y-94419043D01*
X139594096Y-94427033D01*
X139610987Y-94435005D01*
X139627883Y-94442958D01*
X139644790Y-94450893D01*
X139661702Y-94458809D01*
X139678624Y-94466708D01*
X139695551Y-94474587D01*
X139712489Y-94482448D01*
X139729432Y-94490290D01*
X139746384Y-94498115D01*
X139763343Y-94505920D01*
X139780311Y-94513708D01*
X139797285Y-94521476D01*
X139814268Y-94529226D01*
X139831257Y-94536958D01*
X139848256Y-94544671D01*
X139865260Y-94552365D01*
X139882274Y-94560042D01*
X139899293Y-94567699D01*
X139916322Y-94575338D01*
X139933356Y-94582958D01*
X139950400Y-94590560D01*
X139967450Y-94598143D01*
X139984509Y-94605708D01*
X140001573Y-94613254D01*
X140018647Y-94620782D01*
X140035726Y-94628291D01*
X140052814Y-94635781D01*
X140069908Y-94643253D01*
X140087012Y-94650706D01*
X140104120Y-94658140D01*
X140121238Y-94665557D01*
X140138362Y-94672954D01*
X140155494Y-94680333D01*
X140172632Y-94687692D01*
X140189780Y-94695034D01*
X140206932Y-94702356D01*
X140224094Y-94709661D01*
X140251563Y-94721307D01*
X145275993Y-61174089D02*
X145238640Y-61177923D01*
X145201305Y-61181835D01*
X145163989Y-61185825D01*
X145126691Y-61189894D01*
X145089413Y-61194042D01*
X145052154Y-61198268D01*
X145014914Y-61202572D01*
X144977694Y-61206954D01*
X144940492Y-61211415D01*
X144903311Y-61215953D01*
X144866149Y-61220570D01*
X144829007Y-61225266D01*
X144791885Y-61230039D01*
X144754782Y-61234890D01*
X144717700Y-61239819D01*
X144680638Y-61244827D01*
X144643597Y-61249912D01*
X144606576Y-61255075D01*
X144569575Y-61260316D01*
X144532595Y-61265635D01*
X144495636Y-61271032D01*
X144458698Y-61276506D01*
X144421781Y-61282058D01*
X144399845Y-61285396D01*
X164437284Y-74997047D02*
X164433522Y-74978713D01*
X164429741Y-74960385D01*
X164425941Y-74942065D01*
X164422122Y-74923751D01*
X164418284Y-74905444D01*
X164414427Y-74887144D01*
X164410551Y-74868851D01*
X164406657Y-74850566D01*
X164402743Y-74832287D01*
X164398810Y-74814015D01*
X164394858Y-74795750D01*
X164390888Y-74777492D01*
X164386898Y-74759242D01*
X164382890Y-74740998D01*
X164378862Y-74722762D01*
X164374816Y-74704532D01*
X164370751Y-74686310D01*
X164366667Y-74668095D01*
X164362564Y-74649887D01*
X164358442Y-74631687D01*
X164354301Y-74613493D01*
X164350142Y-74595307D01*
X164345963Y-74577128D01*
X164341766Y-74558956D01*
X164337550Y-74540792D01*
X164333315Y-74522635D01*
X164329061Y-74504485D01*
X164324788Y-74486343D01*
X164320497Y-74468208D01*
X164316187Y-74450080D01*
X164311858Y-74431960D01*
X164307510Y-74413847D01*
X164303143Y-74395742D01*
X164298758Y-74377644D01*
X164294354Y-74359553D01*
X164289931Y-74341470D01*
X164285489Y-74323395D01*
X164281029Y-74305327D01*
X164276550Y-74287267D01*
X164272052Y-74269214D01*
X164267535Y-74251168D01*
X164263000Y-74233131D01*
X164258446Y-74215101D01*
X164253873Y-74197078D01*
X164249282Y-74179063D01*
X164244672Y-74161056D01*
X164241841Y-74150038D01*
D10*
X157840116Y-59188316D02*
X157840200Y-59190616D01*
X157840265Y-59192918D01*
X157840309Y-59195217D01*
X157840334Y-59197519D01*
X157840338Y-59199817D01*
X157840322Y-59202117D01*
X157840286Y-59204413D01*
X157840231Y-59206711D01*
X157840155Y-59209006D01*
X157840059Y-59211301D01*
X157839943Y-59213593D01*
X157839807Y-59215886D01*
X157839651Y-59218174D01*
X157839475Y-59220464D01*
X157839280Y-59222749D01*
X157839064Y-59225035D01*
X157838828Y-59227316D01*
X157838572Y-59229598D01*
X157838297Y-59231875D01*
X157838001Y-59234152D01*
X157837686Y-59236424D01*
X157837350Y-59238697D01*
X157836995Y-59240964D01*
X157836620Y-59243231D01*
X157836225Y-59245493D01*
X157835810Y-59247754D01*
X157835376Y-59250010D01*
X157834921Y-59252266D01*
X157834447Y-59254515D01*
X157833953Y-59256765D01*
X157833439Y-59259008D01*
X157832905Y-59261251D01*
X157832352Y-59263487D01*
X157831778Y-59265723D01*
X157831185Y-59267952D01*
X157830572Y-59270181D01*
X157829939Y-59272403D01*
X157829287Y-59274624D01*
X157828615Y-59276839D01*
X157827922Y-59279052D01*
X157827211Y-59281259D01*
X157826479Y-59283464D01*
X157825728Y-59285662D01*
X157824956Y-59287859D01*
X157824166Y-59290049D01*
X157823355Y-59292237D01*
X157822525Y-59294419D01*
X157821674Y-59296598D01*
X157820805Y-59298771D01*
X157819915Y-59300941D01*
X157819006Y-59303105D01*
X157818076Y-59305266D01*
X157817127Y-59307420D01*
X157816158Y-59309571D01*
X157815170Y-59311716D01*
X157814160Y-59313858D01*
X157813133Y-59315993D01*
X157812084Y-59318125D01*
X157811016Y-59320249D01*
X157809928Y-59322371D01*
X157808221Y-59325612D01*
D12*
X159057407Y-65566544D02*
X159029710Y-65541424D01*
X159001949Y-65516355D01*
X158974125Y-65491336D01*
X158946238Y-65466369D01*
X158918288Y-65441452D01*
X158890275Y-65416587D01*
X158862200Y-65391773D01*
X158834063Y-65367011D01*
X158805863Y-65342301D01*
X158777602Y-65317643D01*
X158749279Y-65293037D01*
X158720894Y-65268484D01*
X158692448Y-65243983D01*
X158663940Y-65219535D01*
X158635372Y-65195140D01*
X158606743Y-65170799D01*
X158578053Y-65146511D01*
X158549303Y-65122276D01*
X158520493Y-65098096D01*
X158491622Y-65073969D01*
X158462692Y-65049897D01*
X158433702Y-65025879D01*
X158422117Y-65016310D01*
X136591430Y-92619075D02*
X136621388Y-92641429D01*
X136651399Y-92663723D01*
X136681466Y-92685959D01*
X136711586Y-92708135D01*
X136741761Y-92730251D01*
X136771990Y-92752308D01*
X136802273Y-92774306D01*
X136832610Y-92796244D01*
X136863002Y-92818123D01*
X136893448Y-92839942D01*
X136923947Y-92861701D01*
X136954501Y-92883401D01*
X136985109Y-92905041D01*
X137015771Y-92926621D01*
X137046487Y-92948141D01*
X137077257Y-92969602D01*
X137108081Y-92991002D01*
X137138959Y-93012343D01*
X137169890Y-93033624D01*
X137200876Y-93054844D01*
X137231915Y-93076005D01*
X137263009Y-93097105D01*
X137277778Y-93107094D01*
X133037222Y-89064868D02*
X133059554Y-89094663D01*
X133081964Y-89124429D01*
X133104452Y-89154165D01*
X133127018Y-89183872D01*
X133149662Y-89213549D01*
X133172385Y-89243196D01*
X133195184Y-89272814D01*
X133218062Y-89302402D01*
X133241018Y-89331960D01*
X133264052Y-89361488D01*
X133287164Y-89390986D01*
X133310353Y-89420454D01*
X133333621Y-89449891D01*
X133356966Y-89479298D01*
X133380389Y-89508674D01*
X133403890Y-89538019D01*
X133427469Y-89567334D01*
X133451126Y-89596618D01*
X133474860Y-89625871D01*
X133498672Y-89655093D01*
X133522562Y-89684284D01*
X133546529Y-89713443D01*
X133557004Y-89726147D01*
D10*
X157571169Y-58930000D02*
X157575938Y-58930040D01*
X157580689Y-58930159D01*
X157585421Y-58930358D01*
X157590133Y-58930636D01*
X157594826Y-58930992D01*
X157599498Y-58931427D01*
X157604149Y-58931940D01*
X157608779Y-58932530D01*
X157613387Y-58933199D01*
X157617973Y-58933944D01*
X157622536Y-58934767D01*
X157627076Y-58935667D01*
X157631592Y-58936643D01*
X157636084Y-58937696D01*
X157640550Y-58938824D01*
X157644991Y-58940028D01*
X157649405Y-58941308D01*
X157653792Y-58942663D01*
X157658151Y-58944093D01*
X157662482Y-58945597D01*
X157666783Y-58947176D01*
X157671055Y-58948829D01*
X157675295Y-58950555D01*
X157679504Y-58952355D01*
X157683680Y-58954227D01*
X157687823Y-58956172D01*
X157691932Y-58958190D01*
X157696005Y-58960278D01*
X157700043Y-58962438D01*
X157704043Y-58964669D01*
X157707415Y-58966621D01*
X156953205Y-73897759D02*
X156951211Y-73896618D01*
X156949205Y-73895493D01*
X156947193Y-73894388D01*
X156945168Y-73893299D01*
X156943137Y-73892229D01*
X156941095Y-73891176D01*
X156939046Y-73890142D01*
X156936987Y-73889125D01*
X156934921Y-73888127D01*
X156932844Y-73887146D01*
X156930761Y-73886185D01*
X156928667Y-73885241D01*
X156926568Y-73884316D01*
X156924458Y-73883408D01*
X156922343Y-73882520D01*
X156920218Y-73881649D01*
X156918087Y-73880798D01*
X156915946Y-73879965D01*
X156913800Y-73879150D01*
X156911644Y-73878354D01*
X156909484Y-73877577D01*
X156907313Y-73876818D01*
X156905138Y-73876079D01*
X156902954Y-73875357D01*
X156900765Y-73874656D01*
X156898566Y-73873972D01*
X156896363Y-73873308D01*
X156894152Y-73872662D01*
X156891936Y-73872035D01*
X156889710Y-73871428D01*
X156887482Y-73870839D01*
X156885244Y-73870269D01*
X156883002Y-73869719D01*
X156880752Y-73869188D01*
X156878498Y-73868676D01*
X156876235Y-73868183D01*
X156873970Y-73867709D01*
X156871695Y-73867254D01*
X156869418Y-73866819D01*
X156867132Y-73866403D01*
X156864843Y-73866007D01*
X156862545Y-73865630D01*
X156860245Y-73865272D01*
X156857937Y-73864934D01*
X156855626Y-73864615D01*
X156853307Y-73864315D01*
X156850985Y-73864036D01*
X156848655Y-73863775D01*
X156846323Y-73863535D01*
X156843983Y-73863314D01*
X156841641Y-73863113D01*
X156839291Y-73862931D01*
X156836938Y-73862769D01*
X156834579Y-73862627D01*
X156832216Y-73862505D01*
X156829847Y-73862402D01*
X156827475Y-73862319D01*
X156825097Y-73862257D01*
X156822715Y-73862214D01*
X156820327Y-73862191D01*
X156818797Y-73862187D01*
X152629957Y-73605445D02*
X152629861Y-73603152D01*
X152629784Y-73600857D01*
X152629728Y-73598564D01*
X152629691Y-73596268D01*
X152629675Y-73593975D01*
X152629679Y-73591680D01*
X152629703Y-73589388D01*
X152629746Y-73587094D01*
X152629810Y-73584804D01*
X152629894Y-73582511D01*
X152629998Y-73580223D01*
X152630122Y-73577932D01*
X152630266Y-73575646D01*
X152630430Y-73573358D01*
X152630614Y-73571074D01*
X152630818Y-73568789D01*
X152631042Y-73566508D01*
X152631286Y-73564227D01*
X152631549Y-73561950D01*
X152631833Y-73559672D01*
X152632137Y-73557399D01*
X152632461Y-73555125D01*
X152632804Y-73552856D01*
X152633168Y-73550587D01*
X152633551Y-73548324D01*
X152633955Y-73546060D01*
X152634378Y-73543801D01*
X152634821Y-73541542D01*
X152635284Y-73539289D01*
X152635767Y-73537036D01*
X152636270Y-73534789D01*
X152636793Y-73532542D01*
X152637335Y-73530301D01*
X152637897Y-73528060D01*
X152638479Y-73525826D01*
X152639082Y-73523592D01*
X152639703Y-73521364D01*
X152640345Y-73519137D01*
X152641006Y-73516917D01*
X152641688Y-73514697D01*
X152642389Y-73512484D01*
X152643110Y-73510272D01*
X152643851Y-73508067D01*
X152644611Y-73505863D01*
X152645391Y-73503666D01*
X152646192Y-73501470D01*
X152647012Y-73499281D01*
X152647852Y-73497094D01*
X152648711Y-73494914D01*
X152649591Y-73492735D01*
X152650490Y-73490563D01*
X152651410Y-73488394D01*
X152652348Y-73486231D01*
X152653308Y-73484071D01*
X152654286Y-73481918D01*
X152655285Y-73479767D01*
X152656303Y-73477623D01*
X152657342Y-73475483D01*
X152658399Y-73473348D01*
X152659478Y-73471218D01*
X152660933Y-73468411D01*
D12*
X133557004Y-89726147D02*
X133568998Y-89740665D01*
X133581008Y-89755170D01*
X133593029Y-89769658D01*
X133605066Y-89784133D01*
X133617114Y-89798591D01*
X133629178Y-89813036D01*
X133641254Y-89827464D01*
X133653345Y-89841879D01*
X133665448Y-89856277D01*
X133677566Y-89870662D01*
X133689695Y-89885030D01*
X133701840Y-89899385D01*
X133713996Y-89913723D01*
X133726168Y-89928047D01*
X133738351Y-89942355D01*
X133750549Y-89956649D01*
X133762759Y-89970926D01*
X133774984Y-89985189D01*
X133787220Y-89999436D01*
X133799472Y-90013669D01*
X133811734Y-90027884D01*
X133824012Y-90042087D01*
X133836301Y-90056272D01*
X133848605Y-90070443D01*
X133860920Y-90084597D01*
X133873250Y-90098738D01*
X133885592Y-90112861D01*
X133897948Y-90126971D01*
X133910315Y-90141063D01*
X133922697Y-90155142D01*
X133935091Y-90169203D01*
X133947499Y-90183251D01*
X133959918Y-90197280D01*
X133972352Y-90211297D01*
X133984797Y-90225295D01*
X133997256Y-90239280D01*
X134009727Y-90253247D01*
X134022212Y-90267201D01*
X134034708Y-90281137D01*
X134047218Y-90295059D01*
X134059740Y-90308963D01*
X134072276Y-90322853D01*
X134084822Y-90336726D01*
X134097384Y-90350585D01*
X134107238Y-90361436D01*
D10*
X152660933Y-73468411D02*
X157594897Y-64076765D01*
X161079174Y-57444551D01*
D12*
X154876179Y-94305641D02*
X154909647Y-94289470D01*
X154943095Y-94273220D01*
X154976524Y-94256891D01*
X155009932Y-94240483D01*
X155043319Y-94223996D01*
X155076687Y-94207429D01*
X155110033Y-94190784D01*
X155143358Y-94174059D01*
X155176663Y-94157256D01*
X155209945Y-94140374D01*
X155243207Y-94123414D01*
X155276446Y-94106375D01*
X155309663Y-94089257D01*
X155342859Y-94072060D01*
X155376031Y-94054786D01*
X155409181Y-94037432D01*
X155442309Y-94020001D01*
X155475413Y-94002491D01*
X155508494Y-93984903D01*
X155541551Y-93967237D01*
X155574585Y-93949494D01*
X155607594Y-93931672D01*
X155631044Y-93918956D01*
D10*
X147369656Y-58969246D02*
X147367682Y-58970461D01*
X147365718Y-58971692D01*
X147363765Y-58972940D01*
X147361822Y-58974206D01*
X147359891Y-58975487D01*
X147357971Y-58976786D01*
X147356062Y-58978101D01*
X147354165Y-58979432D01*
X147352279Y-58980780D01*
X147350405Y-58982144D01*
X147348543Y-58983524D01*
X147346693Y-58984920D01*
X147344855Y-58986332D01*
X147343029Y-58987760D01*
X147341216Y-58989203D01*
X147339416Y-58990662D01*
X147337628Y-58992136D01*
X147335853Y-58993626D01*
X147334091Y-58995130D01*
X147332342Y-58996651D01*
X147330606Y-58998186D01*
X147328884Y-58999736D01*
X147327175Y-59001300D01*
X147325480Y-59002880D01*
X147323799Y-59004473D01*
X147322131Y-59006082D01*
X147320478Y-59007704D01*
X147318838Y-59009342D01*
X147317213Y-59010992D01*
X147315602Y-59012657D01*
X147314006Y-59014336D01*
X147312423Y-59016029D01*
X147310857Y-59017734D01*
X147309304Y-59019454D01*
X147307767Y-59021187D01*
X147306244Y-59022934D01*
X147304737Y-59024693D01*
X147303244Y-59026466D01*
X147301768Y-59028250D01*
X147300306Y-59030049D01*
X147298860Y-59031859D01*
X147297430Y-59033683D01*
X147296015Y-59035518D01*
X147294616Y-59037367D01*
X147293234Y-59039227D01*
X147291866Y-59041100D01*
X147290516Y-59042984D01*
X147289180Y-59044881D01*
X147287862Y-59046788D01*
X147286560Y-59048708D01*
X147285274Y-59050639D01*
X147284004Y-59052582D01*
X147282752Y-59054535D01*
X147281515Y-59056501D01*
X147280296Y-59058476D01*
X147279093Y-59060464D01*
X147277908Y-59062461D01*
X147276738Y-59064471D01*
X147275587Y-59066489D01*
X147274451Y-59068520D01*
X147273334Y-59070560D01*
X147272233Y-59072611D01*
X147270687Y-59075565D01*
D12*
X129761019Y-81256453D02*
X129766702Y-81293379D01*
X129772463Y-81330290D01*
X129778303Y-81367188D01*
X129784222Y-81404071D01*
X129790219Y-81440940D01*
X129796296Y-81477795D01*
X129802450Y-81514635D01*
X129808684Y-81551461D01*
X129814996Y-81588271D01*
X129821387Y-81625067D01*
X129827856Y-81661849D01*
X129834404Y-81698615D01*
X129841031Y-81735366D01*
X129847736Y-81772102D01*
X129854519Y-81808823D01*
X129861381Y-81845528D01*
X129868321Y-81882218D01*
X129875340Y-81918892D01*
X129882438Y-81955551D01*
X129889613Y-81992194D01*
X129896868Y-82028821D01*
X129904200Y-82065433D01*
X129911611Y-82102028D01*
X129914985Y-82118557D01*
X164005969Y-73319306D02*
X163994876Y-73283776D01*
X163983706Y-73248266D01*
X163972458Y-73212777D01*
X163961133Y-73177308D01*
X163949730Y-73141859D01*
X163938250Y-73106432D01*
X163926693Y-73071025D01*
X163915058Y-73035638D01*
X163903346Y-73000273D01*
X163891557Y-72964928D01*
X163879690Y-72929605D01*
X163867746Y-72894302D01*
X163855725Y-72859021D01*
X163843627Y-72823761D01*
X163831451Y-72788523D01*
X163819198Y-72753306D01*
X163806869Y-72718111D01*
X163794461Y-72682937D01*
X163781977Y-72647785D01*
X163769416Y-72612655D01*
X163756778Y-72577547D01*
X163744062Y-72542461D01*
X163731270Y-72507397D01*
X163730721Y-72505899D01*
X141046594Y-62145924D02*
X141011537Y-62158803D01*
X140976512Y-62171755D01*
X140941519Y-62184781D01*
X140906559Y-62197880D01*
X140871632Y-62211052D01*
X140836737Y-62224297D01*
X140801875Y-62237615D01*
X140767046Y-62251006D01*
X140732251Y-62264470D01*
X140697489Y-62278007D01*
X140662761Y-62291617D01*
X140628067Y-62305299D01*
X140593407Y-62319054D01*
X140558780Y-62332881D01*
X140524189Y-62346781D01*
X140489631Y-62360753D01*
X140455109Y-62374797D01*
X140420621Y-62388914D01*
X140386168Y-62403102D01*
X140351750Y-62417363D01*
X140317368Y-62431696D01*
X140283022Y-62446100D01*
X140251564Y-62459369D01*
D10*
X146374456Y-75843792D02*
X146372359Y-75842811D01*
X146370252Y-75841846D01*
X146368139Y-75840902D01*
X146366016Y-75839975D01*
X146363887Y-75839067D01*
X146361749Y-75838177D01*
X146359606Y-75837306D01*
X146357453Y-75836453D01*
X146355295Y-75835620D01*
X146353129Y-75834805D01*
X146350957Y-75834010D01*
X146348777Y-75833232D01*
X146346593Y-75832475D01*
X146344399Y-75831736D01*
X146342203Y-75831016D01*
X146339997Y-75830315D01*
X146337788Y-75829634D01*
X146335570Y-75828971D01*
X146333350Y-75828328D01*
X146331121Y-75827703D01*
X146328889Y-75827099D01*
X146326650Y-75826513D01*
X146324408Y-75825947D01*
X146322158Y-75825400D01*
X146319905Y-75824873D01*
X146317645Y-75824365D01*
X146315383Y-75823877D01*
X146313114Y-75823408D01*
X146310843Y-75822959D01*
X146308565Y-75822529D01*
X146306285Y-75822119D01*
X146303998Y-75821728D01*
X146301710Y-75821358D01*
X146299415Y-75821006D01*
X146297119Y-75820675D01*
X146294816Y-75820363D01*
X146292512Y-75820071D01*
X146290202Y-75819799D01*
X146287891Y-75819546D01*
X146285574Y-75819313D01*
X146283256Y-75819100D01*
X146280933Y-75818907D01*
X146278608Y-75818734D01*
X146276279Y-75818581D01*
X146273948Y-75818447D01*
X146271612Y-75818334D01*
X146269276Y-75818240D01*
X146266935Y-75818166D01*
X146264594Y-75818113D01*
X146262247Y-75818079D01*
X146259475Y-75818065D01*
D12*
X159665394Y-66146180D02*
X159638861Y-66119703D01*
X159612269Y-66093280D01*
X159585616Y-66066911D01*
X159558905Y-66040595D01*
X159532134Y-66014333D01*
X159505304Y-65988125D01*
X159478415Y-65961971D01*
X159451466Y-65935871D01*
X159424459Y-65909825D01*
X159397392Y-65883834D01*
X159370267Y-65857897D01*
X159343083Y-65832014D01*
X159315840Y-65806186D01*
X159288539Y-65780413D01*
X159261179Y-65754694D01*
X159233760Y-65729030D01*
X159206284Y-65703422D01*
X159178749Y-65677868D01*
X159151156Y-65652369D01*
X159123505Y-65626926D01*
X159095796Y-65601538D01*
X159068029Y-65576206D01*
X159057407Y-65566544D01*
X163417277Y-85339662D02*
X163424523Y-85322505D01*
X163431751Y-85305339D01*
X163438961Y-85288164D01*
X163446153Y-85270980D01*
X163453327Y-85253788D01*
X163460483Y-85236587D01*
X163467620Y-85219377D01*
X163474740Y-85202159D01*
X163481842Y-85184932D01*
X163488926Y-85167696D01*
X163495991Y-85150452D01*
X163503039Y-85133198D01*
X163510068Y-85115937D01*
X163517079Y-85098667D01*
X163524072Y-85081388D01*
X163531048Y-85064101D01*
X163538004Y-85046806D01*
X163544943Y-85029501D01*
X163551864Y-85012189D01*
X163558766Y-84994868D01*
X163565650Y-84977539D01*
X163572516Y-84960201D01*
X163579364Y-84942855D01*
X163586194Y-84925500D01*
X163593005Y-84908138D01*
X163599798Y-84890766D01*
X163606573Y-84873387D01*
X163613330Y-84855999D01*
X163620068Y-84838604D01*
X163626788Y-84821199D01*
X163633490Y-84803787D01*
X163640174Y-84786367D01*
X163646839Y-84768938D01*
X163653486Y-84751501D01*
X163660114Y-84734057D01*
X163666725Y-84716603D01*
X163673317Y-84699143D01*
X163679890Y-84681673D01*
X163686446Y-84664197D01*
X163692983Y-84646711D01*
X163699501Y-84629218D01*
X163706001Y-84611717D01*
X163712483Y-84594208D01*
X163718947Y-84576691D01*
X163730721Y-84544631D01*
X135930152Y-65081381D02*
X135915635Y-65093375D01*
X135901131Y-65105383D01*
X135886643Y-65117404D01*
X135872169Y-65129440D01*
X135857711Y-65141489D01*
X135843267Y-65153552D01*
X135828839Y-65165627D01*
X135814425Y-65177718D01*
X135800027Y-65189820D01*
X135785643Y-65201937D01*
X135771275Y-65214066D01*
X135756921Y-65226211D01*
X135742584Y-65238367D01*
X135728259Y-65250538D01*
X135713953Y-65262721D01*
X135699659Y-65274918D01*
X135685382Y-65287128D01*
X135671119Y-65299352D01*
X135656873Y-65311588D01*
X135642641Y-65323839D01*
X135628425Y-65336101D01*
X135614223Y-65348379D01*
X135600039Y-65360667D01*
X135585867Y-65372971D01*
X135571713Y-65385286D01*
X135557573Y-65397616D01*
X135543450Y-65409957D01*
X135529341Y-65422313D01*
X135515249Y-65434680D01*
X135501170Y-65447062D01*
X135487109Y-65459455D01*
X135473062Y-65471863D01*
X135459032Y-65484282D01*
X135445016Y-65496716D01*
X135431018Y-65509160D01*
X135417033Y-65521620D01*
X135403066Y-65534090D01*
X135389112Y-65546575D01*
X135375177Y-65559071D01*
X135361255Y-65571581D01*
X135347351Y-65584103D01*
X135333460Y-65596639D01*
X135319588Y-65609185D01*
X135305729Y-65621746D01*
X135294862Y-65631615D01*
X131285583Y-71000466D02*
X131277484Y-71017297D01*
X131269402Y-71034139D01*
X131261340Y-71050986D01*
X131253295Y-71067843D01*
X131245269Y-71084706D01*
X131237261Y-71101579D01*
X131229272Y-71118458D01*
X131221301Y-71135347D01*
X131213349Y-71152242D01*
X131205414Y-71169146D01*
X131197499Y-71186056D01*
X131189602Y-71202977D01*
X131181723Y-71219903D01*
X131173862Y-71236838D01*
X131166021Y-71253780D01*
X131158197Y-71270731D01*
X131150392Y-71287688D01*
X131142606Y-71304655D01*
X131134838Y-71321627D01*
X131127088Y-71338609D01*
X131119357Y-71355597D01*
X131111644Y-71372595D01*
X131103951Y-71389598D01*
X131096275Y-71406610D01*
X131088618Y-71423628D01*
X131080979Y-71440656D01*
X131073360Y-71457690D01*
X131065758Y-71474732D01*
X131058176Y-71491781D01*
X131050611Y-71508839D01*
X131043066Y-71525902D01*
X131035538Y-71542975D01*
X131028030Y-71560053D01*
X131020539Y-71577141D01*
X131013068Y-71594234D01*
X131005615Y-71611337D01*
X130998181Y-71628445D01*
X130990765Y-71645562D01*
X130983369Y-71662685D01*
X130975990Y-71679817D01*
X130968631Y-71696954D01*
X130961289Y-71714101D01*
X130953967Y-71731252D01*
X130946663Y-71748414D01*
X130934993Y-71775939D01*
D10*
X147270687Y-59075565D02*
X138115038Y-76833609D01*
X141257620Y-75565654D02*
X141257486Y-75563357D01*
X141257373Y-75561057D01*
X141257279Y-75558760D01*
X141257206Y-75556459D01*
X141257152Y-75554162D01*
X141257119Y-75551861D01*
X141257105Y-75549564D01*
X141257112Y-75547264D01*
X141257139Y-75544967D01*
X141257185Y-75542669D01*
X141257252Y-75540373D01*
X141257339Y-75538076D01*
X141257446Y-75535783D01*
X141257573Y-75533488D01*
X141257719Y-75531197D01*
X141257886Y-75528904D01*
X141258073Y-75526616D01*
X141258280Y-75524326D01*
X141258507Y-75522041D01*
X141258754Y-75519755D01*
X141259021Y-75517474D01*
X141259307Y-75515191D01*
X141259614Y-75512914D01*
X141259941Y-75510636D01*
X141260287Y-75508363D01*
X141260654Y-75506090D01*
X141261040Y-75503822D01*
X141261446Y-75501554D01*
X141261872Y-75499291D01*
X141262319Y-75497028D01*
X141262784Y-75494771D01*
X141263270Y-75492514D01*
X141263776Y-75490263D01*
X141264302Y-75488012D01*
X141264847Y-75485768D01*
X141265412Y-75483523D01*
X141265997Y-75481285D01*
X141266602Y-75479048D01*
X141267226Y-75476816D01*
X141267871Y-75474586D01*
X141268535Y-75472362D01*
X141269220Y-75470139D01*
X141269923Y-75467923D01*
X141270647Y-75465708D01*
X141271390Y-75463499D01*
X141272154Y-75461292D01*
X141272937Y-75459091D01*
X141273740Y-75456892D01*
X141274563Y-75454700D01*
X141275406Y-75452510D01*
X141276268Y-75450326D01*
X141277150Y-75448145D01*
X141278052Y-75445970D01*
X141278974Y-75443798D01*
X141279915Y-75441632D01*
X141280877Y-75439469D01*
X141281858Y-75437313D01*
X141282860Y-75435160D01*
X141283880Y-75433013D01*
X141284922Y-75430870D01*
X141285579Y-75429540D01*
D12*
X137988148Y-63618116D02*
X137956305Y-63637511D01*
X137924490Y-63656983D01*
X137892704Y-63676531D01*
X137860947Y-63696154D01*
X137829219Y-63715854D01*
X137797521Y-63735629D01*
X137765854Y-63755480D01*
X137734216Y-63775406D01*
X137702609Y-63795408D01*
X137671034Y-63815484D01*
X137639489Y-63835635D01*
X137607977Y-63855861D01*
X137576496Y-63876162D01*
X137545048Y-63896536D01*
X137513633Y-63916985D01*
X137482251Y-63937507D01*
X137450902Y-63958103D01*
X137419587Y-63978773D01*
X137388307Y-63999515D01*
X137357061Y-64020331D01*
X137325849Y-64041220D01*
X137294673Y-64062182D01*
X137277779Y-64073581D01*
X129649713Y-76800368D02*
X129647829Y-76819019D01*
X129645964Y-76837675D01*
X129644120Y-76856332D01*
X129642295Y-76874995D01*
X129640490Y-76893658D01*
X129638705Y-76912327D01*
X129636940Y-76930997D01*
X129635194Y-76949673D01*
X129633468Y-76968349D01*
X129631762Y-76987031D01*
X129630076Y-77005714D01*
X129628409Y-77024402D01*
X129626763Y-77043091D01*
X129625136Y-77061786D01*
X129623529Y-77080482D01*
X129621941Y-77099183D01*
X129620374Y-77117885D01*
X129618826Y-77136593D01*
X129617298Y-77155301D01*
X129615790Y-77174015D01*
X129614302Y-77192730D01*
X129612834Y-77211450D01*
X129611385Y-77230172D01*
X129609956Y-77248899D01*
X129608547Y-77267626D01*
X129607158Y-77286360D01*
X129605789Y-77305094D01*
X129604439Y-77323833D01*
X129603110Y-77342574D01*
X129601800Y-77361320D01*
X129600510Y-77380067D01*
X129599240Y-77398820D01*
X129597990Y-77417573D01*
X129596759Y-77436332D01*
X129595548Y-77455092D01*
X129594358Y-77473857D01*
X129593187Y-77492623D01*
X129592035Y-77511395D01*
X129590904Y-77530168D01*
X129589793Y-77548946D01*
X129588701Y-77567725D01*
X129587629Y-77586510D01*
X129586578Y-77605295D01*
X129585546Y-77624086D01*
X129584533Y-77642878D01*
X129583541Y-77661676D01*
X129582115Y-77689380D01*
X148187264Y-96009109D02*
X148224857Y-96007163D01*
X148262437Y-96005138D01*
X148300003Y-96003034D01*
X148337557Y-96000850D01*
X148375097Y-95998587D01*
X148412625Y-95996245D01*
X148450139Y-95993823D01*
X148487640Y-95991322D01*
X148525128Y-95988742D01*
X148562603Y-95986082D01*
X148600065Y-95983343D01*
X148637514Y-95980525D01*
X148674950Y-95977628D01*
X148712372Y-95974652D01*
X148749782Y-95971596D01*
X148787178Y-95968461D01*
X148824562Y-95965247D01*
X148861932Y-95961954D01*
X148899289Y-95958582D01*
X148936633Y-95955130D01*
X148973964Y-95951600D01*
X149011282Y-95947990D01*
X149048587Y-95944302D01*
X149076275Y-95941512D01*
D10*
X157808221Y-59325612D02*
X149708676Y-74469257D01*
X157801789Y-59060602D02*
X157804150Y-59064621D01*
X157806443Y-59068681D01*
X157808667Y-59072782D01*
X157809753Y-59074847D01*
X157810821Y-59076922D01*
X157811872Y-59079006D01*
X157812904Y-59081099D01*
X157813919Y-59083201D01*
X157814916Y-59085312D01*
X157815895Y-59087431D01*
X157816855Y-59089559D01*
X157817797Y-59091694D01*
X157818721Y-59093838D01*
X157819627Y-59095990D01*
X157820514Y-59098149D01*
X157821382Y-59100315D01*
X157822232Y-59102489D01*
X157823063Y-59104670D01*
X157823875Y-59106858D01*
X157824668Y-59109051D01*
X157825442Y-59111252D01*
X157826197Y-59113458D01*
X157826933Y-59115671D01*
X157827650Y-59117889D01*
X157828348Y-59120113D01*
X157829026Y-59122342D01*
X157829685Y-59124577D01*
X157830325Y-59126816D01*
X157830945Y-59129060D01*
X157831545Y-59131308D01*
X157832127Y-59133562D01*
X157832688Y-59135819D01*
X157833230Y-59138081D01*
X157833752Y-59140346D01*
X157834254Y-59142615D01*
X157834737Y-59144887D01*
X157835200Y-59147163D01*
X157835643Y-59149441D01*
X157836066Y-59151723D01*
X157836469Y-59154006D01*
X157836853Y-59156294D01*
X157837216Y-59158582D01*
X157837560Y-59160874D01*
X157837884Y-59163166D01*
X157838187Y-59165463D01*
X157838471Y-59167758D01*
X157838735Y-59170057D01*
X157838978Y-59172355D01*
X157839202Y-59174657D01*
X157839405Y-59176957D01*
X157839589Y-59179261D01*
X157839752Y-59181562D01*
X157839896Y-59183867D01*
X157840116Y-59188316D01*
M02*
