%TF.GenerationSoftware,KiCad,Pcbnew,9.0.4*%
%TF.CreationDate,2025-10-13T15:08:01-05:00*%
%TF.ProjectId,tplane2025,74706c61-6e65-4323-9032-352e6b696361,rev?*%
%TF.SameCoordinates,Original*%
%TF.FileFunction,Soldermask,Top*%
%TF.FilePolarity,Negative*%
%FSLAX46Y46*%
G04 Gerber Fmt 4.6, Leading zero omitted, Abs format (unit mm)*
G04 Created by KiCad (PCBNEW 9.0.4) date 2025-10-13 15:08:01*
%MOMM*%
%LPD*%
G01*
G04 APERTURE LIST*
G04 Aperture macros list*
%AMHorizOval*
0 Thick line with rounded ends*
0 $1 width*
0 $2 $3 position (X,Y) of the first rounded end (center of the circle)*
0 $4 $5 position (X,Y) of the second rounded end (center of the circle)*
0 Add line between two ends*
20,1,$1,$2,$3,$4,$5,0*
0 Add two circle primitives to create the rounded ends*
1,1,$1,$2,$3*
1,1,$1,$4,$5*%
%AMRotRect*
0 Rectangle, with rotation*
0 The origin of the aperture is its center*
0 $1 length*
0 $2 width*
0 $3 Rotation angle, in degrees counterclockwise*
0 Add horizontal line*
21,1,$1,$2,0,0,$3*%
G04 Aperture macros list end*
%ADD10R,1.800000X1.800000*%
%ADD11C,1.800000*%
%ADD12RotRect,1.600000X1.600000X300.000000*%
%ADD13HorizOval,1.600000X0.000000X0.000000X0.000000X0.000000X0*%
%ADD14RotRect,1.600000X1.600000X120.000000*%
%ADD15HorizOval,1.600000X0.000000X0.000000X0.000000X0.000000X0*%
%ADD16R,1.600000X1.600000*%
%ADD17O,1.600000X1.600000*%
%ADD18R,1.700000X1.700000*%
%ADD19C,1.700000*%
%ADD20C,3.200000*%
%ADD21RotRect,1.600000X1.600000X60.000000*%
%ADD22HorizOval,1.600000X0.000000X0.000000X0.000000X0.000000X0*%
%ADD23RotRect,1.600000X1.600000X240.000000*%
%ADD24HorizOval,1.600000X0.000000X0.000000X0.000000X0.000000X0*%
G04 APERTURE END LIST*
D10*
%TO.C,SW1*%
X139070000Y-65160000D03*
D11*
X141610000Y-65160000D03*
%TD*%
D12*
%TO.C,D6*%
X129900000Y-87020295D03*
D13*
X131170000Y-89220000D03*
%TD*%
D14*
%TO.C,D3*%
X164411522Y-70460032D03*
D15*
X163141522Y-68260327D03*
%TD*%
D16*
%TO.C,D1*%
X146110000Y-100020000D03*
D17*
X148650000Y-100020000D03*
%TD*%
D18*
%TO.C,J3*%
X160710000Y-95650000D03*
D19*
X158170000Y-95650000D03*
X160710000Y-98190000D03*
X158170000Y-98190000D03*
X160710000Y-100730000D03*
X158170000Y-100730000D03*
%TD*%
D16*
%TO.C,D4*%
X148760000Y-56105000D03*
D17*
X146220000Y-56105000D03*
%TD*%
D20*
%TO.C,H1*%
X133400000Y-55070000D03*
%TD*%
D21*
%TO.C,D2*%
X162851522Y-89245032D03*
D22*
X164121522Y-87045327D03*
%TD*%
D23*
%TO.C,D5*%
X130758479Y-68954969D03*
D24*
X129488479Y-71154674D03*
%TD*%
G36*
X160837268Y-57050789D02*
G01*
X160845479Y-57051063D01*
X160867388Y-57052523D01*
X160887941Y-57055639D01*
X160918242Y-57062874D01*
X160941204Y-57070803D01*
X160968349Y-57083272D01*
X160985015Y-57092542D01*
X160993324Y-57098040D01*
X161008534Y-57109903D01*
X161031597Y-57130973D01*
X161047450Y-57148508D01*
X161065433Y-57172681D01*
X161075635Y-57188867D01*
X161079320Y-57195857D01*
X161090178Y-57224635D01*
X161106289Y-57291493D01*
X161109682Y-57324328D01*
X161109471Y-57331236D01*
X161103829Y-57364613D01*
X161081454Y-57435839D01*
X161072929Y-57456343D01*
X160397471Y-58742142D01*
X160397470Y-58742145D01*
X153016912Y-72790989D01*
X153016842Y-72791120D01*
X152760260Y-73278104D01*
X152645836Y-73502441D01*
X152645835Y-73502444D01*
X152632725Y-73553656D01*
X152632536Y-73555433D01*
X152632500Y-73560889D01*
X152630175Y-73605885D01*
X152632845Y-73634493D01*
X152632845Y-73634495D01*
X152645883Y-73685420D01*
X152645886Y-73685428D01*
X152668838Y-73732637D01*
X152687249Y-73759443D01*
X152763084Y-73826135D01*
X152763086Y-73826136D01*
X152801073Y-73843519D01*
X152801075Y-73843520D01*
X152900593Y-73862273D01*
X156815329Y-73862146D01*
X156823198Y-73862396D01*
X156844676Y-73863761D01*
X156865215Y-73866808D01*
X156892450Y-73873217D01*
X156915443Y-73881073D01*
X156945292Y-73894668D01*
X156960334Y-73902816D01*
X156968374Y-73907918D01*
X156986706Y-73922119D01*
X157006852Y-73940990D01*
X157023801Y-73960572D01*
X157051372Y-74000119D01*
X157069733Y-74040105D01*
X157084315Y-74096717D01*
X157088159Y-74131965D01*
X157087903Y-74139312D01*
X157082584Y-74171169D01*
X157060883Y-74242319D01*
X157053299Y-74261373D01*
X156147143Y-76082939D01*
X156147102Y-76083021D01*
X150551416Y-87310766D01*
X150551417Y-87310767D01*
X147794343Y-92843821D01*
X147794342Y-92843820D01*
X147343910Y-93747965D01*
X147343904Y-93747978D01*
X146992321Y-94453507D01*
X146992315Y-94453520D01*
X146732907Y-94973924D01*
X146732906Y-94973923D01*
X146397529Y-95647335D01*
X146397530Y-95647336D01*
X145757134Y-96933463D01*
X145757079Y-96933573D01*
X145425144Y-97598549D01*
X145425145Y-97598550D01*
X144338224Y-99777901D01*
X144331042Y-99790419D01*
X144315631Y-99813988D01*
X144303943Y-99829162D01*
X144285689Y-99849408D01*
X144250422Y-99876586D01*
X144188976Y-99908269D01*
X144165755Y-99917416D01*
X142669545Y-100338695D01*
X142599680Y-100337917D01*
X142541326Y-100299490D01*
X142513011Y-100235615D01*
X142521185Y-100172349D01*
X145118959Y-93828013D01*
X145121851Y-93821492D01*
X146091511Y-91794355D01*
X146092496Y-91792342D01*
X147313402Y-89354205D01*
X147313875Y-89353270D01*
X148468673Y-87094998D01*
X148468683Y-87094977D01*
X150182481Y-83745044D01*
X152460317Y-79147348D01*
X152460320Y-79147340D01*
X153159228Y-77501345D01*
X153160950Y-77497475D01*
X154030448Y-75629784D01*
X154140256Y-75166036D01*
X154141257Y-75113540D01*
X154141256Y-75113520D01*
X154138398Y-75088220D01*
X154138394Y-75088204D01*
X154123451Y-75037510D01*
X154123449Y-75037503D01*
X154100269Y-74990283D01*
X154082386Y-74965390D01*
X154005335Y-74899706D01*
X154005324Y-74899699D01*
X153972077Y-74882839D01*
X153872410Y-74864798D01*
X153872417Y-74864798D01*
X149949594Y-74864563D01*
X149940266Y-74864211D01*
X149919046Y-74862609D01*
X149899658Y-74859589D01*
X149866333Y-74851654D01*
X149844643Y-74844315D01*
X149819654Y-74833195D01*
X149800927Y-74822841D01*
X149796349Y-74819766D01*
X149782847Y-74809277D01*
X149755972Y-74785252D01*
X149739324Y-74767086D01*
X149721341Y-74743048D01*
X149710469Y-74725692D01*
X149707273Y-74719507D01*
X149696873Y-74691581D01*
X149680323Y-74622773D01*
X149677025Y-74587877D01*
X149677361Y-74580821D01*
X149682822Y-74549871D01*
X149704066Y-74481611D01*
X149713127Y-74459968D01*
X157807833Y-59328449D01*
X157807845Y-59328425D01*
X157823433Y-59292672D01*
X157837167Y-59240166D01*
X157837311Y-59158690D01*
X157837310Y-59158688D01*
X157824291Y-59108040D01*
X157802400Y-59061397D01*
X157783148Y-59033500D01*
X157707463Y-58966634D01*
X157707461Y-58966632D01*
X157670590Y-58948630D01*
X157569999Y-58930000D01*
X149690126Y-58930000D01*
X149623087Y-58910315D01*
X149577332Y-58857511D01*
X149567388Y-58788353D01*
X149579091Y-58750798D01*
X150347052Y-57206089D01*
X150352236Y-57196703D01*
X150367900Y-57171032D01*
X150380742Y-57153612D01*
X150400228Y-57131512D01*
X150419085Y-57114135D01*
X150442749Y-57096479D01*
X150458328Y-57086570D01*
X150470048Y-57080289D01*
X150506440Y-57067583D01*
X150580467Y-57054124D01*
X150601335Y-57052131D01*
X150727047Y-57050800D01*
X150728360Y-57050793D01*
X160790332Y-57050776D01*
X160790366Y-57050776D01*
X160837268Y-57050789D01*
G37*
G36*
X149356894Y-58949685D02*
G01*
X149402649Y-59002489D01*
X149412593Y-59071647D01*
X149400885Y-59109211D01*
X141289187Y-75421961D01*
X141271810Y-75461476D01*
X141259555Y-75513950D01*
X141259553Y-75513963D01*
X141257669Y-75565879D01*
X141257669Y-75565888D01*
X141260894Y-75593855D01*
X141274630Y-75644263D01*
X141297776Y-75691216D01*
X141297779Y-75691222D01*
X141315442Y-75716288D01*
X141391905Y-75782485D01*
X141426774Y-75799281D01*
X141426779Y-75799283D01*
X141526258Y-75818044D01*
X141526255Y-75818044D01*
X146258782Y-75818098D01*
X146261359Y-75818125D01*
X146264196Y-75818184D01*
X146279569Y-75819463D01*
X146313060Y-75824363D01*
X146336995Y-75830346D01*
X146365416Y-75840546D01*
X146390926Y-75853171D01*
X146416722Y-75869874D01*
X146435479Y-75884776D01*
X146454663Y-75903308D01*
X146478842Y-75935897D01*
X146509007Y-75994704D01*
X146522621Y-76047633D01*
X146524709Y-76118231D01*
X146523342Y-76140615D01*
X145987419Y-79650158D01*
X145893914Y-80307406D01*
X145893857Y-80307802D01*
X145596568Y-82350171D01*
X145186956Y-85232810D01*
X145186867Y-85233421D01*
X144871415Y-87376684D01*
X144871248Y-87377786D01*
X144197940Y-91683538D01*
X144197506Y-91686134D01*
X143599447Y-95042270D01*
X143598962Y-95044834D01*
X143242501Y-96827136D01*
X143242249Y-96828363D01*
X142968116Y-98130503D01*
X142967666Y-98132557D01*
X142643213Y-99553748D01*
X142642907Y-99555053D01*
X142496394Y-100166296D01*
X142461625Y-100226900D01*
X142399611Y-100259086D01*
X142330040Y-100252636D01*
X142275000Y-100209596D01*
X142261394Y-100185193D01*
X141699278Y-98839720D01*
X141699230Y-98839605D01*
X141689714Y-98816763D01*
X141686456Y-98808033D01*
X141680249Y-98789276D01*
X141674138Y-98756754D01*
X141670335Y-98683561D01*
X141671367Y-98659926D01*
X141674617Y-98636724D01*
X141674630Y-98636627D01*
X141686978Y-98548975D01*
X141686995Y-98548855D01*
X141729878Y-98246591D01*
X141846273Y-97420885D01*
X141846277Y-97420856D01*
X142092512Y-95676970D01*
X142092512Y-95676967D01*
X144596442Y-77946662D01*
X144596447Y-77946662D01*
X144596446Y-77946626D01*
X144647116Y-77588587D01*
X144655471Y-77528819D01*
X144656116Y-77486616D01*
X144656116Y-77467331D01*
X144645815Y-77417115D01*
X144643560Y-77408772D01*
X144633595Y-77386799D01*
X144633287Y-77386113D01*
X144622081Y-77361001D01*
X144622079Y-77360998D01*
X144592062Y-77319616D01*
X144592048Y-77319598D01*
X144584763Y-77310599D01*
X144584756Y-77310592D01*
X144503001Y-77251369D01*
X144502995Y-77251366D01*
X144488154Y-77244674D01*
X144389042Y-77225834D01*
X144389047Y-77225834D01*
X138383653Y-77225373D01*
X138383588Y-77225354D01*
X138383456Y-77225373D01*
X138356056Y-77225327D01*
X138350635Y-77225199D01*
X138330850Y-77224300D01*
X138306945Y-77220859D01*
X138278185Y-77213806D01*
X138255060Y-77205638D01*
X138226708Y-77192339D01*
X138212679Y-77184616D01*
X138203195Y-77178566D01*
X138186932Y-77166195D01*
X138164097Y-77145644D01*
X138149167Y-77129602D01*
X138131449Y-77106821D01*
X138119096Y-77087479D01*
X138116373Y-77082193D01*
X138106294Y-77055421D01*
X138089239Y-76987053D01*
X138085567Y-76955096D01*
X138085681Y-76947825D01*
X138090836Y-76914337D01*
X138111571Y-76844798D01*
X138120188Y-76823406D01*
X146069121Y-61406091D01*
X147240195Y-59134710D01*
X147240199Y-59134712D01*
X147240235Y-59134631D01*
X147268482Y-59079939D01*
X147273133Y-59071717D01*
X147284261Y-59053686D01*
X147295809Y-59037910D01*
X147318797Y-59011207D01*
X147337760Y-58993368D01*
X147360168Y-58976345D01*
X147379963Y-58964056D01*
X147394853Y-58956651D01*
X147426711Y-58945899D01*
X147498029Y-58932220D01*
X147521387Y-58930000D01*
X149289855Y-58930000D01*
X149356894Y-58949685D01*
G37*
M02*
