%TF.GenerationSoftware,KiCad,Pcbnew,9.0.4*%
%TF.CreationDate,2025-10-13T15:08:01-05:00*%
%TF.ProjectId,tplane2025,74706c61-6e65-4323-9032-352e6b696361,rev?*%
%TF.SameCoordinates,Original*%
%TF.FileFunction,Copper,L2,Bot*%
%TF.FilePolarity,Positive*%
%FSLAX46Y46*%
G04 Gerber Fmt 4.6, Leading zero omitted, Abs format (unit mm)*
G04 Created by KiCad (PCBNEW 9.0.4) date 2025-10-13 15:08:01*
%MOMM*%
%LPD*%
G01*
G04 APERTURE LIST*
G04 Aperture macros list*
%AMRoundRect*
0 Rectangle with rounded corners*
0 $1 Rounding radius*
0 $2 $3 $4 $5 $6 $7 $8 $9 X,Y pos of 4 corners*
0 Add a 4 corners polygon primitive as box body*
4,1,4,$2,$3,$4,$5,$6,$7,$8,$9,$2,$3,0*
0 Add four circle primitives for the rounded corners*
1,1,$1+$1,$2,$3*
1,1,$1+$1,$4,$5*
1,1,$1+$1,$6,$7*
1,1,$1+$1,$8,$9*
0 Add four rect primitives between the rounded corners*
20,1,$1+$1,$2,$3,$4,$5,0*
20,1,$1+$1,$4,$5,$6,$7,0*
20,1,$1+$1,$6,$7,$8,$9,0*
20,1,$1+$1,$8,$9,$2,$3,0*%
%AMHorizOval*
0 Thick line with rounded ends*
0 $1 width*
0 $2 $3 position (X,Y) of the first rounded end (center of the circle)*
0 $4 $5 position (X,Y) of the second rounded end (center of the circle)*
0 Add line between two ends*
20,1,$1,$2,$3,$4,$5,0*
0 Add two circle primitives to create the rounded ends*
1,1,$1,$2,$3*
1,1,$1,$4,$5*%
%AMRotRect*
0 Rectangle, with rotation*
0 The origin of the aperture is its center*
0 $1 length*
0 $2 width*
0 $3 Rotation angle, in degrees counterclockwise*
0 Add horizontal line*
21,1,$1,$2,0,0,$3*%
G04 Aperture macros list end*
%TA.AperFunction,SMDPad,CuDef*%
%ADD10R,6.000000X5.500000*%
%TD*%
%TA.AperFunction,SMDPad,CuDef*%
%ADD11C,20.000000*%
%TD*%
%TA.AperFunction,SMDPad,CuDef*%
%ADD12RoundRect,0.250000X0.312500X0.625000X-0.312500X0.625000X-0.312500X-0.625000X0.312500X-0.625000X0*%
%TD*%
%TA.AperFunction,ComponentPad*%
%ADD13R,1.800000X1.800000*%
%TD*%
%TA.AperFunction,ComponentPad*%
%ADD14C,1.800000*%
%TD*%
%TA.AperFunction,ComponentPad*%
%ADD15RotRect,1.600000X1.600000X300.000000*%
%TD*%
%TA.AperFunction,ComponentPad*%
%ADD16HorizOval,1.600000X0.000000X0.000000X0.000000X0.000000X0*%
%TD*%
%TA.AperFunction,ComponentPad*%
%ADD17RotRect,1.600000X1.600000X120.000000*%
%TD*%
%TA.AperFunction,ComponentPad*%
%ADD18HorizOval,1.600000X0.000000X0.000000X0.000000X0.000000X0*%
%TD*%
%TA.AperFunction,ComponentPad*%
%ADD19R,1.600000X1.600000*%
%TD*%
%TA.AperFunction,ComponentPad*%
%ADD20O,1.600000X1.600000*%
%TD*%
%TA.AperFunction,SMDPad,CuDef*%
%ADD21RoundRect,0.250000X-0.312500X-0.625000X0.312500X-0.625000X0.312500X0.625000X-0.312500X0.625000X0*%
%TD*%
%TA.AperFunction,ComponentPad*%
%ADD22R,1.700000X1.700000*%
%TD*%
%TA.AperFunction,ComponentPad*%
%ADD23C,1.700000*%
%TD*%
%TA.AperFunction,SMDPad,CuDef*%
%ADD24RoundRect,0.250000X-0.625000X0.312500X-0.625000X-0.312500X0.625000X-0.312500X0.625000X0.312500X0*%
%TD*%
%TA.AperFunction,ComponentPad*%
%ADD25RotRect,1.600000X1.600000X60.000000*%
%TD*%
%TA.AperFunction,ComponentPad*%
%ADD26HorizOval,1.600000X0.000000X0.000000X0.000000X0.000000X0*%
%TD*%
%TA.AperFunction,ComponentPad*%
%ADD27RotRect,1.600000X1.600000X240.000000*%
%TD*%
%TA.AperFunction,ComponentPad*%
%ADD28HorizOval,1.600000X0.000000X0.000000X0.000000X0.000000X0*%
%TD*%
%TA.AperFunction,SMDPad,CuDef*%
%ADD29RoundRect,0.250000X0.625000X-0.312500X0.625000X0.312500X-0.625000X0.312500X-0.625000X-0.312500X0*%
%TD*%
%TA.AperFunction,Conductor*%
%ADD30C,0.200000*%
%TD*%
G04 APERTURE END LIST*
D10*
%TO.P,BT1,1,+*%
%TO.N,/Battery_VIN*%
X162790000Y-79420000D03*
X132190000Y-79420000D03*
D11*
%TO.P,BT1,2,-*%
%TO.N,GND*%
X147490000Y-79420000D03*
%TD*%
D12*
%TO.P,R18,1*%
%TO.N,GND*%
X138072500Y-90060000D03*
%TO.P,R18,2*%
%TO.N,Net-(D6-K)*%
X135147500Y-90060000D03*
%TD*%
D13*
%TO.P,SW1,1,1*%
%TO.N,/Battery_VIN*%
X139070000Y-65160000D03*
D14*
%TO.P,SW1,2,2*%
%TO.N,/tilt_anode*%
X141610000Y-65160000D03*
%TD*%
D15*
%TO.P,D6,1,K*%
%TO.N,Net-(D6-K)*%
X129900000Y-87020295D03*
D16*
%TO.P,D6,2,A*%
%TO.N,/tilt_anode*%
X131170000Y-89220000D03*
%TD*%
D12*
%TO.P,R5,1*%
%TO.N,GND*%
X135450000Y-66670000D03*
%TO.P,R5,2*%
%TO.N,Net-(D5-K)*%
X132525000Y-66670000D03*
%TD*%
D17*
%TO.P,D3,1,K*%
%TO.N,Net-(D3-K)*%
X164411522Y-70460032D03*
D18*
%TO.P,D3,2,A*%
%TO.N,/tilt_anode*%
X163141522Y-68260327D03*
%TD*%
D19*
%TO.P,D1,1,K*%
%TO.N,Net-(D1-K)*%
X146110000Y-100020000D03*
D20*
%TO.P,D1,2,A*%
%TO.N,/tilt_anode*%
X148650000Y-100020000D03*
%TD*%
D21*
%TO.P,R3,1*%
%TO.N,GND*%
X158200000Y-91750000D03*
%TO.P,R3,2*%
%TO.N,Net-(D2-K)*%
X161125000Y-91750000D03*
%TD*%
%TO.P,R1,1*%
%TO.N,GND*%
X162850000Y-74570000D03*
%TO.P,R1,2*%
%TO.N,Net-(D3-K)*%
X165775000Y-74570000D03*
%TD*%
D22*
%TO.P,J3,1,Pin_1*%
%TO.N,/Battery_VIN*%
X160710000Y-95650000D03*
D23*
%TO.P,J3,2,Pin_2*%
%TO.N,GND*%
X158170000Y-95650000D03*
%TO.P,J3,3,Pin_3*%
%TO.N,unconnected-(J3-Pin_3-Pad3)*%
X160710000Y-98190000D03*
%TO.P,J3,4,Pin_4*%
%TO.N,/SCL{slash}SCK*%
X158170000Y-98190000D03*
%TO.P,J3,5,Pin_5*%
%TO.N,/CS{slash}MISO*%
X160710000Y-100730000D03*
%TO.P,J3,6,Pin_6*%
%TO.N,/UPDI*%
X158170000Y-100730000D03*
%TD*%
D19*
%TO.P,D4,1,K*%
%TO.N,Net-(D4-K)*%
X148760000Y-56105000D03*
D20*
%TO.P,D4,2,A*%
%TO.N,/tilt_anode*%
X146220000Y-56105000D03*
%TD*%
D24*
%TO.P,R2,1*%
%TO.N,GND*%
X143360000Y-94760000D03*
%TO.P,R2,2*%
%TO.N,Net-(D1-K)*%
X143360000Y-97685000D03*
%TD*%
D25*
%TO.P,D2,1,K*%
%TO.N,Net-(D2-K)*%
X162851522Y-89245032D03*
D26*
%TO.P,D2,2,A*%
%TO.N,/tilt_anode*%
X164121522Y-87045327D03*
%TD*%
D27*
%TO.P,D5,1,K*%
%TO.N,Net-(D5-K)*%
X130758479Y-68954969D03*
D28*
%TO.P,D5,2,A*%
%TO.N,/tilt_anode*%
X129488479Y-71154674D03*
%TD*%
D29*
%TO.P,R4,1*%
%TO.N,GND*%
X151460000Y-58570000D03*
%TO.P,R4,2*%
%TO.N,Net-(D4-K)*%
X151460000Y-55645000D03*
%TD*%
D30*
%TO.N,GND*%
X158170000Y-95650000D02*
X147490000Y-84970000D01*
X147490000Y-84970000D02*
X147490000Y-79420000D01*
X143360000Y-94760000D02*
X147490000Y-90630000D01*
X152340000Y-74570000D02*
X147490000Y-79420000D01*
X158200000Y-90130000D02*
X147490000Y-79420000D01*
X138072500Y-88837500D02*
X147490000Y-79420000D01*
X162850000Y-74570000D02*
X152340000Y-74570000D01*
X147490000Y-78710000D02*
X147490000Y-79420000D01*
X147490000Y-90630000D02*
X147490000Y-79420000D01*
X135450000Y-66670000D02*
X147490000Y-78710000D01*
X151460000Y-75450000D02*
X147490000Y-79420000D01*
X138072500Y-90060000D02*
X138072500Y-88837500D01*
X151460000Y-58570000D02*
X151460000Y-75450000D01*
X158200000Y-91750000D02*
X158200000Y-90130000D01*
%TO.N,/tilt_anode*%
X141610000Y-64180000D02*
X141610000Y-65160000D01*
X131170000Y-89220000D02*
X130288385Y-89220000D01*
X128506180Y-72136973D02*
X129488479Y-71154674D01*
X162341523Y-66411523D02*
X162341523Y-67460328D01*
X130288385Y-89220000D02*
X128506180Y-87437795D01*
X133620000Y-69770000D02*
X133620000Y-65024315D01*
X137410000Y-63150000D02*
X140580000Y-63150000D01*
X140580000Y-63150000D02*
X141610000Y-64180000D01*
X129488479Y-71154674D02*
X132235326Y-71154674D01*
X141610000Y-65160000D02*
X141610000Y-60715000D01*
X142050000Y-64510000D02*
X148537660Y-58022340D01*
X132235326Y-71154674D02*
X133620000Y-69770000D01*
X137193685Y-63410000D02*
X137390000Y-63213685D01*
X147510000Y-98880000D02*
X140830000Y-98880000D01*
X148650000Y-100020000D02*
X147510000Y-98880000D01*
X166638500Y-70625935D02*
X166638500Y-84528349D01*
X162341523Y-67460328D02*
X163141522Y-68260327D01*
X128506180Y-87437795D02*
X128506180Y-72136973D01*
X133620000Y-65024315D02*
X135234315Y-63410000D01*
X150160000Y-57240000D02*
X153170000Y-57240000D01*
X141610000Y-60715000D02*
X146220000Y-56105000D01*
X140830000Y-98880000D02*
X131170000Y-89220000D01*
X141610000Y-65160000D02*
X142050000Y-64720000D01*
X149377660Y-58022340D02*
X150160000Y-57240000D01*
X153170000Y-57240000D02*
X162341523Y-66411523D01*
X164272892Y-68260327D02*
X166638500Y-70625935D01*
X142050000Y-64720000D02*
X142050000Y-64510000D01*
X135234315Y-63410000D02*
X137193685Y-63410000D01*
X166638500Y-84528349D02*
X164121522Y-87045327D01*
X163141522Y-68260327D02*
X164272892Y-68260327D01*
X137390000Y-63170000D02*
X137410000Y-63150000D01*
X137390000Y-63213685D02*
X137390000Y-63170000D01*
X148537660Y-58022340D02*
X149377660Y-58022340D01*
%TO.N,Net-(D2-K)*%
X162851522Y-89245032D02*
X161125000Y-90971554D01*
X161125000Y-90971554D02*
X161125000Y-91750000D01*
%TO.N,Net-(D3-K)*%
X165775000Y-71823510D02*
X165775000Y-74570000D01*
X164411522Y-70460032D02*
X165775000Y-71823510D01*
%TO.N,Net-(D4-K)*%
X151000000Y-56105000D02*
X151460000Y-55645000D01*
X148760000Y-56105000D02*
X151000000Y-56105000D01*
%TO.N,Net-(D5-K)*%
X132525000Y-66670000D02*
X130758479Y-68436521D01*
X130758479Y-68436521D02*
X130758479Y-68954969D01*
%TO.N,Net-(D6-K)*%
X132107795Y-87020295D02*
X135147500Y-90060000D01*
X129900000Y-87020295D02*
X132107795Y-87020295D01*
%TO.N,/Battery_VIN*%
X160261500Y-95201500D02*
X160710000Y-95650000D01*
X134050000Y-77560000D02*
X132190000Y-79420000D01*
X134050000Y-65700000D02*
X134050000Y-77560000D01*
X160261500Y-81948500D02*
X160261500Y-95201500D01*
X162790000Y-79420000D02*
X160261500Y-81948500D01*
X138430000Y-64520000D02*
X135230000Y-64520000D01*
X135230000Y-64520000D02*
X134050000Y-65700000D01*
X139070000Y-65160000D02*
X138430000Y-64520000D01*
%TD*%
M02*
