%TF.GenerationSoftware,KiCad,Pcbnew,9.0.4*%
%TF.CreationDate,2025-10-13T15:08:05-05:00*%
%TF.ProjectId,tplane2025,74706c61-6e65-4323-9032-352e6b696361,rev?*%
%TF.SameCoordinates,Original*%
%TF.FileFunction,Drillmap*%
%TF.FilePolarity,Positive*%
%FSLAX45Y45*%
G04 Gerber Fmt 4.5, Leading zero omitted, Abs format (unit mm)*
G04 Created by KiCad (PCBNEW 9.0.4) date 2025-10-13 15:08:05*
%MOMM*%
%LPD*%
G01*
G04 APERTURE LIST*
%ADD10C,0.200000*%
%ADD11C,0.050000*%
%ADD12C,0.100000*%
G04 APERTURE END LIST*
D10*
X17290422Y-5948000D02*
G75*
G02*
X17731267Y-5948000I220422J0D01*
G01*
D11*
X14434000Y-10582000D02*
X12526000Y-8674000D01*
X17296422Y-8300578D02*
X17296422Y-8868578D01*
D10*
X17737267Y-8868578D02*
G75*
G02*
X17296422Y-8868578I-220422J0D01*
G01*
X16855578Y-8300578D02*
G75*
G02*
X17296422Y-8300578I220422J0D01*
G01*
D11*
X17290422Y-6516000D02*
X17290422Y-5948000D01*
X16226000Y-10582000D02*
X14434000Y-10582000D01*
X16849578Y-6516000D02*
X16849578Y-5817000D01*
X13406000Y-4671000D02*
X15704000Y-4671000D01*
X17737267Y-8868578D02*
X17731267Y-5948000D01*
X16855578Y-9952000D02*
X16226000Y-10582000D01*
X12526000Y-5551000D02*
X13406000Y-4671000D01*
X16855578Y-8300578D02*
X16855578Y-9952000D01*
X15704000Y-4671000D02*
X16849578Y-5816578D01*
X12526000Y-8674000D02*
X12526000Y-5551000D01*
D10*
X17290422Y-6516000D02*
G75*
G02*
X16849578Y-6516000I-220422J0D01*
G01*
D12*
X12908848Y-7075467D02*
X12988848Y-7155467D01*
X12988848Y-7075467D02*
X12908848Y-7155467D01*
X12950000Y-8662030D02*
X13030000Y-8742030D01*
X13030000Y-8662030D02*
X12950000Y-8742030D01*
X13035848Y-6855497D02*
X13115848Y-6935497D01*
X13115848Y-6855497D02*
X13035848Y-6935497D01*
X13077000Y-8882000D02*
X13157000Y-8962000D01*
X13157000Y-8882000D02*
X13077000Y-8962000D01*
X14571000Y-9962000D02*
X14651000Y-10042000D01*
X14651000Y-9962000D02*
X14571000Y-10042000D01*
X14582000Y-5570500D02*
X14662000Y-5650500D01*
X14662000Y-5570500D02*
X14582000Y-5650500D01*
X14825000Y-9962000D02*
X14905000Y-10042000D01*
X14905000Y-9962000D02*
X14825000Y-10042000D01*
X14836000Y-5570500D02*
X14916000Y-5650500D01*
X14916000Y-5570500D02*
X14836000Y-5650500D01*
X16245152Y-8884503D02*
X16325152Y-8964503D01*
X16325152Y-8884503D02*
X16245152Y-8964503D01*
X16274152Y-6786033D02*
X16354152Y-6866033D01*
X16354152Y-6786033D02*
X16274152Y-6866033D01*
X16372152Y-8664533D02*
X16452152Y-8744533D01*
X16452152Y-8664533D02*
X16372152Y-8744533D01*
X16401152Y-7006003D02*
X16481152Y-7086003D01*
X16481152Y-7006003D02*
X16401152Y-7086003D01*
X13952000Y-6516000D02*
G75*
G02*
X13862000Y-6516000I-45000J0D01*
G01*
X13862000Y-6516000D02*
G75*
G02*
X13952000Y-6516000I45000J0D01*
G01*
X14206000Y-6516000D02*
G75*
G02*
X14116000Y-6516000I-45000J0D01*
G01*
X14116000Y-6516000D02*
G75*
G02*
X14206000Y-6516000I45000J0D01*
G01*
X15817000Y-9515000D02*
X15817000Y-9615000D01*
X15767000Y-9565000D02*
X15867000Y-9565000D01*
X15817000Y-9769000D02*
X15817000Y-9869000D01*
X15767000Y-9819000D02*
X15867000Y-9819000D01*
X15817000Y-10023000D02*
X15817000Y-10123000D01*
X15767000Y-10073000D02*
X15867000Y-10073000D01*
X16071000Y-9515000D02*
X16071000Y-9615000D01*
X16021000Y-9565000D02*
X16121000Y-9565000D01*
X16071000Y-9769000D02*
X16071000Y-9869000D01*
X16021000Y-9819000D02*
X16121000Y-9819000D01*
X16071000Y-10023000D02*
X16071000Y-10123000D01*
X16021000Y-10073000D02*
X16121000Y-10073000D01*
D10*
X12784277Y-10895984D02*
X12784277Y-10695984D01*
X12784277Y-10695984D02*
X12831896Y-10695984D01*
X12831896Y-10695984D02*
X12860467Y-10705508D01*
X12860467Y-10705508D02*
X12879515Y-10724555D01*
X12879515Y-10724555D02*
X12889039Y-10743603D01*
X12889039Y-10743603D02*
X12898562Y-10781698D01*
X12898562Y-10781698D02*
X12898562Y-10810270D01*
X12898562Y-10810270D02*
X12889039Y-10848365D01*
X12889039Y-10848365D02*
X12879515Y-10867412D01*
X12879515Y-10867412D02*
X12860467Y-10886460D01*
X12860467Y-10886460D02*
X12831896Y-10895984D01*
X12831896Y-10895984D02*
X12784277Y-10895984D01*
X12984277Y-10895984D02*
X12984277Y-10762650D01*
X12984277Y-10800746D02*
X12993801Y-10781698D01*
X12993801Y-10781698D02*
X13003324Y-10772174D01*
X13003324Y-10772174D02*
X13022372Y-10762650D01*
X13022372Y-10762650D02*
X13041420Y-10762650D01*
X13108086Y-10895984D02*
X13108086Y-10762650D01*
X13108086Y-10695984D02*
X13098562Y-10705508D01*
X13098562Y-10705508D02*
X13108086Y-10715031D01*
X13108086Y-10715031D02*
X13117610Y-10705508D01*
X13117610Y-10705508D02*
X13108086Y-10695984D01*
X13108086Y-10695984D02*
X13108086Y-10715031D01*
X13231896Y-10895984D02*
X13212848Y-10886460D01*
X13212848Y-10886460D02*
X13203324Y-10867412D01*
X13203324Y-10867412D02*
X13203324Y-10695984D01*
X13336658Y-10895984D02*
X13317610Y-10886460D01*
X13317610Y-10886460D02*
X13308086Y-10867412D01*
X13308086Y-10867412D02*
X13308086Y-10695984D01*
X13565229Y-10895984D02*
X13565229Y-10695984D01*
X13565229Y-10695984D02*
X13631896Y-10838841D01*
X13631896Y-10838841D02*
X13698562Y-10695984D01*
X13698562Y-10695984D02*
X13698562Y-10895984D01*
X13879515Y-10895984D02*
X13879515Y-10791222D01*
X13879515Y-10791222D02*
X13869991Y-10772174D01*
X13869991Y-10772174D02*
X13850943Y-10762650D01*
X13850943Y-10762650D02*
X13812848Y-10762650D01*
X13812848Y-10762650D02*
X13793801Y-10772174D01*
X13879515Y-10886460D02*
X13860467Y-10895984D01*
X13860467Y-10895984D02*
X13812848Y-10895984D01*
X13812848Y-10895984D02*
X13793801Y-10886460D01*
X13793801Y-10886460D02*
X13784277Y-10867412D01*
X13784277Y-10867412D02*
X13784277Y-10848365D01*
X13784277Y-10848365D02*
X13793801Y-10829317D01*
X13793801Y-10829317D02*
X13812848Y-10819793D01*
X13812848Y-10819793D02*
X13860467Y-10819793D01*
X13860467Y-10819793D02*
X13879515Y-10810270D01*
X13974753Y-10762650D02*
X13974753Y-10962650D01*
X13974753Y-10772174D02*
X13993801Y-10762650D01*
X13993801Y-10762650D02*
X14031896Y-10762650D01*
X14031896Y-10762650D02*
X14050943Y-10772174D01*
X14050943Y-10772174D02*
X14060467Y-10781698D01*
X14060467Y-10781698D02*
X14069991Y-10800746D01*
X14069991Y-10800746D02*
X14069991Y-10857889D01*
X14069991Y-10857889D02*
X14060467Y-10876936D01*
X14060467Y-10876936D02*
X14050943Y-10886460D01*
X14050943Y-10886460D02*
X14031896Y-10895984D01*
X14031896Y-10895984D02*
X13993801Y-10895984D01*
X13993801Y-10895984D02*
X13974753Y-10886460D01*
X14155705Y-10876936D02*
X14165229Y-10886460D01*
X14165229Y-10886460D02*
X14155705Y-10895984D01*
X14155705Y-10895984D02*
X14146182Y-10886460D01*
X14146182Y-10886460D02*
X14155705Y-10876936D01*
X14155705Y-10876936D02*
X14155705Y-10895984D01*
X14155705Y-10772174D02*
X14165229Y-10781698D01*
X14165229Y-10781698D02*
X14155705Y-10791222D01*
X14155705Y-10791222D02*
X14146182Y-10781698D01*
X14146182Y-10781698D02*
X14155705Y-10772174D01*
X14155705Y-10772174D02*
X14155705Y-10791222D01*
D12*
X12443500Y-11184500D02*
X12523500Y-11264500D01*
X12523500Y-11184500D02*
X12443500Y-11264500D01*
D10*
X12822372Y-11115984D02*
X12841420Y-11115984D01*
X12841420Y-11115984D02*
X12860467Y-11125508D01*
X12860467Y-11125508D02*
X12869991Y-11135031D01*
X12869991Y-11135031D02*
X12879515Y-11154079D01*
X12879515Y-11154079D02*
X12889039Y-11192174D01*
X12889039Y-11192174D02*
X12889039Y-11239793D01*
X12889039Y-11239793D02*
X12879515Y-11277888D01*
X12879515Y-11277888D02*
X12869991Y-11296936D01*
X12869991Y-11296936D02*
X12860467Y-11306460D01*
X12860467Y-11306460D02*
X12841420Y-11315984D01*
X12841420Y-11315984D02*
X12822372Y-11315984D01*
X12822372Y-11315984D02*
X12803324Y-11306460D01*
X12803324Y-11306460D02*
X12793801Y-11296936D01*
X12793801Y-11296936D02*
X12784277Y-11277888D01*
X12784277Y-11277888D02*
X12774753Y-11239793D01*
X12774753Y-11239793D02*
X12774753Y-11192174D01*
X12774753Y-11192174D02*
X12784277Y-11154079D01*
X12784277Y-11154079D02*
X12793801Y-11135031D01*
X12793801Y-11135031D02*
X12803324Y-11125508D01*
X12803324Y-11125508D02*
X12822372Y-11115984D01*
X12974753Y-11296936D02*
X12984277Y-11306460D01*
X12984277Y-11306460D02*
X12974753Y-11315984D01*
X12974753Y-11315984D02*
X12965229Y-11306460D01*
X12965229Y-11306460D02*
X12974753Y-11296936D01*
X12974753Y-11296936D02*
X12974753Y-11315984D01*
X13098562Y-11201698D02*
X13079515Y-11192174D01*
X13079515Y-11192174D02*
X13069991Y-11182650D01*
X13069991Y-11182650D02*
X13060467Y-11163603D01*
X13060467Y-11163603D02*
X13060467Y-11154079D01*
X13060467Y-11154079D02*
X13069991Y-11135031D01*
X13069991Y-11135031D02*
X13079515Y-11125508D01*
X13079515Y-11125508D02*
X13098562Y-11115984D01*
X13098562Y-11115984D02*
X13136658Y-11115984D01*
X13136658Y-11115984D02*
X13155705Y-11125508D01*
X13155705Y-11125508D02*
X13165229Y-11135031D01*
X13165229Y-11135031D02*
X13174753Y-11154079D01*
X13174753Y-11154079D02*
X13174753Y-11163603D01*
X13174753Y-11163603D02*
X13165229Y-11182650D01*
X13165229Y-11182650D02*
X13155705Y-11192174D01*
X13155705Y-11192174D02*
X13136658Y-11201698D01*
X13136658Y-11201698D02*
X13098562Y-11201698D01*
X13098562Y-11201698D02*
X13079515Y-11211222D01*
X13079515Y-11211222D02*
X13069991Y-11220746D01*
X13069991Y-11220746D02*
X13060467Y-11239793D01*
X13060467Y-11239793D02*
X13060467Y-11277888D01*
X13060467Y-11277888D02*
X13069991Y-11296936D01*
X13069991Y-11296936D02*
X13079515Y-11306460D01*
X13079515Y-11306460D02*
X13098562Y-11315984D01*
X13098562Y-11315984D02*
X13136658Y-11315984D01*
X13136658Y-11315984D02*
X13155705Y-11306460D01*
X13155705Y-11306460D02*
X13165229Y-11296936D01*
X13165229Y-11296936D02*
X13174753Y-11277888D01*
X13174753Y-11277888D02*
X13174753Y-11239793D01*
X13174753Y-11239793D02*
X13165229Y-11220746D01*
X13165229Y-11220746D02*
X13155705Y-11211222D01*
X13155705Y-11211222D02*
X13136658Y-11201698D01*
X13298562Y-11115984D02*
X13317610Y-11115984D01*
X13317610Y-11115984D02*
X13336658Y-11125508D01*
X13336658Y-11125508D02*
X13346182Y-11135031D01*
X13346182Y-11135031D02*
X13355705Y-11154079D01*
X13355705Y-11154079D02*
X13365229Y-11192174D01*
X13365229Y-11192174D02*
X13365229Y-11239793D01*
X13365229Y-11239793D02*
X13355705Y-11277888D01*
X13355705Y-11277888D02*
X13346182Y-11296936D01*
X13346182Y-11296936D02*
X13336658Y-11306460D01*
X13336658Y-11306460D02*
X13317610Y-11315984D01*
X13317610Y-11315984D02*
X13298562Y-11315984D01*
X13298562Y-11315984D02*
X13279515Y-11306460D01*
X13279515Y-11306460D02*
X13269991Y-11296936D01*
X13269991Y-11296936D02*
X13260467Y-11277888D01*
X13260467Y-11277888D02*
X13250943Y-11239793D01*
X13250943Y-11239793D02*
X13250943Y-11192174D01*
X13250943Y-11192174D02*
X13260467Y-11154079D01*
X13260467Y-11154079D02*
X13269991Y-11135031D01*
X13269991Y-11135031D02*
X13279515Y-11125508D01*
X13279515Y-11125508D02*
X13298562Y-11115984D01*
X13489039Y-11115984D02*
X13508086Y-11115984D01*
X13508086Y-11115984D02*
X13527134Y-11125508D01*
X13527134Y-11125508D02*
X13536658Y-11135031D01*
X13536658Y-11135031D02*
X13546182Y-11154079D01*
X13546182Y-11154079D02*
X13555705Y-11192174D01*
X13555705Y-11192174D02*
X13555705Y-11239793D01*
X13555705Y-11239793D02*
X13546182Y-11277888D01*
X13546182Y-11277888D02*
X13536658Y-11296936D01*
X13536658Y-11296936D02*
X13527134Y-11306460D01*
X13527134Y-11306460D02*
X13508086Y-11315984D01*
X13508086Y-11315984D02*
X13489039Y-11315984D01*
X13489039Y-11315984D02*
X13469991Y-11306460D01*
X13469991Y-11306460D02*
X13460467Y-11296936D01*
X13460467Y-11296936D02*
X13450943Y-11277888D01*
X13450943Y-11277888D02*
X13441420Y-11239793D01*
X13441420Y-11239793D02*
X13441420Y-11192174D01*
X13441420Y-11192174D02*
X13450943Y-11154079D01*
X13450943Y-11154079D02*
X13460467Y-11135031D01*
X13460467Y-11135031D02*
X13469991Y-11125508D01*
X13469991Y-11125508D02*
X13489039Y-11115984D01*
X13641420Y-11315984D02*
X13641420Y-11182650D01*
X13641420Y-11201698D02*
X13650943Y-11192174D01*
X13650943Y-11192174D02*
X13669991Y-11182650D01*
X13669991Y-11182650D02*
X13698563Y-11182650D01*
X13698563Y-11182650D02*
X13717610Y-11192174D01*
X13717610Y-11192174D02*
X13727134Y-11211222D01*
X13727134Y-11211222D02*
X13727134Y-11315984D01*
X13727134Y-11211222D02*
X13736658Y-11192174D01*
X13736658Y-11192174D02*
X13755705Y-11182650D01*
X13755705Y-11182650D02*
X13784277Y-11182650D01*
X13784277Y-11182650D02*
X13803324Y-11192174D01*
X13803324Y-11192174D02*
X13812848Y-11211222D01*
X13812848Y-11211222D02*
X13812848Y-11315984D01*
X13908086Y-11315984D02*
X13908086Y-11182650D01*
X13908086Y-11201698D02*
X13917610Y-11192174D01*
X13917610Y-11192174D02*
X13936658Y-11182650D01*
X13936658Y-11182650D02*
X13965229Y-11182650D01*
X13965229Y-11182650D02*
X13984277Y-11192174D01*
X13984277Y-11192174D02*
X13993801Y-11211222D01*
X13993801Y-11211222D02*
X13993801Y-11315984D01*
X13993801Y-11211222D02*
X14003324Y-11192174D01*
X14003324Y-11192174D02*
X14022372Y-11182650D01*
X14022372Y-11182650D02*
X14050943Y-11182650D01*
X14050943Y-11182650D02*
X14069991Y-11192174D01*
X14069991Y-11192174D02*
X14079515Y-11211222D01*
X14079515Y-11211222D02*
X14079515Y-11315984D01*
X14469991Y-11106460D02*
X14298563Y-11363603D01*
X14727134Y-11115984D02*
X14746182Y-11115984D01*
X14746182Y-11115984D02*
X14765229Y-11125508D01*
X14765229Y-11125508D02*
X14774753Y-11135031D01*
X14774753Y-11135031D02*
X14784277Y-11154079D01*
X14784277Y-11154079D02*
X14793801Y-11192174D01*
X14793801Y-11192174D02*
X14793801Y-11239793D01*
X14793801Y-11239793D02*
X14784277Y-11277888D01*
X14784277Y-11277888D02*
X14774753Y-11296936D01*
X14774753Y-11296936D02*
X14765229Y-11306460D01*
X14765229Y-11306460D02*
X14746182Y-11315984D01*
X14746182Y-11315984D02*
X14727134Y-11315984D01*
X14727134Y-11315984D02*
X14708086Y-11306460D01*
X14708086Y-11306460D02*
X14698563Y-11296936D01*
X14698563Y-11296936D02*
X14689039Y-11277888D01*
X14689039Y-11277888D02*
X14679515Y-11239793D01*
X14679515Y-11239793D02*
X14679515Y-11192174D01*
X14679515Y-11192174D02*
X14689039Y-11154079D01*
X14689039Y-11154079D02*
X14698563Y-11135031D01*
X14698563Y-11135031D02*
X14708086Y-11125508D01*
X14708086Y-11125508D02*
X14727134Y-11115984D01*
X14879515Y-11296936D02*
X14889039Y-11306460D01*
X14889039Y-11306460D02*
X14879515Y-11315984D01*
X14879515Y-11315984D02*
X14869991Y-11306460D01*
X14869991Y-11306460D02*
X14879515Y-11296936D01*
X14879515Y-11296936D02*
X14879515Y-11315984D01*
X15012848Y-11115984D02*
X15031896Y-11115984D01*
X15031896Y-11115984D02*
X15050944Y-11125508D01*
X15050944Y-11125508D02*
X15060467Y-11135031D01*
X15060467Y-11135031D02*
X15069991Y-11154079D01*
X15069991Y-11154079D02*
X15079515Y-11192174D01*
X15079515Y-11192174D02*
X15079515Y-11239793D01*
X15079515Y-11239793D02*
X15069991Y-11277888D01*
X15069991Y-11277888D02*
X15060467Y-11296936D01*
X15060467Y-11296936D02*
X15050944Y-11306460D01*
X15050944Y-11306460D02*
X15031896Y-11315984D01*
X15031896Y-11315984D02*
X15012848Y-11315984D01*
X15012848Y-11315984D02*
X14993801Y-11306460D01*
X14993801Y-11306460D02*
X14984277Y-11296936D01*
X14984277Y-11296936D02*
X14974753Y-11277888D01*
X14974753Y-11277888D02*
X14965229Y-11239793D01*
X14965229Y-11239793D02*
X14965229Y-11192174D01*
X14965229Y-11192174D02*
X14974753Y-11154079D01*
X14974753Y-11154079D02*
X14984277Y-11135031D01*
X14984277Y-11135031D02*
X14993801Y-11125508D01*
X14993801Y-11125508D02*
X15012848Y-11115984D01*
X15146182Y-11115984D02*
X15269991Y-11115984D01*
X15269991Y-11115984D02*
X15203325Y-11192174D01*
X15203325Y-11192174D02*
X15231896Y-11192174D01*
X15231896Y-11192174D02*
X15250944Y-11201698D01*
X15250944Y-11201698D02*
X15260467Y-11211222D01*
X15260467Y-11211222D02*
X15269991Y-11230269D01*
X15269991Y-11230269D02*
X15269991Y-11277888D01*
X15269991Y-11277888D02*
X15260467Y-11296936D01*
X15260467Y-11296936D02*
X15250944Y-11306460D01*
X15250944Y-11306460D02*
X15231896Y-11315984D01*
X15231896Y-11315984D02*
X15174753Y-11315984D01*
X15174753Y-11315984D02*
X15155706Y-11306460D01*
X15155706Y-11306460D02*
X15146182Y-11296936D01*
X15460467Y-11315984D02*
X15346182Y-11315984D01*
X15403325Y-11315984D02*
X15403325Y-11115984D01*
X15403325Y-11115984D02*
X15384277Y-11144555D01*
X15384277Y-11144555D02*
X15365229Y-11163603D01*
X15365229Y-11163603D02*
X15346182Y-11173127D01*
X15641420Y-11115984D02*
X15546182Y-11115984D01*
X15546182Y-11115984D02*
X15536658Y-11211222D01*
X15536658Y-11211222D02*
X15546182Y-11201698D01*
X15546182Y-11201698D02*
X15565229Y-11192174D01*
X15565229Y-11192174D02*
X15612848Y-11192174D01*
X15612848Y-11192174D02*
X15631896Y-11201698D01*
X15631896Y-11201698D02*
X15641420Y-11211222D01*
X15641420Y-11211222D02*
X15650944Y-11230269D01*
X15650944Y-11230269D02*
X15650944Y-11277888D01*
X15650944Y-11277888D02*
X15641420Y-11296936D01*
X15641420Y-11296936D02*
X15631896Y-11306460D01*
X15631896Y-11306460D02*
X15612848Y-11315984D01*
X15612848Y-11315984D02*
X15565229Y-11315984D01*
X15565229Y-11315984D02*
X15546182Y-11306460D01*
X15546182Y-11306460D02*
X15536658Y-11296936D01*
X15727134Y-11115984D02*
X15727134Y-11154079D01*
X15803325Y-11115984D02*
X15803325Y-11154079D01*
X16098563Y-11392174D02*
X16089039Y-11382650D01*
X16089039Y-11382650D02*
X16069991Y-11354079D01*
X16069991Y-11354079D02*
X16060468Y-11335031D01*
X16060468Y-11335031D02*
X16050944Y-11306460D01*
X16050944Y-11306460D02*
X16041420Y-11258841D01*
X16041420Y-11258841D02*
X16041420Y-11220746D01*
X16041420Y-11220746D02*
X16050944Y-11173127D01*
X16050944Y-11173127D02*
X16060468Y-11144555D01*
X16060468Y-11144555D02*
X16069991Y-11125508D01*
X16069991Y-11125508D02*
X16089039Y-11096936D01*
X16089039Y-11096936D02*
X16098563Y-11087412D01*
X16279515Y-11315984D02*
X16165229Y-11315984D01*
X16222372Y-11315984D02*
X16222372Y-11115984D01*
X16222372Y-11115984D02*
X16203325Y-11144555D01*
X16203325Y-11144555D02*
X16184277Y-11163603D01*
X16184277Y-11163603D02*
X16165229Y-11173127D01*
X16355706Y-11135031D02*
X16365229Y-11125508D01*
X16365229Y-11125508D02*
X16384277Y-11115984D01*
X16384277Y-11115984D02*
X16431896Y-11115984D01*
X16431896Y-11115984D02*
X16450944Y-11125508D01*
X16450944Y-11125508D02*
X16460468Y-11135031D01*
X16460468Y-11135031D02*
X16469991Y-11154079D01*
X16469991Y-11154079D02*
X16469991Y-11173127D01*
X16469991Y-11173127D02*
X16460468Y-11201698D01*
X16460468Y-11201698D02*
X16346182Y-11315984D01*
X16346182Y-11315984D02*
X16469991Y-11315984D01*
X16708087Y-11315984D02*
X16708087Y-11115984D01*
X16793801Y-11315984D02*
X16793801Y-11211222D01*
X16793801Y-11211222D02*
X16784277Y-11192174D01*
X16784277Y-11192174D02*
X16765230Y-11182650D01*
X16765230Y-11182650D02*
X16736658Y-11182650D01*
X16736658Y-11182650D02*
X16717610Y-11192174D01*
X16717610Y-11192174D02*
X16708087Y-11201698D01*
X16917611Y-11315984D02*
X16898563Y-11306460D01*
X16898563Y-11306460D02*
X16889039Y-11296936D01*
X16889039Y-11296936D02*
X16879515Y-11277888D01*
X16879515Y-11277888D02*
X16879515Y-11220746D01*
X16879515Y-11220746D02*
X16889039Y-11201698D01*
X16889039Y-11201698D02*
X16898563Y-11192174D01*
X16898563Y-11192174D02*
X16917611Y-11182650D01*
X16917611Y-11182650D02*
X16946182Y-11182650D01*
X16946182Y-11182650D02*
X16965230Y-11192174D01*
X16965230Y-11192174D02*
X16974753Y-11201698D01*
X16974753Y-11201698D02*
X16984277Y-11220746D01*
X16984277Y-11220746D02*
X16984277Y-11277888D01*
X16984277Y-11277888D02*
X16974753Y-11296936D01*
X16974753Y-11296936D02*
X16965230Y-11306460D01*
X16965230Y-11306460D02*
X16946182Y-11315984D01*
X16946182Y-11315984D02*
X16917611Y-11315984D01*
X17098563Y-11315984D02*
X17079515Y-11306460D01*
X17079515Y-11306460D02*
X17069992Y-11287412D01*
X17069992Y-11287412D02*
X17069992Y-11115984D01*
X17250944Y-11306460D02*
X17231896Y-11315984D01*
X17231896Y-11315984D02*
X17193801Y-11315984D01*
X17193801Y-11315984D02*
X17174753Y-11306460D01*
X17174753Y-11306460D02*
X17165230Y-11287412D01*
X17165230Y-11287412D02*
X17165230Y-11211222D01*
X17165230Y-11211222D02*
X17174753Y-11192174D01*
X17174753Y-11192174D02*
X17193801Y-11182650D01*
X17193801Y-11182650D02*
X17231896Y-11182650D01*
X17231896Y-11182650D02*
X17250944Y-11192174D01*
X17250944Y-11192174D02*
X17260468Y-11211222D01*
X17260468Y-11211222D02*
X17260468Y-11230269D01*
X17260468Y-11230269D02*
X17165230Y-11249317D01*
X17336658Y-11306460D02*
X17355706Y-11315984D01*
X17355706Y-11315984D02*
X17393801Y-11315984D01*
X17393801Y-11315984D02*
X17412849Y-11306460D01*
X17412849Y-11306460D02*
X17422373Y-11287412D01*
X17422373Y-11287412D02*
X17422373Y-11277888D01*
X17422373Y-11277888D02*
X17412849Y-11258841D01*
X17412849Y-11258841D02*
X17393801Y-11249317D01*
X17393801Y-11249317D02*
X17365230Y-11249317D01*
X17365230Y-11249317D02*
X17346182Y-11239793D01*
X17346182Y-11239793D02*
X17336658Y-11220746D01*
X17336658Y-11220746D02*
X17336658Y-11211222D01*
X17336658Y-11211222D02*
X17346182Y-11192174D01*
X17346182Y-11192174D02*
X17365230Y-11182650D01*
X17365230Y-11182650D02*
X17393801Y-11182650D01*
X17393801Y-11182650D02*
X17412849Y-11192174D01*
X17489039Y-11392174D02*
X17498563Y-11382650D01*
X17498563Y-11382650D02*
X17517611Y-11354079D01*
X17517611Y-11354079D02*
X17527134Y-11335031D01*
X17527134Y-11335031D02*
X17536658Y-11306460D01*
X17536658Y-11306460D02*
X17546182Y-11258841D01*
X17546182Y-11258841D02*
X17546182Y-11220746D01*
X17546182Y-11220746D02*
X17536658Y-11173127D01*
X17536658Y-11173127D02*
X17527134Y-11144555D01*
X17527134Y-11144555D02*
X17517611Y-11125508D01*
X17517611Y-11125508D02*
X17498563Y-11096936D01*
X17498563Y-11096936D02*
X17489039Y-11087412D01*
D12*
X12523500Y-11488500D02*
G75*
G02*
X12433500Y-11488500I-45000J0D01*
G01*
X12433500Y-11488500D02*
G75*
G02*
X12523500Y-11488500I45000J0D01*
G01*
D10*
X12822372Y-11379984D02*
X12841420Y-11379984D01*
X12841420Y-11379984D02*
X12860467Y-11389508D01*
X12860467Y-11389508D02*
X12869991Y-11399031D01*
X12869991Y-11399031D02*
X12879515Y-11418079D01*
X12879515Y-11418079D02*
X12889039Y-11456174D01*
X12889039Y-11456174D02*
X12889039Y-11503793D01*
X12889039Y-11503793D02*
X12879515Y-11541888D01*
X12879515Y-11541888D02*
X12869991Y-11560936D01*
X12869991Y-11560936D02*
X12860467Y-11570460D01*
X12860467Y-11570460D02*
X12841420Y-11579984D01*
X12841420Y-11579984D02*
X12822372Y-11579984D01*
X12822372Y-11579984D02*
X12803324Y-11570460D01*
X12803324Y-11570460D02*
X12793801Y-11560936D01*
X12793801Y-11560936D02*
X12784277Y-11541888D01*
X12784277Y-11541888D02*
X12774753Y-11503793D01*
X12774753Y-11503793D02*
X12774753Y-11456174D01*
X12774753Y-11456174D02*
X12784277Y-11418079D01*
X12784277Y-11418079D02*
X12793801Y-11399031D01*
X12793801Y-11399031D02*
X12803324Y-11389508D01*
X12803324Y-11389508D02*
X12822372Y-11379984D01*
X12974753Y-11560936D02*
X12984277Y-11570460D01*
X12984277Y-11570460D02*
X12974753Y-11579984D01*
X12974753Y-11579984D02*
X12965229Y-11570460D01*
X12965229Y-11570460D02*
X12974753Y-11560936D01*
X12974753Y-11560936D02*
X12974753Y-11579984D01*
X13079515Y-11579984D02*
X13117610Y-11579984D01*
X13117610Y-11579984D02*
X13136658Y-11570460D01*
X13136658Y-11570460D02*
X13146182Y-11560936D01*
X13146182Y-11560936D02*
X13165229Y-11532365D01*
X13165229Y-11532365D02*
X13174753Y-11494269D01*
X13174753Y-11494269D02*
X13174753Y-11418079D01*
X13174753Y-11418079D02*
X13165229Y-11399031D01*
X13165229Y-11399031D02*
X13155705Y-11389508D01*
X13155705Y-11389508D02*
X13136658Y-11379984D01*
X13136658Y-11379984D02*
X13098562Y-11379984D01*
X13098562Y-11379984D02*
X13079515Y-11389508D01*
X13079515Y-11389508D02*
X13069991Y-11399031D01*
X13069991Y-11399031D02*
X13060467Y-11418079D01*
X13060467Y-11418079D02*
X13060467Y-11465698D01*
X13060467Y-11465698D02*
X13069991Y-11484746D01*
X13069991Y-11484746D02*
X13079515Y-11494269D01*
X13079515Y-11494269D02*
X13098562Y-11503793D01*
X13098562Y-11503793D02*
X13136658Y-11503793D01*
X13136658Y-11503793D02*
X13155705Y-11494269D01*
X13155705Y-11494269D02*
X13165229Y-11484746D01*
X13165229Y-11484746D02*
X13174753Y-11465698D01*
X13298562Y-11379984D02*
X13317610Y-11379984D01*
X13317610Y-11379984D02*
X13336658Y-11389508D01*
X13336658Y-11389508D02*
X13346182Y-11399031D01*
X13346182Y-11399031D02*
X13355705Y-11418079D01*
X13355705Y-11418079D02*
X13365229Y-11456174D01*
X13365229Y-11456174D02*
X13365229Y-11503793D01*
X13365229Y-11503793D02*
X13355705Y-11541888D01*
X13355705Y-11541888D02*
X13346182Y-11560936D01*
X13346182Y-11560936D02*
X13336658Y-11570460D01*
X13336658Y-11570460D02*
X13317610Y-11579984D01*
X13317610Y-11579984D02*
X13298562Y-11579984D01*
X13298562Y-11579984D02*
X13279515Y-11570460D01*
X13279515Y-11570460D02*
X13269991Y-11560936D01*
X13269991Y-11560936D02*
X13260467Y-11541888D01*
X13260467Y-11541888D02*
X13250943Y-11503793D01*
X13250943Y-11503793D02*
X13250943Y-11456174D01*
X13250943Y-11456174D02*
X13260467Y-11418079D01*
X13260467Y-11418079D02*
X13269991Y-11399031D01*
X13269991Y-11399031D02*
X13279515Y-11389508D01*
X13279515Y-11389508D02*
X13298562Y-11379984D01*
X13489039Y-11379984D02*
X13508086Y-11379984D01*
X13508086Y-11379984D02*
X13527134Y-11389508D01*
X13527134Y-11389508D02*
X13536658Y-11399031D01*
X13536658Y-11399031D02*
X13546182Y-11418079D01*
X13546182Y-11418079D02*
X13555705Y-11456174D01*
X13555705Y-11456174D02*
X13555705Y-11503793D01*
X13555705Y-11503793D02*
X13546182Y-11541888D01*
X13546182Y-11541888D02*
X13536658Y-11560936D01*
X13536658Y-11560936D02*
X13527134Y-11570460D01*
X13527134Y-11570460D02*
X13508086Y-11579984D01*
X13508086Y-11579984D02*
X13489039Y-11579984D01*
X13489039Y-11579984D02*
X13469991Y-11570460D01*
X13469991Y-11570460D02*
X13460467Y-11560936D01*
X13460467Y-11560936D02*
X13450943Y-11541888D01*
X13450943Y-11541888D02*
X13441420Y-11503793D01*
X13441420Y-11503793D02*
X13441420Y-11456174D01*
X13441420Y-11456174D02*
X13450943Y-11418079D01*
X13450943Y-11418079D02*
X13460467Y-11399031D01*
X13460467Y-11399031D02*
X13469991Y-11389508D01*
X13469991Y-11389508D02*
X13489039Y-11379984D01*
X13641420Y-11579984D02*
X13641420Y-11446650D01*
X13641420Y-11465698D02*
X13650943Y-11456174D01*
X13650943Y-11456174D02*
X13669991Y-11446650D01*
X13669991Y-11446650D02*
X13698563Y-11446650D01*
X13698563Y-11446650D02*
X13717610Y-11456174D01*
X13717610Y-11456174D02*
X13727134Y-11475222D01*
X13727134Y-11475222D02*
X13727134Y-11579984D01*
X13727134Y-11475222D02*
X13736658Y-11456174D01*
X13736658Y-11456174D02*
X13755705Y-11446650D01*
X13755705Y-11446650D02*
X13784277Y-11446650D01*
X13784277Y-11446650D02*
X13803324Y-11456174D01*
X13803324Y-11456174D02*
X13812848Y-11475222D01*
X13812848Y-11475222D02*
X13812848Y-11579984D01*
X13908086Y-11579984D02*
X13908086Y-11446650D01*
X13908086Y-11465698D02*
X13917610Y-11456174D01*
X13917610Y-11456174D02*
X13936658Y-11446650D01*
X13936658Y-11446650D02*
X13965229Y-11446650D01*
X13965229Y-11446650D02*
X13984277Y-11456174D01*
X13984277Y-11456174D02*
X13993801Y-11475222D01*
X13993801Y-11475222D02*
X13993801Y-11579984D01*
X13993801Y-11475222D02*
X14003324Y-11456174D01*
X14003324Y-11456174D02*
X14022372Y-11446650D01*
X14022372Y-11446650D02*
X14050943Y-11446650D01*
X14050943Y-11446650D02*
X14069991Y-11456174D01*
X14069991Y-11456174D02*
X14079515Y-11475222D01*
X14079515Y-11475222D02*
X14079515Y-11579984D01*
X14469991Y-11370460D02*
X14298563Y-11627603D01*
X14727134Y-11379984D02*
X14746182Y-11379984D01*
X14746182Y-11379984D02*
X14765229Y-11389508D01*
X14765229Y-11389508D02*
X14774753Y-11399031D01*
X14774753Y-11399031D02*
X14784277Y-11418079D01*
X14784277Y-11418079D02*
X14793801Y-11456174D01*
X14793801Y-11456174D02*
X14793801Y-11503793D01*
X14793801Y-11503793D02*
X14784277Y-11541888D01*
X14784277Y-11541888D02*
X14774753Y-11560936D01*
X14774753Y-11560936D02*
X14765229Y-11570460D01*
X14765229Y-11570460D02*
X14746182Y-11579984D01*
X14746182Y-11579984D02*
X14727134Y-11579984D01*
X14727134Y-11579984D02*
X14708086Y-11570460D01*
X14708086Y-11570460D02*
X14698563Y-11560936D01*
X14698563Y-11560936D02*
X14689039Y-11541888D01*
X14689039Y-11541888D02*
X14679515Y-11503793D01*
X14679515Y-11503793D02*
X14679515Y-11456174D01*
X14679515Y-11456174D02*
X14689039Y-11418079D01*
X14689039Y-11418079D02*
X14698563Y-11399031D01*
X14698563Y-11399031D02*
X14708086Y-11389508D01*
X14708086Y-11389508D02*
X14727134Y-11379984D01*
X14879515Y-11560936D02*
X14889039Y-11570460D01*
X14889039Y-11570460D02*
X14879515Y-11579984D01*
X14879515Y-11579984D02*
X14869991Y-11570460D01*
X14869991Y-11570460D02*
X14879515Y-11560936D01*
X14879515Y-11560936D02*
X14879515Y-11579984D01*
X15012848Y-11379984D02*
X15031896Y-11379984D01*
X15031896Y-11379984D02*
X15050944Y-11389508D01*
X15050944Y-11389508D02*
X15060467Y-11399031D01*
X15060467Y-11399031D02*
X15069991Y-11418079D01*
X15069991Y-11418079D02*
X15079515Y-11456174D01*
X15079515Y-11456174D02*
X15079515Y-11503793D01*
X15079515Y-11503793D02*
X15069991Y-11541888D01*
X15069991Y-11541888D02*
X15060467Y-11560936D01*
X15060467Y-11560936D02*
X15050944Y-11570460D01*
X15050944Y-11570460D02*
X15031896Y-11579984D01*
X15031896Y-11579984D02*
X15012848Y-11579984D01*
X15012848Y-11579984D02*
X14993801Y-11570460D01*
X14993801Y-11570460D02*
X14984277Y-11560936D01*
X14984277Y-11560936D02*
X14974753Y-11541888D01*
X14974753Y-11541888D02*
X14965229Y-11503793D01*
X14965229Y-11503793D02*
X14965229Y-11456174D01*
X14965229Y-11456174D02*
X14974753Y-11418079D01*
X14974753Y-11418079D02*
X14984277Y-11399031D01*
X14984277Y-11399031D02*
X14993801Y-11389508D01*
X14993801Y-11389508D02*
X15012848Y-11379984D01*
X15146182Y-11379984D02*
X15269991Y-11379984D01*
X15269991Y-11379984D02*
X15203325Y-11456174D01*
X15203325Y-11456174D02*
X15231896Y-11456174D01*
X15231896Y-11456174D02*
X15250944Y-11465698D01*
X15250944Y-11465698D02*
X15260467Y-11475222D01*
X15260467Y-11475222D02*
X15269991Y-11494269D01*
X15269991Y-11494269D02*
X15269991Y-11541888D01*
X15269991Y-11541888D02*
X15260467Y-11560936D01*
X15260467Y-11560936D02*
X15250944Y-11570460D01*
X15250944Y-11570460D02*
X15231896Y-11579984D01*
X15231896Y-11579984D02*
X15174753Y-11579984D01*
X15174753Y-11579984D02*
X15155706Y-11570460D01*
X15155706Y-11570460D02*
X15146182Y-11560936D01*
X15450944Y-11379984D02*
X15355706Y-11379984D01*
X15355706Y-11379984D02*
X15346182Y-11475222D01*
X15346182Y-11475222D02*
X15355706Y-11465698D01*
X15355706Y-11465698D02*
X15374753Y-11456174D01*
X15374753Y-11456174D02*
X15422372Y-11456174D01*
X15422372Y-11456174D02*
X15441420Y-11465698D01*
X15441420Y-11465698D02*
X15450944Y-11475222D01*
X15450944Y-11475222D02*
X15460467Y-11494269D01*
X15460467Y-11494269D02*
X15460467Y-11541888D01*
X15460467Y-11541888D02*
X15450944Y-11560936D01*
X15450944Y-11560936D02*
X15441420Y-11570460D01*
X15441420Y-11570460D02*
X15422372Y-11579984D01*
X15422372Y-11579984D02*
X15374753Y-11579984D01*
X15374753Y-11579984D02*
X15355706Y-11570460D01*
X15355706Y-11570460D02*
X15346182Y-11560936D01*
X15631896Y-11446650D02*
X15631896Y-11579984D01*
X15584277Y-11370460D02*
X15536658Y-11513317D01*
X15536658Y-11513317D02*
X15660467Y-11513317D01*
X15727134Y-11379984D02*
X15727134Y-11418079D01*
X15803325Y-11379984D02*
X15803325Y-11418079D01*
X16098563Y-11656174D02*
X16089039Y-11646650D01*
X16089039Y-11646650D02*
X16069991Y-11618079D01*
X16069991Y-11618079D02*
X16060468Y-11599031D01*
X16060468Y-11599031D02*
X16050944Y-11570460D01*
X16050944Y-11570460D02*
X16041420Y-11522841D01*
X16041420Y-11522841D02*
X16041420Y-11484746D01*
X16041420Y-11484746D02*
X16050944Y-11437127D01*
X16050944Y-11437127D02*
X16060468Y-11408555D01*
X16060468Y-11408555D02*
X16069991Y-11389508D01*
X16069991Y-11389508D02*
X16089039Y-11360936D01*
X16089039Y-11360936D02*
X16098563Y-11351412D01*
X16165229Y-11399031D02*
X16174753Y-11389508D01*
X16174753Y-11389508D02*
X16193801Y-11379984D01*
X16193801Y-11379984D02*
X16241420Y-11379984D01*
X16241420Y-11379984D02*
X16260468Y-11389508D01*
X16260468Y-11389508D02*
X16269991Y-11399031D01*
X16269991Y-11399031D02*
X16279515Y-11418079D01*
X16279515Y-11418079D02*
X16279515Y-11437127D01*
X16279515Y-11437127D02*
X16269991Y-11465698D01*
X16269991Y-11465698D02*
X16155706Y-11579984D01*
X16155706Y-11579984D02*
X16279515Y-11579984D01*
X16517610Y-11579984D02*
X16517610Y-11379984D01*
X16603325Y-11579984D02*
X16603325Y-11475222D01*
X16603325Y-11475222D02*
X16593801Y-11456174D01*
X16593801Y-11456174D02*
X16574753Y-11446650D01*
X16574753Y-11446650D02*
X16546182Y-11446650D01*
X16546182Y-11446650D02*
X16527134Y-11456174D01*
X16527134Y-11456174D02*
X16517610Y-11465698D01*
X16727134Y-11579984D02*
X16708087Y-11570460D01*
X16708087Y-11570460D02*
X16698563Y-11560936D01*
X16698563Y-11560936D02*
X16689039Y-11541888D01*
X16689039Y-11541888D02*
X16689039Y-11484746D01*
X16689039Y-11484746D02*
X16698563Y-11465698D01*
X16698563Y-11465698D02*
X16708087Y-11456174D01*
X16708087Y-11456174D02*
X16727134Y-11446650D01*
X16727134Y-11446650D02*
X16755706Y-11446650D01*
X16755706Y-11446650D02*
X16774753Y-11456174D01*
X16774753Y-11456174D02*
X16784277Y-11465698D01*
X16784277Y-11465698D02*
X16793801Y-11484746D01*
X16793801Y-11484746D02*
X16793801Y-11541888D01*
X16793801Y-11541888D02*
X16784277Y-11560936D01*
X16784277Y-11560936D02*
X16774753Y-11570460D01*
X16774753Y-11570460D02*
X16755706Y-11579984D01*
X16755706Y-11579984D02*
X16727134Y-11579984D01*
X16908087Y-11579984D02*
X16889039Y-11570460D01*
X16889039Y-11570460D02*
X16879515Y-11551412D01*
X16879515Y-11551412D02*
X16879515Y-11379984D01*
X17060468Y-11570460D02*
X17041420Y-11579984D01*
X17041420Y-11579984D02*
X17003325Y-11579984D01*
X17003325Y-11579984D02*
X16984277Y-11570460D01*
X16984277Y-11570460D02*
X16974753Y-11551412D01*
X16974753Y-11551412D02*
X16974753Y-11475222D01*
X16974753Y-11475222D02*
X16984277Y-11456174D01*
X16984277Y-11456174D02*
X17003325Y-11446650D01*
X17003325Y-11446650D02*
X17041420Y-11446650D01*
X17041420Y-11446650D02*
X17060468Y-11456174D01*
X17060468Y-11456174D02*
X17069992Y-11475222D01*
X17069992Y-11475222D02*
X17069992Y-11494269D01*
X17069992Y-11494269D02*
X16974753Y-11513317D01*
X17146182Y-11570460D02*
X17165230Y-11579984D01*
X17165230Y-11579984D02*
X17203325Y-11579984D01*
X17203325Y-11579984D02*
X17222373Y-11570460D01*
X17222373Y-11570460D02*
X17231896Y-11551412D01*
X17231896Y-11551412D02*
X17231896Y-11541888D01*
X17231896Y-11541888D02*
X17222373Y-11522841D01*
X17222373Y-11522841D02*
X17203325Y-11513317D01*
X17203325Y-11513317D02*
X17174753Y-11513317D01*
X17174753Y-11513317D02*
X17155706Y-11503793D01*
X17155706Y-11503793D02*
X17146182Y-11484746D01*
X17146182Y-11484746D02*
X17146182Y-11475222D01*
X17146182Y-11475222D02*
X17155706Y-11456174D01*
X17155706Y-11456174D02*
X17174753Y-11446650D01*
X17174753Y-11446650D02*
X17203325Y-11446650D01*
X17203325Y-11446650D02*
X17222373Y-11456174D01*
X17298563Y-11656174D02*
X17308087Y-11646650D01*
X17308087Y-11646650D02*
X17327134Y-11618079D01*
X17327134Y-11618079D02*
X17336658Y-11599031D01*
X17336658Y-11599031D02*
X17346182Y-11570460D01*
X17346182Y-11570460D02*
X17355706Y-11522841D01*
X17355706Y-11522841D02*
X17355706Y-11484746D01*
X17355706Y-11484746D02*
X17346182Y-11437127D01*
X17346182Y-11437127D02*
X17336658Y-11408555D01*
X17336658Y-11408555D02*
X17327134Y-11389508D01*
X17327134Y-11389508D02*
X17308087Y-11360936D01*
X17308087Y-11360936D02*
X17298563Y-11351412D01*
D12*
X12473500Y-11702500D02*
X12473500Y-11802500D01*
X12423500Y-11752500D02*
X12523500Y-11752500D01*
D10*
X12889039Y-11843984D02*
X12774753Y-11843984D01*
X12831896Y-11843984D02*
X12831896Y-11643984D01*
X12831896Y-11643984D02*
X12812848Y-11672555D01*
X12812848Y-11672555D02*
X12793801Y-11691603D01*
X12793801Y-11691603D02*
X12774753Y-11701127D01*
X12974753Y-11824936D02*
X12984277Y-11834460D01*
X12984277Y-11834460D02*
X12974753Y-11843984D01*
X12974753Y-11843984D02*
X12965229Y-11834460D01*
X12965229Y-11834460D02*
X12974753Y-11824936D01*
X12974753Y-11824936D02*
X12974753Y-11843984D01*
X13108086Y-11643984D02*
X13127134Y-11643984D01*
X13127134Y-11643984D02*
X13146182Y-11653508D01*
X13146182Y-11653508D02*
X13155705Y-11663031D01*
X13155705Y-11663031D02*
X13165229Y-11682079D01*
X13165229Y-11682079D02*
X13174753Y-11720174D01*
X13174753Y-11720174D02*
X13174753Y-11767793D01*
X13174753Y-11767793D02*
X13165229Y-11805888D01*
X13165229Y-11805888D02*
X13155705Y-11824936D01*
X13155705Y-11824936D02*
X13146182Y-11834460D01*
X13146182Y-11834460D02*
X13127134Y-11843984D01*
X13127134Y-11843984D02*
X13108086Y-11843984D01*
X13108086Y-11843984D02*
X13089039Y-11834460D01*
X13089039Y-11834460D02*
X13079515Y-11824936D01*
X13079515Y-11824936D02*
X13069991Y-11805888D01*
X13069991Y-11805888D02*
X13060467Y-11767793D01*
X13060467Y-11767793D02*
X13060467Y-11720174D01*
X13060467Y-11720174D02*
X13069991Y-11682079D01*
X13069991Y-11682079D02*
X13079515Y-11663031D01*
X13079515Y-11663031D02*
X13089039Y-11653508D01*
X13089039Y-11653508D02*
X13108086Y-11643984D01*
X13298562Y-11643984D02*
X13317610Y-11643984D01*
X13317610Y-11643984D02*
X13336658Y-11653508D01*
X13336658Y-11653508D02*
X13346182Y-11663031D01*
X13346182Y-11663031D02*
X13355705Y-11682079D01*
X13355705Y-11682079D02*
X13365229Y-11720174D01*
X13365229Y-11720174D02*
X13365229Y-11767793D01*
X13365229Y-11767793D02*
X13355705Y-11805888D01*
X13355705Y-11805888D02*
X13346182Y-11824936D01*
X13346182Y-11824936D02*
X13336658Y-11834460D01*
X13336658Y-11834460D02*
X13317610Y-11843984D01*
X13317610Y-11843984D02*
X13298562Y-11843984D01*
X13298562Y-11843984D02*
X13279515Y-11834460D01*
X13279515Y-11834460D02*
X13269991Y-11824936D01*
X13269991Y-11824936D02*
X13260467Y-11805888D01*
X13260467Y-11805888D02*
X13250943Y-11767793D01*
X13250943Y-11767793D02*
X13250943Y-11720174D01*
X13250943Y-11720174D02*
X13260467Y-11682079D01*
X13260467Y-11682079D02*
X13269991Y-11663031D01*
X13269991Y-11663031D02*
X13279515Y-11653508D01*
X13279515Y-11653508D02*
X13298562Y-11643984D01*
X13489039Y-11643984D02*
X13508086Y-11643984D01*
X13508086Y-11643984D02*
X13527134Y-11653508D01*
X13527134Y-11653508D02*
X13536658Y-11663031D01*
X13536658Y-11663031D02*
X13546182Y-11682079D01*
X13546182Y-11682079D02*
X13555705Y-11720174D01*
X13555705Y-11720174D02*
X13555705Y-11767793D01*
X13555705Y-11767793D02*
X13546182Y-11805888D01*
X13546182Y-11805888D02*
X13536658Y-11824936D01*
X13536658Y-11824936D02*
X13527134Y-11834460D01*
X13527134Y-11834460D02*
X13508086Y-11843984D01*
X13508086Y-11843984D02*
X13489039Y-11843984D01*
X13489039Y-11843984D02*
X13469991Y-11834460D01*
X13469991Y-11834460D02*
X13460467Y-11824936D01*
X13460467Y-11824936D02*
X13450943Y-11805888D01*
X13450943Y-11805888D02*
X13441420Y-11767793D01*
X13441420Y-11767793D02*
X13441420Y-11720174D01*
X13441420Y-11720174D02*
X13450943Y-11682079D01*
X13450943Y-11682079D02*
X13460467Y-11663031D01*
X13460467Y-11663031D02*
X13469991Y-11653508D01*
X13469991Y-11653508D02*
X13489039Y-11643984D01*
X13641420Y-11843984D02*
X13641420Y-11710650D01*
X13641420Y-11729698D02*
X13650943Y-11720174D01*
X13650943Y-11720174D02*
X13669991Y-11710650D01*
X13669991Y-11710650D02*
X13698563Y-11710650D01*
X13698563Y-11710650D02*
X13717610Y-11720174D01*
X13717610Y-11720174D02*
X13727134Y-11739222D01*
X13727134Y-11739222D02*
X13727134Y-11843984D01*
X13727134Y-11739222D02*
X13736658Y-11720174D01*
X13736658Y-11720174D02*
X13755705Y-11710650D01*
X13755705Y-11710650D02*
X13784277Y-11710650D01*
X13784277Y-11710650D02*
X13803324Y-11720174D01*
X13803324Y-11720174D02*
X13812848Y-11739222D01*
X13812848Y-11739222D02*
X13812848Y-11843984D01*
X13908086Y-11843984D02*
X13908086Y-11710650D01*
X13908086Y-11729698D02*
X13917610Y-11720174D01*
X13917610Y-11720174D02*
X13936658Y-11710650D01*
X13936658Y-11710650D02*
X13965229Y-11710650D01*
X13965229Y-11710650D02*
X13984277Y-11720174D01*
X13984277Y-11720174D02*
X13993801Y-11739222D01*
X13993801Y-11739222D02*
X13993801Y-11843984D01*
X13993801Y-11739222D02*
X14003324Y-11720174D01*
X14003324Y-11720174D02*
X14022372Y-11710650D01*
X14022372Y-11710650D02*
X14050943Y-11710650D01*
X14050943Y-11710650D02*
X14069991Y-11720174D01*
X14069991Y-11720174D02*
X14079515Y-11739222D01*
X14079515Y-11739222D02*
X14079515Y-11843984D01*
X14469991Y-11634460D02*
X14298563Y-11891603D01*
X14727134Y-11643984D02*
X14746182Y-11643984D01*
X14746182Y-11643984D02*
X14765229Y-11653508D01*
X14765229Y-11653508D02*
X14774753Y-11663031D01*
X14774753Y-11663031D02*
X14784277Y-11682079D01*
X14784277Y-11682079D02*
X14793801Y-11720174D01*
X14793801Y-11720174D02*
X14793801Y-11767793D01*
X14793801Y-11767793D02*
X14784277Y-11805888D01*
X14784277Y-11805888D02*
X14774753Y-11824936D01*
X14774753Y-11824936D02*
X14765229Y-11834460D01*
X14765229Y-11834460D02*
X14746182Y-11843984D01*
X14746182Y-11843984D02*
X14727134Y-11843984D01*
X14727134Y-11843984D02*
X14708086Y-11834460D01*
X14708086Y-11834460D02*
X14698563Y-11824936D01*
X14698563Y-11824936D02*
X14689039Y-11805888D01*
X14689039Y-11805888D02*
X14679515Y-11767793D01*
X14679515Y-11767793D02*
X14679515Y-11720174D01*
X14679515Y-11720174D02*
X14689039Y-11682079D01*
X14689039Y-11682079D02*
X14698563Y-11663031D01*
X14698563Y-11663031D02*
X14708086Y-11653508D01*
X14708086Y-11653508D02*
X14727134Y-11643984D01*
X14879515Y-11824936D02*
X14889039Y-11834460D01*
X14889039Y-11834460D02*
X14879515Y-11843984D01*
X14879515Y-11843984D02*
X14869991Y-11834460D01*
X14869991Y-11834460D02*
X14879515Y-11824936D01*
X14879515Y-11824936D02*
X14879515Y-11843984D01*
X15012848Y-11643984D02*
X15031896Y-11643984D01*
X15031896Y-11643984D02*
X15050944Y-11653508D01*
X15050944Y-11653508D02*
X15060467Y-11663031D01*
X15060467Y-11663031D02*
X15069991Y-11682079D01*
X15069991Y-11682079D02*
X15079515Y-11720174D01*
X15079515Y-11720174D02*
X15079515Y-11767793D01*
X15079515Y-11767793D02*
X15069991Y-11805888D01*
X15069991Y-11805888D02*
X15060467Y-11824936D01*
X15060467Y-11824936D02*
X15050944Y-11834460D01*
X15050944Y-11834460D02*
X15031896Y-11843984D01*
X15031896Y-11843984D02*
X15012848Y-11843984D01*
X15012848Y-11843984D02*
X14993801Y-11834460D01*
X14993801Y-11834460D02*
X14984277Y-11824936D01*
X14984277Y-11824936D02*
X14974753Y-11805888D01*
X14974753Y-11805888D02*
X14965229Y-11767793D01*
X14965229Y-11767793D02*
X14965229Y-11720174D01*
X14965229Y-11720174D02*
X14974753Y-11682079D01*
X14974753Y-11682079D02*
X14984277Y-11663031D01*
X14984277Y-11663031D02*
X14993801Y-11653508D01*
X14993801Y-11653508D02*
X15012848Y-11643984D01*
X15146182Y-11643984D02*
X15269991Y-11643984D01*
X15269991Y-11643984D02*
X15203325Y-11720174D01*
X15203325Y-11720174D02*
X15231896Y-11720174D01*
X15231896Y-11720174D02*
X15250944Y-11729698D01*
X15250944Y-11729698D02*
X15260467Y-11739222D01*
X15260467Y-11739222D02*
X15269991Y-11758269D01*
X15269991Y-11758269D02*
X15269991Y-11805888D01*
X15269991Y-11805888D02*
X15260467Y-11824936D01*
X15260467Y-11824936D02*
X15250944Y-11834460D01*
X15250944Y-11834460D02*
X15231896Y-11843984D01*
X15231896Y-11843984D02*
X15174753Y-11843984D01*
X15174753Y-11843984D02*
X15155706Y-11834460D01*
X15155706Y-11834460D02*
X15146182Y-11824936D01*
X15365229Y-11843984D02*
X15403325Y-11843984D01*
X15403325Y-11843984D02*
X15422372Y-11834460D01*
X15422372Y-11834460D02*
X15431896Y-11824936D01*
X15431896Y-11824936D02*
X15450944Y-11796365D01*
X15450944Y-11796365D02*
X15460467Y-11758269D01*
X15460467Y-11758269D02*
X15460467Y-11682079D01*
X15460467Y-11682079D02*
X15450944Y-11663031D01*
X15450944Y-11663031D02*
X15441420Y-11653508D01*
X15441420Y-11653508D02*
X15422372Y-11643984D01*
X15422372Y-11643984D02*
X15384277Y-11643984D01*
X15384277Y-11643984D02*
X15365229Y-11653508D01*
X15365229Y-11653508D02*
X15355706Y-11663031D01*
X15355706Y-11663031D02*
X15346182Y-11682079D01*
X15346182Y-11682079D02*
X15346182Y-11729698D01*
X15346182Y-11729698D02*
X15355706Y-11748746D01*
X15355706Y-11748746D02*
X15365229Y-11758269D01*
X15365229Y-11758269D02*
X15384277Y-11767793D01*
X15384277Y-11767793D02*
X15422372Y-11767793D01*
X15422372Y-11767793D02*
X15441420Y-11758269D01*
X15441420Y-11758269D02*
X15450944Y-11748746D01*
X15450944Y-11748746D02*
X15460467Y-11729698D01*
X15631896Y-11710650D02*
X15631896Y-11843984D01*
X15584277Y-11634460D02*
X15536658Y-11777317D01*
X15536658Y-11777317D02*
X15660467Y-11777317D01*
X15727134Y-11643984D02*
X15727134Y-11682079D01*
X15803325Y-11643984D02*
X15803325Y-11682079D01*
X16098563Y-11920174D02*
X16089039Y-11910650D01*
X16089039Y-11910650D02*
X16069991Y-11882079D01*
X16069991Y-11882079D02*
X16060468Y-11863031D01*
X16060468Y-11863031D02*
X16050944Y-11834460D01*
X16050944Y-11834460D02*
X16041420Y-11786841D01*
X16041420Y-11786841D02*
X16041420Y-11748746D01*
X16041420Y-11748746D02*
X16050944Y-11701127D01*
X16050944Y-11701127D02*
X16060468Y-11672555D01*
X16060468Y-11672555D02*
X16069991Y-11653508D01*
X16069991Y-11653508D02*
X16089039Y-11624936D01*
X16089039Y-11624936D02*
X16098563Y-11615412D01*
X16260468Y-11643984D02*
X16222372Y-11643984D01*
X16222372Y-11643984D02*
X16203325Y-11653508D01*
X16203325Y-11653508D02*
X16193801Y-11663031D01*
X16193801Y-11663031D02*
X16174753Y-11691603D01*
X16174753Y-11691603D02*
X16165229Y-11729698D01*
X16165229Y-11729698D02*
X16165229Y-11805888D01*
X16165229Y-11805888D02*
X16174753Y-11824936D01*
X16174753Y-11824936D02*
X16184277Y-11834460D01*
X16184277Y-11834460D02*
X16203325Y-11843984D01*
X16203325Y-11843984D02*
X16241420Y-11843984D01*
X16241420Y-11843984D02*
X16260468Y-11834460D01*
X16260468Y-11834460D02*
X16269991Y-11824936D01*
X16269991Y-11824936D02*
X16279515Y-11805888D01*
X16279515Y-11805888D02*
X16279515Y-11758269D01*
X16279515Y-11758269D02*
X16269991Y-11739222D01*
X16269991Y-11739222D02*
X16260468Y-11729698D01*
X16260468Y-11729698D02*
X16241420Y-11720174D01*
X16241420Y-11720174D02*
X16203325Y-11720174D01*
X16203325Y-11720174D02*
X16184277Y-11729698D01*
X16184277Y-11729698D02*
X16174753Y-11739222D01*
X16174753Y-11739222D02*
X16165229Y-11758269D01*
X16517610Y-11843984D02*
X16517610Y-11643984D01*
X16603325Y-11843984D02*
X16603325Y-11739222D01*
X16603325Y-11739222D02*
X16593801Y-11720174D01*
X16593801Y-11720174D02*
X16574753Y-11710650D01*
X16574753Y-11710650D02*
X16546182Y-11710650D01*
X16546182Y-11710650D02*
X16527134Y-11720174D01*
X16527134Y-11720174D02*
X16517610Y-11729698D01*
X16727134Y-11843984D02*
X16708087Y-11834460D01*
X16708087Y-11834460D02*
X16698563Y-11824936D01*
X16698563Y-11824936D02*
X16689039Y-11805888D01*
X16689039Y-11805888D02*
X16689039Y-11748746D01*
X16689039Y-11748746D02*
X16698563Y-11729698D01*
X16698563Y-11729698D02*
X16708087Y-11720174D01*
X16708087Y-11720174D02*
X16727134Y-11710650D01*
X16727134Y-11710650D02*
X16755706Y-11710650D01*
X16755706Y-11710650D02*
X16774753Y-11720174D01*
X16774753Y-11720174D02*
X16784277Y-11729698D01*
X16784277Y-11729698D02*
X16793801Y-11748746D01*
X16793801Y-11748746D02*
X16793801Y-11805888D01*
X16793801Y-11805888D02*
X16784277Y-11824936D01*
X16784277Y-11824936D02*
X16774753Y-11834460D01*
X16774753Y-11834460D02*
X16755706Y-11843984D01*
X16755706Y-11843984D02*
X16727134Y-11843984D01*
X16908087Y-11843984D02*
X16889039Y-11834460D01*
X16889039Y-11834460D02*
X16879515Y-11815412D01*
X16879515Y-11815412D02*
X16879515Y-11643984D01*
X17060468Y-11834460D02*
X17041420Y-11843984D01*
X17041420Y-11843984D02*
X17003325Y-11843984D01*
X17003325Y-11843984D02*
X16984277Y-11834460D01*
X16984277Y-11834460D02*
X16974753Y-11815412D01*
X16974753Y-11815412D02*
X16974753Y-11739222D01*
X16974753Y-11739222D02*
X16984277Y-11720174D01*
X16984277Y-11720174D02*
X17003325Y-11710650D01*
X17003325Y-11710650D02*
X17041420Y-11710650D01*
X17041420Y-11710650D02*
X17060468Y-11720174D01*
X17060468Y-11720174D02*
X17069992Y-11739222D01*
X17069992Y-11739222D02*
X17069992Y-11758269D01*
X17069992Y-11758269D02*
X16974753Y-11777317D01*
X17146182Y-11834460D02*
X17165230Y-11843984D01*
X17165230Y-11843984D02*
X17203325Y-11843984D01*
X17203325Y-11843984D02*
X17222373Y-11834460D01*
X17222373Y-11834460D02*
X17231896Y-11815412D01*
X17231896Y-11815412D02*
X17231896Y-11805888D01*
X17231896Y-11805888D02*
X17222373Y-11786841D01*
X17222373Y-11786841D02*
X17203325Y-11777317D01*
X17203325Y-11777317D02*
X17174753Y-11777317D01*
X17174753Y-11777317D02*
X17155706Y-11767793D01*
X17155706Y-11767793D02*
X17146182Y-11748746D01*
X17146182Y-11748746D02*
X17146182Y-11739222D01*
X17146182Y-11739222D02*
X17155706Y-11720174D01*
X17155706Y-11720174D02*
X17174753Y-11710650D01*
X17174753Y-11710650D02*
X17203325Y-11710650D01*
X17203325Y-11710650D02*
X17222373Y-11720174D01*
X17298563Y-11920174D02*
X17308087Y-11910650D01*
X17308087Y-11910650D02*
X17327134Y-11882079D01*
X17327134Y-11882079D02*
X17336658Y-11863031D01*
X17336658Y-11863031D02*
X17346182Y-11834460D01*
X17346182Y-11834460D02*
X17355706Y-11786841D01*
X17355706Y-11786841D02*
X17355706Y-11748746D01*
X17355706Y-11748746D02*
X17346182Y-11701127D01*
X17346182Y-11701127D02*
X17336658Y-11672555D01*
X17336658Y-11672555D02*
X17327134Y-11653508D01*
X17327134Y-11653508D02*
X17308087Y-11624936D01*
X17308087Y-11624936D02*
X17298563Y-11615412D01*
M02*
