%TF.GenerationSoftware,KiCad,Pcbnew,9.0.4*%
%TF.CreationDate,2025-10-13T15:08:01-05:00*%
%TF.ProjectId,tplane2025,74706c61-6e65-4323-9032-352e6b696361,rev?*%
%TF.SameCoordinates,Original*%
%TF.FileFunction,Copper,L1,Top*%
%TF.FilePolarity,Positive*%
%FSLAX46Y46*%
G04 Gerber Fmt 4.6, Leading zero omitted, Abs format (unit mm)*
G04 Created by KiCad (PCBNEW 9.0.4) date 2025-10-13 15:08:01*
%MOMM*%
%LPD*%
G01*
G04 APERTURE LIST*
G04 Aperture macros list*
%AMHorizOval*
0 Thick line with rounded ends*
0 $1 width*
0 $2 $3 position (X,Y) of the first rounded end (center of the circle)*
0 $4 $5 position (X,Y) of the second rounded end (center of the circle)*
0 Add line between two ends*
20,1,$1,$2,$3,$4,$5,0*
0 Add two circle primitives to create the rounded ends*
1,1,$1,$2,$3*
1,1,$1,$4,$5*%
%AMRotRect*
0 Rectangle, with rotation*
0 The origin of the aperture is its center*
0 $1 length*
0 $2 width*
0 $3 Rotation angle, in degrees counterclockwise*
0 Add horizontal line*
21,1,$1,$2,0,0,$3*%
G04 Aperture macros list end*
%TA.AperFunction,ComponentPad*%
%ADD10R,1.800000X1.800000*%
%TD*%
%TA.AperFunction,ComponentPad*%
%ADD11C,1.800000*%
%TD*%
%TA.AperFunction,ComponentPad*%
%ADD12RotRect,1.600000X1.600000X300.000000*%
%TD*%
%TA.AperFunction,ComponentPad*%
%ADD13HorizOval,1.600000X0.000000X0.000000X0.000000X0.000000X0*%
%TD*%
%TA.AperFunction,ComponentPad*%
%ADD14RotRect,1.600000X1.600000X120.000000*%
%TD*%
%TA.AperFunction,ComponentPad*%
%ADD15HorizOval,1.600000X0.000000X0.000000X0.000000X0.000000X0*%
%TD*%
%TA.AperFunction,ComponentPad*%
%ADD16R,1.600000X1.600000*%
%TD*%
%TA.AperFunction,ComponentPad*%
%ADD17O,1.600000X1.600000*%
%TD*%
%TA.AperFunction,ComponentPad*%
%ADD18R,1.700000X1.700000*%
%TD*%
%TA.AperFunction,ComponentPad*%
%ADD19C,1.700000*%
%TD*%
%TA.AperFunction,ComponentPad*%
%ADD20RotRect,1.600000X1.600000X60.000000*%
%TD*%
%TA.AperFunction,ComponentPad*%
%ADD21HorizOval,1.600000X0.000000X0.000000X0.000000X0.000000X0*%
%TD*%
%TA.AperFunction,ComponentPad*%
%ADD22RotRect,1.600000X1.600000X240.000000*%
%TD*%
%TA.AperFunction,ComponentPad*%
%ADD23HorizOval,1.600000X0.000000X0.000000X0.000000X0.000000X0*%
%TD*%
G04 APERTURE END LIST*
D10*
%TO.P,SW1,1,1*%
%TO.N,/Battery_VIN*%
X139070000Y-65160000D03*
D11*
%TO.P,SW1,2,2*%
%TO.N,/tilt_anode*%
X141610000Y-65160000D03*
%TD*%
D12*
%TO.P,D6,1,K*%
%TO.N,Net-(D6-K)*%
X129900000Y-87020295D03*
D13*
%TO.P,D6,2,A*%
%TO.N,/tilt_anode*%
X131170000Y-89220000D03*
%TD*%
D14*
%TO.P,D3,1,K*%
%TO.N,Net-(D3-K)*%
X164411522Y-70460032D03*
D15*
%TO.P,D3,2,A*%
%TO.N,/tilt_anode*%
X163141522Y-68260327D03*
%TD*%
D16*
%TO.P,D1,1,K*%
%TO.N,Net-(D1-K)*%
X146110000Y-100020000D03*
D17*
%TO.P,D1,2,A*%
%TO.N,/tilt_anode*%
X148650000Y-100020000D03*
%TD*%
D18*
%TO.P,J3,1,Pin_1*%
%TO.N,/Battery_VIN*%
X160710000Y-95650000D03*
D19*
%TO.P,J3,2,Pin_2*%
%TO.N,GND*%
X158170000Y-95650000D03*
%TO.P,J3,3,Pin_3*%
%TO.N,unconnected-(J3-Pin_3-Pad3)*%
X160710000Y-98190000D03*
%TO.P,J3,4,Pin_4*%
%TO.N,/SCL{slash}SCK*%
X158170000Y-98190000D03*
%TO.P,J3,5,Pin_5*%
%TO.N,/CS{slash}MISO*%
X160710000Y-100730000D03*
%TO.P,J3,6,Pin_6*%
%TO.N,/UPDI*%
X158170000Y-100730000D03*
%TD*%
D16*
%TO.P,D4,1,K*%
%TO.N,Net-(D4-K)*%
X148760000Y-56105000D03*
D17*
%TO.P,D4,2,A*%
%TO.N,/tilt_anode*%
X146220000Y-56105000D03*
%TD*%
D20*
%TO.P,D2,1,K*%
%TO.N,Net-(D2-K)*%
X162851522Y-89245032D03*
D21*
%TO.P,D2,2,A*%
%TO.N,/tilt_anode*%
X164121522Y-87045327D03*
%TD*%
D22*
%TO.P,D5,1,K*%
%TO.N,Net-(D5-K)*%
X130758479Y-68954969D03*
D23*
%TO.P,D5,2,A*%
%TO.N,/tilt_anode*%
X129488479Y-71154674D03*
%TD*%
%TA.AperFunction,Conductor*%
%TO.N,GND*%
G36*
X157582470Y-58932120D02*
G01*
X157602137Y-58935804D01*
X157654075Y-58945534D01*
X157685591Y-58955960D01*
X157692330Y-58959247D01*
X157720057Y-58977757D01*
X157771601Y-59023290D01*
X157791827Y-59046179D01*
X157796413Y-59052879D01*
X157806037Y-59069595D01*
X157818957Y-59096720D01*
X157827266Y-59119812D01*
X157834811Y-59149826D01*
X157837945Y-59167790D01*
X157839060Y-59179006D01*
X157839489Y-59197938D01*
X157837923Y-59227031D01*
X157833921Y-59252296D01*
X157825531Y-59283780D01*
X157819362Y-59301445D01*
X157809638Y-59323728D01*
X157805336Y-59332605D01*
X154889511Y-64785509D01*
X154889504Y-64785522D01*
X150187630Y-73575886D01*
X150187561Y-73576015D01*
X149708458Y-74469179D01*
X149680210Y-74562614D01*
X149680210Y-74562617D01*
X149675140Y-74608248D01*
X149698909Y-74704767D01*
X149698911Y-74704770D01*
X149713876Y-74733253D01*
X149713877Y-74733254D01*
X149747675Y-74778640D01*
X149747677Y-74778642D01*
X149747679Y-74778644D01*
X149785342Y-74811479D01*
X149785349Y-74811484D01*
X149785359Y-74811492D01*
X149810446Y-74829825D01*
X149810448Y-74829826D01*
X149810451Y-74829828D01*
X149857061Y-74849740D01*
X149909532Y-74862938D01*
X149944942Y-74864870D01*
X153861346Y-74864688D01*
X153883636Y-74866707D01*
X153954394Y-74879639D01*
X153988198Y-74891034D01*
X153989829Y-74891861D01*
X153991429Y-74892673D01*
X154015623Y-74908764D01*
X154070628Y-74955503D01*
X154090653Y-74977111D01*
X154094160Y-74981938D01*
X154104750Y-74999367D01*
X154118530Y-75026926D01*
X154126968Y-75048731D01*
X154135260Y-75078148D01*
X154139045Y-75097177D01*
X154139920Y-75104556D01*
X154140767Y-75121167D01*
X154140256Y-75152697D01*
X154137080Y-75178643D01*
X154130281Y-75208025D01*
X154124234Y-75227037D01*
X154057266Y-75390669D01*
X154056942Y-75391454D01*
X153349373Y-77087127D01*
X153348615Y-77088903D01*
X152772083Y-78412182D01*
X152770910Y-78414791D01*
X152145091Y-79765241D01*
X152143824Y-79767893D01*
X151962976Y-80135072D01*
X151655433Y-80788597D01*
X151654490Y-80790558D01*
X150944246Y-82233532D01*
X150943730Y-82234567D01*
X150223591Y-83663850D01*
X150223342Y-83664341D01*
X149535979Y-85011574D01*
X146804834Y-90351052D01*
X146519085Y-90920376D01*
X145021096Y-94033320D01*
X144767078Y-94604862D01*
X144766610Y-94605901D01*
X144352688Y-95514639D01*
X143993504Y-96368622D01*
X143993299Y-96369108D01*
X143615668Y-97256355D01*
X143168322Y-98389389D01*
X142504361Y-100209411D01*
X142462893Y-100265644D01*
X142397606Y-100290531D01*
X142329228Y-100276171D01*
X142279469Y-100227122D01*
X142273449Y-100214699D01*
X141695547Y-98830461D01*
X141689897Y-98817123D01*
X141686364Y-98807740D01*
X141680223Y-98789186D01*
X141674104Y-98756488D01*
X141670424Y-98683637D01*
X141671482Y-98660058D01*
X141709670Y-98389389D01*
X141851518Y-97383989D01*
X141893817Y-97083817D01*
X141893832Y-97083819D01*
X141893829Y-97083731D01*
X141937695Y-96774044D01*
X142243923Y-94604862D01*
X143788459Y-83664040D01*
X144469103Y-78842652D01*
X144654836Y-77536168D01*
X144656074Y-77466962D01*
X144645773Y-77415552D01*
X144622616Y-77362679D01*
X144585597Y-77310851D01*
X144585596Y-77310850D01*
X144503189Y-77250976D01*
X144487710Y-77244134D01*
X144389865Y-77225835D01*
X144389863Y-77225835D01*
X138363859Y-77225921D01*
X138356042Y-77225674D01*
X138329297Y-77223985D01*
X138309308Y-77221075D01*
X138277711Y-77213805D01*
X138253687Y-77205611D01*
X138227744Y-77193675D01*
X138212023Y-77185012D01*
X138202671Y-77178937D01*
X138187180Y-77167040D01*
X138164454Y-77146547D01*
X138148294Y-77128858D01*
X138130198Y-77104730D01*
X138119755Y-77088247D01*
X138116546Y-77082172D01*
X138105800Y-77053961D01*
X138089154Y-76986497D01*
X138085575Y-76954045D01*
X138085725Y-76947335D01*
X138090924Y-76914470D01*
X138111813Y-76844852D01*
X138120398Y-76823606D01*
X138859778Y-75391454D01*
X138874374Y-75363183D01*
X144712223Y-64023504D01*
X144713116Y-64021805D01*
X144895613Y-63680990D01*
X144895616Y-63680983D01*
X144895630Y-63680958D01*
X145745023Y-62032920D01*
X147223364Y-59166659D01*
X147265961Y-59081833D01*
X147272767Y-59069967D01*
X147273009Y-59069595D01*
X147287408Y-59047419D01*
X147300364Y-59030764D01*
X147320946Y-59008513D01*
X147338351Y-58992942D01*
X147360578Y-58976549D01*
X147375146Y-58967300D01*
X147391627Y-58958381D01*
X147427523Y-58945610D01*
X147498329Y-58932173D01*
X147521445Y-58930000D01*
X157559638Y-58930000D01*
X157582470Y-58932120D01*
G37*
%TD.AperFunction*%
%TD*%
M02*
