%TF.GenerationSoftware,KiCad,Pcbnew,9.0.4*%
%TF.CreationDate,2025-10-13T15:08:05-05:00*%
%TF.ProjectId,tplane2025,74706c61-6e65-4323-9032-352e6b696361,rev?*%
%TF.SameCoordinates,Original*%
%TF.FileFunction,Drillmap*%
%TF.FilePolarity,Positive*%
%FSLAX45Y45*%
G04 Gerber Fmt 4.5, Leading zero omitted, Abs format (unit mm)*
G04 Created by KiCad (PCBNEW 9.0.4) date 2025-10-13 15:08:05*
%MOMM*%
%LPD*%
G01*
G04 APERTURE LIST*
%ADD10C,0.200000*%
%ADD11C,0.050000*%
%ADD12C,0.320000*%
G04 APERTURE END LIST*
D10*
X17290422Y-5948000D02*
G75*
G02*
X17731267Y-5948000I220422J0D01*
G01*
D11*
X14434000Y-10582000D02*
X12526000Y-8674000D01*
X17296422Y-8300578D02*
X17296422Y-8868578D01*
D10*
X17737267Y-8868578D02*
G75*
G02*
X17296422Y-8868578I-220422J0D01*
G01*
X16855578Y-8300578D02*
G75*
G02*
X17296422Y-8300578I220422J0D01*
G01*
D11*
X17290422Y-6516000D02*
X17290422Y-5948000D01*
X16226000Y-10582000D02*
X14434000Y-10582000D01*
X16849578Y-6516000D02*
X16849578Y-5817000D01*
X13406000Y-4671000D02*
X15704000Y-4671000D01*
X17737267Y-8868578D02*
X17731267Y-5948000D01*
X16855578Y-9952000D02*
X16226000Y-10582000D01*
X12526000Y-5551000D02*
X13406000Y-4671000D01*
X16855578Y-8300578D02*
X16855578Y-9952000D01*
X15704000Y-4671000D02*
X16849578Y-5816578D01*
X12526000Y-8674000D02*
X12526000Y-5551000D01*
D10*
X17290422Y-6516000D02*
G75*
G02*
X16849578Y-6516000I-220422J0D01*
G01*
D12*
X13180000Y-5347000D02*
X13500000Y-5667000D01*
X13500000Y-5347000D02*
X13180000Y-5667000D01*
D10*
X12784277Y-10895984D02*
X12784277Y-10695984D01*
X12784277Y-10695984D02*
X12831896Y-10695984D01*
X12831896Y-10695984D02*
X12860467Y-10705508D01*
X12860467Y-10705508D02*
X12879515Y-10724555D01*
X12879515Y-10724555D02*
X12889039Y-10743603D01*
X12889039Y-10743603D02*
X12898562Y-10781698D01*
X12898562Y-10781698D02*
X12898562Y-10810270D01*
X12898562Y-10810270D02*
X12889039Y-10848365D01*
X12889039Y-10848365D02*
X12879515Y-10867412D01*
X12879515Y-10867412D02*
X12860467Y-10886460D01*
X12860467Y-10886460D02*
X12831896Y-10895984D01*
X12831896Y-10895984D02*
X12784277Y-10895984D01*
X12984277Y-10895984D02*
X12984277Y-10762650D01*
X12984277Y-10800746D02*
X12993801Y-10781698D01*
X12993801Y-10781698D02*
X13003324Y-10772174D01*
X13003324Y-10772174D02*
X13022372Y-10762650D01*
X13022372Y-10762650D02*
X13041420Y-10762650D01*
X13108086Y-10895984D02*
X13108086Y-10762650D01*
X13108086Y-10695984D02*
X13098562Y-10705508D01*
X13098562Y-10705508D02*
X13108086Y-10715031D01*
X13108086Y-10715031D02*
X13117610Y-10705508D01*
X13117610Y-10705508D02*
X13108086Y-10695984D01*
X13108086Y-10695984D02*
X13108086Y-10715031D01*
X13231896Y-10895984D02*
X13212848Y-10886460D01*
X13212848Y-10886460D02*
X13203324Y-10867412D01*
X13203324Y-10867412D02*
X13203324Y-10695984D01*
X13336658Y-10895984D02*
X13317610Y-10886460D01*
X13317610Y-10886460D02*
X13308086Y-10867412D01*
X13308086Y-10867412D02*
X13308086Y-10695984D01*
X13565229Y-10895984D02*
X13565229Y-10695984D01*
X13565229Y-10695984D02*
X13631896Y-10838841D01*
X13631896Y-10838841D02*
X13698562Y-10695984D01*
X13698562Y-10695984D02*
X13698562Y-10895984D01*
X13879515Y-10895984D02*
X13879515Y-10791222D01*
X13879515Y-10791222D02*
X13869991Y-10772174D01*
X13869991Y-10772174D02*
X13850943Y-10762650D01*
X13850943Y-10762650D02*
X13812848Y-10762650D01*
X13812848Y-10762650D02*
X13793801Y-10772174D01*
X13879515Y-10886460D02*
X13860467Y-10895984D01*
X13860467Y-10895984D02*
X13812848Y-10895984D01*
X13812848Y-10895984D02*
X13793801Y-10886460D01*
X13793801Y-10886460D02*
X13784277Y-10867412D01*
X13784277Y-10867412D02*
X13784277Y-10848365D01*
X13784277Y-10848365D02*
X13793801Y-10829317D01*
X13793801Y-10829317D02*
X13812848Y-10819793D01*
X13812848Y-10819793D02*
X13860467Y-10819793D01*
X13860467Y-10819793D02*
X13879515Y-10810270D01*
X13974753Y-10762650D02*
X13974753Y-10962650D01*
X13974753Y-10772174D02*
X13993801Y-10762650D01*
X13993801Y-10762650D02*
X14031896Y-10762650D01*
X14031896Y-10762650D02*
X14050943Y-10772174D01*
X14050943Y-10772174D02*
X14060467Y-10781698D01*
X14060467Y-10781698D02*
X14069991Y-10800746D01*
X14069991Y-10800746D02*
X14069991Y-10857889D01*
X14069991Y-10857889D02*
X14060467Y-10876936D01*
X14060467Y-10876936D02*
X14050943Y-10886460D01*
X14050943Y-10886460D02*
X14031896Y-10895984D01*
X14031896Y-10895984D02*
X13993801Y-10895984D01*
X13993801Y-10895984D02*
X13974753Y-10886460D01*
X14155705Y-10876936D02*
X14165229Y-10886460D01*
X14165229Y-10886460D02*
X14155705Y-10895984D01*
X14155705Y-10895984D02*
X14146182Y-10886460D01*
X14146182Y-10886460D02*
X14155705Y-10876936D01*
X14155705Y-10876936D02*
X14155705Y-10895984D01*
X14155705Y-10772174D02*
X14165229Y-10781698D01*
X14165229Y-10781698D02*
X14155705Y-10791222D01*
X14155705Y-10791222D02*
X14146182Y-10781698D01*
X14146182Y-10781698D02*
X14155705Y-10772174D01*
X14155705Y-10772174D02*
X14155705Y-10791222D01*
X12323500Y-11124500D02*
X12523500Y-11324500D01*
X12523500Y-11124500D02*
X12323500Y-11324500D01*
X12765229Y-11115984D02*
X12889039Y-11115984D01*
X12889039Y-11115984D02*
X12822372Y-11192174D01*
X12822372Y-11192174D02*
X12850943Y-11192174D01*
X12850943Y-11192174D02*
X12869991Y-11201698D01*
X12869991Y-11201698D02*
X12879515Y-11211222D01*
X12879515Y-11211222D02*
X12889039Y-11230269D01*
X12889039Y-11230269D02*
X12889039Y-11277888D01*
X12889039Y-11277888D02*
X12879515Y-11296936D01*
X12879515Y-11296936D02*
X12869991Y-11306460D01*
X12869991Y-11306460D02*
X12850943Y-11315984D01*
X12850943Y-11315984D02*
X12793801Y-11315984D01*
X12793801Y-11315984D02*
X12774753Y-11306460D01*
X12774753Y-11306460D02*
X12765229Y-11296936D01*
X12974753Y-11296936D02*
X12984277Y-11306460D01*
X12984277Y-11306460D02*
X12974753Y-11315984D01*
X12974753Y-11315984D02*
X12965229Y-11306460D01*
X12965229Y-11306460D02*
X12974753Y-11296936D01*
X12974753Y-11296936D02*
X12974753Y-11315984D01*
X13060467Y-11135031D02*
X13069991Y-11125508D01*
X13069991Y-11125508D02*
X13089039Y-11115984D01*
X13089039Y-11115984D02*
X13136658Y-11115984D01*
X13136658Y-11115984D02*
X13155705Y-11125508D01*
X13155705Y-11125508D02*
X13165229Y-11135031D01*
X13165229Y-11135031D02*
X13174753Y-11154079D01*
X13174753Y-11154079D02*
X13174753Y-11173127D01*
X13174753Y-11173127D02*
X13165229Y-11201698D01*
X13165229Y-11201698D02*
X13050943Y-11315984D01*
X13050943Y-11315984D02*
X13174753Y-11315984D01*
X13298562Y-11115984D02*
X13317610Y-11115984D01*
X13317610Y-11115984D02*
X13336658Y-11125508D01*
X13336658Y-11125508D02*
X13346182Y-11135031D01*
X13346182Y-11135031D02*
X13355705Y-11154079D01*
X13355705Y-11154079D02*
X13365229Y-11192174D01*
X13365229Y-11192174D02*
X13365229Y-11239793D01*
X13365229Y-11239793D02*
X13355705Y-11277888D01*
X13355705Y-11277888D02*
X13346182Y-11296936D01*
X13346182Y-11296936D02*
X13336658Y-11306460D01*
X13336658Y-11306460D02*
X13317610Y-11315984D01*
X13317610Y-11315984D02*
X13298562Y-11315984D01*
X13298562Y-11315984D02*
X13279515Y-11306460D01*
X13279515Y-11306460D02*
X13269991Y-11296936D01*
X13269991Y-11296936D02*
X13260467Y-11277888D01*
X13260467Y-11277888D02*
X13250943Y-11239793D01*
X13250943Y-11239793D02*
X13250943Y-11192174D01*
X13250943Y-11192174D02*
X13260467Y-11154079D01*
X13260467Y-11154079D02*
X13269991Y-11135031D01*
X13269991Y-11135031D02*
X13279515Y-11125508D01*
X13279515Y-11125508D02*
X13298562Y-11115984D01*
X13489039Y-11115984D02*
X13508086Y-11115984D01*
X13508086Y-11115984D02*
X13527134Y-11125508D01*
X13527134Y-11125508D02*
X13536658Y-11135031D01*
X13536658Y-11135031D02*
X13546182Y-11154079D01*
X13546182Y-11154079D02*
X13555705Y-11192174D01*
X13555705Y-11192174D02*
X13555705Y-11239793D01*
X13555705Y-11239793D02*
X13546182Y-11277888D01*
X13546182Y-11277888D02*
X13536658Y-11296936D01*
X13536658Y-11296936D02*
X13527134Y-11306460D01*
X13527134Y-11306460D02*
X13508086Y-11315984D01*
X13508086Y-11315984D02*
X13489039Y-11315984D01*
X13489039Y-11315984D02*
X13469991Y-11306460D01*
X13469991Y-11306460D02*
X13460467Y-11296936D01*
X13460467Y-11296936D02*
X13450943Y-11277888D01*
X13450943Y-11277888D02*
X13441420Y-11239793D01*
X13441420Y-11239793D02*
X13441420Y-11192174D01*
X13441420Y-11192174D02*
X13450943Y-11154079D01*
X13450943Y-11154079D02*
X13460467Y-11135031D01*
X13460467Y-11135031D02*
X13469991Y-11125508D01*
X13469991Y-11125508D02*
X13489039Y-11115984D01*
X13641420Y-11315984D02*
X13641420Y-11182650D01*
X13641420Y-11201698D02*
X13650943Y-11192174D01*
X13650943Y-11192174D02*
X13669991Y-11182650D01*
X13669991Y-11182650D02*
X13698563Y-11182650D01*
X13698563Y-11182650D02*
X13717610Y-11192174D01*
X13717610Y-11192174D02*
X13727134Y-11211222D01*
X13727134Y-11211222D02*
X13727134Y-11315984D01*
X13727134Y-11211222D02*
X13736658Y-11192174D01*
X13736658Y-11192174D02*
X13755705Y-11182650D01*
X13755705Y-11182650D02*
X13784277Y-11182650D01*
X13784277Y-11182650D02*
X13803324Y-11192174D01*
X13803324Y-11192174D02*
X13812848Y-11211222D01*
X13812848Y-11211222D02*
X13812848Y-11315984D01*
X13908086Y-11315984D02*
X13908086Y-11182650D01*
X13908086Y-11201698D02*
X13917610Y-11192174D01*
X13917610Y-11192174D02*
X13936658Y-11182650D01*
X13936658Y-11182650D02*
X13965229Y-11182650D01*
X13965229Y-11182650D02*
X13984277Y-11192174D01*
X13984277Y-11192174D02*
X13993801Y-11211222D01*
X13993801Y-11211222D02*
X13993801Y-11315984D01*
X13993801Y-11211222D02*
X14003324Y-11192174D01*
X14003324Y-11192174D02*
X14022372Y-11182650D01*
X14022372Y-11182650D02*
X14050943Y-11182650D01*
X14050943Y-11182650D02*
X14069991Y-11192174D01*
X14069991Y-11192174D02*
X14079515Y-11211222D01*
X14079515Y-11211222D02*
X14079515Y-11315984D01*
X14469991Y-11106460D02*
X14298563Y-11363603D01*
X14727134Y-11115984D02*
X14746182Y-11115984D01*
X14746182Y-11115984D02*
X14765229Y-11125508D01*
X14765229Y-11125508D02*
X14774753Y-11135031D01*
X14774753Y-11135031D02*
X14784277Y-11154079D01*
X14784277Y-11154079D02*
X14793801Y-11192174D01*
X14793801Y-11192174D02*
X14793801Y-11239793D01*
X14793801Y-11239793D02*
X14784277Y-11277888D01*
X14784277Y-11277888D02*
X14774753Y-11296936D01*
X14774753Y-11296936D02*
X14765229Y-11306460D01*
X14765229Y-11306460D02*
X14746182Y-11315984D01*
X14746182Y-11315984D02*
X14727134Y-11315984D01*
X14727134Y-11315984D02*
X14708086Y-11306460D01*
X14708086Y-11306460D02*
X14698563Y-11296936D01*
X14698563Y-11296936D02*
X14689039Y-11277888D01*
X14689039Y-11277888D02*
X14679515Y-11239793D01*
X14679515Y-11239793D02*
X14679515Y-11192174D01*
X14679515Y-11192174D02*
X14689039Y-11154079D01*
X14689039Y-11154079D02*
X14698563Y-11135031D01*
X14698563Y-11135031D02*
X14708086Y-11125508D01*
X14708086Y-11125508D02*
X14727134Y-11115984D01*
X14879515Y-11296936D02*
X14889039Y-11306460D01*
X14889039Y-11306460D02*
X14879515Y-11315984D01*
X14879515Y-11315984D02*
X14869991Y-11306460D01*
X14869991Y-11306460D02*
X14879515Y-11296936D01*
X14879515Y-11296936D02*
X14879515Y-11315984D01*
X15079515Y-11315984D02*
X14965229Y-11315984D01*
X15022372Y-11315984D02*
X15022372Y-11115984D01*
X15022372Y-11115984D02*
X15003325Y-11144555D01*
X15003325Y-11144555D02*
X14984277Y-11163603D01*
X14984277Y-11163603D02*
X14965229Y-11173127D01*
X15155706Y-11135031D02*
X15165229Y-11125508D01*
X15165229Y-11125508D02*
X15184277Y-11115984D01*
X15184277Y-11115984D02*
X15231896Y-11115984D01*
X15231896Y-11115984D02*
X15250944Y-11125508D01*
X15250944Y-11125508D02*
X15260467Y-11135031D01*
X15260467Y-11135031D02*
X15269991Y-11154079D01*
X15269991Y-11154079D02*
X15269991Y-11173127D01*
X15269991Y-11173127D02*
X15260467Y-11201698D01*
X15260467Y-11201698D02*
X15146182Y-11315984D01*
X15146182Y-11315984D02*
X15269991Y-11315984D01*
X15441420Y-11115984D02*
X15403325Y-11115984D01*
X15403325Y-11115984D02*
X15384277Y-11125508D01*
X15384277Y-11125508D02*
X15374753Y-11135031D01*
X15374753Y-11135031D02*
X15355706Y-11163603D01*
X15355706Y-11163603D02*
X15346182Y-11201698D01*
X15346182Y-11201698D02*
X15346182Y-11277888D01*
X15346182Y-11277888D02*
X15355706Y-11296936D01*
X15355706Y-11296936D02*
X15365229Y-11306460D01*
X15365229Y-11306460D02*
X15384277Y-11315984D01*
X15384277Y-11315984D02*
X15422372Y-11315984D01*
X15422372Y-11315984D02*
X15441420Y-11306460D01*
X15441420Y-11306460D02*
X15450944Y-11296936D01*
X15450944Y-11296936D02*
X15460467Y-11277888D01*
X15460467Y-11277888D02*
X15460467Y-11230269D01*
X15460467Y-11230269D02*
X15450944Y-11211222D01*
X15450944Y-11211222D02*
X15441420Y-11201698D01*
X15441420Y-11201698D02*
X15422372Y-11192174D01*
X15422372Y-11192174D02*
X15384277Y-11192174D01*
X15384277Y-11192174D02*
X15365229Y-11201698D01*
X15365229Y-11201698D02*
X15355706Y-11211222D01*
X15355706Y-11211222D02*
X15346182Y-11230269D01*
X15584277Y-11115984D02*
X15603325Y-11115984D01*
X15603325Y-11115984D02*
X15622372Y-11125508D01*
X15622372Y-11125508D02*
X15631896Y-11135031D01*
X15631896Y-11135031D02*
X15641420Y-11154079D01*
X15641420Y-11154079D02*
X15650944Y-11192174D01*
X15650944Y-11192174D02*
X15650944Y-11239793D01*
X15650944Y-11239793D02*
X15641420Y-11277888D01*
X15641420Y-11277888D02*
X15631896Y-11296936D01*
X15631896Y-11296936D02*
X15622372Y-11306460D01*
X15622372Y-11306460D02*
X15603325Y-11315984D01*
X15603325Y-11315984D02*
X15584277Y-11315984D01*
X15584277Y-11315984D02*
X15565229Y-11306460D01*
X15565229Y-11306460D02*
X15555706Y-11296936D01*
X15555706Y-11296936D02*
X15546182Y-11277888D01*
X15546182Y-11277888D02*
X15536658Y-11239793D01*
X15536658Y-11239793D02*
X15536658Y-11192174D01*
X15536658Y-11192174D02*
X15546182Y-11154079D01*
X15546182Y-11154079D02*
X15555706Y-11135031D01*
X15555706Y-11135031D02*
X15565229Y-11125508D01*
X15565229Y-11125508D02*
X15584277Y-11115984D01*
X15727134Y-11115984D02*
X15727134Y-11154079D01*
X15803325Y-11115984D02*
X15803325Y-11154079D01*
X16098563Y-11392174D02*
X16089039Y-11382650D01*
X16089039Y-11382650D02*
X16069991Y-11354079D01*
X16069991Y-11354079D02*
X16060468Y-11335031D01*
X16060468Y-11335031D02*
X16050944Y-11306460D01*
X16050944Y-11306460D02*
X16041420Y-11258841D01*
X16041420Y-11258841D02*
X16041420Y-11220746D01*
X16041420Y-11220746D02*
X16050944Y-11173127D01*
X16050944Y-11173127D02*
X16060468Y-11144555D01*
X16060468Y-11144555D02*
X16069991Y-11125508D01*
X16069991Y-11125508D02*
X16089039Y-11096936D01*
X16089039Y-11096936D02*
X16098563Y-11087412D01*
X16279515Y-11315984D02*
X16165229Y-11315984D01*
X16222372Y-11315984D02*
X16222372Y-11115984D01*
X16222372Y-11115984D02*
X16203325Y-11144555D01*
X16203325Y-11144555D02*
X16184277Y-11163603D01*
X16184277Y-11163603D02*
X16165229Y-11173127D01*
X16517610Y-11315984D02*
X16517610Y-11115984D01*
X16603325Y-11315984D02*
X16603325Y-11211222D01*
X16603325Y-11211222D02*
X16593801Y-11192174D01*
X16593801Y-11192174D02*
X16574753Y-11182650D01*
X16574753Y-11182650D02*
X16546182Y-11182650D01*
X16546182Y-11182650D02*
X16527134Y-11192174D01*
X16527134Y-11192174D02*
X16517610Y-11201698D01*
X16727134Y-11315984D02*
X16708087Y-11306460D01*
X16708087Y-11306460D02*
X16698563Y-11296936D01*
X16698563Y-11296936D02*
X16689039Y-11277888D01*
X16689039Y-11277888D02*
X16689039Y-11220746D01*
X16689039Y-11220746D02*
X16698563Y-11201698D01*
X16698563Y-11201698D02*
X16708087Y-11192174D01*
X16708087Y-11192174D02*
X16727134Y-11182650D01*
X16727134Y-11182650D02*
X16755706Y-11182650D01*
X16755706Y-11182650D02*
X16774753Y-11192174D01*
X16774753Y-11192174D02*
X16784277Y-11201698D01*
X16784277Y-11201698D02*
X16793801Y-11220746D01*
X16793801Y-11220746D02*
X16793801Y-11277888D01*
X16793801Y-11277888D02*
X16784277Y-11296936D01*
X16784277Y-11296936D02*
X16774753Y-11306460D01*
X16774753Y-11306460D02*
X16755706Y-11315984D01*
X16755706Y-11315984D02*
X16727134Y-11315984D01*
X16908087Y-11315984D02*
X16889039Y-11306460D01*
X16889039Y-11306460D02*
X16879515Y-11287412D01*
X16879515Y-11287412D02*
X16879515Y-11115984D01*
X17060468Y-11306460D02*
X17041420Y-11315984D01*
X17041420Y-11315984D02*
X17003325Y-11315984D01*
X17003325Y-11315984D02*
X16984277Y-11306460D01*
X16984277Y-11306460D02*
X16974753Y-11287412D01*
X16974753Y-11287412D02*
X16974753Y-11211222D01*
X16974753Y-11211222D02*
X16984277Y-11192174D01*
X16984277Y-11192174D02*
X17003325Y-11182650D01*
X17003325Y-11182650D02*
X17041420Y-11182650D01*
X17041420Y-11182650D02*
X17060468Y-11192174D01*
X17060468Y-11192174D02*
X17069992Y-11211222D01*
X17069992Y-11211222D02*
X17069992Y-11230269D01*
X17069992Y-11230269D02*
X16974753Y-11249317D01*
X17136658Y-11392174D02*
X17146182Y-11382650D01*
X17146182Y-11382650D02*
X17165230Y-11354079D01*
X17165230Y-11354079D02*
X17174753Y-11335031D01*
X17174753Y-11335031D02*
X17184277Y-11306460D01*
X17184277Y-11306460D02*
X17193801Y-11258841D01*
X17193801Y-11258841D02*
X17193801Y-11220746D01*
X17193801Y-11220746D02*
X17184277Y-11173127D01*
X17184277Y-11173127D02*
X17174753Y-11144555D01*
X17174753Y-11144555D02*
X17165230Y-11125508D01*
X17165230Y-11125508D02*
X17146182Y-11096936D01*
X17146182Y-11096936D02*
X17136658Y-11087412D01*
X17498563Y-11392174D02*
X17489039Y-11382650D01*
X17489039Y-11382650D02*
X17469992Y-11354079D01*
X17469992Y-11354079D02*
X17460468Y-11335031D01*
X17460468Y-11335031D02*
X17450944Y-11306460D01*
X17450944Y-11306460D02*
X17441420Y-11258841D01*
X17441420Y-11258841D02*
X17441420Y-11220746D01*
X17441420Y-11220746D02*
X17450944Y-11173127D01*
X17450944Y-11173127D02*
X17460468Y-11144555D01*
X17460468Y-11144555D02*
X17469992Y-11125508D01*
X17469992Y-11125508D02*
X17489039Y-11096936D01*
X17489039Y-11096936D02*
X17498563Y-11087412D01*
X17574753Y-11182650D02*
X17574753Y-11315984D01*
X17574753Y-11201698D02*
X17584277Y-11192174D01*
X17584277Y-11192174D02*
X17603325Y-11182650D01*
X17603325Y-11182650D02*
X17631896Y-11182650D01*
X17631896Y-11182650D02*
X17650944Y-11192174D01*
X17650944Y-11192174D02*
X17660468Y-11211222D01*
X17660468Y-11211222D02*
X17660468Y-11315984D01*
X17784277Y-11315984D02*
X17765230Y-11306460D01*
X17765230Y-11306460D02*
X17755706Y-11296936D01*
X17755706Y-11296936D02*
X17746182Y-11277888D01*
X17746182Y-11277888D02*
X17746182Y-11220746D01*
X17746182Y-11220746D02*
X17755706Y-11201698D01*
X17755706Y-11201698D02*
X17765230Y-11192174D01*
X17765230Y-11192174D02*
X17784277Y-11182650D01*
X17784277Y-11182650D02*
X17812849Y-11182650D01*
X17812849Y-11182650D02*
X17831896Y-11192174D01*
X17831896Y-11192174D02*
X17841420Y-11201698D01*
X17841420Y-11201698D02*
X17850944Y-11220746D01*
X17850944Y-11220746D02*
X17850944Y-11277888D01*
X17850944Y-11277888D02*
X17841420Y-11296936D01*
X17841420Y-11296936D02*
X17831896Y-11306460D01*
X17831896Y-11306460D02*
X17812849Y-11315984D01*
X17812849Y-11315984D02*
X17784277Y-11315984D01*
X17908087Y-11182650D02*
X17984277Y-11182650D01*
X17936658Y-11115984D02*
X17936658Y-11287412D01*
X17936658Y-11287412D02*
X17946182Y-11306460D01*
X17946182Y-11306460D02*
X17965230Y-11315984D01*
X17965230Y-11315984D02*
X17984277Y-11315984D01*
X18203325Y-11182650D02*
X18203325Y-11382650D01*
X18203325Y-11192174D02*
X18222373Y-11182650D01*
X18222373Y-11182650D02*
X18260468Y-11182650D01*
X18260468Y-11182650D02*
X18279515Y-11192174D01*
X18279515Y-11192174D02*
X18289039Y-11201698D01*
X18289039Y-11201698D02*
X18298563Y-11220746D01*
X18298563Y-11220746D02*
X18298563Y-11277888D01*
X18298563Y-11277888D02*
X18289039Y-11296936D01*
X18289039Y-11296936D02*
X18279515Y-11306460D01*
X18279515Y-11306460D02*
X18260468Y-11315984D01*
X18260468Y-11315984D02*
X18222373Y-11315984D01*
X18222373Y-11315984D02*
X18203325Y-11306460D01*
X18412849Y-11315984D02*
X18393801Y-11306460D01*
X18393801Y-11306460D02*
X18384277Y-11287412D01*
X18384277Y-11287412D02*
X18384277Y-11115984D01*
X18574754Y-11315984D02*
X18574754Y-11211222D01*
X18574754Y-11211222D02*
X18565230Y-11192174D01*
X18565230Y-11192174D02*
X18546182Y-11182650D01*
X18546182Y-11182650D02*
X18508087Y-11182650D01*
X18508087Y-11182650D02*
X18489039Y-11192174D01*
X18574754Y-11306460D02*
X18555706Y-11315984D01*
X18555706Y-11315984D02*
X18508087Y-11315984D01*
X18508087Y-11315984D02*
X18489039Y-11306460D01*
X18489039Y-11306460D02*
X18479515Y-11287412D01*
X18479515Y-11287412D02*
X18479515Y-11268365D01*
X18479515Y-11268365D02*
X18489039Y-11249317D01*
X18489039Y-11249317D02*
X18508087Y-11239793D01*
X18508087Y-11239793D02*
X18555706Y-11239793D01*
X18555706Y-11239793D02*
X18574754Y-11230269D01*
X18641420Y-11182650D02*
X18717611Y-11182650D01*
X18669992Y-11115984D02*
X18669992Y-11287412D01*
X18669992Y-11287412D02*
X18679515Y-11306460D01*
X18679515Y-11306460D02*
X18698563Y-11315984D01*
X18698563Y-11315984D02*
X18717611Y-11315984D01*
X18860468Y-11306460D02*
X18841420Y-11315984D01*
X18841420Y-11315984D02*
X18803325Y-11315984D01*
X18803325Y-11315984D02*
X18784277Y-11306460D01*
X18784277Y-11306460D02*
X18774754Y-11287412D01*
X18774754Y-11287412D02*
X18774754Y-11211222D01*
X18774754Y-11211222D02*
X18784277Y-11192174D01*
X18784277Y-11192174D02*
X18803325Y-11182650D01*
X18803325Y-11182650D02*
X18841420Y-11182650D01*
X18841420Y-11182650D02*
X18860468Y-11192174D01*
X18860468Y-11192174D02*
X18869992Y-11211222D01*
X18869992Y-11211222D02*
X18869992Y-11230269D01*
X18869992Y-11230269D02*
X18774754Y-11249317D01*
X19041420Y-11315984D02*
X19041420Y-11115984D01*
X19041420Y-11306460D02*
X19022373Y-11315984D01*
X19022373Y-11315984D02*
X18984277Y-11315984D01*
X18984277Y-11315984D02*
X18965230Y-11306460D01*
X18965230Y-11306460D02*
X18955706Y-11296936D01*
X18955706Y-11296936D02*
X18946182Y-11277888D01*
X18946182Y-11277888D02*
X18946182Y-11220746D01*
X18946182Y-11220746D02*
X18955706Y-11201698D01*
X18955706Y-11201698D02*
X18965230Y-11192174D01*
X18965230Y-11192174D02*
X18984277Y-11182650D01*
X18984277Y-11182650D02*
X19022373Y-11182650D01*
X19022373Y-11182650D02*
X19041420Y-11192174D01*
X19117611Y-11392174D02*
X19127135Y-11382650D01*
X19127135Y-11382650D02*
X19146182Y-11354079D01*
X19146182Y-11354079D02*
X19155706Y-11335031D01*
X19155706Y-11335031D02*
X19165230Y-11306460D01*
X19165230Y-11306460D02*
X19174754Y-11258841D01*
X19174754Y-11258841D02*
X19174754Y-11220746D01*
X19174754Y-11220746D02*
X19165230Y-11173127D01*
X19165230Y-11173127D02*
X19155706Y-11144555D01*
X19155706Y-11144555D02*
X19146182Y-11125508D01*
X19146182Y-11125508D02*
X19127135Y-11096936D01*
X19127135Y-11096936D02*
X19117611Y-11087412D01*
M02*
