<?xml version="1.0" encoding="UTF-8" standalone="no"?>
<svg
   id="_2024_Stacked"
   data-name="2024 Stacked"
   viewBox="0 0 1920 1080"
   version="1.1"
   sodipodi:docname="Artboard 1 optimized for pcb layout.svg"
   inkscape:version="1.3 (0e150ed6c4, 2023-07-21)"
   xmlns:inkscape="http://www.inkscape.org/namespaces/inkscape"
   xmlns:sodipodi="http://sodipodi.sourceforge.net/DTD/sodipodi-0.dtd"
   xmlns="http://www.w3.org/2000/svg"
   xmlns:svg="http://www.w3.org/2000/svg">
  <sodipodi:namedview
     id="namedview34"
     pagecolor="#ffffff"
     bordercolor="#666666"
     borderopacity="1.0"
     inkscape:showpageshadow="2"
     inkscape:pageopacity="0.0"
     inkscape:pagecheckerboard="0"
     inkscape:deskcolor="#d1d1d1"
     inkscape:zoom="0.66354167"
     inkscape:cx="632.2135"
     inkscape:cy="841.69545"
     inkscape:window-width="1350"
     inkscape:window-height="1237"
     inkscape:window-x="211"
     inkscape:window-y="53"
     inkscape:window-maximized="0"
     inkscape:current-layer="layer13" />
  <defs
     id="defs1">
    <style
       id="style1">&#10;      .cls-1 {&#10;        fill: #7fb7dd;&#10;      }&#10;&#10;      .cls-1, .cls-2, .cls-3, .cls-4 {&#10;        stroke-width: 0px;&#10;      }&#10;&#10;      .cls-2 {&#10;        fill: #ffdd50;&#10;      }&#10;&#10;      .cls-3 {&#10;        fill: #fff;&#10;      }&#10;&#10;      .cls-4 {&#10;        fill: #003da0;&#10;      }&#10;    </style>
  </defs>
  <g
     inkscape:groupmode="layer"
     id="layer8"
     inkscape:label="flat"
     style="display:none"
     sodipodi:insensitive="true">
    <path
       class="cls-2"
       d="m 1120.19,403.95 1.04,-18.95 c 2.48,-44.82 54.02,-70.06 90.22,-83.61 31.32,-11.66 52.7,-14.82 53.34,-26.45 0.69,-12.5 -6.36,-18.06 -24.9,-19.08 -12.06,-0.67 -23.66,4.19 -32.1,12.73 -8.38,8.49 -13.55,20.29 -26.96,21.71 -8.21,0.87 -16.31,-2.97 -23.72,-5.98 -5.01,-2.04 -9.75,-5.02 -13.81,-8.6 -9.28,-8.17 -13.74,-19.7 -13.36,-31.98 0.01,-0.44 0.03,-0.88 0.06,-1.32 1.31,-23.71 13.08,-41.19 33.61,-52.6 20.52,-11.82 50.19,-16.67 87.25,-14.62 79.29,4.38 119.15,41.18 115.93,99.78 -3.04,54.71 -39.25,68.69 -77.9,79.54 -23.24,6.48 -47.62,9.46 -64.43,16.74 -1.27,0.55 -2.53,1.12 -3.78,1.72 -0.79,0.38 -2.72,0.9 -2.75,1.96 -0.01,0.35 0.14,1.02 0.52,1.15 0.07,0.03 0.16,0.03 0.23,0.03 2.18,0.17 4.38,0.24 6.57,0.36 2.44,0.14 4.88,0.27 7.32,0.41 l 9.14,0.51 c 3.46,0.19 6.93,0.38 10.39,0.58 3.69,0.2 7.38,0.41 11.07,0.61 3.73,0.21 7.46,0.41 11.18,0.62 3.58,0.2 7.15,0.4 10.73,0.59 3.23,0.18 6.47,0.36 9.7,0.54 l 8.11,0.45 c 1.98,0.11 3.97,0.22 5.95,0.33 l 3.22,0.18 0.41,0.02 c 36.63,2.03 48.79,16.55 47.44,41.1 l -0.18,3.44 c -1.46,26.29 -14.75,40.23 -51.82,38.18 l -127.55,-7.06 c -49.55,-2.74 -62.6,-9.08 -60.17,-53.02 z"
       id="path31" />
    <path
       class="cls-2"
       d="m 1130.56,767.27 -1.63,-18.91 c -3.83,-44.72 43.66,-76.95 77.6,-95.44 29.38,-15.93 50.1,-22.06 49.1,-33.67 -1.07,-12.47 -8.83,-16.99 -27.33,-15.4 -12.03,1.02 -22.84,7.46 -29.99,17.1 -7.11,9.58 -10.57,21.99 -23.65,25.28 -8,2.01 -16.56,-0.65 -24.33,-2.59 -5.25,-1.31 -10.35,-3.6 -14.88,-6.58 -10.33,-6.79 -16.36,-17.58 -17.71,-29.79 -0.05,-0.44 -0.09,-0.88 -0.13,-1.32 -2.02,-23.66 7.17,-42.62 25.9,-56.79 18.66,-14.58 47.35,-23.55 84.34,-26.71 79.12,-6.78 123.75,24.06 128.77,82.53 4.66,54.59 -29.23,73.52 -65.97,89.67 -22.1,9.68 -45.82,16.05 -61.45,25.61 -1.18,0.72 -2.35,1.46 -3.5,2.23 -0.73,0.49 -2.56,1.27 -2.45,2.33 0.04,0.35 0.28,0.99 0.67,1.07 0.08,0.02 0.16,0 0.24,0 2.19,-0.14 4.37,-0.38 6.56,-0.57 2.43,-0.21 4.87,-0.42 7.3,-0.63 l 9.12,-0.78 c 3.46,-0.3 6.91,-0.59 10.37,-0.89 3.68,-0.32 7.36,-0.63 11.05,-0.95 3.72,-0.32 7.44,-0.64 11.16,-0.96 3.57,-0.31 7.14,-0.61 10.71,-0.92 l 9.68,-0.83 c 2.7,-0.23 5.4,-0.46 8.1,-0.69 1.98,-0.17 3.96,-0.34 5.94,-0.51 1.07,-0.09 2.14,-0.18 3.21,-0.28 l 0.41,-0.03 c 36.55,-3.13 50.63,9.55 52.73,34.05 l 0.3,3.43 c 2.24,26.23 -8.96,41.9 -45.95,45.07 l -127.28,10.9 c -49.44,4.24 -63.25,-0.21 -67.01,-44.06 z"
       id="path32" />
    <path
       class="cls-2"
       d="m 1415.29,339.86 -2.99,-25.73 c -9.35,-80.16 34.74,-137.86 119.19,-147.7 84.44,-9.85 140.15,35.79 149.56,116.36 l 2.99,25.73 c 9.44,81.01 -34.28,138.23 -118.72,148.08 -84.87,9.91 -140.59,-35.73 -150.03,-116.75 z m 164.5,-8.75 -5.46,-46.72 c -3.19,-27.44 -13.12,-38.03 -33.26,-35.67 -21.01,2.45 -27.91,14.12 -24.6,42.41 l 5.45,46.71 c 3.19,27.45 13.06,37.6 33.64,35.2 20.14,-2.36 27.37,-14.94 24.23,-41.93 z"
       id="path33" />
    <path
       class="cls-2"
       d="m 1540.29,760.79 0.61,-10.34 -78.83,-4.76 c -33.6,-2.03 -52.8,-20.47 -51.32,-44.6 l 0.77,-12.93 c 1.31,-14.63 5.42,-25.6 17.33,-43.91 l 60.55,-93.62 c 17.22,-27.06 32.54,-30.44 85.96,-27.23 52.11,3.15 73.13,20.42 69.98,72.53 l -5.2,86.15 1.29,0.08 c 32.75,1.97 43.8,12.15 42.26,37.56 l -0.12,2.15 c -1.68,27.57 -13.88,36.36 -46.63,34.37 l -1.28,-0.06 -0.62,10.32 c -1.93,31.89 -17.16,47.82 -46.89,46.03 l -8.61,-0.52 c -28.86,-1.76 -41.2,-19.36 -39.27,-51.24 z m 9.68,-88.86 4.38,-72.72 c 0.46,-6.11 -0.77,-7.79 -5.69,0.08 l -44.88,69.33 c -2.61,2.84 -0.62,7.32 2.82,7.57 l 35.81,2.16 c 4.89,0.29 7.26,-2.01 7.56,-6.42 z"
       id="path34" />
  </g>
  <g
     inkscape:groupmode="layer"
     id="layer9"
     inkscape:label="shadow"
     style="display:none"
     sodipodi:insensitive="true">
    <path
       class="cls-4"
       d="m 235.31,442.62 1.04,-18.95 c 2.48,-44.82 54.02,-70.06 90.22,-83.61 31.32,-11.66 52.7,-14.82 53.34,-26.45 0.69,-12.5 -6.36,-18.06 -24.9,-19.08 -12.06,-0.67 -23.66,4.19 -32.1,12.73 -8.38,8.49 -13.55,20.29 -26.96,21.71 -8.21,0.87 -16.31,-2.97 -23.72,-5.98 -5.01,-2.04 -9.75,-5.02 -13.81,-8.6 -9.28,-8.17 -13.74,-19.7 -13.36,-31.98 0.01,-0.44 0.03,-0.88 0.06,-1.32 1.31,-23.71 13.08,-41.19 33.61,-52.6 20.52,-11.82 50.19,-16.67 87.25,-14.62 79.29,4.38 119.15,41.18 115.93,99.78 -3.04,54.71 -39.25,68.69 -77.9,79.54 -23.24,6.48 -47.62,9.46 -64.43,16.74 -1.27,0.55 -2.53,1.12 -3.78,1.72 -0.79,0.38 -2.72,0.9 -2.75,1.96 -0.01,0.35 0.14,1.02 0.52,1.15 0.07,0.03 0.16,0.03 0.23,0.03 2.18,0.17 4.38,0.24 6.57,0.36 2.44,0.14 4.88,0.27 7.32,0.41 l 9.14,0.51 c 3.46,0.19 6.93,0.38 10.39,0.58 3.69,0.2 7.38,0.41 11.07,0.61 3.73,0.21 7.46,0.41 11.18,0.62 l 10.73,0.59 9.7,0.54 8.11,0.45 c 1.98,0.11 3.97,0.22 5.95,0.33 l 3.22,0.18 0.41,0.02 c 36.63,2.03 48.79,16.55 47.44,41.1 l -0.18,3.44 c -1.46,26.29 -14.75,40.23 -51.82,38.18 l -127.55,-7.06 c -49.55,-2.74 -62.6,-9.08 -60.17,-53.02 z"
       id="path1" />
    <path
       class="cls-4"
       d="m 251.14,811.74 -1.63,-18.91 c -3.83,-44.72 43.66,-76.95 77.6,-95.44 29.38,-15.93 50.1,-22.06 49.1,-33.67 -1.07,-12.47 -8.83,-16.99 -27.33,-15.4 -12.03,1.02 -22.84,7.46 -29.99,17.1 -7.11,9.58 -10.57,21.99 -23.65,25.28 -8,2.01 -16.56,-0.65 -24.33,-2.59 -5.25,-1.31 -10.35,-3.6 -14.88,-6.58 -10.33,-6.79 -16.36,-17.58 -17.71,-29.79 -0.05,-0.44 -0.09,-0.88 -0.13,-1.32 -2.02,-23.66 7.17,-42.62 25.9,-56.79 18.66,-14.58 47.35,-23.55 84.34,-26.71 79.12,-6.78 123.75,24.06 128.77,82.53 4.66,54.59 -29.23,73.52 -65.97,89.67 -22.1,9.68 -45.82,16.05 -61.45,25.61 -1.18,0.72 -2.35,1.46 -3.5,2.23 -0.73,0.49 -2.56,1.27 -2.45,2.33 0.04,0.35 0.28,0.99 0.67,1.07 0.08,0.02 0.16,0 0.24,0 2.19,-0.14 4.37,-0.38 6.56,-0.57 2.43,-0.21 4.87,-0.42 7.3,-0.63 3.04,-0.26 6.08,-0.52 9.12,-0.78 3.46,-0.3 6.91,-0.59 10.37,-0.89 3.68,-0.32 7.36,-0.63 11.05,-0.95 3.72,-0.32 7.44,-0.64 11.16,-0.96 3.57,-0.31 7.14,-0.61 10.71,-0.92 3.23,-0.28 6.46,-0.55 9.68,-0.83 2.7,-0.23 5.4,-0.46 8.1,-0.69 1.98,-0.17 3.96,-0.34 5.94,-0.51 1.07,-0.09 2.14,-0.18 3.21,-0.28 l 0.41,-0.03 c 36.55,-3.13 50.63,9.55 52.73,34.05 l 0.3,3.43 c 2.24,26.23 -8.96,41.9 -45.95,45.07 l -127.28,10.9 c -49.44,4.24 -63.25,-0.21 -67.01,-44.06 z"
       id="path2" />
    <path
       class="cls-4"
       d="m 539.15,386.93 -2.99,-25.73 c -9.35,-80.16 34.74,-137.86 119.19,-147.7 84.44,-9.85 140.15,35.79 149.56,116.36 l 2.99,25.73 c 9.44,81.01 -34.28,138.23 -118.72,148.08 -84.87,9.91 -140.59,-35.73 -150.03,-116.75 z m 164.5,-8.74 -5.46,-46.72 C 695,304.03 685.07,293.44 664.93,295.8 c -21.01,2.45 -27.91,14.12 -24.6,42.41 l 5.45,46.71 c 3.19,27.45 13.06,37.6 33.64,35.2 20.14,-2.36 27.37,-14.94 24.23,-41.93 z"
       id="path3" />
    <path
       class="cls-4"
       d="m 658.91,803.42 0.61,-10.34 -78.83,-4.76 c -33.6,-2.03 -52.8,-20.47 -51.32,-44.6 l 0.77,-12.93 c 1.31,-14.63 5.42,-25.6 17.33,-43.91 l 60.55,-93.62 c 17.22,-27.06 32.54,-30.44 85.96,-27.23 52.11,3.15 73.13,20.42 69.98,72.53 l -5.2,86.15 1.29,0.08 c 32.75,1.97 43.8,12.15 42.26,37.56 l -0.12,2.15 c -1.68,27.57 -13.88,36.36 -46.63,34.37 l -1.28,-0.06 -0.62,10.32 c -1.93,31.89 -17.16,47.82 -46.89,46.03 l -8.61,-0.52 c -28.86,-1.76 -41.2,-19.36 -39.27,-51.24 z m 9.68,-88.86 4.38,-72.72 c 0.46,-6.11 -0.77,-7.79 -5.69,0.08 l -44.88,69.33 c -2.61,2.84 -0.62,7.32 2.82,7.57 l 35.81,2.16 c 4.89,0.29 7.26,-2.01 7.56,-6.42 z"
       id="path4" />
  </g>
  <g
     inkscape:groupmode="layer"
     id="layer10"
     inkscape:label="text"
     style="display:none"
     sodipodi:insensitive="true">
    <path
       class="cls-1"
       d="m 268.8,416.58 1.04,-18.95 c 2.48,-44.82 54.02,-70.06 90.22,-83.61 31.32,-11.66 52.7,-14.82 53.34,-26.45 0.69,-12.5 -6.36,-18.06 -24.9,-19.08 -12.06,-0.67 -23.66,4.19 -32.1,12.73 -8.38,8.49 -13.55,20.29 -26.96,21.71 -8.21,0.87 -16.31,-2.97 -23.72,-5.98 -5.01,-2.04 -9.75,-5.02 -13.81,-8.6 -9.28,-8.17 -13.74,-19.7 -13.36,-31.98 0.01,-0.44 0.03,-0.88 0.06,-1.32 1.31,-23.71 13.08,-41.19 33.61,-52.6 20.52,-11.82 50.19,-16.67 87.25,-14.62 79.29,4.38 119.15,41.18 115.93,99.78 -3.04,54.71 -39.25,68.69 -77.9,79.54 -23.24,6.48 -47.62,9.46 -64.43,16.74 -1.27,0.55 -2.53,1.12 -3.78,1.72 -0.79,0.38 -2.72,0.9 -2.75,1.96 -0.01,0.35 0.14,1.02 0.52,1.15 0.07,0.03 0.16,0.03 0.23,0.03 2.18,0.17 4.38,0.24 6.57,0.36 2.44,0.14 4.88,0.27 7.32,0.41 l 9.14,0.51 c 3.46,0.19 6.93,0.38 10.39,0.58 3.69,0.2 7.38,0.41 11.07,0.61 3.73,0.21 7.46,0.41 11.18,0.62 3.58,0.2 7.15,0.4 10.73,0.59 l 9.7,0.54 8.11,0.45 c 1.98,0.11 3.97,0.22 5.95,0.33 l 3.22,0.18 0.41,0.02 c 36.63,2.03 48.79,16.55 47.44,41.1 l -0.18,3.44 c -1.46,26.29 -14.75,40.23 -51.82,38.18 l -127.55,-7.06 c -49.55,-2.74 -62.6,-9.08 -60.17,-53.02 z"
       id="path5" />
    <path
       class="cls-1"
       d="m 279.18,779.9 -1.63,-18.91 c -3.83,-44.72 43.66,-76.95 77.6,-95.44 29.38,-15.93 50.1,-22.06 49.1,-33.67 -1.07,-12.47 -8.83,-16.99 -27.33,-15.4 -12.03,1.02 -22.84,7.46 -29.99,17.1 -7.11,9.58 -10.57,21.99 -23.65,25.28 -8,2.01 -16.56,-0.65 -24.33,-2.59 -5.25,-1.31 -10.35,-3.6 -14.88,-6.58 -10.33,-6.79 -16.36,-17.58 -17.71,-29.79 -0.05,-0.44 -0.09,-0.88 -0.13,-1.32 -2.02,-23.66 7.17,-42.62 25.9,-56.79 18.66,-14.58 47.35,-23.55 84.34,-26.71 79.12,-6.78 123.75,24.06 128.77,82.53 4.66,54.59 -29.23,73.52 -65.97,89.67 -22.1,9.68 -45.82,16.05 -61.45,25.61 -1.18,0.72 -2.35,1.46 -3.5,2.23 -0.73,0.49 -2.56,1.27 -2.45,2.33 0.04,0.35 0.28,0.99 0.67,1.07 0.08,0.02 0.16,0 0.24,0 2.19,-0.14 4.37,-0.38 6.56,-0.57 2.43,-0.21 4.87,-0.42 7.3,-0.63 3.04,-0.26 6.08,-0.52 9.12,-0.78 3.46,-0.3 6.91,-0.59 10.37,-0.89 3.68,-0.32 7.36,-0.63 11.05,-0.95 3.69,-0.32 7.44,-0.64 11.16,-0.96 3.57,-0.31 7.14,-0.61 10.71,-0.92 3.23,-0.28 6.46,-0.55 9.68,-0.83 2.7,-0.23 5.4,-0.46 8.1,-0.69 1.98,-0.17 3.96,-0.34 5.94,-0.51 1.07,-0.09 2.14,-0.18 3.21,-0.28 l 0.41,-0.03 c 36.55,-3.13 50.63,9.55 52.73,34.05 l 0.3,3.43 c 2.24,26.23 -8.96,41.9 -45.95,45.07 l -127.28,10.9 c -49.44,4.24 -63.25,-0.21 -67.01,-44.06 z"
       id="path6" />
    <path
       class="cls-1"
       d="m 563.91,352.48 -2.99,-25.73 c -9.35,-80.16 34.74,-137.86 119.19,-147.7 84.44,-9.85 140.15,35.79 149.56,116.36 l 2.99,25.73 c 9.44,81.01 -34.28,138.23 -118.72,148.08 -84.87,9.91 -140.59,-35.73 -150.03,-116.75 z m 164.5,-8.74 -5.46,-46.72 c -3.19,-27.44 -13.12,-38.03 -33.26,-35.67 -21.01,2.45 -27.91,14.12 -24.6,42.41 l 5.45,46.71 c 3.19,27.45 13.06,37.6 33.64,35.2 20.14,-2.36 27.37,-14.94 24.23,-41.93 z"
       id="path7" />
    <path
       class="cls-1"
       d="m 688.91,773.42 0.61,-10.34 -78.83,-4.76 c -33.6,-2.03 -52.8,-20.47 -51.32,-44.6 l 0.77,-12.93 c 1.31,-14.63 5.42,-25.6 17.33,-43.91 l 60.55,-93.62 c 17.22,-27.06 32.54,-30.44 85.96,-27.23 52.11,3.15 73.13,20.42 69.98,72.53 l -5.2,86.15 1.29,0.08 c 32.75,1.97 43.8,12.15 42.26,37.56 l -0.12,2.15 c -1.68,27.57 -13.88,36.36 -46.63,34.37 l -1.28,-0.06 -0.62,10.32 c -1.93,31.89 -17.16,47.82 -46.89,46.03 l -8.61,-0.52 c -28.86,-1.76 -41.2,-19.36 -39.27,-51.24 z m 9.68,-88.86 4.38,-72.72 c 0.46,-6.11 -0.77,-7.79 -5.69,0.08 l -44.88,69.33 c -2.61,2.84 -0.62,7.32 2.82,7.57 l 35.81,2.16 c 4.89,0.29 7.26,-2.01 7.56,-6.42 z"
       id="path8" />
  </g>
  <g
     inkscape:groupmode="layer"
     id="layer11"
     inkscape:label="shiny"
     style="display:none"
     sodipodi:insensitive="true">
    <path
       class="cls-3"
       d="m 302.63,286.36 c 6.71,4.9 14.52,7.56 22.8,5.56 9.7,-2.35 17.39,-9.8 23.68,-17.14 1.25,-1.46 -0.86,-3.59 -2.12,-2.12 -5.7,6.65 -12.44,13.44 -21.08,16.02 -7.91,2.36 -15.3,-0.18 -21.77,-4.91 -1.56,-1.14 -3.06,1.46 -1.51,2.59 z"
       id="path9" />
    <path
       class="cls-3"
       d="m 335.55,201.55 c -13.25,5.87 -26.18,13.5 -35.21,25.09 -9.74,12.5 -12.95,27.95 -12.18,43.54 0.09,1.92 3.1,1.93 3,0 -0.75,-15.34 2.4,-30.51 12.27,-42.63 8.78,-10.78 21.11,-17.85 33.64,-23.4 1.76,-0.78 0.24,-3.37 -1.51,-2.59 v 0 z"
       id="path10" />
    <path
       class="cls-3"
       d="m 445.59,209.2 c 19.82,7.95 37.51,20.12 48.47,38.82 0.98,1.66 3.57,0.16 2.59,-1.51 -11.38,-19.42 -29.69,-31.95 -50.26,-40.2 -1.79,-0.72 -2.57,2.18 -0.8,2.89 z"
       id="path11" />
    <path
       class="cls-3"
       d="m 488.6,321.43 c -16,21.42 -45.17,29.66 -70.05,34.96 -1.89,0.4 -1.09,3.29 0.8,2.89 25.78,-5.5 55.31,-14.2 71.85,-36.34 1.16,-1.55 -1.45,-3.04 -2.59,-1.51 v 0 z"
       id="path12" />
    <path
       class="cls-3"
       d="m 446.48,405.45 c 19.32,-0.46 50.16,1.36 48.68,27.58 -0.11,1.93 2.89,1.92 3,0 1.6,-28.16 -30.58,-31.09 -51.68,-30.58 -1.93,0.05 -1.93,3.05 0,3 z"
       id="path13" />
    <path
       class="cls-3"
       d="m 493.76,445.97 c 2.12,17.32 -22.21,18.12 -34.03,18.83 -1.92,0.12 -1.93,3.12 0,3 13.51,-0.81 39.41,-2.37 37.03,-21.83 -0.23,-1.89 -3.23,-1.92 -3,0 z"
       id="path14" />
    <path
       class="cls-3"
       d="m 276.68,433.12 c 7.29,25.37 33.2,28.99 56.15,27.32 1.91,-0.14 1.93,-3.14 0,-3 -21.45,1.56 -46.36,-1.14 -53.25,-25.12 -0.53,-1.85 -3.43,-1.06 -2.89,0.8 v 0 z"
       id="path15" />
    <path
       class="cls-3"
       d="m 689.18,398.32 c 15.67,0.47 35,-1.02 45.46,-14.44 9.82,-12.6 7.43,-30.33 3.72,-44.71 -0.48,-1.87 -3.38,-1.08 -2.89,0.8 3.46,13.4 6.01,30.28 -3.19,42.09 -9.84,12.63 -28.43,13.71 -43.09,13.27 -1.93,-0.06 -1.93,2.94 0,3 v 0 z"
       id="path16" />
    <path
       class="cls-3"
       d="m 729.36,274.1 c -1.72,-8.84 -5.43,-17.55 -13.34,-22.5 -7.91,-4.95 -18.08,-4.83 -27.17,-3.36 -1.9,0.31 -1.09,3.2 0.8,2.89 8.28,-1.34 17.48,-1.57 24.85,3.06 7.37,4.63 10.41,12.67 11.97,20.71 0.37,1.89 3.26,1.09 2.89,-0.8 z"
       id="path17" />
    <path
       class="cls-3"
       d="m 617.89,215.13 c -17.01,11.5 -30.37,27.12 -37.9,46.32 -8.31,21.18 -9.13,44.46 -6.73,66.85 0.2,1.9 3.21,1.92 3,0 -2.28,-21.3 -1.67,-43.28 5.7,-63.6 7.37,-20.32 20.37,-35.43 37.45,-46.98 1.59,-1.08 0.09,-3.68 -1.51,-2.59 v 0 z"
       id="path18" />
    <path
       class="cls-3"
       d="m 737.32,455.97 c 22.66,-7.58 43.61,-20.01 58.9,-38.64 15.28,-18.62 23.72,-41.48 27.67,-65.03 0.32,-1.89 -2.57,-2.7 -2.89,-0.8 -3.86,23.01 -11.96,45.5 -26.9,63.71 -14.96,18.24 -35.38,30.44 -57.58,37.86 -1.82,0.61 -1.04,3.51 0.8,2.89 v 0 z"
       id="path19" />
    <path
       class="cls-3"
       d="m 670.71,700.2 c 12.45,1.16 41.71,3.42 38.75,-16.87 -0.28,-1.9 -3.17,-1.09 -2.89,0.8 2.5,17.16 -26.07,13.99 -35.86,13.08 -1.92,-0.18 -1.91,2.82 0,3 v 0 z"
       id="path20" />
    <path
       class="cls-3"
       d="m 750.04,550.68 c 15.16,6.03 25.36,18.19 31.56,33 0.73,1.75 3.64,0.98 2.89,-0.8 -6.65,-15.89 -17.4,-28.64 -33.65,-35.1 -1.79,-0.71 -2.57,2.19 -0.8,2.89 v 0 z"
       id="path21" />
    <path
       class="cls-3"
       d="m 821.62,729.24 c 0.5,7.49 0.1,16.25 -5.85,21.67 -5.95,5.42 -15.21,5.25 -22.78,4.37 -1.91,-0.22 -1.9,2.78 0,3 8.43,0.99 18.27,0.87 24.91,-5.24 6.64,-6.11 7.29,-15.49 6.73,-23.8 -0.13,-1.92 -3.13,-1.93 -3,0 v 0 z"
       id="path22" />
    <path
       class="cls-3"
       d="m 568.92,693.87 c -1.43,12.5 -2.76,26.43 2.06,38.4 4.37,10.87 13.88,16.43 25.15,18.03 1.89,0.27 2.7,-2.62 0.8,-2.89 -11.53,-1.64 -20.61,-7.46 -24.11,-18.94 -3.5,-11.48 -2.19,-23.29 -0.89,-34.6 0.22,-1.91 -2.78,-1.9 -3,0 v 0 z"
       id="path23" />
    <path
       class="cls-3"
       d="m 695.5,768.82 c -0.56,13.91 0.94,30.09 12.1,39.89 9.3,8.16 22.35,9.48 34.22,9.23 1.93,-0.04 1.93,-3.04 0,-3 -11.01,0.23 -23.41,-0.77 -32.1,-8.35 -10.59,-9.24 -11.75,-24.65 -11.22,-37.77 0.08,-1.93 -2.92,-1.93 -3,0 z"
       id="path24" />
    <path
       class="cls-3"
       d="m 286.75,577.71 c -7.85,13.36 -16.35,30.51 -11.68,46.42 3.63,12.35 14.84,19.48 26.16,24 1.79,0.72 2.57,-2.18 0.8,-2.89 -10.64,-4.25 -21.28,-11.07 -24.32,-22.83 -3.84,-14.87 4.34,-30.78 11.63,-43.18 0.98,-1.67 -1.61,-3.18 -2.59,-1.51 v 0 z"
       id="path25" />
    <path
       class="cls-3"
       d="m 297.19,794.01 c -8.43,-21.29 -12.14,-43.42 0.28,-64 1,-1.66 -1.59,-3.17 -2.59,-1.51 -12.82,21.24 -9.32,44.25 -0.58,66.32 0.7,1.77 3.6,1 2.89,-0.8 v 0 z"
       id="path26" />
    <path
       class="cls-3"
       d="m 451.79,743.36 c 13.82,-0.68 30.2,-0.81 42.28,7.06 10.06,6.56 12.22,17.8 10.73,29.05 -0.25,1.91 2.75,1.89 3,0 1.54,-11.61 -0.82,-23.36 -10.72,-30.61 -12.57,-9.2 -30.46,-9.23 -45.28,-8.5 -1.92,0.1 -1.93,3.1 0,3 v 0 z"
       id="path27" />
    <path
       class="cls-3"
       d="m 463.78,684.34 c 15.71,-7.69 26.66,-20.97 29.52,-38.42 3.49,-21.32 -2.98,-43.4 -10.46,-63.16 -0.68,-1.79 -3.58,-1.01 -2.89,0.8 7.16,18.9 13.53,39.99 10.64,60.43 -2.44,17.24 -12.85,30.19 -28.31,37.77 -1.73,0.85 -0.21,3.44 1.51,2.59 v 0 z"
       id="path28" />
    <path
       class="cls-3"
       d="m 299.03,803.38 c 9.69,15.12 28.32,13.49 43.99,11.65 1.89,-0.22 1.92,-3.23 0,-3 -14.36,1.69 -32.39,3.9 -41.4,-10.16 -1.04,-1.62 -3.64,-0.12 -2.59,1.51 z"
       id="path29" />
    <path
       class="cls-3"
       d="m 573.08,681.53 c 6.54,-14.23 15.85,-26.78 25.63,-38.93 1.2,-1.49 -0.91,-3.63 -2.12,-2.12 -9.94,12.35 -19.45,25.07 -26.1,39.53 -0.8,1.74 1.78,3.27 2.59,1.51 v 0 z"
       id="path30" />
  </g>
  <g
     inkscape:groupmode="layer"
     id="layer12"
     inkscape:label="silk keep out"
     style="display:none"
     sodipodi:insensitive="true">
    <path
       id="path65"
       style="display:inline"
       class="cls-4"
       d="m 288.51367,223.69727 c -3.45176,1.45009 -6.73062,3.03461 -9.7832,4.79296 -20.52998,11.40999 -32.30133,28.88964 -33.61133,52.59961 -0.03,0.44 -0.0486,0.88032 -0.0586,1.32032 -0.38,12.27998 4.07938,23.81047 13.35937,31.98046 4.06,3.58 8.80055,6.55962 13.81055,8.59961 7.40999,3.01 15.50876,6.85047 23.71875,5.98047 13.40999,-1.42 18.58094,-13.22094 26.96094,-21.71093 1.54891,-1.56727 3.23539,-2.96354 4.98046,-4.27149 -7.67748,0.27959 -15.22687,-3.21874 -22.16992,-6.03906 -5.00999,-2.04 -9.75055,-5.01961 -13.81054,-8.59961 -9.27999,-8.16999 -13.73938,-19.70048 -13.35938,-31.98047 0.01,-0.44 0.0286,-0.87836 0.0586,-1.31836 0.6662,-12.05772 4.05128,-22.4972 9.90429,-31.35351 z M 388.5,268.49023 c -12.05999,-0.66999 -23.65962,4.19048 -32.09961,12.73047 -4.47098,4.52968 -8.05702,9.96192 -12.43945,14.29688 3.58891,-0.81021 7.28863,-1.19718 11.04883,-0.98828 15.06258,0.82868 22.54178,4.65468 24.44726,12.76367 20.3943,-6.742 33.4472,-10.70644 33.94336,-19.72266 0.69,-12.49998 -6.36041,-18.06008 -24.90039,-19.08008 z m 80.2793,87.90235 c -9.79047,4.37496 -20.42272,7.7101 -31.2793,10.75781 -23.23998,6.47999 -47.6197,9.46024 -64.42969,16.74023 -1.27,0.55 -2.53125,1.11876 -3.78125,1.71876 -0.79,0.37999 -2.72,0.90093 -2.75,1.96093 -0.01,0.35 0.14149,1.02039 0.52149,1.15039 0.07,0.03 0.15851,0.0293 0.22851,0.0293 2.18,0.17 4.38032,0.23938 6.57032,0.35938 2.43999,0.13999 4.88031,0.27015 7.32031,0.41015 l 9.14062,0.50977 c 3.46,0.19 6.93063,0.38008 10.39063,0.58008 3.35334,0.18175 6.70525,0.37142 10.05859,0.55468 23.15246,-6.86935 44.78534,-15.64873 58.00977,-34.77148 z m -181.51368,1.67187 c -26.02125,14.80257 -49.271,35.87583 -50.91601,65.60547 l -1.03906,18.94922 v 0.0117 c -2.43,43.93996 10.61997,50.27953 60.16992,53.01953 l 127.54883,7.06055 c 31.03535,1.71628 45.36607,-7.81187 50.07812,-26.375 -4.92123,0.53307 -10.39506,0.67645 -16.58789,0.33398 L 328.9707,469.60938 c -49.54995,-2.74 -62.59992,-9.07958 -60.16992,-53.01954 v -0.01 l 1.03906,-18.94922 c 0.85289,-15.4138 7.5876,-28.46316 17.42578,-39.56641 z" />
    <path
       id="path66"
       style="display:inline"
       class="cls-4"
       d="m 270.28516,589.26367 c -2.16432,1.39939 -4.24759,2.84533 -6.19532,4.36719 -18.72998,14.16999 -27.92038,33.12909 -25.90039,56.78906 0.04,0.44 0.0809,0.88031 0.13086,1.32031 1.35,12.20999 7.379,22.99907 17.70899,29.78907 4.52999,2.97999 9.63086,5.27008 14.88086,6.58008 7.76999,1.93999 16.33008,4.59984 24.33007,2.58984 13.07999,-3.29 16.5404,-15.69931 23.65039,-25.2793 2.04524,-2.75749 4.41684,-5.21657 7.00391,-7.39844 -0.83063,0.31813 -1.69375,0.60612 -2.61523,0.8379 -8,2.00999 -16.56009,-0.64985 -24.33008,-2.58985 -5.25,-1.31 -10.34891,-3.60008 -14.87891,-6.58008 -10.32999,-6.78999 -16.36094,-17.57907 -17.71093,-29.78906 -0.05,-0.44 -0.0889,-0.88031 -0.12891,-1.32031 -0.91768,-10.74869 0.50176,-20.5162 4.05469,-29.31641 z m 113.07617,26.91016 c -1.98479,0.004 -4.12891,0.10789 -6.44141,0.30664 -12.02999,1.02 -22.84024,7.45962 -29.99023,17.09961 -4.69967,6.33232 -7.85472,13.85095 -13.19727,19.20508 4.66964,-2.42102 9.77434,-4.00919 15.14844,-4.46485 13.87768,-1.19273 21.71085,1.05329 25.21094,7.51367 18.87182,-9.33979 30.92465,-15.05468 30.1582,-23.95312 -0.93625,-10.91124 -6.99519,-15.73656 -20.88867,-15.70703 z m 88.33789,74.20508 c -9.81401,6.56614 -20.98253,11.8685 -32.42969,16.90039 -22.09998,9.67999 -45.81923,16.05133 -61.44922,25.61132 -1.18,0.72 -2.35,1.45852 -3.5,2.22852 -0.73,0.49 -2.56117,1.27008 -2.45117,2.33008 0.04,0.35 0.27992,0.99031 0.66992,1.07031 0.08,0.02 0.16024,0 0.24024,0 2.18999,-0.14 4.37055,-0.38031 6.56054,-0.57031 2.43,-0.21 4.87079,-0.41891 7.30078,-0.62891 l 9.11915,-0.78125 c 3.45999,-0.3 6.91109,-0.58867 10.37109,-0.88867 3.68,-0.32 7.35883,-0.63117 11.04883,-0.95117 1.48398,-0.12869 2.99074,-0.25607 4.48828,-0.38477 21.47351,-10.17206 40.72584,-22.44532 50.03125,-43.93554 z m -185.58789,33.99218 c -21.61591,17.82517 -38.97585,40.73624 -36.60156,68.45899 l 1.63085,18.91015 v -0.0293 c 3.76,43.84995 17.56982,48.29859 67.00977,44.05859 l 127.2793,-10.90039 c 31.91266,-2.73488 44.60137,-14.7936 46.05273,-34.89062 -5.16979,1.4386 -11.14194,2.46205 -18.01172,3.05078 l -127.28125,10.90039 c -49.43995,4.23999 -63.24977,-0.21059 -67.00976,-44.06055 v 0.0312 l -1.62891,-18.91016 c -1.14166,-13.33029 2.30038,-25.54152 8.56055,-36.61914 z" />
    <path
       id="path67"
       style="display:inline"
       class="cls-4"
       d="m 571.4043,249.27539 c -28.05012,26.42749 -40.67366,65.37518 -35.24414,111.92383 l 2.99023,25.73047 v -0.01 c 9.43999,81.01992 65.15938,126.65999 150.0293,116.75 53.54438,-6.246 90.68686,-31.55828 108.3125,-69.88672 -20.15432,18.92119 -48.28691,31.32371 -83.55274,35.4375 -84.86991,9.90999 -140.5893,-35.73008 -150.02929,-116.75 v 0.01 L 560.91992,326.75 c -3.40922,-29.22813 0.31802,-55.44988 10.48438,-77.47461 z m 121.94336,11.78516 c -1.17983,0.0454 -2.39946,0.14156 -3.65821,0.28906 -18.92729,2.20713 -26.37381,11.94265 -25.25,34.52539 0.16868,-0.0211 0.31971,-0.0543 0.49024,-0.0742 20.13998,-2.36 30.06977,8.22995 33.25976,35.66992 l 5.46094,46.71875 c 0.30714,2.64007 0.48352,5.10247 0.58984,7.47071 20.09199,-2.37888 27.30664,-14.95815 24.16993,-41.91993 l -5.46094,-46.7207 c -2.99062,-25.72497 -11.90411,-36.63962 -29.60156,-35.95898 z" />
    <path
       id="path68"
       style="display:inline"
       class="cls-4"
       d="m 633.96875,569.52148 c -10.71949,4.1309 -18.15743,11.49405 -25.94922,23.73829 l -60.54883,93.62109 c -11.90998,18.30998 -16.02008,29.27822 -17.33008,43.9082 l -0.77148,12.93164 c -1.48,24.12998 17.72035,42.56961 51.32031,44.59961 l 78.83008,4.75977 -0.60937,10.33984 -0.0195,-0.0195 c -1.92999,31.87997 10.40957,49.48024 39.26954,51.24023 l 8.60937,0.51954 c 24.51669,1.47611 39.1487,-9.12813 44.61719,-30.76563 -4.41411,0.81319 -9.27296,1.08739 -14.61719,0.76563 l -8.60937,-0.51954 c -28.85997,-1.75999 -41.19953,-19.36026 -39.26954,-51.24023 l 0.0195,0.0195 0.60937,-10.33984 -78.83008,-4.75977 c -33.59996,-2.03 -52.80031,-20.46963 -51.32031,-44.59961 l 0.77148,-12.93164 c 1.31,-14.62998 5.4201,-25.59822 17.33008,-43.9082 z m 68.17383,37.11524 c -0.865,-0.2 -2.40329,1.34821 -4.86328,5.2832 l -24.81641,38.33594 -2.37695,39.46094 20.94336,1.26367 c 4.88999,0.29 7.26054,-2.00993 7.56054,-6.41992 l 4.38086,-72.72071 c 0.23,-3.05499 0.0369,-5.00312 -0.82812,-5.20312 z m 99.66406,162.16601 c -4.74466,0.43115 -10.13595,0.43768 -16.24609,0.0664 l -1.28125,-0.0586 -0.61914,10.32031 c -0.4127,6.81911 -1.47259,12.86074 -3.11328,18.20312 13.22572,-3.50039 19.45359,-12.35046 21.25976,-28.53125 z" />
  </g>
  <g
     inkscape:groupmode="layer"
     id="layer13"
     inkscape:label="silk"
     style="display:none"
     sodipodi:insensitive="true">
    <path
       id="path63"
       style="display:inline"
       class="cls-1"
       d="m 703.08594,177.72656 c -7.39675,-0.035 -15.06035,0.40078 -22.97656,1.32422 C 595.6597,188.89074 551.56996,246.59032 560.91992,326.75 l 2.99024,25.73047 v -0.01 c 9.43996,81.01968 65.15965,126.65996 150.02929,116.75 84.43968,-9.84996 128.16067,-67.0704 118.72071,-148.08008 l -2.99024,-25.73046 C 821.14215,222.39388 774.5876,178.0652 703.08594,177.72656 Z m -84.31641,37.14453 c 1.18412,0.0898 1.93247,1.97211 0.64063,2.84961 -17.07996,11.54996 -30.07926,26.6586 -37.44922,46.97852 -7.37,20.31992 -7.98117,42.30164 -5.70117,63.60156 0.21,1.92 -2.8,1.9 -3,0 -2.4,-22.38992 -1.5795,-45.67164 6.73046,-66.85156 7.53,-19.19992 20.89047,-34.8184 37.90039,-46.31836 h 0.01 c 0.3,-0.20438 0.59588,-0.2805 0.86914,-0.25977 z m 80.58594,32.48047 c 5.89392,0.041 11.72034,1.1543 16.66406,4.24805 7.90997,4.94997 11.61985,13.66003 13.33985,22.5 0.36997,1.89 -2.51868,2.69078 -2.88868,0.80078 -1.56,-8.03997 -4.60073,-16.08094 -11.9707,-20.71094 -7.36997,-4.62997 -16.56964,-4.39859 -24.84961,-3.05859 -1.89,0.31 -2.70078,-2.58063 -0.80078,-2.89063 3.40875,-0.55125 6.9695,-0.91328 10.50586,-0.88867 z m -6.00781,13.70899 c 17.69739,-0.68064 26.61094,10.2341 29.60156,35.95898 l 5.46094,46.7207 c 3.13996,26.98992 -4.09055,39.56969 -24.23047,41.92969 -20.57992,2.4 -30.45063,-7.7493 -33.64063,-35.19922 l -5.44922,-46.71093 c -3.30996,-28.28992 3.58969,-39.96016 24.59961,-42.41016 1.25875,-0.1475 2.47838,-0.24369 3.65821,-0.28906 z m 43.75781,77.04492 c 0.55424,0.0359 1.07391,0.3632 1.25391,1.06445 3.70998,14.37998 6.10124,32.11096 -3.71876,44.71094 -10.45996,13.41998 -29.79097,14.90945 -45.46093,14.43945 l 0.01,0.01 c -1.92998,-0.06 -1.92998,-3.06 0,-3 14.65998,0.44 33.24987,-0.63957 43.08985,-13.26953 9.19998,-11.80998 6.6514,-28.68987 3.1914,-42.08985 -0.30625,-1.175 0.71104,-1.92509 1.63477,-1.86523 z m 85.0332,12.31445 c 0.89668,-0.0605 1.95195,0.69961 1.75195,1.88086 -3.94999,23.54998 -12.38993,46.40932 -27.66992,65.0293 -15.28998,18.62998 -36.24041,31.06063 -58.90039,38.64062 v -0.01 c -1.84,0.62 -2.62078,-2.28063 -0.80078,-2.89063 22.19998,-7.41999 42.62009,-19.61939 57.58008,-37.85937 C 809.03959,397.00096 817.14,374.50998 821,351.5 c 0.12,-0.7125 0.60066,-1.04381 1.13867,-1.08008 z" />
    <path
       id="path61"
       style="display:inline"
       class="cls-1"
       d="m 385.92188,187.38477 c -30.78667,-0.28342 -55.74625,4.72202 -73.70118,15.06445 -20.52986,11.40993 -32.30139,28.8917 -33.61132,52.60156 -0.03,0.44 -0.0486,0.87836 -0.0586,1.31836 -0.38,12.27993 4.07945,23.81054 13.35938,31.98047 4.05993,3.58 8.80061,6.55961 13.81054,8.59961 7.41,3.01 15.50882,6.85047 23.71875,5.98047 13.40993,-1.42 18.58101,-13.21906 26.96094,-21.70899 8.43993,-8.53993 20.03968,-13.4004 32.09961,-12.73047 18.53986,1.02 25.59039,6.58016 24.90039,19.08008 -0.64,11.62993 -22.02005,14.78929 -53.33984,26.44922 -36.19979,13.54993 -87.74071,38.79161 -90.22071,83.61133 l -1.03906,18.94922 v 0.01 c -2.43,43.93972 10.62027,50.27954 60.16992,53.01954 l 127.54883,7.06054 c 37.06972,2.05 50.36038,-11.88983 51.82031,-38.17969 l 0.17969,-3.43945 c 1.35,-24.54979 -10.80973,-39.07156 -47.43945,-41.10156 l -0.41016,-0.0195 -3.2207,-0.17969 c -1.98,-0.11 -3.96922,-0.22008 -5.94922,-0.33008 l -8.10938,-0.44922 -9.70117,-0.54101 c -3.57993,-0.19 -7.14858,-0.38985 -10.72851,-0.58985 -3.72,-0.21 -7.45171,-0.40914 -11.18164,-0.61914 -3.69,-0.2 -7.37843,-0.41139 -11.06836,-0.61132 -3.46,-0.2 -6.93063,-0.39008 -10.39063,-0.58008 l -9.14062,-0.50977 c -2.44,-0.14 -4.88038,-0.27022 -7.32031,-0.41015 -2.19,-0.12 -4.39032,-0.18938 -6.57032,-0.35938 -0.07,0 -0.15851,7e-4 -0.22851,-0.0293 -0.38,-0.13 -0.53149,-0.80039 -0.52149,-1.15039 0.03,-1.06 1.96,-1.581 2.75,-1.96093 1.25,-0.6 2.51125,-1.16876 3.78125,-1.71876 16.80993,-7.27993 41.18983,-10.2603 64.42969,-16.74023 38.64972,-10.84993 74.86039,-24.83143 77.90039,-79.54101 3.22,-58.59965 -36.64025,-95.39937 -115.92969,-99.7793 -4.63243,-0.25625 -9.15076,-0.40483 -13.54882,-0.44531 z m -49.72266,14.03125 c 1.43924,-0.0161 2.41109,2.05187 0.87109,2.73437 -12.52986,5.55 -24.86069,12.62046 -33.64062,23.40039 -9.86993,12.11993 -13.01953,27.28898 -12.26953,42.62891 0.1,1.93 -2.91,1.92 -3,0 -0.77,-15.58993 2.43975,-31.03914 12.17968,-43.53907 9.02993,-11.58986 21.96101,-19.21984 35.21094,-25.08984 l 0.01,0.01 c 0.21875,-0.0975 0.43306,-0.14223 0.63867,-0.14453 z m 109.57031,4.7832 c 0.18918,-0.0118 0.3974,0.0213 0.62109,0.11133 20.56988,8.24994 38.87983,20.77934 50.25977,40.19922 0.98,1.66994 -1.60984,3.16976 -2.58984,1.50976 -10.95994,-18.69988 -28.65083,-30.87037 -48.47071,-38.82031 -1.54869,-0.62125 -1.14457,-2.91756 0.17969,-3 z m -97.74023,65.9668 c 1.0664,0.0473 2.01757,1.51828 1.08008,2.61328 -6.29,7.33999 -13.9797,14.79062 -23.67969,17.14062 -8.27999,2 -16.08884,-0.66055 -22.79883,-5.56054 -1.55,-1.13 -0.0502,-3.72985 1.50976,-2.58985 6.47,4.73 13.85954,7.27016 21.76954,4.91016 8.63999,-2.58 15.38008,-9.36954 21.08007,-16.01953 0.315,-0.3675 0.6836,-0.50993 1.03907,-0.49414 z m 141.91992,48.625 c 1.06358,0.0471 2.0475,1.08281 1.25,2.14843 -16.5399,22.1399 -46.06976,30.83985 -71.84961,36.33985 -1.89,0.4 -2.68883,-2.48868 -0.79883,-2.88868 24.8799,-5.29995 54.04893,-13.54103 70.04883,-34.96093 h 0.01 c 0.3562,-0.47813 0.85639,-0.66006 1.33984,-0.63867 z m -39.39453,81.60937 c 20.91534,0.005 49.10544,4.22897 47.60547,30.62891 -0.11,1.91997 -3.11,1.92997 -3,0 1.47997,-26.21994 -29.35975,-28.04008 -48.67969,-27.58008 -1.93,0.05 -1.93,-2.95 0,-3 1.31875,-0.0319 2.67986,-0.0491 4.07422,-0.0488 z m -172.26367,28.86914 c 0.55892,0.034 1.09031,0.35703 1.28906,1.05078 6.88996,23.97992 31.80008,26.67914 53.25,25.11914 1.93,-0.14 1.91,2.86 0,3 -22.94992,1.67 -48.86043,-1.95039 -56.15039,-27.32031 h 0.01 c -0.3375,-1.1625 0.67002,-1.90635 1.60157,-1.84961 z m 216.79687,13.27149 c 0.75,0.004 1.55688,0.48468 1.67188,1.42968 2.37998,19.45996 -23.51932,21.02008 -37.0293,21.83008 -1.93,0.12 -1.92,-2.88 0,-3 11.81998,-0.71 36.14928,-1.5101 34.0293,-18.83008 -0.115,-0.96 0.57812,-1.43343 1.32812,-1.42968 z" />
    <path
       id="path64"
       style="display:inline"
       class="cls-1"
       d="m 697.68555,535.03125 c -32.93755,-0.11207 -45.67483,6.24239 -59.66602,28.22852 l -60.54883,93.62109 c -11.90988,18.30988 -16.02008,29.27832 -17.33008,43.9082 l -0.77148,12.93164 c -1.48,24.12988 17.72055,42.56961 51.32031,44.59961 l 78.83008,4.75977 -0.60937,10.33984 -0.0195,-0.0195 c -1.92994,31.87982 10.40972,49.48029 39.26954,51.24023 l 8.60937,0.51954 c 29.72982,1.78994 44.96063,-14.13948 46.89063,-46.0293 l 0.61914,-10.32031 1.28125,0.0586 c 32.74976,1.99 44.9489,-6.79932 46.6289,-34.36914 l 0.1211,-2.15039 c 1.54,-25.40988 -9.50995,-35.59055 -42.25977,-37.56055 l -1.29101,-0.0781 5.20117,-86.15039 c 3.14994,-52.1097 -17.87077,-69.38131 -69.98047,-72.53125 -10.01619,-0.60188 -18.69397,-0.97219 -26.29492,-0.99805 z m 52.5332,12.64063 c 0.18918,-0.0127 0.39734,0.0187 0.62109,0.10742 16.24997,6.45997 27.00042,19.21162 33.65039,35.10156 0.75,1.78 -2.16062,2.54883 -2.89062,0.79883 -6.19997,-14.80997 -16.40058,-26.97003 -31.56055,-33 v -0.01 c -1.54875,-0.6125 -1.14457,-2.90906 0.17969,-2.99804 z m -48.07617,58.96484 c 0.865,0.2 1.05812,2.14818 0.82812,5.20312 l -4.38086,72.72071 c -0.3,4.40994 -2.6706,6.70992 -7.56054,6.41992 l -35.8086,-2.16016 c -3.43994,-0.25 -5.43031,-4.73031 -2.82031,-7.57031 l 44.87891,-69.33008 c 2.45994,-3.93494 3.99828,-5.4832 4.86328,-5.2832 z m -104.54297,33.32812 c 1.04765,0.0347 2.01133,1.51727 1.11133,2.63477 -9.77994,12.14994 -19.09092,24.69975 -25.63086,38.92969 v -0.01 c -0.81,1.76 -3.38979,0.23018 -2.58985,-1.50976 6.65,-14.45994 16.15967,-27.17936 26.09961,-39.5293 0.3025,-0.3775 0.66055,-0.52719 1.00977,-0.51563 z m 110.75,42.28516 c 0.53426,0.0363 1.00633,0.36758 1.11133,1.08008 2.95996,20.28992 -26.30004,18.02914 -38.75,16.86914 v 0.0117 c -1.91,-0.18 -1.92,-3.18 0,-3 9.78996,0.91 38.35937,4.07984 35.85937,-13.08008 -0.175,-1.18125 0.88887,-1.94131 1.7793,-1.88086 z M 570.5957,692.44141 c 0.75,-10e-4 1.44399,0.47273 1.33399,1.42773 -1.3,11.30995 -2.60933,23.12161 0.89062,34.60156 3.5,11.47995 12.57943,17.29946 24.10938,18.93946 1.9,0.27 1.09117,3.16062 -0.79883,2.89062 -11.26995,-1.6 -20.78044,-7.1613 -25.15039,-18.03125 -4.82,-11.96995 -3.49055,-25.90044 -2.06055,-38.40039 h 0.01 c 0.11,-0.95 0.91601,-1.42648 1.66601,-1.42773 z m 252.4375,35.35547 c 0.75,10e-4 1.53266,0.48336 1.59766,1.44335 0.56,8.31 -0.0905,17.68884 -6.73047,23.79883 -6.63999,6.11 -16.48016,6.23024 -24.91016,5.24024 -1.89999,-0.22 -1.90999,-3.22 0,-3 7.57,0.88 16.82931,1.05085 22.7793,-4.36914 5.95,-5.42 6.34961,-14.17993 5.84961,-21.66993 h 0.0117 c -0.065,-0.96499 0.65234,-1.4446 1.40234,-1.44335 z m -125.97265,39.57617 c 0.75,0 1.47945,0.48226 1.43945,1.44726 -0.53,13.11998 0.63072,28.52955 11.2207,37.76953 8.68998,7.58 21.08963,8.57961 32.09961,8.34961 1.93,-0.04 1.93,2.96 0,3 -11.86998,0.25 -24.92072,-1.06853 -34.2207,-9.22851 C 696.43963,798.91096 694.94,782.73029 695.5,768.82031 c 0.04,-0.965 0.81055,-1.44726 1.56055,-1.44726 z" />
    <path
       id="path62"
       style="display:inline"
       class="cls-1"
       d="m 397.80859,534.15625 c -6.80696,-0.0174 -13.92039,0.2882 -21.33789,0.92383 -36.9898,3.15995 -65.67994,12.12908 -84.33984,26.70898 -18.7299,14.16995 -27.92039,33.13112 -25.90039,56.79102 0.04,0.44 0.0789,0.88031 0.12891,1.32031 1.34995,12.20995 7.38098,22.99911 17.71093,29.78906 4.53,2.98 9.62891,5.27008 14.87891,6.58008 7.76995,1.94 16.33008,4.5998 24.33008,2.58985 13.0799,-3.29 16.54039,-15.69935 23.65039,-25.2793 7.14995,-9.63995 17.96028,-16.07961 29.99023,-17.09961 18.4999,-1.59 26.26008,2.93044 27.33008,15.40039 1,11.60995 -19.71976,17.74002 -49.09961,33.66992 -33.93985,18.4899 -81.42956,50.7197 -77.59961,95.43945 l 1.62891,18.91016 v -0.0312 c 3.75995,43.8498 17.57001,48.3005 67.00976,44.06055 L 473.4707,813.0293 c 36.98985,-3.17 48.18922,-18.83851 45.94922,-45.06836 l -0.30078,-3.43164 c -2.1,-24.4999 -16.17867,-37.17883 -52.72852,-34.04883 l -0.41015,0.0293 c -1.07,0.1 -2.14094,0.18929 -3.21094,0.27929 l -5.93945,0.51172 -8.09961,0.68945 c -3.22,0.28 -6.44969,0.55008 -9.67969,0.83008 -3.57,0.31 -7.14094,0.60992 -10.71094,0.91992 -3.71995,0.32 -7.4702,0.63899 -11.16015,0.95899 -3.69,0.32 -7.36883,0.63117 -11.04883,0.95117 -3.46,0.3 -6.91114,0.58867 -10.37109,0.88867 l -9.11915,0.78125 c -2.42995,0.21 -4.87078,0.41891 -7.30078,0.62891 -2.18995,0.19 -4.37059,0.43031 -6.56054,0.57031 -0.08,0 -0.16024,0.02 -0.24024,0 -0.39,-0.08 -0.62992,-0.72031 -0.66992,-1.07031 -0.11,-1.06 1.72117,-1.84008 2.45117,-2.33008 1.15,-0.77 2.32,-1.50852 3.5,-2.22852 15.62995,-9.55995 39.34932,-15.93137 61.44922,-25.61132 36.7398,-16.14995 70.6307,-35.08022 65.9707,-89.66992 -4.54933,-52.98819 -41.63083,-83.28462 -107.43164,-83.45313 z m -109.82617,42.83789 c 1.01777,0.0155 2.03117,1.0882 1.35742,2.23633 -7.28995,12.39995 -15.4689,28.30974 -11.6289,43.17969 3.03995,11.7599 13.67841,18.58012 24.31836,22.83007 1.77,0.71 0.99117,3.61063 -0.79883,2.89063 -11.31995,-4.52 -22.53016,-11.65005 -26.16016,-24 -4.66995,-15.9099 3.82974,-33.06002 11.67969,-46.41992 v 0.01 c 0.30625,-0.52187 0.7698,-0.73362 1.23242,-0.72656 z M 481.44531,581.75 c 0.57299,0.0296 1.13953,0.33852 1.39453,1.00977 7.48,19.75992 13.95094,41.84023 10.46094,63.16015 -2.86,17.44992 -13.81156,30.72996 -29.52148,38.41992 l 0.01,0.01 c -1.72,0.85 -3.23976,-1.73988 -1.50976,-2.58984 15.45992,-7.58 25.87058,-20.52958 28.31054,-37.76954 2.89,-20.43992 -3.48066,-41.52976 -10.64062,-60.42968 -0.43125,-1.13125 0.54111,-1.85996 1.49609,-1.81055 z M 296.125,727.78125 c 1.02292,0.0181 2.0332,1.08727 1.3457,2.22852 -12.41994,20.57994 -8.71122,42.71006 -0.28125,64 v 0.01 c 0.71,1.8 -2.18867,2.57078 -2.88867,0.80078 -8.73997,-22.06994 -12.23989,-45.08037 0.58008,-66.32031 0.3125,-0.51875 0.77917,-0.72698 1.24414,-0.71875 z m 164.2793,12.30469 c 12.73697,-0.12134 26.46266,1.29844 36.67578,8.77344 9.89999,7.24999 12.2607,19.00133 10.7207,30.61132 -0.25,1.89 -3.25,1.91 -3,0 1.49,-11.24999 -0.67048,-22.49078 -10.73047,-29.05078 -12.07665,-7.86781 -28.45195,-7.74005 -42.26953,-7.06054 -1.93,0.1 -1.92,-2.90001 0,-3 2.77875,-0.13688 5.66422,-0.24544 8.60352,-0.27344 z m -160.05664,61.08789 c 0.47069,-0.0119 0.94648,0.18906 1.27148,0.69531 9.00998,14.05998 27.04043,11.85016 41.40039,10.16016 1.92,-0.23 1.89,2.78 0,3 -15.66996,1.84 -34.30025,3.47152 -43.99023,-11.64844 -0.72188,-1.12062 0.28284,-2.1809 1.31836,-2.20703 z" />
  </g>
  <g
     inkscape:groupmode="layer"
     id="layer14"
     inkscape:label="metal"
     sodipodi:insensitive="true"
     style="display:none">
    <path
       class="cls-3"
       d="m 302.63,286.36 c 6.71,4.9 14.52,7.56 22.8,5.56 9.7,-2.35 17.39,-9.8 23.68,-17.14 1.25,-1.46 -0.86,-3.59 -2.12,-2.12 -5.7,6.65 -12.44,13.44 -21.08,16.02 -7.91,2.36 -15.3,-0.18 -21.77,-4.91 -1.56,-1.14 -3.06,1.46 -1.51,2.59 z"
       id="path35"
       style="display:inline;fill:#ff0fff;fill-opacity:1" />
    <path
       class="cls-3"
       d="m 335.55,201.55 c -13.25,5.87 -26.18,13.5 -35.21,25.09 -9.74,12.5 -12.95,27.95 -12.18,43.54 0.09,1.92 3.1,1.93 3,0 -0.75,-15.34 2.4,-30.51 12.27,-42.63 8.78,-10.78 21.11,-17.85 33.64,-23.4 1.76,-0.78 0.24,-3.37 -1.51,-2.59 v 0 z"
       id="path36"
       style="display:inline;fill:#ff0fff;fill-opacity:1" />
    <path
       class="cls-3"
       d="m 445.59,209.2 c 19.82,7.95 37.51,20.12 48.47,38.82 0.98,1.66 3.57,0.16 2.59,-1.51 -11.38,-19.42 -29.69,-31.95 -50.26,-40.2 -1.79,-0.72 -2.57,2.18 -0.8,2.89 z"
       id="path37"
       style="display:inline;fill:#ff0fff;fill-opacity:1" />
    <path
       class="cls-3"
       d="m 488.6,321.43 c -16,21.42 -45.17,29.66 -70.05,34.96 -1.89,0.4 -1.09,3.29 0.8,2.89 25.78,-5.5 55.31,-14.2 71.85,-36.34 1.16,-1.55 -1.45,-3.04 -2.59,-1.51 v 0 z"
       id="path38"
       style="display:inline;fill:#ff0fff;fill-opacity:1" />
    <path
       class="cls-3"
       d="m 446.48,405.45 c 19.32,-0.46 50.16,1.36 48.68,27.58 -0.11,1.93 2.89,1.92 3,0 1.6,-28.16 -30.58,-31.09 -51.68,-30.58 -1.93,0.05 -1.93,3.05 0,3 z"
       id="path39"
       style="display:inline;fill:#ff0fff;fill-opacity:1" />
    <path
       class="cls-3"
       d="m 493.76,445.97 c 2.12,17.32 -22.21,18.12 -34.03,18.83 -1.92,0.12 -1.93,3.12 0,3 13.51,-0.81 39.41,-2.37 37.03,-21.83 -0.23,-1.89 -3.23,-1.92 -3,0 z"
       id="path40"
       style="display:inline;fill:#ff0fff;fill-opacity:1" />
    <path
       class="cls-3"
       d="m 276.68,433.12 c 7.29,25.37 33.2,28.99 56.15,27.32 1.91,-0.14 1.93,-3.14 0,-3 -21.45,1.56 -46.36,-1.14 -53.25,-25.12 -0.53,-1.85 -3.43,-1.06 -2.89,0.8 v 0 z"
       id="path41"
       style="display:inline;fill:#ff0fff;fill-opacity:1" />
    <path
       class="cls-3"
       d="m 689.18,398.32 c 15.67,0.47 35,-1.02 45.46,-14.44 9.82,-12.6 7.43,-30.33 3.72,-44.71 -0.48,-1.87 -3.38,-1.08 -2.89,0.8 3.46,13.4 6.01,30.28 -3.19,42.09 -9.84,12.63 -28.43,13.71 -43.09,13.27 -1.93,-0.06 -1.93,2.94 0,3 v 0 z"
       id="path42"
       style="display:inline;fill:#ff0fff;fill-opacity:1" />
    <path
       class="cls-3"
       d="m 729.36,274.1 c -1.72,-8.84 -5.43,-17.55 -13.34,-22.5 -7.91,-4.95 -18.08,-4.83 -27.17,-3.36 -1.9,0.31 -1.09,3.2 0.8,2.89 8.28,-1.34 17.48,-1.57 24.85,3.06 7.37,4.63 10.41,12.67 11.97,20.71 0.37,1.89 3.26,1.09 2.89,-0.8 z"
       id="path43"
       style="display:inline;fill:#ff0fff;fill-opacity:1" />
    <path
       class="cls-3"
       d="m 617.89,215.13 c -17.01,11.5 -30.37,27.12 -37.9,46.32 -8.31,21.18 -9.13,44.46 -6.73,66.85 0.2,1.9 3.21,1.92 3,0 -2.28,-21.3 -1.67,-43.28 5.7,-63.6 7.37,-20.32 20.37,-35.43 37.45,-46.98 1.59,-1.08 0.09,-3.68 -1.51,-2.59 v 0 z"
       id="path44"
       style="display:inline;fill:#ff0fff;fill-opacity:1" />
    <path
       class="cls-3"
       d="m 737.32,455.97 c 22.66,-7.58 43.61,-20.01 58.9,-38.64 15.28,-18.62 23.72,-41.48 27.67,-65.03 0.32,-1.89 -2.57,-2.7 -2.89,-0.8 -3.86,23.01 -11.96,45.5 -26.9,63.71 -14.96,18.24 -35.38,30.44 -57.58,37.86 -1.82,0.61 -1.04,3.51 0.8,2.89 v 0 z"
       id="path45"
       style="display:inline;fill:#ff0fff;fill-opacity:1" />
    <path
       class="cls-3"
       d="m 670.71,700.2 c 12.45,1.16 41.71,3.42 38.75,-16.87 -0.28,-1.9 -3.17,-1.09 -2.89,0.8 2.5,17.16 -26.07,13.99 -35.86,13.08 -1.92,-0.18 -1.91,2.82 0,3 v 0 z"
       id="path46"
       style="display:inline;fill:#ff0fff;fill-opacity:1" />
    <path
       class="cls-3"
       d="m 750.04,550.68 c 15.16,6.03 25.36,18.19 31.56,33 0.73,1.75 3.64,0.98 2.89,-0.8 -6.65,-15.89 -17.4,-28.64 -33.65,-35.1 -1.79,-0.71 -2.57,2.19 -0.8,2.89 v 0 z"
       id="path47"
       style="display:inline;fill:#ff0fff;fill-opacity:1" />
    <path
       class="cls-3"
       d="m 821.62,729.24 c 0.5,7.49 0.1,16.25 -5.85,21.67 -5.95,5.42 -15.21,5.25 -22.78,4.37 -1.91,-0.22 -1.9,2.78 0,3 8.43,0.99 18.27,0.87 24.91,-5.24 6.64,-6.11 7.29,-15.49 6.73,-23.8 -0.13,-1.92 -3.13,-1.93 -3,0 v 0 z"
       id="path48"
       style="display:inline;fill:#ff0fff;fill-opacity:1" />
    <path
       class="cls-3"
       d="m 568.92,693.87 c -1.43,12.5 -2.76,26.43 2.06,38.4 4.37,10.87 13.88,16.43 25.15,18.03 1.89,0.27 2.7,-2.62 0.8,-2.89 -11.53,-1.64 -20.61,-7.46 -24.11,-18.94 -3.5,-11.48 -2.19,-23.29 -0.89,-34.6 0.22,-1.91 -2.78,-1.9 -3,0 v 0 z"
       id="path49"
       style="display:inline;fill:#ff0fff;fill-opacity:1" />
    <path
       class="cls-3"
       d="m 695.5,768.82 c -0.56,13.91 0.94,30.09 12.1,39.89 9.3,8.16 22.35,9.48 34.22,9.23 1.93,-0.04 1.93,-3.04 0,-3 -11.01,0.23 -23.41,-0.77 -32.1,-8.35 -10.59,-9.24 -11.75,-24.65 -11.22,-37.77 0.08,-1.93 -2.92,-1.93 -3,0 z"
       id="path50"
       style="display:inline;fill:#ff0fff;fill-opacity:1" />
    <path
       class="cls-3"
       d="m 286.75,577.71 c -7.85,13.36 -16.35,30.51 -11.68,46.42 3.63,12.35 14.84,19.48 26.16,24 1.79,0.72 2.57,-2.18 0.8,-2.89 -10.64,-4.25 -21.28,-11.07 -24.32,-22.83 -3.84,-14.87 4.34,-30.78 11.63,-43.18 0.98,-1.67 -1.61,-3.18 -2.59,-1.51 v 0 z"
       id="path51"
       style="display:inline;fill:#ff0fff;fill-opacity:1" />
    <path
       class="cls-3"
       d="m 297.19,794.01 c -8.43,-21.29 -12.14,-43.42 0.28,-64 1,-1.66 -1.59,-3.17 -2.59,-1.51 -12.82,21.24 -9.32,44.25 -0.58,66.32 0.7,1.77 3.6,1 2.89,-0.8 v 0 z"
       id="path52"
       style="display:inline;fill:#ff0fff;fill-opacity:1" />
    <path
       class="cls-3"
       d="m 451.79,743.36 c 13.82,-0.68 30.2,-0.81 42.28,7.06 10.06,6.56 12.22,17.8 10.73,29.05 -0.25,1.91 2.75,1.89 3,0 1.54,-11.61 -0.82,-23.36 -10.72,-30.61 -12.57,-9.2 -30.46,-9.23 -45.28,-8.5 -1.92,0.1 -1.93,3.1 0,3 v 0 z"
       id="path53"
       style="display:inline;fill:#ff0fff;fill-opacity:1" />
    <path
       class="cls-3"
       d="m 463.78,684.34 c 15.71,-7.69 26.66,-20.97 29.52,-38.42 3.49,-21.32 -2.98,-43.4 -10.46,-63.16 -0.68,-1.79 -3.58,-1.01 -2.89,0.8 7.16,18.9 13.53,39.99 10.64,60.43 -2.44,17.24 -12.85,30.19 -28.31,37.77 -1.73,0.85 -0.21,3.44 1.51,2.59 v 0 z"
       id="path54"
       style="display:inline;fill:#ff0fff;fill-opacity:1" />
    <path
       class="cls-3"
       d="m 299.03,803.38 c 9.69,15.12 28.32,13.49 43.99,11.65 1.89,-0.22 1.92,-3.23 0,-3 -14.36,1.69 -32.39,3.9 -41.4,-10.16 -1.04,-1.62 -3.64,-0.12 -2.59,1.51 z"
       id="path55"
       style="display:inline;fill:#ff0fff;fill-opacity:1" />
    <path
       class="cls-3"
       d="m 573.08,681.53 c 6.54,-14.23 15.85,-26.78 25.63,-38.93 1.2,-1.49 -0.91,-3.63 -2.12,-2.12 -9.94,12.35 -19.45,25.07 -26.1,39.53 -0.8,1.74 1.78,3.27 2.59,1.51 v 0 z"
       id="path56"
       style="display:inline;fill:#ff0fff;fill-opacity:1" />
  </g>
</svg>
