<?xml version="1.0" encoding="UTF-8" standalone="no"?>
<svg
   id="_2024_Stacked"
   data-name="2024 Stacked"
   viewBox="0 0 1920 1080"
   version="1.1"
   sodipodi:docname="Artboard 1 optimized for pcb layout.svg"
   inkscape:version="1.3 (0e150ed6c4, 2023-07-21)"
   xmlns:inkscape="http://www.inkscape.org/namespaces/inkscape"
   xmlns:sodipodi="http://sodipodi.sourceforge.net/DTD/sodipodi-0.dtd"
   xmlns="http://www.w3.org/2000/svg"
   xmlns:svg="http://www.w3.org/2000/svg">
  <sodipodi:namedview
     id="namedview34"
     pagecolor="#ffffff"
     bordercolor="#666666"
     borderopacity="1.0"
     inkscape:showpageshadow="2"
     inkscape:pageopacity="0.0"
     inkscape:pagecheckerboard="0"
     inkscape:deskcolor="#d1d1d1"
     inkscape:zoom="7.507117"
     inkscape:cx="509.71631"
     inkscape:cy="528.23208"
     inkscape:window-width="2560"
     inkscape:window-height="1377"
     inkscape:window-x="-8"
     inkscape:window-y="-8"
     inkscape:window-maximized="1"
     inkscape:current-layer="layer1" />
  <defs
     id="defs1">
    <style
       id="style1">&#10;      .cls-1 {&#10;        fill: #7fb7dd;&#10;      }&#10;&#10;      .cls-1, .cls-2, .cls-3, .cls-4 {&#10;        stroke-width: 0px;&#10;      }&#10;&#10;      .cls-2 {&#10;        fill: #ffdd50;&#10;      }&#10;&#10;      .cls-3 {&#10;        fill: #fff;&#10;      }&#10;&#10;      .cls-4 {&#10;        fill: #003da0;&#10;      }&#10;    </style>
  </defs>
  <g
     inkscape:groupmode="layer"
     id="layer1"
     inkscape:label="edge"
     style="display:inline">
    <path
       id="path57"
       style="display:inline;fill:none;fill-opacity:1;stroke:#16d01f;stroke-width:0.192;stroke-dasharray:none;stroke-opacity:1"
       class="cls-1"
       d="m 494.85381,491.13062 c -0.26899,0.54105 -4.10767,2.6711 -5.68967,4.53328 -1.33953,1.56619 -2.33175,3.46518 -2.66563,5.5106 -0.1236,0.67646 -0.14469,1.3663 -0.12315,2.05217 0.0962,11.83454 0.19049,23.66922 0.29001,35.50364 0.14601,1.8717 0.95905,3.71607 2.36185,4.98363 1.06185,0.97218 2.39571,1.61753 3.78985,1.95219 1.0935,0.28093 2.212,0.57913 3.35174,0.49355 0.66806,-0.046 0.38085,0.89842 -0.049,1.33985 -0.83233,1.4068 -0.63329,0.757 -1.57321,2.35421 -0.23189,0.21163 -0.4805,0.40942 -0.71284,0.62262 -1.67591,1.50007 -3.18515,3.23144 -4.19801,5.25289 -0.86533,1.73098 -1.32038,3.68784 -1.16795,5.62547 0.0647,0.91844 0.16091,1.83439 0.23255,2.75234 0.0575,0.69123 0.12489,1.38136 0.21651,2.06871 0.0532,0.42942 0.09,0.86148 0.19238,1.28294 0.0413,0.20272 0.0826,0.40544 0.12392,0.60816 0.0357,-0.137 0.0635,-0.1293 0.0839,0.007 0.3162,1.11806 0.83043,2.22196 1.70028,3.01705 0.59918,0.56296 1.34651,0.94747 2.13144,1.17888 1.31965,0.39317 2.71214,0.41834 4.0783,0.39563 1.93559,-0.0432 3.86114,-0.26035 5.78991,-0.41231 l 17.78583,-1.52375 c 13.50714,0.52274 27.01439,1.04339 40.52134,1.57021 1.19436,0.075 2.40302,0.17936 3.5908,-0.0257 1.38028,-0.21941 2.72903,-0.80462 3.72903,-1.79781 0.88622,-0.86776 1.48861,-1.99103 1.85727,-3.16729 0.88058,-0.23845 1.72394,-0.63376 2.44276,-1.19964 1.03477,-0.80451 1.76212,-1.95058 2.20786,-3.17224 1.07044,-0.36697 2.04201,-1.07681 2.62698,-2.05594 0.4559,-0.73546 0.7167,-1.57503 0.8674,-2.42249 1.15364,-0.18348 2.30921,-0.60928 3.16689,-1.4265 0.86627,-0.82081 1.36002,-1.96228 1.5862,-3.11858 0.21331,-1.0604 0.26994,-2.14667 0.25878,-3.22617 -0.0391,-1.14865 -0.29743,-2.32899 -0.97244,-3.27926 -0.68633,-0.97564 -1.75705,-1.6181 -2.87957,-1.97349 -0.99432,-0.32921 -2.0362,-0.48632 -3.07674,-0.57819 0.26042,-4.34054 0.52943,-8.68066 0.77972,-13.02174 l 0.55403,-27.4242 c 2.33296,-2.27364 4.01907,-5.18257 4.91869,-8.30824 0.93397,-3.20498 1.10137,-6.59805 0.74458,-9.90614 -0.16411,-1.48426 -0.34212,-2.96703 -0.51368,-4.45044 -0.17905,-1.50141 -0.45093,-2.99334 -0.86001,-4.44979 -0.808,-2.91597 -2.13775,-5.71019 -4.05491,-8.06264 -1.89794,-2.33566 -4.37079,-4.19867 -7.13955,-5.37856 -3.01767,-1.30131 -6.32837,-1.82581 -9.60199,-1.78731 v 0 c -1.1398,0.01 -2.27669,0.10437 -3.41017,0.21588 l -44.70202,1.39818 c -3.16315,-0.16225 -6.36502,-0.0761 -9.46774,0.60914 -2.20577,0.48258 -4.35341,1.3222 -6.20789,2.6243 -1.04873,0.74085 -1.99168,1.6422 -2.72906,2.69625 -1.79704,0.79538 -3.49258,1.89893 -4.7727,3.40639 -0.96666,1.13295 -1.68385,2.47726 -2.07493,3.91492 -0.33061,1.18824 -0.47867,2.43083 -0.41271,3.66315 0.12032,1.76109 0.86557,3.49076 2.13802,4.72576 0.8913,0.88771 2.56855,1.65963 3.16465,1.99007 0.5961,0.33044 2.04103,3.27835 1.77205,3.8194 z"
       sodipodi:nodetypes="zccccccccccccccccccccccccccccccccccccccccccccssccccccccczz" />
  </g>
  <g
     inkscape:groupmode="layer"
     id="layer8"
     inkscape:label="flat"
     style="display:none"
     sodipodi:insensitive="true">
    <path
       class="cls-2"
       d="m 1120.19,403.95 1.04,-18.95 c 2.48,-44.82 54.02,-70.06 90.22,-83.61 31.32,-11.66 52.7,-14.82 53.34,-26.45 0.69,-12.5 -6.36,-18.06 -24.9,-19.08 -12.06,-0.67 -23.66,4.19 -32.1,12.73 -8.38,8.49 -13.55,20.29 -26.96,21.71 -8.21,0.87 -16.31,-2.97 -23.72,-5.98 -5.01,-2.04 -9.75,-5.02 -13.81,-8.6 -9.28,-8.17 -13.74,-19.7 -13.36,-31.98 0.01,-0.44 0.03,-0.88 0.06,-1.32 1.31,-23.71 13.08,-41.19 33.61,-52.6 20.52,-11.82 50.19,-16.67 87.25,-14.62 79.29,4.38 119.15,41.18 115.93,99.78 -3.04,54.71 -39.25,68.69 -77.9,79.54 -23.24,6.48 -47.62,9.46 -64.43,16.74 -1.27,0.55 -2.53,1.12 -3.78,1.72 -0.79,0.38 -2.72,0.9 -2.75,1.96 -0.01,0.35 0.14,1.02 0.52,1.15 0.07,0.03 0.16,0.03 0.23,0.03 2.18,0.17 4.38,0.24 6.57,0.36 2.44,0.14 4.88,0.27 7.32,0.41 l 9.14,0.51 c 3.46,0.19 6.93,0.38 10.39,0.58 3.69,0.2 7.38,0.41 11.07,0.61 3.73,0.21 7.46,0.41 11.18,0.62 3.58,0.2 7.15,0.4 10.73,0.59 3.23,0.18 6.47,0.36 9.7,0.54 l 8.11,0.45 c 1.98,0.11 3.97,0.22 5.95,0.33 l 3.22,0.18 0.41,0.02 c 36.63,2.03 48.79,16.55 47.44,41.1 l -0.18,3.44 c -1.46,26.29 -14.75,40.23 -51.82,38.18 l -127.55,-7.06 c -49.55,-2.74 -62.6,-9.08 -60.17,-53.02 z"
       id="path31" />
    <path
       class="cls-2"
       d="m 1130.56,767.27 -1.63,-18.91 c -3.83,-44.72 43.66,-76.95 77.6,-95.44 29.38,-15.93 50.1,-22.06 49.1,-33.67 -1.07,-12.47 -8.83,-16.99 -27.33,-15.4 -12.03,1.02 -22.84,7.46 -29.99,17.1 -7.11,9.58 -10.57,21.99 -23.65,25.28 -8,2.01 -16.56,-0.65 -24.33,-2.59 -5.25,-1.31 -10.35,-3.6 -14.88,-6.58 -10.33,-6.79 -16.36,-17.58 -17.71,-29.79 -0.05,-0.44 -0.09,-0.88 -0.13,-1.32 -2.02,-23.66 7.17,-42.62 25.9,-56.79 18.66,-14.58 47.35,-23.55 84.34,-26.71 79.12,-6.78 123.75,24.06 128.77,82.53 4.66,54.59 -29.23,73.52 -65.97,89.67 -22.1,9.68 -45.82,16.05 -61.45,25.61 -1.18,0.72 -2.35,1.46 -3.5,2.23 -0.73,0.49 -2.56,1.27 -2.45,2.33 0.04,0.35 0.28,0.99 0.67,1.07 0.08,0.02 0.16,0 0.24,0 2.19,-0.14 4.37,-0.38 6.56,-0.57 2.43,-0.21 4.87,-0.42 7.3,-0.63 l 9.12,-0.78 c 3.46,-0.3 6.91,-0.59 10.37,-0.89 3.68,-0.32 7.36,-0.63 11.05,-0.95 3.72,-0.32 7.44,-0.64 11.16,-0.96 3.57,-0.31 7.14,-0.61 10.71,-0.92 l 9.68,-0.83 c 2.7,-0.23 5.4,-0.46 8.1,-0.69 1.98,-0.17 3.96,-0.34 5.94,-0.51 1.07,-0.09 2.14,-0.18 3.21,-0.28 l 0.41,-0.03 c 36.55,-3.13 50.63,9.55 52.73,34.05 l 0.3,3.43 c 2.24,26.23 -8.96,41.9 -45.95,45.07 l -127.28,10.9 c -49.44,4.24 -63.25,-0.21 -67.01,-44.06 z"
       id="path32" />
    <path
       class="cls-2"
       d="m 1415.29,339.86 -2.99,-25.73 c -9.35,-80.16 34.74,-137.86 119.19,-147.7 84.44,-9.85 140.15,35.79 149.56,116.36 l 2.99,25.73 c 9.44,81.01 -34.28,138.23 -118.72,148.08 -84.87,9.91 -140.59,-35.73 -150.03,-116.75 z m 164.5,-8.75 -5.46,-46.72 c -3.19,-27.44 -13.12,-38.03 -33.26,-35.67 -21.01,2.45 -27.91,14.12 -24.6,42.41 l 5.45,46.71 c 3.19,27.45 13.06,37.6 33.64,35.2 20.14,-2.36 27.37,-14.94 24.23,-41.93 z"
       id="path33" />
    <path
       class="cls-2"
       d="m 1540.29,760.79 0.61,-10.34 -78.83,-4.76 c -33.6,-2.03 -52.8,-20.47 -51.32,-44.6 l 0.77,-12.93 c 1.31,-14.63 5.42,-25.6 17.33,-43.91 l 60.55,-93.62 c 17.22,-27.06 32.54,-30.44 85.96,-27.23 52.11,3.15 73.13,20.42 69.98,72.53 l -5.2,86.15 1.29,0.08 c 32.75,1.97 43.8,12.15 42.26,37.56 l -0.12,2.15 c -1.68,27.57 -13.88,36.36 -46.63,34.37 l -1.28,-0.06 -0.62,10.32 c -1.93,31.89 -17.16,47.82 -46.89,46.03 l -8.61,-0.52 c -28.86,-1.76 -41.2,-19.36 -39.27,-51.24 z m 9.68,-88.86 4.38,-72.72 c 0.46,-6.11 -0.77,-7.79 -5.69,0.08 l -44.88,69.33 c -2.61,2.84 -0.62,7.32 2.82,7.57 l 35.81,2.16 c 4.89,0.29 7.26,-2.01 7.56,-6.42 z"
       id="path34" />
  </g>
  <g
     inkscape:groupmode="layer"
     id="layer9"
     inkscape:label="shadow"
     style="display:none"
     sodipodi:insensitive="true">
    <path
       class="cls-4"
       d="m 235.31,442.62 1.04,-18.95 c 2.48,-44.82 54.02,-70.06 90.22,-83.61 31.32,-11.66 52.7,-14.82 53.34,-26.45 0.69,-12.5 -6.36,-18.06 -24.9,-19.08 -12.06,-0.67 -23.66,4.19 -32.1,12.73 -8.38,8.49 -13.55,20.29 -26.96,21.71 -8.21,0.87 -16.31,-2.97 -23.72,-5.98 -5.01,-2.04 -9.75,-5.02 -13.81,-8.6 -9.28,-8.17 -13.74,-19.7 -13.36,-31.98 0.01,-0.44 0.03,-0.88 0.06,-1.32 1.31,-23.71 13.08,-41.19 33.61,-52.6 20.52,-11.82 50.19,-16.67 87.25,-14.62 79.29,4.38 119.15,41.18 115.93,99.78 -3.04,54.71 -39.25,68.69 -77.9,79.54 -23.24,6.48 -47.62,9.46 -64.43,16.74 -1.27,0.55 -2.53,1.12 -3.78,1.72 -0.79,0.38 -2.72,0.9 -2.75,1.96 -0.01,0.35 0.14,1.02 0.52,1.15 0.07,0.03 0.16,0.03 0.23,0.03 2.18,0.17 4.38,0.24 6.57,0.36 2.44,0.14 4.88,0.27 7.32,0.41 l 9.14,0.51 c 3.46,0.19 6.93,0.38 10.39,0.58 3.69,0.2 7.38,0.41 11.07,0.61 3.73,0.21 7.46,0.41 11.18,0.62 l 10.73,0.59 9.7,0.54 8.11,0.45 c 1.98,0.11 3.97,0.22 5.95,0.33 l 3.22,0.18 0.41,0.02 c 36.63,2.03 48.79,16.55 47.44,41.1 l -0.18,3.44 c -1.46,26.29 -14.75,40.23 -51.82,38.18 l -127.55,-7.06 c -49.55,-2.74 -62.6,-9.08 -60.17,-53.02 z"
       id="path1" />
    <path
       class="cls-4"
       d="m 251.14,811.74 -1.63,-18.91 c -3.83,-44.72 43.66,-76.95 77.6,-95.44 29.38,-15.93 50.1,-22.06 49.1,-33.67 -1.07,-12.47 -8.83,-16.99 -27.33,-15.4 -12.03,1.02 -22.84,7.46 -29.99,17.1 -7.11,9.58 -10.57,21.99 -23.65,25.28 -8,2.01 -16.56,-0.65 -24.33,-2.59 -5.25,-1.31 -10.35,-3.6 -14.88,-6.58 -10.33,-6.79 -16.36,-17.58 -17.71,-29.79 -0.05,-0.44 -0.09,-0.88 -0.13,-1.32 -2.02,-23.66 7.17,-42.62 25.9,-56.79 18.66,-14.58 47.35,-23.55 84.34,-26.71 79.12,-6.78 123.75,24.06 128.77,82.53 4.66,54.59 -29.23,73.52 -65.97,89.67 -22.1,9.68 -45.82,16.05 -61.45,25.61 -1.18,0.72 -2.35,1.46 -3.5,2.23 -0.73,0.49 -2.56,1.27 -2.45,2.33 0.04,0.35 0.28,0.99 0.67,1.07 0.08,0.02 0.16,0 0.24,0 2.19,-0.14 4.37,-0.38 6.56,-0.57 2.43,-0.21 4.87,-0.42 7.3,-0.63 3.04,-0.26 6.08,-0.52 9.12,-0.78 3.46,-0.3 6.91,-0.59 10.37,-0.89 3.68,-0.32 7.36,-0.63 11.05,-0.95 3.72,-0.32 7.44,-0.64 11.16,-0.96 3.57,-0.31 7.14,-0.61 10.71,-0.92 3.23,-0.28 6.46,-0.55 9.68,-0.83 2.7,-0.23 5.4,-0.46 8.1,-0.69 1.98,-0.17 3.96,-0.34 5.94,-0.51 1.07,-0.09 2.14,-0.18 3.21,-0.28 l 0.41,-0.03 c 36.55,-3.13 50.63,9.55 52.73,34.05 l 0.3,3.43 c 2.24,26.23 -8.96,41.9 -45.95,45.07 l -127.28,10.9 c -49.44,4.24 -63.25,-0.21 -67.01,-44.06 z"
       id="path2" />
    <path
       class="cls-4"
       d="m 539.15,386.93 -2.99,-25.73 c -9.35,-80.16 34.74,-137.86 119.19,-147.7 84.44,-9.85 140.15,35.79 149.56,116.36 l 2.99,25.73 c 9.44,81.01 -34.28,138.23 -118.72,148.08 -84.87,9.91 -140.59,-35.73 -150.03,-116.75 z m 164.5,-8.74 -5.46,-46.72 C 695,304.03 685.07,293.44 664.93,295.8 c -21.01,2.45 -27.91,14.12 -24.6,42.41 l 5.45,46.71 c 3.19,27.45 13.06,37.6 33.64,35.2 20.14,-2.36 27.37,-14.94 24.23,-41.93 z"
       id="path3" />
    <path
       class="cls-4"
       d="m 658.91,803.42 0.61,-10.34 -78.83,-4.76 c -33.6,-2.03 -52.8,-20.47 -51.32,-44.6 l 0.77,-12.93 c 1.31,-14.63 5.42,-25.6 17.33,-43.91 l 60.55,-93.62 c 17.22,-27.06 32.54,-30.44 85.96,-27.23 52.11,3.15 73.13,20.42 69.98,72.53 l -5.2,86.15 1.29,0.08 c 32.75,1.97 43.8,12.15 42.26,37.56 l -0.12,2.15 c -1.68,27.57 -13.88,36.36 -46.63,34.37 l -1.28,-0.06 -0.62,10.32 c -1.93,31.89 -17.16,47.82 -46.89,46.03 l -8.61,-0.52 c -28.86,-1.76 -41.2,-19.36 -39.27,-51.24 z m 9.68,-88.86 4.38,-72.72 c 0.46,-6.11 -0.77,-7.79 -5.69,0.08 l -44.88,69.33 c -2.61,2.84 -0.62,7.32 2.82,7.57 l 35.81,2.16 c 4.89,0.29 7.26,-2.01 7.56,-6.42 z"
       id="path4" />
  </g>
  <g
     inkscape:groupmode="layer"
     id="layer10"
     inkscape:label="text"
     style="display:none"
     sodipodi:insensitive="true">
    <path
       class="cls-1"
       d="m 268.8,416.58 1.04,-18.95 c 2.48,-44.82 54.02,-70.06 90.22,-83.61 31.32,-11.66 52.7,-14.82 53.34,-26.45 0.69,-12.5 -6.36,-18.06 -24.9,-19.08 -12.06,-0.67 -23.66,4.19 -32.1,12.73 -8.38,8.49 -13.55,20.29 -26.96,21.71 -8.21,0.87 -16.31,-2.97 -23.72,-5.98 -5.01,-2.04 -9.75,-5.02 -13.81,-8.6 -9.28,-8.17 -13.74,-19.7 -13.36,-31.98 0.01,-0.44 0.03,-0.88 0.06,-1.32 1.31,-23.71 13.08,-41.19 33.61,-52.6 20.52,-11.82 50.19,-16.67 87.25,-14.62 79.29,4.38 119.15,41.18 115.93,99.78 -3.04,54.71 -39.25,68.69 -77.9,79.54 -23.24,6.48 -47.62,9.46 -64.43,16.74 -1.27,0.55 -2.53,1.12 -3.78,1.72 -0.79,0.38 -2.72,0.9 -2.75,1.96 -0.01,0.35 0.14,1.02 0.52,1.15 0.07,0.03 0.16,0.03 0.23,0.03 2.18,0.17 4.38,0.24 6.57,0.36 2.44,0.14 4.88,0.27 7.32,0.41 l 9.14,0.51 c 3.46,0.19 6.93,0.38 10.39,0.58 3.69,0.2 7.38,0.41 11.07,0.61 3.73,0.21 7.46,0.41 11.18,0.62 3.58,0.2 7.15,0.4 10.73,0.59 l 9.7,0.54 8.11,0.45 c 1.98,0.11 3.97,0.22 5.95,0.33 l 3.22,0.18 0.41,0.02 c 36.63,2.03 48.79,16.55 47.44,41.1 l -0.18,3.44 c -1.46,26.29 -14.75,40.23 -51.82,38.18 l -127.55,-7.06 c -49.55,-2.74 -62.6,-9.08 -60.17,-53.02 z"
       id="path5" />
    <path
       class="cls-1"
       d="m 279.18,779.9 -1.63,-18.91 c -3.83,-44.72 43.66,-76.95 77.6,-95.44 29.38,-15.93 50.1,-22.06 49.1,-33.67 -1.07,-12.47 -8.83,-16.99 -27.33,-15.4 -12.03,1.02 -22.84,7.46 -29.99,17.1 -7.11,9.58 -10.57,21.99 -23.65,25.28 -8,2.01 -16.56,-0.65 -24.33,-2.59 -5.25,-1.31 -10.35,-3.6 -14.88,-6.58 -10.33,-6.79 -16.36,-17.58 -17.71,-29.79 -0.05,-0.44 -0.09,-0.88 -0.13,-1.32 -2.02,-23.66 7.17,-42.62 25.9,-56.79 18.66,-14.58 47.35,-23.55 84.34,-26.71 79.12,-6.78 123.75,24.06 128.77,82.53 4.66,54.59 -29.23,73.52 -65.97,89.67 -22.1,9.68 -45.82,16.05 -61.45,25.61 -1.18,0.72 -2.35,1.46 -3.5,2.23 -0.73,0.49 -2.56,1.27 -2.45,2.33 0.04,0.35 0.28,0.99 0.67,1.07 0.08,0.02 0.16,0 0.24,0 2.19,-0.14 4.37,-0.38 6.56,-0.57 2.43,-0.21 4.87,-0.42 7.3,-0.63 3.04,-0.26 6.08,-0.52 9.12,-0.78 3.46,-0.3 6.91,-0.59 10.37,-0.89 3.68,-0.32 7.36,-0.63 11.05,-0.95 3.69,-0.32 7.44,-0.64 11.16,-0.96 3.57,-0.31 7.14,-0.61 10.71,-0.92 3.23,-0.28 6.46,-0.55 9.68,-0.83 2.7,-0.23 5.4,-0.46 8.1,-0.69 1.98,-0.17 3.96,-0.34 5.94,-0.51 1.07,-0.09 2.14,-0.18 3.21,-0.28 l 0.41,-0.03 c 36.55,-3.13 50.63,9.55 52.73,34.05 l 0.3,3.43 c 2.24,26.23 -8.96,41.9 -45.95,45.07 l -127.28,10.9 c -49.44,4.24 -63.25,-0.21 -67.01,-44.06 z"
       id="path6" />
    <path
       class="cls-1"
       d="m 563.91,352.48 -2.99,-25.73 c -9.35,-80.16 34.74,-137.86 119.19,-147.7 84.44,-9.85 140.15,35.79 149.56,116.36 l 2.99,25.73 c 9.44,81.01 -34.28,138.23 -118.72,148.08 -84.87,9.91 -140.59,-35.73 -150.03,-116.75 z m 164.5,-8.74 -5.46,-46.72 c -3.19,-27.44 -13.12,-38.03 -33.26,-35.67 -21.01,2.45 -27.91,14.12 -24.6,42.41 l 5.45,46.71 c 3.19,27.45 13.06,37.6 33.64,35.2 20.14,-2.36 27.37,-14.94 24.23,-41.93 z"
       id="path7" />
    <path
       class="cls-1"
       d="m 688.91,773.42 0.61,-10.34 -78.83,-4.76 c -33.6,-2.03 -52.8,-20.47 -51.32,-44.6 l 0.77,-12.93 c 1.31,-14.63 5.42,-25.6 17.33,-43.91 l 60.55,-93.62 c 17.22,-27.06 32.54,-30.44 85.96,-27.23 52.11,3.15 73.13,20.42 69.98,72.53 l -5.2,86.15 1.29,0.08 c 32.75,1.97 43.8,12.15 42.26,37.56 l -0.12,2.15 c -1.68,27.57 -13.88,36.36 -46.63,34.37 l -1.28,-0.06 -0.62,10.32 c -1.93,31.89 -17.16,47.82 -46.89,46.03 l -8.61,-0.52 c -28.86,-1.76 -41.2,-19.36 -39.27,-51.24 z m 9.68,-88.86 4.38,-72.72 c 0.46,-6.11 -0.77,-7.79 -5.69,0.08 l -44.88,69.33 c -2.61,2.84 -0.62,7.32 2.82,7.57 l 35.81,2.16 c 4.89,0.29 7.26,-2.01 7.56,-6.42 z"
       id="path8" />
  </g>
  <g
     inkscape:groupmode="layer"
     id="layer11"
     inkscape:label="shiny"
     style="display:none"
     sodipodi:insensitive="true">
    <path
       class="cls-3"
       d="m 302.63,286.36 c 6.71,4.9 14.52,7.56 22.8,5.56 9.7,-2.35 17.39,-9.8 23.68,-17.14 1.25,-1.46 -0.86,-3.59 -2.12,-2.12 -5.7,6.65 -12.44,13.44 -21.08,16.02 -7.91,2.36 -15.3,-0.18 -21.77,-4.91 -1.56,-1.14 -3.06,1.46 -1.51,2.59 z"
       id="path9" />
    <path
       class="cls-3"
       d="m 335.55,201.55 c -13.25,5.87 -26.18,13.5 -35.21,25.09 -9.74,12.5 -12.95,27.95 -12.18,43.54 0.09,1.92 3.1,1.93 3,0 -0.75,-15.34 2.4,-30.51 12.27,-42.63 8.78,-10.78 21.11,-17.85 33.64,-23.4 1.76,-0.78 0.24,-3.37 -1.51,-2.59 v 0 z"
       id="path10" />
    <path
       class="cls-3"
       d="m 445.59,209.2 c 19.82,7.95 37.51,20.12 48.47,38.82 0.98,1.66 3.57,0.16 2.59,-1.51 -11.38,-19.42 -29.69,-31.95 -50.26,-40.2 -1.79,-0.72 -2.57,2.18 -0.8,2.89 z"
       id="path11" />
    <path
       class="cls-3"
       d="m 488.6,321.43 c -16,21.42 -45.17,29.66 -70.05,34.96 -1.89,0.4 -1.09,3.29 0.8,2.89 25.78,-5.5 55.31,-14.2 71.85,-36.34 1.16,-1.55 -1.45,-3.04 -2.59,-1.51 v 0 z"
       id="path12" />
    <path
       class="cls-3"
       d="m 446.48,405.45 c 19.32,-0.46 50.16,1.36 48.68,27.58 -0.11,1.93 2.89,1.92 3,0 1.6,-28.16 -30.58,-31.09 -51.68,-30.58 -1.93,0.05 -1.93,3.05 0,3 z"
       id="path13" />
    <path
       class="cls-3"
       d="m 493.76,445.97 c 2.12,17.32 -22.21,18.12 -34.03,18.83 -1.92,0.12 -1.93,3.12 0,3 13.51,-0.81 39.41,-2.37 37.03,-21.83 -0.23,-1.89 -3.23,-1.92 -3,0 z"
       id="path14" />
    <path
       class="cls-3"
       d="m 276.68,433.12 c 7.29,25.37 33.2,28.99 56.15,27.32 1.91,-0.14 1.93,-3.14 0,-3 -21.45,1.56 -46.36,-1.14 -53.25,-25.12 -0.53,-1.85 -3.43,-1.06 -2.89,0.8 v 0 z"
       id="path15" />
    <path
       class="cls-3"
       d="m 689.18,398.32 c 15.67,0.47 35,-1.02 45.46,-14.44 9.82,-12.6 7.43,-30.33 3.72,-44.71 -0.48,-1.87 -3.38,-1.08 -2.89,0.8 3.46,13.4 6.01,30.28 -3.19,42.09 -9.84,12.63 -28.43,13.71 -43.09,13.27 -1.93,-0.06 -1.93,2.94 0,3 v 0 z"
       id="path16" />
    <path
       class="cls-3"
       d="m 729.36,274.1 c -1.72,-8.84 -5.43,-17.55 -13.34,-22.5 -7.91,-4.95 -18.08,-4.83 -27.17,-3.36 -1.9,0.31 -1.09,3.2 0.8,2.89 8.28,-1.34 17.48,-1.57 24.85,3.06 7.37,4.63 10.41,12.67 11.97,20.71 0.37,1.89 3.26,1.09 2.89,-0.8 z"
       id="path17" />
    <path
       class="cls-3"
       d="m 617.89,215.13 c -17.01,11.5 -30.37,27.12 -37.9,46.32 -8.31,21.18 -9.13,44.46 -6.73,66.85 0.2,1.9 3.21,1.92 3,0 -2.28,-21.3 -1.67,-43.28 5.7,-63.6 7.37,-20.32 20.37,-35.43 37.45,-46.98 1.59,-1.08 0.09,-3.68 -1.51,-2.59 v 0 z"
       id="path18" />
    <path
       class="cls-3"
       d="m 737.32,455.97 c 22.66,-7.58 43.61,-20.01 58.9,-38.64 15.28,-18.62 23.72,-41.48 27.67,-65.03 0.32,-1.89 -2.57,-2.7 -2.89,-0.8 -3.86,23.01 -11.96,45.5 -26.9,63.71 -14.96,18.24 -35.38,30.44 -57.58,37.86 -1.82,0.61 -1.04,3.51 0.8,2.89 v 0 z"
       id="path19" />
    <path
       class="cls-3"
       d="m 670.71,700.2 c 12.45,1.16 41.71,3.42 38.75,-16.87 -0.28,-1.9 -3.17,-1.09 -2.89,0.8 2.5,17.16 -26.07,13.99 -35.86,13.08 -1.92,-0.18 -1.91,2.82 0,3 v 0 z"
       id="path20" />
    <path
       class="cls-3"
       d="m 750.04,550.68 c 15.16,6.03 25.36,18.19 31.56,33 0.73,1.75 3.64,0.98 2.89,-0.8 -6.65,-15.89 -17.4,-28.64 -33.65,-35.1 -1.79,-0.71 -2.57,2.19 -0.8,2.89 v 0 z"
       id="path21" />
    <path
       class="cls-3"
       d="m 821.62,729.24 c 0.5,7.49 0.1,16.25 -5.85,21.67 -5.95,5.42 -15.21,5.25 -22.78,4.37 -1.91,-0.22 -1.9,2.78 0,3 8.43,0.99 18.27,0.87 24.91,-5.24 6.64,-6.11 7.29,-15.49 6.73,-23.8 -0.13,-1.92 -3.13,-1.93 -3,0 v 0 z"
       id="path22" />
    <path
       class="cls-3"
       d="m 568.92,693.87 c -1.43,12.5 -2.76,26.43 2.06,38.4 4.37,10.87 13.88,16.43 25.15,18.03 1.89,0.27 2.7,-2.62 0.8,-2.89 -11.53,-1.64 -20.61,-7.46 -24.11,-18.94 -3.5,-11.48 -2.19,-23.29 -0.89,-34.6 0.22,-1.91 -2.78,-1.9 -3,0 v 0 z"
       id="path23" />
    <path
       class="cls-3"
       d="m 695.5,768.82 c -0.56,13.91 0.94,30.09 12.1,39.89 9.3,8.16 22.35,9.48 34.22,9.23 1.93,-0.04 1.93,-3.04 0,-3 -11.01,0.23 -23.41,-0.77 -32.1,-8.35 -10.59,-9.24 -11.75,-24.65 -11.22,-37.77 0.08,-1.93 -2.92,-1.93 -3,0 z"
       id="path24" />
    <path
       class="cls-3"
       d="m 286.75,577.71 c -7.85,13.36 -16.35,30.51 -11.68,46.42 3.63,12.35 14.84,19.48 26.16,24 1.79,0.72 2.57,-2.18 0.8,-2.89 -10.64,-4.25 -21.28,-11.07 -24.32,-22.83 -3.84,-14.87 4.34,-30.78 11.63,-43.18 0.98,-1.67 -1.61,-3.18 -2.59,-1.51 v 0 z"
       id="path25" />
    <path
       class="cls-3"
       d="m 297.19,794.01 c -8.43,-21.29 -12.14,-43.42 0.28,-64 1,-1.66 -1.59,-3.17 -2.59,-1.51 -12.82,21.24 -9.32,44.25 -0.58,66.32 0.7,1.77 3.6,1 2.89,-0.8 v 0 z"
       id="path26" />
    <path
       class="cls-3"
       d="m 451.79,743.36 c 13.82,-0.68 30.2,-0.81 42.28,7.06 10.06,6.56 12.22,17.8 10.73,29.05 -0.25,1.91 2.75,1.89 3,0 1.54,-11.61 -0.82,-23.36 -10.72,-30.61 -12.57,-9.2 -30.46,-9.23 -45.28,-8.5 -1.92,0.1 -1.93,3.1 0,3 v 0 z"
       id="path27" />
    <path
       class="cls-3"
       d="m 463.78,684.34 c 15.71,-7.69 26.66,-20.97 29.52,-38.42 3.49,-21.32 -2.98,-43.4 -10.46,-63.16 -0.68,-1.79 -3.58,-1.01 -2.89,0.8 7.16,18.9 13.53,39.99 10.64,60.43 -2.44,17.24 -12.85,30.19 -28.31,37.77 -1.73,0.85 -0.21,3.44 1.51,2.59 v 0 z"
       id="path28" />
    <path
       class="cls-3"
       d="m 299.03,803.38 c 9.69,15.12 28.32,13.49 43.99,11.65 1.89,-0.22 1.92,-3.23 0,-3 -14.36,1.69 -32.39,3.9 -41.4,-10.16 -1.04,-1.62 -3.64,-0.12 -2.59,1.51 z"
       id="path29" />
    <path
       class="cls-3"
       d="m 573.08,681.53 c 6.54,-14.23 15.85,-26.78 25.63,-38.93 1.2,-1.49 -0.91,-3.63 -2.12,-2.12 -9.94,12.35 -19.45,25.07 -26.1,39.53 -0.8,1.74 1.78,3.27 2.59,1.51 v 0 z"
       id="path30" />
  </g>
  <g
     inkscape:groupmode="layer"
     id="layer12"
     inkscape:label="silk keep out"
     style="display:inline">
    <path
       id="path65"
       style="display:inline"
       class="cls-4"
       d="m 495.67474,470.38093 c -0.55228,0.23202 -1.07689,0.48554 -1.56531,0.76688 -3.28479,1.82559 -5.16821,4.62234 -5.37781,8.41593 -0.005,0.0704 -0.008,0.14085 -0.009,0.21125 -0.0608,1.9648 0.6527,3.80968 2.1375,5.11688 0.6496,0.5728 1.40809,1.04954 2.20969,1.37594 1.1856,0.4816 2.4814,1.09607 3.795,0.95687 2.1456,-0.2272 2.97295,-2.11535 4.31375,-3.47375 0.24783,-0.25076 0.51766,-0.47416 0.79687,-0.68344 -1.22839,0.0447 -2.43629,-0.51499 -3.54718,-0.96625 -0.8016,-0.3264 -1.56009,-0.80313 -2.20969,-1.37593 -1.4848,-1.3072 -2.1983,-3.15208 -2.1375,-5.11688 0.002,-0.0704 0.005,-0.14054 0.009,-0.21094 0.10659,-1.92923 0.6482,-3.59955 1.58468,-5.01656 z m 15.99782,7.16688 c -1.9296,-0.1072 -3.78554,0.67047 -5.13594,2.03687 -0.71536,0.72475 -1.28912,1.59391 -1.99031,2.2875 0.57422,-0.12963 1.16618,-0.19155 1.76781,-0.15812 2.41001,0.13259 3.60669,0.74475 3.91156,2.04218 3.26309,-1.07872 5.35155,-1.71303 5.43094,-3.15562 0.1104,-2 -1.01767,-2.88961 -3.98406,-3.05281 z m 12.84469,14.06437 c -1.56648,0.7 -3.26764,1.23362 -5.00469,1.72125 -3.7184,1.0368 -7.61915,1.51364 -10.30875,2.67844 -0.2032,0.088 -0.405,0.179 -0.605,0.275 -0.1264,0.0608 -0.4352,0.14415 -0.44,0.31375 -0.002,0.056 0.0226,0.16326 0.0834,0.18406 0.0112,0.005 0.0254,0.005 0.0366,0.005 0.3488,0.0272 0.70085,0.0383 1.05125,0.0575 0.3904,0.0224 0.78085,0.0432 1.17125,0.0656 l 1.4625,0.0816 c 0.5536,0.0304 1.1089,0.0608 1.6625,0.0928 0.53653,0.0291 1.07284,0.0594 1.60937,0.0888 3.7044,-1.0991 7.16566,-2.5038 9.28157,-5.56344 z m -29.04219,0.2675 c -4.1634,2.36841 -7.88336,5.74013 -8.14657,10.49688 l -0.16624,3.03187 v 0.002 c -0.3888,7.0304 1.69919,8.04473 9.62718,8.48313 l 20.40782,1.12969 c 4.96565,0.2746 7.25857,-1.2499 8.01249,-4.22 -0.78739,0.0853 -1.66321,0.10823 -2.65406,0.0534 l -20.40781,-1.12968 c -7.92799,-0.4384 -10.01599,-1.45273 -9.62719,-8.48313 v -0.002 l 0.16625,-3.03187 c 0.13646,-2.46621 1.21402,-4.55411 2.78813,-6.33063 z" />
    <path
       id="path66"
       style="display:inline"
       class="cls-4"
       d="m 492.75818,528.87156 c -0.34629,0.2239 -0.67961,0.45525 -0.99125,0.69875 -2.9968,2.26719 -4.46726,5.30065 -4.14406,9.08625 0.006,0.0704 0.0129,0.14085 0.0209,0.21125 0.216,1.95359 1.18064,3.67985 2.83344,4.76625 0.72479,0.4768 1.54093,0.84321 2.38093,1.05281 1.2432,0.3104 2.61282,0.73597 3.89281,0.41437 2.0928,-0.5264 2.64647,-2.51189 3.78407,-4.04468 0.32723,-0.4412 0.70669,-0.83466 1.12062,-1.18375 -0.1329,0.0509 -0.271,0.097 -0.41843,0.13406 -1.28,0.3216 -2.64962,-0.10398 -3.89282,-0.41438 -0.84,-0.2096 -1.65582,-0.57601 -2.38062,-1.05281 -1.6528,-1.0864 -2.61775,-2.81265 -2.83375,-4.76625 -0.008,-0.0704 -0.0142,-0.14085 -0.0206,-0.21125 -0.14683,-1.71979 0.0803,-3.28259 0.64875,-4.69062 z m 18.09219,4.30562 c -0.31757,6.4e-4 -0.66063,0.0173 -1.03063,0.0491 -1.92479,0.1632 -3.65443,1.19354 -4.79843,2.73594 -0.75195,1.01317 -1.25676,2.21615 -2.11157,3.07281 0.74715,-0.38736 1.5639,-0.64147 2.42375,-0.71437 2.22043,-0.19084 3.47374,0.16852 4.03376,1.20219 3.01949,-1.49437 4.94794,-2.40875 4.82531,-3.8325 -0.1498,-1.7458 -1.11923,-2.51785 -3.34219,-2.51313 z m 14.13406,11.87281 c -1.57024,1.05059 -3.3572,1.89896 -5.18875,2.70407 -3.53599,1.5488 -7.33107,2.56821 -9.83187,4.09781 -0.1888,0.1152 -0.376,0.23336 -0.56,0.35656 -0.1168,0.0784 -0.40979,0.20321 -0.39219,0.37281 0.006,0.056 0.0448,0.15845 0.10719,0.17125 0.0128,0.003 0.0256,0 0.0384,0 0.35039,-0.0224 0.69928,-0.0608 1.04968,-0.0912 0.3888,-0.0336 0.77933,-0.067 1.16813,-0.10062 l 1.45906,-0.125 c 0.5536,-0.048 1.10577,-0.0942 1.65937,-0.14219 0.5888,-0.0512 1.17742,-0.10099 1.76782,-0.15219 0.23743,-0.0206 0.47852,-0.041 0.71812,-0.0616 3.43576,-1.62753 6.51614,-3.59125 8.005,-7.02969 z m -29.69406,5.43875 c -3.45855,2.85203 -6.23614,6.5178 -5.85625,10.95344 l 0.26094,3.02563 v -0.005 c 0.6016,7.01599 2.81117,7.72777 10.72156,7.04937 l 20.36469,-1.74406 c 5.10602,-0.43758 7.13622,-2.36698 7.36843,-5.5825 -0.82716,0.23018 -1.78271,0.39393 -2.88187,0.48813 l -20.365,1.74406 c -7.91039,0.6784 -10.11996,-0.0337 -10.72156,-7.04969 v 0.005 l -0.26063,-3.02562 c -0.18266,-2.13285 0.36806,-4.08665 1.36969,-5.85907 z" />
    <path
       id="path67"
       style="display:inline"
       class="cls-4"
       d="m 540.93725,474.47343 c -4.48802,4.2284 -6.50779,10.46003 -5.63907,17.90781 l 0.47844,4.11688 v -0.002 c 1.5104,12.96319 10.4255,20.2656 24.00469,18.68 8.5671,-0.99936 14.5099,-5.04933 17.33,-11.18188 -3.22469,3.02739 -7.72591,5.0118 -13.36844,5.67 -13.57919,1.5856 -22.49429,-5.71681 -24.00469,-18.68 v 0.002 l -0.47844,-4.11687 c -0.54547,-4.6765 0.0509,-8.87198 1.67751,-12.39594 z m 19.51093,1.88563 c -0.18877,0.007 -0.38391,0.0226 -0.58531,0.0462 -3.02837,0.35314 -4.21981,1.91082 -4.04,5.52406 0.027,-0.003 0.0512,-0.009 0.0784,-0.0119 3.22239,-0.3776 4.81116,1.31679 5.32156,5.70718 l 0.87375,7.475 c 0.0491,0.42242 0.0774,0.8164 0.0944,1.19532 3.21472,-0.38062 4.36907,-2.39331 3.86719,-6.70719 l -0.87375,-7.47531 c -0.4785,-4.116 -1.90466,-5.86234 -4.73625,-5.75344 z" />
    <path
       id="path68"
       style="display:inline"
       class="cls-4"
       d="m 550.94756,525.71281 c -1.71512,0.66094 -2.90519,1.83904 -4.15188,3.79812 l -9.68781,14.97938 c -1.9056,2.92959 -2.56321,4.68451 -2.77281,7.02531 l -0.12344,2.06906 c -0.2368,3.8608 2.83526,6.81114 8.21125,7.13594 l 12.61281,0.76156 -0.0975,1.65438 -0.003,-0.003 c -0.3088,5.10079 1.66553,7.91683 6.28313,8.19843 l 1.3775,0.0831 c 3.92267,0.23618 6.26379,-1.4605 7.13875,-4.9225 -0.70626,0.13011 -1.48367,0.17398 -2.33875,0.1225 l -1.3775,-0.0831 c -4.6176,-0.2816 -6.59193,-3.09764 -6.28313,-8.19843 l 0.003,0.003 0.0975,-1.65438 -12.61281,-0.76156 c -5.37599,-0.3248 -8.44805,-3.27514 -8.21125,-7.13594 l 0.12344,-2.06906 c 0.2096,-2.3408 0.86721,-4.09572 2.77281,-7.02531 z m 10.90781,5.93843 c -0.1384,-0.032 -0.38453,0.21572 -0.77812,0.84532 l -3.97063,6.13375 -0.38031,6.31375 3.35094,0.20218 c 0.78239,0.0464 1.16168,-0.32158 1.20968,-1.02718 l 0.70094,-11.63532 c 0.0368,-0.4888 0.006,-0.8005 -0.1325,-0.8325 z m 15.94625,25.94657 c -0.75915,0.069 -1.62175,0.07 -2.59937,0.0106 l -0.205,-0.009 -0.0991,1.65125 c -0.066,1.09106 -0.23561,2.05772 -0.49812,2.9125 2.11611,-0.56006 3.11257,-1.97607 3.40156,-4.565 z" />
  </g>
  <g
     inkscape:groupmode="layer"
     id="layer13"
     inkscape:label="silk"
     style="display:inline">
    <path
       id="path63"
       style="display:inline"
       class="cls-1"
       d="m 562.00631,463.02562 c -1.18348,-0.006 -2.40966,0.0641 -3.67625,0.21187 -13.51195,1.5744 -20.56631,10.80633 -19.07032,23.63188 l 0.47844,4.11687 v -0.002 c 1.5104,12.96315 10.42555,20.2656 24.00469,18.68 13.51035,-1.57599 20.50571,-10.73126 18.99531,-23.69281 l -0.47844,-4.11687 c -1.36444,-11.68257 -8.81317,-18.77516 -20.25343,-18.82934 z m -13.49063,5.94312 c 0.18946,0.0144 0.3092,0.31554 0.1025,0.45594 -2.73279,1.84799 -4.81268,4.26538 -5.99187,7.51656 -1.1792,3.25119 -1.27699,6.76827 -0.91219,10.17625 0.0336,0.3072 -0.448,0.304 -0.48,0 -0.384,-3.58238 -0.25272,-7.30746 1.07687,-10.69625 1.2048,-3.07198 3.34248,-5.57094 6.06407,-7.41093 h 0.002 c 0.048,-0.0327 0.0953,-0.0449 0.13906,-0.0416 z m 12.89375,5.19688 c 0.94303,0.007 1.87526,0.18469 2.66625,0.67969 1.2656,0.79199 1.85918,2.1856 2.13438,3.6 0.0592,0.3024 -0.40299,0.43052 -0.46219,0.12812 -0.2496,-1.28639 -0.73612,-2.57295 -1.91531,-3.31375 -1.1792,-0.74079 -2.65115,-0.70377 -3.97594,-0.48937 -0.3024,0.0496 -0.43213,-0.4129 -0.12813,-0.4625 0.5454,-0.0882 1.11512,-0.14613 1.68094,-0.14219 z m -0.96125,2.19344 c 2.83159,-0.10891 4.25775,1.63745 4.73625,5.75343 l 0.87375,7.47532 c 0.5024,4.31838 -0.65449,6.33115 -3.87687,6.70875 -3.29279,0.384 -4.8721,-1.23989 -5.3825,-5.63188 l -0.87188,-7.47375 c -0.52959,-4.52639 0.57435,-6.39362 3.93594,-6.78562 0.2014,-0.0236 0.39654,-0.039 0.58531,-0.0462 z m 7.00125,12.32718 c 0.0887,0.006 0.17183,0.0581 0.20063,0.17032 0.59359,2.30079 0.9762,5.13775 -0.595,7.15375 -1.6736,2.14719 -4.76656,2.38551 -7.27375,2.31031 l 0.002,0.002 c -0.3088,-0.01 -0.3088,-0.4896 0,-0.48 2.34559,0.0704 5.31998,-0.10233 6.89437,-2.12313 1.472,-1.88959 1.06423,-4.59038 0.51063,-6.73437 -0.049,-0.188 0.11376,-0.30802 0.26156,-0.29844 z m 13.60531,1.97032 c 0.14347,-0.01 0.31232,0.11193 0.28032,0.30093 -0.632,3.768 -1.98239,7.42549 -4.42719,10.40469 -2.4464,2.9808 -5.79847,4.9697 -9.42406,6.1825 v -0.002 c -0.2944,0.0992 -0.41933,-0.3649 -0.12813,-0.4625 3.552,-1.1872 6.81922,-3.1391 9.21281,-6.0575 2.3904,-2.91356 3.68647,-6.51211 4.30407,-10.19371 0.0192,-0.114 0.0961,-0.16701 0.18218,-0.17281 z" />
    <path
       id="path61"
       style="display:inline"
       class="cls-1"
       d="m 511.26006,464.57093 c -4.92587,-0.0453 -8.9194,0.75553 -11.79219,2.41031 -3.28478,1.82559 -5.16822,4.62268 -5.37781,8.41625 -0.005,0.0704 -0.008,0.14054 -0.009,0.21094 -0.0608,1.96479 0.65271,3.80969 2.1375,5.11688 0.64959,0.5728 1.4081,1.04953 2.20969,1.37593 1.1856,0.4816 2.48141,1.09608 3.795,0.95688 2.14559,-0.2272 2.97296,-2.11505 4.31375,-3.47344 1.35039,-1.36639 3.20635,-2.14406 5.13594,-2.03687 2.96637,0.1632 4.09446,1.05282 3.98406,3.05281 -0.1024,1.86079 -3.52321,2.36628 -8.53437,4.23187 -5.79197,2.16799 -14.03852,6.20666 -14.43532,13.37782 l -0.16625,3.03187 v 0.002 c -0.3888,7.03036 1.69925,8.04473 9.62719,8.48313 l 20.40781,1.12968 c 5.93116,0.328 8.05766,-1.90237 8.29125,-6.10875 l 0.0287,-0.55031 c 0.216,-3.92796 -1.72955,-6.25145 -7.59031,-6.57625 l -0.0656,-0.003 -0.51531,-0.0288 c -0.3168,-0.0176 -0.63507,-0.0352 -0.95187,-0.0528 l -1.2975,-0.0719 -1.55219,-0.0866 c -0.57279,-0.0304 -1.14377,-0.0624 -1.71656,-0.0944 -0.5952,-0.0336 -1.19228,-0.0655 -1.78906,-0.0991 -0.5904,-0.032 -1.18055,-0.0658 -1.77094,-0.0978 -0.5536,-0.032 -1.1089,-0.0624 -1.6625,-0.0928 l -1.4625,-0.0816 c -0.3904,-0.0224 -0.78086,-0.0432 -1.17125,-0.0656 -0.3504,-0.0192 -0.70245,-0.0303 -1.05125,-0.0575 -0.0112,0 -0.0254,1.1e-4 -0.0366,-0.005 -0.0608,-0.0208 -0.085,-0.12806 -0.0834,-0.18406 0.005,-0.1696 0.3136,-0.25296 0.44,-0.31375 0.2,-0.096 0.4018,-0.187 0.605,-0.275 2.68959,-1.16479 6.59037,-1.64165 10.30875,-2.67844 6.18395,-1.73598 11.97766,-3.97302 12.46406,-12.72656 0.5152,-9.37594 -5.86244,-15.2639 -18.54875,-15.96469 -0.74119,-0.041 -1.46412,-0.0648 -2.16781,-0.0712 z m -7.95563,2.245 c 0.23028,-0.003 0.38578,0.3283 0.13938,0.4375 -2.00478,0.888 -3.97771,2.01927 -5.3825,3.74406 -1.57919,1.93919 -2.08313,4.36624 -1.96313,6.82063 0.016,0.3088 -0.4656,0.3072 -0.48,0 -0.1232,-2.49439 0.39036,-4.96626 1.94875,-6.96625 1.44479,-1.85438 3.51376,-3.07518 5.63375,-4.01438 l 0.002,0.002 c 0.035,-0.0156 0.0693,-0.0227 0.10219,-0.0231 z m 17.53125,0.76531 c 0.0303,-0.002 0.0636,0.003 0.0994,0.0178 3.29118,1.31999 6.22077,3.32469 8.04156,6.43187 0.1568,0.26719 -0.25757,0.50716 -0.41437,0.24156 -1.7536,-2.99198 -4.58414,-4.93926 -7.75532,-6.21125 -0.24779,-0.0994 -0.18313,-0.46681 0.0288,-0.48 z m -15.63843,10.55469 c 0.17062,0.008 0.32281,0.24293 0.17281,0.41813 -1.0064,1.1744 -2.23675,2.3665 -3.78875,2.7425 -1.3248,0.32 -2.57422,-0.10569 -3.64782,-0.88969 -0.248,-0.1808 -0.008,-0.59678 0.24157,-0.41438 1.0352,0.7568 2.21752,1.16323 3.48312,0.78563 1.3824,-0.4128 2.46082,-1.49913 3.37281,-2.56313 0.0504,-0.0588 0.10938,-0.0816 0.16626,-0.0791 z m 22.70718,7.78 c 0.17018,0.008 0.3276,0.17325 0.2,0.34375 -2.64638,3.54238 -7.37116,4.93438 -11.49594,5.81438 -0.3024,0.064 -0.43021,-0.39819 -0.12781,-0.46219 3.98079,-0.84799 8.64783,-2.16657 11.20781,-5.59375 h 0.002 c 0.057,-0.0765 0.13703,-0.10561 0.21438,-0.10219 z m -6.30312,13.0575 c 3.34645,8e-4 7.85687,0.67664 7.61687,4.90063 -0.0176,0.30719 -0.4976,0.30879 -0.48,0 0.2368,-4.19519 -4.69756,-4.48642 -7.78875,-4.41282 -0.3088,0.008 -0.3088,-0.472 0,-0.48 0.211,-0.005 0.42878,-0.008 0.65188,-0.008 z m -27.56219,4.61906 c 0.0894,0.005 0.17445,0.0571 0.20625,0.16813 1.10239,3.83679 5.08801,4.26866 8.52,4.01906 0.3088,-0.0224 0.3056,0.4576 0,0.48 -3.67199,0.2672 -7.81767,-0.31206 -8.98406,-4.37125 h 0.002 c -0.054,-0.186 0.1072,-0.30501 0.25625,-0.29594 z m 34.6875,2.12344 c 0.12,6.4e-4 0.2491,0.0775 0.2675,0.22875 0.3808,3.11359 -3.76309,3.36321 -5.92469,3.49281 -0.3088,0.0192 -0.3072,-0.4608 0,-0.48 1.8912,-0.1136 5.78389,-0.24161 5.44469,-3.01281 -0.0184,-0.1536 0.0925,-0.22935 0.2125,-0.22875 z" />
    <path
       id="path64"
       style="display:inline"
       class="cls-1"
       d="m 561.14225,520.19437 c -5.27001,-0.0179 -7.30798,0.99878 -9.54657,4.51656 l -9.68781,14.97938 c -1.90558,2.92958 -2.56321,4.68453 -2.77281,7.02531 l -0.12344,2.06906 c -0.2368,3.86078 2.83529,6.81114 8.21125,7.13594 l 12.61281,0.76156 -0.0975,1.65438 -0.003,-0.003 c -0.30879,5.10077 1.66556,7.91684 6.28313,8.19843 l 1.3775,0.0831 c 4.75677,0.28639 7.1937,-2.26232 7.5025,-7.36469 l 0.0991,-1.65125 0.205,0.009 c 5.23996,0.3184 7.19183,-1.08789 7.46063,-5.49906 l 0.0194,-0.34407 c 0.2464,-4.06558 -1.52159,-5.69449 -6.76156,-6.00969 l -0.20656,-0.0125 0.83218,-13.78406 c 0.50399,-8.33756 -2.85932,-11.10101 -11.19687,-11.605 -1.60259,-0.0963 -2.99104,-0.15555 -4.20719,-0.15969 z m 8.40531,2.0225 c 0.0303,-0.002 0.0636,0.003 0.0994,0.0172 2.6,1.03359 4.32007,3.07386 5.38406,5.61625 0.12,0.2848 -0.3457,0.40781 -0.4625,0.12781 -0.99199,-2.3696 -2.62409,-4.31521 -5.04968,-5.28 v -0.002 c -0.2478,-0.098 -0.18313,-0.46545 0.0287,-0.47969 z m -7.69219,9.43437 c 0.1384,0.032 0.1693,0.34371 0.1325,0.8325 l -0.70094,11.63532 c -0.048,0.70559 -0.42729,1.07358 -1.20968,1.02718 l -5.72938,-0.34562 c -0.55039,-0.04 -0.86885,-0.75685 -0.45125,-1.21125 l 7.18063,-11.09281 c 0.39359,-0.62959 0.63972,-0.87732 0.77812,-0.84532 z m -16.72688,5.3325 c 0.16763,0.006 0.32182,0.24277 0.17782,0.42157 -1.56479,1.94399 -3.05455,3.95196 -4.10094,6.22875 v -0.002 c -0.1296,0.2816 -0.54237,0.0368 -0.41438,-0.24156 1.064,-2.3136 2.58555,-4.3487 4.17594,-6.32469 0.0484,-0.0604 0.10569,-0.0843 0.16156,-0.0825 z m 17.72,6.76563 c 0.0855,0.006 0.16102,0.0588 0.17782,0.17281 0.47359,3.24639 -4.20801,2.88466 -6.2,2.69906 v 0.002 c -0.3056,-0.0288 -0.3072,-0.5088 0,-0.48 1.56639,0.1456 6.1375,0.65277 5.7375,-2.09282 -0.028,-0.189 0.14222,-0.31061 0.28468,-0.30093 z m -22.04062,1.63062 c 0.12,-1.6e-4 0.23104,0.0756 0.21344,0.22844 -0.208,1.80959 -0.4175,3.69946 0.1425,5.53625 0.56,1.83679 2.01271,2.76791 3.8575,3.03031 0.304,0.0432 0.17458,0.5057 -0.12782,0.4625 -1.80319,-0.256 -3.32487,-1.1458 -4.02406,-2.885 -0.7712,-1.91519 -0.55849,-4.14407 -0.32969,-6.14406 h 0.002 c 0.0176,-0.152 0.14657,-0.22824 0.26657,-0.22844 z m 40.39,5.65688 c 0.12,1.6e-4 0.24522,0.0773 0.25562,0.23094 0.0896,1.3296 -0.0145,2.83021 -1.07687,3.80781 -1.0624,0.9776 -2.63683,0.99684 -3.98563,0.83844 -0.30399,-0.0352 -0.30559,-0.5152 0,-0.48 1.2112,0.1408 2.69269,0.16813 3.64469,-0.69907 0.952,-0.8672 1.01594,-2.26878 0.93594,-3.46718 h 0.002 c -0.0104,-0.1544 0.10438,-0.23114 0.22438,-0.23094 z m -20.15562,6.33219 c 0.12,0 0.23671,0.0772 0.23031,0.23156 -0.0848,2.0992 0.10091,4.56473 1.79531,6.04312 1.3904,1.2128 3.37434,1.37274 5.13594,1.33594 0.3088,-0.006 0.3088,0.4736 0,0.48 -1.8992,0.04 -3.98732,-0.17096 -5.47532,-1.47656 -1.78559,-1.568 -2.02553,-4.1569 -1.93593,-6.3825 0.006,-0.1544 0.12969,-0.23156 0.24969,-0.23156 z" />
    <path
       id="path62"
       style="display:inline"
       class="cls-1"
       d="m 513.16193,520.05437 c -1.08911,-0.003 -2.22726,0.0461 -3.41406,0.14781 -5.91837,0.50559 -10.50879,1.94065 -13.49438,4.27344 -2.99678,2.26719 -4.46726,5.30098 -4.14406,9.08656 0.006,0.0704 0.0126,0.14085 0.0206,0.21125 0.21599,1.95359 1.18095,3.67986 2.83375,4.76625 0.7248,0.4768 1.54062,0.84321 2.38062,1.05281 1.24319,0.3104 2.61282,0.73597 3.89282,0.41438 2.09278,-0.5264 2.64646,-2.5119 3.78406,-4.04469 1.14399,-1.54239 2.87364,-2.57274 4.79843,-2.73594 2.95999,-0.2544 4.20162,0.46887 4.37282,2.46407 0.16,1.85759 -3.15516,2.8384 -7.85594,5.38718 -5.43038,2.95839 -13.02873,8.11516 -12.41594,15.27032 l 0.26063,3.02562 v -0.005 c 0.60159,7.01597 2.8112,7.72808 10.72156,7.04969 l 20.365,-1.74407 c 5.91838,-0.5072 7.71027,-3.01416 7.35187,-7.21094 l -0.0481,-0.54906 c -0.336,-3.91999 -2.58859,-5.94862 -8.43656,-5.44782 l -0.0656,0.005 c -0.1712,0.016 -0.34255,0.0303 -0.51375,0.0447 l -0.95031,0.0819 -1.29594,0.11032 c -0.5152,0.0448 -1.03195,0.088 -1.54875,0.13281 -0.5712,0.0496 -1.14255,0.0976 -1.71375,0.14719 -0.59519,0.0512 -1.19523,0.10223 -1.78562,0.15343 -0.5904,0.0512 -1.17902,0.10099 -1.76782,0.15219 -0.5536,0.048 -1.10578,0.0942 -1.65937,0.14219 l -1.45906,0.125 c -0.3888,0.0336 -0.77933,0.067 -1.16813,0.10062 -0.35039,0.0304 -0.69929,0.0688 -1.04968,0.0912 -0.0128,0 -0.0256,0.003 -0.0384,0 -0.0624,-0.0128 -0.10079,-0.11525 -0.10719,-0.17125 -0.0176,-0.1696 0.27539,-0.29441 0.39219,-0.37281 0.184,-0.1232 0.3712,-0.24136 0.56,-0.35656 2.50079,-1.52959 6.29589,-2.54902 9.83187,-4.09781 5.87837,-2.584 11.30091,-5.61284 10.55531,-14.34719 -0.72789,-8.47811 -6.66093,-13.32554 -17.18906,-13.3525 z m -17.57219,6.85406 c 0.16285,0.002 0.32499,0.17411 0.21719,0.35781 -1.16639,1.984 -2.47502,4.52956 -1.86062,6.90875 0.48639,1.88159 2.18854,2.97282 3.89094,3.65282 0.2832,0.1136 0.15858,0.5777 -0.12782,0.4625 -1.81119,-0.7232 -3.60482,-1.86401 -4.18562,-3.84 -0.7472,-2.54559 0.61276,-5.28961 1.86875,-7.42719 v 0.002 c 0.049,-0.0835 0.12317,-0.11738 0.19718,-0.11625 z m 30.95407,0.76094 c 0.0917,0.005 0.18232,0.0542 0.22312,0.16156 1.1968,3.16159 2.23215,6.69444 1.67375,10.10563 -0.4576,2.79198 -2.20985,4.91679 -4.72343,6.14718 l 0.002,0.002 c -0.2752,0.136 -0.51837,-0.27838 -0.24157,-0.41437 2.47359,-1.2128 4.1393,-3.28473 4.52969,-6.04313 0.4624,-3.27038 -0.55691,-6.64476 -1.7025,-9.66875 -0.069,-0.181 0.0866,-0.29759 0.23938,-0.28968 z m -29.65125,23.365 c 0.16366,0.003 0.32531,0.17396 0.21531,0.35656 -1.98719,3.29279 -1.3938,6.83361 -0.045,10.24 v 0.002 c 0.1136,0.288 -0.35019,0.41133 -0.46219,0.12813 -1.39839,-3.53119 -1.95838,-7.21286 0.0928,-10.61125 0.05,-0.083 0.12467,-0.11632 0.19907,-0.115 z m 26.28469,1.96875 c 2.03791,-0.0194 4.23402,0.20775 5.86812,1.40375 1.584,1.16 1.96171,3.04021 1.71531,4.89781 -0.04,0.3024 -0.52,0.3056 -0.48,0 0.2384,-1.8 -0.10727,-3.59852 -1.71687,-4.64812 -1.93227,-1.25885 -4.55232,-1.23841 -6.76313,-1.12969 -0.3088,0.016 -0.3072,-0.464 0,-0.48 0.4446,-0.0219 0.90628,-0.0393 1.37657,-0.0438 z m -25.60907,9.77406 c 0.0753,-0.002 0.15144,0.0302 0.20344,0.11125 1.4416,2.2496 4.32647,1.89603 6.62406,1.62563 0.3072,-0.0368 0.3024,0.4448 0,0.48 -2.50719,0.2944 -5.48804,0.55544 -7.03843,-1.86375 -0.11551,-0.1793 0.0452,-0.34895 0.21093,-0.35313 z" />
  </g>
  <g
     inkscape:groupmode="layer"
     id="layer14"
     inkscape:label="metal"
     style="display:inline">
    <path
       class="cls-3"
       d="m 497.93336,480.40697 c 1.0736,0.784 2.3232,1.2096 3.648,0.8896 1.552,-0.376 2.7824,-1.568 3.7888,-2.7424 0.2,-0.2336 -0.1376,-0.5744 -0.3392,-0.3392 -0.912,1.064 -1.9904,2.1504 -3.3728,2.5632 -1.2656,0.3776 -2.448,-0.0288 -3.4832,-0.7856 -0.2496,-0.1824 -0.4896,0.2336 -0.2416,0.4144 z"
       id="path35"
       style="display:inline;fill:#ff0fff;fill-opacity:1" />
    <path
       class="cls-3"
       d="m 503.20056,466.83737 c -2.12,0.9392 -4.1888,2.16 -5.6336,4.0144 -1.5584,2 -2.072,4.472 -1.9488,6.9664 0.0144,0.3072 0.496,0.3088 0.48,0 -0.12,-2.4544 0.384,-4.8816 1.9632,-6.8208 1.4048,-1.7248 3.3776,-2.856 5.3824,-3.744 0.2816,-0.1248 0.0384,-0.5392 -0.2416,-0.4144 v 0 z"
       id="path36"
       style="display:inline;fill:#ff0fff;fill-opacity:1" />
    <path
       class="cls-3"
       d="m 520.80696,468.06137 c 3.1712,1.272 6.0016,3.2192 7.7552,6.2112 0.1568,0.2656 0.5712,0.0256 0.4144,-0.2416 -1.8208,-3.1072 -4.7504,-5.112 -8.0416,-6.432 -0.2864,-0.1152 -0.4112,0.3488 -0.128,0.4624 z"
       id="path37"
       style="display:inline;fill:#ff0fff;fill-opacity:1" />
    <path
       class="cls-3"
       d="m 527.68856,486.01817 c -2.56,3.4272 -7.2272,4.7456 -11.208,5.5936 -0.3024,0.064 -0.1744,0.5264 0.128,0.4624 4.1248,-0.88 8.8496,-2.272 11.496,-5.8144 0.1856,-0.248 -0.232,-0.4864 -0.4144,-0.2416 v 0 z"
       id="path38"
       style="display:inline;fill:#ff0fff;fill-opacity:1" />
    <path
       class="cls-3"
       d="m 520.94936,499.46137 c 3.0912,-0.0736 8.0256,0.2176 7.7888,4.4128 -0.0176,0.3088 0.4624,0.3072 0.48,0 0.256,-4.5056 -4.8928,-4.9744 -8.2688,-4.8928 -0.3088,0.008 -0.3088,0.488 0,0.48 z"
       id="path39"
       style="display:inline;fill:#ff0fff;fill-opacity:1" />
    <path
       class="cls-3"
       d="m 528.51416,505.94457 c 0.3392,2.7712 -3.5536,2.8992 -5.4448,3.0128 -0.3072,0.0192 -0.3088,0.4992 0,0.48 2.1616,-0.1296 6.3056,-0.3792 5.9248,-3.4928 -0.0368,-0.3024 -0.5168,-0.3072 -0.48,0 z"
       id="path40"
       style="display:inline;fill:#ff0fff;fill-opacity:1" />
    <path
       class="cls-3"
       d="m 493.78136,503.88857 c 1.1664,4.0592 5.312,4.6384 8.984,4.3712 0.3056,-0.0224 0.3088,-0.5024 0,-0.48 -3.432,0.2496 -7.4176,-0.1824 -8.52,-4.0192 -0.0848,-0.296 -0.5488,-0.1696 -0.4624,0.128 v 0 z"
       id="path41"
       style="display:inline;fill:#ff0fff;fill-opacity:1" />
    <path
       class="cls-3"
       d="m 559.78136,498.32057 c 2.5072,0.0752 5.6,-0.1632 7.2736,-2.3104 1.5712,-2.016 1.1888,-4.8528 0.5952,-7.1536 -0.0768,-0.2992 -0.5408,-0.1728 -0.4624,0.128 0.5536,2.144 0.9616,4.8448 -0.5104,6.7344 -1.5744,2.0208 -4.5488,2.1936 -6.8944,2.1232 -0.3088,-0.01 -0.3088,0.4704 0,0.48 v 0 z"
       id="path42"
       style="display:inline;fill:#ff0fff;fill-opacity:1" />
    <path
       class="cls-3"
       d="m 566.21016,478.44537 c -0.2752,-1.4144 -0.8688,-2.808 -2.1344,-3.6 -1.2656,-0.792 -2.8928,-0.7728 -4.3472,-0.5376 -0.304,0.0496 -0.1744,0.512 0.128,0.4624 1.3248,-0.2144 2.7968,-0.2512 3.976,0.4896 1.1792,0.7408 1.6656,2.0272 1.9152,3.3136 0.0592,0.3024 0.5216,0.1744 0.4624,-0.128 z"
       id="path43"
       style="display:inline;fill:#ff0fff;fill-opacity:1" />
    <path
       class="cls-3"
       d="m 548.37496,469.01017 c -2.7216,1.84 -4.8592,4.3392 -6.064,7.4112 -1.3296,3.3888 -1.4608,7.1136 -1.0768,10.696 0.032,0.304 0.5136,0.3072 0.48,0 -0.3648,-3.408 -0.2672,-6.9248 0.912,-10.176 1.1792,-3.2512 3.2592,-5.6688 5.992,-7.5168 0.2544,-0.1728 0.0144,-0.5888 -0.2416,-0.4144 v 0 z"
       id="path44"
       style="display:inline;fill:#ff0fff;fill-opacity:1" />
    <path
       class="cls-3"
       d="m 567.48376,507.54457 c 3.6256,-1.2128 6.9776,-3.2016 9.424,-6.1824 2.4448,-2.9792 3.7952,-6.6368 4.4272,-10.4048 0.0512,-0.3024 -0.4112,-0.432 -0.4624,-0.128 -0.6176,3.6816 -1.9136,7.28 -4.304,10.1936 -2.3936,2.9184 -5.6608,4.8704 -9.2128,6.0576 -0.2912,0.0976 -0.1664,0.5616 0.128,0.4624 v 0 z"
       id="path45"
       style="display:inline;fill:#ff0fff;fill-opacity:1" />
    <path
       class="cls-3"
       d="m 556.82616,546.62137 c 1.992,0.1856 6.6736,0.5472 6.2,-2.6992 -0.0448,-0.304 -0.5072,-0.1744 -0.4624,0.128 0.4,2.7456 -4.1712,2.2384 -5.7376,2.0928 -0.3072,-0.0288 -0.3056,0.4512 0,0.48 v 0 z"
       id="path46"
       style="display:inline;fill:#ff0fff;fill-opacity:1" />
    <path
       class="cls-3"
       d="m 569.51896,522.69817 c 2.4256,0.9648 4.0576,2.9104 5.0496,5.28 0.1168,0.28 0.5824,0.1568 0.4624,-0.128 -1.064,-2.5424 -2.784,-4.5824 -5.384,-5.616 -0.2864,-0.1136 -0.4112,0.3504 -0.128,0.4624 v 0 z"
       id="path47"
       style="display:inline;fill:#ff0fff;fill-opacity:1" />
    <path
       class="cls-3"
       d="m 580.97176,551.26777 c 0.08,1.1984 0.016,2.6 -0.936,3.4672 -0.952,0.8672 -2.4336,0.84 -3.6448,0.6992 -0.3056,-0.0352 -0.304,0.4448 0,0.48 1.3488,0.1584 2.9232,0.1392 3.9856,-0.8384 1.0624,-0.9776 1.1664,-2.4784 1.0768,-3.808 -0.0208,-0.3072 -0.5008,-0.3088 -0.48,0 v 0 z"
       id="path48"
       style="display:inline;fill:#ff0fff;fill-opacity:1" />
    <path
       class="cls-3"
       d="m 540.53976,545.60857 c -0.2288,2 -0.4416,4.2288 0.3296,6.144 0.6992,1.7392 2.2208,2.6288 4.024,2.8848 0.3024,0.0432 0.432,-0.4192 0.128,-0.4624 -1.8448,-0.2624 -3.2976,-1.1936 -3.8576,-3.0304 -0.56,-1.8368 -0.3504,-3.7264 -0.1424,-5.536 0.0352,-0.3056 -0.4448,-0.304 -0.48,0 v 0 z"
       id="path49"
       style="display:inline;fill:#ff0fff;fill-opacity:1" />
    <path
       class="cls-3"
       d="m 560.79256,557.60057 c -0.0896,2.2256 0.1504,4.8144 1.936,6.3824 1.488,1.3056 3.576,1.5168 5.4752,1.4768 0.3088,-0.006 0.3088,-0.4864 0,-0.48 -1.7616,0.0368 -3.7456,-0.1232 -5.136,-1.336 -1.6944,-1.4784 -1.88,-3.944 -1.7952,-6.0432 0.0128,-0.3088 -0.4672,-0.3088 -0.48,0 z"
       id="path50"
       style="display:inline;fill:#ff0fff;fill-opacity:1" />
    <path
       class="cls-3"
       d="m 495.39256,527.02297 c -1.256,2.1376 -2.616,4.8816 -1.8688,7.4272 0.5808,1.976 2.3744,3.1168 4.1856,3.84 0.2864,0.1152 0.4112,-0.3488 0.128,-0.4624 -1.7024,-0.68 -3.4048,-1.7712 -3.8912,-3.6528 -0.6144,-2.3792 0.6944,-4.9248 1.8608,-6.9088 0.1568,-0.2672 -0.2576,-0.5088 -0.4144,-0.2416 v 0 z"
       id="path51"
       style="display:inline;fill:#ff0fff;fill-opacity:1" />
    <path
       class="cls-3"
       d="m 497.06296,561.63097 c -1.3488,-3.4064 -1.9424,-6.9472 0.0448,-10.24 0.16,-0.2656 -0.2544,-0.5072 -0.4144,-0.2416 -2.0512,3.3984 -1.4912,7.08 -0.0928,10.6112 0.112,0.2832 0.576,0.16 0.4624,-0.128 v 0 z"
       id="path52"
       style="display:inline;fill:#ff0fff;fill-opacity:1" />
    <path
       class="cls-3"
       d="m 521.79896,553.52697 c 2.2112,-0.1088 4.832,-0.1296 6.7648,1.1296 1.6096,1.0496 1.9552,2.848 1.7168,4.648 -0.04,0.3056 0.44,0.3024 0.48,0 0.2464,-1.8576 -0.1312,-3.7376 -1.7152,-4.8976 -2.0112,-1.472 -4.8736,-1.4768 -7.2448,-1.36 -0.3072,0.016 -0.3088,0.496 0,0.48 v 0 z"
       id="path53"
       style="display:inline;fill:#ff0fff;fill-opacity:1" />
    <path
       class="cls-3"
       d="m 523.71736,544.08377 c 2.5136,-1.2304 4.2656,-3.3552 4.7232,-6.1472 0.5584,-3.4112 -0.4768,-6.944 -1.6736,-10.1056 -0.1088,-0.2864 -0.5728,-0.1616 -0.4624,0.128 1.1456,3.024 2.1648,6.3984 1.7024,9.6688 -0.3904,2.7584 -2.056,4.8304 -4.5296,6.0432 -0.2768,0.136 -0.0336,0.5504 0.2416,0.4144 v 0 z"
       id="path54"
       style="display:inline;fill:#ff0fff;fill-opacity:1" />
    <path
       class="cls-3"
       d="m 497.35736,563.13017 c 1.5504,2.4192 4.5312,2.1584 7.0384,1.864 0.3024,-0.0352 0.3072,-0.5168 0,-0.48 -2.2976,0.2704 -5.1824,0.624 -6.624,-1.6256 -0.1664,-0.2592 -0.5824,-0.0192 -0.4144,0.2416 z"
       id="path55"
       style="display:inline;fill:#ff0fff;fill-opacity:1" />
    <path
       class="cls-3"
       d="m 541.20536,543.63417 c 1.0464,-2.2768 2.536,-4.2848 4.1008,-6.2288 0.192,-0.2384 -0.1456,-0.5808 -0.3392,-0.3392 -1.5904,1.976 -3.112,4.0112 -4.176,6.3248 -0.128,0.2784 0.2848,0.5232 0.4144,0.2416 v 0 z"
       id="path56"
       style="display:inline;fill:#ff0fff;fill-opacity:1" />
  </g>
</svg>
