999
"DXF R12 Output" (www.mydxf.blogspot.com)
 0 
SECTION
 2 
HEADER
 9 
$ACADVER
 1 
AC1009
 9 
$EXTMIN
 10 
 0 
 20 
 0 
 9 
$EXTMAX
 10 
 8.5 
 20 
 11 
 0 
ENDSEC
 0 
SECTION
 2 
ENTITIES
0
LINE
8
Tornado
10
95.222888
20
48.836974
11
95.884793
21
49.799085
0
LINE
8
Tornado
10
95.884793
20
49.799085
11
96.155749
21
50.905667
0
LINE
8
Tornado
10
96.155749
20
50.905667
11
96.061290
21
52.053031
0
LINE
8
Tornado
10
96.061290
20
52.053031
11
95.626948
21
53.137483
0
LINE
8
Tornado
10
95.626948
20
53.137483
11
94.878257
21
54.055334
0
LINE
8
Tornado
10
94.878257
20
54.055334
11
93.840751
21
54.702891
0
LINE
8
Tornado
10
93.840751
20
54.702891
11
92.539962
21
54.976465
0
LINE
8
Tornado
10
92.539962
20
54.976465
11
91.001425
21
54.772363
0
LINE
8
Tornado
10
91.001425
20
54.772363
11
90.958955
21
55.258863
0
LINE
8
Tornado
10
90.958955
20
55.258863
11
90.683445
21
55.215903
0
LINE
8
Tornado
10
90.683445
20
55.215903
11
90.085652
21
54.765130
0
LINE
8
Tornado
10
90.085652
20
54.765130
11
88.648855
21
54.837590
0
LINE
8
Tornado
10
88.648855
20
54.837590
11
87.215428
21
54.687328
0
LINE
8
Tornado
10
87.215428
20
54.687328
11
86.108613
21
54.396839
0
LINE
8
Tornado
10
86.108613
20
54.396839
11
85.651650
21
54.048616
0
LINE
8
Tornado
10
85.651650
20
54.048616
11
85.149491
21
54.595027
0
LINE
8
Tornado
10
85.149491
20
54.595027
11
84.482651
21
54.833277
0
LINE
8
Tornado
10
84.482651
20
54.833277
11
83.701857
21
54.852581
0
LINE
8
Tornado
10
83.701857
20
54.852581
11
82.857839
21
54.742150
0
LINE
8
Tornado
10
82.857839
20
54.742150
11
81.183044
21
54.488932
0
LINE
8
Tornado
10
81.183044
20
54.488932
11
80.453726
21
54.524571
0
LINE
8
Tornado
10
80.453726
20
54.524571
11
79.864098
21
54.787324
0
LINE
8
Tornado
10
79.864098
20
54.787324
11
78.170803
21
54.649393
0
LINE
8
Tornado
10
78.170803
20
54.649393
11
76.762078
21
54.679247
0
LINE
8
Tornado
10
76.762078
20
54.679247
11
73.514030
21
54.765130
0
LINE
8
Tornado
10
73.514030
20
54.765130
11
72.131896
21
54.803353
0
LINE
8
Tornado
10
72.131896
20
54.803353
11
70.626260
21
54.688731
0
LINE
8
Tornado
10
70.626260
20
54.688731
11
69.973875
21
54.743605
0
LINE
8
Tornado
10
69.973875
20
54.743605
11
69.466712
21
54.963669
0
LINE
8
Tornado
10
69.466712
20
54.963669
11
69.163469
21
55.416726
0
LINE
8
Tornado
10
69.163469
20
55.416726
11
69.122846
21
56.170575
0
LINE
8
Tornado
10
69.122846
20
56.170575
11
68.816667
21
57.095788
0
LINE
8
Tornado
10
68.816667
20
57.095788
11
68.370751
21
57.627918
0
LINE
8
Tornado
10
68.370751
20
57.627918
11
67.837096
21
57.886517
0
LINE
8
Tornado
10
67.837096
20
57.886517
11
67.267701
21
57.991142
0
LINE
8
Tornado
10
67.267701
20
57.991142
11
66.229686
21
58.216686
0
LINE
8
Tornado
10
66.229686
20
58.216686
11
65.865062
21
58.576714
0
LINE
8
Tornado
10
65.865062
20
58.576714
11
65.672692
21
59.260986
0
LINE
8
Tornado
10
65.672692
20
59.260986
11
73.107342
21
61.244243
0
LINE
8
Tornado
10
73.107342
20
61.244243
11
76.785435
21
62.468886
0
LINE
8
Tornado
10
76.785435
20
62.468886
11
80.381237
21
63.898121
0
LINE
8
Tornado
10
80.381237
20
63.898121
11
83.852646
21
65.568886
0
LINE
8
Tornado
10
83.852646
20
65.568886
11
87.157558
21
67.518118
0
LINE
8
Tornado
10
87.157558
20
67.518118
11
90.253871
21
69.782755
0
LINE
8
Tornado
10
90.253871
20
69.782755
11
93.099483
21
72.399733
0
LINE
8
Tornado
10
93.099483
20
72.399733
11
94.583909
21
74.720835
0
LINE
8
Tornado
10
94.583909
20
74.720835
11
95.658909
21
77.201271
0
LINE
8
Tornado
10
95.658909
20
77.201271
11
96.387477
21
79.805891
0
LINE
8
Tornado
10
96.387477
20
79.805891
11
96.832608
21
82.499544
0
LINE
8
Tornado
10
96.832608
20
82.499544
11
97.057298
21
85.247082
0
LINE
8
Tornado
10
97.057298
20
85.247082
11
97.124540
21
88.013354
0
LINE
8
Tornado
10
97.124540
20
88.013354
11
97.038663
21
93.461501
0
LINE
8
Tornado
10
97.038663
20
93.461501
11
96.269939
21
99.574060
0
LINE
8
Tornado
10
96.269939
20
99.574060
11
95.747901
21
102.656214
0
LINE
8
Tornado
10
95.747901
20
102.656214
11
95.053526
21
105.694463
0
LINE
8
Tornado
10
95.053526
20
105.694463
11
94.126398
21
108.642942
0
LINE
8
Tornado
10
94.126398
20
108.642942
11
92.906102
21
111.455785
0
LINE
8
Tornado
10
92.906102
20
111.455785
11
91.332224
21
114.087126
0
LINE
8
Tornado
10
91.332224
20
114.087126
11
89.344348
21
116.491101
0
LINE
8
Tornado
10
89.344348
20
116.491101
11
85.604400
21
118.459906
0
LINE
8
Tornado
10
85.604400
20
118.459906
11
81.752605
21
120.216664
0
LINE
8
Tornado
10
81.752605
20
120.216664
11
73.855278
21
123.276067
0
LINE
8
Tornado
10
73.855278
20
123.276067
11
69.201308
21
124.285706
0
LINE
8
Tornado
10
69.201308
20
124.285706
11
64.388884
21
125.032900
0
LINE
8
Tornado
10
64.388884
20
125.032900
11
59.547994
21
125.512572
0
LINE
8
Tornado
10
59.547994
20
125.512572
11
54.808630
21
125.719648
0
LINE
8
Tornado
10
54.808630
20
125.719648
11
48.147913
21
125.835753
0
LINE
8
Tornado
10
48.147913
20
125.835753
11
41.566915
21
125.680225
0
LINE
8
Tornado
10
41.566915
20
125.680225
11
35.036943
21
125.068142
0
LINE
8
Tornado
10
35.036943
20
125.068142
11
31.782123
21
124.533104
0
LINE
8
Tornado
10
31.782123
20
124.533104
11
28.529300
21
123.814580
0
LINE
8
Tornado
10
28.529300
20
123.814580
11
23.165503
21
122.479149
0
LINE
8
Tornado
10
23.165503
20
122.479149
11
17.651293
21
120.649721
0
LINE
8
Tornado
10
17.651293
20
120.649721
11
14.956924
21
119.507265
0
LINE
8
Tornado
10
14.956924
20
119.507265
11
12.367923
21
118.190319
0
LINE
8
Tornado
10
12.367923
20
118.190319
11
9.931946
21
116.681886
0
LINE
8
Tornado
10
9.931946
20
116.681886
11
7.696650
21
114.964969
0
LINE
8
Tornado
10
7.696650
20
114.964969
11
7.059993
21
113.226133
0
LINE
8
Tornado
10
7.059993
20
113.226133
11
6.895810
21
111.461714
0
LINE
8
Tornado
10
6.895810
20
111.461714
11
7.122676
21
109.692160
0
LINE
8
Tornado
10
7.122676
20
109.692160
11
7.659165
21
107.937924
0
LINE
8
Tornado
10
7.659165
20
107.937924
11
8.423853
21
106.219455
0
LINE
8
Tornado
10
8.423853
20
106.219455
11
9.335315
21
104.557204
0
LINE
8
Tornado
10
9.335315
20
104.557204
11
11.272859
21
101.483161
0
LINE
8
Tornado
10
11.272859
20
101.483161
11
14.043922
21
97.707797
0
LINE
8
Tornado
10
14.043922
20
97.707797
11
17.197939
21
94.267833
0
LINE
8
Tornado
10
17.197939
20
94.267833
11
20.627231
21
91.092831
0
LINE
8
Tornado
10
20.627231
20
91.092831
11
24.224121
21
88.112355
0
LINE
8
Tornado
10
24.224121
20
88.112355
11
25.530242
21
84.518734
0
LINE
8
Tornado
10
25.530242
20
84.518734
11
26.759574
21
80.870031
0
LINE
8
Tornado
10
26.759574
20
80.870031
11
27.500035
21
79.105468
0
LINE
8
Tornado
10
27.500035
20
79.105468
11
28.406808
21
77.423667
0
LINE
8
Tornado
10
28.406808
20
77.423667
11
29.541728
21
75.856806
0
LINE
8
Tornado
10
29.541728
20
75.856806
11
30.966631
21
74.437061
0
LINE
8
Tornado
10
30.966631
20
74.437061
11
31.590337
21
73.823010
0
LINE
8
Tornado
10
31.590337
20
73.823010
11
32.083380
21
73.087117
0
LINE
8
Tornado
10
32.083380
20
73.087117
11
32.718889
21
71.334829
0
LINE
8
Tornado
10
32.718889
20
71.334829
11
32.955978
21
69.350246
0
LINE
8
Tornado
10
32.955978
20
69.350246
11
32.877465
21
67.303413
0
LINE
8
Tornado
10
32.877465
20
67.303413
11
32.566171
21
65.364376
0
LINE
8
Tornado
10
32.566171
20
65.364376
11
32.104914
21
63.703183
0
LINE
8
Tornado
10
32.104914
20
63.703183
11
31.576514
21
62.489879
0
LINE
8
Tornado
10
31.576514
20
62.489879
11
31.063788
21
61.894512
0
LINE
8
Tornado
10
31.063788
20
61.894512
11
30.688802
21
62.169610
0
LINE
8
Tornado
10
30.688802
20
62.169610
11
30.466649
21
61.912231
0
LINE
8
Tornado
10
30.466649
20
61.912231
11
30.192366
21
60.505623
0
LINE
8
Tornado
10
30.192366
20
60.505623
11
29.995994
21
59.709182
0
LINE
8
Tornado
10
29.995994
20
59.709182
11
29.663973
21
59.085842
0
LINE
8
Tornado
10
29.663973
20
59.085842
11
29.124184
21
58.811997
0
LINE
8
Tornado
10
29.124184
20
58.811997
11
28.304506
21
59.064041
0
LINE
8
Tornado
10
28.304506
20
59.064041
11
27.469785
21
59.471313
0
LINE
8
Tornado
10
27.469785
20
59.471313
11
26.883246
21
59.590312
0
LINE
8
Tornado
10
26.883246
20
59.590312
11
26.470340
21
59.488178
0
LINE
8
Tornado
10
26.470340
20
59.488178
11
26.156512
21
59.232049
0
LINE
8
Tornado
10
26.156512
20
59.232049
11
25.527891
21
58.526366
0
LINE
8
Tornado
10
25.527891
20
58.526366
11
25.063993
21
58.211090
0
LINE
8
Tornado
10
25.063993
20
58.211090
11
24.400968
21
58.010375
0
LINE
8
Tornado
10
24.400968
20
58.010375
11
24.035503
21
57.605189
0
LINE
8
Tornado
10
24.035503
20
57.605189
11
23.725732
21
57.448067
0
LINE
8
Tornado
10
23.725732
20
57.448067
11
23.464671
21
57.500628
0
LINE
8
Tornado
10
23.464671
20
57.500628
11
23.245339
21
57.724488
0
LINE
8
Tornado
10
23.245339
20
57.724488
11
22.903922
21
58.532582
0
LINE
8
Tornado
10
22.903922
20
58.532582
11
22.645614
21
59.565289
0
LINE
8
Tornado
10
22.645614
20
59.565289
11
22.414547
21
60.515554
0
LINE
8
Tornado
10
22.414547
20
60.515554
11
22.154854
21
61.076317
0
LINE
8
Tornado
10
22.154854
20
61.076317
11
21.996814
21
61.114680
0
LINE
8
Tornado
10
21.996814
20
61.114680
11
21.810667
21
60.940521
0
LINE
8
Tornado
10
21.810667
20
60.940521
11
21.326119
21
59.801108
0
LINE
8
Tornado
10
21.326119
20
59.801108
11
20.974617
21
58.407426
0
LINE
8
Tornado
10
20.974617
20
58.407426
11
20.772784
21
58.163725
0
LINE
8
Tornado
10
20.772784
20
58.163725
11
20.515708
21
58.133412
0
LINE
8
Tornado
10
20.515708
20
58.133412
11
19.722259
21
58.446832
0
LINE
8
Tornado
10
19.722259
20
58.446832
11
18.367135
21
58.815451
0
LINE
8
Tornado
10
18.367135
20
58.815451
11
17.611005
21
59.076924
0
LINE
8
Tornado
10
17.611005
20
59.076924
11
16.994314
21
59.583083
0
LINE
8
Tornado
10
16.994314
20
59.583083
11
16.111648
21
60.935389
0
LINE
8
Tornado
10
16.111648
20
60.935389
11
15.583948
21
62.084230
0
LINE
8
Tornado
10
15.583948
20
62.084230
11
15.410963
21
62.336058
0
LINE
8
Tornado
10
15.410963
20
62.336058
11
15.276023
21
62.241468
0
LINE
8
Tornado
10
15.276023
20
62.241468
11
14.225830
21
63.692616
0
LINE
8
Tornado
10
14.225830
20
63.692616
11
13.629233
21
64.118670
0
LINE
8
Tornado
10
13.629233
20
64.118670
11
13.470237
21
64.015012
0
LINE
8
Tornado
10
13.470237
20
64.015012
11
13.387686
21
63.736352
0
LINE
8
Tornado
10
13.387686
20
63.736352
11
13.402640
21
62.762384
0
LINE
8
Tornado
10
13.402640
20
62.762384
11
13.807868
21
59.906387
0
LINE
8
Tornado
10
13.807868
20
59.906387
11
14.056539
21
57.284454
0
LINE
8
Tornado
10
14.056539
20
57.284454
11
12.877920
21
57.433266
0
LINE
8
Tornado
10
12.877920
20
57.433266
11
11.489021
21
57.784503
0
LINE
8
Tornado
10
11.489021
20
57.784503
11
8.465731
21
58.732836
0
LINE
8
Tornado
10
8.465731
20
58.732836
11
5.757355
21
59.406620
0
LINE
8
Tornado
10
5.757355
20
59.406620
11
4.762100
21
59.414670
0
LINE
8
Tornado
10
4.762100
20
59.414670
11
4.134581
21
59.083020
0
LINE
8
Tornado
10
4.134581
20
59.083020
11
5.736209
21
57.717242
0
LINE
8
Tornado
10
5.736209
20
57.717242
11
7.521248
21
56.593635
0
LINE
8
Tornado
10
7.521248
20
56.593635
11
11.194694
21
54.483587
0
LINE
8
Tornado
10
11.194694
20
54.483587
11
11.268107
21
53.985171
0
LINE
8
Tornado
10
11.268107
20
53.985171
11
11.193839
21
53.516480
0
LINE
8
Tornado
10
11.193839
20
53.516480
11
10.694970
21
52.667118
0
LINE
8
Tornado
10
10.694970
20
52.667118
11
9.883499
21
51.933190
0
LINE
8
Tornado
10
9.883499
20
51.933190
11
8.944841
21
51.312382
0
LINE
8
Tornado
10
8.944841
20
51.312382
11
7.427614
21
50.400875
0
LINE
8
Tornado
10
7.427614
20
50.400875
11
7.219872
21
50.105550
0
LINE
8
Tornado
10
7.219872
20
50.105550
11
7.626596
21
49.914095
0
LINE
8
Tornado
10
7.626596
20
49.914095
11
8.046568
21
49.658424
0
LINE
8
Tornado
10
8.046568
20
49.658424
11
8.335662
21
49.229611
0
LINE
8
Tornado
10
8.335662
20
49.229611
11
8.541308
21
48.113042
0
LINE
8
Tornado
10
8.541308
20
48.113042
11
8.283717
21
47.085364
0
LINE
8
Tornado
10
8.283717
20
47.085364
11
7.993766
21
46.767665
0
LINE
8
Tornado
10
7.993766
20
46.767665
11
7.603075
21
46.667556
0
LINE
8
Tornado
10
7.603075
20
46.667556
11
6.268066
21
46.629785
0
LINE
8
Tornado
10
6.268066
20
46.629785
11
5.277650
21
46.460233
0
LINE
8
Tornado
10
5.277650
20
46.460233
11
4.622727
21
46.194317
0
LINE
8
Tornado
10
4.622727
20
46.194317
11
4.294196
21
45.867456
0
LINE
8
Tornado
10
4.294196
20
45.867456
11
4.282956
21
45.515067
0
LINE
8
Tornado
10
4.282956
20
45.515067
11
4.579906
21
45.172568
0
LINE
8
Tornado
10
4.579906
20
45.172568
11
5.175946
21
44.875378
0
LINE
8
Tornado
10
5.175946
20
44.875378
11
6.061976
21
44.658915
0
LINE
8
Tornado
10
6.061976
20
44.658915
11
6.791961
21
44.092132
0
LINE
8
Tornado
10
6.791961
20
44.092132
11
7.216334
21
43.335518
0
LINE
8
Tornado
10
7.216334
20
43.335518
11
7.422654
21
42.457901
0
LINE
8
Tornado
10
7.422654
20
42.457901
11
7.498477
21
41.528107
0
LINE
8
Tornado
10
7.498477
20
41.528107
11
7.608857
21
39.787301
0
LINE
8
Tornado
10
7.608857
20
39.787301
11
7.818529
21
39.113943
0
LINE
8
Tornado
10
7.818529
20
39.113943
11
8.247931
21
38.663718
0
LINE
8
Tornado
10
8.247931
20
38.663718
11
9.152294
21
37.862503
0
LINE
8
Tornado
10
9.152294
20
37.862503
11
9.694522
21
36.874742
0
LINE
8
Tornado
10
9.694522
20
36.874742
11
10.310268
21
35.257758
0
LINE
8
Tornado
10
10.310268
20
35.257758
11
10.702718
21
34.092943
0
LINE
8
Tornado
10
10.702718
20
34.092943
11
10.939418
21
33.491376
0
LINE
8
Tornado
10
10.939418
20
33.491376
11
11.385522
21
33.023965
0
LINE
8
Tornado
10
11.385522
20
33.023965
11
12.693078
21
32.145184
0
LINE
8
Tornado
10
12.693078
20
32.145184
11
14.501436
21
30.624445
0
LINE
8
Tornado
10
14.501436
20
30.624445
11
15.161473
21
29.805404
0
LINE
8
Tornado
10
15.161473
20
29.805404
11
15.428377
21
29.044349
0
LINE
8
Tornado
10
15.428377
20
29.044349
11
15.360411
21
28.708323
0
LINE
8
Tornado
10
15.360411
20
28.708323
11
15.129371
21
28.414104
0
LINE
8
Tornado
10
15.129371
20
28.414104
11
14.091677
21
27.987495
0
LINE
8
Tornado
10
14.091677
20
27.987495
11
13.441118
21
27.212727
0
LINE
8
Tornado
10
13.441118
20
27.212727
11
13.433191
21
26.997982
0
LINE
8
Tornado
10
13.433191
20
26.997982
11
13.604102
21
26.877288
0
LINE
8
Tornado
10
13.604102
20
26.877288
11
14.384245
21
26.854918
0
LINE
8
Tornado
10
14.384245
20
26.854918
11
15.585162
21
27.019363
0
LINE
8
Tornado
10
15.585162
20
27.019363
11
18.463773
21
27.403664
0
LINE
8
Tornado
10
18.463773
20
27.403664
11
19.748698
21
27.371006
0
LINE
8
Tornado
10
19.748698
20
27.371006
11
20.668855
21
27.020134
0
LINE
8
Tornado
10
20.668855
20
27.020134
11
21.294854
21
26.928998
0
LINE
8
Tornado
10
21.294854
20
26.928998
11
21.728030
21
26.701668
0
LINE
8
Tornado
10
21.728030
20
26.701668
11
21.996253
21
26.363770
0
LINE
8
Tornado
10
21.996253
20
26.363770
11
22.127391
21
25.940930
0
LINE
8
Tornado
10
22.127391
20
25.940930
11
22.089896
21
24.942926
0
LINE
8
Tornado
10
22.089896
20
24.942926
11
21.838505
21
23.912663
0
LINE
8
Tornado
10
21.838505
20
23.912663
11
21.596175
21
23.055149
0
LINE
8
Tornado
10
21.596175
20
23.055149
11
21.585867
21
22.575390
0
LINE
8
Tornado
10
21.585867
20
22.575390
11
22.030539
21
22.678395
0
LINE
8
Tornado
10
22.030539
20
22.678395
11
23.153151
21
23.569170
0
LINE
8
Tornado
10
23.153151
20
23.569170
11
23.708213
21
24.186259
0
LINE
8
Tornado
10
23.708213
20
24.186259
11
24.637952
21
24.964019
0
LINE
8
Tornado
10
24.637952
20
24.964019
11
25.686952
21
25.849021
0
LINE
8
Tornado
10
25.686952
20
25.849021
11
26.599800
21
26.787840
0
LINE
8
Tornado
10
26.599800
20
26.787840
11
27.589647
21
27.316078
0
LINE
8
Tornado
10
27.589647
20
27.316078
11
27.955255
21
27.304598
0
LINE
8
Tornado
10
27.955255
20
27.304598
11
28.249378
21
27.138352
0
LINE
8
Tornado
10
28.249378
20
27.138352
11
28.667348
21
26.428463
0
LINE
8
Tornado
10
28.667348
20
26.428463
11
28.931912
21
25.360211
0
LINE
8
Tornado
10
28.931912
20
25.360211
11
29.354251
21
22.843819
0
LINE
8
Tornado
10
29.354251
20
22.843819
11
29.688737
21
21.743279
0
LINE
8
Tornado
10
29.688737
20
21.743279
11
30.223241
21
20.979577
0
LINE
8
Tornado
10
30.223241
20
20.979577
11
30.552870
21
21.092356
0
LINE
8
Tornado
10
30.552870
20
21.092356
11
30.797794
21
21.527391
0
LINE
8
Tornado
10
30.797794
20
21.527391
11
31.092553
21
23.053484
0
LINE
8
Tornado
10
31.092553
20
23.053484
11
31.314938
21
26.554525
0
LINE
8
Tornado
10
31.314938
20
26.554525
11
32.179739
21
26.014280
0
LINE
8
Tornado
10
32.179739
20
26.014280
11
32.595784
21
25.960314
0
LINE
8
Tornado
10
32.595784
20
25.960314
11
32.714743
21
26.241688
0
LINE
8
Tornado
10
32.714743
20
26.241688
11
32.688290
21
26.707464
0
LINE
8
Tornado
10
32.688290
20
26.707464
11
32.668097
21
27.206703
0
LINE
8
Tornado
10
32.668097
20
27.206703
11
32.805835
21
27.588468
0
LINE
8
Tornado
10
32.805835
20
27.588468
11
33.253178
21
27.701819
0
LINE
8
Tornado
10
33.253178
20
27.701819
11
34.161796
21
27.395818
0
LINE
8
Tornado
10
34.161796
20
27.395818
11
34.748449
21
27.013186
0
LINE
8
Tornado
10
34.748449
20
27.013186
11
35.726104
21
26.777584
0
LINE
8
Tornado
10
35.726104
20
26.777584
11
38.224532
21
26.430613
0
LINE
8
Tornado
10
38.224532
20
26.430613
11
39.430362
21
26.160819
0
LINE
8
Tornado
10
39.430362
20
26.160819
11
40.397305
21
25.721204
0
LINE
8
Tornado
10
40.397305
20
25.721204
11
40.967891
21
25.032554
0
LINE
8
Tornado
10
40.967891
20
25.032554
11
41.055339
21
24.570086
0
LINE
8
Tornado
10
41.055339
20
24.570086
11
40.984646
21
24.015656
0
LINE
8
Tornado
10
40.984646
20
24.015656
11
42.672451
21
25.609927
0
LINE
8
Tornado
10
42.672451
20
25.609927
11
43.634688
21
26.321388
0
LINE
8
Tornado
10
43.634688
20
26.321388
11
44.582758
21
26.811768
0
LINE
8
Tornado
10
44.582758
20
26.811768
11
45.446869
21
26.958091
0
LINE
8
Tornado
10
45.446869
20
26.958091
11
46.157228
21
26.637383
0
LINE
8
Tornado
10
46.157228
20
26.637383
11
46.644044
21
25.726670
0
LINE
8
Tornado
10
46.644044
20
25.726670
11
46.837525
21
24.102977
0
LINE
8
Tornado
10
46.837525
20
24.102977
11
47.119447
21
24.959033
0
LINE
8
Tornado
10
47.119447
20
24.959033
11
47.481874
21
25.552643
0
LINE
8
Tornado
10
47.481874
20
25.552643
11
47.905818
21
25.934785
0
LINE
8
Tornado
10
47.905818
20
25.934785
11
48.372290
21
26.156435
0
LINE
8
Tornado
10
48.372290
20
26.156435
11
49.356873
21
26.322171
0
LINE
8
Tornado
10
49.356873
20
26.322171
11
50.283723
21
26.457668
0
LINE
8
Tornado
10
50.283723
20
26.457668
11
50.972856
21
26.982666
0
LINE
8
Tornado
10
50.972856
20
26.982666
11
51.872496
21
27.099354
0
LINE
8
Tornado
10
51.872496
20
27.099354
11
52.877716
21
26.947973
0
LINE
8
Tornado
10
52.877716
20
26.947973
11
53.883590
21
26.668766
0
LINE
8
Tornado
10
53.883590
20
26.668766
11
55.477586
21
26.287843
0
LINE
8
Tornado
10
55.477586
20
26.287843
11
55.855853
21
26.466610
0
LINE
8
Tornado
10
55.855853
20
26.466610
11
55.815064
21
27.078520
0
LINE
8
Tornado
10
55.815064
20
27.078520
11
56.469472
21
27.281715
0
LINE
8
Tornado
10
56.469472
20
27.281715
11
56.965223
21
27.227490
0
LINE
8
Tornado
10
56.965223
20
27.227490
11
57.323070
21
26.958831
0
LINE
8
Tornado
10
57.323070
20
26.958831
11
57.563764
21
26.518721
0
LINE
8
Tornado
10
57.563764
20
26.518721
11
57.776708
21
25.296087
0
LINE
8
Tornado
10
57.776708
20
25.296087
11
57.770077
21
23.903462
0
LINE
8
Tornado
10
57.770077
20
23.903462
11
57.709893
21
22.684719
0
LINE
8
Tornado
10
57.709893
20
22.684719
11
57.762177
21
21.983734
0
LINE
8
Tornado
10
57.762177
20
21.983734
11
57.882376
21
21.934860
0
LINE
8
Tornado
10
57.882376
20
21.934860
11
58.092951
21
22.144378
0
LINE
8
Tornado
10
58.092951
20
22.144378
11
58.868237
21
23.510527
0
LINE
8
Tornado
10
58.868237
20
23.510527
11
59.251504
21
24.822153
0
LINE
8
Tornado
10
59.251504
20
24.822153
11
59.769434
21
25.716167
0
LINE
8
Tornado
10
59.769434
20
25.716167
11
60.408726
21
26.240508
0
LINE
8
Tornado
10
60.408726
20
26.240508
11
61.156074
21
26.443113
0
LINE
8
Tornado
10
61.156074
20
26.443113
11
61.998175
21
26.371919
0
LINE
8
Tornado
10
61.998175
20
26.371919
11
62.921725
21
26.074864
0
LINE
8
Tornado
10
62.921725
20
26.074864
11
64.959960
21
24.994916
0
LINE
8
Tornado
10
64.959960
20
24.994916
11
64.110923
21
26.156309
0
LINE
8
Tornado
10
64.110923
20
26.156309
11
64.043101
21
26.551550
0
LINE
8
Tornado
10
64.043101
20
26.551550
11
64.177980
21
26.841408
0
LINE
8
Tornado
10
64.177980
20
26.841408
11
64.950554
21
27.159734
0
LINE
8
Tornado
10
64.950554
20
27.159734
11
66.218070
21
27.220811
0
LINE
8
Tornado
10
66.218070
20
27.220811
11
69.395619
21
27.009305
0
LINE
8
Tornado
10
69.395619
20
27.009305
11
70.884500
21
26.955768
0
LINE
8
Tornado
10
70.884500
20
26.955768
11
72.026017
21
27.083071
0
LINE
8
Tornado
10
72.026017
20
27.083071
11
79.051048
21
27.060218
0
LINE
8
Tornado
10
79.051048
20
27.060218
11
86.055860
21
27.000891
0
LINE
8
Tornado
10
86.055860
20
27.000891
11
87.082035
21
27.290343
0
LINE
8
Tornado
10
87.082035
20
27.290343
11
88.258113
21
27.402742
0
LINE
8
Tornado
10
88.258113
20
27.402742
11
90.641274
21
27.379535
0
LINE
8
Tornado
10
90.641274
20
27.379535
11
91.639009
21
27.385508
0
LINE
8
Tornado
10
91.639009
20
27.385508
11
92.367946
21
27.497583
0
LINE
8
Tornado
10
92.367946
20
27.497583
11
92.723410
21
27.786549
0
LINE
8
Tornado
10
92.723410
20
27.786549
11
92.600727
21
28.323196
0
LINE
8
Tornado
10
92.600727
20
28.323196
11
93.638318
21
28.397512
0
LINE
8
Tornado
10
93.638318
20
28.397512
11
93.870148
21
28.603301
0
LINE
8
Tornado
10
93.870148
20
28.603301
11
93.570673
21
28.895486
0
LINE
8
Tornado
10
93.570673
20
28.895486
11
93.014348
21
29.228989
0
LINE
8
Tornado
10
93.014348
20
29.228989
11
92.475630
21
29.558731
0
LINE
8
Tornado
10
92.475630
20
29.558731
11
92.228973
21
29.839634
0
LINE
8
Tornado
10
92.228973
20
29.839634
11
92.548833
21
30.026621
0
LINE
8
Tornado
10
92.548833
20
30.026621
11
93.709667
21
30.074613
0
LINE
8
Tornado
10
93.709667
20
30.074613
11
94.612352
21
30.172662
0
LINE
8
Tornado
10
94.612352
20
30.172662
11
94.932862
21
30.318036
0
LINE
8
Tornado
10
94.932862
20
30.318036
11
94.861939
21
30.500831
0
LINE
8
Tornado
10
94.861939
20
30.500831
11
94.590318
21
30.711147
0
LINE
8
Tornado
10
94.590318
20
30.711147
11
94.308740
21
30.939079
0
LINE
8
Tornado
10
94.308740
20
30.939079
11
94.207942
21
31.174727
0
LINE
8
Tornado
10
94.207942
20
31.174727
11
94.478662
21
31.408186
0
LINE
8
Tornado
10
94.478662
20
31.408186
11
95.311639
21
31.629555
0
LINE
8
Tornado
10
95.311639
20
31.629555
11
96.213120
21
31.863684
0
LINE
8
Tornado
10
96.213120
20
31.863684
11
96.377721
21
32.053755
0
LINE
8
Tornado
10
96.377721
20
32.053755
11
96.394396
21
32.276447
0
LINE
8
Tornado
10
96.394396
20
32.276447
11
96.112460
21
32.771537
0
LINE
8
Tornado
10
96.112460
20
32.771537
11
95.624302
21
33.252647
0
LINE
8
Tornado
10
95.624302
20
33.252647
11
95.057286
21
33.787693
0
LINE
8
Tornado
10
95.057286
20
33.787693
11
96.749276
21
33.111121
0
LINE
8
Tornado
10
96.749276
20
33.111121
11
98.035921
21
32.732237
0
LINE
8
Tornado
10
98.035921
20
32.732237
11
98.545954
21
32.839106
0
LINE
8
Tornado
10
98.545954
20
32.839106
11
98.444739
21
33.314972
0
LINE
8
Tornado
10
98.444739
20
33.314972
11
97.897639
21
34.043084
0
LINE
8
Tornado
10
97.897639
20
34.043084
11
96.127238
21
35.789030
0
LINE
8
Tornado
10
96.127238
20
35.789030
11
94.557660
21
37.142918
0
LINE
8
Tornado
10
94.557660
20
37.142918
11
93.959728
21
37.651092
0
LINE
8
Tornado
10
93.959728
20
37.651092
11
93.939936
21
37.908481
0
LINE
8
Tornado
10
93.939936
20
37.908481
11
94.061762
21
38.163619
0
LINE
8
Tornado
10
94.061762
20
38.163619
11
94.596771
21
38.653775
0
LINE
8
Tornado
10
94.596771
20
38.653775
11
95.297765
21
39.094839
0
LINE
8
Tornado
10
95.297765
20
39.094839
11
95.897753
21
39.460088
0
LINE
8
Tornado
10
95.897753
20
39.460088
11
96.129743
21
39.722799
0
LINE
8
Tornado
10
96.129743
20
39.722799
11
95.726745
21
39.856250
0
LINE
8
Tornado
10
95.726745
20
39.856250
11
94.421767
21
39.833719
0
LINE
8
Tornado
10
94.421767
20
39.833719
11
95.985428
21
40.278486
0
LINE
8
Tornado
10
95.985428
20
40.278486
11
97.863066
21
40.766158
0
LINE
8
Tornado
10
97.863066
20
40.766158
11
98.493805
21
41.032206
0
LINE
8
Tornado
10
98.493805
20
41.032206
11
98.692052
21
41.316327
0
LINE
8
Tornado
10
98.692052
20
41.316327
11
98.287478
21
41.620972
0
LINE
8
Tornado
10
98.287478
20
41.620972
11
97.109754
21
41.948590
0
LINE
8
Tornado
10
97.109754
20
41.948590
11
95.100228
21
42.458988
0
LINE
8
Tornado
10
95.100228
20
42.458988
11
92.947556
21
43.265521
0
LINE
8
Tornado
10
92.947556
20
43.265521
11
92.154048
21
43.811103
0
LINE
8
Tornado
10
92.154048
20
43.811103
11
91.728563
21
44.468238
0
LINE
8
Tornado
10
91.728563
20
44.468238
11
91.805705
21
45.249431
0
LINE
8
Tornado
10
91.805705
20
45.249431
11
92.520076
21
46.167189
0
LINE
8
Tornado
10
92.520076
20
46.167189
11
95.222888
21
48.836974
0
LINE
8
pcb outline
10
40.339226
20
118.816446
11
40.505400
21
119.669344
0
LINE
8
pcb outline
10
40.505400
20
119.669344
11
41.091047
21
120.458005
0
LINE
8
pcb outline
10
41.091047
20
120.458005
11
42.229240
21
121.169644
0
LINE
8
pcb outline
10
42.229240
20
121.169644
11
44.053048
21
121.791473
0
LINE
8
pcb outline
10
44.053048
20
121.791473
11
46.998532
21
122.225183
0
LINE
8
pcb outline
10
46.998532
20
122.225183
11
50.836463
21
122.381326
0
LINE
8
pcb outline
10
50.836463
20
122.381326
11
54.701983
21
122.260416
0
LINE
8
pcb outline
10
54.701983
20
122.260416
11
57.730233
21
121.862967
0
LINE
8
pcb outline
10
57.730233
20
121.862967
11
59.616901
21
121.261346
0
LINE
8
pcb outline
10
59.616901
20
121.261346
11
60.750089
21
120.540315
0
LINE
8
pcb outline
10
60.750089
20
120.540315
11
61.303567
21
119.718977
0
LINE
8
pcb outline
10
61.303567
20
119.718977
11
61.451106
21
118.816436
0
LINE
8
pcb outline
10
61.451106
20
118.816436
11
61.240334
21
117.771850
0
LINE
8
pcb outline
10
61.240334
20
117.771850
11
60.665343
21
116.918778
0
LINE
8
pcb outline
10
60.665343
20
116.918778
11
59.812493
21
116.343542
0
LINE
8
pcb outline
10
59.812493
20
116.343542
11
58.768144
21
116.132467
0
LINE
8
pcb outline
10
58.768144
20
116.132467
11
55.057888
21
116.581068
0
LINE
8
pcb outline
10
55.057888
20
116.581068
11
50.894101
21
116.729617
0
LINE
8
pcb outline
10
50.894101
20
116.729617
11
46.731089
21
116.578916
0
LINE
8
pcb outline
10
46.731089
20
116.578916
11
43.023156
21
116.129766
0
LINE
8
pcb outline
10
43.023156
20
116.129766
11
41.978366
21
116.342275
0
LINE
8
pcb outline
10
41.978366
20
116.342275
11
41.125215
21
116.918284
0
LINE
8
pcb outline
10
41.125215
20
116.918284
11
40.550052
21
117.771704
0
LINE
8
pcb outline
10
40.550052
20
117.771704
11
40.339226
21
118.816444
0
LINE
8
pcb outline
10
40.339226
20
118.816444
11
40.339226
21
118.816446
 0 
ENDSEC
 0 
EOF