  0
SECTION
  2
HEADER
  9
$ACADVER
  1
AC1014
  9
$HANDSEED
  5
FFFF
  9
$INSUNITS
 70
     0
  9
$MEASUREMENT
 70
     1
  0
ENDSEC
  0
SECTION
  2
TABLES
  0
TABLE
  2
VPORT
  5
8
330
0
100
AcDbSymbolTable
 70
     4
  0
VPORT
  5
2E
330
8
100
AcDbSymbolTableRecord
100
AcDbViewportTableRecord
  2
*ACTIVE
 70
     0
 10
0.0
 20
0.0
 11
1.0
 21
1.0
 12
210.0
 22
148.5
 13
0.0
 23
0.0
 14
10.0
 24
10.0
 15
10.0
 25
10.0
 16
0.0
 26
0.0
 36
1.0
 17
0.0
 27
0.0
 37
0.0
 40
341.0
 41
1.24
 42
50.0
 43
0.0
 44
0.0
 50
0.0
 51
0.0
 71
     0
 72
   100
 73
     1
 74
     3
 75
     0
 76
     0
 77
     0
 78
     0
  0
ENDTAB
  0
TABLE
  2
LTYPE
  5
5
330
0
100
AcDbSymbolTable
 70
     1
  0
LTYPE
  5
14
330
5
100
AcDbSymbolTableRecord
100
AcDbLinetypeTableRecord
  2
BYBLOCK
 70
     0
  3

 72
    65
 73
     0
 40
0.0
  0
LTYPE
  5
15
330
5
100
AcDbSymbolTableRecord
100
AcDbLinetypeTableRecord
  2
BYLAYER
 70
     0
  3

 72
    65
 73
     0
 40
0.0
  0
LTYPE
  5
16
330
5
100
AcDbSymbolTableRecord
100
AcDbLinetypeTableRecord
  2
CONTINUOUS
 70
     0
  3
Solid line
 72
    65
 73
     0
 40
0.0
  0
ENDTAB
  0
TABLE
  2
LAYER
  5
2
100
AcDbSymbolTable
 70
3
  0
LAYER
  5
50
100
AcDbSymbolTableRecord
100
AcDbLayerTableRecord
  2
0
 70
0
  6
CONTINUOUS
  0
LAYER
  5
51
100
AcDbSymbolTableRecord
100
AcDbLayerTableRecord
  2
Layer_1
 70
0
  6
CONTINUOUS
  0
LAYER
  5
52
100
AcDbSymbolTableRecord
100
AcDbLayerTableRecord
  2
Layer_2
 70
0
  6
CONTINUOUS
  0
ENDTAB
  0
TABLE
  2
STYLE
  5
3
330
0
100
AcDbSymbolTable
 70
     1
  0
STYLE
  5
11
330
3
100
AcDbSymbolTableRecord
100
AcDbTextStyleTableRecord
  2
STANDARD
 70
     0
 40
0.0
 41
1.0
 50
0.0
 71
     0
 42
2.5
  3
txt
  4

  0
ENDTAB
  0
TABLE
  2
VIEW
  5
6
330
0
100
AcDbSymbolTable
 70
     0
  0
ENDTAB
  0
TABLE
  2
UCS
  5
7
330
0
100
AcDbSymbolTable
 70
     0
  0
ENDTAB
  0
TABLE
  2
APPID
  5
9
330
0
100
AcDbSymbolTable
 70
     2
  0
APPID
  5
12
330
9
100
AcDbSymbolTableRecord
100
AcDbRegAppTableRecord
  2
ACAD
 70
     0
  0
ENDTAB
  0
TABLE
  2
DIMSTYLE
  5
A
330
0
100
AcDbSymbolTable
 70
     1
  0
DIMSTYLE
105
27
330
A
100
AcDbSymbolTableRecord
100
AcDbDimStyleTableRecord
  2
ISO-25
 70
     0
  3

  4

  5

  6

  7

 40
1.0
 41
2.5
 42
0.625
 43
3.75
 44
1.25
 45
0.0
 46
0.0
 47
0.0
 48
0.0
140
2.5
141
2.5
142
0.0
143
0.03937007874016
144
1.0
145
0.0
146
1.0
147
0.625
 71
     0
 72
     0
 73
     0
 74
     0
 75
     0
 76
     0
 77
     1
 78
     8
170
     0
171
     3
172
     1
173
     0
174
     0
175
     0
176
     0
177
     0
178
     0
270
     2
271
     2
272
     2
273
     2
274
     3
340
11
275
     0
280
     0
281
     0
282
     0
283
     0
284
     8
285
     0
286
     0
287
     3
288
     0
  0
ENDTAB
  0
TABLE
  2
BLOCK_RECORD
  5
1
330
0
100
AcDbSymbolTable
 70
     1
  0
BLOCK_RECORD
  5
1F
330
1
100
AcDbSymbolTableRecord
100
AcDbBlockTableRecord
  2
*MODEL_SPACE
  0
BLOCK_RECORD
  5
1B
330
1
100
AcDbSymbolTableRecord
100
AcDbBlockTableRecord
  2
*PAPER_SPACE
  0
ENDTAB
  0
ENDSEC
  0
SECTION
  2
BLOCKS
  0
BLOCK
  5
20
330
1F
100
AcDbEntity
  8
0
100
AcDbBlockBegin
  2
*MODEL_SPACE
 70
     0
 10
0.0
 20
0.0
 30
0.0
  3
*MODEL_SPACE
  1

  0
ENDBLK
  5
21
330
1F
100
AcDbEntity
  8
0
100
AcDbBlockEnd
  0
BLOCK
  5
1C
330
1B
100
AcDbEntity
 67
     1
  8
0
100
AcDbBlockBegin
  2
*PAPER_SPACE
  1

  0
ENDBLK
  5
1D
330
1B
100
AcDbEntity
 67
     1
  8
0
100
AcDbBlockEnd
  0
ENDSEC
  0
SECTION
  2
ENTITIES
  0
LWPOLYLINE
  5
100
100
AcDbEntity
  8
Layer_1
 62
7
100
AcDbPolyline
 90
39
 70
1
 10
34.254400
 20
1010.997000
 30
0.0
 10
19.202700
 20
998.973000
 30
0.0
 10
19.202700
 20
994.172800
 30
0.0
 10
17.284800
 20
992.227600
 30
0.0
 10
13.325500
 20
992.227600
 30
0.0
 10
13.325500
 20
996.864500
 30
0.0
 10
14.795000
 20
998.368800
 30
0.0
 10
14.795000
 20
998.958300
 30
0.0
 10
13.874400
 20
998.958300
 30
0.0
 10
6.215600
 20
991.203100
 30
0.0
 10
6.215600
 20
983.102100
 30
0.0
 10
9.154500
 20
980.145000
 30
0.0
 10
9.154500
 20
986.131800
 30
0.0
 10
11.374800
 20
987.961700
 30
0.0
 10
12.519500
 20
987.961700
 30
0.0
 10
12.519500
 20
989.159500
 30
0.0
 10
13.343000
 20
989.952900
 30
0.0
 10
15.646300
 20
989.952900
 30
0.0
 10
16.453700
 20
989.159500
 30
0.0
 10
16.453700
 20
986.854700
 30
0.0
 10
15.646300
 20
986.018700
 30
0.0
 10
13.343000
 20
986.018700
 30
0.0
 10
12.519500
 20
986.854700
 30
0.0
 10
12.519500
 20
987.298200
 30
0.0
 10
11.611600
 20
987.298200
 30
0.0
 10
9.818000
 20
985.821700
 30
0.0
 10
9.818000
 20
979.486300
 30
0.0
 10
18.827700
 20
970.482300
 30
0.0
 10
22.900200
 20
974.549900
 30
0.0
 10
35.797900
 20
961.736700
 30
0.0
 10
40.323700
 20
961.736700
 30
0.0
 10
40.323700
 20
967.471400
 30
0.0
 10
46.352400
 20
967.471400
 30
0.0
 10
48.097100
 20
969.225900
 30
0.0
 10
48.097100
 20
1002.167600
 30
0.0
 10
53.266800
 20
1002.167600
 30
0.0
 10
55.063800
 20
1003.959000
 30
0.0
 10
55.063800
 20
1009.079800
 30
0.0
 10
48.390400
 20
1010.997000
 30
0.0
  0
LWPOLYLINE
  5
101
100
AcDbEntity
  8
Layer_1
 62
7
100
AcDbPolyline
 90
79
 70
1
 10
55.790200
 20
1005.813300
 30
0.0
 10
55.790200
 20
1003.643300
 30
0.0
 10
53.661400
 20
1001.522200
 30
0.0
 10
48.822700
 20
1001.522200
 30
0.0
 10
48.822700
 20
989.810400
 30
0.0
 10
50.907500
 20
989.810400
 30
0.0
 10
54.686700
 20
993.602100
 30
0.0
 10
61.961400
 20
993.602100
 30
0.0
 10
61.961400
 20
994.467500
 30
0.0
 10
62.798100
 20
995.260900
 30
0.0
 10
65.102900
 20
995.260900
 30
0.0
 10
65.894900
 20
994.467500
 30
0.0
 10
65.894900
 20
992.162700
 30
0.0
 10
65.102900
 20
991.326700
 30
0.0
 10
62.798100
 20
991.326700
 30
0.0
 10
61.961400
 20
992.162700
 30
0.0
 10
61.961400
 20
992.986100
 30
0.0
 10
54.943000
 20
992.986100
 30
0.0
 10
51.163100
 20
989.193700
 30
0.0
 10
48.822700
 20
989.193700
 30
0.0
 10
48.822700
 20
985.971200
 30
0.0
 10
53.458200
 20
985.971200
 30
0.0
 10
55.828600
 20
988.340900
 30
0.0
 10
67.506900
 20
988.340900
 30
0.0
 10
67.506900
 20
989.220900
 30
0.0
 10
68.354100
 20
990.000400
 30
0.0
 10
70.658800
 20
990.000400
 30
0.0
 10
71.441100
 20
989.220900
 30
0.0
 10
71.441100
 20
986.916200
 30
0.0
 10
70.658800
 20
986.066200
 30
0.0
 10
68.354100
 20
986.066200
 30
0.0
 10
67.506900
 20
986.916200
 30
0.0
 10
67.506900
 20
987.724200
 30
0.0
 10
56.084900
 20
987.724200
 30
0.0
 10
53.715900
 20
985.354500
 30
0.0
 10
48.822700
 20
985.354500
 30
0.0
 10
48.822700
 20
968.912300
 30
0.0
 10
46.748400
 20
966.826100
 30
0.0
 10
41.049300
 20
966.826100
 30
0.0
 10
41.049300
 20
961.090700
 30
0.0
 10
37.713000
 20
961.090700
 30
0.0
 10
38.877900
 20
954.313900
 30
0.0
 10
37.047400
 20
949.295700
 30
0.0
 10
42.856800
 20
949.295700
 30
0.0
 10
42.856800
 20
965.851100
 30
0.0
 10
44.614000
 20
964.815300
 30
0.0
 10
46.381800
 20
954.131600
 30
0.0
 10
44.277400
 20
949.295700
 30
0.0
 10
50.263600
 20
949.295700
 30
0.0
 10
50.263600
 20
971.003300
 30
0.0
 10
69.353500
 20
971.003300
 30
0.0
 10
70.177000
 20
967.446300
 30
0.0
 10
73.564300
 20
964.922900
 30
0.0
 10
75.394900
 20
954.313900
 30
0.0
 10
73.289100
 20
949.295700
 30
0.0
 10
79.377900
 20
949.295700
 30
0.0
 10
79.377900
 20
966.659900
 30
0.0
 10
82.087100
 20
964.922900
 30
0.0
 10
83.631300
 20
954.223100
 30
0.0
 10
81.800700
 20
949.295700
 30
0.0
 10
87.678000
 20
949.295700
 30
0.0
 10
87.678000
 20
967.178800
 30
0.0
 10
83.285600
 20
973.041300
 30
0.0
 10
89.054600
 20
987.349900
 30
0.0
 10
85.968200
 20
993.604900
 30
0.0
 10
88.866700
 20
993.604900
 30
0.0
 10
90.487000
 20
992.025100
 30
0.0
 10
90.487000
 20
979.422800
 30
0.0
 10
89.588800
 20
977.882100
 30
0.0
 10
90.403900
 20
973.046900
 30
0.0
 10
93.008300
 20
973.046900
 30
0.0
 10
93.863900
 20
977.886300
 30
0.0
 10
93.008300
 20
979.431200
 30
0.0
 10
93.041300
 20
979.431200
 30
0.0
 10
93.041300
 20
993.086000
 30
0.0
 10
89.927700
 20
996.031200
 30
0.0
 10
84.771300
 20
996.031200
 30
0.0
 10
83.644000
 20
998.315100
 30
0.0
 10
69.960600
 20
1000.743500
 30
0.0
  0
LWPOLYLINE
  5
102
100
AcDbEntity
  8
Layer_1
 62
7
100
AcDbPolyline
 90
4
 70
1
 10
48.822700
 20
985.354500
 30
0.0
 10
48.822700
 20
985.971200
 30
0.0
 10
48.643900
 20
985.971200
 30
0.0
 10
48.643900
 20
985.354500
 30
0.0
  0
LWPOLYLINE
  5
103
100
AcDbEntity
  8
Layer_1
 62
7
100
AcDbPolyline
 90
4
 70
1
 10
48.822700
 20
989.193700
 30
0.0
 10
48.822700
 20
989.810400
 30
0.0
 10
48.563600
 20
989.810400
 30
0.0
 10
48.563600
 20
989.193700
 30
0.0
  0
LWPOLYLINE
  5
104
100
AcDbEntity
  8
Layer_1
 62
7
100
AcDbPolyline
 90
7
 70
1
 10
18.586700
 20
1004.536600
 30
0.0
 10
15.363500
 20
1001.333000
 30
0.0
 10
15.363500
 20
997.993100
 30
0.0
 10
14.036500
 20
996.594200
 30
0.0
 10
14.036500
 20
992.843700
 30
0.0
 10
17.032700
 20
992.843700
 30
0.0
 10
18.586700
 20
994.427000
 30
0.0
  0
LWPOLYLINE
  5
105
100
AcDbEntity
  8
Layer_1
 62
7
100
AcDbPolyline
 90
8
 70
1
 10
63.053700
 20
994.644900
 30
0.0
 10
62.577400
 20
994.212600
 30
0.0
 10
62.577400
 20
992.419700
 30
0.0
 10
63.053700
 20
991.943400
 30
0.0
 10
64.846600
 20
991.943400
 30
0.0
 10
65.279600
 20
992.419700
 30
0.0
 10
65.279600
 20
994.212600
 30
0.0
 10
64.846600
 20
994.644900
 30
0.0
  0
LWPOLYLINE
  5
106
100
AcDbEntity
  8
Layer_1
 62
7
100
AcDbPolyline
 90
10
 70
1
 10
20.056900
 20
992.843700
 30
0.0
 10
24.820800
 20
992.843700
 30
0.0
 10
25.414500
 20
991.221900
 30
0.0
 10
23.427500
 20
989.289400
 30
0.0
 10
20.056900
 20
989.289400
 30
0.0
 10
20.056900
 20
989.904700
 30
0.0
 10
23.175300
 20
989.904700
 30
0.0
 10
24.699300
 20
991.383900
 30
0.0
 10
24.388500
 20
992.227600
 30
0.0
 10
20.056900
 20
992.227600
 30
0.0
  0
LWPOLYLINE
  5
107
100
AcDbEntity
  8
Layer_1
 62
7
100
AcDbPolyline
 90
8
 70
1
 10
68.609700
 20
989.383700
 30
0.0
 10
68.122900
 20
988.965300
 30
0.0
 10
68.122900
 20
987.172500
 30
0.0
 10
68.609700
 20
986.682200
 30
0.0
 10
70.402500
 20
986.682200
 30
0.0
 10
70.825100
 20
987.172500
 30
0.0
 10
70.825100
 20
988.965300
 30
0.0
 10
70.402500
 20
989.383700
 30
0.0
  0
LWPOLYLINE
  5
108
100
AcDbEntity
  8
Layer_1
 62
7
100
AcDbPolyline
 90
8
 70
1
 10
13.598600
 20
989.336700
 30
0.0
 10
13.136200
 20
988.903600
 30
0.0
 10
13.136200
 20
987.110800
 30
0.0
 10
13.598600
 20
986.635200
 30
0.0
 10
15.391400
 20
986.635200
 30
0.0
 10
15.837700
 20
987.110800
 30
0.0
 10
15.837700
 20
988.903600
 30
0.0
 10
15.391400
 20
989.336700
 30
0.0
  0
LWPOLYLINE
  5
109
100
AcDbEntity
  8
Layer_1
 62
7
100
AcDbPolyline
 90
12
 70
1
 10
6.209300
 20
982.200200
 30
0.0
 10
6.219300
 20
977.438400
 30
0.0
 10
6.927500
 20
976.738600
 30
0.0
 10
6.927500
 20
977.082900
 30
0.0
 10
7.910200
 20
977.914000
 30
0.0
 10
8.966200
 20
977.914000
 30
0.0
 10
8.966200
 20
977.298000
 30
0.0
 10
8.132300
 20
977.298000
 30
0.0
 10
7.544300
 20
976.792400
 30
0.0
 10
7.544300
 20
976.121200
 30
0.0
 10
8.371200
 20
975.259300
 30
0.0
 10
13.141400
 20
975.259300
 30
0.0
  0
ENDSEC
  0
SECTION
  2
OBJECTS
  0
DICTIONARY
  5
C
330
0
100
AcDbDictionary
  3
ACAD_GROUP
350
D
  3
ACAD_MLINESTYLE
350
17
  0
DICTIONARY
  5
D
330
C
100
AcDbDictionary
  0
DICTIONARY
  5
1A
330
C
100
AcDbDictionary
  0
DICTIONARY
  5
17
330
C
100
AcDbDictionary
  3
STANDARD
350
18
  0
DICTIONARY
  5
19
330
C
100
AcDbDictionary
  0
ENDSEC
  0
EOF
