%TF.GenerationSoftware,KiCad,Pcbnew,8.0.0*%
%TF.CreationDate,2024-03-08T01:19:46-06:00*%
%TF.ProjectId,SAO_2024,53414f5f-3230-4323-942e-6b696361645f,rev?*%
%TF.SameCoordinates,Original*%
%TF.FileFunction,Soldermask,Top*%
%TF.FilePolarity,Negative*%
%FSLAX46Y46*%
G04 Gerber Fmt 4.6, Leading zero omitted, Abs format (unit mm)*
G04 Created by KiCad (PCBNEW 8.0.0) date 2024-03-08 01:19:46*
%MOMM*%
%LPD*%
G01*
G04 APERTURE LIST*
%ADD10C,0.000000*%
G04 APERTURE END LIST*
D10*
G36*
X138902130Y-144211151D02*
G01*
X138823412Y-144377229D01*
X138735305Y-144534604D01*
X138638286Y-144683717D01*
X138532835Y-144825009D01*
X138419432Y-144958921D01*
X138298555Y-145085895D01*
X138170684Y-145206371D01*
X138036297Y-145320791D01*
X137895873Y-145429596D01*
X137749893Y-145533228D01*
X137598834Y-145632127D01*
X137443176Y-145726734D01*
X137283398Y-145817492D01*
X137119979Y-145904840D01*
X136953398Y-145989221D01*
X136784134Y-146071075D01*
X136594131Y-146087372D01*
X136126389Y-146127640D01*
X135687347Y-146165268D01*
X135301300Y-146198334D01*
X134992233Y-146224960D01*
X134853371Y-146237818D01*
X134783978Y-146243948D01*
X134714508Y-146249084D01*
X134713873Y-146249093D01*
X134713238Y-146249117D01*
X134711967Y-146249196D01*
X134709427Y-146249382D01*
X134708157Y-146249433D01*
X134707521Y-146249436D01*
X134706886Y-146249419D01*
X134706251Y-146249379D01*
X134705616Y-146249312D01*
X134704981Y-146249215D01*
X134704346Y-146249084D01*
X134702818Y-146248699D01*
X134701326Y-146248180D01*
X134699873Y-146247536D01*
X134698457Y-146246773D01*
X134697079Y-146245897D01*
X134695740Y-146244915D01*
X134694440Y-146243834D01*
X134693180Y-146242660D01*
X134690781Y-146240060D01*
X134688545Y-146237168D01*
X134686477Y-146234037D01*
X134684580Y-146230719D01*
X134682857Y-146227267D01*
X134681313Y-146223733D01*
X134679951Y-146220172D01*
X134678775Y-146216634D01*
X134677787Y-146213174D01*
X134676992Y-146209843D01*
X134676394Y-146206694D01*
X134675995Y-146203781D01*
X134675795Y-146199609D01*
X134676054Y-146195506D01*
X134676746Y-146191473D01*
X134677850Y-146187509D01*
X134679340Y-146183615D01*
X134681194Y-146179792D01*
X134683388Y-146176038D01*
X134685899Y-146172354D01*
X134688702Y-146168740D01*
X134691774Y-146165196D01*
X134698633Y-146158320D01*
X134706285Y-146151725D01*
X134714542Y-146145412D01*
X134723217Y-146139383D01*
X134732119Y-146133637D01*
X134749852Y-146122997D01*
X134766234Y-146113500D01*
X134773446Y-146109180D01*
X134779755Y-146105148D01*
X134816423Y-146080935D01*
X134853367Y-146057175D01*
X134890545Y-146033814D01*
X134927917Y-146010803D01*
X135055895Y-145936435D01*
X135191297Y-145864828D01*
X135333520Y-145795579D01*
X135481962Y-145728285D01*
X135795098Y-145597950D01*
X136125889Y-145470600D01*
X136821171Y-145211960D01*
X137176031Y-145074222D01*
X137529282Y-144926575D01*
X137710361Y-144846081D01*
X137889800Y-144764019D01*
X138067067Y-144679896D01*
X138241627Y-144593220D01*
X138412947Y-144503498D01*
X138580493Y-144410239D01*
X138743732Y-144312949D01*
X138902130Y-144211136D01*
X138902130Y-144211151D01*
G37*
G36*
X139314684Y-139612471D02*
G01*
X139320736Y-139613034D01*
X139326732Y-139614103D01*
X139332628Y-139615690D01*
X139338378Y-139617807D01*
X139343938Y-139620466D01*
X139349263Y-139623679D01*
X139354308Y-139627458D01*
X139359027Y-139631815D01*
X139363376Y-139636761D01*
X139367309Y-139642309D01*
X139370782Y-139648471D01*
X139373749Y-139655258D01*
X139489749Y-139973300D01*
X139597300Y-140299020D01*
X139646520Y-140464282D01*
X139691963Y-140630890D01*
X139733074Y-140798654D01*
X139769299Y-140967382D01*
X139800081Y-141136885D01*
X139824866Y-141306970D01*
X139843099Y-141477447D01*
X139854225Y-141648124D01*
X139857689Y-141818812D01*
X139852936Y-141989319D01*
X139839411Y-142159454D01*
X139816559Y-142329025D01*
X139789878Y-142465453D01*
X139755377Y-142597654D01*
X139713262Y-142725543D01*
X139663740Y-142849029D01*
X139607017Y-142968026D01*
X139543300Y-143082445D01*
X139472796Y-143192198D01*
X139395710Y-143297197D01*
X139312250Y-143397354D01*
X139222621Y-143492581D01*
X139127031Y-143582790D01*
X139025685Y-143667892D01*
X138918790Y-143747799D01*
X138806554Y-143822425D01*
X138689181Y-143891679D01*
X138566879Y-143955475D01*
X138566982Y-143955589D01*
X138567085Y-143955702D01*
X138567137Y-143955757D01*
X138567188Y-143955812D01*
X138567240Y-143955865D01*
X138567291Y-143955917D01*
X138560494Y-143958871D01*
X138553769Y-143961011D01*
X138547142Y-143962378D01*
X138540635Y-143963012D01*
X138534273Y-143962953D01*
X138528078Y-143962242D01*
X138522075Y-143960919D01*
X138516288Y-143959023D01*
X138510738Y-143956596D01*
X138505452Y-143953676D01*
X138500451Y-143950305D01*
X138495760Y-143946522D01*
X138491403Y-143942368D01*
X138487402Y-143937882D01*
X138483782Y-143933105D01*
X138480566Y-143928078D01*
X138477778Y-143922839D01*
X138475442Y-143917430D01*
X138473580Y-143911890D01*
X138472218Y-143906260D01*
X138471377Y-143900580D01*
X138471083Y-143894890D01*
X138471359Y-143889229D01*
X138472227Y-143883639D01*
X138473713Y-143878160D01*
X138475839Y-143872831D01*
X138478630Y-143867693D01*
X138482108Y-143862785D01*
X138486298Y-143858149D01*
X138491223Y-143853824D01*
X138496906Y-143849850D01*
X138503372Y-143846268D01*
X138623549Y-143783448D01*
X138738535Y-143715367D01*
X138848148Y-143642093D01*
X138952209Y-143563691D01*
X139050534Y-143480230D01*
X139142944Y-143391776D01*
X139229257Y-143298395D01*
X139309292Y-143200155D01*
X139382868Y-143097123D01*
X139449803Y-142989365D01*
X139509918Y-142876949D01*
X139563029Y-142759941D01*
X139608957Y-142638408D01*
X139647521Y-142512417D01*
X139678538Y-142382036D01*
X139701828Y-142247330D01*
X139720261Y-142084794D01*
X139730033Y-141921789D01*
X139731667Y-141758492D01*
X139725689Y-141595078D01*
X139712625Y-141431724D01*
X139692999Y-141268605D01*
X139667337Y-141105898D01*
X139636164Y-140943779D01*
X139600005Y-140782424D01*
X139559385Y-140622009D01*
X139514830Y-140462709D01*
X139466864Y-140304702D01*
X139362803Y-139993269D01*
X139251404Y-139689117D01*
X139249104Y-139682065D01*
X139247649Y-139675279D01*
X139246994Y-139668773D01*
X139247095Y-139662558D01*
X139247906Y-139656646D01*
X139249382Y-139651049D01*
X139251478Y-139645780D01*
X139254150Y-139640849D01*
X139257352Y-139636270D01*
X139261039Y-139632053D01*
X139265166Y-139628211D01*
X139269688Y-139624756D01*
X139274560Y-139621699D01*
X139279738Y-139619054D01*
X139285175Y-139616830D01*
X139290827Y-139615042D01*
X139296649Y-139613699D01*
X139302596Y-139612816D01*
X139308623Y-139612402D01*
X139314684Y-139612471D01*
G37*
G36*
X143094612Y-144298671D02*
G01*
X143100429Y-144299371D01*
X143106099Y-144300543D01*
X143111575Y-144302189D01*
X143116811Y-144304308D01*
X143121759Y-144306901D01*
X143126373Y-144309968D01*
X143130608Y-144313509D01*
X143134416Y-144317524D01*
X143137750Y-144322014D01*
X143140566Y-144326979D01*
X143142814Y-144332418D01*
X143144451Y-144338333D01*
X143145428Y-144344724D01*
X143145699Y-144351590D01*
X143145218Y-144358932D01*
X143124957Y-144539402D01*
X143107048Y-144721445D01*
X143093881Y-144904648D01*
X143089824Y-144996556D01*
X143087849Y-145088600D01*
X143088255Y-145180729D01*
X143091342Y-145272890D01*
X143097408Y-145365033D01*
X143106753Y-145457106D01*
X143119675Y-145549058D01*
X143136472Y-145640836D01*
X143157445Y-145732391D01*
X143182892Y-145823669D01*
X143213408Y-145911998D01*
X143230682Y-145954085D01*
X143249267Y-145994802D01*
X143269139Y-146034162D01*
X143290274Y-146072175D01*
X143336235Y-146144207D01*
X143386957Y-146210991D01*
X143442244Y-146272618D01*
X143501903Y-146329181D01*
X143565741Y-146380770D01*
X143633562Y-146427477D01*
X143705172Y-146469395D01*
X143780379Y-146506615D01*
X143858987Y-146539229D01*
X143940802Y-146567329D01*
X144025631Y-146591005D01*
X144113279Y-146610351D01*
X144203552Y-146625458D01*
X144210758Y-146626847D01*
X144217305Y-146628841D01*
X144223205Y-146631395D01*
X144228471Y-146634465D01*
X144233115Y-146638005D01*
X144237149Y-146641972D01*
X144240588Y-146646319D01*
X144243443Y-146651003D01*
X144245726Y-146655978D01*
X144247452Y-146661200D01*
X144248631Y-146666624D01*
X144249277Y-146672204D01*
X144249403Y-146677897D01*
X144249020Y-146683658D01*
X144248143Y-146689441D01*
X144246782Y-146695202D01*
X144244952Y-146700896D01*
X144242664Y-146706478D01*
X144239931Y-146711904D01*
X144236766Y-146717128D01*
X144233182Y-146722106D01*
X144229191Y-146726793D01*
X144224805Y-146731144D01*
X144220038Y-146735115D01*
X144214902Y-146738660D01*
X144209409Y-146741735D01*
X144203573Y-146744296D01*
X144197406Y-146746296D01*
X144190920Y-146747691D01*
X144184128Y-146748438D01*
X144177043Y-146748490D01*
X144169678Y-146747803D01*
X144081133Y-146733122D01*
X143994544Y-146714428D01*
X143910119Y-146691639D01*
X143828070Y-146664669D01*
X143748605Y-146633436D01*
X143671934Y-146597856D01*
X143598266Y-146557845D01*
X143562624Y-146536152D01*
X143527811Y-146513319D01*
X143493854Y-146489337D01*
X143460779Y-146464194D01*
X143428612Y-146437882D01*
X143397379Y-146410388D01*
X143367107Y-146381702D01*
X143337821Y-146351815D01*
X143309549Y-146320715D01*
X143282315Y-146288392D01*
X143256147Y-146254836D01*
X143231070Y-146220035D01*
X143207110Y-146183981D01*
X143184295Y-146146662D01*
X143162650Y-146108067D01*
X143142200Y-146068187D01*
X143122974Y-146027011D01*
X143104996Y-145984528D01*
X143069727Y-145888579D01*
X143040184Y-145790895D01*
X143015993Y-145691687D01*
X142996778Y-145591165D01*
X142982165Y-145489539D01*
X142971777Y-145387020D01*
X142965240Y-145283817D01*
X142962179Y-145180141D01*
X142962218Y-145076203D01*
X142964983Y-144972212D01*
X142977187Y-144764912D01*
X142995791Y-144559925D01*
X143017792Y-144358932D01*
X143018219Y-144358932D01*
X143019427Y-144351625D01*
X143021279Y-144344787D01*
X143023727Y-144338419D01*
X143026726Y-144332520D01*
X143030228Y-144327091D01*
X143034187Y-144322132D01*
X143038558Y-144317643D01*
X143043292Y-144313625D01*
X143048344Y-144310077D01*
X143053667Y-144307001D01*
X143059214Y-144304395D01*
X143064940Y-144302261D01*
X143070797Y-144300599D01*
X143076740Y-144299409D01*
X143082721Y-144298691D01*
X143088694Y-144298445D01*
X143094612Y-144298671D01*
G37*
G36*
X135162485Y-141069795D02*
G01*
X135162484Y-141069795D01*
X135162483Y-141069796D01*
X135162482Y-141069796D01*
X135162481Y-141069797D01*
X135162480Y-141069798D01*
X135162479Y-141069799D01*
X135162478Y-141069800D01*
X135162478Y-141069801D01*
X135162477Y-141069801D01*
X135162477Y-141069802D01*
X135162477Y-141069803D01*
X135162476Y-141069804D01*
X135162476Y-141069805D01*
X135162476Y-141069807D01*
X135162476Y-141069808D01*
X135162476Y-141069809D01*
X135268898Y-141071996D01*
X135319246Y-141074919D01*
X135367714Y-141079075D01*
X135414323Y-141084474D01*
X135459094Y-141091125D01*
X135502047Y-141099037D01*
X135543204Y-141108220D01*
X135582585Y-141118684D01*
X135620213Y-141130438D01*
X135656107Y-141143491D01*
X135690289Y-141157854D01*
X135722780Y-141173536D01*
X135753601Y-141190545D01*
X135782772Y-141208893D01*
X135810316Y-141228588D01*
X135836253Y-141249640D01*
X135860603Y-141272059D01*
X135883389Y-141295853D01*
X135904630Y-141321033D01*
X135924349Y-141347608D01*
X135942566Y-141375588D01*
X135959302Y-141404982D01*
X135974578Y-141435800D01*
X135988415Y-141468051D01*
X136000834Y-141501744D01*
X136011857Y-141536891D01*
X136021503Y-141573499D01*
X136029795Y-141611578D01*
X136036754Y-141651139D01*
X136042399Y-141692190D01*
X136046753Y-141734741D01*
X136048215Y-141769670D01*
X136046543Y-141803862D01*
X136041785Y-141837370D01*
X136033986Y-141870247D01*
X136023193Y-141902545D01*
X136009453Y-141934318D01*
X135992812Y-141965617D01*
X135973317Y-141996497D01*
X135925950Y-142057206D01*
X135867723Y-142116867D01*
X135799009Y-142175904D01*
X135720181Y-142234737D01*
X135631609Y-142293790D01*
X135533667Y-142353484D01*
X135426726Y-142414242D01*
X135311158Y-142476486D01*
X135055632Y-142607120D01*
X134770065Y-142748764D01*
X134740117Y-142699566D01*
X134705764Y-142654501D01*
X134666899Y-142613521D01*
X134623416Y-142576579D01*
X134575209Y-142543625D01*
X134522172Y-142514613D01*
X134464199Y-142489494D01*
X134401184Y-142468220D01*
X134333020Y-142450743D01*
X134259602Y-142437014D01*
X134180823Y-142426987D01*
X134096578Y-142420612D01*
X134006759Y-142417842D01*
X133911261Y-142418628D01*
X133809979Y-142422924D01*
X133702805Y-142430679D01*
X133660285Y-142434852D01*
X133618043Y-142440130D01*
X133576088Y-142446494D01*
X133534431Y-142453927D01*
X133493083Y-142462410D01*
X133452053Y-142471923D01*
X133411351Y-142482449D01*
X133370989Y-142493969D01*
X133330976Y-142506464D01*
X133291322Y-142519916D01*
X133252038Y-142534306D01*
X133213134Y-142549615D01*
X133174620Y-142565825D01*
X133136507Y-142582917D01*
X133098805Y-142600874D01*
X133061523Y-142619675D01*
X133102883Y-142576135D01*
X133142304Y-142530657D01*
X133180018Y-142483447D01*
X133216255Y-142434713D01*
X133251248Y-142384664D01*
X133285228Y-142333506D01*
X133351074Y-142228695D01*
X133480789Y-142014912D01*
X133548360Y-141909262D01*
X133583634Y-141857475D01*
X133620209Y-141806656D01*
X133678753Y-141731749D01*
X133740778Y-141660155D01*
X133806131Y-141592012D01*
X133874662Y-141527457D01*
X133946219Y-141466628D01*
X134020651Y-141409663D01*
X134097806Y-141356700D01*
X134177534Y-141307875D01*
X134259683Y-141263326D01*
X134344101Y-141223191D01*
X134430638Y-141187608D01*
X134519141Y-141156714D01*
X134609461Y-141130646D01*
X134701445Y-141109543D01*
X134794942Y-141093541D01*
X134889801Y-141082779D01*
X134961887Y-141077218D01*
X135031342Y-141073185D01*
X135065092Y-141071748D01*
X135098198Y-141070703D01*
X135130663Y-141070050D01*
X135162485Y-141069794D01*
X135162485Y-141069795D01*
G37*
G36*
X148654045Y-140665471D02*
G01*
X148657562Y-140666046D01*
X148657547Y-140666046D01*
X148660900Y-140667057D01*
X148664088Y-140668497D01*
X148667112Y-140670361D01*
X148669976Y-140672643D01*
X148675227Y-140678443D01*
X148679857Y-140685858D01*
X148683881Y-140694848D01*
X148687315Y-140705373D01*
X148690174Y-140717394D01*
X148692474Y-140730871D01*
X148694231Y-140745764D01*
X148695459Y-140762033D01*
X148696175Y-140779639D01*
X148696394Y-140798541D01*
X148696132Y-140818700D01*
X148695403Y-140840077D01*
X148692612Y-140886322D01*
X148507156Y-143964828D01*
X148503744Y-143998781D01*
X148498250Y-144030610D01*
X148494713Y-144045719D01*
X148490646Y-144060286D01*
X148486044Y-144074307D01*
X148480904Y-144087779D01*
X148475222Y-144100697D01*
X148468996Y-144113059D01*
X148462221Y-144124860D01*
X148454895Y-144136096D01*
X148447013Y-144146765D01*
X148438572Y-144156862D01*
X148429569Y-144166383D01*
X148420000Y-144175325D01*
X148409862Y-144183685D01*
X148399151Y-144191457D01*
X148387864Y-144198640D01*
X148375997Y-144205228D01*
X148363546Y-144211219D01*
X148350509Y-144216608D01*
X148336882Y-144221392D01*
X148322661Y-144225567D01*
X148307843Y-144229130D01*
X148292424Y-144232076D01*
X148276402Y-144234402D01*
X148259771Y-144236105D01*
X148242529Y-144237180D01*
X148224673Y-144237623D01*
X148206199Y-144237432D01*
X148187103Y-144236603D01*
X147300491Y-144183105D01*
X147401123Y-142512589D01*
X148451691Y-140889709D01*
X148470762Y-140859651D01*
X148488935Y-140831921D01*
X148506223Y-140806481D01*
X148522643Y-140783291D01*
X148538210Y-140762311D01*
X148552939Y-140743501D01*
X148566846Y-140726822D01*
X148579947Y-140712234D01*
X148586199Y-140705712D01*
X148592256Y-140699698D01*
X148598118Y-140694187D01*
X148603789Y-140689173D01*
X148609270Y-140684653D01*
X148614562Y-140680620D01*
X148619668Y-140677071D01*
X148624590Y-140674000D01*
X148629330Y-140671402D01*
X148633889Y-140669272D01*
X148638269Y-140667605D01*
X148642473Y-140666397D01*
X148646503Y-140665641D01*
X148650359Y-140665335D01*
X148654045Y-140665471D01*
G37*
G36*
X130714487Y-133242181D02*
G01*
X130720371Y-133242798D01*
X130726163Y-133243935D01*
X130731817Y-133245605D01*
X130737289Y-133247821D01*
X130742533Y-133250594D01*
X130747504Y-133253937D01*
X130752158Y-133257861D01*
X130756450Y-133262380D01*
X130760334Y-133267504D01*
X130763765Y-133273247D01*
X130766698Y-133279620D01*
X130769089Y-133286636D01*
X130798640Y-133379190D01*
X130832495Y-133466596D01*
X130870486Y-133548989D01*
X130912448Y-133626498D01*
X130958214Y-133699257D01*
X131007617Y-133767397D01*
X131060490Y-133831051D01*
X131116668Y-133890349D01*
X131175984Y-133945425D01*
X131238271Y-133996409D01*
X131303363Y-134043434D01*
X131371094Y-134086632D01*
X131441296Y-134126135D01*
X131513803Y-134162075D01*
X131665068Y-134223791D01*
X131823555Y-134272838D01*
X131987934Y-134310269D01*
X132156873Y-134337141D01*
X132329038Y-134354510D01*
X132503098Y-134363429D01*
X132677722Y-134364956D01*
X132851577Y-134360145D01*
X133023331Y-134350052D01*
X133030749Y-134349879D01*
X133037685Y-134350437D01*
X133044137Y-134351682D01*
X133050107Y-134353566D01*
X133055595Y-134356043D01*
X133060602Y-134359066D01*
X133065128Y-134362589D01*
X133069173Y-134366565D01*
X133072738Y-134370948D01*
X133075824Y-134375691D01*
X133078430Y-134380748D01*
X133080558Y-134386072D01*
X133082208Y-134391617D01*
X133083380Y-134397336D01*
X133084075Y-134403183D01*
X133084293Y-134409111D01*
X133084035Y-134415074D01*
X133083301Y-134421025D01*
X133082092Y-134426917D01*
X133080408Y-134432705D01*
X133078250Y-134438341D01*
X133075617Y-134443780D01*
X133072511Y-134448974D01*
X133068933Y-134453877D01*
X133064881Y-134458443D01*
X133060358Y-134462625D01*
X133055363Y-134466376D01*
X133049897Y-134469651D01*
X133043960Y-134472402D01*
X133037553Y-134474584D01*
X133030677Y-134476149D01*
X133023331Y-134477051D01*
X132839921Y-134487514D01*
X132654912Y-134491708D01*
X132469643Y-134488611D01*
X132285451Y-134477204D01*
X132103675Y-134456464D01*
X132014111Y-134442276D01*
X131925653Y-134425373D01*
X131838468Y-134405626D01*
X131752723Y-134382908D01*
X131668586Y-134357091D01*
X131586224Y-134328049D01*
X131505804Y-134295653D01*
X131427493Y-134259775D01*
X131351459Y-134220289D01*
X131277869Y-134177066D01*
X131206891Y-134129980D01*
X131138691Y-134078901D01*
X131073437Y-134023704D01*
X131011296Y-133964260D01*
X130952436Y-133900441D01*
X130897023Y-133832120D01*
X130845225Y-133759170D01*
X130797210Y-133681463D01*
X130753144Y-133598871D01*
X130713195Y-133511267D01*
X130677530Y-133418523D01*
X130646317Y-133320511D01*
X130646744Y-133320511D01*
X130645020Y-133313264D01*
X130644104Y-133306295D01*
X130643952Y-133299615D01*
X130644518Y-133293238D01*
X130645756Y-133287174D01*
X130647623Y-133281437D01*
X130650073Y-133276038D01*
X130653061Y-133270989D01*
X130656541Y-133266304D01*
X130660470Y-133261993D01*
X130664802Y-133258069D01*
X130669491Y-133254545D01*
X130674494Y-133251432D01*
X130679764Y-133248742D01*
X130685257Y-133246488D01*
X130690928Y-133244682D01*
X130696731Y-133243337D01*
X130702622Y-133242463D01*
X130708556Y-133242074D01*
X130714487Y-133242181D01*
G37*
G36*
X143045464Y-125714641D02*
G01*
X142974405Y-125895623D01*
X142909821Y-126080621D01*
X142851754Y-126269562D01*
X142800249Y-126462372D01*
X142755349Y-126658976D01*
X142717097Y-126859302D01*
X142685535Y-127063275D01*
X142660709Y-127270822D01*
X142642660Y-127481868D01*
X142631432Y-127696341D01*
X142627069Y-127914165D01*
X142629613Y-128135267D01*
X142639107Y-128359574D01*
X142655596Y-128587011D01*
X142679123Y-128817505D01*
X142805710Y-129906769D01*
X142805710Y-129906235D01*
X142848894Y-130223368D01*
X142903425Y-130531570D01*
X142969169Y-130830682D01*
X143045994Y-131120550D01*
X143133768Y-131401017D01*
X143232357Y-131671926D01*
X143341629Y-131933121D01*
X143461451Y-132184446D01*
X143591689Y-132425745D01*
X143732213Y-132656860D01*
X143882888Y-132877636D01*
X144043581Y-133087916D01*
X144214161Y-133287544D01*
X144394495Y-133476364D01*
X144584448Y-133654219D01*
X144783890Y-133820953D01*
X144992686Y-133976410D01*
X145210705Y-134120433D01*
X145437813Y-134252865D01*
X145673878Y-134373552D01*
X145918767Y-134482335D01*
X146172347Y-134579059D01*
X146434485Y-134663568D01*
X146705050Y-134735704D01*
X146983906Y-134795313D01*
X147270923Y-134842237D01*
X147565968Y-134876320D01*
X147868906Y-134897405D01*
X148179607Y-134905337D01*
X148497937Y-134899959D01*
X148823763Y-134881115D01*
X149156952Y-134848648D01*
X149433330Y-134811902D01*
X149702577Y-134767041D01*
X149964642Y-134714175D01*
X150219472Y-134653415D01*
X150467014Y-134584871D01*
X150707217Y-134508650D01*
X150940028Y-134424865D01*
X151165394Y-134333624D01*
X151383263Y-134235037D01*
X151593583Y-134129214D01*
X151796301Y-134016265D01*
X151991364Y-133896299D01*
X152178722Y-133769426D01*
X152358320Y-133635756D01*
X152530107Y-133495399D01*
X152694031Y-133348465D01*
X152544477Y-133646178D01*
X152375751Y-133930600D01*
X152188048Y-134201357D01*
X151981560Y-134458074D01*
X151756479Y-134700376D01*
X151513001Y-134927886D01*
X151251317Y-135140232D01*
X150971621Y-135337036D01*
X150674105Y-135517925D01*
X150358964Y-135682522D01*
X150026391Y-135830454D01*
X149676578Y-135961344D01*
X149309719Y-136074818D01*
X148926006Y-136170501D01*
X148525634Y-136248017D01*
X148108795Y-136306992D01*
X147775604Y-136339460D01*
X147449777Y-136358306D01*
X147131446Y-136363685D01*
X146820745Y-136355754D01*
X146517805Y-136334669D01*
X146222760Y-136300587D01*
X145935742Y-136253664D01*
X145656884Y-136194057D01*
X145386319Y-136121920D01*
X145124180Y-136037412D01*
X144870600Y-135940689D01*
X144625711Y-135831906D01*
X144389645Y-135711220D01*
X144162537Y-135578788D01*
X143944518Y-135434765D01*
X143735722Y-135279308D01*
X143536280Y-135112574D01*
X143346327Y-134934719D01*
X143165994Y-134745899D01*
X142995414Y-134546270D01*
X142834721Y-134335990D01*
X142684046Y-134115213D01*
X142543523Y-133884097D01*
X142413285Y-133642798D01*
X142293464Y-133391473D01*
X142184193Y-133130277D01*
X142085605Y-132859367D01*
X141997833Y-132578899D01*
X141921008Y-132289030D01*
X141855265Y-131989916D01*
X141800736Y-131681713D01*
X141757553Y-131364578D01*
X141757553Y-131365112D01*
X141630966Y-130275864D01*
X141596799Y-129910204D01*
X141580381Y-129552392D01*
X141581550Y-129202731D01*
X141600141Y-128861528D01*
X141635993Y-128529086D01*
X141688942Y-128205711D01*
X141758826Y-127891708D01*
X141845482Y-127587382D01*
X141948747Y-127293038D01*
X142068457Y-127008982D01*
X142204451Y-126735517D01*
X142356566Y-126472949D01*
X142524638Y-126221584D01*
X142708505Y-125981725D01*
X142908003Y-125753679D01*
X143122943Y-125537778D01*
X143045464Y-125714641D01*
G37*
G36*
X139898201Y-133804280D02*
G01*
X139904185Y-133805018D01*
X139910134Y-133806227D01*
X139916000Y-133807906D01*
X139921737Y-133810055D01*
X139927298Y-133812673D01*
X139932637Y-133815760D01*
X139937708Y-133819314D01*
X139942464Y-133823336D01*
X139946859Y-133827823D01*
X139950845Y-133832776D01*
X139954377Y-133838194D01*
X139957407Y-133844077D01*
X139959890Y-133850423D01*
X139961779Y-133857231D01*
X139963028Y-133864502D01*
X139969019Y-133939535D01*
X139968310Y-134010260D01*
X139961217Y-134076812D01*
X139948055Y-134139322D01*
X139929139Y-134197924D01*
X139904785Y-134252751D01*
X139875307Y-134303936D01*
X139841022Y-134351611D01*
X139802243Y-134395910D01*
X139759288Y-134436965D01*
X139712469Y-134474910D01*
X139662104Y-134509877D01*
X139608507Y-134541999D01*
X139551994Y-134571410D01*
X139431479Y-134622627D01*
X139303080Y-134664593D01*
X139169321Y-134698370D01*
X139032722Y-134725023D01*
X138895807Y-134745614D01*
X138761097Y-134761207D01*
X138631113Y-134772866D01*
X138395416Y-134788635D01*
X138387998Y-134788732D01*
X138381060Y-134788102D01*
X138374604Y-134786791D01*
X138368627Y-134784845D01*
X138363131Y-134782311D01*
X138358115Y-134779236D01*
X138353579Y-134775666D01*
X138349523Y-134771648D01*
X138345945Y-134767227D01*
X138342847Y-134762452D01*
X138340228Y-134757367D01*
X138338087Y-134752021D01*
X138336424Y-134746458D01*
X138335240Y-134740726D01*
X138334534Y-134734872D01*
X138334305Y-134728941D01*
X138334554Y-134722980D01*
X138335279Y-134717037D01*
X138336482Y-134711156D01*
X138338162Y-134705386D01*
X138340318Y-134699771D01*
X138342950Y-134694360D01*
X138346059Y-134689198D01*
X138349643Y-134684332D01*
X138353702Y-134679808D01*
X138358237Y-134675673D01*
X138363248Y-134671974D01*
X138368733Y-134668756D01*
X138374692Y-134666067D01*
X138381126Y-134663953D01*
X138388034Y-134662461D01*
X138395416Y-134661636D01*
X138604667Y-134648827D01*
X138721870Y-134639742D01*
X138844236Y-134627511D01*
X138969351Y-134611115D01*
X139094797Y-134589536D01*
X139218160Y-134561755D01*
X139278305Y-134545220D01*
X139337023Y-134526752D01*
X139394012Y-134506225D01*
X139448970Y-134483510D01*
X139501595Y-134458480D01*
X139551586Y-134431008D01*
X139598639Y-134400967D01*
X139642454Y-134368229D01*
X139682728Y-134332666D01*
X139719159Y-134294152D01*
X139751446Y-134252559D01*
X139779285Y-134207760D01*
X139802376Y-134159628D01*
X139820416Y-134108034D01*
X139833103Y-134052852D01*
X139840136Y-133993954D01*
X139841212Y-133931213D01*
X139836029Y-133864502D01*
X139835509Y-133857123D01*
X139835744Y-133850228D01*
X139836687Y-133843814D01*
X139838292Y-133837883D01*
X139840511Y-133832432D01*
X139843300Y-133827461D01*
X139846610Y-133822970D01*
X139850397Y-133818958D01*
X139854612Y-133815424D01*
X139859210Y-133812367D01*
X139864144Y-133809787D01*
X139869367Y-133807683D01*
X139874834Y-133806055D01*
X139880497Y-133804901D01*
X139886310Y-133804221D01*
X139892227Y-133804014D01*
X139898201Y-133804280D01*
G37*
G36*
X138187744Y-132022687D02*
G01*
X138373900Y-132031451D01*
X138562704Y-132047681D01*
X138751374Y-132072729D01*
X138844789Y-132088982D01*
X138937128Y-132107947D01*
X139028042Y-132129791D01*
X139117184Y-132154685D01*
X139204206Y-132182796D01*
X139288761Y-132214294D01*
X139370501Y-132249348D01*
X139449077Y-132288127D01*
X139524142Y-132330799D01*
X139595349Y-132377534D01*
X139662350Y-132428499D01*
X139724797Y-132483865D01*
X139782342Y-132543801D01*
X139834637Y-132608474D01*
X139881336Y-132678054D01*
X139922089Y-132752710D01*
X139956550Y-132832610D01*
X139984370Y-132917925D01*
X140005202Y-133008822D01*
X140018699Y-133105470D01*
X140024512Y-133208038D01*
X140022293Y-133316696D01*
X140021506Y-133324080D01*
X140020049Y-133330989D01*
X140017968Y-133337424D01*
X140015309Y-133343385D01*
X140012120Y-133348871D01*
X140008446Y-133353882D01*
X140004334Y-133358418D01*
X139999832Y-133362478D01*
X139994984Y-133366063D01*
X139989838Y-133369172D01*
X139984440Y-133371805D01*
X139978838Y-133373961D01*
X139973076Y-133375641D01*
X139967202Y-133376844D01*
X139961262Y-133377570D01*
X139955303Y-133377819D01*
X139949372Y-133377590D01*
X139943514Y-133376884D01*
X139937776Y-133375699D01*
X139932205Y-133374036D01*
X139926848Y-133371895D01*
X139921750Y-133369275D01*
X139916958Y-133366176D01*
X139912520Y-133362598D01*
X139908481Y-133358541D01*
X139904887Y-133354004D01*
X139901786Y-133348987D01*
X139899224Y-133343490D01*
X139897247Y-133337513D01*
X139895902Y-133331055D01*
X139895236Y-133324116D01*
X139895294Y-133316696D01*
X139897215Y-133215633D01*
X139891458Y-133120450D01*
X139878365Y-133030977D01*
X139858274Y-132947042D01*
X139831526Y-132868473D01*
X139798461Y-132795100D01*
X139759417Y-132726750D01*
X139714736Y-132663252D01*
X139664756Y-132604435D01*
X139609818Y-132550127D01*
X139550262Y-132500157D01*
X139486427Y-132454354D01*
X139418653Y-132412545D01*
X139347280Y-132374559D01*
X139272647Y-132340225D01*
X139195095Y-132309372D01*
X139032592Y-132257421D01*
X138862489Y-132217333D01*
X138687504Y-132187739D01*
X138510356Y-132167264D01*
X138333763Y-132154539D01*
X138160445Y-132148191D01*
X137834503Y-132149139D01*
X137834503Y-132149155D01*
X137827084Y-132148983D01*
X137820143Y-132148101D01*
X137813680Y-132146556D01*
X137807697Y-132144393D01*
X137802192Y-132141660D01*
X137797166Y-132138403D01*
X137792618Y-132134668D01*
X137788549Y-132130502D01*
X137784959Y-132125952D01*
X137781848Y-132121063D01*
X137779215Y-132115883D01*
X137777061Y-132110459D01*
X137775386Y-132104835D01*
X137774189Y-132099060D01*
X137773471Y-132093180D01*
X137773232Y-132087240D01*
X137773471Y-132081288D01*
X137774189Y-132075371D01*
X137775386Y-132069534D01*
X137777061Y-132063824D01*
X137779215Y-132058287D01*
X137781848Y-132052971D01*
X137784959Y-132047922D01*
X137788549Y-132043186D01*
X137792618Y-132038810D01*
X137797166Y-132034840D01*
X137802192Y-132031322D01*
X137807697Y-132028304D01*
X137813680Y-132025832D01*
X137820143Y-132023952D01*
X137827084Y-132022711D01*
X137834503Y-132022156D01*
X138007018Y-132020039D01*
X138187744Y-132022687D01*
G37*
G36*
X153748960Y-129819784D02*
G01*
X153754761Y-129820661D01*
X153760529Y-129822021D01*
X153766216Y-129823852D01*
X153771780Y-129826139D01*
X153777174Y-129828872D01*
X153782355Y-129832036D01*
X153787277Y-129835620D01*
X153791896Y-129839611D01*
X153796167Y-129843997D01*
X153800044Y-129848764D01*
X153803484Y-129853900D01*
X153806441Y-129859393D01*
X153808870Y-129865229D01*
X153810728Y-129871396D01*
X153811968Y-129877882D01*
X153812547Y-129884674D01*
X153812418Y-129891759D01*
X153811539Y-129899124D01*
X153777936Y-130085673D01*
X153739732Y-130271317D01*
X153696781Y-130455837D01*
X153648937Y-130639011D01*
X153596056Y-130820621D01*
X153537991Y-131000445D01*
X153474596Y-131178264D01*
X153405725Y-131353857D01*
X153331234Y-131527005D01*
X153250976Y-131697487D01*
X153164806Y-131865083D01*
X153072577Y-132029573D01*
X152974145Y-132190736D01*
X152869363Y-132348354D01*
X152758086Y-132502205D01*
X152640167Y-132652069D01*
X152516036Y-132796882D01*
X152386534Y-132935627D01*
X152251906Y-133068388D01*
X152112397Y-133195249D01*
X151968253Y-133316293D01*
X151819718Y-133431604D01*
X151667037Y-133541266D01*
X151510454Y-133645363D01*
X151350216Y-133743978D01*
X151186566Y-133837195D01*
X151019749Y-133925097D01*
X150850012Y-134007769D01*
X150677597Y-134085294D01*
X150502751Y-134157757D01*
X150325718Y-134225239D01*
X150146744Y-134287827D01*
X150146729Y-134287399D01*
X150139559Y-134289431D01*
X150132665Y-134290634D01*
X150126057Y-134291054D01*
X150119748Y-134290736D01*
X150113750Y-134289726D01*
X150108075Y-134288067D01*
X150102734Y-134285805D01*
X150097739Y-134282986D01*
X150093103Y-134279653D01*
X150088838Y-134275853D01*
X150084954Y-134271630D01*
X150081465Y-134267030D01*
X150078382Y-134262096D01*
X150075717Y-134256875D01*
X150073482Y-134251412D01*
X150071690Y-134245750D01*
X150070351Y-134239937D01*
X150069478Y-134234016D01*
X150069082Y-134228032D01*
X150069177Y-134222031D01*
X150069773Y-134216057D01*
X150070883Y-134210157D01*
X150072518Y-134204374D01*
X150074691Y-134198753D01*
X150077413Y-134193341D01*
X150080696Y-134188181D01*
X150084553Y-134183319D01*
X150088995Y-134178800D01*
X150094034Y-134174669D01*
X150099683Y-134170971D01*
X150105952Y-134167751D01*
X150112854Y-134165054D01*
X150288146Y-134103773D01*
X150461444Y-134037671D01*
X150632520Y-133966670D01*
X150801145Y-133890693D01*
X150967091Y-133809660D01*
X151130130Y-133723494D01*
X151290033Y-133632117D01*
X151446573Y-133535450D01*
X151599521Y-133433416D01*
X151748649Y-133325935D01*
X151893729Y-133212931D01*
X152034532Y-133094325D01*
X152170831Y-132970039D01*
X152302396Y-132839994D01*
X152429000Y-132704113D01*
X152550415Y-132562317D01*
X152665638Y-132415691D01*
X152774234Y-132265051D01*
X152876366Y-132110632D01*
X152972194Y-131952665D01*
X153061880Y-131791385D01*
X153145586Y-131627023D01*
X153223472Y-131459815D01*
X153295700Y-131289991D01*
X153362431Y-131117787D01*
X153423827Y-130943434D01*
X153480049Y-130767167D01*
X153531258Y-130589217D01*
X153577616Y-130409819D01*
X153619283Y-130229206D01*
X153656422Y-130047610D01*
X153689194Y-129865265D01*
X153690775Y-129858057D01*
X153692950Y-129851509D01*
X153695672Y-129845608D01*
X153698897Y-129840342D01*
X153702580Y-129835697D01*
X153706677Y-129831661D01*
X153711143Y-129828221D01*
X153715932Y-129825366D01*
X153721000Y-129823081D01*
X153726303Y-129821355D01*
X153731795Y-129820175D01*
X153737432Y-129819528D01*
X153743168Y-129819402D01*
X153748960Y-129819784D01*
G37*
G36*
X148448326Y-147470782D02*
G01*
X148454195Y-147471500D01*
X148459951Y-147472697D01*
X148465548Y-147474372D01*
X148470939Y-147476526D01*
X148476077Y-147479159D01*
X148480916Y-147482271D01*
X148485410Y-147485861D01*
X148489512Y-147489930D01*
X148493175Y-147494477D01*
X148496354Y-147499503D01*
X148499001Y-147505008D01*
X148501069Y-147510992D01*
X148502513Y-147517454D01*
X148503286Y-147524395D01*
X148503342Y-147531815D01*
X148500054Y-147637004D01*
X148498924Y-147743942D01*
X148500430Y-147852102D01*
X148505054Y-147960960D01*
X148513273Y-148069991D01*
X148525570Y-148178672D01*
X148542423Y-148286477D01*
X148564312Y-148392881D01*
X148591718Y-148497361D01*
X148625120Y-148599391D01*
X148664998Y-148698447D01*
X148711833Y-148794004D01*
X148738009Y-148840307D01*
X148766104Y-148885538D01*
X148796178Y-148929632D01*
X148828291Y-148972524D01*
X148862503Y-149014147D01*
X148898874Y-149054437D01*
X148937464Y-149093327D01*
X148978333Y-149130753D01*
X149049097Y-149187708D01*
X149123226Y-149238467D01*
X149200403Y-149283362D01*
X149280313Y-149322724D01*
X149362639Y-149356884D01*
X149447065Y-149386175D01*
X149533274Y-149410928D01*
X149620951Y-149431475D01*
X149709778Y-149448147D01*
X149799441Y-149461277D01*
X149889621Y-149471196D01*
X149980005Y-149478236D01*
X150070274Y-149482728D01*
X150160113Y-149485005D01*
X150337234Y-149484238D01*
X150344654Y-149484447D01*
X150351595Y-149485365D01*
X150358057Y-149486944D01*
X150364041Y-149489139D01*
X150369546Y-149491902D01*
X150374572Y-149495187D01*
X150379119Y-149498948D01*
X150383188Y-149503137D01*
X150386778Y-149507708D01*
X150389890Y-149512616D01*
X150392523Y-149517812D01*
X150394677Y-149523251D01*
X150396352Y-149528885D01*
X150397549Y-149534669D01*
X150398267Y-149540556D01*
X150398506Y-149546499D01*
X150398267Y-149552452D01*
X150397549Y-149558368D01*
X150396352Y-149564200D01*
X150394677Y-149569902D01*
X150392523Y-149575427D01*
X150389890Y-149580729D01*
X150386778Y-149585761D01*
X150383188Y-149590477D01*
X150379119Y-149594829D01*
X150374572Y-149598773D01*
X150369546Y-149602259D01*
X150364041Y-149605244D01*
X150358057Y-149607679D01*
X150351595Y-149609517D01*
X150344654Y-149610714D01*
X150337234Y-149611221D01*
X150146862Y-149611637D01*
X150050684Y-149608691D01*
X149954252Y-149603209D01*
X149857872Y-149594861D01*
X149761851Y-149583322D01*
X149666492Y-149568265D01*
X149572103Y-149549362D01*
X149478990Y-149526288D01*
X149387457Y-149498714D01*
X149297811Y-149466315D01*
X149210357Y-149428762D01*
X149125401Y-149385731D01*
X149043249Y-149336893D01*
X148964207Y-149281921D01*
X148888580Y-149220490D01*
X148845477Y-149180815D01*
X148804711Y-149139626D01*
X148766224Y-149096987D01*
X148729955Y-149052968D01*
X148663842Y-148961053D01*
X148605899Y-148864418D01*
X148555656Y-148763598D01*
X148512641Y-148659129D01*
X148476383Y-148551550D01*
X148446411Y-148441395D01*
X148422253Y-148329201D01*
X148403438Y-148215505D01*
X148389495Y-148100843D01*
X148379952Y-147985751D01*
X148374338Y-147870766D01*
X148372182Y-147756424D01*
X148376358Y-147531815D01*
X148377029Y-147524395D01*
X148378377Y-147517454D01*
X148380357Y-147510992D01*
X148382922Y-147505008D01*
X148386025Y-147499503D01*
X148389621Y-147494477D01*
X148393661Y-147489930D01*
X148398100Y-147485861D01*
X148402892Y-147482271D01*
X148407989Y-147479159D01*
X148413346Y-147476526D01*
X148418916Y-147474372D01*
X148424651Y-147472697D01*
X148430507Y-147471500D01*
X148436435Y-147470782D01*
X148442390Y-147470543D01*
X148448326Y-147470782D01*
G37*
G36*
X144237481Y-142077430D02*
G01*
X144242929Y-142078532D01*
X144248275Y-142080207D01*
X144253484Y-142082420D01*
X144258526Y-142085138D01*
X144263366Y-142088329D01*
X144267973Y-142091958D01*
X144272314Y-142095993D01*
X144276356Y-142100400D01*
X144280066Y-142105146D01*
X144283413Y-142110197D01*
X144286362Y-142115520D01*
X144288882Y-142121082D01*
X144290941Y-142126850D01*
X144292504Y-142132789D01*
X144293540Y-142138868D01*
X144294016Y-142145052D01*
X144293900Y-142151308D01*
X144293159Y-142157603D01*
X144291759Y-142163903D01*
X144289669Y-142170175D01*
X144286856Y-142176386D01*
X144283288Y-142182503D01*
X144278931Y-142188492D01*
X144124792Y-142382275D01*
X143973661Y-142578280D01*
X143826679Y-142777142D01*
X143684986Y-142979496D01*
X143549723Y-143185977D01*
X143484860Y-143290963D01*
X143422031Y-143397220D01*
X143361381Y-143504825D01*
X143303051Y-143613860D01*
X143247185Y-143724402D01*
X143193924Y-143836533D01*
X143193939Y-143836105D01*
X143190511Y-143842686D01*
X143186683Y-143848475D01*
X143182496Y-143853496D01*
X143177990Y-143857772D01*
X143173205Y-143861327D01*
X143168180Y-143864186D01*
X143162956Y-143866372D01*
X143157572Y-143867909D01*
X143152068Y-143868821D01*
X143146485Y-143869131D01*
X143140862Y-143868865D01*
X143135240Y-143868045D01*
X143129657Y-143866695D01*
X143124154Y-143864839D01*
X143118771Y-143862502D01*
X143113548Y-143859707D01*
X143108525Y-143856478D01*
X143103741Y-143852838D01*
X143099237Y-143848812D01*
X143095053Y-143844424D01*
X143091228Y-143839697D01*
X143087802Y-143834656D01*
X143084815Y-143829323D01*
X143082308Y-143823724D01*
X143080320Y-143817882D01*
X143078890Y-143811821D01*
X143078060Y-143805564D01*
X143077868Y-143799136D01*
X143078356Y-143792560D01*
X143079562Y-143785861D01*
X143081526Y-143779061D01*
X143084290Y-143772186D01*
X143138467Y-143658260D01*
X143195331Y-143545974D01*
X143254732Y-143435245D01*
X143316519Y-143325988D01*
X143380541Y-143218117D01*
X143446647Y-143111547D01*
X143584511Y-142901974D01*
X143728903Y-142696587D01*
X143878618Y-142494708D01*
X144032450Y-142295657D01*
X144189194Y-142098755D01*
X144194101Y-142093208D01*
X144199198Y-142088534D01*
X144204454Y-142084698D01*
X144209836Y-142081667D01*
X144215310Y-142079409D01*
X144220844Y-142077890D01*
X144226405Y-142077075D01*
X144231962Y-142076933D01*
X144237481Y-142077430D01*
G37*
G36*
X148421380Y-126037013D02*
G01*
X148486241Y-126041581D01*
X148548990Y-126049100D01*
X148609649Y-126059596D01*
X148668239Y-126073092D01*
X148724783Y-126089613D01*
X148779304Y-126109185D01*
X148831824Y-126131833D01*
X148882364Y-126157581D01*
X148930947Y-126186455D01*
X148977595Y-126218479D01*
X149022330Y-126253678D01*
X149065175Y-126292077D01*
X149106151Y-126333701D01*
X149145281Y-126378575D01*
X149182587Y-126426724D01*
X149218091Y-126478173D01*
X149251815Y-126532947D01*
X149283782Y-126591071D01*
X149342533Y-126717466D01*
X149394519Y-126857560D01*
X149439919Y-127011550D01*
X149478910Y-127179637D01*
X149511670Y-127362020D01*
X149538376Y-127558899D01*
X149769562Y-129536743D01*
X149789300Y-129743659D01*
X149795268Y-129841847D01*
X149798610Y-129936564D01*
X149799307Y-130027844D01*
X149797337Y-130115718D01*
X149792683Y-130200220D01*
X149785323Y-130281381D01*
X149775239Y-130359234D01*
X149762412Y-130433811D01*
X149746821Y-130505145D01*
X149728447Y-130573268D01*
X149707270Y-130638212D01*
X149683271Y-130700010D01*
X149656430Y-130758695D01*
X149626728Y-130814299D01*
X149594145Y-130866853D01*
X149558661Y-130916392D01*
X149520258Y-130962946D01*
X149478914Y-131006549D01*
X149434611Y-131047232D01*
X149387330Y-131085029D01*
X149337050Y-131119971D01*
X149283751Y-131152092D01*
X149227416Y-131181423D01*
X149168023Y-131207997D01*
X149105553Y-131231846D01*
X149039987Y-131253003D01*
X148971305Y-131271500D01*
X148899488Y-131287369D01*
X148824516Y-131300644D01*
X148746368Y-131311356D01*
X148742393Y-131235357D01*
X148737061Y-131157536D01*
X148730138Y-131077557D01*
X148721390Y-130995087D01*
X148490204Y-129017334D01*
X148461504Y-128807847D01*
X148425903Y-128614838D01*
X148405447Y-128524436D01*
X148383184Y-128438062D01*
X148359088Y-128355687D01*
X148333132Y-128277280D01*
X148305289Y-128202810D01*
X148275533Y-128132248D01*
X148243835Y-128065564D01*
X148210170Y-128002726D01*
X148174510Y-127943705D01*
X148136829Y-127888471D01*
X148097099Y-127836993D01*
X148055294Y-127789242D01*
X148011387Y-127745186D01*
X147965350Y-127704796D01*
X147917158Y-127668041D01*
X147866782Y-127634892D01*
X147814197Y-127605317D01*
X147759375Y-127579288D01*
X147702290Y-127556773D01*
X147642913Y-127537742D01*
X147581220Y-127522165D01*
X147517182Y-127510012D01*
X147450772Y-127501252D01*
X147381965Y-127495856D01*
X147310732Y-127493794D01*
X147237047Y-127495034D01*
X147160884Y-127499546D01*
X147082214Y-127507301D01*
X147061462Y-127510452D01*
X147056823Y-127337521D01*
X147057749Y-127255732D01*
X147060868Y-127177006D01*
X147066204Y-127101302D01*
X147073778Y-127028578D01*
X147083613Y-126958794D01*
X147095732Y-126891908D01*
X147110157Y-126827879D01*
X147126911Y-126766666D01*
X147146016Y-126708227D01*
X147167496Y-126652521D01*
X147191372Y-126599507D01*
X147217667Y-126549144D01*
X147246404Y-126501391D01*
X147277605Y-126456205D01*
X147311293Y-126413547D01*
X147347490Y-126373375D01*
X147386220Y-126335647D01*
X147427503Y-126300322D01*
X147471364Y-126267360D01*
X147517825Y-126236718D01*
X147566907Y-126208357D01*
X147618634Y-126182233D01*
X147673029Y-126158307D01*
X147730114Y-126136537D01*
X147789911Y-126116881D01*
X147852442Y-126099299D01*
X147917732Y-126083749D01*
X147985801Y-126070191D01*
X148056674Y-126058582D01*
X148130371Y-126048882D01*
X148170031Y-126044599D01*
X148209061Y-126041122D01*
X148247461Y-126038470D01*
X148266426Y-126037459D01*
X148285233Y-126036659D01*
X148285233Y-126036629D01*
X148421380Y-126037013D01*
G37*
G36*
X138778519Y-130072378D02*
G01*
X138778518Y-130072384D01*
X138778517Y-130072390D01*
X138778516Y-130072396D01*
X138778514Y-130072408D01*
X138778511Y-130072420D01*
X138778508Y-130072433D01*
X138778507Y-130072440D01*
X138778506Y-130072448D01*
X138778505Y-130072455D01*
X138778504Y-130072463D01*
X138778504Y-130072471D01*
X138778503Y-130072479D01*
X138669435Y-130219221D01*
X138552451Y-130356223D01*
X138427979Y-130484009D01*
X138296446Y-130603101D01*
X138158278Y-130714022D01*
X138013904Y-130817296D01*
X137863749Y-130913445D01*
X137708242Y-131002993D01*
X137547810Y-131086461D01*
X137382880Y-131164374D01*
X137213878Y-131237254D01*
X137041232Y-131305624D01*
X136865370Y-131370007D01*
X136686718Y-131430926D01*
X136322754Y-131544464D01*
X135896942Y-131520966D01*
X135457077Y-131496414D01*
X135070129Y-131474823D01*
X134760239Y-131457458D01*
X134621004Y-131450653D01*
X134551449Y-131446949D01*
X134482101Y-131442245D01*
X134480952Y-131442243D01*
X134479748Y-131442225D01*
X134478509Y-131442176D01*
X134477251Y-131442081D01*
X134476621Y-131442012D01*
X134475994Y-131441925D01*
X134475372Y-131441819D01*
X134474756Y-131441692D01*
X134474151Y-131441542D01*
X134473556Y-131441366D01*
X134472976Y-131441164D01*
X134472412Y-131440933D01*
X134470932Y-131440351D01*
X134469508Y-131439641D01*
X134468139Y-131438811D01*
X134466825Y-131437867D01*
X134465564Y-131436815D01*
X134464358Y-131435663D01*
X134463205Y-131434416D01*
X134462105Y-131433083D01*
X134460061Y-131430180D01*
X134458222Y-131427008D01*
X134456586Y-131423621D01*
X134455149Y-131420071D01*
X134453906Y-131416412D01*
X134452854Y-131412697D01*
X134451989Y-131408980D01*
X134451308Y-131405313D01*
X134450808Y-131401752D01*
X134450483Y-131398348D01*
X134450331Y-131395155D01*
X134450348Y-131392227D01*
X134450698Y-131388088D01*
X134451497Y-131384079D01*
X134452719Y-131380197D01*
X134454342Y-131376440D01*
X134456342Y-131372804D01*
X134458696Y-131369286D01*
X134461380Y-131365884D01*
X134464370Y-131362593D01*
X134467643Y-131359411D01*
X134471175Y-131356336D01*
X134478922Y-131350489D01*
X134487423Y-131345029D01*
X134496490Y-131339931D01*
X134505934Y-131335171D01*
X134515567Y-131330723D01*
X134534642Y-131322666D01*
X134552209Y-131315564D01*
X134566757Y-131309219D01*
X134606541Y-131290408D01*
X134646488Y-131272047D01*
X134686590Y-131254084D01*
X134726837Y-131236465D01*
X134863932Y-131180731D01*
X135007997Y-131128780D01*
X135158493Y-131080127D01*
X135314879Y-131034290D01*
X135643161Y-130949128D01*
X135988523Y-130869423D01*
X136713206Y-130710907D01*
X137083885Y-130624357D01*
X137454361Y-130527786D01*
X137626213Y-130478773D01*
X137796869Y-130428246D01*
X137966022Y-130375830D01*
X138133366Y-130321154D01*
X138298594Y-130263843D01*
X138461400Y-130203524D01*
X138621477Y-130139825D01*
X138778519Y-130072372D01*
X138778519Y-130072378D01*
G37*
G36*
X131102045Y-124526031D02*
G01*
X131059276Y-124598687D01*
X131018988Y-124672917D01*
X130981195Y-124748726D01*
X130945914Y-124826113D01*
X130913159Y-124905083D01*
X130882946Y-124985636D01*
X130855291Y-125067776D01*
X130830210Y-125151503D01*
X130807717Y-125236821D01*
X130787829Y-125323732D01*
X130770561Y-125412237D01*
X130755928Y-125502340D01*
X130743946Y-125594041D01*
X130734630Y-125687344D01*
X130727997Y-125782249D01*
X130727256Y-125796206D01*
X130726612Y-125810151D01*
X130726066Y-125824097D01*
X130725616Y-125838058D01*
X130725002Y-125935132D01*
X130729187Y-126031300D01*
X130738171Y-126126401D01*
X130751954Y-126220272D01*
X130770534Y-126312752D01*
X130793909Y-126403679D01*
X130822078Y-126492891D01*
X130855041Y-126580226D01*
X130892797Y-126665522D01*
X130935343Y-126748617D01*
X130982679Y-126829349D01*
X131034804Y-126907557D01*
X131091717Y-126983078D01*
X131153416Y-127055751D01*
X131219900Y-127125413D01*
X131291168Y-127191902D01*
X131323728Y-127220015D01*
X131356937Y-127247512D01*
X131390770Y-127274371D01*
X131425202Y-127300572D01*
X131460207Y-127326093D01*
X131495759Y-127350914D01*
X131531834Y-127375013D01*
X131568405Y-127398369D01*
X131605448Y-127420961D01*
X131642937Y-127442768D01*
X131680846Y-127463769D01*
X131719150Y-127483943D01*
X131757824Y-127503269D01*
X131796842Y-127521726D01*
X131836179Y-127539292D01*
X131875809Y-127555946D01*
X132100750Y-127647924D01*
X132216235Y-127692422D01*
X132274628Y-127713331D01*
X132333414Y-127732979D01*
X132392565Y-127751089D01*
X132452050Y-127767385D01*
X132511841Y-127781590D01*
X132571906Y-127793429D01*
X132632218Y-127802625D01*
X132692746Y-127808902D01*
X132753460Y-127811983D01*
X132814331Y-127811592D01*
X132786753Y-127832542D01*
X132759446Y-127853881D01*
X132732450Y-127875653D01*
X132705803Y-127897897D01*
X132679545Y-127920655D01*
X132653716Y-127943968D01*
X132628355Y-127967877D01*
X132603500Y-127992424D01*
X132538458Y-128061315D01*
X132475889Y-128132642D01*
X132355334Y-128279207D01*
X132236154Y-128425327D01*
X132175306Y-128496098D01*
X132112673Y-128564210D01*
X132047544Y-128628814D01*
X131979210Y-128689062D01*
X131943619Y-128717287D01*
X131906961Y-128744105D01*
X131869146Y-128769408D01*
X131830086Y-128793092D01*
X131789693Y-128815050D01*
X131747877Y-128835176D01*
X131704551Y-128853364D01*
X131659624Y-128869507D01*
X131613008Y-128883500D01*
X131564616Y-128895236D01*
X131514357Y-128904610D01*
X131462143Y-128911514D01*
X131397038Y-128916141D01*
X131332080Y-128916438D01*
X131267303Y-128912748D01*
X131202744Y-128905415D01*
X131138439Y-128894782D01*
X131074422Y-128881194D01*
X131010731Y-128864994D01*
X130947401Y-128846525D01*
X130884468Y-128826131D01*
X130821967Y-128804156D01*
X130698406Y-128756837D01*
X130458054Y-128658340D01*
X130418423Y-128641685D01*
X130379086Y-128624118D01*
X130340067Y-128605661D01*
X130301393Y-128586335D01*
X130263087Y-128566161D01*
X130225177Y-128545161D01*
X130187687Y-128523354D01*
X130150642Y-128500763D01*
X130114070Y-128477408D01*
X130077994Y-128453309D01*
X130042440Y-128428489D01*
X130007434Y-128402968D01*
X129973001Y-128376768D01*
X129939167Y-128349908D01*
X129905958Y-128322411D01*
X129873398Y-128294296D01*
X129802130Y-128227807D01*
X129735645Y-128158145D01*
X129673947Y-128085473D01*
X129617034Y-128009952D01*
X129564909Y-127931745D01*
X129517574Y-127851013D01*
X129475028Y-127767919D01*
X129437273Y-127682623D01*
X129404311Y-127595288D01*
X129376142Y-127506077D01*
X129352768Y-127415150D01*
X129334190Y-127322669D01*
X129320409Y-127228798D01*
X129311427Y-127133696D01*
X129307244Y-127037527D01*
X129307861Y-126940453D01*
X129308156Y-126926479D01*
X129308651Y-126912506D01*
X129309346Y-126898533D01*
X129310242Y-126884560D01*
X129325811Y-126699452D01*
X129337455Y-126609213D01*
X129351654Y-126520516D01*
X129368396Y-126433359D01*
X129387666Y-126347741D01*
X129409453Y-126263661D01*
X129433741Y-126181118D01*
X129460519Y-126100110D01*
X129489774Y-126020637D01*
X129521491Y-125942696D01*
X129555658Y-125866287D01*
X129592261Y-125791409D01*
X129631288Y-125718059D01*
X129672725Y-125646238D01*
X129716558Y-125575943D01*
X129762776Y-125507174D01*
X129811364Y-125439929D01*
X129862309Y-125374207D01*
X129915599Y-125310006D01*
X129971219Y-125247326D01*
X130029157Y-125186166D01*
X130151934Y-125068397D01*
X130283823Y-124956691D01*
X130424719Y-124851037D01*
X130574516Y-124751424D01*
X130733109Y-124657845D01*
X130782013Y-124630274D01*
X130831790Y-124603373D01*
X130882411Y-124577123D01*
X130933851Y-124551504D01*
X130986083Y-124526497D01*
X131039080Y-124502081D01*
X131092815Y-124478238D01*
X131147263Y-124454948D01*
X131147278Y-124454948D01*
X131102045Y-124526031D01*
G37*
G36*
X150705410Y-138170551D02*
G01*
X150712124Y-138172077D01*
X150719101Y-138174454D01*
X150845370Y-138228820D01*
X150966270Y-138289231D01*
X151081886Y-138355492D01*
X151192305Y-138427408D01*
X151297614Y-138504783D01*
X151397901Y-138587422D01*
X151493252Y-138675130D01*
X151583754Y-138767712D01*
X151669493Y-138864971D01*
X151750556Y-138966714D01*
X151827032Y-139072744D01*
X151899005Y-139182866D01*
X151966563Y-139296885D01*
X152029793Y-139414605D01*
X152088782Y-139535832D01*
X152143616Y-139660370D01*
X152146145Y-139667307D01*
X152147812Y-139673981D01*
X152148661Y-139680382D01*
X152148738Y-139686497D01*
X152148089Y-139692315D01*
X152146759Y-139697824D01*
X152144792Y-139703012D01*
X152142234Y-139707868D01*
X152139131Y-139712379D01*
X152135527Y-139716535D01*
X152131468Y-139720323D01*
X152127000Y-139723732D01*
X152122167Y-139726750D01*
X152117014Y-139729366D01*
X152111588Y-139731566D01*
X152105932Y-139733341D01*
X152100093Y-139734678D01*
X152094116Y-139735566D01*
X152088046Y-139735992D01*
X152081929Y-139735945D01*
X152075808Y-139735414D01*
X152069731Y-139734386D01*
X152063742Y-139732850D01*
X152057886Y-139730794D01*
X152052209Y-139728207D01*
X152046755Y-139725076D01*
X152041571Y-139721391D01*
X152036701Y-139717139D01*
X152032191Y-139712308D01*
X152028085Y-139706887D01*
X152024430Y-139700865D01*
X152021271Y-139694229D01*
X151970064Y-139578023D01*
X151914829Y-139464663D01*
X151855505Y-139354364D01*
X151792035Y-139247342D01*
X151724357Y-139143812D01*
X151652413Y-139043991D01*
X151576143Y-138948095D01*
X151495487Y-138856339D01*
X151410387Y-138768938D01*
X151320782Y-138686109D01*
X151226613Y-138608068D01*
X151127820Y-138535030D01*
X151024345Y-138467211D01*
X150916127Y-138404827D01*
X150803108Y-138348093D01*
X150685226Y-138297226D01*
X150685242Y-138296799D01*
X150678531Y-138293755D01*
X150672440Y-138290211D01*
X150666959Y-138286212D01*
X150662074Y-138281802D01*
X150657774Y-138277026D01*
X150654046Y-138271930D01*
X150650880Y-138266558D01*
X150648263Y-138260956D01*
X150646182Y-138255169D01*
X150644627Y-138249241D01*
X150643585Y-138243217D01*
X150643044Y-138237144D01*
X150642993Y-138231065D01*
X150643419Y-138225026D01*
X150644310Y-138219072D01*
X150645655Y-138213247D01*
X150647441Y-138207598D01*
X150649657Y-138202168D01*
X150652290Y-138197003D01*
X150655330Y-138192148D01*
X150658763Y-138187648D01*
X150662577Y-138183548D01*
X150666762Y-138179893D01*
X150671305Y-138176728D01*
X150676194Y-138174098D01*
X150681417Y-138172048D01*
X150686962Y-138170624D01*
X150692817Y-138169869D01*
X150698970Y-138169830D01*
X150705410Y-138170551D01*
G37*
G36*
X131654192Y-148901598D02*
G01*
X131660148Y-148902287D01*
X131666040Y-148903565D01*
X131671828Y-148905455D01*
X131677471Y-148907980D01*
X131682929Y-148911163D01*
X131688162Y-148915027D01*
X131693128Y-148919596D01*
X131697789Y-148924892D01*
X131702103Y-148930939D01*
X131738963Y-148984744D01*
X131777963Y-149034643D01*
X131819003Y-149080767D01*
X131861986Y-149123246D01*
X131906812Y-149162209D01*
X131953384Y-149197788D01*
X132001603Y-149230111D01*
X132051371Y-149259310D01*
X132102590Y-149285514D01*
X132155160Y-149308853D01*
X132208984Y-149329459D01*
X132263963Y-149347460D01*
X132376995Y-149376171D01*
X132493467Y-149396027D01*
X132612594Y-149408069D01*
X132733588Y-149413339D01*
X132855662Y-149412879D01*
X132978029Y-149407728D01*
X133220498Y-149387523D01*
X133454697Y-149361053D01*
X133462075Y-149360533D01*
X133468971Y-149360770D01*
X133475384Y-149361718D01*
X133481316Y-149363329D01*
X133486767Y-149365556D01*
X133491737Y-149368354D01*
X133496228Y-149371675D01*
X133500241Y-149375472D01*
X133503775Y-149379700D01*
X133506831Y-149384310D01*
X133509411Y-149389257D01*
X133511515Y-149394493D01*
X133513144Y-149399972D01*
X133514298Y-149405647D01*
X133514978Y-149411471D01*
X133515184Y-149417398D01*
X133514919Y-149423381D01*
X133514181Y-149429373D01*
X133512972Y-149435328D01*
X133511293Y-149441197D01*
X133509143Y-149446936D01*
X133506525Y-149452497D01*
X133503439Y-149457833D01*
X133499884Y-149462898D01*
X133495863Y-149467645D01*
X133491375Y-149472027D01*
X133486422Y-149475997D01*
X133481004Y-149479508D01*
X133475122Y-149482515D01*
X133468776Y-149484970D01*
X133461967Y-149486826D01*
X133454697Y-149488037D01*
X133201047Y-149515464D01*
X133071661Y-149526300D01*
X132941553Y-149533851D01*
X132811459Y-149537091D01*
X132682119Y-149534994D01*
X132554269Y-149526534D01*
X132428648Y-149510687D01*
X132305994Y-149486426D01*
X132246010Y-149470819D01*
X132187044Y-149452725D01*
X132129189Y-149432015D01*
X132072537Y-149408559D01*
X132017180Y-149382232D01*
X131963210Y-149352903D01*
X131910720Y-149320445D01*
X131859802Y-149284730D01*
X131810548Y-149245630D01*
X131763051Y-149203016D01*
X131717402Y-149156760D01*
X131673693Y-149106733D01*
X131632018Y-149052809D01*
X131592468Y-148994858D01*
X131588746Y-148988409D01*
X131585888Y-148982016D01*
X131583856Y-148975701D01*
X131582607Y-148969487D01*
X131582103Y-148963399D01*
X131582302Y-148957459D01*
X131583165Y-148951690D01*
X131584650Y-148946116D01*
X131586717Y-148940759D01*
X131589327Y-148935643D01*
X131592438Y-148930791D01*
X131596010Y-148926226D01*
X131600003Y-148921972D01*
X131604377Y-148918051D01*
X131609090Y-148914487D01*
X131614103Y-148911303D01*
X131619376Y-148908521D01*
X131624867Y-148906167D01*
X131630537Y-148904261D01*
X131636344Y-148902828D01*
X131642250Y-148901891D01*
X131648212Y-148901473D01*
X131654192Y-148901598D01*
G37*
G36*
X153781196Y-145795403D02*
G01*
X153787143Y-145796129D01*
X153793029Y-145797332D01*
X153798809Y-145799012D01*
X153804434Y-145801169D01*
X153809859Y-145803802D01*
X153815038Y-145806911D01*
X153819923Y-145810495D01*
X153824468Y-145814556D01*
X153828627Y-145819092D01*
X153832354Y-145824103D01*
X153835601Y-145829589D01*
X153838322Y-145835549D01*
X153840470Y-145841985D01*
X153842000Y-145848894D01*
X153842865Y-145856277D01*
X153846659Y-145922722D01*
X153848956Y-145989959D01*
X153849460Y-146057720D01*
X153847874Y-146125736D01*
X153843903Y-146193737D01*
X153837249Y-146261454D01*
X153827616Y-146328618D01*
X153814709Y-146394960D01*
X153798229Y-146460211D01*
X153777882Y-146524102D01*
X153753370Y-146586363D01*
X153724397Y-146646724D01*
X153708145Y-146676109D01*
X153690667Y-146704918D01*
X153671925Y-146733118D01*
X153651883Y-146760675D01*
X153630503Y-146787555D01*
X153607749Y-146813725D01*
X153583583Y-146839151D01*
X153557968Y-146863800D01*
X153531224Y-146887312D01*
X153503723Y-146909376D01*
X153446588Y-146949312D01*
X153386851Y-146983910D01*
X153324797Y-147013472D01*
X153260711Y-147038302D01*
X153194880Y-147058702D01*
X153127589Y-147074974D01*
X153059124Y-147087421D01*
X152989771Y-147096347D01*
X152919816Y-147102052D01*
X152849545Y-147104840D01*
X152779243Y-147105014D01*
X152709197Y-147102876D01*
X152639692Y-147098729D01*
X152503448Y-147085617D01*
X152496141Y-147084409D01*
X152489303Y-147082557D01*
X152482934Y-147080109D01*
X152477035Y-147077110D01*
X152471606Y-147073608D01*
X152466646Y-147069649D01*
X152462157Y-147065279D01*
X152458138Y-147060544D01*
X152454591Y-147055492D01*
X152451514Y-147050169D01*
X152448908Y-147044622D01*
X152446773Y-147038896D01*
X152445111Y-147033039D01*
X152443920Y-147027096D01*
X152443201Y-147021115D01*
X152442955Y-147015142D01*
X152443181Y-147009224D01*
X152443881Y-147003407D01*
X152445053Y-146997737D01*
X152446698Y-146992261D01*
X152448817Y-146987026D01*
X152451410Y-146982077D01*
X152454477Y-146977463D01*
X152458018Y-146973228D01*
X152462034Y-146969420D01*
X152466524Y-146966086D01*
X152471490Y-146963271D01*
X152476930Y-146961022D01*
X152482846Y-146959385D01*
X152489237Y-146958408D01*
X152496105Y-146958137D01*
X152503448Y-146958618D01*
X152626558Y-146970778D01*
X152689852Y-146975044D01*
X152753894Y-146977698D01*
X152818372Y-146978437D01*
X152882978Y-146976957D01*
X152947399Y-146972958D01*
X153011328Y-146966135D01*
X153074453Y-146956187D01*
X153136464Y-146942811D01*
X153197052Y-146925704D01*
X153255907Y-146904564D01*
X153312718Y-146879088D01*
X153340260Y-146864630D01*
X153367175Y-146848974D01*
X153393424Y-146832083D01*
X153418969Y-146813919D01*
X153443770Y-146794444D01*
X153467789Y-146773621D01*
X153490720Y-146751700D01*
X153512310Y-146728988D01*
X153532597Y-146705518D01*
X153551614Y-146681327D01*
X153585988Y-146630926D01*
X153615721Y-146578068D01*
X153641100Y-146523040D01*
X153662415Y-146466129D01*
X153679954Y-146407618D01*
X153694004Y-146347795D01*
X153704855Y-146286946D01*
X153712794Y-146225355D01*
X153718111Y-146163308D01*
X153721092Y-146101092D01*
X153722028Y-146038992D01*
X153721205Y-145977294D01*
X153715439Y-145856247D01*
X153715866Y-145856277D01*
X153715730Y-145848858D01*
X153716324Y-145841919D01*
X153717601Y-145835461D01*
X153719516Y-145829484D01*
X153722020Y-145823987D01*
X153725069Y-145818970D01*
X153728615Y-145814433D01*
X153732611Y-145810375D01*
X153737012Y-145806797D01*
X153741771Y-145803698D01*
X153746841Y-145801078D01*
X153752176Y-145798937D01*
X153757730Y-145797274D01*
X153763455Y-145796090D01*
X153769305Y-145795383D01*
X153775234Y-145795155D01*
X153781196Y-145795403D01*
G37*
G36*
X131017929Y-130232182D02*
G01*
X130944657Y-130323240D01*
X130874810Y-130416280D01*
X130808559Y-130511329D01*
X130746076Y-130608413D01*
X130687535Y-130707557D01*
X130633106Y-130808788D01*
X130582962Y-130912132D01*
X130537276Y-131017615D01*
X130496219Y-131125262D01*
X130459965Y-131235099D01*
X130428685Y-131347153D01*
X130402551Y-131461450D01*
X130381736Y-131578015D01*
X130366412Y-131696874D01*
X130356750Y-131818054D01*
X130312775Y-132620239D01*
X130312775Y-132620773D01*
X130301383Y-132951244D01*
X130306653Y-133246517D01*
X130315945Y-133381613D01*
X130329890Y-133508700D01*
X130348654Y-133628042D01*
X130372397Y-133739902D01*
X130401284Y-133844544D01*
X130435477Y-133942231D01*
X130475139Y-134033227D01*
X130520434Y-134117796D01*
X130571523Y-134196201D01*
X130628570Y-134268705D01*
X130691738Y-134335572D01*
X130761190Y-134397066D01*
X130837089Y-134453450D01*
X130919597Y-134504988D01*
X131008878Y-134551944D01*
X131105095Y-134594580D01*
X131208410Y-134633161D01*
X131318986Y-134667950D01*
X131562575Y-134727206D01*
X131837164Y-134774458D01*
X132144057Y-134811812D01*
X132484558Y-134841378D01*
X132859970Y-134865265D01*
X138259521Y-135164154D01*
X138356419Y-135168634D01*
X138450545Y-135171235D01*
X138541983Y-135172004D01*
X138630816Y-135170988D01*
X138717125Y-135168235D01*
X138800995Y-135163791D01*
X138882508Y-135157706D01*
X138961746Y-135150024D01*
X138919496Y-135292865D01*
X138867264Y-135426604D01*
X138804610Y-135551104D01*
X138731095Y-135666228D01*
X138646279Y-135771840D01*
X138549723Y-135867802D01*
X138496905Y-135912122D01*
X138440987Y-135953978D01*
X138319632Y-136030230D01*
X138185218Y-136096421D01*
X138037306Y-136152415D01*
X137875457Y-136198074D01*
X137699230Y-136233261D01*
X137508188Y-136257840D01*
X137301889Y-136271674D01*
X137079895Y-136274625D01*
X136841766Y-136266556D01*
X131442200Y-135967667D01*
X131066788Y-135943780D01*
X130726287Y-135914213D01*
X130419395Y-135876858D01*
X130144807Y-135829606D01*
X130019219Y-135801610D01*
X129901219Y-135770348D01*
X129790644Y-135735559D01*
X129687329Y-135696977D01*
X129591114Y-135654340D01*
X129501833Y-135607384D01*
X129419326Y-135555845D01*
X129343428Y-135499460D01*
X129273976Y-135437965D01*
X129210809Y-135371097D01*
X129153762Y-135298593D01*
X129102674Y-135220187D01*
X129057380Y-135135618D01*
X129017718Y-135044621D01*
X128983526Y-134946934D01*
X128954640Y-134842291D01*
X128930897Y-134730431D01*
X128912134Y-134611088D01*
X128898188Y-134484001D01*
X128888898Y-134348904D01*
X128884098Y-134205536D01*
X128883627Y-134053631D01*
X128895020Y-133723160D01*
X128895020Y-133722626D01*
X128938995Y-132920456D01*
X128948179Y-132803536D01*
X128962577Y-132688746D01*
X128982041Y-132576065D01*
X129006426Y-132465476D01*
X129035586Y-132356961D01*
X129069376Y-132250500D01*
X129107648Y-132146075D01*
X129150258Y-132043668D01*
X129197059Y-131943260D01*
X129247905Y-131844833D01*
X129302650Y-131748369D01*
X129361148Y-131653848D01*
X129488820Y-131470563D01*
X129629753Y-131294832D01*
X129782779Y-131126506D01*
X129946729Y-130965437D01*
X130120437Y-130811478D01*
X130302733Y-130664480D01*
X130492451Y-130524295D01*
X130688422Y-130390776D01*
X130889478Y-130263775D01*
X131094346Y-130143205D01*
X131017929Y-130232182D01*
G37*
G36*
X148614309Y-125458251D02*
G01*
X148688663Y-125463126D01*
X148762432Y-125471186D01*
X148835409Y-125482662D01*
X148907386Y-125497784D01*
X148978156Y-125516783D01*
X149047512Y-125539889D01*
X149115247Y-125567334D01*
X149181154Y-125599348D01*
X149245026Y-125636162D01*
X149305753Y-125677280D01*
X149362449Y-125721904D01*
X149415252Y-125769809D01*
X149464298Y-125820768D01*
X149509725Y-125874559D01*
X149551669Y-125930954D01*
X149590269Y-125989730D01*
X149625660Y-126050660D01*
X149657980Y-126113520D01*
X149687367Y-126178086D01*
X149713957Y-126244130D01*
X149737887Y-126311429D01*
X149759295Y-126379758D01*
X149778317Y-126448891D01*
X149795091Y-126518603D01*
X149809753Y-126588669D01*
X149810826Y-126596032D01*
X149811134Y-126603113D01*
X149810723Y-126609899D01*
X149809638Y-126616377D01*
X149807924Y-126622535D01*
X149805625Y-126628360D01*
X149802786Y-126633841D01*
X149799452Y-126638965D01*
X149795668Y-126643719D01*
X149791478Y-126648091D01*
X149786927Y-126652068D01*
X149782061Y-126655639D01*
X149776924Y-126658790D01*
X149771560Y-126661510D01*
X149766016Y-126663786D01*
X149760334Y-126665606D01*
X149754561Y-126666956D01*
X149748740Y-126667826D01*
X149742918Y-126668202D01*
X149737138Y-126668071D01*
X149731445Y-126667423D01*
X149725885Y-126666244D01*
X149720501Y-126664521D01*
X149715340Y-126662243D01*
X149710445Y-126659397D01*
X149705861Y-126655970D01*
X149701634Y-126651951D01*
X149697807Y-126647326D01*
X149694427Y-126642084D01*
X149691537Y-126636212D01*
X149689183Y-126629697D01*
X149687408Y-126622528D01*
X149674262Y-126558745D01*
X149659471Y-126495174D01*
X149642858Y-126432026D01*
X149624246Y-126369513D01*
X149603459Y-126307845D01*
X149580319Y-126247235D01*
X149554651Y-126187894D01*
X149526278Y-126130033D01*
X149495022Y-126073863D01*
X149460707Y-126019597D01*
X149423156Y-125967445D01*
X149382192Y-125917619D01*
X149360376Y-125893644D01*
X149337640Y-125870330D01*
X149313962Y-125847704D01*
X149289321Y-125825791D01*
X149263695Y-125804618D01*
X149237060Y-125784211D01*
X149209396Y-125764598D01*
X149180679Y-125745804D01*
X149121301Y-125711426D01*
X149060277Y-125681638D01*
X148997778Y-125656207D01*
X148933975Y-125634900D01*
X148869039Y-125617485D01*
X148803140Y-125603730D01*
X148736448Y-125593401D01*
X148669134Y-125586266D01*
X148601369Y-125582092D01*
X148533322Y-125580648D01*
X148465166Y-125581699D01*
X148397069Y-125585015D01*
X148329203Y-125590362D01*
X148261737Y-125597508D01*
X148128693Y-125616264D01*
X148121328Y-125617105D01*
X148114245Y-125617197D01*
X148107454Y-125616585D01*
X148100969Y-125615313D01*
X148094802Y-125613427D01*
X148088967Y-125610971D01*
X148083475Y-125607990D01*
X148078339Y-125604530D01*
X148073572Y-125600633D01*
X148069187Y-125596347D01*
X148065196Y-125591714D01*
X148061611Y-125586781D01*
X148058447Y-125581591D01*
X148055714Y-125576191D01*
X148053426Y-125570624D01*
X148051596Y-125564935D01*
X148050235Y-125559169D01*
X148049358Y-125553371D01*
X148048975Y-125547586D01*
X148049101Y-125541859D01*
X148049747Y-125536234D01*
X148050927Y-125530756D01*
X148052652Y-125525470D01*
X148054936Y-125520420D01*
X148057791Y-125515653D01*
X148061230Y-125511212D01*
X148065266Y-125507141D01*
X148069911Y-125503487D01*
X148075177Y-125500294D01*
X148081078Y-125497606D01*
X148087626Y-125495469D01*
X148094833Y-125493927D01*
X148167487Y-125482967D01*
X148241004Y-125473576D01*
X148315179Y-125465987D01*
X148389804Y-125460429D01*
X148464672Y-125457133D01*
X148539576Y-125456330D01*
X148614309Y-125458251D01*
G37*
G36*
X133672340Y-126507341D02*
G01*
X133677870Y-126508495D01*
X133683284Y-126510212D01*
X133688550Y-126512457D01*
X133693636Y-126515197D01*
X133698508Y-126518401D01*
X133703134Y-126522034D01*
X133707481Y-126526063D01*
X133711517Y-126530456D01*
X133715209Y-126535179D01*
X133718525Y-126540199D01*
X133721431Y-126545483D01*
X133723896Y-126550999D01*
X133725886Y-126556712D01*
X133727368Y-126562590D01*
X133728312Y-126568600D01*
X133728682Y-126574708D01*
X133728448Y-126580882D01*
X133727576Y-126587088D01*
X133726034Y-126593293D01*
X133723789Y-126599465D01*
X133720808Y-126605570D01*
X133717059Y-126611575D01*
X133712509Y-126617447D01*
X133609830Y-126733758D01*
X133556312Y-126791269D01*
X133501292Y-126847921D01*
X133444730Y-126903389D01*
X133386590Y-126957351D01*
X133326835Y-127009483D01*
X133265425Y-127059463D01*
X133202323Y-127106967D01*
X133137492Y-127151672D01*
X133070893Y-127193256D01*
X133002490Y-127231395D01*
X132932243Y-127265766D01*
X132860116Y-127296046D01*
X132786070Y-127321912D01*
X132710068Y-127343040D01*
X132644584Y-127356629D01*
X132579606Y-127365745D01*
X132515172Y-127370537D01*
X132451322Y-127371156D01*
X132388094Y-127367751D01*
X132325528Y-127360473D01*
X132263663Y-127349472D01*
X132202538Y-127334897D01*
X132142191Y-127316899D01*
X132082663Y-127295629D01*
X132023991Y-127271235D01*
X131966216Y-127243868D01*
X131909376Y-127213679D01*
X131853510Y-127180817D01*
X131798658Y-127145431D01*
X131744858Y-127107674D01*
X131744858Y-127107666D01*
X131739081Y-127103006D01*
X131734037Y-127098021D01*
X131729704Y-127092753D01*
X131726058Y-127087241D01*
X131723075Y-127081526D01*
X131720733Y-127075648D01*
X131719008Y-127069648D01*
X131717878Y-127063566D01*
X131717319Y-127057443D01*
X131717307Y-127051318D01*
X131717821Y-127045233D01*
X131718836Y-127039227D01*
X131720329Y-127033341D01*
X131722277Y-127027616D01*
X131724658Y-127022091D01*
X131727448Y-127016808D01*
X131730623Y-127011806D01*
X131734160Y-127007126D01*
X131738037Y-127002808D01*
X131742231Y-126998893D01*
X131746717Y-126995421D01*
X131751473Y-126992432D01*
X131756476Y-126989968D01*
X131761702Y-126988067D01*
X131767129Y-126986772D01*
X131772732Y-126986121D01*
X131778490Y-126986156D01*
X131784378Y-126986916D01*
X131790375Y-126988443D01*
X131796455Y-126990776D01*
X131802597Y-126993956D01*
X131808777Y-126998024D01*
X131860585Y-127034453D01*
X131913281Y-127068542D01*
X131966840Y-127100122D01*
X132021238Y-127129024D01*
X132076449Y-127155082D01*
X132132449Y-127178127D01*
X132189214Y-127197991D01*
X132246717Y-127214505D01*
X132304935Y-127227503D01*
X132363843Y-127236815D01*
X132423415Y-127242274D01*
X132483627Y-127243711D01*
X132544454Y-127240959D01*
X132605871Y-127233850D01*
X132667854Y-127222215D01*
X132730377Y-127205887D01*
X132798025Y-127183363D01*
X132863841Y-127156932D01*
X132927878Y-127126863D01*
X132990189Y-127093427D01*
X133050828Y-127056894D01*
X133109849Y-127017532D01*
X133167304Y-126975611D01*
X133223248Y-126931402D01*
X133277732Y-126885174D01*
X133330811Y-126837197D01*
X133382538Y-126787740D01*
X133432966Y-126737073D01*
X133482148Y-126685466D01*
X133530139Y-126633189D01*
X133622757Y-126527702D01*
X133627858Y-126522310D01*
X133633137Y-126517777D01*
X133638562Y-126514071D01*
X133644100Y-126511158D01*
X133649718Y-126509006D01*
X133655383Y-126507581D01*
X133661064Y-126506851D01*
X133666727Y-126506782D01*
X133672340Y-126507341D01*
G37*
G36*
X137817000Y-123714908D02*
G01*
X137823713Y-123716471D01*
X137830688Y-123718887D01*
X137992795Y-123786522D01*
X138152369Y-123858565D01*
X138309122Y-123935178D01*
X138462764Y-124016524D01*
X138613004Y-124102763D01*
X138759555Y-124194058D01*
X138902125Y-124290571D01*
X139040426Y-124392464D01*
X139174168Y-124499898D01*
X139303061Y-124613035D01*
X139426815Y-124732037D01*
X139545141Y-124857067D01*
X139657750Y-124988285D01*
X139764352Y-125125854D01*
X139864656Y-125269936D01*
X139958374Y-125420692D01*
X139961827Y-125427295D01*
X139964436Y-125433832D01*
X139966238Y-125440281D01*
X139967276Y-125446618D01*
X139967589Y-125452820D01*
X139967217Y-125458865D01*
X139966200Y-125464728D01*
X139964579Y-125470386D01*
X139962393Y-125475817D01*
X139959683Y-125480997D01*
X139956490Y-125485904D01*
X139952852Y-125490513D01*
X139948811Y-125494802D01*
X139944406Y-125498747D01*
X139939677Y-125502326D01*
X139934666Y-125505515D01*
X139929411Y-125508291D01*
X139923953Y-125510631D01*
X139918333Y-125512511D01*
X139912590Y-125513909D01*
X139906764Y-125514802D01*
X139900897Y-125515165D01*
X139895027Y-125514976D01*
X139889194Y-125514212D01*
X139883441Y-125512850D01*
X139877805Y-125510866D01*
X139872328Y-125508238D01*
X139867049Y-125504941D01*
X139862010Y-125500953D01*
X139857249Y-125496251D01*
X139852807Y-125490812D01*
X139848724Y-125484612D01*
X139758438Y-125339396D01*
X139661760Y-125200516D01*
X139558975Y-125067828D01*
X139450368Y-124941190D01*
X139336225Y-124820458D01*
X139216831Y-124705488D01*
X139092471Y-124596138D01*
X138963430Y-124492265D01*
X138829994Y-124393724D01*
X138692448Y-124300373D01*
X138551077Y-124212069D01*
X138406166Y-124128668D01*
X138258000Y-124050027D01*
X138106866Y-123976003D01*
X137953047Y-123906452D01*
X137796829Y-123841232D01*
X137790118Y-123838150D01*
X137784028Y-123834570D01*
X137778547Y-123830536D01*
X137773662Y-123826095D01*
X137769362Y-123821290D01*
X137765635Y-123816167D01*
X137762469Y-123810772D01*
X137759852Y-123805148D01*
X137757773Y-123799342D01*
X137756218Y-123793397D01*
X137755176Y-123787360D01*
X137754636Y-123781275D01*
X137754585Y-123775187D01*
X137755011Y-123769142D01*
X137755903Y-123763184D01*
X137757248Y-123757358D01*
X137759035Y-123751709D01*
X137761251Y-123746283D01*
X137763884Y-123741124D01*
X137766924Y-123736278D01*
X137770357Y-123731789D01*
X137774172Y-123727703D01*
X137778356Y-123724064D01*
X137782899Y-123720918D01*
X137787787Y-123718310D01*
X137793010Y-123716284D01*
X137798554Y-123714886D01*
X137804409Y-123714160D01*
X137810561Y-123714153D01*
X137817000Y-123714908D01*
G37*
G36*
X131130641Y-139411533D02*
G01*
X131136467Y-139412427D01*
X131142210Y-139413830D01*
X131147830Y-139415716D01*
X131153288Y-139418064D01*
X131158543Y-139420849D01*
X131163554Y-139424048D01*
X131168283Y-139427638D01*
X131172687Y-139431596D01*
X131176729Y-139435898D01*
X131180366Y-139440520D01*
X131183560Y-139445439D01*
X131186270Y-139450633D01*
X131188456Y-139456076D01*
X131190077Y-139461747D01*
X131191094Y-139467621D01*
X131191466Y-139473675D01*
X131191153Y-139479886D01*
X131190115Y-139486230D01*
X131188312Y-139492684D01*
X131185704Y-139499225D01*
X131182251Y-139505829D01*
X131065819Y-139709272D01*
X130952261Y-139924386D01*
X130898561Y-140035614D01*
X130847981Y-140148914D01*
X130801322Y-140264003D01*
X130759384Y-140380600D01*
X130722968Y-140498422D01*
X130692874Y-140617187D01*
X130669903Y-140736613D01*
X130654856Y-140856418D01*
X130648532Y-140976320D01*
X130651733Y-141096036D01*
X130657156Y-141155737D01*
X130665259Y-141215286D01*
X130676144Y-141274647D01*
X130689911Y-141333786D01*
X130702909Y-141379850D01*
X130717732Y-141424706D01*
X130734324Y-141468374D01*
X130752623Y-141510872D01*
X130772573Y-141552218D01*
X130794112Y-141592430D01*
X130817184Y-141631527D01*
X130841728Y-141669527D01*
X130894999Y-141742310D01*
X130953454Y-141810927D01*
X131016622Y-141875523D01*
X131084032Y-141936247D01*
X131155212Y-141993245D01*
X131229691Y-142046663D01*
X131306998Y-142096650D01*
X131386661Y-142143352D01*
X131468209Y-142186915D01*
X131551171Y-142227488D01*
X131635076Y-142265216D01*
X131719452Y-142300247D01*
X131726163Y-142303329D01*
X131732253Y-142306910D01*
X131737735Y-142310943D01*
X131742620Y-142315384D01*
X131746920Y-142320189D01*
X131750647Y-142325311D01*
X131753814Y-142330707D01*
X131756431Y-142336330D01*
X131758511Y-142342136D01*
X131760066Y-142348081D01*
X131761108Y-142354118D01*
X131761649Y-142360202D01*
X131761701Y-142366290D01*
X131761275Y-142372335D01*
X131760384Y-142378293D01*
X131759039Y-142384119D01*
X131757253Y-142389767D01*
X131755037Y-142395193D01*
X131752403Y-142400352D01*
X131749364Y-142405198D01*
X131745931Y-142409687D01*
X131742116Y-142413773D01*
X131737931Y-142417412D01*
X131733389Y-142420558D01*
X131728500Y-142423167D01*
X131723277Y-142425193D01*
X131717732Y-142426591D01*
X131711877Y-142427317D01*
X131705723Y-142427325D01*
X131699284Y-142426570D01*
X131692569Y-142425007D01*
X131685593Y-142422592D01*
X131595871Y-142385393D01*
X131506723Y-142345443D01*
X131418610Y-142302579D01*
X131331996Y-142256640D01*
X131247344Y-142207464D01*
X131165118Y-142154889D01*
X131085780Y-142098753D01*
X131009794Y-142038895D01*
X130937623Y-141975152D01*
X130869731Y-141907362D01*
X130806579Y-141835364D01*
X130776927Y-141797737D01*
X130748633Y-141758996D01*
X130721756Y-141719123D01*
X130696354Y-141678097D01*
X130672484Y-141635896D01*
X130650206Y-141592503D01*
X130629576Y-141547895D01*
X130610652Y-141502053D01*
X130593493Y-141454957D01*
X130578156Y-141406586D01*
X130561237Y-141343296D01*
X130547479Y-141279737D01*
X130536772Y-141215949D01*
X130529011Y-141151970D01*
X130524089Y-141087840D01*
X130521897Y-141023597D01*
X130525278Y-140894929D01*
X130538299Y-140766278D01*
X130560101Y-140637957D01*
X130589828Y-140510277D01*
X130626623Y-140383551D01*
X130669629Y-140258089D01*
X130717990Y-140134205D01*
X130770848Y-140012209D01*
X130827346Y-139892414D01*
X130886627Y-139775132D01*
X130947835Y-139660675D01*
X131072601Y-139441483D01*
X131072601Y-139441910D01*
X131076684Y-139435673D01*
X131081126Y-139430201D01*
X131085887Y-139425471D01*
X131090926Y-139421460D01*
X131096205Y-139418144D01*
X131101682Y-139415499D01*
X131107318Y-139413503D01*
X131113071Y-139412132D01*
X131118903Y-139411362D01*
X131124773Y-139411170D01*
X131130641Y-139411533D01*
G37*
G36*
X152876663Y-147531189D02*
G01*
X152860104Y-147656007D01*
X152838998Y-147773674D01*
X152813186Y-147884314D01*
X152798465Y-147937037D01*
X152782508Y-147988049D01*
X152765294Y-148037365D01*
X152746804Y-148085002D01*
X152727018Y-148130973D01*
X152705915Y-148175295D01*
X152683476Y-148217984D01*
X152659680Y-148259053D01*
X152634509Y-148298519D01*
X152607941Y-148336397D01*
X152579957Y-148372703D01*
X152550536Y-148407451D01*
X152519660Y-148440657D01*
X152487307Y-148472337D01*
X152453459Y-148502505D01*
X152418094Y-148531178D01*
X152381193Y-148558370D01*
X152342736Y-148584098D01*
X152302703Y-148608375D01*
X152261075Y-148631218D01*
X152217830Y-148652642D01*
X152172950Y-148672662D01*
X152126413Y-148691294D01*
X152078201Y-148708553D01*
X152028293Y-148724455D01*
X151976669Y-148739014D01*
X152001558Y-148652812D01*
X152024109Y-148563796D01*
X152044289Y-148471926D01*
X152062065Y-148377163D01*
X152077403Y-148279469D01*
X152090271Y-148178805D01*
X152100634Y-148075133D01*
X152108459Y-147968414D01*
X152134689Y-147531525D01*
X152188919Y-147533890D01*
X152284498Y-147539030D01*
X152377260Y-147542648D01*
X152467240Y-147544720D01*
X152554474Y-147545223D01*
X152638999Y-147544134D01*
X152720850Y-147541430D01*
X152800065Y-147537087D01*
X152876678Y-147531082D01*
X152876663Y-147531189D01*
G37*
G36*
X143379791Y-142793060D02*
G01*
X143289072Y-142934866D01*
X143205782Y-143070070D01*
X143129612Y-143199355D01*
X143060250Y-143323402D01*
X142997387Y-143442895D01*
X142940712Y-143558515D01*
X142889917Y-143670945D01*
X142844690Y-143780867D01*
X142804722Y-143888963D01*
X142769703Y-143995916D01*
X142739323Y-144102409D01*
X142713271Y-144209123D01*
X142691238Y-144316741D01*
X142672913Y-144425945D01*
X142657987Y-144537417D01*
X142646149Y-144651840D01*
X142613495Y-145199265D01*
X142610178Y-145294311D01*
X142611942Y-145387862D01*
X142618739Y-145479836D01*
X142630519Y-145570149D01*
X142647234Y-145658718D01*
X142668835Y-145745460D01*
X142695274Y-145830293D01*
X142726502Y-145913132D01*
X142762470Y-145993895D01*
X142803130Y-146072499D01*
X142848432Y-146148860D01*
X142898329Y-146222896D01*
X142952771Y-146294523D01*
X143011710Y-146363659D01*
X143075097Y-146430220D01*
X143142883Y-146494123D01*
X143215020Y-146555286D01*
X143291460Y-146613624D01*
X143372152Y-146669055D01*
X143457049Y-146721496D01*
X143546102Y-146770864D01*
X143639263Y-146817076D01*
X143736482Y-146860048D01*
X143837711Y-146899697D01*
X143942901Y-146935941D01*
X144052004Y-146968696D01*
X144281752Y-147023408D01*
X144526566Y-147063168D01*
X144786057Y-147087311D01*
X148123184Y-147288803D01*
X148097397Y-147726517D01*
X148096603Y-147725723D01*
X148088388Y-147971669D01*
X148089633Y-148089299D01*
X148094469Y-148203351D01*
X148102915Y-148313812D01*
X148114988Y-148420671D01*
X148130705Y-148523915D01*
X148150083Y-148623533D01*
X148173141Y-148719511D01*
X148199894Y-148811839D01*
X148230362Y-148900504D01*
X148264562Y-148985494D01*
X148302510Y-149066797D01*
X148344224Y-149144401D01*
X148389723Y-149218293D01*
X148439022Y-149288462D01*
X148492140Y-149354895D01*
X148549094Y-149417580D01*
X148609902Y-149476506D01*
X148674581Y-149531660D01*
X148743148Y-149583030D01*
X148815621Y-149630604D01*
X148892018Y-149674370D01*
X148972355Y-149714315D01*
X149056651Y-149750428D01*
X149144922Y-149782697D01*
X149237187Y-149811109D01*
X149333462Y-149835652D01*
X149433765Y-149856315D01*
X149538114Y-149873085D01*
X149646526Y-149885950D01*
X149759018Y-149894897D01*
X150123489Y-149916885D01*
X150207370Y-149920817D01*
X150289344Y-149922413D01*
X150369432Y-149921699D01*
X150447653Y-149918705D01*
X150524028Y-149913458D01*
X150598577Y-149905985D01*
X150671321Y-149896315D01*
X150742279Y-149884476D01*
X150694321Y-150050739D01*
X150637226Y-150205990D01*
X150570949Y-150350165D01*
X150534353Y-150418078D01*
X150495445Y-150483198D01*
X150454220Y-150545516D01*
X150410671Y-150605025D01*
X150364793Y-150661715D01*
X150316581Y-150715580D01*
X150266029Y-150766610D01*
X150213131Y-150814798D01*
X150157881Y-150860136D01*
X150100275Y-150902615D01*
X150040306Y-150942227D01*
X149977970Y-150978965D01*
X149913259Y-151012819D01*
X149846170Y-151043783D01*
X149776696Y-151071848D01*
X149704831Y-151097005D01*
X149630570Y-151119247D01*
X149553908Y-151138565D01*
X149474839Y-151154952D01*
X149393357Y-151168399D01*
X149223132Y-151186441D01*
X149043190Y-151192626D01*
X148853485Y-151186890D01*
X148489029Y-151164886D01*
X148376535Y-151155939D01*
X148268122Y-151143074D01*
X148163772Y-151126304D01*
X148063468Y-151105642D01*
X147967192Y-151081099D01*
X147874926Y-151052687D01*
X147786654Y-151020419D01*
X147702358Y-150984307D01*
X147622020Y-150944362D01*
X147545623Y-150900597D01*
X147473149Y-150853023D01*
X147404581Y-150801654D01*
X147339902Y-150746501D01*
X147279094Y-150687576D01*
X147222140Y-150624891D01*
X147169022Y-150558458D01*
X147119722Y-150488290D01*
X147074224Y-150414399D01*
X147032510Y-150336796D01*
X146994562Y-150255494D01*
X146960363Y-150170504D01*
X146929896Y-150081840D01*
X146903142Y-149989513D01*
X146880085Y-149893534D01*
X146860708Y-149793917D01*
X146844992Y-149690674D01*
X146824475Y-149473354D01*
X146818396Y-149241673D01*
X146826614Y-148995728D01*
X146827009Y-148996124D01*
X146827204Y-148996324D01*
X146827393Y-148996521D01*
X146853195Y-148558807D01*
X143516052Y-148357315D01*
X143384497Y-148347237D01*
X143256562Y-148333172D01*
X143132296Y-148315203D01*
X143011748Y-148293412D01*
X142894966Y-148267884D01*
X142781999Y-148238700D01*
X142672897Y-148205945D01*
X142567707Y-148169701D01*
X142466478Y-148130052D01*
X142369259Y-148087080D01*
X142276098Y-148040868D01*
X142187045Y-147991501D01*
X142102148Y-147939060D01*
X142021455Y-147883628D01*
X141945016Y-147825290D01*
X141872879Y-147764128D01*
X141805093Y-147700225D01*
X141741706Y-147633663D01*
X141682767Y-147564528D01*
X141628325Y-147492900D01*
X141578428Y-147418864D01*
X141533125Y-147342503D01*
X141492466Y-147263899D01*
X141456498Y-147183136D01*
X141425270Y-147100297D01*
X141398831Y-147015465D01*
X141377229Y-146928722D01*
X141360514Y-146840153D01*
X141348734Y-146749840D01*
X141341938Y-146657866D01*
X141340174Y-146564315D01*
X141343491Y-146469269D01*
X141376144Y-145921829D01*
X141387985Y-145807406D01*
X141402914Y-145695934D01*
X141421240Y-145586730D01*
X141443275Y-145479112D01*
X141469328Y-145372398D01*
X141499710Y-145265905D01*
X141534729Y-145158952D01*
X141574697Y-145050856D01*
X141619924Y-144940934D01*
X141670719Y-144828504D01*
X141727392Y-144712884D01*
X141790254Y-144593391D01*
X141859614Y-144469344D01*
X141935783Y-144340059D01*
X142019071Y-144204855D01*
X142109787Y-144063049D01*
X144673019Y-140099762D01*
X144734728Y-140004977D01*
X144796311Y-139914934D01*
X144857994Y-139829529D01*
X144920002Y-139748660D01*
X144982560Y-139672225D01*
X145045895Y-139600122D01*
X145110231Y-139532248D01*
X145175795Y-139468502D01*
X145242810Y-139408781D01*
X145311504Y-139352983D01*
X145382101Y-139301005D01*
X145454828Y-139252746D01*
X145529908Y-139208103D01*
X145607568Y-139166974D01*
X145688034Y-139129257D01*
X145771530Y-139094849D01*
X143379791Y-142793060D01*
G37*
G36*
X130348442Y-140000917D02*
G01*
X130323433Y-140072207D01*
X130300566Y-140144460D01*
X130279853Y-140217674D01*
X130261307Y-140291853D01*
X130244941Y-140366996D01*
X130230767Y-140443104D01*
X130218798Y-140520178D01*
X130209046Y-140598219D01*
X130201524Y-140677227D01*
X130196245Y-140757204D01*
X130193222Y-140838151D01*
X130192466Y-140920067D01*
X130193991Y-141002955D01*
X130197810Y-141086814D01*
X130203934Y-141171646D01*
X130206511Y-141199587D01*
X130207888Y-141213564D01*
X130209396Y-141227539D01*
X130222429Y-141323724D01*
X130240083Y-141418339D01*
X130262334Y-141511224D01*
X130289158Y-141602220D01*
X130320532Y-141691165D01*
X130356432Y-141777902D01*
X130396834Y-141862269D01*
X130441715Y-141944107D01*
X130491051Y-142023257D01*
X130544819Y-142099558D01*
X130602993Y-142172851D01*
X130665552Y-142242976D01*
X130732471Y-142309774D01*
X130803727Y-142373083D01*
X130879295Y-142432746D01*
X130959152Y-142488602D01*
X130995387Y-142511909D01*
X131032161Y-142534514D01*
X131069447Y-142556398D01*
X131107220Y-142577544D01*
X131145453Y-142597935D01*
X131184122Y-142617550D01*
X131223199Y-142636374D01*
X131262659Y-142654387D01*
X131302476Y-142671571D01*
X131342625Y-142687909D01*
X131383079Y-142703383D01*
X131423812Y-142717973D01*
X131464798Y-142731664D01*
X131506012Y-142744436D01*
X131547428Y-142756271D01*
X131589020Y-142767151D01*
X131841098Y-142830892D01*
X131970167Y-142860363D01*
X132035165Y-142873329D01*
X132100361Y-142884670D01*
X132165671Y-142894052D01*
X132231012Y-142901140D01*
X132296299Y-142905600D01*
X132361449Y-142907098D01*
X132426378Y-142905300D01*
X132491003Y-142899871D01*
X132555239Y-142890478D01*
X132619003Y-142876785D01*
X132633516Y-142873002D01*
X132647810Y-142869006D01*
X132661900Y-142864813D01*
X132675797Y-142860434D01*
X132689513Y-142855882D01*
X132703062Y-142851171D01*
X132716455Y-142846314D01*
X132729706Y-142841324D01*
X132689075Y-142876516D01*
X132649353Y-142912818D01*
X132610596Y-142950240D01*
X132572859Y-142988792D01*
X132536197Y-143028487D01*
X132500664Y-143069333D01*
X132466318Y-143111343D01*
X132433212Y-143154526D01*
X132378452Y-143231846D01*
X132326489Y-143311233D01*
X132227666Y-143473242D01*
X132130160Y-143634626D01*
X132079844Y-143713230D01*
X132027390Y-143789455D01*
X131971973Y-143862560D01*
X131942897Y-143897711D01*
X131912771Y-143931804D01*
X131881494Y-143964746D01*
X131848962Y-143996445D01*
X131815073Y-144026809D01*
X131779723Y-144055744D01*
X131742810Y-144083158D01*
X131704231Y-144108958D01*
X131663883Y-144133052D01*
X131621662Y-144155347D01*
X131577468Y-144175750D01*
X131531195Y-144194170D01*
X131482743Y-144210512D01*
X131432007Y-144224686D01*
X131368245Y-144238378D01*
X131304011Y-144247772D01*
X131239389Y-144253201D01*
X131174461Y-144255000D01*
X131109313Y-144253503D01*
X131044027Y-144249044D01*
X130978687Y-144241957D01*
X130913378Y-144232576D01*
X130848182Y-144221236D01*
X130783184Y-144208270D01*
X130654117Y-144178798D01*
X130402039Y-144115051D01*
X130360446Y-144104171D01*
X130319027Y-144092336D01*
X130277809Y-144079564D01*
X130236816Y-144065874D01*
X130196076Y-144051283D01*
X130155615Y-144035809D01*
X130115458Y-144019471D01*
X130075632Y-144002287D01*
X130036163Y-143984274D01*
X129997078Y-143965451D01*
X129958402Y-143945835D01*
X129920161Y-143925445D01*
X129882383Y-143904298D01*
X129845092Y-143882414D01*
X129808316Y-143859809D01*
X129772079Y-143836502D01*
X129692223Y-143780649D01*
X129616658Y-143720988D01*
X129545407Y-143657680D01*
X129478493Y-143590883D01*
X129415941Y-143520758D01*
X129357774Y-143447464D01*
X129304014Y-143371162D01*
X129254686Y-143292011D01*
X129209813Y-143210171D01*
X129169418Y-143125802D01*
X129133524Y-143039064D01*
X129102156Y-142950116D01*
X129075336Y-142859118D01*
X129053088Y-142766230D01*
X129035434Y-142671612D01*
X129022400Y-142575424D01*
X129020872Y-142561458D01*
X129019444Y-142547485D01*
X129018113Y-142533513D01*
X129016876Y-142519547D01*
X129006387Y-142334079D01*
X129006917Y-142153281D01*
X129018362Y-141977157D01*
X129028146Y-141890850D01*
X129040619Y-141805714D01*
X129055770Y-141721750D01*
X129073585Y-141638957D01*
X129094051Y-141557338D01*
X129117155Y-141476892D01*
X129142884Y-141397620D01*
X129171226Y-141319523D01*
X129202167Y-141242602D01*
X129235695Y-141166857D01*
X129271796Y-141092289D01*
X129310458Y-141018899D01*
X129395411Y-140875654D01*
X129490451Y-140737128D01*
X129595474Y-140603327D01*
X129710377Y-140474256D01*
X129835055Y-140349921D01*
X129969407Y-140230326D01*
X130113327Y-140115479D01*
X130144513Y-140091468D01*
X130176210Y-140067743D01*
X130208391Y-140044291D01*
X130241028Y-140021095D01*
X130274094Y-139998143D01*
X130307562Y-139975420D01*
X130375567Y-139930622D01*
X130348442Y-140000917D01*
G37*
G36*
X148920295Y-143867009D02*
G01*
X148925886Y-143867656D01*
X148931323Y-143868835D01*
X148936561Y-143870560D01*
X148941554Y-143872844D01*
X148946258Y-143875699D01*
X148950629Y-143879138D01*
X148954620Y-143883173D01*
X148958189Y-143887817D01*
X148961289Y-143893082D01*
X148963876Y-143898982D01*
X148965905Y-143905529D01*
X148967331Y-143912735D01*
X148975146Y-143990495D01*
X148975348Y-144062845D01*
X148968319Y-144129968D01*
X148954438Y-144192048D01*
X148934085Y-144249267D01*
X148907641Y-144301810D01*
X148875485Y-144349859D01*
X148837997Y-144393598D01*
X148795557Y-144433210D01*
X148748546Y-144468878D01*
X148697344Y-144500787D01*
X148642330Y-144529118D01*
X148583884Y-144554056D01*
X148522387Y-144575783D01*
X148391760Y-144610340D01*
X148253488Y-144634256D01*
X148110611Y-144648997D01*
X147966170Y-144656031D01*
X147823206Y-144656823D01*
X147684758Y-144652840D01*
X147553868Y-144645548D01*
X147326920Y-144626907D01*
X147326920Y-144627304D01*
X147319575Y-144626248D01*
X147312702Y-144624539D01*
X147306300Y-144622224D01*
X147300371Y-144619349D01*
X147294914Y-144615960D01*
X147289929Y-144612104D01*
X147285417Y-144607828D01*
X147281378Y-144603178D01*
X147277812Y-144598200D01*
X147274719Y-144592942D01*
X147272100Y-144587449D01*
X147269955Y-144581768D01*
X147268284Y-144575946D01*
X147267087Y-144570029D01*
X147266365Y-144564063D01*
X147266117Y-144558096D01*
X147266345Y-144552173D01*
X147267047Y-144546342D01*
X147268226Y-144540648D01*
X147269880Y-144535138D01*
X147272010Y-144529860D01*
X147274616Y-144524858D01*
X147277698Y-144520180D01*
X147281258Y-144515872D01*
X147285294Y-144511981D01*
X147289807Y-144508554D01*
X147294798Y-144505636D01*
X147300266Y-144503274D01*
X147306212Y-144501515D01*
X147312636Y-144500406D01*
X147319539Y-144499992D01*
X147326920Y-144500320D01*
X147515481Y-144517385D01*
X147629984Y-144525778D01*
X147753846Y-144532211D01*
X147883977Y-144535282D01*
X148017284Y-144533591D01*
X148150676Y-144525738D01*
X148281063Y-144510321D01*
X148344163Y-144499338D01*
X148405353Y-144485939D01*
X148464245Y-144469949D01*
X148520454Y-144451192D01*
X148573592Y-144429494D01*
X148623275Y-144404679D01*
X148669114Y-144376572D01*
X148710725Y-144344999D01*
X148747720Y-144309784D01*
X148779712Y-144270751D01*
X148806316Y-144227727D01*
X148827146Y-144180535D01*
X148841814Y-144129001D01*
X148849934Y-144072950D01*
X148851120Y-144012206D01*
X148844986Y-143946594D01*
X148844262Y-143939230D01*
X148844279Y-143932146D01*
X148844992Y-143925356D01*
X148846358Y-143918871D01*
X148848330Y-143912705D01*
X148850865Y-143906870D01*
X148853917Y-143901378D01*
X148857442Y-143896243D01*
X148861394Y-143891476D01*
X148865730Y-143887091D01*
X148870404Y-143883101D01*
X148875371Y-143879517D01*
X148880587Y-143876353D01*
X148886006Y-143873621D01*
X148891585Y-143871333D01*
X148897278Y-143869503D01*
X148903040Y-143868143D01*
X148908827Y-143867266D01*
X148914593Y-143866883D01*
X148920295Y-143867009D01*
G37*
G36*
X150137670Y-129298236D02*
G01*
X150143499Y-129298875D01*
X150149222Y-129300040D01*
X150154795Y-129301743D01*
X150160174Y-129303996D01*
X150165312Y-129306812D01*
X150170166Y-129310202D01*
X150174689Y-129314179D01*
X150178838Y-129318755D01*
X150182566Y-129323942D01*
X150185829Y-129329753D01*
X150188583Y-129336199D01*
X150190781Y-129343292D01*
X150219459Y-129459007D01*
X150246154Y-129577520D01*
X150270188Y-129698306D01*
X150290888Y-129820838D01*
X150307577Y-129944590D01*
X150319580Y-130069037D01*
X150326221Y-130193653D01*
X150326826Y-130317911D01*
X150320719Y-130441286D01*
X150307224Y-130563253D01*
X150285666Y-130683284D01*
X150255370Y-130800854D01*
X150236734Y-130858552D01*
X150215661Y-130915437D01*
X150192064Y-130971445D01*
X150165862Y-131026508D01*
X150136968Y-131080562D01*
X150105298Y-131133540D01*
X150070769Y-131185377D01*
X150033295Y-131236008D01*
X149990696Y-131287802D01*
X149945994Y-131336714D01*
X149899287Y-131382822D01*
X149850671Y-131426202D01*
X149800243Y-131466932D01*
X149748101Y-131505089D01*
X149639062Y-131573995D01*
X149524331Y-131633536D01*
X149404684Y-131684332D01*
X149280900Y-131727001D01*
X149153753Y-131762161D01*
X149024023Y-131790430D01*
X148892485Y-131812427D01*
X148759916Y-131828769D01*
X148627094Y-131840075D01*
X148494795Y-131846964D01*
X148363797Y-131850053D01*
X148108810Y-131847305D01*
X148108922Y-131847417D01*
X148109032Y-131847525D01*
X148109086Y-131847577D01*
X148109141Y-131847629D01*
X148109196Y-131847681D01*
X148109253Y-131847733D01*
X148101833Y-131847136D01*
X148094892Y-131845857D01*
X148088430Y-131843941D01*
X148082447Y-131841435D01*
X148076942Y-131838385D01*
X148071916Y-131834839D01*
X148067368Y-131830842D01*
X148063299Y-131826441D01*
X148059709Y-131821682D01*
X148056598Y-131816613D01*
X148053965Y-131811280D01*
X148051811Y-131805729D01*
X148050135Y-131800008D01*
X148048939Y-131794161D01*
X148048221Y-131788237D01*
X148047981Y-131782282D01*
X148048221Y-131776342D01*
X148048939Y-131770463D01*
X148050135Y-131764693D01*
X148051811Y-131759078D01*
X148053965Y-131753665D01*
X148056598Y-131748499D01*
X148059709Y-131743628D01*
X148063299Y-131739099D01*
X148067368Y-131734957D01*
X148071916Y-131731249D01*
X148076942Y-131728023D01*
X148082447Y-131725324D01*
X148088430Y-131723199D01*
X148094892Y-131721694D01*
X148101833Y-131720857D01*
X148109253Y-131720734D01*
X148348730Y-131723875D01*
X148472352Y-131721628D01*
X148597514Y-131716007D01*
X148723430Y-131706390D01*
X148849314Y-131692155D01*
X148974379Y-131672680D01*
X149097839Y-131647343D01*
X149218909Y-131615521D01*
X149336801Y-131576594D01*
X149450729Y-131529938D01*
X149505961Y-131503517D01*
X149559907Y-131474932D01*
X149612470Y-131444103D01*
X149663550Y-131410954D01*
X149713049Y-131375406D01*
X149760869Y-131337381D01*
X149806912Y-131296803D01*
X149851080Y-131253593D01*
X149893274Y-131207673D01*
X149933395Y-131158966D01*
X149968464Y-131111478D01*
X150000703Y-131062798D01*
X150030195Y-131012993D01*
X150057025Y-130962129D01*
X150081276Y-130910273D01*
X150103032Y-130857491D01*
X150139398Y-130749413D01*
X150166795Y-130638425D01*
X150185895Y-130525057D01*
X150197369Y-130409840D01*
X150201891Y-130293304D01*
X150200132Y-130175980D01*
X150192765Y-130058396D01*
X150180463Y-129941084D01*
X150163896Y-129824574D01*
X150143738Y-129709395D01*
X150120660Y-129596078D01*
X150068436Y-129377151D01*
X150066904Y-129369829D01*
X150066169Y-129362788D01*
X150066184Y-129356042D01*
X150066905Y-129349603D01*
X150068287Y-129343483D01*
X150070284Y-129337694D01*
X150072852Y-129332248D01*
X150075946Y-129327158D01*
X150079520Y-129322436D01*
X150083529Y-129318093D01*
X150087929Y-129314142D01*
X150092675Y-129310596D01*
X150097720Y-129307466D01*
X150103022Y-129304764D01*
X150108533Y-129302503D01*
X150114210Y-129300695D01*
X150120007Y-129299352D01*
X150125880Y-129298487D01*
X150131783Y-129298110D01*
X150137670Y-129298236D01*
G37*
G36*
X135380035Y-126351181D02*
G01*
X135380035Y-126351189D01*
X135521534Y-126361561D01*
X135651866Y-126376587D01*
X135712917Y-126385891D01*
X135771263Y-126396415D01*
X135826934Y-126408177D01*
X135879958Y-126421195D01*
X135930365Y-126435487D01*
X135978184Y-126451074D01*
X136023443Y-126467973D01*
X136066172Y-126486202D01*
X136106400Y-126505781D01*
X136144156Y-126526728D01*
X136179469Y-126549061D01*
X136212368Y-126572800D01*
X136242882Y-126597962D01*
X136271040Y-126624567D01*
X136296871Y-126652633D01*
X136320405Y-126682178D01*
X136341670Y-126713222D01*
X136360695Y-126745783D01*
X136377509Y-126779878D01*
X136392142Y-126815528D01*
X136404623Y-126852751D01*
X136414980Y-126891565D01*
X136423243Y-126931988D01*
X136429440Y-126974040D01*
X136433601Y-127017740D01*
X136435756Y-127063104D01*
X136435931Y-127110153D01*
X136434158Y-127158905D01*
X136430638Y-127194071D01*
X136424043Y-127228045D01*
X136414415Y-127260888D01*
X136401794Y-127292659D01*
X136386219Y-127323420D01*
X136367732Y-127353232D01*
X136322183Y-127410249D01*
X136265468Y-127464196D01*
X136197913Y-127515558D01*
X136119839Y-127564821D01*
X136031570Y-127612470D01*
X135933431Y-127658991D01*
X135825743Y-127704869D01*
X135708831Y-127750590D01*
X135583018Y-127796639D01*
X135305982Y-127891664D01*
X134997223Y-127993828D01*
X134979311Y-127931575D01*
X134955744Y-127873492D01*
X134926398Y-127819499D01*
X134891149Y-127769516D01*
X134849870Y-127723463D01*
X134802439Y-127681262D01*
X134748729Y-127642831D01*
X134688618Y-127608092D01*
X134621979Y-127576965D01*
X134548688Y-127549369D01*
X134468622Y-127525226D01*
X134381654Y-127504454D01*
X134287660Y-127486976D01*
X134186517Y-127472710D01*
X134078098Y-127461578D01*
X133962280Y-127453499D01*
X133902712Y-127451351D01*
X133843409Y-127451482D01*
X133784396Y-127453807D01*
X133725698Y-127458240D01*
X133667340Y-127464695D01*
X133609347Y-127473086D01*
X133551742Y-127483330D01*
X133494553Y-127495338D01*
X133528959Y-127460405D01*
X133562680Y-127424508D01*
X133628482Y-127350315D01*
X133692791Y-127273752D01*
X133756443Y-127195811D01*
X133820271Y-127117484D01*
X133885108Y-127039761D01*
X133951789Y-126963635D01*
X133986082Y-126926481D01*
X134021149Y-126890099D01*
X134089679Y-126824157D01*
X134161178Y-126761981D01*
X134235477Y-126703685D01*
X134312409Y-126649385D01*
X134391807Y-126599194D01*
X134473503Y-126553228D01*
X134557330Y-126511602D01*
X134643120Y-126474430D01*
X134730706Y-126441827D01*
X134819921Y-126413908D01*
X134910597Y-126390787D01*
X135002567Y-126372580D01*
X135095663Y-126359401D01*
X135189718Y-126351365D01*
X135284565Y-126348587D01*
X135380035Y-126351181D01*
G37*
G36*
X131475387Y-145794838D02*
G01*
X131481234Y-145795743D01*
X131486994Y-145797154D01*
X131492627Y-145799046D01*
X131498092Y-145801398D01*
X131503349Y-145804184D01*
X131508358Y-145807382D01*
X131513079Y-145810969D01*
X131517472Y-145814920D01*
X131521496Y-145819214D01*
X131525112Y-145823825D01*
X131528278Y-145828731D01*
X131530956Y-145833909D01*
X131533105Y-145839334D01*
X131534684Y-145844984D01*
X131535654Y-145850835D01*
X131535975Y-145856864D01*
X131535606Y-145863047D01*
X131534506Y-145869361D01*
X131532637Y-145875783D01*
X131529958Y-145882289D01*
X131526428Y-145888855D01*
X131435727Y-146052952D01*
X131360323Y-146218440D01*
X131299508Y-146385169D01*
X131252574Y-146552991D01*
X131218814Y-146721759D01*
X131197521Y-146891323D01*
X131187986Y-147061536D01*
X131189503Y-147232250D01*
X131201363Y-147403316D01*
X131222859Y-147574586D01*
X131253284Y-147745912D01*
X131291930Y-147917146D01*
X131338089Y-148088138D01*
X131391055Y-148258742D01*
X131450118Y-148428809D01*
X131514572Y-148598190D01*
X131514572Y-148598633D01*
X131516949Y-148605646D01*
X131518475Y-148612392D01*
X131519196Y-148618859D01*
X131519157Y-148625035D01*
X131518402Y-148630910D01*
X131516978Y-148636470D01*
X131514928Y-148641705D01*
X131512298Y-148646603D01*
X131509133Y-148651151D01*
X131505478Y-148655339D01*
X131501378Y-148659154D01*
X131496878Y-148662585D01*
X131492023Y-148665620D01*
X131486858Y-148668248D01*
X131481428Y-148670456D01*
X131475779Y-148672234D01*
X131469954Y-148673568D01*
X131464000Y-148674448D01*
X131457961Y-148674862D01*
X131451882Y-148674798D01*
X131445808Y-148674244D01*
X131439785Y-148673190D01*
X131433857Y-148671622D01*
X131428070Y-148669529D01*
X131422468Y-148666900D01*
X131417096Y-148663723D01*
X131412000Y-148659986D01*
X131407224Y-148655677D01*
X131402814Y-148650785D01*
X131398815Y-148645298D01*
X131395271Y-148639204D01*
X131392227Y-148632492D01*
X131325567Y-148456873D01*
X131264793Y-148280489D01*
X131210593Y-148103509D01*
X131163653Y-147926099D01*
X131124661Y-147748429D01*
X131094303Y-147570666D01*
X131073266Y-147392979D01*
X131062239Y-147215536D01*
X131061907Y-147038505D01*
X131072958Y-146862053D01*
X131096079Y-146686350D01*
X131131956Y-146511562D01*
X131181278Y-146337859D01*
X131244731Y-146165408D01*
X131323002Y-145994378D01*
X131416779Y-145824936D01*
X131420937Y-145818736D01*
X131425450Y-145813300D01*
X131430278Y-145808602D01*
X131435379Y-145804621D01*
X131440714Y-145801333D01*
X131446243Y-145798714D01*
X131451925Y-145796740D01*
X131457721Y-145795390D01*
X131463590Y-145794638D01*
X131469492Y-145794462D01*
X131475387Y-145794838D01*
G37*
G36*
X130997289Y-145738545D02*
G01*
X130951921Y-145828159D01*
X130909568Y-145918896D01*
X130870340Y-146010755D01*
X130834346Y-146103735D01*
X130801695Y-146197835D01*
X130772497Y-146293055D01*
X130746862Y-146389393D01*
X130724899Y-146486849D01*
X130706718Y-146585421D01*
X130692427Y-146685109D01*
X130682136Y-146785913D01*
X130675956Y-146887830D01*
X130673994Y-146990860D01*
X130676361Y-147095003D01*
X130683167Y-147200256D01*
X130752121Y-148000793D01*
X130752121Y-147999466D01*
X130787217Y-148328298D01*
X130833870Y-148619942D01*
X130893668Y-148876304D01*
X130928991Y-148991848D01*
X130968194Y-149099286D01*
X131011477Y-149198855D01*
X131059038Y-149290794D01*
X131111074Y-149375340D01*
X131167783Y-149452731D01*
X131229365Y-149523206D01*
X131296018Y-149587003D01*
X131367939Y-149644359D01*
X131445328Y-149695513D01*
X131528382Y-149740702D01*
X131617299Y-149780166D01*
X131712278Y-149814141D01*
X131813518Y-149842866D01*
X131921216Y-149866579D01*
X132035571Y-149885517D01*
X132285044Y-149910025D01*
X132563524Y-149918293D01*
X132872597Y-149912225D01*
X133213849Y-149893726D01*
X133588867Y-149864700D01*
X138977097Y-149403244D01*
X139084385Y-149393033D01*
X139188157Y-149381107D01*
X139288461Y-149367475D01*
X139385344Y-149352148D01*
X139478852Y-149335135D01*
X139569034Y-149316446D01*
X139655937Y-149296090D01*
X139739609Y-149274078D01*
X139722433Y-149429599D01*
X139693612Y-149577065D01*
X139652651Y-149716396D01*
X139599054Y-149847512D01*
X139567363Y-149909965D01*
X139532327Y-149970334D01*
X139493884Y-150028609D01*
X139451973Y-150084781D01*
X139406532Y-150138840D01*
X139357499Y-150190775D01*
X139304811Y-150240577D01*
X139248407Y-150288235D01*
X139188226Y-150333740D01*
X139124204Y-150377081D01*
X139056281Y-150418249D01*
X138984395Y-150457234D01*
X138828482Y-150528614D01*
X138655973Y-150591142D01*
X138466370Y-150644737D01*
X138259180Y-150689319D01*
X138033906Y-150724810D01*
X137790054Y-150751129D01*
X132401886Y-151212585D01*
X132026868Y-151241612D01*
X131685615Y-151260113D01*
X131376542Y-151266185D01*
X131098061Y-151257922D01*
X130969797Y-151247820D01*
X130848587Y-151233420D01*
X130734231Y-151214485D01*
X130626533Y-151190775D01*
X130525293Y-151162054D01*
X130430313Y-151128082D01*
X130341395Y-151088622D01*
X130258341Y-151043436D01*
X130180952Y-150992286D01*
X130109030Y-150934933D01*
X130042378Y-150871140D01*
X129980796Y-150800668D01*
X129924086Y-150723280D01*
X129872050Y-150638737D01*
X129824490Y-150546802D01*
X129781207Y-150447235D01*
X129742003Y-150339800D01*
X129706681Y-150224258D01*
X129675041Y-150100371D01*
X129646885Y-149967901D01*
X129622015Y-149826609D01*
X129600233Y-149676259D01*
X129565140Y-149347427D01*
X129565140Y-149348755D01*
X129496109Y-148548218D01*
X129489112Y-148438791D01*
X129486891Y-148330561D01*
X129489325Y-148223528D01*
X129496293Y-148117694D01*
X129507677Y-148013063D01*
X129523357Y-147909636D01*
X129543211Y-147807415D01*
X129567121Y-147706403D01*
X129594966Y-147606601D01*
X129626626Y-147508011D01*
X129661982Y-147410637D01*
X129700913Y-147314479D01*
X129743299Y-147219540D01*
X129789020Y-147125822D01*
X129889990Y-146942059D01*
X130002861Y-146763205D01*
X130126674Y-146589278D01*
X130260469Y-146420295D01*
X130403286Y-146256272D01*
X130554165Y-146097228D01*
X130712147Y-145943178D01*
X130876271Y-145794140D01*
X131045472Y-145650221D01*
X130997289Y-145738545D01*
G37*
G36*
X133172421Y-123511942D02*
G01*
X133178694Y-123512835D01*
X133184768Y-123514323D01*
X133190619Y-123516366D01*
X133196224Y-123518924D01*
X133201560Y-123521956D01*
X133206601Y-123525422D01*
X133211326Y-123529283D01*
X133215710Y-123533498D01*
X133219730Y-123538027D01*
X133223362Y-123542830D01*
X133226582Y-123547866D01*
X133229366Y-123553096D01*
X133231692Y-123558479D01*
X133233535Y-123563975D01*
X133234872Y-123569544D01*
X133235679Y-123575146D01*
X133235932Y-123580740D01*
X133235608Y-123586287D01*
X133234684Y-123591747D01*
X133233134Y-123597079D01*
X133230937Y-123602242D01*
X133228068Y-123607198D01*
X133224504Y-123611905D01*
X133220221Y-123616324D01*
X133215195Y-123620415D01*
X133209402Y-123624136D01*
X133202820Y-123627449D01*
X133004578Y-123718754D01*
X132906275Y-123767008D01*
X132808793Y-123817177D01*
X132712340Y-123869398D01*
X132617125Y-123923806D01*
X132523355Y-123980536D01*
X132431238Y-124039725D01*
X132340982Y-124101509D01*
X132252793Y-124166023D01*
X132166881Y-124233403D01*
X132083452Y-124303785D01*
X132002716Y-124377305D01*
X131924878Y-124454099D01*
X131850148Y-124534301D01*
X131778732Y-124618050D01*
X131703694Y-124715736D01*
X131635148Y-124816270D01*
X131572919Y-124919473D01*
X131516834Y-125025165D01*
X131466717Y-125133170D01*
X131422393Y-125243308D01*
X131383688Y-125355400D01*
X131350426Y-125469268D01*
X131322432Y-125584733D01*
X131299532Y-125701618D01*
X131281551Y-125819743D01*
X131268314Y-125938929D01*
X131259646Y-126058999D01*
X131255373Y-126179773D01*
X131255318Y-126301074D01*
X131259308Y-126422722D01*
X131259326Y-126430141D01*
X131258620Y-126437079D01*
X131257236Y-126443536D01*
X131255220Y-126449513D01*
X131252620Y-126455010D01*
X131249483Y-126460026D01*
X131245854Y-126464563D01*
X131241781Y-126468620D01*
X131237311Y-126472198D01*
X131232490Y-126475296D01*
X131227365Y-126477916D01*
X131221983Y-126480057D01*
X131216390Y-126481719D01*
X131210634Y-126482904D01*
X131204760Y-126483610D01*
X131198816Y-126483839D01*
X131192849Y-126483590D01*
X131186905Y-126482864D01*
X131181030Y-126481661D01*
X131175273Y-126479982D01*
X131169678Y-126477825D01*
X131164294Y-126475193D01*
X131159167Y-126472084D01*
X131154343Y-126468500D01*
X131149870Y-126464440D01*
X131145794Y-126459904D01*
X131142162Y-126454894D01*
X131139020Y-126449408D01*
X131136416Y-126443448D01*
X131134395Y-126437013D01*
X131133006Y-126430105D01*
X131132294Y-126422722D01*
X131128183Y-126299075D01*
X131128179Y-126175742D01*
X131132441Y-126052896D01*
X131141125Y-125930711D01*
X131154391Y-125809362D01*
X131172396Y-125689023D01*
X131195298Y-125569869D01*
X131223257Y-125452073D01*
X131256430Y-125335810D01*
X131294975Y-125221254D01*
X131339050Y-125108580D01*
X131388814Y-124997961D01*
X131444424Y-124889573D01*
X131506040Y-124783588D01*
X131573819Y-124680182D01*
X131647919Y-124579529D01*
X131721491Y-124489474D01*
X131798711Y-124403213D01*
X131879357Y-124320607D01*
X131963207Y-124241521D01*
X132050038Y-124165819D01*
X132139629Y-124093364D01*
X132231758Y-124024019D01*
X132326202Y-123957648D01*
X132422740Y-123894115D01*
X132521150Y-123833283D01*
X132621209Y-123775017D01*
X132722695Y-123719178D01*
X132825387Y-123665632D01*
X132929062Y-123614241D01*
X133138474Y-123517380D01*
X133138901Y-123517807D01*
X133145813Y-123515123D01*
X133152645Y-123513234D01*
X133159373Y-123512101D01*
X133165973Y-123511684D01*
X133172421Y-123511942D01*
G37*
G36*
X145128097Y-124081329D02*
G01*
X145133795Y-124082097D01*
X145139306Y-124083499D01*
X145144606Y-124085492D01*
X145149674Y-124088038D01*
X145154484Y-124091095D01*
X145159015Y-124094623D01*
X145163243Y-124098581D01*
X145167145Y-124102930D01*
X145170698Y-124107629D01*
X145173878Y-124112638D01*
X145176662Y-124117915D01*
X145179028Y-124123421D01*
X145180952Y-124129116D01*
X145182410Y-124134958D01*
X145183381Y-124140909D01*
X145183839Y-124146926D01*
X145183763Y-124152970D01*
X145183130Y-124159001D01*
X145181915Y-124164978D01*
X145180096Y-124170860D01*
X145177650Y-124176608D01*
X145174553Y-124182180D01*
X145170783Y-124187537D01*
X145166315Y-124192639D01*
X145161128Y-124197444D01*
X145155197Y-124201912D01*
X145021665Y-124295374D01*
X144892276Y-124392470D01*
X144767128Y-124493303D01*
X144646317Y-124597975D01*
X144529938Y-124706588D01*
X144418087Y-124819245D01*
X144310862Y-124936049D01*
X144208357Y-125057100D01*
X144110669Y-125182503D01*
X144017895Y-125312358D01*
X143930130Y-125446769D01*
X143847470Y-125585837D01*
X143770012Y-125729666D01*
X143697852Y-125878357D01*
X143631085Y-126032012D01*
X143569809Y-126190735D01*
X143514623Y-126352823D01*
X143465905Y-126516413D01*
X143423414Y-126681361D01*
X143386910Y-126847520D01*
X143356154Y-127014746D01*
X143330905Y-127182893D01*
X143310923Y-127351817D01*
X143295969Y-127521373D01*
X143285802Y-127691415D01*
X143280183Y-127861797D01*
X143278871Y-128032376D01*
X143281626Y-128203006D01*
X143298379Y-128543839D01*
X143328522Y-128883133D01*
X143328964Y-128890511D01*
X143328655Y-128897409D01*
X143327640Y-128903827D01*
X143325966Y-128909765D01*
X143323681Y-128915223D01*
X143320831Y-128920203D01*
X143317462Y-128924705D01*
X143313622Y-128928728D01*
X143309357Y-128932275D01*
X143304714Y-128935344D01*
X143299740Y-128937937D01*
X143294481Y-128940053D01*
X143288984Y-128941695D01*
X143283296Y-128942861D01*
X143277464Y-128943552D01*
X143271534Y-128943769D01*
X143265553Y-128943513D01*
X143259568Y-128942783D01*
X143253626Y-128941581D01*
X143247773Y-128939906D01*
X143242056Y-128937759D01*
X143236522Y-128935141D01*
X143231218Y-128932052D01*
X143226190Y-128928492D01*
X143221485Y-128924463D01*
X143217150Y-128919963D01*
X143213231Y-128914995D01*
X143209776Y-128909558D01*
X143206831Y-128903653D01*
X143204442Y-128897280D01*
X143202657Y-128890440D01*
X143201523Y-128883133D01*
X143170163Y-128526170D01*
X143159937Y-128346827D01*
X143153701Y-128167158D01*
X143151719Y-127987348D01*
X143154256Y-127807582D01*
X143161577Y-127628046D01*
X143173946Y-127448925D01*
X143191629Y-127270404D01*
X143214889Y-127092669D01*
X143243993Y-126915906D01*
X143279204Y-126740299D01*
X143320787Y-126566034D01*
X143369008Y-126393297D01*
X143424130Y-126222272D01*
X143486420Y-126053146D01*
X143549062Y-125902528D01*
X143617352Y-125755496D01*
X143691157Y-125612082D01*
X143770339Y-125472321D01*
X143854766Y-125336246D01*
X143944300Y-125203890D01*
X144038808Y-125075287D01*
X144138153Y-124950470D01*
X144242201Y-124829473D01*
X144350817Y-124712329D01*
X144463866Y-124599073D01*
X144581212Y-124489736D01*
X144702720Y-124384353D01*
X144828255Y-124282958D01*
X144957682Y-124185583D01*
X145090866Y-124092262D01*
X145091278Y-124092262D01*
X145097612Y-124088387D01*
X145103898Y-124085387D01*
X145110112Y-124083222D01*
X145116232Y-124081850D01*
X145122235Y-124081233D01*
X145128097Y-124081329D01*
G37*
G36*
X138675112Y-146318325D02*
G01*
X138801608Y-146324588D01*
X138928028Y-146334734D01*
X139053852Y-146349285D01*
X139178560Y-146368762D01*
X139301632Y-146393688D01*
X139422547Y-146424582D01*
X139540785Y-146461967D01*
X139655826Y-146506364D01*
X139767149Y-146558295D01*
X139874235Y-146618281D01*
X139976562Y-146686844D01*
X140014923Y-146716168D01*
X140051441Y-146746572D01*
X140119063Y-146810478D01*
X140179657Y-146878274D01*
X140233446Y-146949672D01*
X140280658Y-147024384D01*
X140321517Y-147102123D01*
X140356249Y-147182601D01*
X140385080Y-147265530D01*
X140408236Y-147350622D01*
X140425942Y-147437589D01*
X140438424Y-147526144D01*
X140445908Y-147616000D01*
X140448620Y-147706867D01*
X140446784Y-147798459D01*
X140440627Y-147890488D01*
X140430374Y-147982666D01*
X140429049Y-147989936D01*
X140427089Y-147996741D01*
X140424540Y-148003081D01*
X140421447Y-148008956D01*
X140417859Y-148014365D01*
X140413821Y-148019308D01*
X140409380Y-148023785D01*
X140404583Y-148027794D01*
X140399475Y-148031335D01*
X140394103Y-148034409D01*
X140388515Y-148037013D01*
X140382756Y-148039149D01*
X140376873Y-148040816D01*
X140370912Y-148042012D01*
X140364920Y-148042738D01*
X140358944Y-148042994D01*
X140353030Y-148042777D01*
X140347224Y-148042090D01*
X140341573Y-148040930D01*
X140336123Y-148039297D01*
X140330922Y-148037191D01*
X140326015Y-148034611D01*
X140321449Y-148031558D01*
X140317271Y-148028030D01*
X140313526Y-148024027D01*
X140310263Y-148019548D01*
X140307526Y-148014593D01*
X140305363Y-148009163D01*
X140303819Y-148003255D01*
X140302943Y-147996870D01*
X140302779Y-147990007D01*
X140303375Y-147982666D01*
X140313348Y-147893421D01*
X140319436Y-147804476D01*
X140321375Y-147716119D01*
X140318903Y-147628642D01*
X140311754Y-147542333D01*
X140299667Y-147457482D01*
X140282376Y-147374378D01*
X140259619Y-147293312D01*
X140246108Y-147253633D01*
X140231132Y-147214572D01*
X140214657Y-147176166D01*
X140196651Y-147138449D01*
X140177080Y-147101459D01*
X140155912Y-147065232D01*
X140133114Y-147029803D01*
X140108653Y-146995210D01*
X140082496Y-146961488D01*
X140054610Y-146928673D01*
X140024961Y-146896802D01*
X139993518Y-146865911D01*
X139960247Y-146836036D01*
X139925115Y-146807213D01*
X139888089Y-146779478D01*
X139849136Y-146752869D01*
X139751190Y-146694295D01*
X139649402Y-146643197D01*
X139544199Y-146599112D01*
X139436005Y-146561577D01*
X139325246Y-146530132D01*
X139212349Y-146504314D01*
X139097737Y-146483662D01*
X138981836Y-146467712D01*
X138865073Y-146456005D01*
X138747872Y-146448076D01*
X138630658Y-146443466D01*
X138513858Y-146441711D01*
X138283198Y-146444921D01*
X138059296Y-146454010D01*
X138059708Y-146454010D01*
X138052289Y-146454030D01*
X138045352Y-146453327D01*
X138038895Y-146451948D01*
X138032918Y-146449940D01*
X138027422Y-146447349D01*
X138022406Y-146444222D01*
X138017869Y-146440604D01*
X138013812Y-146436544D01*
X138010234Y-146432087D01*
X138007135Y-146427279D01*
X138004515Y-146422167D01*
X138002374Y-146416799D01*
X138000711Y-146411219D01*
X137999526Y-146405475D01*
X137998820Y-146399614D01*
X137998590Y-146393681D01*
X137998839Y-146387723D01*
X137999564Y-146381787D01*
X138000767Y-146375919D01*
X138002447Y-146370166D01*
X138004603Y-146364575D01*
X138007235Y-146359191D01*
X138010343Y-146354061D01*
X138013928Y-146349232D01*
X138017988Y-146344751D01*
X138022523Y-146340663D01*
X138027534Y-146337016D01*
X138033020Y-146333855D01*
X138038980Y-146331228D01*
X138045415Y-146329180D01*
X138052324Y-146327759D01*
X138059708Y-146327011D01*
X138300373Y-146317623D01*
X138549061Y-146315424D01*
X138675112Y-146318325D01*
G37*
G36*
X139674704Y-128565208D02*
G01*
X139680816Y-128565735D01*
X139686847Y-128566760D01*
X139692754Y-128568258D01*
X139698498Y-128570207D01*
X139704038Y-128572583D01*
X139709333Y-128575365D01*
X139714344Y-128578529D01*
X139719028Y-128582052D01*
X139723346Y-128585910D01*
X139727256Y-128590082D01*
X139730719Y-128594545D01*
X139733694Y-128599274D01*
X139736139Y-128604248D01*
X139738015Y-128609443D01*
X139739281Y-128614837D01*
X139739896Y-128620406D01*
X139739820Y-128626127D01*
X139739012Y-128631978D01*
X139737431Y-128637936D01*
X139735037Y-128643977D01*
X139731788Y-128650080D01*
X139727646Y-128656219D01*
X139590088Y-128825393D01*
X139440680Y-128981867D01*
X139280460Y-129126276D01*
X139110466Y-129259256D01*
X138931736Y-129381440D01*
X138745308Y-129493464D01*
X138552220Y-129595964D01*
X138353510Y-129689573D01*
X138150216Y-129774928D01*
X137943376Y-129852662D01*
X137734029Y-129923412D01*
X137523211Y-129987812D01*
X137311962Y-130046496D01*
X137101319Y-130100101D01*
X136686005Y-130194611D01*
X136678642Y-130195798D01*
X136671561Y-130196214D01*
X136664776Y-130195903D01*
X136658298Y-130194911D01*
X136652140Y-130193282D01*
X136646314Y-130191061D01*
X136640833Y-130188292D01*
X136635709Y-130185021D01*
X136630954Y-130181293D01*
X136626581Y-130177151D01*
X136622603Y-130172642D01*
X136619031Y-130167809D01*
X136615879Y-130162698D01*
X136613158Y-130157353D01*
X136610881Y-130151819D01*
X136609060Y-130146141D01*
X136607709Y-130140364D01*
X136606838Y-130134532D01*
X136606461Y-130128691D01*
X136606590Y-130122885D01*
X136607238Y-130117159D01*
X136608416Y-130111558D01*
X136610138Y-130106126D01*
X136612416Y-130100909D01*
X136615261Y-130095951D01*
X136618687Y-130091297D01*
X136622706Y-130086992D01*
X136627331Y-130083080D01*
X136632573Y-130079607D01*
X136638445Y-130076617D01*
X136644960Y-130074155D01*
X136652130Y-130072266D01*
X137054174Y-129981448D01*
X137258873Y-129930076D01*
X137464579Y-129873881D01*
X137670211Y-129812230D01*
X137874686Y-129744487D01*
X138076920Y-129670017D01*
X138275831Y-129588184D01*
X138470337Y-129498355D01*
X138659355Y-129399894D01*
X138841802Y-129292166D01*
X139016596Y-129174537D01*
X139182654Y-129046370D01*
X139262068Y-128978137D01*
X139338893Y-128907032D01*
X139412992Y-128832975D01*
X139484231Y-128755887D01*
X139552473Y-128675689D01*
X139617584Y-128592300D01*
X139617996Y-128592300D01*
X139622696Y-128586599D01*
X139627721Y-128581623D01*
X139633028Y-128577351D01*
X139638579Y-128573759D01*
X139644331Y-128570824D01*
X139650245Y-128568524D01*
X139656280Y-128566835D01*
X139662395Y-128565735D01*
X139668550Y-128565200D01*
X139674704Y-128565208D01*
G37*
M02*
