%TF.GenerationSoftware,KiCad,Pcbnew,8.0.0*%
%TF.CreationDate,2024-03-08T01:19:46-06:00*%
%TF.ProjectId,SAO_2024,53414f5f-3230-4323-942e-6b696361645f,rev?*%
%TF.SameCoordinates,Original*%
%TF.FileFunction,Profile,NP*%
%FSLAX46Y46*%
G04 Gerber Fmt 4.6, Leading zero omitted, Abs format (unit mm)*
G04 Created by KiCad (PCBNEW 8.0.0) date 2024-03-08 01:19:46*
%MOMM*%
%LPD*%
G01*
G04 APERTURE LIST*
%TA.AperFunction,Profile*%
%ADD10C,0.050799*%
%TD*%
G04 APERTURE END LIST*
D10*
X154444290Y-128639343D02*
X154308380Y-127461838D01*
X149671110Y-151371200D02*
X149738142Y-151352275D01*
X128803754Y-142815905D02*
X128825289Y-142906853D01*
X153585956Y-125028204D02*
X153513985Y-124896319D01*
X149535475Y-151402116D02*
X149603513Y-151387808D01*
X129623917Y-128407898D02*
X129670450Y-128451555D01*
X130296522Y-124631213D02*
X130217121Y-124688257D01*
X154148354Y-131567565D02*
X154200238Y-131414708D01*
X129901752Y-146466557D02*
X129836514Y-146557291D01*
X129461911Y-150286214D02*
X129463037Y-150290963D01*
X131166153Y-145018744D02*
X131142060Y-145054184D01*
X153654672Y-132581760D02*
X153738800Y-132443989D01*
X131649570Y-123575092D02*
X131598572Y-123613334D01*
X129917980Y-124939255D02*
X129848418Y-125007895D01*
X130253722Y-144337109D02*
X130322228Y-144356609D01*
X154420744Y-146024271D02*
X154424712Y-145917065D01*
X128708369Y-132669689D02*
X128699705Y-132737239D01*
X129826473Y-130769267D02*
X129712938Y-130863025D01*
X130926759Y-129806065D02*
X130936840Y-129864054D01*
X129457605Y-125511682D02*
X129420335Y-125575438D01*
X130654198Y-129178724D02*
X130697656Y-129254856D01*
X128887921Y-132012531D02*
X128850732Y-132107913D01*
X130325524Y-151359432D02*
X130363383Y-151374296D01*
X131382104Y-144619680D02*
X131380451Y-144633644D01*
X129712938Y-130863025D02*
X129606622Y-130957282D01*
X129432474Y-147300179D02*
X129398921Y-147390370D01*
X129833047Y-151018573D02*
X129872963Y-151060755D01*
X129327232Y-149527376D02*
X129342226Y-149664142D01*
X131360208Y-144707684D02*
X131354039Y-144722830D01*
X130569166Y-129047892D02*
X130611037Y-129109087D01*
X150905650Y-150216399D02*
X150926139Y-150158627D01*
X131293837Y-144504375D02*
X131308233Y-144505452D01*
X129793836Y-144145959D02*
X129856853Y-144179165D01*
X152525959Y-148765831D02*
X152571323Y-148732483D01*
X151255407Y-122788810D02*
X151118988Y-122728172D01*
X150403080Y-150986484D02*
X150453751Y-150938477D01*
X131052901Y-144504355D02*
X131108973Y-144507482D01*
X129945199Y-151128513D02*
X129976251Y-151154793D01*
X152479201Y-148797253D02*
X152525959Y-148765831D01*
X152043027Y-149238753D02*
X152073100Y-149181304D01*
X153938080Y-147381378D02*
X153979907Y-147339683D01*
X154360676Y-145249153D02*
X154344414Y-145194168D01*
X153730753Y-144451329D02*
X153678787Y-144423635D01*
X153831272Y-144512396D02*
X153781624Y-144480910D01*
X130938702Y-129889033D02*
X130938280Y-129911012D01*
X129397973Y-128140199D02*
X129449423Y-128211096D01*
X129301971Y-149253311D02*
X129313932Y-149390419D01*
X130715132Y-124378369D02*
X130628935Y-124424744D01*
X128688705Y-132872963D02*
X128685998Y-132941028D01*
X130996967Y-144499471D02*
X131052901Y-144504355D01*
X130885518Y-144485051D02*
X130941172Y-144492985D01*
X151404212Y-149910303D02*
X151443004Y-149886936D01*
X152892699Y-148362947D02*
X152913539Y-148325536D01*
X129260899Y-125908159D02*
X129234603Y-125977172D01*
X149349020Y-151430823D02*
X149408127Y-151423375D01*
X129239522Y-148140660D02*
X129234370Y-148236617D01*
X130920677Y-129959599D02*
X130906033Y-129976611D01*
X154424712Y-145917065D02*
X154426447Y-145809825D01*
X148873650Y-151441811D02*
X148992722Y-151445326D01*
X129725552Y-150882362D02*
X129759402Y-150929262D01*
X130288069Y-151343579D02*
X130325524Y-151359432D01*
X131794156Y-123474673D02*
X131701263Y-123537842D01*
X128684904Y-133009156D02*
X128685238Y-133077293D01*
X152696236Y-144169861D02*
X152593002Y-144159882D01*
X128951298Y-143258301D02*
X128992618Y-143342012D01*
X129313932Y-149390419D02*
X129327232Y-149527376D01*
X129226763Y-127834911D02*
X129264302Y-127914129D01*
X129319171Y-125772465D02*
X129289098Y-125839909D01*
X153384060Y-147693311D02*
X153439595Y-147675068D01*
X131295846Y-144823222D02*
X131285861Y-144835892D01*
X153894352Y-125713216D02*
X153839449Y-125573215D01*
X154392683Y-146344672D02*
X154405005Y-146238176D01*
X129890848Y-128616480D02*
X129950896Y-128654655D01*
X131314760Y-144796267D02*
X131305493Y-144809990D01*
X148992722Y-151445326D02*
X149111713Y-151445366D01*
X129019161Y-131734722D02*
X128972256Y-131825863D01*
X128763550Y-142539063D02*
X128772854Y-142631797D01*
X150651976Y-150705058D02*
X150686554Y-150654485D01*
X130496142Y-145798601D02*
X130415989Y-145876677D01*
X153839449Y-125573215D02*
X153781184Y-125434589D01*
X129499061Y-150413488D02*
X129518011Y-150468371D01*
X151591461Y-149783051D02*
X151641845Y-149742098D01*
X151284355Y-149974239D02*
X151324854Y-149953950D01*
X153601623Y-147609012D02*
X153653719Y-147583024D01*
X130363383Y-151374296D02*
X130401604Y-151388181D01*
X129458252Y-150276887D02*
X129458892Y-150277924D01*
X153001238Y-148130666D02*
X153015709Y-148090389D01*
X153678787Y-144423635D02*
X153625856Y-144397811D01*
X131370544Y-144677514D02*
X131365723Y-144692555D01*
X131377947Y-144647986D02*
X131374632Y-144662633D01*
X129635155Y-150734055D02*
X129663489Y-150784644D01*
X129111013Y-126426546D02*
X129089839Y-126547178D01*
X153964305Y-132015475D02*
X154030333Y-131868110D01*
X154124930Y-147155388D02*
X154155817Y-147105528D01*
X152073100Y-149181304D02*
X152101387Y-149122974D01*
X129260132Y-147949623D02*
X129248134Y-148044964D01*
X153818484Y-132303576D02*
X153893671Y-132160684D01*
X153894626Y-147420718D02*
X153938080Y-147381378D01*
X129379833Y-149971182D02*
X129385866Y-150013665D01*
X131402301Y-123776167D02*
X131355357Y-123819326D01*
X130529578Y-128997087D02*
X130569166Y-129047892D01*
X130063615Y-124809118D02*
X129989753Y-124873008D01*
X150808626Y-150441840D02*
X150835182Y-150386483D01*
X129458892Y-150277924D02*
X129459519Y-150279169D01*
X128786266Y-142724149D02*
X128803754Y-142815905D01*
X154397939Y-145417392D02*
X154387362Y-145360867D01*
X131135311Y-124049672D02*
X131094507Y-124098630D01*
X135534519Y-122669490D02*
X135219734Y-122663903D01*
X129969302Y-146377485D02*
X129901752Y-146466557D01*
X153971588Y-144618465D02*
X153926383Y-144581155D01*
X152951820Y-148249039D02*
X152969327Y-148210028D01*
X154200238Y-131414708D02*
X154247299Y-131260345D01*
X133017519Y-122925465D02*
X132909916Y-122957406D01*
X129442963Y-150301025D02*
X129444709Y-150294675D01*
X129055632Y-126912752D02*
X129054333Y-126973955D01*
X152657425Y-148660120D02*
X152697939Y-148621162D01*
X154211433Y-147002096D02*
X154236244Y-146948761D01*
X151075017Y-150060563D02*
X151117684Y-150045298D01*
X149804486Y-151331016D02*
X149870020Y-151307407D01*
X129248134Y-148044964D02*
X129239522Y-148140660D01*
X129538373Y-150522825D02*
X129560207Y-150576735D01*
X129449656Y-150280949D02*
X129450439Y-150279429D01*
X129340443Y-147573718D02*
X129315670Y-147666686D01*
X154387362Y-145360867D02*
X154374966Y-145304753D01*
X132696975Y-123028463D02*
X132591819Y-123067660D01*
X133125756Y-122895860D02*
X133017519Y-122925465D01*
X152494891Y-123610234D02*
X152382768Y-123511721D01*
X131220240Y-123954635D02*
X131177235Y-124001672D01*
X152840482Y-148447487D02*
X152870682Y-148399750D01*
X130909030Y-129738993D02*
X130926759Y-129806065D01*
X153879568Y-144545805D02*
X153831272Y-144512396D01*
X150615735Y-150754440D02*
X150651976Y-150705058D01*
X151443004Y-149886936D02*
X151481158Y-149862533D01*
X150945160Y-150100449D02*
X150988721Y-150088134D01*
X153738800Y-132443989D02*
X153818484Y-132303576D01*
X153053574Y-147967625D02*
X153064457Y-147926183D01*
X129234757Y-148428932D02*
X129240448Y-148525101D01*
X153376165Y-132977599D02*
X153473300Y-132848727D01*
X129448056Y-150284643D02*
X129448862Y-150282686D01*
X130139445Y-124747547D02*
X130063615Y-124809118D01*
X152331679Y-148879672D02*
X152381949Y-148854202D01*
X129463037Y-150290963D02*
X129464116Y-150296523D01*
X148352427Y-122261165D02*
X148239523Y-122266730D01*
X128850841Y-142996779D02*
X128880379Y-143085471D01*
X129384819Y-125640184D02*
X129351088Y-125705875D01*
X131309340Y-123863459D02*
X131264288Y-123908563D01*
X129537292Y-125387324D02*
X129496601Y-125448962D01*
X131221524Y-144507840D02*
X131278000Y-144504761D01*
X129856853Y-144179165D02*
X129920901Y-144210394D01*
X131305493Y-144809990D02*
X131295846Y-144823222D01*
X129608537Y-150682464D02*
X129635155Y-150734055D01*
X154119749Y-126429427D02*
X154080841Y-126284492D01*
X131054862Y-124148544D02*
X131016414Y-124199411D01*
X147901276Y-122291394D02*
X147676178Y-122312393D01*
X152736614Y-148580391D02*
X152773337Y-148537836D01*
X129444709Y-150294675D02*
X129446407Y-150289217D01*
X131285861Y-144835892D02*
X131275576Y-144847926D01*
X130611037Y-129109087D02*
X130654198Y-129178724D01*
X129315670Y-147666686D02*
X129293976Y-147760389D01*
X154258119Y-144982410D02*
X154230850Y-144932023D01*
X131226797Y-144922946D02*
X131194119Y-144975554D01*
X154405005Y-146238176D02*
X154414267Y-146131342D01*
X129388458Y-143857651D02*
X129441965Y-143904867D01*
X150988721Y-150088134D02*
X151032018Y-150074840D01*
X149998165Y-151253075D02*
X150060531Y-151222318D01*
X129453447Y-150275516D02*
X129454169Y-150275075D01*
X131354039Y-144722830D02*
X131347256Y-144737919D01*
X154488086Y-129298876D02*
X154482342Y-129133573D01*
X128772854Y-142631797D02*
X128786266Y-142724149D01*
X128693213Y-132805016D02*
X128688705Y-132872963D01*
X131332001Y-144767640D02*
X131323609Y-144782126D01*
X150239323Y-151115491D02*
X150295743Y-151074975D01*
X129989753Y-124873008D02*
X129917980Y-124939255D01*
X133652775Y-122782758D02*
X133497989Y-122811338D01*
X152228407Y-148924463D02*
X152280461Y-148903102D01*
X131108973Y-144507482D02*
X131165181Y-144508695D01*
X128880379Y-143085471D02*
X128913875Y-143172716D01*
X154096251Y-144742325D02*
X154056651Y-144699032D01*
X128737977Y-132501411D02*
X128719391Y-132602417D01*
X153214506Y-147737520D02*
X153271400Y-147724479D01*
X154056794Y-147250801D02*
X154091936Y-147203851D01*
X154326103Y-145139900D02*
X154305669Y-145086450D01*
X129196268Y-143653865D02*
X129256624Y-143725016D01*
X154473066Y-128968479D02*
X154444290Y-128639343D01*
X152280461Y-148903102D02*
X152331679Y-148879672D01*
X131450133Y-123733985D02*
X131402301Y-123776167D01*
X129950896Y-128654655D02*
X130071863Y-128726452D01*
X154406774Y-145474229D02*
X154397939Y-145417392D01*
X153572089Y-144373839D02*
X153517614Y-144351700D01*
X129663489Y-150784644D02*
X129693601Y-150834118D01*
X128817023Y-132204564D02*
X128786914Y-132302412D01*
X153719530Y-125297463D02*
X153654463Y-125161960D01*
X128699705Y-132737239D02*
X128693213Y-132805016D01*
X153101272Y-124269306D02*
X153007980Y-124151253D01*
X154201152Y-144882860D02*
X154168945Y-144835022D01*
X153979907Y-147339683D02*
X154019465Y-147296118D01*
X130819883Y-129502749D02*
X130854599Y-129585387D01*
X153157392Y-147748942D02*
X153214506Y-147737520D01*
X148465407Y-122257276D02*
X148352427Y-122261165D01*
X152381949Y-148854202D02*
X152431160Y-148826719D01*
X153462561Y-144331376D02*
X153407059Y-144312851D01*
X152593002Y-144159882D02*
X152799301Y-140714554D01*
X129392764Y-150056010D02*
X129400781Y-150098176D01*
X154308380Y-127461838D02*
X154289439Y-127313001D01*
X129553712Y-143993245D02*
X129611787Y-144034420D01*
X151941990Y-149404781D02*
X151977482Y-149350595D01*
X129385866Y-150013665D02*
X129392764Y-150056010D01*
X151904671Y-149457674D02*
X151941990Y-149404781D01*
X130322228Y-144356609D02*
X130391190Y-144374176D01*
X153517614Y-144351700D02*
X153462561Y-144331376D01*
X149870020Y-151307407D02*
X149934621Y-151281432D01*
X129518011Y-150468371D02*
X129538373Y-150522825D01*
X129459519Y-150279169D02*
X129460134Y-150280621D01*
X131374632Y-144662633D02*
X131370544Y-144677514D01*
X129693601Y-150834118D02*
X129725552Y-150882362D01*
X129162439Y-127671763D02*
X129192796Y-127754063D01*
X129073486Y-126668556D02*
X129062051Y-126790481D01*
X154483185Y-129794986D02*
X154488602Y-129629689D01*
X153271400Y-147724479D02*
X153327957Y-147709762D01*
X151736933Y-149654250D02*
X151781657Y-149607562D01*
X130781492Y-129418816D02*
X130819883Y-129502749D01*
X130478958Y-151413055D02*
X130544646Y-151431441D01*
X150350370Y-151031978D02*
X150403080Y-150986484D01*
X150968392Y-122666010D02*
X150816108Y-122608581D01*
X131308233Y-144505452D02*
X131321226Y-144507920D01*
X151118988Y-122728172D02*
X150968392Y-122666010D01*
X152175629Y-148943726D02*
X152228407Y-148924463D01*
X130440143Y-151401098D02*
X130478958Y-151413055D01*
X150060531Y-151222318D02*
X150121594Y-151189146D01*
X154015053Y-144657751D02*
X153971588Y-144618465D01*
X129579649Y-125326814D02*
X129537292Y-125387324D01*
X130830006Y-144475826D02*
X130885518Y-144485051D01*
X129454880Y-150274848D02*
X129455578Y-150274834D01*
X131379418Y-144569050D02*
X131381563Y-144580779D01*
X129460134Y-150280621D02*
X129460738Y-150282280D01*
X151652574Y-122995326D02*
X151522309Y-122922469D01*
X131332856Y-144511707D02*
X131343164Y-144516739D01*
X129560207Y-150576735D02*
X129583575Y-150629986D01*
X129504255Y-128279465D02*
X129562432Y-128345125D01*
X130074235Y-151227151D02*
X130108363Y-151249142D01*
X152870682Y-148399750D02*
X152892699Y-148362947D01*
X130461227Y-128934433D02*
X130476652Y-128944618D01*
X153064457Y-147926183D02*
X153083813Y-147842741D01*
X154357758Y-146556244D02*
X154377026Y-146450728D01*
X154331948Y-146670629D02*
X154345703Y-146613542D01*
X150577812Y-150802551D02*
X150615735Y-150754440D01*
X135848770Y-122682327D02*
X135534519Y-122669490D01*
X129623641Y-125267476D02*
X129579649Y-125326814D01*
X154268059Y-127164479D02*
X154244102Y-127016354D01*
X131194119Y-144975554D02*
X131166153Y-145018744D01*
X152799301Y-140714554D02*
X152945892Y-133458557D01*
X153781184Y-125434589D02*
X153719530Y-125297463D01*
X131382867Y-144606166D02*
X131382104Y-144619680D01*
X152571323Y-148732483D02*
X152615183Y-148697236D01*
X132384593Y-123153595D02*
X132282704Y-123200415D01*
X131011169Y-145225387D02*
X130987771Y-145258876D01*
X129398921Y-147390370D02*
X129368219Y-147481581D01*
X131120998Y-145083543D02*
X131102125Y-145108489D01*
X150926139Y-150158627D02*
X150945160Y-150100449D01*
X153654463Y-125161960D02*
X153585956Y-125028204D01*
X130071863Y-128726452D02*
X130189169Y-128791338D01*
X129464116Y-150296523D02*
X129465149Y-150302887D01*
X152985789Y-148170558D02*
X153001238Y-148130666D01*
X154019465Y-147296118D02*
X154056794Y-147250801D01*
X153083813Y-147842741D02*
X153100174Y-147758804D01*
X149552397Y-122309644D02*
X149390672Y-122291095D01*
X149228537Y-122276451D02*
X149066121Y-122265629D01*
X154155391Y-126575161D02*
X154119749Y-126429427D01*
X152773337Y-148537836D02*
X152807997Y-148493525D01*
X131985032Y-123356775D02*
X131888776Y-123414331D01*
X130337253Y-145956256D02*
X130260062Y-146037360D01*
X149467117Y-151414139D02*
X149535475Y-151402116D01*
X129468801Y-147211104D02*
X129432474Y-147300179D01*
X129135730Y-127588190D02*
X129162439Y-127671763D01*
X150686554Y-150654485D02*
X150719489Y-150602798D01*
X130544646Y-151431441D02*
X130610747Y-151447669D01*
X129066130Y-127244771D02*
X129077869Y-127331637D01*
X151865516Y-149509171D02*
X151904671Y-149457674D01*
X129920901Y-144210394D02*
X129985897Y-144239653D01*
X149874107Y-122358790D02*
X149713585Y-122332182D01*
X152382768Y-123511721D02*
X152267729Y-123416628D01*
X129451209Y-150278127D02*
X129451967Y-150277041D01*
X151324854Y-149953950D02*
X151364818Y-149932639D01*
X130143152Y-151270086D02*
X130178560Y-151289991D01*
X129232757Y-148332739D02*
X129234757Y-148428932D01*
X131380451Y-144633644D02*
X131377947Y-144647986D01*
X154133726Y-144787649D02*
X154096251Y-144742325D01*
X150538186Y-150849313D02*
X150577812Y-150802551D01*
X154414267Y-146131342D02*
X154420744Y-146024271D01*
X152431160Y-148826719D02*
X152479201Y-148797253D01*
X131366538Y-144538589D02*
X131371944Y-144547883D01*
X131265030Y-144859253D02*
X131226797Y-144922946D01*
X129441965Y-143904867D02*
X129497077Y-143950063D01*
X130493268Y-128958618D02*
X130529578Y-128997087D01*
X131278000Y-144504761D02*
X131293837Y-144504375D01*
X130543854Y-124473180D02*
X130460010Y-124523711D01*
X129601232Y-146937299D02*
X129549469Y-147036682D01*
X153513985Y-124896319D02*
X153438524Y-124766430D01*
X132324650Y-151473974D02*
X133089935Y-151408646D01*
X129289098Y-125839909D02*
X129260899Y-125908159D01*
X131275576Y-144847926D02*
X131265030Y-144859253D01*
X129359324Y-131223126D02*
X129296240Y-131303834D01*
X130217121Y-124688257D02*
X130139445Y-124747547D01*
X152902193Y-144195999D02*
X152799350Y-144181790D01*
X130935448Y-129929746D02*
X130930084Y-129944992D01*
X130118405Y-144292284D02*
X130185754Y-144315669D01*
X129562432Y-128345125D02*
X129623917Y-128407898D01*
X154299174Y-146783698D02*
X154316452Y-146727387D01*
X129400781Y-150098176D02*
X129410172Y-150140121D01*
X129455578Y-150274834D02*
X129456264Y-150275031D01*
X129606622Y-130957282D02*
X129509784Y-131051316D01*
X152709956Y-123817196D02*
X152603990Y-123712086D01*
X154291270Y-131100781D02*
X154330581Y-130940157D01*
X153754345Y-147524748D02*
X153802643Y-147492345D01*
X130377526Y-124576377D02*
X130296522Y-124631213D01*
X151364818Y-149932639D02*
X151404212Y-149910303D01*
X130051759Y-144266948D02*
X130118405Y-144292284D01*
X129055619Y-127096370D02*
X129058228Y-127157532D01*
X128972256Y-131825863D02*
X128928469Y-131918490D01*
X129235552Y-131386462D02*
X129177379Y-131470937D01*
X129583575Y-150629986D02*
X129608537Y-150682464D01*
X131359965Y-144530253D02*
X131366538Y-144538589D01*
X153849442Y-147457687D02*
X153894626Y-147420718D01*
X129069063Y-131645139D02*
X129019161Y-131734722D01*
X150860191Y-150330405D02*
X150883674Y-150273684D01*
X129054325Y-127035169D02*
X129055619Y-127096370D01*
X130391190Y-144374176D02*
X130609405Y-144429118D01*
X131321226Y-144507920D02*
X131332856Y-144511707D01*
X130460010Y-124523711D02*
X130377526Y-124576377D01*
X131102125Y-145108489D02*
X131067585Y-145151810D01*
X130929039Y-145349309D02*
X130892023Y-145409588D01*
X153566154Y-132716726D02*
X153654672Y-132581760D01*
X154039136Y-126140230D02*
X153994170Y-125996847D01*
X130260062Y-146037360D02*
X130184544Y-146120013D01*
X130740419Y-129335536D02*
X130781492Y-129418816D01*
X133963814Y-122735790D02*
X133652775Y-122782758D01*
X130884645Y-129664784D02*
X130909030Y-129738993D01*
X150719489Y-150602798D02*
X150750799Y-150550076D01*
X129549469Y-147036682D02*
X129507824Y-147123240D01*
X153007980Y-124151253D02*
X152912060Y-124036860D01*
X130610747Y-151447669D02*
X130677223Y-151461863D01*
X130960675Y-145299628D02*
X130929039Y-145349309D01*
X154344414Y-145194168D02*
X154326103Y-145139900D01*
X129286771Y-149071246D02*
X129301971Y-149253311D01*
X130723689Y-130123483D02*
X130307650Y-130413605D01*
X130178560Y-151289991D02*
X130214545Y-151308869D01*
X151389884Y-122853603D02*
X151255407Y-122788810D01*
X152152641Y-149004082D02*
X152175629Y-148943726D01*
X153029233Y-148049766D02*
X153041844Y-148008832D01*
X129465149Y-150302887D02*
X129481460Y-150358288D01*
X128686813Y-133145386D02*
X128763550Y-142539063D01*
X129457602Y-150276058D02*
X129458252Y-150276887D01*
X151481158Y-149862533D02*
X151518642Y-149837087D01*
X154316452Y-146727387D02*
X154331948Y-146670629D01*
X129093407Y-127417948D02*
X129112707Y-127503526D01*
X152149881Y-123325037D02*
X152029334Y-123237030D01*
X152799350Y-144181790D02*
X152696236Y-144169861D01*
X130307650Y-130413605D02*
X130066171Y-130586122D01*
X128685998Y-132941028D02*
X128684904Y-133009156D01*
X131016414Y-124199411D02*
X130979202Y-124251228D01*
X154365326Y-130778578D02*
X154395601Y-130616151D01*
X149230516Y-151440882D02*
X149289812Y-151436615D01*
X129077869Y-127331637D02*
X129093407Y-127417948D01*
X154305669Y-145086450D02*
X154283032Y-145033919D01*
X132082833Y-123301964D02*
X131985032Y-123356775D01*
X153100174Y-147758804D02*
X153157392Y-147748942D01*
X154259111Y-146894503D02*
X154280074Y-146839443D01*
X154490204Y-129464283D02*
X154488086Y-129298876D01*
X131031710Y-145197491D02*
X131011169Y-145225387D01*
X154330581Y-130940157D02*
X154365326Y-130778578D01*
X154280074Y-146839443D02*
X154299174Y-146783698D01*
X132282704Y-123200415D02*
X132182087Y-123249858D01*
X131352186Y-144522945D02*
X131359965Y-144530253D01*
X152807997Y-148493525D02*
X152840482Y-148447487D01*
X130930069Y-129944962D02*
X130920677Y-129959599D01*
X150192645Y-122424553D02*
X150033837Y-122389553D01*
X151243355Y-149993514D02*
X151284355Y-149974239D01*
X131149812Y-151514684D02*
X131286020Y-151518541D01*
X154473860Y-129960070D02*
X154483185Y-129794986D01*
X153473300Y-132848727D02*
X153566154Y-132716726D01*
X150506986Y-122507596D02*
X150350404Y-122463873D01*
X153277031Y-124513133D02*
X153190947Y-124389974D01*
X148740955Y-122255123D02*
X148578461Y-122255272D01*
X131286020Y-151518541D02*
X131422189Y-151519226D01*
X148903551Y-122258548D02*
X148740955Y-122255123D01*
X129446407Y-150289217D02*
X129448056Y-150284643D01*
X130987771Y-145258876D02*
X130960675Y-145299628D01*
X133089935Y-151408646D02*
X137795761Y-151005493D01*
X148126696Y-122273762D02*
X147901276Y-122291394D01*
X154091936Y-147203851D02*
X154124930Y-147155388D01*
X154155817Y-147105528D02*
X154184638Y-147054392D01*
X152267729Y-123416628D02*
X152149881Y-123325037D01*
X154168945Y-144835022D02*
X154133726Y-144787649D01*
X129270523Y-148889263D02*
X129286771Y-149071246D01*
X153015709Y-148090389D02*
X153029233Y-148049766D01*
X131264288Y-123908563D02*
X131220240Y-123954635D01*
X129481460Y-150358288D02*
X129499061Y-150413488D01*
X154374966Y-145304753D02*
X154360676Y-145249153D01*
X152969327Y-148210028D02*
X152985789Y-148170558D01*
X154217430Y-126868705D02*
X154187906Y-126721614D01*
X152011158Y-149295218D02*
X152043027Y-149238753D01*
X147676178Y-122312393D02*
X135848770Y-122682327D01*
X150835182Y-150386483D02*
X150860191Y-150330405D01*
X131598572Y-123613334D02*
X131548307Y-123652566D01*
X130415989Y-145876677D02*
X130337253Y-145956256D01*
X130930084Y-129944992D02*
X130930069Y-129944962D01*
X135219734Y-122663903D02*
X134904845Y-122666652D01*
X129449423Y-128211096D02*
X129504255Y-128279465D01*
X154230850Y-144932023D02*
X154201152Y-144882860D01*
X129058228Y-127157532D02*
X129066130Y-127244771D01*
X151780573Y-123072093D02*
X151652574Y-122995326D01*
X134590277Y-122678824D02*
X134276458Y-122701508D01*
X129759402Y-150929262D02*
X129795214Y-150974704D01*
X130719413Y-144454123D02*
X130830006Y-144475826D01*
X130802324Y-124334016D02*
X130715132Y-124378369D01*
X129210241Y-126046901D02*
X129187842Y-126117300D01*
X149738142Y-151352275D02*
X149804486Y-151331016D01*
X129424683Y-131144409D02*
X129359324Y-131223126D01*
X129773715Y-146649709D02*
X129713483Y-146743835D01*
X129611787Y-144034420D02*
X129671221Y-144073593D01*
X151159986Y-150029038D02*
X151201887Y-150011778D01*
X154423592Y-145645588D02*
X154419523Y-145588428D01*
X154289439Y-127313001D02*
X154268059Y-127164479D01*
X129342226Y-149664142D02*
X129359268Y-149800674D01*
X129509784Y-131051316D02*
X129424683Y-131144409D01*
X132182087Y-123249858D02*
X132082833Y-123301964D01*
X129062051Y-126790481D02*
X129055632Y-126912752D01*
X151518642Y-149837087D02*
X151555421Y-149810595D01*
X129167435Y-126188324D02*
X129136911Y-126306861D01*
X130848785Y-145482132D02*
X130660187Y-145646866D01*
X150662264Y-122555804D02*
X150506986Y-122507596D01*
X154236244Y-146948761D02*
X154259111Y-146894503D01*
X153994170Y-125996847D02*
X153945917Y-125854468D01*
X153274802Y-133103180D02*
X153376165Y-132977599D01*
X153926383Y-144581155D02*
X153879568Y-144545805D01*
X150295743Y-151074975D02*
X150350370Y-151031978D01*
X131498815Y-123692784D02*
X131450133Y-123733985D01*
X130862119Y-130017394D02*
X130800585Y-130066591D01*
X129359268Y-149800674D02*
X129379833Y-149971182D01*
X130476652Y-128944618D02*
X130493268Y-128958618D01*
X129669240Y-125209358D02*
X129623641Y-125267476D01*
X152127897Y-149063866D02*
X152152641Y-149004082D01*
X131941667Y-151501517D02*
X132133221Y-151488790D01*
X152603990Y-123712086D02*
X152494891Y-123610234D01*
X148578461Y-122255272D02*
X148465407Y-122257276D01*
X129187842Y-126117300D02*
X129167435Y-126188324D01*
X151977482Y-149350595D02*
X152011158Y-149295218D01*
X130185754Y-144315669D02*
X130253722Y-144337109D01*
X131701263Y-123537842D02*
X131649570Y-123575092D01*
X153802643Y-147492345D02*
X153849442Y-147457687D01*
X149111713Y-151445366D02*
X149230516Y-151440882D01*
X128825289Y-142906853D02*
X128850841Y-142996779D01*
X129351088Y-125705875D02*
X129319171Y-125772465D01*
X131343164Y-144516739D02*
X131352186Y-144522945D01*
X129192796Y-127754063D02*
X129226763Y-127834911D01*
X153004614Y-144212820D02*
X152902193Y-144195999D01*
X149289812Y-151436615D02*
X149349020Y-151430823D01*
X154056651Y-144699032D02*
X154015053Y-144657751D01*
X129454169Y-150275075D02*
X129454880Y-150274848D01*
X131347256Y-144737919D02*
X131339897Y-144752880D01*
X129293976Y-147760389D02*
X129275438Y-147854734D01*
X129234603Y-125977172D02*
X129210241Y-126046901D01*
X131371944Y-144547883D02*
X131376225Y-144558060D01*
X151555421Y-149810595D02*
X151591461Y-149783051D01*
X129234370Y-148236617D02*
X129232757Y-148332739D01*
X130697656Y-129254856D02*
X130740419Y-129335536D01*
X152945892Y-133458557D02*
X153059612Y-133343821D01*
X154080841Y-126284492D02*
X154039136Y-126140230D01*
X149713585Y-122332182D02*
X149552397Y-122309644D01*
X132909916Y-122957406D02*
X132803038Y-122991725D01*
X129177379Y-131470937D02*
X129121843Y-131557187D01*
X130297024Y-128848304D02*
X130461227Y-128934433D01*
X128719391Y-132602417D02*
X128708369Y-132669689D01*
X131558014Y-151517731D02*
X131749945Y-151511411D01*
X131749945Y-151511411D02*
X131941667Y-151501517D01*
X129305375Y-127991535D02*
X129349945Y-128066952D01*
X152933235Y-148287554D02*
X152951820Y-148249039D01*
X153041844Y-148008832D02*
X153053574Y-147967625D01*
X154413943Y-145531275D02*
X154406774Y-145474229D01*
X129054333Y-126973955D02*
X129054325Y-127035169D01*
X130251062Y-151326728D02*
X130288069Y-151343579D01*
X152615183Y-148697236D02*
X152657425Y-148660120D01*
X129781189Y-125078966D02*
X129716415Y-125152504D01*
X130938280Y-129911012D02*
X130935448Y-129929746D01*
X130108363Y-151249142D02*
X130143152Y-151270086D01*
X153893671Y-132160684D02*
X153964305Y-132015475D01*
X150453751Y-150938477D02*
X150496839Y-150894648D01*
X129450439Y-150279429D02*
X129451209Y-150278127D01*
X131142060Y-145054184D02*
X131120998Y-145083543D01*
X150181232Y-151153543D02*
X150239323Y-151115491D01*
X130660187Y-145646866D02*
X130577584Y-145722005D01*
X137795761Y-151005493D02*
X148517044Y-151420929D01*
X129275438Y-147854734D02*
X129260132Y-147949623D01*
X154377026Y-146450728D02*
X154392683Y-146344672D01*
X151522309Y-122922469D02*
X151389884Y-122853603D01*
X128786914Y-132302412D02*
X128760525Y-132401386D01*
X129451967Y-150277041D02*
X129452713Y-150276171D01*
X154345703Y-146613542D02*
X154357758Y-146556244D01*
X150780505Y-150496397D02*
X150808626Y-150441840D01*
X128928469Y-131918490D02*
X128887921Y-132012531D01*
X129848418Y-125007895D02*
X129781189Y-125078966D01*
X131094507Y-124098630D02*
X131054862Y-124148544D01*
X130854599Y-129585387D02*
X130884645Y-129664784D01*
X129139660Y-143579777D02*
X129196268Y-143653865D01*
X129368219Y-147481581D02*
X129340443Y-147573718D01*
X129089839Y-126547178D02*
X129073486Y-126668556D01*
X131177235Y-124001672D02*
X131135311Y-124049672D01*
X130040812Y-151204103D02*
X130074235Y-151227151D01*
X129410172Y-150140121D02*
X129442963Y-150301025D01*
X131381563Y-144580779D02*
X131382699Y-144593175D01*
X129086829Y-143502963D02*
X129139660Y-143579777D01*
X130941172Y-144492985D02*
X130996967Y-144499471D01*
X149408127Y-151423375D02*
X149467117Y-151414139D01*
X153359548Y-124638660D02*
X153277031Y-124513133D01*
X150033837Y-122389553D02*
X149874107Y-122358790D01*
X132133221Y-151488790D02*
X132324650Y-151473974D01*
X129452713Y-150276171D02*
X129453447Y-150275516D01*
X130628935Y-124424744D02*
X130543854Y-124473180D01*
X150496839Y-150894648D02*
X150538186Y-150849313D01*
X129832056Y-128576957D02*
X129890848Y-128616480D01*
X130906033Y-129976611D02*
X130862119Y-130017394D01*
X129872963Y-151060755D02*
X129915024Y-151101135D01*
X151117684Y-150045298D02*
X151159986Y-150029038D01*
X134904845Y-122666652D02*
X134590277Y-122678824D01*
X129655946Y-146839690D02*
X129601232Y-146937299D01*
X130609405Y-144429118D02*
X130719413Y-144454123D01*
X129716415Y-125152504D02*
X129669240Y-125209358D01*
X129507824Y-147123240D02*
X129468801Y-147211104D01*
X154421497Y-130452980D02*
X154443110Y-130289173D01*
X130401604Y-151388181D02*
X130440143Y-151401098D01*
X148239523Y-122266730D02*
X148126696Y-122273762D01*
X129731931Y-144110770D02*
X129793836Y-144145959D01*
X129448862Y-150282686D02*
X129449656Y-150280949D01*
X129775243Y-128536211D02*
X129832056Y-128576957D01*
X131013874Y-151506660D02*
X131149812Y-151514684D01*
X153059612Y-133343821D02*
X153169267Y-133225308D01*
X153190947Y-124389974D02*
X153101272Y-124269306D01*
X154482342Y-129133573D02*
X154473066Y-128968479D01*
X132487661Y-123109357D02*
X132384593Y-123153595D01*
X129264302Y-127914129D02*
X129305375Y-127991535D01*
X131365723Y-144692555D02*
X131360208Y-144707684D01*
X152101387Y-149122974D02*
X152127897Y-149063866D01*
X151641845Y-149742098D02*
X151690332Y-149699130D01*
X154488602Y-129629689D02*
X154490204Y-129464283D01*
X129713483Y-146743835D02*
X129655946Y-146839690D01*
X130800585Y-130066591D02*
X130723689Y-130123483D01*
X129349945Y-128066952D02*
X129397973Y-128140199D01*
X131067585Y-145151810D02*
X131031710Y-145197491D01*
X129721134Y-128494368D02*
X129775243Y-128536211D01*
X131382699Y-144593175D02*
X131382867Y-144606166D01*
X129976251Y-151154793D02*
X130008136Y-151179987D01*
X154030333Y-131868110D02*
X154091701Y-131718753D01*
X153781624Y-144480910D02*
X153730753Y-144451329D01*
X149066121Y-122265629D02*
X148903551Y-122258548D01*
X130890388Y-124291648D02*
X130802324Y-124334016D01*
X131355357Y-123819326D02*
X131309340Y-123863459D01*
X129985897Y-144239653D02*
X130051759Y-144266948D01*
X130214545Y-151308869D02*
X130251062Y-151326728D01*
X129240448Y-148525101D02*
X129254619Y-148707252D01*
X149603513Y-151387808D02*
X149671110Y-151371200D01*
X128913875Y-143172716D02*
X128951298Y-143258301D01*
X128850732Y-132107913D02*
X128817023Y-132204564D01*
X152029334Y-123237030D02*
X151906195Y-123152688D01*
X154395601Y-130616151D02*
X154421497Y-130452980D01*
X129836514Y-146557291D02*
X129773715Y-146649709D01*
X151781657Y-149607562D02*
X151824515Y-149559167D01*
X133497989Y-122811338D02*
X133343765Y-122843498D01*
X129121843Y-131557187D02*
X129069063Y-131645139D01*
X154247299Y-131260345D02*
X154291270Y-131100781D01*
X129420335Y-125575438D02*
X129384819Y-125640184D01*
X129112707Y-127503526D02*
X129135730Y-127588190D01*
X151906195Y-123152688D02*
X151780573Y-123072093D01*
X153494445Y-147654976D02*
X153548492Y-147632977D01*
X130744034Y-151474146D02*
X130811144Y-151484643D01*
X153106462Y-144232585D02*
X153004614Y-144212820D01*
X130184544Y-146120013D02*
X130110826Y-146204236D01*
X151824515Y-149559167D02*
X151865516Y-149509171D01*
X154460533Y-130124834D02*
X154473860Y-129960070D01*
X151201887Y-150011778D02*
X151243355Y-149993514D01*
X129456264Y-150275031D02*
X129456939Y-150275440D01*
X153207587Y-144255624D02*
X153106462Y-144232585D01*
X154283032Y-145033919D02*
X154258119Y-144982410D01*
X150883674Y-150273684D02*
X150905650Y-150216399D01*
X131165181Y-144508695D02*
X131221524Y-144507840D01*
X130892023Y-145409588D02*
X130848785Y-145482132D01*
X153548492Y-147632977D02*
X153601623Y-147609012D01*
X131422189Y-151519226D02*
X131558014Y-151517731D01*
X130677223Y-151461863D02*
X130744034Y-151474146D01*
X128685238Y-133077293D02*
X128686813Y-133145386D01*
X153307836Y-144282269D02*
X153207587Y-144255624D01*
X130979202Y-124251228D02*
X130890388Y-124291648D01*
X152912060Y-124036860D02*
X152812682Y-123925481D01*
X152913539Y-148325536D02*
X152933235Y-148287554D01*
X153625856Y-144397811D02*
X153572089Y-144373839D01*
X133343765Y-122843498D02*
X133125756Y-122895860D01*
X154426447Y-145809825D02*
X154426224Y-145702652D01*
X132591819Y-123067660D02*
X132487661Y-123109357D01*
X154184638Y-147054392D02*
X154211433Y-147002096D01*
X131888776Y-123414331D02*
X131794156Y-123474673D01*
X153653719Y-147583024D02*
X153704665Y-147554955D01*
X128760525Y-132401386D02*
X128737977Y-132501411D01*
X130189169Y-128791338D02*
X130297024Y-128848304D01*
X129670450Y-128451555D02*
X129721134Y-128494368D01*
X151690332Y-149699130D02*
X151736933Y-149654250D01*
X153945917Y-125854468D02*
X153894352Y-125713216D01*
X134276458Y-122701508D02*
X133963814Y-122735790D01*
X154091701Y-131718753D02*
X154148354Y-131567565D01*
X129256624Y-143725016D02*
X129320698Y-143793015D01*
X152697939Y-148621162D02*
X152736614Y-148580391D01*
X132803038Y-122991725D02*
X132696975Y-123028463D01*
X130936840Y-129864054D02*
X130938702Y-129889033D01*
X130811144Y-151484643D02*
X130878512Y-151493479D01*
X150350404Y-122463873D02*
X150192645Y-122424553D01*
X150816108Y-122608581D02*
X150662264Y-122555804D01*
X130066171Y-130586122D02*
X129944970Y-130676726D01*
X129320698Y-143793015D02*
X129388458Y-143857651D01*
X149390672Y-122291095D02*
X149228537Y-122276451D01*
X129496601Y-125448962D02*
X129457605Y-125511682D01*
X129671221Y-144073593D02*
X129731931Y-144110770D01*
X130039036Y-146290052D02*
X129969302Y-146377485D01*
X131376225Y-144558060D02*
X131379418Y-144569050D01*
X131548307Y-123652566D02*
X131498815Y-123692784D01*
X154426224Y-145702652D02*
X154423592Y-145645588D01*
X130878512Y-151493479D02*
X131013874Y-151506660D01*
X153327957Y-147709762D02*
X153384060Y-147693311D01*
X130577584Y-145722005D02*
X130496142Y-145798601D01*
X151032018Y-150074840D02*
X151075017Y-150060563D01*
X153704665Y-147554955D02*
X153754345Y-147524748D01*
X148517044Y-151420929D02*
X148754607Y-151435873D01*
X150121594Y-151189146D02*
X150181232Y-151153543D01*
X130110826Y-146204236D02*
X130039036Y-146290052D01*
X154443110Y-130289173D02*
X154460533Y-130124834D01*
X153169267Y-133225308D02*
X153274802Y-133103180D01*
X129795214Y-150974704D02*
X129833047Y-151018573D01*
X153438524Y-124766430D02*
X153359548Y-124638660D01*
X129296240Y-131303834D02*
X129235552Y-131386462D01*
X129037804Y-143423637D02*
X129086829Y-143502963D01*
X128992618Y-143342012D02*
X129037804Y-143423637D01*
X153407059Y-144312851D02*
X153307836Y-144282269D01*
X131339897Y-144752880D02*
X131332001Y-144767640D01*
X130008136Y-151179987D02*
X130040812Y-151204103D01*
X129460738Y-150282280D02*
X129461911Y-150286214D01*
X131323609Y-144782126D02*
X131314760Y-144796267D01*
X154419523Y-145588428D02*
X154413943Y-145531275D01*
X149934621Y-151281432D02*
X149998165Y-151253075D01*
X148754607Y-151435873D02*
X148873650Y-151441811D01*
X129136911Y-126306861D02*
X129111013Y-126426546D01*
X129254619Y-148707252D02*
X129270523Y-148889263D01*
X150750799Y-150550076D02*
X150780505Y-150496397D01*
X154244102Y-127016354D02*
X154217430Y-126868705D01*
X152812682Y-123925481D02*
X152709956Y-123817196D01*
X153439595Y-147675068D02*
X153494445Y-147654976D01*
X129915024Y-151101135D02*
X129945199Y-151128513D01*
X129944970Y-130676726D02*
X129826473Y-130769267D01*
X154187906Y-126721614D02*
X154155391Y-126575161D01*
X129497077Y-143950063D02*
X129553712Y-143993245D01*
X129456939Y-150275440D02*
X129457602Y-150276058D01*
M02*
