%TF.GenerationSoftware,KiCad,Pcbnew,8.0.0*%
%TF.CreationDate,2024-03-08T01:19:46-06:00*%
%TF.ProjectId,SAO_2024,53414f5f-3230-4323-942e-6b696361645f,rev?*%
%TF.SameCoordinates,Original*%
%TF.FileFunction,Legend,Bot*%
%TF.FilePolarity,Positive*%
%FSLAX46Y46*%
G04 Gerber Fmt 4.6, Leading zero omitted, Abs format (unit mm)*
G04 Created by KiCad (PCBNEW 8.0.0) date 2024-03-08 01:19:46*
%MOMM*%
%LPD*%
G01*
G04 APERTURE LIST*
G04 Aperture macros list*
%AMRoundRect*
0 Rectangle with rounded corners*
0 $1 Rounding radius*
0 $2 $3 $4 $5 $6 $7 $8 $9 X,Y pos of 4 corners*
0 Add a 4 corners polygon primitive as box body*
4,1,4,$2,$3,$4,$5,$6,$7,$8,$9,$2,$3,0*
0 Add four circle primitives for the rounded corners*
1,1,$1+$1,$2,$3*
1,1,$1+$1,$4,$5*
1,1,$1+$1,$6,$7*
1,1,$1+$1,$8,$9*
0 Add four rect primitives between the rounded corners*
20,1,$1+$1,$2,$3,$4,$5,0*
20,1,$1+$1,$4,$5,$6,$7,0*
20,1,$1+$1,$6,$7,$8,$9,0*
20,1,$1+$1,$8,$9,$2,$3,0*%
G04 Aperture macros list end*
%ADD10C,0.120000*%
%ADD11R,1.000000X3.150000*%
%ADD12RoundRect,0.140000X-0.170000X0.140000X-0.170000X-0.140000X0.170000X-0.140000X0.170000X0.140000X0*%
%ADD13RoundRect,0.140000X0.140000X0.170000X-0.140000X0.170000X-0.140000X-0.170000X0.140000X-0.170000X0*%
%ADD14RoundRect,0.140000X0.170000X-0.140000X0.170000X0.140000X-0.170000X0.140000X-0.170000X-0.140000X0*%
%ADD15RoundRect,0.140000X-0.140000X-0.170000X0.140000X-0.170000X0.140000X0.170000X-0.140000X0.170000X0*%
%ADD16R,0.900000X1.500000*%
%ADD17R,1.500000X0.900000*%
G04 APERTURE END LIST*
D10*
%TO.C,J2*%
X136300000Y-135030000D02*
X136300000Y-133590000D01*
X136300000Y-135030000D02*
X135730000Y-135030000D01*
X135730000Y-140230000D02*
X135730000Y-135030000D01*
X138840000Y-135030000D02*
X137820000Y-135030000D01*
X141380000Y-135030000D02*
X140360000Y-135030000D01*
X143470000Y-135030000D02*
X142900000Y-135030000D01*
X143470000Y-140230000D02*
X143470000Y-135030000D01*
X136300000Y-140230000D02*
X135730000Y-140230000D01*
X138840000Y-140230000D02*
X137820000Y-140230000D01*
X141380000Y-140230000D02*
X140360000Y-140230000D01*
X143470000Y-140230000D02*
X142900000Y-140230000D01*
%TO.C,C2*%
X143520000Y-130477836D02*
X143520000Y-130262164D01*
X144240000Y-130477836D02*
X144240000Y-130262164D01*
%TO.C,C1*%
X141532164Y-130850000D02*
X141747836Y-130850000D01*
X141532164Y-131570000D02*
X141747836Y-131570000D01*
%TO.C,C8*%
X145090000Y-140532164D02*
X145090000Y-140747836D01*
X144370000Y-140532164D02*
X144370000Y-140747836D01*
%TO.C,C6*%
X138120000Y-144412164D02*
X138120000Y-144627836D01*
X137400000Y-144412164D02*
X137400000Y-144627836D01*
%TO.C,C7*%
X146977836Y-141790000D02*
X146762164Y-141790000D01*
X146977836Y-141070000D02*
X146762164Y-141070000D01*
%TO.C,C3*%
X134367836Y-145110000D02*
X134152164Y-145110000D01*
X134367836Y-144390000D02*
X134152164Y-144390000D01*
%TO.C,C4*%
X136032164Y-130780000D02*
X136247836Y-130780000D01*
X136032164Y-131500000D02*
X136247836Y-131500000D01*
%TO.C,C5*%
X134357836Y-143550000D02*
X134142164Y-143550000D01*
X134357836Y-142830000D02*
X134142164Y-142830000D01*
%TO.C,D5*%
X143350000Y-123570000D02*
X143350000Y-130870000D01*
X137850000Y-123570000D02*
X137850000Y-130870000D01*
X139000000Y-123570000D02*
X137850000Y-123570000D01*
%TO.C,D8*%
X152670000Y-140630000D02*
X145370000Y-140630000D01*
X152670000Y-135130000D02*
X145370000Y-135130000D01*
X152670000Y-136280000D02*
X152670000Y-135130000D01*
%TO.C,D6*%
X138320000Y-150690000D02*
X138320000Y-143390000D01*
X143820000Y-150690000D02*
X143820000Y-143390000D01*
X142670000Y-150690000D02*
X143820000Y-150690000D01*
%TO.C,D3*%
X134970000Y-135420000D02*
X134970000Y-142720000D01*
X129470000Y-135420000D02*
X129470000Y-142720000D01*
X130620000Y-135420000D02*
X129470000Y-135420000D01*
%TD*%
%LPC*%
D11*
%TO.C,J2*%
X137060000Y-135105000D03*
X137060000Y-140155000D03*
X139600000Y-135105000D03*
X139600000Y-140155000D03*
X142140000Y-135105000D03*
X142140000Y-140155000D03*
%TD*%
D12*
%TO.C,C2*%
X143880000Y-129890000D03*
X143880000Y-130850000D03*
%TD*%
D13*
%TO.C,C1*%
X142120000Y-131210000D03*
X141160000Y-131210000D03*
%TD*%
D14*
%TO.C,C8*%
X144730000Y-141120000D03*
X144730000Y-140160000D03*
%TD*%
%TO.C,C6*%
X137760000Y-145000000D03*
X137760000Y-144040000D03*
%TD*%
D15*
%TO.C,C7*%
X146390000Y-141430000D03*
X147350000Y-141430000D03*
%TD*%
%TO.C,C3*%
X133780000Y-144750000D03*
X134740000Y-144750000D03*
%TD*%
D13*
%TO.C,C4*%
X136620000Y-131140000D03*
X135660000Y-131140000D03*
%TD*%
D15*
%TO.C,C5*%
X133770000Y-143190000D03*
X134730000Y-143190000D03*
%TD*%
D16*
%TO.C,D5*%
X142250000Y-129670000D03*
X138950000Y-129670000D03*
X138950000Y-124770000D03*
X142250000Y-124770000D03*
%TD*%
D17*
%TO.C,D8*%
X146570000Y-139530000D03*
X146570000Y-136230000D03*
X151470000Y-136230000D03*
X151470000Y-139530000D03*
%TD*%
D16*
%TO.C,D6*%
X139420000Y-144590000D03*
X142720000Y-144590000D03*
X142720000Y-149490000D03*
X139420000Y-149490000D03*
%TD*%
%TO.C,D3*%
X133870000Y-141520000D03*
X130570000Y-141520000D03*
X130570000Y-136620000D03*
X133870000Y-136620000D03*
%TD*%
%LPD*%
M02*
