M48
INCH
T1C0.0138
T2C0.0157
T3C0.0236
T4C0.0295
T5C0.0354
T6C0.0400
T7C0.0728
%
G90
G05
T1
X3.0665Y-2.5543
X3.2606Y-2.6965
X3.2709Y-2.9776
X3.3244Y-1.9075
X3.3272Y-2.687
X3.3681Y-2.1335
X3.4055Y-3.1449
X3.4311Y-2.4803
X3.4472Y-2.9559
X3.465Y-3.3465
X3.4858Y-2.0953
X3.5228Y-1.9244
X3.5453Y-2.3665
X3.5465Y-2.648
X3.6142Y-3.1535
X3.635Y-2.2236
X3.637Y-2.7969
X3.6835Y-2.6594
X3.7177Y-3.2551
X3.7862Y-2.4972
X3.7949Y-3.9012
X3.8008Y-3.3559
X3.8035Y-3.4382
X3.8429Y-1.7406
X3.8614Y-3.0531
X3.9366Y-2.2228
X3.9614Y-3.8925
X3.9622Y-3.6543
X3.9654Y-1.6461
X3.9831Y-2.9228
X3.9866Y-2.8437
X3.9969Y-3.4839
X4.0483Y-3.9488
X4.0484Y-3.4406
X4.0551Y-2.6264
X4.0567Y-2.4165
X4.1323Y-1.8917
X4.1366Y-3.8496
X4.2185Y-2.9142
X4.2217Y-2.4445
X4.2264Y-3.2697
X4.2492Y-3.7244
X4.2848Y-2.4909
X4.298Y-3.724
X4.3146Y-1.8197
X4.3472Y-3.7224
X4.3567Y-2.8008
X4.3685Y-3.3071
X4.3744Y-3.3752
X4.3759Y-2.2357
X4.4085Y-3.7313
X4.4287Y-3.9346
X4.435Y-3.3224
X4.4535Y-1.9866
X4.4535Y-2.9638
X4.4648Y-3.3049
X4.4756Y-3.1811
X4.4866Y-3.2047
X4.5283Y-2.1917
X4.5283Y-2.5583
X4.5303Y-3.574
X4.5315Y-3.5402
X4.5531Y-3.3003
X4.5539Y-3.2083
X4.5685Y-2.065
X4.6106Y-3.9126
X4.6171Y-1.9157
X4.6424Y-3.0534
X4.6512Y-3.2866
X4.6758Y-3.0517
X4.6776Y-3.5862
X4.6835Y-3.215
X4.688Y-3.2638
X4.688Y-3.313
X4.6928Y-2.5094
X4.6933Y-3.878
X4.7028Y-1.8992
X4.7098Y-2.9531
X4.7145Y-2.7196
X4.7311Y-3.215
X4.7323Y-3.3138
X4.734Y-3.265
X4.7584Y-3.5132
X4.7627Y-2.48
X4.7708Y-1.6666
X4.7823Y-3.2614
X4.7835Y-3.2154
X4.7835Y-3.3146
X4.7925Y-3.876
X4.8031Y-1.7323
X4.8063Y-2.9513
X4.8126Y-3.6134
X4.8147Y-3.2551
X4.8283Y-3.4445
X4.8305Y-3.5807
X4.835Y-3.7425
X4.8424Y-2.9368
X4.8446Y-2.5895
X4.8555Y-3.5933
X4.8705Y-2.9028
X4.8842Y-2.2747
X4.8922Y-3.5866
X4.9035Y-2.8709
X4.9065Y-3.0246
X4.9089Y-3.2571
X4.9213Y-3.5874
X4.9386Y-1.9921
X4.9437Y-3.8661
X4.9743Y-2.4598
X4.9769Y-2.5257
X4.9846Y-1.9913
X5.0098Y-3.1713
X5.04Y-3.1617
X5.0465Y-3.8661
X5.0512Y-3.2638
X5.0543Y-3.4248
X5.0575Y-3.3945
X5.0776Y-2.2098
X5.0783Y-2.0941
X5.1083Y-2.7764
X5.1264Y-2.9555
X5.1339Y-3.4783
X5.1441Y-3.6106
X5.1584Y-2.2757
X5.1602Y-3.9332
X5.1638Y-3.8815
X5.2571Y-3.8819
X5.3295Y-2.1894
X5.3319Y-3.3823
X5.3504Y-2.2157
X5.3644Y-2.4098
X5.3862Y-3.1929
X5.3907Y-2.3836
X5.402Y-3.8724
X5.413Y-3.1012
X5.4146Y-3.7031
X5.415Y-3.7429
X5.4695Y-2.2717
X5.4862Y-3.6579
X5.4882Y-3.6244
X5.4937Y-3.7819
X5.4969Y-3.8169
X5.5217Y-2.8031
X5.5662Y-3.615
X5.6744Y-2.623
X5.7224Y-2.4016
X5.7352Y-2.6309
X5.7618Y-2.4055
X5.7726Y-2.625
T2
X3.7551Y-2.9594
X3.7665Y-1.9071
X4.165Y-2.0634
T4
X5.2843Y-3.4657
X5.2843Y-3.5445
T6
X2.4169Y-1.713
X2.4169Y-1.813
X2.5169Y-1.713
X2.5169Y-1.813
X2.6169Y-1.713
X2.6169Y-1.813
X5.1685Y-1.7805
X5.2392Y-1.7098
X5.2392Y-1.8512
X5.3099Y-1.6391
X5.3099Y-1.7805
X5.3806Y-1.7098
T7
X2.611Y-5.1724
X2.9112Y-5.1724
X5.1553Y-5.1724
X5.4555Y-5.1724
T3
G00X5.4884Y-3.102
M15
G01X5.5317Y-3.102
M16
G05
G00X5.4884Y-3.4421
M15
G01X5.5317Y-3.4421
M16
G05
G00X5.6589Y-3.102
M15
G01X5.6904Y-3.102
M16
G05
G00X5.6589Y-3.4421
M15
G01X5.6904Y-3.4421
M16
G05
T5
G00X3.2104Y-5.0567
M15
G01X3.2104Y-5.0882
M16
G05
G00X3.2104Y-5.2567
M15
G01X3.2104Y-5.2882
M16
G05
G00X3.2409Y-5.1567
M15
G01X3.2409Y-5.1882
M16
G05
G00X4.8256Y-5.1882
M15
G01X4.8256Y-5.1567
M16
G05
G00X4.8561Y-5.0882
M15
G01X4.8561Y-5.0567
M16
G05
G00X4.8561Y-5.2882
M15
G01X4.8561Y-5.2567
M16
G05
M30
