%TF.GenerationSoftware,KiCad,Pcbnew,9.0.7*%
%TF.CreationDate,2026-02-18T16:21:13-06:00*%
%TF.ProjectId,B-Sides 2026,422d5369-6465-4732-9032-3032362e6b69,rev?*%
%TF.SameCoordinates,Original*%
%TF.FileFunction,Legend,Bot*%
%TF.FilePolarity,Positive*%
%FSLAX46Y46*%
G04 Gerber Fmt 4.6, Leading zero omitted, Abs format (unit mm)*
G04 Created by KiCad (PCBNEW 9.0.7) date 2026-02-18 16:21:13*
%MOMM*%
%LPD*%
G01*
G04 APERTURE LIST*
%ADD10C,0.150000*%
%ADD11C,0.125000*%
%ADD12C,0.120000*%
%ADD13C,0.200000*%
G04 APERTURE END LIST*
D10*
X99533333Y-43854819D02*
X99533333Y-44569104D01*
X99533333Y-44569104D02*
X99580952Y-44711961D01*
X99580952Y-44711961D02*
X99676190Y-44807200D01*
X99676190Y-44807200D02*
X99819047Y-44854819D01*
X99819047Y-44854819D02*
X99914285Y-44854819D01*
X99104761Y-43950057D02*
X99057142Y-43902438D01*
X99057142Y-43902438D02*
X98961904Y-43854819D01*
X98961904Y-43854819D02*
X98723809Y-43854819D01*
X98723809Y-43854819D02*
X98628571Y-43902438D01*
X98628571Y-43902438D02*
X98580952Y-43950057D01*
X98580952Y-43950057D02*
X98533333Y-44045295D01*
X98533333Y-44045295D02*
X98533333Y-44140533D01*
X98533333Y-44140533D02*
X98580952Y-44283390D01*
X98580952Y-44283390D02*
X99152380Y-44854819D01*
X99152380Y-44854819D02*
X98533333Y-44854819D01*
X98147142Y-41350878D02*
X98218571Y-41315164D01*
X98218571Y-41315164D02*
X98325713Y-41315164D01*
X98325713Y-41315164D02*
X98432856Y-41350878D01*
X98432856Y-41350878D02*
X98504285Y-41422307D01*
X98504285Y-41422307D02*
X98539999Y-41493735D01*
X98539999Y-41493735D02*
X98575713Y-41636592D01*
X98575713Y-41636592D02*
X98575713Y-41743735D01*
X98575713Y-41743735D02*
X98539999Y-41886592D01*
X98539999Y-41886592D02*
X98504285Y-41958021D01*
X98504285Y-41958021D02*
X98432856Y-42029450D01*
X98432856Y-42029450D02*
X98325713Y-42065164D01*
X98325713Y-42065164D02*
X98254285Y-42065164D01*
X98254285Y-42065164D02*
X98147142Y-42029450D01*
X98147142Y-42029450D02*
X98111428Y-41993735D01*
X98111428Y-41993735D02*
X98111428Y-41743735D01*
X98111428Y-41743735D02*
X98254285Y-41743735D01*
X97789999Y-42065164D02*
X97789999Y-41315164D01*
X97789999Y-41315164D02*
X97504285Y-41315164D01*
X97504285Y-41315164D02*
X97432856Y-41350878D01*
X97432856Y-41350878D02*
X97397142Y-41386592D01*
X97397142Y-41386592D02*
X97361428Y-41458021D01*
X97361428Y-41458021D02*
X97361428Y-41565164D01*
X97361428Y-41565164D02*
X97397142Y-41636592D01*
X97397142Y-41636592D02*
X97432856Y-41672307D01*
X97432856Y-41672307D02*
X97504285Y-41708021D01*
X97504285Y-41708021D02*
X97789999Y-41708021D01*
X97039999Y-42065164D02*
X97039999Y-41315164D01*
X96539999Y-41315164D02*
X96397142Y-41315164D01*
X96397142Y-41315164D02*
X96325713Y-41350878D01*
X96325713Y-41350878D02*
X96254285Y-41422307D01*
X96254285Y-41422307D02*
X96218570Y-41565164D01*
X96218570Y-41565164D02*
X96218570Y-41815164D01*
X96218570Y-41815164D02*
X96254285Y-41958021D01*
X96254285Y-41958021D02*
X96325713Y-42029450D01*
X96325713Y-42029450D02*
X96397142Y-42065164D01*
X96397142Y-42065164D02*
X96539999Y-42065164D01*
X96539999Y-42065164D02*
X96611428Y-42029450D01*
X96611428Y-42029450D02*
X96682856Y-41958021D01*
X96682856Y-41958021D02*
X96718570Y-41815164D01*
X96718570Y-41815164D02*
X96718570Y-41565164D01*
X96718570Y-41565164D02*
X96682856Y-41422307D01*
X96682856Y-41422307D02*
X96611428Y-41350878D01*
X96611428Y-41350878D02*
X96539999Y-41315164D01*
X95504285Y-42065164D02*
X95932856Y-42065164D01*
X95718571Y-42065164D02*
X95718571Y-41315164D01*
X95718571Y-41315164D02*
X95789999Y-41422307D01*
X95789999Y-41422307D02*
X95861428Y-41493735D01*
X95861428Y-41493735D02*
X95932856Y-41529450D01*
X92299999Y-41315164D02*
X92049999Y-42065164D01*
X92049999Y-42065164D02*
X91799999Y-41315164D01*
X91121428Y-41993735D02*
X91157142Y-42029450D01*
X91157142Y-42029450D02*
X91264285Y-42065164D01*
X91264285Y-42065164D02*
X91335713Y-42065164D01*
X91335713Y-42065164D02*
X91442856Y-42029450D01*
X91442856Y-42029450D02*
X91514285Y-41958021D01*
X91514285Y-41958021D02*
X91549999Y-41886592D01*
X91549999Y-41886592D02*
X91585713Y-41743735D01*
X91585713Y-41743735D02*
X91585713Y-41636592D01*
X91585713Y-41636592D02*
X91549999Y-41493735D01*
X91549999Y-41493735D02*
X91514285Y-41422307D01*
X91514285Y-41422307D02*
X91442856Y-41350878D01*
X91442856Y-41350878D02*
X91335713Y-41315164D01*
X91335713Y-41315164D02*
X91264285Y-41315164D01*
X91264285Y-41315164D02*
X91157142Y-41350878D01*
X91157142Y-41350878D02*
X91121428Y-41386592D01*
X90371428Y-41993735D02*
X90407142Y-42029450D01*
X90407142Y-42029450D02*
X90514285Y-42065164D01*
X90514285Y-42065164D02*
X90585713Y-42065164D01*
X90585713Y-42065164D02*
X90692856Y-42029450D01*
X90692856Y-42029450D02*
X90764285Y-41958021D01*
X90764285Y-41958021D02*
X90799999Y-41886592D01*
X90799999Y-41886592D02*
X90835713Y-41743735D01*
X90835713Y-41743735D02*
X90835713Y-41636592D01*
X90835713Y-41636592D02*
X90799999Y-41493735D01*
X90799999Y-41493735D02*
X90764285Y-41422307D01*
X90764285Y-41422307D02*
X90692856Y-41350878D01*
X90692856Y-41350878D02*
X90585713Y-41315164D01*
X90585713Y-41315164D02*
X90514285Y-41315164D01*
X90514285Y-41315164D02*
X90407142Y-41350878D01*
X90407142Y-41350878D02*
X90371428Y-41386592D01*
X98147142Y-47192878D02*
X98218571Y-47157164D01*
X98218571Y-47157164D02*
X98325713Y-47157164D01*
X98325713Y-47157164D02*
X98432856Y-47192878D01*
X98432856Y-47192878D02*
X98504285Y-47264307D01*
X98504285Y-47264307D02*
X98539999Y-47335735D01*
X98539999Y-47335735D02*
X98575713Y-47478592D01*
X98575713Y-47478592D02*
X98575713Y-47585735D01*
X98575713Y-47585735D02*
X98539999Y-47728592D01*
X98539999Y-47728592D02*
X98504285Y-47800021D01*
X98504285Y-47800021D02*
X98432856Y-47871450D01*
X98432856Y-47871450D02*
X98325713Y-47907164D01*
X98325713Y-47907164D02*
X98254285Y-47907164D01*
X98254285Y-47907164D02*
X98147142Y-47871450D01*
X98147142Y-47871450D02*
X98111428Y-47835735D01*
X98111428Y-47835735D02*
X98111428Y-47585735D01*
X98111428Y-47585735D02*
X98254285Y-47585735D01*
X97789999Y-47907164D02*
X97789999Y-47157164D01*
X97789999Y-47157164D02*
X97504285Y-47157164D01*
X97504285Y-47157164D02*
X97432856Y-47192878D01*
X97432856Y-47192878D02*
X97397142Y-47228592D01*
X97397142Y-47228592D02*
X97361428Y-47300021D01*
X97361428Y-47300021D02*
X97361428Y-47407164D01*
X97361428Y-47407164D02*
X97397142Y-47478592D01*
X97397142Y-47478592D02*
X97432856Y-47514307D01*
X97432856Y-47514307D02*
X97504285Y-47550021D01*
X97504285Y-47550021D02*
X97789999Y-47550021D01*
X97039999Y-47907164D02*
X97039999Y-47157164D01*
X96539999Y-47157164D02*
X96397142Y-47157164D01*
X96397142Y-47157164D02*
X96325713Y-47192878D01*
X96325713Y-47192878D02*
X96254285Y-47264307D01*
X96254285Y-47264307D02*
X96218570Y-47407164D01*
X96218570Y-47407164D02*
X96218570Y-47657164D01*
X96218570Y-47657164D02*
X96254285Y-47800021D01*
X96254285Y-47800021D02*
X96325713Y-47871450D01*
X96325713Y-47871450D02*
X96397142Y-47907164D01*
X96397142Y-47907164D02*
X96539999Y-47907164D01*
X96539999Y-47907164D02*
X96611428Y-47871450D01*
X96611428Y-47871450D02*
X96682856Y-47800021D01*
X96682856Y-47800021D02*
X96718570Y-47657164D01*
X96718570Y-47657164D02*
X96718570Y-47407164D01*
X96718570Y-47407164D02*
X96682856Y-47264307D01*
X96682856Y-47264307D02*
X96611428Y-47192878D01*
X96611428Y-47192878D02*
X96539999Y-47157164D01*
X95932856Y-47228592D02*
X95897142Y-47192878D01*
X95897142Y-47192878D02*
X95825714Y-47157164D01*
X95825714Y-47157164D02*
X95647142Y-47157164D01*
X95647142Y-47157164D02*
X95575714Y-47192878D01*
X95575714Y-47192878D02*
X95539999Y-47228592D01*
X95539999Y-47228592D02*
X95504285Y-47300021D01*
X95504285Y-47300021D02*
X95504285Y-47371450D01*
X95504285Y-47371450D02*
X95539999Y-47478592D01*
X95539999Y-47478592D02*
X95968571Y-47907164D01*
X95968571Y-47907164D02*
X95504285Y-47907164D01*
X94750713Y-42029450D02*
X94643571Y-42065164D01*
X94643571Y-42065164D02*
X94464999Y-42065164D01*
X94464999Y-42065164D02*
X94393571Y-42029450D01*
X94393571Y-42029450D02*
X94357856Y-41993735D01*
X94357856Y-41993735D02*
X94322142Y-41922307D01*
X94322142Y-41922307D02*
X94322142Y-41850878D01*
X94322142Y-41850878D02*
X94357856Y-41779450D01*
X94357856Y-41779450D02*
X94393571Y-41743735D01*
X94393571Y-41743735D02*
X94464999Y-41708021D01*
X94464999Y-41708021D02*
X94607856Y-41672307D01*
X94607856Y-41672307D02*
X94679285Y-41636592D01*
X94679285Y-41636592D02*
X94714999Y-41600878D01*
X94714999Y-41600878D02*
X94750713Y-41529450D01*
X94750713Y-41529450D02*
X94750713Y-41458021D01*
X94750713Y-41458021D02*
X94714999Y-41386592D01*
X94714999Y-41386592D02*
X94679285Y-41350878D01*
X94679285Y-41350878D02*
X94607856Y-41315164D01*
X94607856Y-41315164D02*
X94429285Y-41315164D01*
X94429285Y-41315164D02*
X94322142Y-41350878D01*
X94000713Y-42065164D02*
X94000713Y-41315164D01*
X94000713Y-41315164D02*
X93822142Y-41315164D01*
X93822142Y-41315164D02*
X93714999Y-41350878D01*
X93714999Y-41350878D02*
X93643570Y-41422307D01*
X93643570Y-41422307D02*
X93607856Y-41493735D01*
X93607856Y-41493735D02*
X93572142Y-41636592D01*
X93572142Y-41636592D02*
X93572142Y-41743735D01*
X93572142Y-41743735D02*
X93607856Y-41886592D01*
X93607856Y-41886592D02*
X93643570Y-41958021D01*
X93643570Y-41958021D02*
X93714999Y-42029450D01*
X93714999Y-42029450D02*
X93822142Y-42065164D01*
X93822142Y-42065164D02*
X94000713Y-42065164D01*
X93286427Y-41850878D02*
X92929285Y-41850878D01*
X93357856Y-42065164D02*
X93107856Y-41315164D01*
X93107856Y-41315164D02*
X92857856Y-42065164D01*
X91871428Y-47192878D02*
X91942857Y-47157164D01*
X91942857Y-47157164D02*
X92049999Y-47157164D01*
X92049999Y-47157164D02*
X92157142Y-47192878D01*
X92157142Y-47192878D02*
X92228571Y-47264307D01*
X92228571Y-47264307D02*
X92264285Y-47335735D01*
X92264285Y-47335735D02*
X92299999Y-47478592D01*
X92299999Y-47478592D02*
X92299999Y-47585735D01*
X92299999Y-47585735D02*
X92264285Y-47728592D01*
X92264285Y-47728592D02*
X92228571Y-47800021D01*
X92228571Y-47800021D02*
X92157142Y-47871450D01*
X92157142Y-47871450D02*
X92049999Y-47907164D01*
X92049999Y-47907164D02*
X91978571Y-47907164D01*
X91978571Y-47907164D02*
X91871428Y-47871450D01*
X91871428Y-47871450D02*
X91835714Y-47835735D01*
X91835714Y-47835735D02*
X91835714Y-47585735D01*
X91835714Y-47585735D02*
X91978571Y-47585735D01*
X91514285Y-47907164D02*
X91514285Y-47157164D01*
X91514285Y-47157164D02*
X91085714Y-47907164D01*
X91085714Y-47907164D02*
X91085714Y-47157164D01*
X90728571Y-47907164D02*
X90728571Y-47157164D01*
X90728571Y-47157164D02*
X90550000Y-47157164D01*
X90550000Y-47157164D02*
X90442857Y-47192878D01*
X90442857Y-47192878D02*
X90371428Y-47264307D01*
X90371428Y-47264307D02*
X90335714Y-47335735D01*
X90335714Y-47335735D02*
X90300000Y-47478592D01*
X90300000Y-47478592D02*
X90300000Y-47585735D01*
X90300000Y-47585735D02*
X90335714Y-47728592D01*
X90335714Y-47728592D02*
X90371428Y-47800021D01*
X90371428Y-47800021D02*
X90442857Y-47871450D01*
X90442857Y-47871450D02*
X90550000Y-47907164D01*
X90550000Y-47907164D02*
X90728571Y-47907164D01*
X94732856Y-47871450D02*
X94625714Y-47907164D01*
X94625714Y-47907164D02*
X94447142Y-47907164D01*
X94447142Y-47907164D02*
X94375714Y-47871450D01*
X94375714Y-47871450D02*
X94339999Y-47835735D01*
X94339999Y-47835735D02*
X94304285Y-47764307D01*
X94304285Y-47764307D02*
X94304285Y-47692878D01*
X94304285Y-47692878D02*
X94339999Y-47621450D01*
X94339999Y-47621450D02*
X94375714Y-47585735D01*
X94375714Y-47585735D02*
X94447142Y-47550021D01*
X94447142Y-47550021D02*
X94589999Y-47514307D01*
X94589999Y-47514307D02*
X94661428Y-47478592D01*
X94661428Y-47478592D02*
X94697142Y-47442878D01*
X94697142Y-47442878D02*
X94732856Y-47371450D01*
X94732856Y-47371450D02*
X94732856Y-47300021D01*
X94732856Y-47300021D02*
X94697142Y-47228592D01*
X94697142Y-47228592D02*
X94661428Y-47192878D01*
X94661428Y-47192878D02*
X94589999Y-47157164D01*
X94589999Y-47157164D02*
X94411428Y-47157164D01*
X94411428Y-47157164D02*
X94304285Y-47192878D01*
X93554285Y-47835735D02*
X93589999Y-47871450D01*
X93589999Y-47871450D02*
X93697142Y-47907164D01*
X93697142Y-47907164D02*
X93768570Y-47907164D01*
X93768570Y-47907164D02*
X93875713Y-47871450D01*
X93875713Y-47871450D02*
X93947142Y-47800021D01*
X93947142Y-47800021D02*
X93982856Y-47728592D01*
X93982856Y-47728592D02*
X94018570Y-47585735D01*
X94018570Y-47585735D02*
X94018570Y-47478592D01*
X94018570Y-47478592D02*
X93982856Y-47335735D01*
X93982856Y-47335735D02*
X93947142Y-47264307D01*
X93947142Y-47264307D02*
X93875713Y-47192878D01*
X93875713Y-47192878D02*
X93768570Y-47157164D01*
X93768570Y-47157164D02*
X93697142Y-47157164D01*
X93697142Y-47157164D02*
X93589999Y-47192878D01*
X93589999Y-47192878D02*
X93554285Y-47228592D01*
X92875713Y-47907164D02*
X93232856Y-47907164D01*
X93232856Y-47907164D02*
X93232856Y-47157164D01*
X97959580Y-54633333D02*
X98007200Y-54585714D01*
X98007200Y-54585714D02*
X98054819Y-54442857D01*
X98054819Y-54442857D02*
X98054819Y-54347619D01*
X98054819Y-54347619D02*
X98007200Y-54204762D01*
X98007200Y-54204762D02*
X97911961Y-54109524D01*
X97911961Y-54109524D02*
X97816723Y-54061905D01*
X97816723Y-54061905D02*
X97626247Y-54014286D01*
X97626247Y-54014286D02*
X97483390Y-54014286D01*
X97483390Y-54014286D02*
X97292914Y-54061905D01*
X97292914Y-54061905D02*
X97197676Y-54109524D01*
X97197676Y-54109524D02*
X97102438Y-54204762D01*
X97102438Y-54204762D02*
X97054819Y-54347619D01*
X97054819Y-54347619D02*
X97054819Y-54442857D01*
X97054819Y-54442857D02*
X97102438Y-54585714D01*
X97102438Y-54585714D02*
X97150057Y-54633333D01*
X97054819Y-54966667D02*
X97054819Y-55585714D01*
X97054819Y-55585714D02*
X97435771Y-55252381D01*
X97435771Y-55252381D02*
X97435771Y-55395238D01*
X97435771Y-55395238D02*
X97483390Y-55490476D01*
X97483390Y-55490476D02*
X97531009Y-55538095D01*
X97531009Y-55538095D02*
X97626247Y-55585714D01*
X97626247Y-55585714D02*
X97864342Y-55585714D01*
X97864342Y-55585714D02*
X97959580Y-55538095D01*
X97959580Y-55538095D02*
X98007200Y-55490476D01*
X98007200Y-55490476D02*
X98054819Y-55395238D01*
X98054819Y-55395238D02*
X98054819Y-55109524D01*
X98054819Y-55109524D02*
X98007200Y-55014286D01*
X98007200Y-55014286D02*
X97959580Y-54966667D01*
X129559580Y-68033333D02*
X129607200Y-67985714D01*
X129607200Y-67985714D02*
X129654819Y-67842857D01*
X129654819Y-67842857D02*
X129654819Y-67747619D01*
X129654819Y-67747619D02*
X129607200Y-67604762D01*
X129607200Y-67604762D02*
X129511961Y-67509524D01*
X129511961Y-67509524D02*
X129416723Y-67461905D01*
X129416723Y-67461905D02*
X129226247Y-67414286D01*
X129226247Y-67414286D02*
X129083390Y-67414286D01*
X129083390Y-67414286D02*
X128892914Y-67461905D01*
X128892914Y-67461905D02*
X128797676Y-67509524D01*
X128797676Y-67509524D02*
X128702438Y-67604762D01*
X128702438Y-67604762D02*
X128654819Y-67747619D01*
X128654819Y-67747619D02*
X128654819Y-67842857D01*
X128654819Y-67842857D02*
X128702438Y-67985714D01*
X128702438Y-67985714D02*
X128750057Y-68033333D01*
X128988152Y-68890476D02*
X129654819Y-68890476D01*
X128607200Y-68652381D02*
X129321485Y-68414286D01*
X129321485Y-68414286D02*
X129321485Y-69033333D01*
D11*
X130783563Y-49232009D02*
X131216576Y-48982009D01*
X131216576Y-48982009D02*
X131157052Y-48878910D01*
X131157052Y-48878910D02*
X131100718Y-48828956D01*
X131100718Y-48828956D02*
X131035670Y-48811526D01*
X131035670Y-48811526D02*
X130982525Y-48814716D01*
X130982525Y-48814716D02*
X130888142Y-48841716D01*
X130888142Y-48841716D02*
X130826283Y-48877430D01*
X130826283Y-48877430D02*
X130755709Y-48945669D01*
X130755709Y-48945669D02*
X130726375Y-48990098D01*
X130726375Y-48990098D02*
X130708945Y-49055147D01*
X130708945Y-49055147D02*
X130724040Y-49128910D01*
X130724040Y-49128910D02*
X130783563Y-49232009D01*
X130402611Y-48572180D02*
X130545468Y-48819616D01*
X130474040Y-48695898D02*
X130907052Y-48445898D01*
X130907052Y-48445898D02*
X130869003Y-48522851D01*
X130869003Y-48522851D02*
X130851573Y-48587900D01*
X130851573Y-48587900D02*
X130854763Y-48641044D01*
D10*
X95021904Y-53414819D02*
X95021904Y-54224342D01*
X95021904Y-54224342D02*
X94974285Y-54319580D01*
X94974285Y-54319580D02*
X94926666Y-54367200D01*
X94926666Y-54367200D02*
X94831428Y-54414819D01*
X94831428Y-54414819D02*
X94640952Y-54414819D01*
X94640952Y-54414819D02*
X94545714Y-54367200D01*
X94545714Y-54367200D02*
X94498095Y-54319580D01*
X94498095Y-54319580D02*
X94450476Y-54224342D01*
X94450476Y-54224342D02*
X94450476Y-53414819D01*
X94021904Y-53510057D02*
X93974285Y-53462438D01*
X93974285Y-53462438D02*
X93879047Y-53414819D01*
X93879047Y-53414819D02*
X93640952Y-53414819D01*
X93640952Y-53414819D02*
X93545714Y-53462438D01*
X93545714Y-53462438D02*
X93498095Y-53510057D01*
X93498095Y-53510057D02*
X93450476Y-53605295D01*
X93450476Y-53605295D02*
X93450476Y-53700533D01*
X93450476Y-53700533D02*
X93498095Y-53843390D01*
X93498095Y-53843390D02*
X94069523Y-54414819D01*
X94069523Y-54414819D02*
X93450476Y-54414819D01*
X84766666Y-50799580D02*
X84814285Y-50847200D01*
X84814285Y-50847200D02*
X84957142Y-50894819D01*
X84957142Y-50894819D02*
X85052380Y-50894819D01*
X85052380Y-50894819D02*
X85195237Y-50847200D01*
X85195237Y-50847200D02*
X85290475Y-50751961D01*
X85290475Y-50751961D02*
X85338094Y-50656723D01*
X85338094Y-50656723D02*
X85385713Y-50466247D01*
X85385713Y-50466247D02*
X85385713Y-50323390D01*
X85385713Y-50323390D02*
X85338094Y-50132914D01*
X85338094Y-50132914D02*
X85290475Y-50037676D01*
X85290475Y-50037676D02*
X85195237Y-49942438D01*
X85195237Y-49942438D02*
X85052380Y-49894819D01*
X85052380Y-49894819D02*
X84957142Y-49894819D01*
X84957142Y-49894819D02*
X84814285Y-49942438D01*
X84814285Y-49942438D02*
X84766666Y-49990057D01*
X83814285Y-50894819D02*
X84385713Y-50894819D01*
X84099999Y-50894819D02*
X84099999Y-49894819D01*
X84099999Y-49894819D02*
X84195237Y-50037676D01*
X84195237Y-50037676D02*
X84290475Y-50132914D01*
X84290475Y-50132914D02*
X84385713Y-50180533D01*
X120366666Y-51454819D02*
X120699999Y-50978628D01*
X120938094Y-51454819D02*
X120938094Y-50454819D01*
X120938094Y-50454819D02*
X120557142Y-50454819D01*
X120557142Y-50454819D02*
X120461904Y-50502438D01*
X120461904Y-50502438D02*
X120414285Y-50550057D01*
X120414285Y-50550057D02*
X120366666Y-50645295D01*
X120366666Y-50645295D02*
X120366666Y-50788152D01*
X120366666Y-50788152D02*
X120414285Y-50883390D01*
X120414285Y-50883390D02*
X120461904Y-50931009D01*
X120461904Y-50931009D02*
X120557142Y-50978628D01*
X120557142Y-50978628D02*
X120938094Y-50978628D01*
X119985713Y-50550057D02*
X119938094Y-50502438D01*
X119938094Y-50502438D02*
X119842856Y-50454819D01*
X119842856Y-50454819D02*
X119604761Y-50454819D01*
X119604761Y-50454819D02*
X119509523Y-50502438D01*
X119509523Y-50502438D02*
X119461904Y-50550057D01*
X119461904Y-50550057D02*
X119414285Y-50645295D01*
X119414285Y-50645295D02*
X119414285Y-50740533D01*
X119414285Y-50740533D02*
X119461904Y-50883390D01*
X119461904Y-50883390D02*
X120033332Y-51454819D01*
X120033332Y-51454819D02*
X119414285Y-51454819D01*
X118566666Y-44854819D02*
X118899999Y-44378628D01*
X119138094Y-44854819D02*
X119138094Y-43854819D01*
X119138094Y-43854819D02*
X118757142Y-43854819D01*
X118757142Y-43854819D02*
X118661904Y-43902438D01*
X118661904Y-43902438D02*
X118614285Y-43950057D01*
X118614285Y-43950057D02*
X118566666Y-44045295D01*
X118566666Y-44045295D02*
X118566666Y-44188152D01*
X118566666Y-44188152D02*
X118614285Y-44283390D01*
X118614285Y-44283390D02*
X118661904Y-44331009D01*
X118661904Y-44331009D02*
X118757142Y-44378628D01*
X118757142Y-44378628D02*
X119138094Y-44378628D01*
X118233332Y-43854819D02*
X117614285Y-43854819D01*
X117614285Y-43854819D02*
X117947618Y-44235771D01*
X117947618Y-44235771D02*
X117804761Y-44235771D01*
X117804761Y-44235771D02*
X117709523Y-44283390D01*
X117709523Y-44283390D02*
X117661904Y-44331009D01*
X117661904Y-44331009D02*
X117614285Y-44426247D01*
X117614285Y-44426247D02*
X117614285Y-44664342D01*
X117614285Y-44664342D02*
X117661904Y-44759580D01*
X117661904Y-44759580D02*
X117709523Y-44807200D01*
X117709523Y-44807200D02*
X117804761Y-44854819D01*
X117804761Y-44854819D02*
X118090475Y-44854819D01*
X118090475Y-44854819D02*
X118185713Y-44807200D01*
X118185713Y-44807200D02*
X118233332Y-44759580D01*
X128359580Y-46433333D02*
X128407200Y-46385714D01*
X128407200Y-46385714D02*
X128454819Y-46242857D01*
X128454819Y-46242857D02*
X128454819Y-46147619D01*
X128454819Y-46147619D02*
X128407200Y-46004762D01*
X128407200Y-46004762D02*
X128311961Y-45909524D01*
X128311961Y-45909524D02*
X128216723Y-45861905D01*
X128216723Y-45861905D02*
X128026247Y-45814286D01*
X128026247Y-45814286D02*
X127883390Y-45814286D01*
X127883390Y-45814286D02*
X127692914Y-45861905D01*
X127692914Y-45861905D02*
X127597676Y-45909524D01*
X127597676Y-45909524D02*
X127502438Y-46004762D01*
X127502438Y-46004762D02*
X127454819Y-46147619D01*
X127454819Y-46147619D02*
X127454819Y-46242857D01*
X127454819Y-46242857D02*
X127502438Y-46385714D01*
X127502438Y-46385714D02*
X127550057Y-46433333D01*
X127550057Y-46814286D02*
X127502438Y-46861905D01*
X127502438Y-46861905D02*
X127454819Y-46957143D01*
X127454819Y-46957143D02*
X127454819Y-47195238D01*
X127454819Y-47195238D02*
X127502438Y-47290476D01*
X127502438Y-47290476D02*
X127550057Y-47338095D01*
X127550057Y-47338095D02*
X127645295Y-47385714D01*
X127645295Y-47385714D02*
X127740533Y-47385714D01*
X127740533Y-47385714D02*
X127883390Y-47338095D01*
X127883390Y-47338095D02*
X128454819Y-46766667D01*
X128454819Y-46766667D02*
X128454819Y-47385714D01*
X108842857Y-54054819D02*
X109319047Y-54054819D01*
X109319047Y-54054819D02*
X109319047Y-53054819D01*
X108557142Y-54007200D02*
X108414285Y-54054819D01*
X108414285Y-54054819D02*
X108176190Y-54054819D01*
X108176190Y-54054819D02*
X108080952Y-54007200D01*
X108080952Y-54007200D02*
X108033333Y-53959580D01*
X108033333Y-53959580D02*
X107985714Y-53864342D01*
X107985714Y-53864342D02*
X107985714Y-53769104D01*
X107985714Y-53769104D02*
X108033333Y-53673866D01*
X108033333Y-53673866D02*
X108080952Y-53626247D01*
X108080952Y-53626247D02*
X108176190Y-53578628D01*
X108176190Y-53578628D02*
X108366666Y-53531009D01*
X108366666Y-53531009D02*
X108461904Y-53483390D01*
X108461904Y-53483390D02*
X108509523Y-53435771D01*
X108509523Y-53435771D02*
X108557142Y-53340533D01*
X108557142Y-53340533D02*
X108557142Y-53245295D01*
X108557142Y-53245295D02*
X108509523Y-53150057D01*
X108509523Y-53150057D02*
X108461904Y-53102438D01*
X108461904Y-53102438D02*
X108366666Y-53054819D01*
X108366666Y-53054819D02*
X108128571Y-53054819D01*
X108128571Y-53054819D02*
X107985714Y-53102438D01*
X107033333Y-54054819D02*
X107604761Y-54054819D01*
X107319047Y-54054819D02*
X107319047Y-53054819D01*
X107319047Y-53054819D02*
X107414285Y-53197676D01*
X107414285Y-53197676D02*
X107509523Y-53292914D01*
X107509523Y-53292914D02*
X107604761Y-53340533D01*
X87854819Y-55233333D02*
X87378628Y-54900000D01*
X87854819Y-54661905D02*
X86854819Y-54661905D01*
X86854819Y-54661905D02*
X86854819Y-55042857D01*
X86854819Y-55042857D02*
X86902438Y-55138095D01*
X86902438Y-55138095D02*
X86950057Y-55185714D01*
X86950057Y-55185714D02*
X87045295Y-55233333D01*
X87045295Y-55233333D02*
X87188152Y-55233333D01*
X87188152Y-55233333D02*
X87283390Y-55185714D01*
X87283390Y-55185714D02*
X87331009Y-55138095D01*
X87331009Y-55138095D02*
X87378628Y-55042857D01*
X87378628Y-55042857D02*
X87378628Y-54661905D01*
X87854819Y-56185714D02*
X87854819Y-55614286D01*
X87854819Y-55900000D02*
X86854819Y-55900000D01*
X86854819Y-55900000D02*
X86997676Y-55804762D01*
X86997676Y-55804762D02*
X87092914Y-55709524D01*
X87092914Y-55709524D02*
X87140533Y-55614286D01*
D11*
X86000505Y-45041681D02*
X85567493Y-44791681D01*
X85567493Y-44791681D02*
X85507969Y-44894779D01*
X85507969Y-44894779D02*
X85492874Y-44968543D01*
X85492874Y-44968543D02*
X85510304Y-45033591D01*
X85510304Y-45033591D02*
X85539639Y-45078021D01*
X85539639Y-45078021D02*
X85610212Y-45146259D01*
X85610212Y-45146259D02*
X85672071Y-45181974D01*
X85672071Y-45181974D02*
X85766455Y-45208973D01*
X85766455Y-45208973D02*
X85819599Y-45212163D01*
X85819599Y-45212163D02*
X85884648Y-45194733D01*
X85884648Y-45194733D02*
X85940982Y-45144779D01*
X85940982Y-45144779D02*
X86000505Y-45041681D01*
X85341302Y-45183454D02*
X85186540Y-45451509D01*
X85186540Y-45451509D02*
X85434831Y-45402410D01*
X85434831Y-45402410D02*
X85399117Y-45464269D01*
X85399117Y-45464269D02*
X85395927Y-45517413D01*
X85395927Y-45517413D02*
X85404642Y-45549937D01*
X85404642Y-45549937D02*
X85433976Y-45594367D01*
X85433976Y-45594367D02*
X85537074Y-45653890D01*
X85537074Y-45653890D02*
X85590219Y-45657080D01*
X85590219Y-45657080D02*
X85622743Y-45648365D01*
X85622743Y-45648365D02*
X85667172Y-45619031D01*
X85667172Y-45619031D02*
X85738601Y-45495313D01*
X85738601Y-45495313D02*
X85741791Y-45442169D01*
X85741791Y-45442169D02*
X85733076Y-45409644D01*
X85103207Y-45595847D02*
X84936541Y-45884522D01*
X84936541Y-45884522D02*
X85476696Y-45948945D01*
D10*
X88484819Y-43233333D02*
X88008628Y-42900000D01*
X88484819Y-42661905D02*
X87484819Y-42661905D01*
X87484819Y-42661905D02*
X87484819Y-43042857D01*
X87484819Y-43042857D02*
X87532438Y-43138095D01*
X87532438Y-43138095D02*
X87580057Y-43185714D01*
X87580057Y-43185714D02*
X87675295Y-43233333D01*
X87675295Y-43233333D02*
X87818152Y-43233333D01*
X87818152Y-43233333D02*
X87913390Y-43185714D01*
X87913390Y-43185714D02*
X87961009Y-43138095D01*
X87961009Y-43138095D02*
X88008628Y-43042857D01*
X88008628Y-43042857D02*
X88008628Y-42661905D01*
X87818152Y-44090476D02*
X88484819Y-44090476D01*
X87437200Y-43852381D02*
X88151485Y-43614286D01*
X88151485Y-43614286D02*
X88151485Y-44233333D01*
D11*
X130011992Y-73030335D02*
X129578980Y-72780335D01*
X129578980Y-72780335D02*
X129519456Y-72883433D01*
X129519456Y-72883433D02*
X129504361Y-72957197D01*
X129504361Y-72957197D02*
X129521791Y-73022245D01*
X129521791Y-73022245D02*
X129551126Y-73066675D01*
X129551126Y-73066675D02*
X129621699Y-73134913D01*
X129621699Y-73134913D02*
X129683558Y-73170628D01*
X129683558Y-73170628D02*
X129777942Y-73197627D01*
X129777942Y-73197627D02*
X129831086Y-73200817D01*
X129831086Y-73200817D02*
X129896135Y-73183387D01*
X129896135Y-73183387D02*
X129952469Y-73133433D01*
X129952469Y-73133433D02*
X130011992Y-73030335D01*
X129352789Y-73172108D02*
X129198027Y-73440163D01*
X129198027Y-73440163D02*
X129446318Y-73391064D01*
X129446318Y-73391064D02*
X129410604Y-73452923D01*
X129410604Y-73452923D02*
X129407414Y-73506067D01*
X129407414Y-73506067D02*
X129416129Y-73538591D01*
X129416129Y-73538591D02*
X129445463Y-73583021D01*
X129445463Y-73583021D02*
X129548561Y-73642544D01*
X129548561Y-73642544D02*
X129601706Y-73645734D01*
X129601706Y-73645734D02*
X129634230Y-73637019D01*
X129634230Y-73637019D02*
X129678659Y-73607685D01*
X129678659Y-73607685D02*
X129750088Y-73483967D01*
X129750088Y-73483967D02*
X129753278Y-73430823D01*
X129753278Y-73430823D02*
X129744563Y-73398298D01*
X129240747Y-73794742D02*
X129243937Y-73741598D01*
X129243937Y-73741598D02*
X129235222Y-73709073D01*
X129235222Y-73709073D02*
X129205888Y-73664644D01*
X129205888Y-73664644D02*
X129185268Y-73652739D01*
X129185268Y-73652739D02*
X129132124Y-73649549D01*
X129132124Y-73649549D02*
X129099600Y-73658264D01*
X129099600Y-73658264D02*
X129055170Y-73687599D01*
X129055170Y-73687599D02*
X129007551Y-73770077D01*
X129007551Y-73770077D02*
X129004362Y-73823222D01*
X129004362Y-73823222D02*
X129013076Y-73855746D01*
X129013076Y-73855746D02*
X129042411Y-73900175D01*
X129042411Y-73900175D02*
X129063031Y-73912080D01*
X129063031Y-73912080D02*
X129116175Y-73915270D01*
X129116175Y-73915270D02*
X129148699Y-73906555D01*
X129148699Y-73906555D02*
X129193128Y-73877220D01*
X129193128Y-73877220D02*
X129240747Y-73794742D01*
X129240747Y-73794742D02*
X129285177Y-73765407D01*
X129285177Y-73765407D02*
X129317701Y-73756692D01*
X129317701Y-73756692D02*
X129370845Y-73759882D01*
X129370845Y-73759882D02*
X129453324Y-73807501D01*
X129453324Y-73807501D02*
X129482658Y-73851930D01*
X129482658Y-73851930D02*
X129491373Y-73884455D01*
X129491373Y-73884455D02*
X129488183Y-73937599D01*
X129488183Y-73937599D02*
X129440564Y-74020077D01*
X129440564Y-74020077D02*
X129396135Y-74049412D01*
X129396135Y-74049412D02*
X129363611Y-74058127D01*
X129363611Y-74058127D02*
X129310466Y-74054937D01*
X129310466Y-74054937D02*
X129227988Y-74007318D01*
X129227988Y-74007318D02*
X129198653Y-73962889D01*
X129198653Y-73962889D02*
X129189938Y-73930364D01*
X129189938Y-73930364D02*
X129193128Y-73877220D01*
D10*
X123895238Y-66550057D02*
X123990476Y-66502438D01*
X123990476Y-66502438D02*
X124085714Y-66407200D01*
X124085714Y-66407200D02*
X124228571Y-66264342D01*
X124228571Y-66264342D02*
X124323809Y-66216723D01*
X124323809Y-66216723D02*
X124419047Y-66216723D01*
X124371428Y-66454819D02*
X124466666Y-66407200D01*
X124466666Y-66407200D02*
X124561904Y-66311961D01*
X124561904Y-66311961D02*
X124609523Y-66121485D01*
X124609523Y-66121485D02*
X124609523Y-65788152D01*
X124609523Y-65788152D02*
X124561904Y-65597676D01*
X124561904Y-65597676D02*
X124466666Y-65502438D01*
X124466666Y-65502438D02*
X124371428Y-65454819D01*
X124371428Y-65454819D02*
X124180952Y-65454819D01*
X124180952Y-65454819D02*
X124085714Y-65502438D01*
X124085714Y-65502438D02*
X123990476Y-65597676D01*
X123990476Y-65597676D02*
X123942857Y-65788152D01*
X123942857Y-65788152D02*
X123942857Y-66121485D01*
X123942857Y-66121485D02*
X123990476Y-66311961D01*
X123990476Y-66311961D02*
X124085714Y-66407200D01*
X124085714Y-66407200D02*
X124180952Y-66454819D01*
X124180952Y-66454819D02*
X124371428Y-66454819D01*
X123085714Y-65454819D02*
X123276190Y-65454819D01*
X123276190Y-65454819D02*
X123371428Y-65502438D01*
X123371428Y-65502438D02*
X123419047Y-65550057D01*
X123419047Y-65550057D02*
X123514285Y-65692914D01*
X123514285Y-65692914D02*
X123561904Y-65883390D01*
X123561904Y-65883390D02*
X123561904Y-66264342D01*
X123561904Y-66264342D02*
X123514285Y-66359580D01*
X123514285Y-66359580D02*
X123466666Y-66407200D01*
X123466666Y-66407200D02*
X123371428Y-66454819D01*
X123371428Y-66454819D02*
X123180952Y-66454819D01*
X123180952Y-66454819D02*
X123085714Y-66407200D01*
X123085714Y-66407200D02*
X123038095Y-66359580D01*
X123038095Y-66359580D02*
X122990476Y-66264342D01*
X122990476Y-66264342D02*
X122990476Y-66026247D01*
X122990476Y-66026247D02*
X123038095Y-65931009D01*
X123038095Y-65931009D02*
X123085714Y-65883390D01*
X123085714Y-65883390D02*
X123180952Y-65835771D01*
X123180952Y-65835771D02*
X123371428Y-65835771D01*
X123371428Y-65835771D02*
X123466666Y-65883390D01*
X123466666Y-65883390D02*
X123514285Y-65931009D01*
X123514285Y-65931009D02*
X123561904Y-66026247D01*
X120400057Y-47967261D02*
X120352438Y-47872023D01*
X120352438Y-47872023D02*
X120257200Y-47776785D01*
X120257200Y-47776785D02*
X120114342Y-47633928D01*
X120114342Y-47633928D02*
X120066723Y-47538690D01*
X120066723Y-47538690D02*
X120066723Y-47443452D01*
X120304819Y-47491071D02*
X120257200Y-47395833D01*
X120257200Y-47395833D02*
X120161961Y-47300595D01*
X120161961Y-47300595D02*
X119971485Y-47252976D01*
X119971485Y-47252976D02*
X119638152Y-47252976D01*
X119638152Y-47252976D02*
X119447676Y-47300595D01*
X119447676Y-47300595D02*
X119352438Y-47395833D01*
X119352438Y-47395833D02*
X119304819Y-47491071D01*
X119304819Y-47491071D02*
X119304819Y-47681547D01*
X119304819Y-47681547D02*
X119352438Y-47776785D01*
X119352438Y-47776785D02*
X119447676Y-47872023D01*
X119447676Y-47872023D02*
X119638152Y-47919642D01*
X119638152Y-47919642D02*
X119971485Y-47919642D01*
X119971485Y-47919642D02*
X120161961Y-47872023D01*
X120161961Y-47872023D02*
X120257200Y-47776785D01*
X120257200Y-47776785D02*
X120304819Y-47681547D01*
X120304819Y-47681547D02*
X120304819Y-47491071D01*
X120304819Y-48872023D02*
X120304819Y-48300595D01*
X120304819Y-48586309D02*
X119304819Y-48586309D01*
X119304819Y-48586309D02*
X119447676Y-48491071D01*
X119447676Y-48491071D02*
X119542914Y-48395833D01*
X119542914Y-48395833D02*
X119590533Y-48300595D01*
X99159580Y-58833333D02*
X99207200Y-58785714D01*
X99207200Y-58785714D02*
X99254819Y-58642857D01*
X99254819Y-58642857D02*
X99254819Y-58547619D01*
X99254819Y-58547619D02*
X99207200Y-58404762D01*
X99207200Y-58404762D02*
X99111961Y-58309524D01*
X99111961Y-58309524D02*
X99016723Y-58261905D01*
X99016723Y-58261905D02*
X98826247Y-58214286D01*
X98826247Y-58214286D02*
X98683390Y-58214286D01*
X98683390Y-58214286D02*
X98492914Y-58261905D01*
X98492914Y-58261905D02*
X98397676Y-58309524D01*
X98397676Y-58309524D02*
X98302438Y-58404762D01*
X98302438Y-58404762D02*
X98254819Y-58547619D01*
X98254819Y-58547619D02*
X98254819Y-58642857D01*
X98254819Y-58642857D02*
X98302438Y-58785714D01*
X98302438Y-58785714D02*
X98350057Y-58833333D01*
X98254819Y-59690476D02*
X98254819Y-59500000D01*
X98254819Y-59500000D02*
X98302438Y-59404762D01*
X98302438Y-59404762D02*
X98350057Y-59357143D01*
X98350057Y-59357143D02*
X98492914Y-59261905D01*
X98492914Y-59261905D02*
X98683390Y-59214286D01*
X98683390Y-59214286D02*
X99064342Y-59214286D01*
X99064342Y-59214286D02*
X99159580Y-59261905D01*
X99159580Y-59261905D02*
X99207200Y-59309524D01*
X99207200Y-59309524D02*
X99254819Y-59404762D01*
X99254819Y-59404762D02*
X99254819Y-59595238D01*
X99254819Y-59595238D02*
X99207200Y-59690476D01*
X99207200Y-59690476D02*
X99159580Y-59738095D01*
X99159580Y-59738095D02*
X99064342Y-59785714D01*
X99064342Y-59785714D02*
X98826247Y-59785714D01*
X98826247Y-59785714D02*
X98731009Y-59738095D01*
X98731009Y-59738095D02*
X98683390Y-59690476D01*
X98683390Y-59690476D02*
X98635771Y-59595238D01*
X98635771Y-59595238D02*
X98635771Y-59404762D01*
X98635771Y-59404762D02*
X98683390Y-59309524D01*
X98683390Y-59309524D02*
X98731009Y-59261905D01*
X98731009Y-59261905D02*
X98826247Y-59214286D01*
X82666666Y-61199580D02*
X82714285Y-61247200D01*
X82714285Y-61247200D02*
X82857142Y-61294819D01*
X82857142Y-61294819D02*
X82952380Y-61294819D01*
X82952380Y-61294819D02*
X83095237Y-61247200D01*
X83095237Y-61247200D02*
X83190475Y-61151961D01*
X83190475Y-61151961D02*
X83238094Y-61056723D01*
X83238094Y-61056723D02*
X83285713Y-60866247D01*
X83285713Y-60866247D02*
X83285713Y-60723390D01*
X83285713Y-60723390D02*
X83238094Y-60532914D01*
X83238094Y-60532914D02*
X83190475Y-60437676D01*
X83190475Y-60437676D02*
X83095237Y-60342438D01*
X83095237Y-60342438D02*
X82952380Y-60294819D01*
X82952380Y-60294819D02*
X82857142Y-60294819D01*
X82857142Y-60294819D02*
X82714285Y-60342438D01*
X82714285Y-60342438D02*
X82666666Y-60390057D01*
X81761904Y-60294819D02*
X82238094Y-60294819D01*
X82238094Y-60294819D02*
X82285713Y-60771009D01*
X82285713Y-60771009D02*
X82238094Y-60723390D01*
X82238094Y-60723390D02*
X82142856Y-60675771D01*
X82142856Y-60675771D02*
X81904761Y-60675771D01*
X81904761Y-60675771D02*
X81809523Y-60723390D01*
X81809523Y-60723390D02*
X81761904Y-60771009D01*
X81761904Y-60771009D02*
X81714285Y-60866247D01*
X81714285Y-60866247D02*
X81714285Y-61104342D01*
X81714285Y-61104342D02*
X81761904Y-61199580D01*
X81761904Y-61199580D02*
X81809523Y-61247200D01*
X81809523Y-61247200D02*
X81904761Y-61294819D01*
X81904761Y-61294819D02*
X82142856Y-61294819D01*
X82142856Y-61294819D02*
X82238094Y-61247200D01*
X82238094Y-61247200D02*
X82285713Y-61199580D01*
X109555714Y-60346009D02*
X109412857Y-60393628D01*
X109412857Y-60393628D02*
X109365238Y-60441247D01*
X109365238Y-60441247D02*
X109317619Y-60536485D01*
X109317619Y-60536485D02*
X109317619Y-60679342D01*
X109317619Y-60679342D02*
X109365238Y-60774580D01*
X109365238Y-60774580D02*
X109412857Y-60822200D01*
X109412857Y-60822200D02*
X109508095Y-60869819D01*
X109508095Y-60869819D02*
X109889047Y-60869819D01*
X109889047Y-60869819D02*
X109889047Y-59869819D01*
X109889047Y-59869819D02*
X109555714Y-59869819D01*
X109555714Y-59869819D02*
X109460476Y-59917438D01*
X109460476Y-59917438D02*
X109412857Y-59965057D01*
X109412857Y-59965057D02*
X109365238Y-60060295D01*
X109365238Y-60060295D02*
X109365238Y-60155533D01*
X109365238Y-60155533D02*
X109412857Y-60250771D01*
X109412857Y-60250771D02*
X109460476Y-60298390D01*
X109460476Y-60298390D02*
X109555714Y-60346009D01*
X109555714Y-60346009D02*
X109889047Y-60346009D01*
X109031904Y-59869819D02*
X108460476Y-59869819D01*
X108746190Y-60869819D02*
X108746190Y-59869819D01*
X107603333Y-60869819D02*
X108174761Y-60869819D01*
X107889047Y-60869819D02*
X107889047Y-59869819D01*
X107889047Y-59869819D02*
X107984285Y-60012676D01*
X107984285Y-60012676D02*
X108079523Y-60107914D01*
X108079523Y-60107914D02*
X108174761Y-60155533D01*
X97624819Y-59833333D02*
X97148628Y-59500000D01*
X97624819Y-59261905D02*
X96624819Y-59261905D01*
X96624819Y-59261905D02*
X96624819Y-59642857D01*
X96624819Y-59642857D02*
X96672438Y-59738095D01*
X96672438Y-59738095D02*
X96720057Y-59785714D01*
X96720057Y-59785714D02*
X96815295Y-59833333D01*
X96815295Y-59833333D02*
X96958152Y-59833333D01*
X96958152Y-59833333D02*
X97053390Y-59785714D01*
X97053390Y-59785714D02*
X97101009Y-59738095D01*
X97101009Y-59738095D02*
X97148628Y-59642857D01*
X97148628Y-59642857D02*
X97148628Y-59261905D01*
X96624819Y-60738095D02*
X96624819Y-60261905D01*
X96624819Y-60261905D02*
X97101009Y-60214286D01*
X97101009Y-60214286D02*
X97053390Y-60261905D01*
X97053390Y-60261905D02*
X97005771Y-60357143D01*
X97005771Y-60357143D02*
X97005771Y-60595238D01*
X97005771Y-60595238D02*
X97053390Y-60690476D01*
X97053390Y-60690476D02*
X97101009Y-60738095D01*
X97101009Y-60738095D02*
X97196247Y-60785714D01*
X97196247Y-60785714D02*
X97434342Y-60785714D01*
X97434342Y-60785714D02*
X97529580Y-60738095D01*
X97529580Y-60738095D02*
X97577200Y-60690476D01*
X97577200Y-60690476D02*
X97624819Y-60595238D01*
X97624819Y-60595238D02*
X97624819Y-60357143D01*
X97624819Y-60357143D02*
X97577200Y-60261905D01*
X97577200Y-60261905D02*
X97529580Y-60214286D01*
D12*
%TO.C,C3*%
X97180000Y-57107836D02*
X97180000Y-56892164D01*
X97900000Y-57107836D02*
X97900000Y-56892164D01*
%TO.C,C4*%
X128920000Y-70272164D02*
X128920000Y-70487836D01*
X129640000Y-70272164D02*
X129640000Y-70487836D01*
D13*
%TO.C,D1*%
X133649519Y-49357051D02*
X132350481Y-50107051D01*
X132056551Y-45657949D02*
X130350481Y-46642949D01*
X132047891Y-45662949D02*
X132512891Y-46468353D01*
X130350481Y-46642949D02*
X132350481Y-50107051D01*
D12*
%TO.C,U2*%
X92650000Y-55150000D02*
X92650000Y-55600000D01*
X92650000Y-57920000D02*
X92650000Y-58370000D01*
X92650000Y-58370000D02*
X93100000Y-58370000D01*
X93100000Y-55150000D02*
X92650000Y-55150000D01*
X95420000Y-58370000D02*
X95870000Y-58370000D01*
X95870000Y-55150000D02*
X95420000Y-55150000D01*
X95870000Y-55600000D02*
X95870000Y-55150000D01*
X95870000Y-58370000D02*
X95870000Y-57920000D01*
X96710000Y-56200000D02*
X96380000Y-55960000D01*
X96710000Y-55720000D01*
X96710000Y-56200000D01*
G36*
X96710000Y-56200000D02*
G01*
X96380000Y-55960000D01*
X96710000Y-55720000D01*
X96710000Y-56200000D01*
G37*
%TO.C,C1*%
X84707836Y-51960000D02*
X84492164Y-51960000D01*
X84707836Y-51240000D02*
X84492164Y-51240000D01*
%TO.C,R2*%
X117846359Y-50620000D02*
X118153641Y-50620000D01*
X117846359Y-51380000D02*
X118153641Y-51380000D01*
D13*
%TO.C,D2*%
X83655788Y-66475859D02*
X81655788Y-63011757D01*
X81958378Y-67455859D02*
X81493378Y-66650455D01*
X81949718Y-67460859D02*
X83655788Y-66475859D01*
X80356750Y-63761757D02*
X81655788Y-63011757D01*
D12*
%TO.C,R3*%
X115846359Y-44120000D02*
X116153641Y-44120000D01*
X115846359Y-44880000D02*
X116153641Y-44880000D01*
%TO.C,C2*%
X129240000Y-46707836D02*
X129240000Y-46492164D01*
X129960000Y-46707836D02*
X129960000Y-46492164D01*
%TO.C,LS1*%
X102280000Y-39900000D02*
X102280000Y-43760000D01*
X102280000Y-48280000D02*
X102280000Y-52140000D01*
X102280000Y-52140000D02*
X114520000Y-52140000D01*
X114520000Y-39900000D02*
X102280000Y-39900000D01*
X114520000Y-43760000D02*
X114520000Y-39900000D01*
X114520000Y-43760000D02*
X114820000Y-43760000D01*
X114520000Y-52140000D02*
X114520000Y-48280000D01*
%TO.C,R1*%
X88750000Y-54050000D02*
X88750000Y-56850000D01*
X88750000Y-56850000D02*
X90750000Y-56850000D01*
X90750000Y-54050000D02*
X88750000Y-54050000D01*
X90750000Y-56850000D02*
X90750000Y-54050000D01*
D13*
%TO.C,D37*%
X84744212Y-46811757D02*
X86043250Y-47561757D01*
X84043250Y-51025859D02*
X86043250Y-47561757D01*
X82345840Y-50045859D02*
X82810840Y-49240455D01*
X82337180Y-50040859D02*
X84043250Y-51025859D01*
D12*
%TO.C,R4*%
X88820000Y-43246359D02*
X88820000Y-43553641D01*
X89580000Y-43246359D02*
X89580000Y-43553641D01*
D13*
%TO.C,D38*%
X133656551Y-69277949D02*
X131950481Y-68292949D01*
X133647891Y-69272949D02*
X133182891Y-70078353D01*
X131950481Y-68292949D02*
X129950481Y-71757051D01*
X131249519Y-72507051D02*
X129950481Y-71757051D01*
D12*
%TO.C,Q6*%
X122260000Y-67450000D02*
X125860000Y-67450000D01*
X122260000Y-71050000D02*
X122260000Y-67450000D01*
X125860000Y-67450000D02*
X125860000Y-71050000D01*
X125860000Y-71050000D02*
X122260000Y-71050000D01*
%TO.C,Q1*%
X115890000Y-47302500D02*
X115890000Y-48822500D01*
X115890000Y-48822500D02*
X115940000Y-48822500D01*
X116890000Y-47302500D02*
X115890000Y-47302500D01*
X117060000Y-48822500D02*
X117840000Y-48822500D01*
X118960000Y-48822500D02*
X119010000Y-48822500D01*
X119010000Y-47302500D02*
X118010000Y-47302500D01*
X119010000Y-48822500D02*
X119010000Y-47302500D01*
X117830000Y-49362500D02*
X117500000Y-49602500D01*
X117500000Y-49122500D01*
X117830000Y-49362500D01*
G36*
X117830000Y-49362500D02*
G01*
X117500000Y-49602500D01*
X117500000Y-49122500D01*
X117830000Y-49362500D01*
G37*
%TO.C,C6*%
X98140000Y-57107836D02*
X98140000Y-56892164D01*
X98860000Y-57107836D02*
X98860000Y-56892164D01*
%TO.C,C5*%
X82607836Y-61640000D02*
X82392164Y-61640000D01*
X82607836Y-62360000D02*
X82392164Y-62360000D01*
%TO.C,BT1*%
X95920000Y-68415000D02*
X95920000Y-71715000D01*
X95920000Y-77915000D02*
X95920000Y-82115000D01*
X104820000Y-61765000D02*
X104820000Y-62565000D01*
X104820000Y-62565000D02*
X95920000Y-68415000D01*
X112720000Y-61765000D02*
X104820000Y-61765000D01*
X112720000Y-61765000D02*
X112720000Y-62565000D01*
X112720000Y-62565000D02*
X121620000Y-68415000D01*
X121620000Y-68415000D02*
X121620000Y-71715000D01*
X121620000Y-77915000D02*
X121620000Y-82115000D01*
X98620000Y-84765000D02*
G75*
G02*
X95920000Y-82065000I0J2700000D01*
G01*
X99291751Y-84486751D02*
G75*
G02*
X98620000Y-84764999I-671751J671751D01*
G01*
X118920000Y-84765000D02*
G75*
G02*
X118248249Y-84486751I2J950003D01*
G01*
X121620000Y-82065000D02*
G75*
G02*
X118920000Y-84765000I-2700001J1D01*
G01*
%TO.C,R5*%
X95620000Y-60153641D02*
X95620000Y-59846359D01*
X96380000Y-60153641D02*
X96380000Y-59846359D01*
%TD*%
M02*
