%TF.GenerationSoftware,KiCad,Pcbnew,9.0.6*%
%TF.CreationDate,2026-03-16T00:19:42-05:00*%
%TF.ProjectId,B-Sides 2026,422d5369-6465-4732-9032-3032362e6b69,rev?*%
%TF.SameCoordinates,Original*%
%TF.FileFunction,Drillmap*%
%TF.FilePolarity,Positive*%
%FSLAX45Y45*%
G04 Gerber Fmt 4.5, Leading zero omitted, Abs format (unit mm)*
G04 Created by KiCad (PCBNEW 9.0.6) date 2026-03-16 00:19:42*
%MOMM*%
%LPD*%
G01*
G04 APERTURE LIST*
%ADD10C,0.022489*%
%ADD11C,0.200000*%
G04 APERTURE END LIST*
D10*
X14097625Y-5871924D02*
X12329803Y-8933879D01*
X9395313Y-8933879D01*
X7643030Y-5898836D01*
X8825238Y-3851192D01*
X12930955Y-3851192D01*
X14097625Y-5871924D01*
D11*
X7902682Y-9246487D02*
X7902682Y-9046487D01*
X7902682Y-9046487D02*
X7950301Y-9046487D01*
X7950301Y-9046487D02*
X7978873Y-9056011D01*
X7978873Y-9056011D02*
X7997920Y-9075059D01*
X7997920Y-9075059D02*
X8007444Y-9094106D01*
X8007444Y-9094106D02*
X8016968Y-9132202D01*
X8016968Y-9132202D02*
X8016968Y-9160773D01*
X8016968Y-9160773D02*
X8007444Y-9198868D01*
X8007444Y-9198868D02*
X7997920Y-9217916D01*
X7997920Y-9217916D02*
X7978873Y-9236964D01*
X7978873Y-9236964D02*
X7950301Y-9246487D01*
X7950301Y-9246487D02*
X7902682Y-9246487D01*
X8102682Y-9246487D02*
X8102682Y-9113154D01*
X8102682Y-9151249D02*
X8112206Y-9132202D01*
X8112206Y-9132202D02*
X8121730Y-9122678D01*
X8121730Y-9122678D02*
X8140777Y-9113154D01*
X8140777Y-9113154D02*
X8159825Y-9113154D01*
X8226492Y-9246487D02*
X8226492Y-9113154D01*
X8226492Y-9046487D02*
X8216968Y-9056011D01*
X8216968Y-9056011D02*
X8226492Y-9065535D01*
X8226492Y-9065535D02*
X8236015Y-9056011D01*
X8236015Y-9056011D02*
X8226492Y-9046487D01*
X8226492Y-9046487D02*
X8226492Y-9065535D01*
X8350301Y-9246487D02*
X8331253Y-9236964D01*
X8331253Y-9236964D02*
X8321730Y-9217916D01*
X8321730Y-9217916D02*
X8321730Y-9046487D01*
X8455063Y-9246487D02*
X8436015Y-9236964D01*
X8436015Y-9236964D02*
X8426492Y-9217916D01*
X8426492Y-9217916D02*
X8426492Y-9046487D01*
X8683635Y-9246487D02*
X8683635Y-9046487D01*
X8683635Y-9046487D02*
X8750301Y-9189344D01*
X8750301Y-9189344D02*
X8816968Y-9046487D01*
X8816968Y-9046487D02*
X8816968Y-9246487D01*
X8997920Y-9246487D02*
X8997920Y-9141725D01*
X8997920Y-9141725D02*
X8988396Y-9122678D01*
X8988396Y-9122678D02*
X8969349Y-9113154D01*
X8969349Y-9113154D02*
X8931254Y-9113154D01*
X8931254Y-9113154D02*
X8912206Y-9122678D01*
X8997920Y-9236964D02*
X8978873Y-9246487D01*
X8978873Y-9246487D02*
X8931254Y-9246487D01*
X8931254Y-9246487D02*
X8912206Y-9236964D01*
X8912206Y-9236964D02*
X8902682Y-9217916D01*
X8902682Y-9217916D02*
X8902682Y-9198868D01*
X8902682Y-9198868D02*
X8912206Y-9179821D01*
X8912206Y-9179821D02*
X8931254Y-9170297D01*
X8931254Y-9170297D02*
X8978873Y-9170297D01*
X8978873Y-9170297D02*
X8997920Y-9160773D01*
X9093158Y-9113154D02*
X9093158Y-9313154D01*
X9093158Y-9122678D02*
X9112206Y-9113154D01*
X9112206Y-9113154D02*
X9150301Y-9113154D01*
X9150301Y-9113154D02*
X9169349Y-9122678D01*
X9169349Y-9122678D02*
X9178873Y-9132202D01*
X9178873Y-9132202D02*
X9188396Y-9151249D01*
X9188396Y-9151249D02*
X9188396Y-9208392D01*
X9188396Y-9208392D02*
X9178873Y-9227440D01*
X9178873Y-9227440D02*
X9169349Y-9236964D01*
X9169349Y-9236964D02*
X9150301Y-9246487D01*
X9150301Y-9246487D02*
X9112206Y-9246487D01*
X9112206Y-9246487D02*
X9093158Y-9236964D01*
X9274111Y-9227440D02*
X9283635Y-9236964D01*
X9283635Y-9236964D02*
X9274111Y-9246487D01*
X9274111Y-9246487D02*
X9264587Y-9236964D01*
X9264587Y-9236964D02*
X9274111Y-9227440D01*
X9274111Y-9227440D02*
X9274111Y-9246487D01*
X9274111Y-9122678D02*
X9283635Y-9132202D01*
X9283635Y-9132202D02*
X9274111Y-9141725D01*
X9274111Y-9141725D02*
X9264587Y-9132202D01*
X9264587Y-9132202D02*
X9274111Y-9122678D01*
X9274111Y-9122678D02*
X9274111Y-9141725D01*
M02*
