%TF.GenerationSoftware,KiCad,Pcbnew,9.0.7*%
%TF.CreationDate,2026-02-18T16:21:14-06:00*%
%TF.ProjectId,B-Sides 2026,422d5369-6465-4732-9032-3032362e6b69,rev?*%
%TF.SameCoordinates,Original*%
%TF.FileFunction,Soldermask,Top*%
%TF.FilePolarity,Negative*%
%FSLAX46Y46*%
G04 Gerber Fmt 4.6, Leading zero omitted, Abs format (unit mm)*
G04 Created by KiCad (PCBNEW 9.0.7) date 2026-02-18 16:21:14*
%MOMM*%
%LPD*%
G01*
G04 APERTURE LIST*
G04 Aperture macros list*
%AMRoundRect*
0 Rectangle with rounded corners*
0 $1 Rounding radius*
0 $2 $3 $4 $5 $6 $7 $8 $9 X,Y pos of 4 corners*
0 Add a 4 corners polygon primitive as box body*
4,1,4,$2,$3,$4,$5,$6,$7,$8,$9,$2,$3,0*
0 Add four circle primitives for the rounded corners*
1,1,$1+$1,$2,$3*
1,1,$1+$1,$4,$5*
1,1,$1+$1,$6,$7*
1,1,$1+$1,$8,$9*
0 Add four rect primitives between the rounded corners*
20,1,$1+$1,$2,$3,$4,$5,0*
20,1,$1+$1,$4,$5,$6,$7,0*
20,1,$1+$1,$6,$7,$8,$9,0*
20,1,$1+$1,$8,$9,$2,$3,0*%
G04 Aperture macros list end*
%ADD10C,0.000000*%
%ADD11R,1.727200X1.727200*%
%ADD12C,1.727200*%
%ADD13O,1.727200X1.727200*%
%ADD14RoundRect,0.190500X-0.762000X-0.444500X0.762000X-0.444500X0.762000X0.444500X-0.762000X0.444500X0*%
G04 APERTURE END LIST*
D10*
%TO.C,J1*%
G36*
X135895551Y-58802371D02*
G01*
X135288546Y-59098947D01*
X134653031Y-59398169D01*
X133990099Y-59699905D01*
X133553013Y-59893447D01*
X133105334Y-60088312D01*
X131772200Y-60647842D01*
X130362671Y-61211154D01*
X128883301Y-61776575D01*
X127340641Y-62342429D01*
X125741244Y-62907044D01*
X124091662Y-63468744D01*
X122398449Y-64025855D01*
X120668157Y-64576704D01*
X120657928Y-64579879D01*
X120439337Y-64647436D01*
X120219423Y-64716050D01*
X120219073Y-64716050D01*
X117197813Y-65629964D01*
X114125323Y-66510868D01*
X111033849Y-67350389D01*
X107955637Y-68140156D01*
X104922933Y-68871797D01*
X101967984Y-69536941D01*
X99123035Y-70127216D01*
X96420333Y-70634251D01*
X96419980Y-70634251D01*
X95941611Y-70718210D01*
X95929972Y-70720328D01*
X94067543Y-71023688D01*
X92316929Y-71272696D01*
X90691157Y-71463967D01*
X89203252Y-71594115D01*
X87866243Y-71659754D01*
X86693155Y-71657499D01*
X86172152Y-71629852D01*
X85697015Y-71583963D01*
X85269371Y-71519407D01*
X84890849Y-71435761D01*
X84775814Y-71403262D01*
X84666492Y-71368593D01*
X84562943Y-71331737D01*
X84465226Y-71292678D01*
X84373402Y-71251399D01*
X84287530Y-71207883D01*
X84207670Y-71162115D01*
X84133882Y-71114078D01*
X84066225Y-71063755D01*
X84004759Y-71011130D01*
X83949544Y-70956186D01*
X83900640Y-70898908D01*
X83858106Y-70839277D01*
X83822002Y-70777279D01*
X83792389Y-70712896D01*
X83769324Y-70646113D01*
X83752870Y-70576912D01*
X83743084Y-70505277D01*
X83740028Y-70431191D01*
X83743760Y-70354639D01*
X83754340Y-70275604D01*
X83771829Y-70194068D01*
X83796286Y-70110017D01*
X83827770Y-70023433D01*
X83866342Y-69934299D01*
X83912061Y-69842600D01*
X83964986Y-69748319D01*
X84025179Y-69651439D01*
X84092698Y-69551944D01*
X84167603Y-69449818D01*
X84249954Y-69345043D01*
X84339811Y-69237604D01*
X84645154Y-68909489D01*
X85016214Y-68558300D01*
X85454487Y-68183651D01*
X85961470Y-67785156D01*
X86538661Y-67362429D01*
X87187557Y-66915084D01*
X87909654Y-66442735D01*
X88706450Y-65944995D01*
X89579442Y-65421480D01*
X90530127Y-64871802D01*
X91560002Y-64295576D01*
X92670564Y-63692416D01*
X93863310Y-63061935D01*
X95139738Y-62403748D01*
X96501344Y-61717469D01*
X97949625Y-61002712D01*
X97894942Y-61218613D01*
X97891767Y-61220025D01*
X97839910Y-61417579D01*
X97786156Y-61631053D01*
X97733724Y-61844793D01*
X95978330Y-62850348D01*
X94429960Y-63797249D01*
X93091617Y-64682630D01*
X91966305Y-65503623D01*
X91057030Y-66257359D01*
X90684345Y-66608110D01*
X90366796Y-66940972D01*
X90104758Y-67255586D01*
X89898607Y-67551594D01*
X89748718Y-67828637D01*
X89655468Y-68086358D01*
X89619231Y-68324396D01*
X89640383Y-68542395D01*
X89719300Y-68739996D01*
X89856357Y-68916840D01*
X90051929Y-69072568D01*
X90306393Y-69206823D01*
X90620125Y-69319246D01*
X90993498Y-69409478D01*
X91426890Y-69477161D01*
X91920675Y-69521937D01*
X92475229Y-69543447D01*
X93090928Y-69541332D01*
X94507263Y-69464797D01*
X96172683Y-69289463D01*
X96185030Y-69288050D01*
X96420906Y-69258284D01*
X96661280Y-69226667D01*
X96661632Y-69226667D01*
X98652032Y-68921196D01*
X100899640Y-68510037D01*
X103407465Y-67990259D01*
X106178517Y-67358929D01*
X109215806Y-66613118D01*
X112522342Y-65749893D01*
X116101135Y-64766325D01*
X119955193Y-63659481D01*
X119955901Y-63659481D01*
X120176739Y-63594923D01*
X120397576Y-63529307D01*
X120406750Y-63526484D01*
X123345431Y-62651110D01*
X126426988Y-61710649D01*
X129652345Y-60703910D01*
X133022429Y-59629702D01*
X133921306Y-59339718D01*
X136472954Y-58508573D01*
X135895551Y-58802371D01*
G37*
%TD*%
D11*
%TO.C,J2*%
X91360000Y-43270000D03*
D12*
X91360000Y-45810000D03*
D13*
X93900000Y-43270000D03*
X93900000Y-45810000D03*
D12*
X96440000Y-43270000D03*
X96440000Y-45810000D03*
%TD*%
D14*
%TO.C,J1*%
X88010000Y-68740000D03*
%TD*%
M02*
