%TF.GenerationSoftware,KiCad,Pcbnew,9.0.7*%
%TF.CreationDate,2026-02-18T16:21:13-06:00*%
%TF.ProjectId,B-Sides 2026,422d5369-6465-4732-9032-3032362e6b69,rev?*%
%TF.SameCoordinates,Original*%
%TF.FileFunction,Paste,Bot*%
%TF.FilePolarity,Positive*%
%FSLAX46Y46*%
G04 Gerber Fmt 4.6, Leading zero omitted, Abs format (unit mm)*
G04 Created by KiCad (PCBNEW 9.0.7) date 2026-02-18 16:21:13*
%MOMM*%
%LPD*%
G01*
G04 APERTURE LIST*
G04 Aperture macros list*
%AMRoundRect*
0 Rectangle with rounded corners*
0 $1 Rounding radius*
0 $2 $3 $4 $5 $6 $7 $8 $9 X,Y pos of 4 corners*
0 Add a 4 corners polygon primitive as box body*
4,1,4,$2,$3,$4,$5,$6,$7,$8,$9,$2,$3,0*
0 Add four circle primitives for the rounded corners*
1,1,$1+$1,$2,$3*
1,1,$1+$1,$4,$5*
1,1,$1+$1,$6,$7*
1,1,$1+$1,$8,$9*
0 Add four rect primitives between the rounded corners*
20,1,$1+$1,$2,$3,$4,$5,0*
20,1,$1+$1,$4,$5,$6,$7,0*
20,1,$1+$1,$6,$7,$8,$9,0*
20,1,$1+$1,$8,$9,$2,$3,0*%
%AMRotRect*
0 Rectangle, with rotation*
0 The origin of the aperture is its center*
0 $1 length*
0 $2 width*
0 $3 Rotation angle, in degrees counterclockwise*
0 Add horizontal line*
21,1,$1,$2,0,0,$3*%
%AMFreePoly0*
4,1,14,0.385355,0.085355,0.400000,0.050000,0.400000,0.000711,0.385355,-0.034644,0.334644,-0.085355,0.299289,-0.100000,-0.350000,-0.100000,-0.385355,-0.085355,-0.400000,-0.050000,-0.400000,0.050000,-0.385355,0.085355,-0.350000,0.100000,0.350000,0.100000,0.385355,0.085355,0.385355,0.085355,$1*%
%AMFreePoly1*
4,1,14,0.334644,0.085355,0.385355,0.034644,0.400000,-0.000711,0.400000,-0.050000,0.385355,-0.085355,0.350000,-0.100000,-0.350000,-0.100000,-0.385355,-0.085355,-0.400000,-0.050000,-0.400000,0.050000,-0.385355,0.085355,-0.350000,0.100000,0.299289,0.100000,0.334644,0.085355,0.334644,0.085355,$1*%
%AMFreePoly2*
4,1,14,0.085355,0.385355,0.100000,0.350000,0.100000,-0.350000,0.085355,-0.385355,0.050000,-0.400000,0.000711,-0.400000,-0.034644,-0.385355,-0.085355,-0.334644,-0.100000,-0.299289,-0.100000,0.350000,-0.085355,0.385355,-0.050000,0.400000,0.050000,0.400000,0.085355,0.385355,0.085355,0.385355,$1*%
%AMFreePoly3*
4,1,14,0.085355,0.385355,0.100000,0.350000,0.100000,-0.299289,0.085355,-0.334644,0.034644,-0.385355,-0.000711,-0.400000,-0.050000,-0.400000,-0.085355,-0.385355,-0.100000,-0.350000,-0.100000,0.350000,-0.085355,0.385355,-0.050000,0.400000,0.050000,0.400000,0.085355,0.385355,0.085355,0.385355,$1*%
%AMFreePoly4*
4,1,14,0.385355,0.085355,0.400000,0.050000,0.400000,-0.050000,0.385355,-0.085355,0.350000,-0.100000,-0.350000,-0.100000,-0.385355,-0.085355,-0.400000,-0.050000,-0.400000,-0.000711,-0.385355,0.034644,-0.334644,0.085355,-0.299289,0.100000,0.350000,0.100000,0.385355,0.085355,0.385355,0.085355,$1*%
%AMFreePoly5*
4,1,14,0.385355,0.085355,0.400000,0.050000,0.400000,-0.050000,0.385355,-0.085355,0.350000,-0.100000,-0.299289,-0.100000,-0.334644,-0.085355,-0.385355,-0.034644,-0.400000,0.000711,-0.400000,0.050000,-0.385355,0.085355,-0.350000,0.100000,0.350000,0.100000,0.385355,0.085355,0.385355,0.085355,$1*%
%AMFreePoly6*
4,1,14,0.034644,0.385355,0.085355,0.334644,0.100000,0.299289,0.100000,-0.350000,0.085355,-0.385355,0.050000,-0.400000,-0.050000,-0.400000,-0.085355,-0.385355,-0.100000,-0.350000,-0.100000,0.350000,-0.085355,0.385355,-0.050000,0.400000,-0.000711,0.400000,0.034644,0.385355,0.034644,0.385355,$1*%
%AMFreePoly7*
4,1,14,0.085355,0.385355,0.100000,0.350000,0.100000,-0.350000,0.085355,-0.385355,0.050000,-0.400000,-0.050000,-0.400000,-0.085355,-0.385355,-0.100000,-0.350000,-0.100000,0.299289,-0.085355,0.334644,-0.034644,0.385355,0.000711,0.400000,0.050000,0.400000,0.085355,0.385355,0.085355,0.385355,$1*%
G04 Aperture macros list end*
%ADD10RoundRect,0.140000X0.170000X-0.140000X0.170000X0.140000X-0.170000X0.140000X-0.170000X-0.140000X0*%
%ADD11RoundRect,0.140000X-0.170000X0.140000X-0.170000X-0.140000X0.170000X-0.140000X0.170000X0.140000X0*%
%ADD12RotRect,0.450000X1.200000X300.000000*%
%ADD13RoundRect,0.172500X0.172500X0.172500X-0.172500X0.172500X-0.172500X-0.172500X0.172500X-0.172500X0*%
%ADD14FreePoly0,180.000000*%
%ADD15RoundRect,0.050000X0.350000X0.050000X-0.350000X0.050000X-0.350000X-0.050000X0.350000X-0.050000X0*%
%ADD16FreePoly1,180.000000*%
%ADD17FreePoly2,180.000000*%
%ADD18RoundRect,0.050000X0.050000X0.350000X-0.050000X0.350000X-0.050000X-0.350000X0.050000X-0.350000X0*%
%ADD19FreePoly3,180.000000*%
%ADD20FreePoly4,180.000000*%
%ADD21FreePoly5,180.000000*%
%ADD22FreePoly6,180.000000*%
%ADD23FreePoly7,180.000000*%
%ADD24RoundRect,0.140000X0.140000X0.170000X-0.140000X0.170000X-0.140000X-0.170000X0.140000X-0.170000X0*%
%ADD25RoundRect,0.135000X-0.135000X-0.185000X0.135000X-0.185000X0.135000X0.185000X-0.135000X0.185000X0*%
%ADD26RotRect,0.450000X1.200000X120.000000*%
%ADD27R,1.200000X4.000000*%
%ADD28RotRect,0.450000X1.200000X60.000000*%
%ADD29RoundRect,0.135000X-0.185000X0.135000X-0.185000X-0.135000X0.185000X-0.135000X0.185000X0.135000X0*%
%ADD30RotRect,0.450000X1.200000X240.000000*%
%ADD31RoundRect,0.200000X-0.200000X0.250000X-0.200000X-0.250000X0.200000X-0.250000X0.200000X0.250000X0*%
%ADD32RoundRect,0.150000X0.150000X-0.587500X0.150000X0.587500X-0.150000X0.587500X-0.150000X-0.587500X0*%
%ADD33R,6.000000X5.500000*%
%ADD34RoundRect,0.135000X0.185000X-0.135000X0.185000X0.135000X-0.185000X0.135000X-0.185000X-0.135000X0*%
G04 APERTURE END LIST*
D10*
%TO.C,C3*%
X97540000Y-57480000D03*
X97540000Y-56520000D03*
%TD*%
D11*
%TO.C,C4*%
X129280000Y-69900000D03*
X129280000Y-70860000D03*
%TD*%
D12*
%TO.C,D1*%
X131733731Y-46698808D03*
X132153731Y-47426269D03*
X132573731Y-48153731D03*
X132993731Y-48881192D03*
%TD*%
D13*
%TO.C,U2*%
X94685000Y-57185000D03*
X94685000Y-56335000D03*
X93835000Y-57185000D03*
X93835000Y-56335000D03*
D14*
X95710000Y-55960000D03*
D15*
X95710000Y-56360000D03*
X95710000Y-56760000D03*
X95710000Y-57160000D03*
D16*
X95710000Y-57560000D03*
D17*
X95060000Y-58210000D03*
D18*
X94660000Y-58210000D03*
X94260000Y-58210000D03*
X93860000Y-58210000D03*
D19*
X93460000Y-58210000D03*
D20*
X92810000Y-57560000D03*
D15*
X92810000Y-57160000D03*
X92810000Y-56760000D03*
X92810000Y-56360000D03*
D21*
X92810000Y-55960000D03*
D22*
X93460000Y-55310000D03*
D18*
X93860000Y-55310000D03*
X94260000Y-55310000D03*
X94660000Y-55310000D03*
D23*
X95060000Y-55310000D03*
%TD*%
D24*
%TO.C,C1*%
X85080000Y-51600000D03*
X84120000Y-51600000D03*
%TD*%
D25*
%TO.C,R2*%
X117490000Y-51000000D03*
X118510000Y-51000000D03*
%TD*%
D26*
%TO.C,D2*%
X82272538Y-66420000D03*
X81852538Y-65692539D03*
X81432538Y-64965077D03*
X81012538Y-64237616D03*
%TD*%
D25*
%TO.C,R3*%
X115490000Y-44500000D03*
X116510000Y-44500000D03*
%TD*%
D10*
%TO.C,C2*%
X129600000Y-47080000D03*
X129600000Y-46120000D03*
%TD*%
D27*
%TO.C,LS1*%
X114000000Y-46020000D03*
X102800000Y-46020000D03*
%TD*%
D28*
%TO.C,D37*%
X83400000Y-49800000D03*
X83820000Y-49072539D03*
X84240000Y-48345077D03*
X84660000Y-47617616D03*
%TD*%
D29*
%TO.C,R4*%
X89200000Y-42890000D03*
X89200000Y-43910000D03*
%TD*%
D30*
%TO.C,D38*%
X132593731Y-69518808D03*
X132173731Y-70246269D03*
X131753731Y-70973731D03*
X131333731Y-71701192D03*
%TD*%
D31*
%TO.C,Q6*%
X123110000Y-68250000D03*
X125010000Y-68250000D03*
X124060000Y-70250000D03*
%TD*%
D32*
%TO.C,Q1*%
X118400000Y-49000000D03*
X116500000Y-49000000D03*
X117450000Y-47125000D03*
%TD*%
D10*
%TO.C,C6*%
X98500000Y-57480000D03*
X98500000Y-56520000D03*
%TD*%
D24*
%TO.C,C5*%
X82980000Y-62000000D03*
X82020000Y-62000000D03*
%TD*%
D33*
%TO.C,BT1*%
X124070000Y-74815000D03*
X93470000Y-74815000D03*
%TD*%
D34*
%TO.C,R5*%
X96000000Y-60510000D03*
X96000000Y-59490000D03*
%TD*%
M02*
