M48
; DRILL file {KiCad 9.0.6} date 2026-03-16T00:19:42-0500
; FORMAT={-:-/ absolute / metric / decimal}
; #@! TF.CreationDate,2026-03-16T00:19:42-05:00
; #@! TF.GenerationSoftware,Kicad,Pcbnew,9.0.6
; #@! TF.FileFunction,Plated,1,2,PTH
FMAT,2
METRIC
; #@! TA.AperFunction,Plated,PTH,ViaDrill
T1C0.400
; #@! TA.AperFunction,Plated,PTH,ComponentDrill
T2C1.016
%
G90
G05
T1
X83.0Y-51.0
X83.0Y-63.5
X84.0Y-62.0
X84.5Y-65.5
X85.6Y-49.4
X86.0Y-52.0
X89.2Y-74.6
X89.4Y-73.8
X90.5Y-58.5
X90.8Y-68.8
X91.0Y-60.0
X91.59Y-56.27
X91.59Y-57.41
X95.19Y-52.39
X95.5Y-53.81
X98.5Y-55.0
X100.0Y-57.5
X116.5Y-51.0
X128.0Y-74.2
X128.0Y-75.2
X130.5Y-70.5
X131.0Y-48.154
X131.2Y-45.2
X132.0Y-49.5
X132.66Y-67.3
T2
X91.36Y-43.27
X91.36Y-45.81
X93.9Y-43.27
X93.9Y-45.81
X96.44Y-43.27
X96.44Y-45.81
M30
