%TF.GenerationSoftware,KiCad,Pcbnew,7.0.1*%
%TF.CreationDate,2024-01-19T17:32:14-06:00*%
%TF.ProjectId,Techno Buffalo,54656368-6e6f-4204-9275-6666616c6f2e,rev?*%
%TF.SameCoordinates,Original*%
%TF.FileFunction,Copper,L1,Top*%
%TF.FilePolarity,Positive*%
%FSLAX46Y46*%
G04 Gerber Fmt 4.6, Leading zero omitted, Abs format (unit mm)*
G04 Created by KiCad (PCBNEW 7.0.1) date 2024-01-19 17:32:14*
%MOMM*%
%LPD*%
G01*
G04 APERTURE LIST*
G04 Aperture macros list*
%AMRoundRect*
0 Rectangle with rounded corners*
0 $1 Rounding radius*
0 $2 $3 $4 $5 $6 $7 $8 $9 X,Y pos of 4 corners*
0 Add a 4 corners polygon primitive as box body*
4,1,4,$2,$3,$4,$5,$6,$7,$8,$9,$2,$3,0*
0 Add four circle primitives for the rounded corners*
1,1,$1+$1,$2,$3*
1,1,$1+$1,$4,$5*
1,1,$1+$1,$6,$7*
1,1,$1+$1,$8,$9*
0 Add four rect primitives between the rounded corners*
20,1,$1+$1,$2,$3,$4,$5,0*
20,1,$1+$1,$4,$5,$6,$7,0*
20,1,$1+$1,$6,$7,$8,$9,0*
20,1,$1+$1,$8,$9,$2,$3,0*%
%AMFreePoly0*
4,1,14,0.334644,0.085355,0.385355,0.034644,0.400000,-0.000711,0.400000,-0.050000,0.385355,-0.085355,0.350000,-0.100000,-0.350000,-0.100000,-0.385355,-0.085355,-0.400000,-0.050000,-0.400000,0.050000,-0.385355,0.085355,-0.350000,0.100000,0.299289,0.100000,0.334644,0.085355,0.334644,0.085355,$1*%
%AMFreePoly1*
4,1,14,0.385355,0.085355,0.400000,0.050000,0.400000,0.000711,0.385355,-0.034644,0.334644,-0.085355,0.299289,-0.100000,-0.350000,-0.100000,-0.385355,-0.085355,-0.400000,-0.050000,-0.400000,0.050000,-0.385355,0.085355,-0.350000,0.100000,0.350000,0.100000,0.385355,0.085355,0.385355,0.085355,$1*%
%AMFreePoly2*
4,1,14,0.085355,0.385355,0.100000,0.350000,0.100000,-0.350000,0.085355,-0.385355,0.050000,-0.400000,-0.050000,-0.400000,-0.085355,-0.385355,-0.100000,-0.350000,-0.100000,0.299289,-0.085355,0.334644,-0.034644,0.385355,0.000711,0.400000,0.050000,0.400000,0.085355,0.385355,0.085355,0.385355,$1*%
%AMFreePoly3*
4,1,14,0.034644,0.385355,0.085355,0.334644,0.100000,0.299289,0.100000,-0.350000,0.085355,-0.385355,0.050000,-0.400000,-0.050000,-0.400000,-0.085355,-0.385355,-0.100000,-0.350000,-0.100000,0.350000,-0.085355,0.385355,-0.050000,0.400000,-0.000711,0.400000,0.034644,0.385355,0.034644,0.385355,$1*%
%AMFreePoly4*
4,1,14,0.385355,0.085355,0.400000,0.050000,0.400000,-0.050000,0.385355,-0.085355,0.350000,-0.100000,-0.299289,-0.100000,-0.334644,-0.085354,-0.385355,-0.034644,-0.400000,0.000711,-0.400000,0.050000,-0.385355,0.085355,-0.350000,0.100000,0.350000,0.100000,0.385355,0.085355,0.385355,0.085355,$1*%
%AMFreePoly5*
4,1,14,0.385355,0.085355,0.400000,0.050000,0.400000,-0.050000,0.385355,-0.085355,0.350000,-0.100000,-0.350000,-0.100000,-0.385355,-0.085355,-0.400000,-0.050000,-0.400000,-0.000711,-0.385355,0.034644,-0.334643,0.085355,-0.299289,0.100000,0.350000,0.100000,0.385355,0.085355,0.385355,0.085355,$1*%
%AMFreePoly6*
4,1,14,0.085355,0.385355,0.100000,0.350000,0.100000,-0.299289,0.085355,-0.334644,0.034644,-0.385355,-0.000711,-0.400000,-0.050000,-0.400000,-0.085355,-0.385355,-0.100000,-0.350000,-0.100000,0.350000,-0.085355,0.385355,-0.050000,0.400000,0.050000,0.400000,0.085355,0.385355,0.085355,0.385355,$1*%
%AMFreePoly7*
4,1,14,0.085355,0.385355,0.100000,0.350000,0.100000,-0.350000,0.085355,-0.385355,0.050000,-0.400000,0.000711,-0.400000,-0.034644,-0.385355,-0.085355,-0.334644,-0.100000,-0.299289,-0.100000,0.350000,-0.085355,0.385355,-0.050000,0.400000,0.050000,0.400000,0.085355,0.385355,0.085355,0.385355,$1*%
G04 Aperture macros list end*
%TA.AperFunction,SMDPad,CuDef*%
%ADD10RoundRect,0.237500X-0.250000X-0.237500X0.250000X-0.237500X0.250000X0.237500X-0.250000X0.237500X0*%
%TD*%
%TA.AperFunction,SMDPad,CuDef*%
%ADD11RoundRect,0.237500X0.237500X-0.300000X0.237500X0.300000X-0.237500X0.300000X-0.237500X-0.300000X0*%
%TD*%
%TA.AperFunction,SMDPad,CuDef*%
%ADD12R,1.200000X0.450000*%
%TD*%
%TA.AperFunction,SMDPad,CuDef*%
%ADD13FreePoly0,0.000000*%
%TD*%
%TA.AperFunction,SMDPad,CuDef*%
%ADD14RoundRect,0.050000X-0.350000X-0.050000X0.350000X-0.050000X0.350000X0.050000X-0.350000X0.050000X0*%
%TD*%
%TA.AperFunction,SMDPad,CuDef*%
%ADD15FreePoly1,0.000000*%
%TD*%
%TA.AperFunction,SMDPad,CuDef*%
%ADD16FreePoly2,0.000000*%
%TD*%
%TA.AperFunction,SMDPad,CuDef*%
%ADD17RoundRect,0.050000X-0.050000X-0.350000X0.050000X-0.350000X0.050000X0.350000X-0.050000X0.350000X0*%
%TD*%
%TA.AperFunction,SMDPad,CuDef*%
%ADD18FreePoly3,0.000000*%
%TD*%
%TA.AperFunction,SMDPad,CuDef*%
%ADD19FreePoly4,0.000000*%
%TD*%
%TA.AperFunction,SMDPad,CuDef*%
%ADD20FreePoly5,0.000000*%
%TD*%
%TA.AperFunction,SMDPad,CuDef*%
%ADD21FreePoly6,0.000000*%
%TD*%
%TA.AperFunction,SMDPad,CuDef*%
%ADD22FreePoly7,0.000000*%
%TD*%
%TA.AperFunction,SMDPad,CuDef*%
%ADD23R,1.700000X1.700000*%
%TD*%
%TA.AperFunction,ComponentPad*%
%ADD24R,1.700000X1.700000*%
%TD*%
%TA.AperFunction,ComponentPad*%
%ADD25O,1.700000X1.700000*%
%TD*%
%TA.AperFunction,ViaPad*%
%ADD26C,0.800000*%
%TD*%
%TA.AperFunction,Conductor*%
%ADD27C,0.200000*%
%TD*%
%TA.AperFunction,Conductor*%
%ADD28C,0.300000*%
%TD*%
%TA.AperFunction,Conductor*%
%ADD29C,0.250000*%
%TD*%
G04 APERTURE END LIST*
D10*
%TO.P,R1,1*%
%TO.N,/CS{slash}MISO*%
X105783500Y-115316000D03*
%TO.P,R1,2*%
%TO.N,/DIO*%
X107608500Y-115316000D03*
%TD*%
D11*
%TO.P,C2,1*%
%TO.N,/Battery_VIN*%
X97282000Y-110082500D03*
%TO.P,C2,2*%
%TO.N,GND*%
X97282000Y-108357500D03*
%TD*%
D12*
%TO.P,D36,1,VDD*%
%TO.N,/Battery_VIN*%
X95504000Y-109962000D03*
%TO.P,D36,2,DOUT*%
%TO.N,Net-(D36-DOUT)*%
X95504000Y-109122000D03*
%TO.P,D36,3,VSS*%
%TO.N,GND*%
X95504000Y-108282000D03*
%TO.P,D36,4,DIN*%
%TO.N,Net-(D35-DOUT)*%
X95504000Y-107442000D03*
%TD*%
D11*
%TO.P,C3,1*%
%TO.N,/Battery_VIN*%
X97282000Y-119835000D03*
%TO.P,C3,2*%
%TO.N,GND*%
X97282000Y-118110000D03*
%TD*%
%TO.P,C4,1*%
%TO.N,/Battery_VIN*%
X97282000Y-128979000D03*
%TO.P,C4,2*%
%TO.N,GND*%
X97282000Y-127254000D03*
%TD*%
D12*
%TO.P,D37,1,VDD*%
%TO.N,/Battery_VIN*%
X95416000Y-119624000D03*
%TO.P,D37,2,DOUT*%
%TO.N,Net-(D37-DOUT)*%
X95416000Y-118784000D03*
%TO.P,D37,3,VSS*%
%TO.N,GND*%
X95416000Y-117944000D03*
%TO.P,D37,4,DIN*%
%TO.N,Net-(D36-DOUT)*%
X95416000Y-117104000D03*
%TD*%
%TO.P,D38,1,VDD*%
%TO.N,/Battery_VIN*%
X95416000Y-129022000D03*
%TO.P,D38,2,DOUT*%
%TO.N,unconnected-(D38-DOUT-Pad2)*%
X95416000Y-128182000D03*
%TO.P,D38,3,VSS*%
%TO.N,GND*%
X95416000Y-127342000D03*
%TO.P,D38,4,DIN*%
%TO.N,Net-(D37-DOUT)*%
X95416000Y-126502000D03*
%TD*%
D11*
%TO.P,C1,1*%
%TO.N,/Battery_VIN*%
X97028000Y-103478500D03*
%TO.P,C1,2*%
%TO.N,GND*%
X97028000Y-101753500D03*
%TD*%
D12*
%TO.P,D35,1,VDD*%
%TO.N,/Battery_VIN*%
X95250000Y-103358000D03*
%TO.P,D35,2,DOUT*%
%TO.N,Net-(D35-DOUT)*%
X95250000Y-102518000D03*
%TO.P,D35,3,VSS*%
%TO.N,GND*%
X95250000Y-101678000D03*
%TO.P,D35,4,DIN*%
%TO.N,/DIO*%
X95250000Y-100838000D03*
%TD*%
D13*
%TO.P,U1,1,PA2*%
%TO.N,/Charlie_Plex_2*%
X104034000Y-119958000D03*
D14*
%TO.P,U1,2,PA3*%
%TO.N,/Charlie_Plex_3*%
X104034000Y-120358000D03*
%TO.P,U1,3,GND*%
%TO.N,GND*%
X104034000Y-120758000D03*
%TO.P,U1,4,VCC*%
%TO.N,/Battery_VIN*%
X104034000Y-121158000D03*
D15*
%TO.P,U1,5,PA4*%
%TO.N,/Charlie_Plex_4*%
X104034000Y-121558000D03*
D16*
%TO.P,U1,6,PA5*%
%TO.N,/Charlie_Plex_5*%
X104684000Y-122208000D03*
D17*
%TO.P,U1,7,PA6*%
%TO.N,/Charlie_Plex_6*%
X105084000Y-122208000D03*
%TO.P,U1,8,PA7*%
%TO.N,unconnected-(U1-PA7-Pad8)*%
X105484000Y-122208000D03*
%TO.P,U1,9,PB5*%
%TO.N,unconnected-(U1-PB5-Pad9)*%
X105884000Y-122208000D03*
D18*
%TO.P,U1,10,PB4*%
%TO.N,/DIO*%
X106284000Y-122208000D03*
D19*
%TO.P,U1,11,PB3*%
%TO.N,/RX*%
X106934000Y-121558000D03*
D14*
%TO.P,U1,12,PB2*%
%TO.N,/TX*%
X106934000Y-121158000D03*
%TO.P,U1,13,PB1*%
%TO.N,/SDA{slash}MOSI{slash}DATA*%
X106934000Y-120758000D03*
%TO.P,U1,14,PB0*%
%TO.N,/SCL{slash}SCK*%
X106934000Y-120358000D03*
D20*
%TO.P,U1,15,PC0*%
%TO.N,/LED_RED*%
X106934000Y-119958000D03*
D21*
%TO.P,U1,16,PC1*%
%TO.N,/LED_GREEN*%
X106284000Y-119308000D03*
D17*
%TO.P,U1,17,PC2*%
%TO.N,/LED_BLUE*%
X105884000Y-119308000D03*
%TO.P,U1,18,PC3*%
%TO.N,/CS{slash}MISO*%
X105484000Y-119308000D03*
%TO.P,U1,19,~{RESET}/PA0*%
%TO.N,/UPDI*%
X105084000Y-119308000D03*
D22*
%TO.P,U1,20,PA1*%
%TO.N,/Charlie_Plex_1*%
X104684000Y-119308000D03*
D23*
%TO.P,U1,21,GND*%
%TO.N,GND*%
X105484000Y-120758000D03*
%TD*%
D24*
%TO.P,J3,1,Pin_1*%
%TO.N,/Battery_VIN*%
X99568000Y-143764000D03*
D25*
%TO.P,J3,2,Pin_2*%
%TO.N,GND*%
X102108000Y-143764000D03*
%TO.P,J3,3,Pin_3*%
%TO.N,/SDA{slash}MOSI{slash}DATA*%
X99568000Y-146304000D03*
%TO.P,J3,4,Pin_4*%
%TO.N,/SCL{slash}SCK*%
X102108000Y-146304000D03*
%TO.P,J3,5,Pin_5*%
%TO.N,/CS{slash}MISO*%
X99568000Y-148844000D03*
%TO.P,J3,6,Pin_6*%
%TO.N,/UPDI*%
X102108000Y-148844000D03*
%TD*%
D26*
%TO.N,/Battery_VIN*%
X97917000Y-104775000D03*
X98298000Y-111252000D03*
X98552000Y-120904000D03*
X102795664Y-121457500D03*
%TO.N,GND*%
X105472500Y-121158000D03*
X105156000Y-121158000D03*
X105156000Y-120396000D03*
X106680000Y-129794000D03*
X105472500Y-120396000D03*
X110744000Y-129794000D03*
X101600000Y-129794000D03*
X98552000Y-128778000D03*
X108712000Y-129794000D03*
X91948000Y-138176000D03*
%TO.N,/SDA{slash}MOSI{slash}DATA*%
X108204000Y-121412000D03*
X107696000Y-131826000D03*
%TO.N,/SCL{slash}SCK*%
X108458000Y-120142000D03*
%TO.N,/CS{slash}MISO*%
X103632000Y-116840000D03*
%TO.N,/UPDI*%
X104784500Y-117856000D03*
%TD*%
D27*
%TO.N,/Battery_VIN*%
X104034000Y-121158000D02*
X103095164Y-121158000D01*
D28*
X97917000Y-104367500D02*
X97917000Y-104775000D01*
X95250000Y-103358000D02*
X96907500Y-103358000D01*
X97272000Y-119624000D02*
X98552000Y-120904000D01*
X96907500Y-103358000D02*
X97917000Y-104367500D01*
D27*
X103095164Y-121158000D02*
X102795664Y-121457500D01*
D28*
X95504000Y-109962000D02*
X97008000Y-109962000D01*
X95416000Y-119624000D02*
X97272000Y-119624000D01*
D29*
X99568000Y-131265000D02*
X97325000Y-129022000D01*
X97325000Y-129022000D02*
X95416000Y-129022000D01*
X99568000Y-143764000D02*
X99568000Y-131265000D01*
D28*
X97008000Y-109962000D02*
X98298000Y-111252000D01*
D29*
%TO.N,Net-(D35-DOUT)*%
X94400000Y-102518000D02*
X94325000Y-102593000D01*
X94325000Y-102593000D02*
X94325000Y-106263000D01*
X95250000Y-102518000D02*
X94400000Y-102518000D01*
X94325000Y-106263000D02*
X95504000Y-107442000D01*
%TO.N,GND*%
X95416000Y-117944000D02*
X99402000Y-117944000D01*
X101949999Y-121898287D02*
X101949999Y-122586001D01*
D28*
X95250000Y-101678000D02*
X96952500Y-101678000D01*
X99402000Y-104127500D02*
X99402000Y-109816000D01*
D29*
X96266000Y-127586000D02*
X95660000Y-127586000D01*
X102108000Y-132472005D02*
X97221995Y-127586000D01*
X99402000Y-117944000D02*
X99402000Y-119350288D01*
X102108000Y-143764000D02*
X102108000Y-132472005D01*
D28*
X97790000Y-108204000D02*
X99402000Y-109816000D01*
D29*
X95660000Y-127586000D02*
X95416000Y-127342000D01*
D28*
X96952500Y-101678000D02*
X99402000Y-104127500D01*
D29*
X99753856Y-119702144D02*
X101949999Y-121898287D01*
X96950000Y-127586000D02*
X96266000Y-127586000D01*
D28*
X97712000Y-108282000D02*
X97790000Y-108204000D01*
D27*
X100809712Y-120758000D02*
X99753856Y-119702144D01*
D28*
X95504000Y-108282000D02*
X97712000Y-108282000D01*
D27*
X104034000Y-120758000D02*
X100809712Y-120758000D01*
D29*
X101949999Y-122586001D02*
X96950000Y-127586000D01*
X99402000Y-119350288D02*
X99753856Y-119702144D01*
X97221995Y-127586000D02*
X96266000Y-127586000D01*
D28*
X99402000Y-109816000D02*
X99402000Y-117944000D01*
D27*
%TO.N,/DIO*%
X107696000Y-115316000D02*
X108712000Y-115316000D01*
D29*
X109474000Y-117338688D02*
X109474000Y-121412000D01*
X97790000Y-100838000D02*
X109220000Y-112268000D01*
X109220000Y-114808000D02*
X109220000Y-117084688D01*
X95250000Y-100838000D02*
X97790000Y-100838000D01*
X108678000Y-122208000D02*
X106309000Y-122208000D01*
X109220000Y-112268000D02*
X109220000Y-114808000D01*
X109220000Y-117084688D02*
X109474000Y-117338688D01*
X109474000Y-121412000D02*
X108678000Y-122208000D01*
D27*
X108712000Y-115316000D02*
X109220000Y-114808000D01*
D29*
%TO.N,Net-(D36-DOUT)*%
X95416000Y-117104000D02*
X94579000Y-116267000D01*
X94579000Y-116267000D02*
X94579000Y-109197000D01*
X94579000Y-109197000D02*
X94654000Y-109122000D01*
X94654000Y-109122000D02*
X95504000Y-109122000D01*
%TO.N,Net-(D37-DOUT)*%
X94491000Y-118859000D02*
X94566000Y-118784000D01*
X94566000Y-118784000D02*
X95416000Y-118784000D01*
X95416000Y-126502000D02*
X94491000Y-125577000D01*
X94491000Y-125577000D02*
X94491000Y-118859000D01*
D27*
%TO.N,/SDA{slash}MOSI{slash}DATA*%
X99568000Y-146304000D02*
X100958000Y-144914000D01*
X106934000Y-120758000D02*
X107550000Y-120758000D01*
X100958000Y-144914000D02*
X102584346Y-144914000D01*
X107696000Y-139802346D02*
X107696000Y-131826000D01*
X102584346Y-144914000D02*
X107696000Y-139802346D01*
X107550000Y-120758000D02*
X108204000Y-121412000D01*
%TO.N,/SCL{slash}SCK*%
X106934000Y-120358000D02*
X108242000Y-120358000D01*
X108242000Y-120358000D02*
X108458000Y-120142000D01*
%TO.N,/CS{slash}MISO*%
X105696000Y-115538000D02*
X105696000Y-115316000D01*
X104648000Y-116586000D02*
X105696000Y-115538000D01*
X103886000Y-116586000D02*
X103632000Y-116840000D01*
X105484000Y-119308000D02*
X105484000Y-117168000D01*
X104648000Y-116586000D02*
X103886000Y-116586000D01*
X105484000Y-117168000D02*
X104902000Y-116586000D01*
X104902000Y-116586000D02*
X104648000Y-116586000D01*
%TO.N,/UPDI*%
X105084000Y-119308000D02*
X105084000Y-118155500D01*
X105084000Y-118155500D02*
X104784500Y-117856000D01*
%TD*%
%TA.AperFunction,Conductor*%
%TO.N,GND*%
G36*
X101257706Y-95817181D02*
G01*
X107492800Y-98044000D01*
X115316000Y-100838000D01*
X128967791Y-103366109D01*
X129022001Y-103390675D01*
X129058521Y-103437673D01*
X130048000Y-105664000D01*
X135333766Y-105664000D01*
X135378719Y-105672435D01*
X135417556Y-105696593D01*
X138389790Y-108421141D01*
X138419503Y-108462618D01*
X138430000Y-108512548D01*
X138430000Y-122174000D01*
X139173967Y-123661935D01*
X139185679Y-123698950D01*
X139185371Y-123737773D01*
X138447269Y-128166385D01*
X138424881Y-128219424D01*
X138380953Y-128256636D01*
X138324956Y-128270000D01*
X135741044Y-128270000D01*
X135685047Y-128256636D01*
X135641119Y-128219424D01*
X135618731Y-128166385D01*
X134882061Y-123746367D01*
X134883135Y-123699960D01*
X134901198Y-123657201D01*
X135890000Y-122174000D01*
X135890000Y-109474000D01*
X134112000Y-107950000D01*
X134111998Y-107950000D01*
X131318000Y-107950000D01*
X134340996Y-113995993D01*
X134353988Y-114046481D01*
X134345078Y-114097847D01*
X128523999Y-128523999D01*
X133069651Y-134332332D01*
X133089228Y-134368335D01*
X133096000Y-134408754D01*
X133096000Y-152022000D01*
X133079387Y-152084000D01*
X133034000Y-152129387D01*
X132972000Y-152146000D01*
X127431832Y-152146000D01*
X127374467Y-152131933D01*
X127330118Y-152092924D01*
X127308846Y-152037823D01*
X127315477Y-151979133D01*
X127317412Y-151973881D01*
X129032000Y-147320000D01*
X127508000Y-136652000D01*
X124714000Y-134874000D01*
X124714000Y-134874001D01*
X124714000Y-152276000D01*
X124697387Y-152338000D01*
X124652000Y-152383387D01*
X124590000Y-152400000D01*
X118801152Y-152400000D01*
X118743032Y-152385536D01*
X118698472Y-152345518D01*
X118677865Y-152289282D01*
X118686021Y-152229948D01*
X120650000Y-147320001D01*
X120650000Y-147319999D01*
X118872000Y-136652000D01*
X115602395Y-134136919D01*
X115575428Y-134108313D01*
X115558771Y-134072700D01*
X114554000Y-130555999D01*
X99163843Y-130350797D01*
X99117281Y-130341050D01*
X99077815Y-130314489D01*
X97993819Y-129230493D01*
X97966939Y-129190265D01*
X97957500Y-129142812D01*
X97957500Y-128626240D01*
X97955802Y-128608133D01*
X97954725Y-128596651D01*
X97911116Y-128472025D01*
X97911115Y-128472023D01*
X97842506Y-128379060D01*
X97818719Y-128315891D01*
X97831544Y-128249622D01*
X97877180Y-128199888D01*
X97980040Y-128136443D01*
X98101943Y-128014540D01*
X98192453Y-127867801D01*
X98246681Y-127704151D01*
X98257000Y-127603147D01*
X98257000Y-127504000D01*
X96556000Y-127504000D01*
X96529319Y-127530681D01*
X96489091Y-127557561D01*
X96441638Y-127567000D01*
X95315000Y-127567000D01*
X95253000Y-127550387D01*
X95207613Y-127505000D01*
X95191000Y-127443000D01*
X95191000Y-127241000D01*
X95207613Y-127179000D01*
X95253000Y-127133613D01*
X95315000Y-127117000D01*
X96267000Y-127117000D01*
X96271026Y-127112973D01*
X96283613Y-127066000D01*
X96329000Y-127020613D01*
X96391000Y-127004000D01*
X97032000Y-127004000D01*
X97032000Y-126216501D01*
X96995353Y-126216501D01*
X96894349Y-126226818D01*
X96730698Y-126281046D01*
X96583959Y-126371556D01*
X96462054Y-126493461D01*
X96446038Y-126519428D01*
X96399984Y-126563132D01*
X96338336Y-126578312D01*
X96277255Y-126560990D01*
X96232754Y-126515705D01*
X96216500Y-126454331D01*
X96216500Y-126257251D01*
X96208394Y-126216500D01*
X97532000Y-126216500D01*
X97532000Y-127004000D01*
X98256999Y-127004000D01*
X98256999Y-126904853D01*
X98246681Y-126803849D01*
X98192453Y-126640198D01*
X98101943Y-126493459D01*
X97980040Y-126371556D01*
X97833301Y-126281046D01*
X97669651Y-126226818D01*
X97568647Y-126216500D01*
X97532000Y-126216500D01*
X96208394Y-126216500D01*
X96204867Y-126198769D01*
X96160552Y-126132447D01*
X96094230Y-126088132D01*
X96035749Y-126076500D01*
X96035748Y-126076500D01*
X95502188Y-126076500D01*
X95454735Y-126067061D01*
X95414507Y-126040181D01*
X94852819Y-125478493D01*
X94825939Y-125438265D01*
X94816500Y-125390812D01*
X94816500Y-120173500D01*
X94833113Y-120111500D01*
X94878500Y-120066113D01*
X94940500Y-120049500D01*
X96035749Y-120049500D01*
X96064989Y-120043683D01*
X96094231Y-120037867D01*
X96157790Y-119995397D01*
X96190684Y-119979840D01*
X96226680Y-119974500D01*
X96482500Y-119974500D01*
X96544500Y-119991113D01*
X96589887Y-120036500D01*
X96606500Y-120098500D01*
X96606500Y-120187760D01*
X96609274Y-120217345D01*
X96609274Y-120217347D01*
X96609275Y-120217349D01*
X96642085Y-120311114D01*
X96652885Y-120341978D01*
X96731288Y-120448211D01*
X96837521Y-120526614D01*
X96837523Y-120526614D01*
X96837525Y-120526616D01*
X96962151Y-120570225D01*
X96974833Y-120571414D01*
X96991740Y-120573000D01*
X96991744Y-120573000D01*
X97572256Y-120573000D01*
X97572260Y-120573000D01*
X97589166Y-120571414D01*
X97601849Y-120570225D01*
X97617715Y-120564672D01*
X97686262Y-120560823D01*
X97746351Y-120594033D01*
X97915874Y-120763556D01*
X97945612Y-120811377D01*
X97951133Y-120867419D01*
X97946317Y-120904000D01*
X97966956Y-121060762D01*
X98027463Y-121206840D01*
X98123717Y-121332282D01*
X98219065Y-121405444D01*
X98249159Y-121428536D01*
X98395238Y-121489044D01*
X98552000Y-121509682D01*
X98708762Y-121489044D01*
X98854841Y-121428536D01*
X98980282Y-121332282D01*
X99076536Y-121206841D01*
X99137044Y-121060762D01*
X99157682Y-120904000D01*
X99137044Y-120747238D01*
X99076536Y-120601159D01*
X99052800Y-120570225D01*
X98980282Y-120475717D01*
X98854840Y-120379463D01*
X98708762Y-120318956D01*
X98552000Y-120298317D01*
X98515419Y-120303133D01*
X98459377Y-120297612D01*
X98411556Y-120267874D01*
X97993819Y-119850137D01*
X97966939Y-119809909D01*
X97957500Y-119762456D01*
X97957500Y-119482240D01*
X97954725Y-119452654D01*
X97954725Y-119452651D01*
X97911116Y-119328025D01*
X97911115Y-119328023D01*
X97842506Y-119235060D01*
X97818719Y-119171891D01*
X97831544Y-119105622D01*
X97877180Y-119055888D01*
X97980040Y-118992443D01*
X98101943Y-118870540D01*
X98192453Y-118723801D01*
X98246681Y-118560151D01*
X98257000Y-118459147D01*
X98257000Y-118360000D01*
X96391000Y-118360000D01*
X96329000Y-118343387D01*
X96283613Y-118298000D01*
X96267000Y-118236000D01*
X96267000Y-118169000D01*
X95315000Y-118169000D01*
X95253000Y-118152387D01*
X95207613Y-118107000D01*
X95191000Y-118045000D01*
X95191000Y-117843000D01*
X95207613Y-117781000D01*
X95253000Y-117735613D01*
X95315000Y-117719000D01*
X96432000Y-117719000D01*
X96494000Y-117735613D01*
X96539387Y-117781000D01*
X96556000Y-117843000D01*
X96556000Y-117860000D01*
X97032000Y-117860000D01*
X97032000Y-117072501D01*
X96995353Y-117072501D01*
X96894349Y-117082818D01*
X96730698Y-117137046D01*
X96583959Y-117227556D01*
X96492924Y-117318592D01*
X96442999Y-117349023D01*
X96384679Y-117353194D01*
X96330932Y-117330177D01*
X96266189Y-117281710D01*
X96229616Y-117237948D01*
X96216500Y-117182444D01*
X96216500Y-117072500D01*
X97532000Y-117072500D01*
X97532000Y-117860000D01*
X98256999Y-117860000D01*
X98256999Y-117760853D01*
X98246681Y-117659849D01*
X98192453Y-117496198D01*
X98101943Y-117349459D01*
X97980040Y-117227556D01*
X97833301Y-117137046D01*
X97669651Y-117082818D01*
X97568647Y-117072500D01*
X97532000Y-117072500D01*
X96216500Y-117072500D01*
X96216500Y-116859251D01*
X96204867Y-116800769D01*
X96160552Y-116734447D01*
X96094230Y-116690132D01*
X96035749Y-116678500D01*
X96035748Y-116678500D01*
X95502188Y-116678500D01*
X95454735Y-116669061D01*
X95414507Y-116642181D01*
X94940819Y-116168493D01*
X94913939Y-116128265D01*
X94904500Y-116080812D01*
X94904500Y-110511500D01*
X94921113Y-110449500D01*
X94966500Y-110404113D01*
X95028500Y-110387500D01*
X96123749Y-110387500D01*
X96152989Y-110381683D01*
X96182231Y-110375867D01*
X96245790Y-110333397D01*
X96278684Y-110317840D01*
X96314680Y-110312500D01*
X96482500Y-110312500D01*
X96544500Y-110329113D01*
X96589887Y-110374500D01*
X96604651Y-110429602D01*
X96605958Y-110429480D01*
X96609274Y-110464845D01*
X96652885Y-110589478D01*
X96731288Y-110695711D01*
X96837521Y-110774114D01*
X96837523Y-110774114D01*
X96837525Y-110774116D01*
X96962151Y-110817725D01*
X96974833Y-110818914D01*
X96991740Y-110820500D01*
X96991744Y-110820500D01*
X97319456Y-110820500D01*
X97366909Y-110829939D01*
X97407137Y-110856819D01*
X97661874Y-111111556D01*
X97691612Y-111159377D01*
X97697133Y-111215419D01*
X97692317Y-111252000D01*
X97712956Y-111408762D01*
X97773463Y-111554840D01*
X97869717Y-111680282D01*
X97995158Y-111776535D01*
X97995159Y-111776536D01*
X98141238Y-111837044D01*
X98298000Y-111857682D01*
X98454762Y-111837044D01*
X98600841Y-111776536D01*
X98726282Y-111680282D01*
X98822536Y-111554841D01*
X98883044Y-111408762D01*
X98903682Y-111252000D01*
X98883044Y-111095238D01*
X98822536Y-110949159D01*
X98822535Y-110949158D01*
X98726282Y-110823717D01*
X98600840Y-110727463D01*
X98454762Y-110666956D01*
X98298000Y-110646317D01*
X98261419Y-110651133D01*
X98205377Y-110645612D01*
X98157556Y-110615874D01*
X97993819Y-110452137D01*
X97966939Y-110411909D01*
X97957500Y-110364456D01*
X97957500Y-109729740D01*
X97954725Y-109700154D01*
X97954725Y-109700151D01*
X97911116Y-109575525D01*
X97900494Y-109561132D01*
X97842506Y-109482560D01*
X97818719Y-109419391D01*
X97831544Y-109353122D01*
X97877180Y-109303388D01*
X97980040Y-109239943D01*
X98101943Y-109118040D01*
X98192453Y-108971301D01*
X98246681Y-108807651D01*
X98257000Y-108706647D01*
X98257000Y-108607500D01*
X96391000Y-108607500D01*
X96329000Y-108590887D01*
X96283613Y-108545500D01*
X96275601Y-108515601D01*
X96267000Y-108507000D01*
X95403000Y-108507000D01*
X95341000Y-108490387D01*
X95295613Y-108445000D01*
X95279000Y-108383000D01*
X95279000Y-108181000D01*
X95295613Y-108119000D01*
X95341000Y-108073613D01*
X95403000Y-108057000D01*
X96542138Y-108057000D01*
X96589591Y-108066439D01*
X96629819Y-108093319D01*
X96644000Y-108107500D01*
X97032000Y-108107500D01*
X97032000Y-107320001D01*
X96995353Y-107320001D01*
X96894349Y-107330318D01*
X96730698Y-107384546D01*
X96583962Y-107475054D01*
X96516182Y-107542836D01*
X96466819Y-107573086D01*
X96409103Y-107577628D01*
X96355615Y-107555473D01*
X96318015Y-107511450D01*
X96304500Y-107455155D01*
X96304500Y-107320000D01*
X97532000Y-107320000D01*
X97532000Y-108107500D01*
X98256999Y-108107500D01*
X98256999Y-108008353D01*
X98246681Y-107907349D01*
X98192453Y-107743698D01*
X98101943Y-107596959D01*
X97980040Y-107475056D01*
X97833301Y-107384546D01*
X97669651Y-107330318D01*
X97568647Y-107320000D01*
X97532000Y-107320000D01*
X96304500Y-107320000D01*
X96304500Y-107197251D01*
X96292867Y-107138769D01*
X96248552Y-107072447D01*
X96182230Y-107028132D01*
X96123749Y-107016500D01*
X96123748Y-107016500D01*
X95590188Y-107016500D01*
X95542735Y-107007061D01*
X95502507Y-106980181D01*
X94686819Y-106164493D01*
X94659939Y-106124265D01*
X94650500Y-106076812D01*
X94650500Y-103907500D01*
X94667113Y-103845500D01*
X94712500Y-103800113D01*
X94774500Y-103783500D01*
X95869749Y-103783500D01*
X95898989Y-103777683D01*
X95928231Y-103771867D01*
X95991790Y-103729397D01*
X96024684Y-103713840D01*
X96060680Y-103708500D01*
X96228500Y-103708500D01*
X96290500Y-103725113D01*
X96335887Y-103770500D01*
X96350651Y-103825602D01*
X96351958Y-103825480D01*
X96355274Y-103860845D01*
X96398885Y-103985478D01*
X96477288Y-104091711D01*
X96583521Y-104170114D01*
X96583523Y-104170114D01*
X96583525Y-104170116D01*
X96708151Y-104213725D01*
X96720833Y-104214914D01*
X96737740Y-104216500D01*
X96737744Y-104216500D01*
X97218956Y-104216500D01*
X97266409Y-104225939D01*
X97306637Y-104252819D01*
X97373537Y-104319719D01*
X97404112Y-104370098D01*
X97407977Y-104428902D01*
X97396070Y-104455984D01*
X97398711Y-104457078D01*
X97331955Y-104618239D01*
X97311317Y-104774999D01*
X97331956Y-104931762D01*
X97392463Y-105077840D01*
X97488717Y-105203282D01*
X97614158Y-105299535D01*
X97614159Y-105299536D01*
X97760238Y-105360044D01*
X97917000Y-105380682D01*
X98073762Y-105360044D01*
X98219841Y-105299536D01*
X98345282Y-105203282D01*
X98441536Y-105077841D01*
X98502044Y-104931762D01*
X98522682Y-104775000D01*
X98502044Y-104618238D01*
X98441536Y-104472159D01*
X98345282Y-104346718D01*
X98296153Y-104309020D01*
X98262587Y-104269663D01*
X98229923Y-104209306D01*
X98227576Y-104204746D01*
X98202917Y-104154303D01*
X98161588Y-104116257D01*
X98157890Y-104112709D01*
X97739819Y-103694638D01*
X97712939Y-103654410D01*
X97703500Y-103606957D01*
X97703500Y-103125740D01*
X97700725Y-103096154D01*
X97700725Y-103096151D01*
X97657116Y-102971525D01*
X97646494Y-102957132D01*
X97588506Y-102878560D01*
X97564719Y-102815391D01*
X97577544Y-102749122D01*
X97623180Y-102699388D01*
X97726040Y-102635943D01*
X97847943Y-102514040D01*
X97938453Y-102367301D01*
X97992681Y-102203651D01*
X98003000Y-102102647D01*
X98003000Y-102003500D01*
X96137000Y-102003500D01*
X96075000Y-101986887D01*
X96029613Y-101941500D01*
X96021601Y-101911601D01*
X96013000Y-101903000D01*
X95149000Y-101903000D01*
X95087000Y-101886387D01*
X95041613Y-101841000D01*
X95025000Y-101779000D01*
X95025000Y-101577000D01*
X95041613Y-101515000D01*
X95087000Y-101469613D01*
X95149000Y-101453000D01*
X96288138Y-101453000D01*
X96335591Y-101462439D01*
X96375819Y-101489319D01*
X96390000Y-101503500D01*
X97943812Y-101503500D01*
X97991265Y-101512939D01*
X98031493Y-101539819D01*
X108858181Y-112366507D01*
X108885061Y-112406735D01*
X108894500Y-112454188D01*
X108894500Y-114657166D01*
X108885061Y-114704619D01*
X108858181Y-114744847D01*
X108623848Y-114979181D01*
X108583620Y-115006061D01*
X108536167Y-115015500D01*
X108388478Y-115015500D01*
X108338891Y-115005154D01*
X108297579Y-114975841D01*
X108271436Y-114932454D01*
X108250115Y-114871522D01*
X108171711Y-114765288D01*
X108065478Y-114686885D01*
X108051679Y-114682056D01*
X107940849Y-114643275D01*
X107940847Y-114643274D01*
X107940845Y-114643274D01*
X107911260Y-114640500D01*
X107911256Y-114640500D01*
X107305744Y-114640500D01*
X107305740Y-114640500D01*
X107276154Y-114643274D01*
X107151521Y-114686885D01*
X107045288Y-114765288D01*
X106966885Y-114871521D01*
X106923274Y-114996154D01*
X106920500Y-115025740D01*
X106920500Y-115606260D01*
X106923274Y-115635845D01*
X106923274Y-115635847D01*
X106923275Y-115635849D01*
X106945564Y-115699546D01*
X106966885Y-115760478D01*
X107045288Y-115866711D01*
X107151521Y-115945114D01*
X107151523Y-115945114D01*
X107151525Y-115945116D01*
X107276151Y-115988725D01*
X107288833Y-115989914D01*
X107305740Y-115991500D01*
X107305744Y-115991500D01*
X107911256Y-115991500D01*
X107911260Y-115991500D01*
X107926052Y-115990112D01*
X107940849Y-115988725D01*
X108065475Y-115945116D01*
X108171711Y-115866711D01*
X108250116Y-115760475D01*
X108271436Y-115699545D01*
X108297579Y-115656159D01*
X108338891Y-115626846D01*
X108388478Y-115616500D01*
X108642757Y-115616500D01*
X108659577Y-115619243D01*
X108669762Y-115618772D01*
X108669765Y-115618773D01*
X108716080Y-115616631D01*
X108721805Y-115616500D01*
X108740824Y-115616500D01*
X108755315Y-115614817D01*
X108764777Y-115614380D01*
X108829165Y-115629003D01*
X108876920Y-115674602D01*
X108894500Y-115738248D01*
X108894500Y-117065060D01*
X108894028Y-117075868D01*
X108890735Y-117113495D01*
X108900512Y-117149984D01*
X108902853Y-117160540D01*
X108909599Y-117198795D01*
X108919829Y-117223491D01*
X108920446Y-117224372D01*
X108942112Y-117255315D01*
X108947915Y-117264424D01*
X108966806Y-117297143D01*
X108995736Y-117321418D01*
X109003713Y-117328727D01*
X109112182Y-117437197D01*
X109139061Y-117477426D01*
X109148500Y-117524878D01*
X109148500Y-119690155D01*
X109133473Y-119749323D01*
X109092035Y-119794150D01*
X109034229Y-119813773D01*
X108974064Y-119803435D01*
X108926124Y-119765641D01*
X108886282Y-119713717D01*
X108760840Y-119617463D01*
X108614762Y-119556956D01*
X108458000Y-119536317D01*
X108301237Y-119556956D01*
X108155159Y-119617463D01*
X108029717Y-119713717D01*
X107933464Y-119839158D01*
X107874731Y-119980953D01*
X107847851Y-120021181D01*
X107807623Y-120048061D01*
X107760170Y-120057500D01*
X107663905Y-120057500D01*
X107610888Y-120045595D01*
X107568052Y-120012165D01*
X107543621Y-119963630D01*
X107542287Y-119909310D01*
X107542548Y-119908000D01*
X107526988Y-119829771D01*
X107511137Y-119791502D01*
X107484453Y-119745284D01*
X107484452Y-119745283D01*
X107484451Y-119745281D01*
X107446718Y-119707548D01*
X107400498Y-119680863D01*
X107372176Y-119669132D01*
X107372175Y-119669132D01*
X107362228Y-119665012D01*
X107284000Y-119649452D01*
X107283999Y-119649452D01*
X107275267Y-119651189D01*
X107251076Y-119653572D01*
X106830186Y-119653572D01*
X106774682Y-119640456D01*
X106730920Y-119603883D01*
X106691189Y-119550810D01*
X106638117Y-119511080D01*
X106601544Y-119467318D01*
X106588428Y-119411814D01*
X106588428Y-118990924D01*
X106590811Y-118966733D01*
X106592548Y-118958000D01*
X106592547Y-118957999D01*
X106576988Y-118879771D01*
X106561137Y-118841502D01*
X106534453Y-118795284D01*
X106534452Y-118795283D01*
X106534451Y-118795281D01*
X106496718Y-118757548D01*
X106450498Y-118730863D01*
X106450497Y-118730862D01*
X106422176Y-118719132D01*
X106422175Y-118719132D01*
X106412228Y-118715012D01*
X106334000Y-118699452D01*
X106333999Y-118699452D01*
X106325267Y-118701189D01*
X106301076Y-118703572D01*
X106266924Y-118703572D01*
X106242733Y-118701189D01*
X106234001Y-118699452D01*
X106234000Y-118699452D01*
X106213287Y-118703572D01*
X106155766Y-118715013D01*
X106133947Y-118724051D01*
X106074339Y-118732892D01*
X106056030Y-118726340D01*
X106055930Y-118726846D01*
X106031740Y-118722034D01*
X105983499Y-118712438D01*
X105958675Y-118707500D01*
X105958674Y-118707500D01*
X105908500Y-118707500D01*
X105846500Y-118690887D01*
X105801113Y-118645500D01*
X105784500Y-118583500D01*
X105784500Y-117237243D01*
X105787243Y-117220422D01*
X105786772Y-117210236D01*
X105786773Y-117210235D01*
X105784631Y-117163919D01*
X105784500Y-117158195D01*
X105784500Y-117139178D01*
X105782817Y-117124680D01*
X105781585Y-117098008D01*
X105778786Y-117091670D01*
X105770332Y-117064367D01*
X105769061Y-117057567D01*
X105755002Y-117034860D01*
X105746995Y-117019670D01*
X105736880Y-116996762D01*
X105736206Y-116995235D01*
X105731310Y-116990339D01*
X105713563Y-116967933D01*
X105709919Y-116962048D01*
X105688602Y-116945950D01*
X105675648Y-116934677D01*
X105287652Y-116546681D01*
X105255558Y-116491094D01*
X105255558Y-116426906D01*
X105287652Y-116371319D01*
X105631152Y-116027819D01*
X105671380Y-116000939D01*
X105718833Y-115991500D01*
X106086260Y-115991500D01*
X106101052Y-115990112D01*
X106115849Y-115988725D01*
X106240475Y-115945116D01*
X106346711Y-115866711D01*
X106425116Y-115760475D01*
X106468725Y-115635849D01*
X106470527Y-115616632D01*
X106471500Y-115606260D01*
X106471500Y-115025740D01*
X106468725Y-114996154D01*
X106468725Y-114996151D01*
X106425116Y-114871525D01*
X106425114Y-114871522D01*
X106425114Y-114871521D01*
X106346711Y-114765288D01*
X106240478Y-114686885D01*
X106226679Y-114682056D01*
X106115849Y-114643275D01*
X106115847Y-114643274D01*
X106115845Y-114643274D01*
X106086260Y-114640500D01*
X106086256Y-114640500D01*
X105480744Y-114640500D01*
X105480740Y-114640500D01*
X105451154Y-114643274D01*
X105326521Y-114686885D01*
X105220288Y-114765288D01*
X105141885Y-114871521D01*
X105098274Y-114996154D01*
X105095500Y-115025740D01*
X105095500Y-115606260D01*
X105099254Y-115646292D01*
X105092450Y-115699916D01*
X105063477Y-115745550D01*
X104559848Y-116249181D01*
X104519620Y-116276061D01*
X104472167Y-116285500D01*
X103955243Y-116285500D01*
X103938421Y-116282756D01*
X103891789Y-116284911D01*
X103838614Y-116275605D01*
X103825313Y-116270096D01*
X103788762Y-116254956D01*
X103756087Y-116250654D01*
X103632000Y-116234317D01*
X103475237Y-116254956D01*
X103329159Y-116315463D01*
X103203717Y-116411717D01*
X103107463Y-116537159D01*
X103046956Y-116683237D01*
X103026317Y-116840000D01*
X103046956Y-116996762D01*
X103107463Y-117142840D01*
X103203717Y-117268282D01*
X103308899Y-117348990D01*
X103329159Y-117364536D01*
X103475238Y-117425044D01*
X103632000Y-117445682D01*
X103788762Y-117425044D01*
X103934841Y-117364536D01*
X104060282Y-117268282D01*
X104156536Y-117142841D01*
X104217044Y-116996762D01*
X104217366Y-116994312D01*
X104238730Y-116939376D01*
X104283048Y-116900511D01*
X104340305Y-116886500D01*
X104578757Y-116886500D01*
X104595577Y-116889243D01*
X104605762Y-116888772D01*
X104605765Y-116888773D01*
X104652080Y-116886631D01*
X104657805Y-116886500D01*
X104675844Y-116886500D01*
X104726167Y-116886500D01*
X104773620Y-116895939D01*
X104813848Y-116922819D01*
X104937149Y-117046120D01*
X104968362Y-117098583D01*
X104970758Y-117159582D01*
X104943758Y-117214332D01*
X104893906Y-117249565D01*
X104833283Y-117256740D01*
X104784500Y-117250317D01*
X104627737Y-117270956D01*
X104481659Y-117331463D01*
X104356217Y-117427717D01*
X104259963Y-117553159D01*
X104199456Y-117699237D01*
X104178817Y-117856000D01*
X104199456Y-118012762D01*
X104259963Y-118158840D01*
X104356217Y-118284282D01*
X104481658Y-118380535D01*
X104481659Y-118380536D01*
X104627738Y-118441044D01*
X104675685Y-118447356D01*
X104730623Y-118468720D01*
X104769489Y-118513038D01*
X104783500Y-118570295D01*
X104783500Y-118578095D01*
X104771595Y-118631112D01*
X104738165Y-118673948D01*
X104689630Y-118698379D01*
X104635311Y-118699712D01*
X104634000Y-118699452D01*
X104555772Y-118715012D01*
X104555770Y-118715012D01*
X104555769Y-118715013D01*
X104517501Y-118730863D01*
X104471281Y-118757548D01*
X104433548Y-118795281D01*
X104406863Y-118841501D01*
X104391012Y-118879770D01*
X104375452Y-118958000D01*
X104377189Y-118966733D01*
X104379572Y-118990924D01*
X104379572Y-119411814D01*
X104366456Y-119467318D01*
X104329883Y-119511080D01*
X104276810Y-119550810D01*
X104237080Y-119603883D01*
X104193318Y-119640456D01*
X104137814Y-119653572D01*
X103716924Y-119653572D01*
X103692733Y-119651189D01*
X103684001Y-119649452D01*
X103684000Y-119649452D01*
X103605772Y-119665012D01*
X103605770Y-119665012D01*
X103605769Y-119665013D01*
X103567501Y-119680863D01*
X103521281Y-119707548D01*
X103483548Y-119745281D01*
X103456863Y-119791501D01*
X103441012Y-119829770D01*
X103425452Y-119908000D01*
X103427189Y-119916733D01*
X103429572Y-119940924D01*
X103429572Y-119975076D01*
X103427188Y-119999267D01*
X103425452Y-120008000D01*
X103441012Y-120086228D01*
X103441013Y-120086230D01*
X103442750Y-120094963D01*
X103443112Y-120098646D01*
X103450188Y-120139009D01*
X103436087Y-120191036D01*
X103401243Y-120232163D01*
X103291435Y-120315433D01*
X103200078Y-120435906D01*
X103144613Y-120576555D01*
X103134000Y-120664935D01*
X103134000Y-120736984D01*
X103118330Y-120797322D01*
X103075279Y-120842410D01*
X103044040Y-120852084D01*
X103019255Y-120863027D01*
X102952988Y-120872530D01*
X102795664Y-120851817D01*
X102638901Y-120872456D01*
X102492823Y-120932963D01*
X102367381Y-121029217D01*
X102271127Y-121154659D01*
X102210620Y-121300737D01*
X102189981Y-121457500D01*
X102210620Y-121614262D01*
X102271127Y-121760340D01*
X102367381Y-121885782D01*
X102492823Y-121982036D01*
X102638902Y-122042544D01*
X102795664Y-122063182D01*
X102952426Y-122042544D01*
X103098505Y-121982036D01*
X103223946Y-121885782D01*
X103300540Y-121785961D01*
X103356505Y-121744926D01*
X103425754Y-121740387D01*
X103486597Y-121773767D01*
X103521281Y-121808451D01*
X103521283Y-121808452D01*
X103521284Y-121808453D01*
X103567502Y-121835137D01*
X103605771Y-121850988D01*
X103684000Y-121866548D01*
X103692732Y-121864811D01*
X103716924Y-121862428D01*
X104137814Y-121862428D01*
X104193318Y-121875544D01*
X104237080Y-121912117D01*
X104276810Y-121965189D01*
X104329883Y-122004920D01*
X104366456Y-122048682D01*
X104379572Y-122104186D01*
X104379572Y-122525076D01*
X104377188Y-122549267D01*
X104375452Y-122558000D01*
X104391012Y-122636228D01*
X104391013Y-122636230D01*
X104406863Y-122674498D01*
X104433548Y-122720718D01*
X104471281Y-122758451D01*
X104471283Y-122758452D01*
X104471284Y-122758453D01*
X104517502Y-122785137D01*
X104555771Y-122800988D01*
X104634000Y-122816548D01*
X104642732Y-122814811D01*
X104666924Y-122812428D01*
X104701076Y-122812428D01*
X104725267Y-122814811D01*
X104734000Y-122816548D01*
X104812229Y-122800988D01*
X104834050Y-122791949D01*
X104893660Y-122783107D01*
X104911969Y-122789659D01*
X104912070Y-122789154D01*
X104936259Y-122793965D01*
X104936260Y-122793966D01*
X104963231Y-122799331D01*
X105009325Y-122808500D01*
X105009326Y-122808500D01*
X105158674Y-122808500D01*
X105158675Y-122808500D01*
X105180149Y-122804228D01*
X105231740Y-122793966D01*
X105231741Y-122793965D01*
X105251353Y-122790064D01*
X105259805Y-122786563D01*
X105308195Y-122786563D01*
X105316646Y-122790064D01*
X105336259Y-122793965D01*
X105336260Y-122793966D01*
X105381373Y-122802939D01*
X105409325Y-122808500D01*
X105409326Y-122808500D01*
X105558674Y-122808500D01*
X105558675Y-122808500D01*
X105580149Y-122804228D01*
X105631740Y-122793966D01*
X105631741Y-122793965D01*
X105651353Y-122790064D01*
X105659805Y-122786563D01*
X105708195Y-122786563D01*
X105716646Y-122790064D01*
X105736259Y-122793965D01*
X105736260Y-122793966D01*
X105781373Y-122802939D01*
X105809325Y-122808500D01*
X105809326Y-122808500D01*
X105958674Y-122808500D01*
X105958675Y-122808500D01*
X106055931Y-122789154D01*
X106056031Y-122789659D01*
X106074335Y-122783108D01*
X106133949Y-122791949D01*
X106155771Y-122800988D01*
X106234000Y-122816548D01*
X106242732Y-122814811D01*
X106266924Y-122812428D01*
X106301076Y-122812428D01*
X106325267Y-122814811D01*
X106334000Y-122816548D01*
X106412229Y-122800988D01*
X106450498Y-122785137D01*
X106496716Y-122758453D01*
X106534453Y-122720716D01*
X106561137Y-122674498D01*
X106572868Y-122646176D01*
X106572868Y-122646175D01*
X106576988Y-122636228D01*
X106577568Y-122633308D01*
X106600810Y-122582013D01*
X106644342Y-122546288D01*
X106699186Y-122533500D01*
X108658373Y-122533500D01*
X108669180Y-122533971D01*
X108706807Y-122537264D01*
X108743324Y-122527478D01*
X108753830Y-122525149D01*
X108791045Y-122518588D01*
X108791047Y-122518586D01*
X108792112Y-122518399D01*
X108816799Y-122508173D01*
X108817682Y-122507554D01*
X108817684Y-122507554D01*
X108848625Y-122485887D01*
X108857722Y-122480091D01*
X108890455Y-122461194D01*
X108914748Y-122432241D01*
X108922036Y-122424288D01*
X109690290Y-121656034D01*
X109698258Y-121648734D01*
X109727192Y-121624457D01*
X109727192Y-121624456D01*
X109727194Y-121624455D01*
X109746091Y-121591722D01*
X109751887Y-121582625D01*
X109773554Y-121551684D01*
X109773554Y-121551682D01*
X109774173Y-121550799D01*
X109784399Y-121526112D01*
X109784586Y-121525047D01*
X109784588Y-121525045D01*
X109791149Y-121487830D01*
X109793478Y-121477324D01*
X109803264Y-121440807D01*
X109799971Y-121403180D01*
X109799500Y-121392373D01*
X109799500Y-117358307D01*
X109799972Y-117347500D01*
X109803263Y-117309879D01*
X109793486Y-117273392D01*
X109791144Y-117262828D01*
X109789817Y-117255302D01*
X109784588Y-117225643D01*
X109784587Y-117225642D01*
X109784400Y-117224579D01*
X109774173Y-117199889D01*
X109773554Y-117199005D01*
X109773554Y-117199004D01*
X109751878Y-117168048D01*
X109746077Y-117158940D01*
X109740906Y-117149984D01*
X109727194Y-117126233D01*
X109698259Y-117101954D01*
X109690283Y-117094645D01*
X109581819Y-116986181D01*
X109554939Y-116945953D01*
X109545500Y-116898500D01*
X109545500Y-112287627D01*
X109545972Y-112276819D01*
X109549264Y-112239192D01*
X109539487Y-112202706D01*
X109537145Y-112192143D01*
X109530400Y-112153891D01*
X109520171Y-112129198D01*
X109519554Y-112128317D01*
X109519554Y-112128316D01*
X109497892Y-112097379D01*
X109492080Y-112088256D01*
X109473194Y-112055544D01*
X109444255Y-112031262D01*
X109436280Y-112023954D01*
X98034043Y-100621717D01*
X98026734Y-100613741D01*
X98002454Y-100584805D01*
X97969736Y-100565915D01*
X97960627Y-100560112D01*
X97929684Y-100538446D01*
X97928803Y-100537829D01*
X97904107Y-100527599D01*
X97865852Y-100520853D01*
X97855296Y-100518512D01*
X97818807Y-100508735D01*
X97781180Y-100512028D01*
X97770372Y-100512500D01*
X96090266Y-100512500D01*
X96031813Y-100497858D01*
X96012863Y-100480683D01*
X95928230Y-100424132D01*
X95869749Y-100412500D01*
X95869748Y-100412500D01*
X94630252Y-100412500D01*
X94630251Y-100412500D01*
X94571769Y-100424132D01*
X94505448Y-100468447D01*
X94478529Y-100508735D01*
X94461192Y-100534682D01*
X94461102Y-100534816D01*
X94414295Y-100576410D01*
X94353132Y-100589829D01*
X94293210Y-100571652D01*
X94249810Y-100526514D01*
X94234000Y-100465925D01*
X94234000Y-100200000D01*
X94250613Y-100138000D01*
X94296000Y-100092613D01*
X94358000Y-100076000D01*
X99060000Y-100076000D01*
X101092000Y-98044000D01*
X101092000Y-95933957D01*
X101105924Y-95876866D01*
X101144570Y-95832597D01*
X101199258Y-95811092D01*
X101257706Y-95817181D01*
G37*
%TD.AperFunction*%
%TA.AperFunction,Conductor*%
G36*
X94409512Y-127883643D02*
G01*
X94457268Y-127922127D01*
X94458812Y-127924189D01*
X94565811Y-128004289D01*
X94602384Y-128048052D01*
X94615500Y-128103556D01*
X94615500Y-128426749D01*
X94627133Y-128485231D01*
X94659124Y-128533109D01*
X94677639Y-128577809D01*
X94677639Y-128626191D01*
X94659124Y-128670891D01*
X94627133Y-128718768D01*
X94615500Y-128777251D01*
X94615500Y-129266749D01*
X94627132Y-129325230D01*
X94671447Y-129391552D01*
X94737769Y-129435867D01*
X94796251Y-129447500D01*
X94796252Y-129447500D01*
X96035748Y-129447500D01*
X96035749Y-129447500D01*
X96064989Y-129441683D01*
X96094231Y-129435867D01*
X96160552Y-129391552D01*
X96160552Y-129391550D01*
X96178863Y-129379316D01*
X96197813Y-129362142D01*
X96256266Y-129347500D01*
X96516446Y-129347500D01*
X96566032Y-129357846D01*
X96607344Y-129387158D01*
X96633487Y-129430545D01*
X96652883Y-129485975D01*
X96731288Y-129592211D01*
X96837521Y-129670614D01*
X96837523Y-129670614D01*
X96837525Y-129670616D01*
X96962151Y-129714225D01*
X96974833Y-129715414D01*
X96991740Y-129717000D01*
X96991744Y-129717000D01*
X97508312Y-129717000D01*
X97555765Y-129726439D01*
X97595993Y-129753319D01*
X97964620Y-130121946D01*
X97994972Y-130171623D01*
X97999307Y-130229678D01*
X97976671Y-130283312D01*
X97932052Y-130320706D01*
X97875286Y-130333616D01*
X95504000Y-130302000D01*
X95504000Y-152022000D01*
X95487387Y-152084000D01*
X95442000Y-152129387D01*
X95380000Y-152146000D01*
X89848754Y-152146000D01*
X89790142Y-152131273D01*
X89745452Y-152090590D01*
X89725299Y-152033615D01*
X89734471Y-151973881D01*
X91694000Y-147320000D01*
X89916000Y-136652000D01*
X89693748Y-136524999D01*
X88138000Y-135635999D01*
X88138000Y-152022000D01*
X88121387Y-152084000D01*
X88076000Y-152129387D01*
X88014000Y-152146000D01*
X82727832Y-152146000D01*
X82670467Y-152131933D01*
X82626118Y-152092924D01*
X82604846Y-152037823D01*
X82611477Y-151979133D01*
X82613412Y-151973881D01*
X84328000Y-147320000D01*
X83086164Y-140365718D01*
X83089040Y-140309730D01*
X83116282Y-140260730D01*
X83162320Y-140228735D01*
X83217738Y-140220287D01*
X86118286Y-140443406D01*
X86359999Y-140462000D01*
X86360000Y-140462000D01*
X86360000Y-134744000D01*
X86376613Y-134682000D01*
X86422000Y-134636613D01*
X86484000Y-134620000D01*
X92202000Y-134620000D01*
X94234000Y-132588000D01*
X94234000Y-127996437D01*
X94249168Y-127937010D01*
X94290961Y-127892121D01*
X94349155Y-127872753D01*
X94409512Y-127883643D01*
G37*
%TD.AperFunction*%
%TD*%
M02*
