%TF.GenerationSoftware,KiCad,Pcbnew,7.0.1*%
%TF.CreationDate,2024-01-19T17:32:14-06:00*%
%TF.ProjectId,Techno Buffalo,54656368-6e6f-4204-9275-6666616c6f2e,rev?*%
%TF.SameCoordinates,Original*%
%TF.FileFunction,Legend,Top*%
%TF.FilePolarity,Positive*%
%FSLAX46Y46*%
G04 Gerber Fmt 4.6, Leading zero omitted, Abs format (unit mm)*
G04 Created by KiCad (PCBNEW 7.0.1) date 2024-01-19 17:32:14*
%MOMM*%
%LPD*%
G01*
G04 APERTURE LIST*
%ADD10C,0.200000*%
%ADD11C,0.120000*%
G04 APERTURE END LIST*
D10*
X112859600Y-113239300D02*
X112859600Y-112359300D01*
X101142900Y-97936900D02*
X99014100Y-100058000D01*
X128984000Y-147357100D02*
X127153400Y-152284500D01*
X107930100Y-107367600D02*
X107930100Y-109160500D01*
X112859600Y-112359300D02*
X113706800Y-111579800D01*
X135280400Y-105549000D02*
X130124000Y-105549000D01*
X94175400Y-111769800D02*
X93916300Y-111769800D01*
X110632300Y-109160500D02*
X110632300Y-107367600D01*
X60147700Y-103211400D02*
X60147700Y-102621900D01*
X51572000Y-124141800D02*
X52280200Y-124841600D01*
X56964300Y-114282000D02*
X55170700Y-115758500D01*
X100416500Y-97621200D02*
X100416500Y-92500400D01*
X85676400Y-134108800D02*
X91705100Y-134108800D01*
X54318900Y-124282200D02*
X53485000Y-124282200D01*
X107314100Y-107978100D02*
X107314100Y-107112700D01*
X52897000Y-124787800D02*
X52897000Y-125459000D01*
X108406400Y-109636800D02*
X110199300Y-109636800D01*
X61806400Y-114725500D02*
X60999000Y-115561500D01*
X84230600Y-147266300D02*
X82400100Y-152284500D01*
X99014100Y-100058000D02*
X94175400Y-100058000D01*
X54507200Y-115448400D02*
X56727500Y-113618500D01*
X111247600Y-109417500D02*
X110455600Y-110253500D01*
X58951300Y-114945000D02*
X60744100Y-114945000D01*
X110455600Y-106319300D02*
X111247600Y-107112700D01*
X60716200Y-100247200D02*
X60716200Y-103587100D01*
X91705100Y-134108800D02*
X93449800Y-132354300D01*
X112859600Y-113856000D02*
X101437600Y-113856000D01*
X114706200Y-130576900D02*
X115529700Y-134133900D01*
X128638300Y-128538900D02*
X134407300Y-114230300D01*
X58951300Y-112243500D02*
X58488900Y-112676600D01*
X113706800Y-111579800D02*
X116011500Y-111579800D01*
X93743100Y-90583200D02*
X79607100Y-90583200D01*
X110199300Y-106935300D02*
X108406400Y-106935300D01*
X94175400Y-132667900D02*
X92101100Y-134754100D01*
X139216600Y-123693900D02*
X138361000Y-122149000D01*
X116793800Y-114664000D02*
X116011500Y-115514000D01*
X57872200Y-112420700D02*
X58695700Y-111627300D01*
X64180400Y-131097900D02*
X68252900Y-127030300D01*
X134941500Y-123698100D02*
X135756600Y-128533300D01*
X98810900Y-115609000D02*
X101181300Y-113239300D01*
X100416500Y-92500400D02*
X93743100Y-90583200D01*
X115529700Y-134133900D02*
X118917000Y-136657300D01*
X130124000Y-105549000D02*
X128996700Y-103265100D01*
X59227100Y-102621900D02*
X51568300Y-110377100D01*
X94175400Y-112386500D02*
X94175400Y-115609000D01*
X65409600Y-112290800D02*
X65409600Y-111675500D01*
X115313300Y-100836700D02*
X101142900Y-95766900D01*
X54507200Y-121435200D02*
X54507200Y-115448400D01*
X113475600Y-114407700D02*
X113962400Y-114898000D01*
X94175400Y-115609000D02*
X93996600Y-115609000D01*
X86402000Y-140489500D02*
X83065700Y-140489500D01*
X127439800Y-136657300D02*
X128984000Y-147357100D01*
X85676400Y-139843500D02*
X85676400Y-134108800D01*
X93996600Y-115609000D02*
X93996600Y-116225700D01*
X110199300Y-109636800D02*
X110632300Y-109160500D01*
X60999000Y-111627300D02*
X61806400Y-112420700D01*
X107314100Y-108594100D02*
X100295700Y-108594100D01*
X69741200Y-109352600D02*
X65409600Y-109352600D01*
X113475600Y-112614900D02*
X113475600Y-114407700D01*
X100039400Y-107978100D02*
X107314100Y-107978100D01*
X52897000Y-125459000D02*
X53723900Y-126320900D01*
X135756600Y-128533300D02*
X138361000Y-128533300D01*
X107930100Y-109160500D02*
X108406400Y-109636800D01*
X86402000Y-134754100D02*
X86402000Y-140489500D01*
X116011500Y-115514000D02*
X113706800Y-115514000D01*
X58488900Y-112676600D02*
X58488900Y-114469400D01*
X124730600Y-152284500D02*
X124730600Y-134920300D01*
X65409600Y-109352600D02*
X65409600Y-108736500D01*
X93449800Y-132354300D02*
X93449800Y-99412600D01*
X88209500Y-135729100D02*
X89966700Y-136764900D01*
X138361000Y-122149000D02*
X138394000Y-122149000D01*
X93449800Y-99412600D02*
X98619500Y-99412600D01*
X56727500Y-113618500D02*
X57872200Y-113618500D01*
X107314100Y-107112700D02*
X108150800Y-106319300D01*
X101181300Y-113239300D02*
X112859600Y-113239300D01*
X112859600Y-114664000D02*
X112859600Y-113856000D01*
X135839700Y-109555100D02*
X135839700Y-122157400D01*
X113962400Y-114898000D02*
X115755200Y-114898000D01*
X94175400Y-116225700D02*
X94175400Y-115609000D01*
X51568300Y-118478100D02*
X54507200Y-121435200D01*
X138394000Y-108494200D02*
X135280400Y-105549000D01*
X94175400Y-116225700D02*
X94175400Y-132667900D01*
X108406400Y-106935300D02*
X107930100Y-107367600D01*
X108150800Y-106319300D02*
X110455600Y-106319300D01*
X93916300Y-111769800D02*
X93916300Y-112386500D01*
X107314100Y-109417500D02*
X107314100Y-108594100D01*
X57872200Y-113618500D02*
X57872200Y-112420700D01*
X60744100Y-114945000D02*
X61190400Y-114469400D01*
X134407300Y-114230300D02*
X131320900Y-107975300D01*
X127153400Y-152284500D02*
X133030700Y-152284500D01*
X124730600Y-134920300D02*
X127439800Y-136657300D01*
X65409600Y-111675500D02*
X68528000Y-111675500D01*
X53723900Y-126320900D02*
X58494100Y-126320900D01*
X101437600Y-113856000D02*
X99068600Y-116225700D01*
X133030700Y-134401400D02*
X128638300Y-128538900D01*
X93916300Y-112386500D02*
X94175400Y-112386500D01*
X99068600Y-116225700D02*
X94175400Y-116225700D01*
X96260200Y-111769800D02*
X100039400Y-107978100D01*
X55170700Y-115758500D02*
X55170700Y-122093900D01*
X138361000Y-128533300D02*
X139216600Y-123693900D01*
X68780200Y-112290800D02*
X65409600Y-112290800D01*
X116793800Y-112359300D02*
X116793800Y-114664000D01*
X134219400Y-107975300D02*
X135839700Y-109555100D01*
X58494100Y-126320900D02*
X51562000Y-119380000D01*
X93996600Y-116225700D02*
X94175400Y-116225700D01*
X101142900Y-95766900D02*
X101142900Y-97936900D01*
X91734500Y-147448600D02*
X89630100Y-152284500D01*
X60999000Y-115561500D02*
X58695700Y-115561500D01*
X116177800Y-114407700D02*
X116177800Y-112614900D01*
X82400100Y-152284500D02*
X88209500Y-152284500D01*
X64555400Y-102607200D02*
X64555400Y-107407400D01*
X113706800Y-115514000D02*
X112859600Y-114664000D01*
X64555400Y-107407400D02*
X62637500Y-109352600D01*
X94175400Y-112386500D02*
X94175400Y-111769800D01*
X59389200Y-104986000D02*
X59389200Y-108736500D01*
X68528000Y-111675500D02*
X70052000Y-110196300D01*
X110455600Y-110253500D02*
X108150800Y-110253500D01*
X51568300Y-110377100D02*
X51568300Y-118478100D01*
X94175400Y-111769800D02*
X96260200Y-111769800D01*
X63939400Y-97043600D02*
X60716200Y-100247200D01*
X61806400Y-112420700D02*
X61806400Y-114725500D01*
X70173500Y-108736500D02*
X70767200Y-110358300D01*
X113962400Y-112196500D02*
X113475600Y-112614900D01*
X54318900Y-123666200D02*
X54318900Y-124282200D01*
X65409600Y-108736500D02*
X70173500Y-108736500D01*
X128996700Y-103265100D02*
X115313300Y-100836700D01*
X51562000Y-119380000D02*
X51572000Y-124141800D01*
X108150800Y-110253500D02*
X107314100Y-109417500D01*
X100295700Y-108594100D02*
X96515800Y-112386500D01*
X89966700Y-136764900D02*
X91734500Y-147448600D01*
X133030700Y-152284500D02*
X133030700Y-134401400D01*
X89630100Y-152284500D02*
X95616300Y-152284500D01*
X116177800Y-112614900D02*
X115755200Y-112196500D01*
X79607100Y-90583200D02*
X64555400Y-102607200D01*
X110632300Y-107367600D02*
X110199300Y-106935300D01*
X94175400Y-100058000D02*
X94175400Y-111769800D01*
X62637500Y-109352600D02*
X58678200Y-109352600D01*
X62385400Y-108736500D02*
X63939400Y-107153200D01*
X52280200Y-124497300D02*
X53262900Y-123666200D01*
X88209500Y-152284500D02*
X88209500Y-135729100D01*
X115755200Y-114898000D02*
X116177800Y-114407700D01*
X111247600Y-107112700D02*
X111247600Y-109417500D01*
X120747600Y-147266300D02*
X118641800Y-152284500D01*
X60716200Y-103587100D02*
X59389200Y-104986000D01*
X96515800Y-112386500D02*
X94175400Y-112386500D01*
X53262900Y-123666200D02*
X54318900Y-123666200D01*
X61190400Y-114469400D02*
X61190400Y-112676600D01*
X115755200Y-112196500D02*
X113962400Y-112196500D01*
X58695700Y-115561500D02*
X57872200Y-114725500D01*
X57872200Y-114725500D02*
X57872200Y-114282000D01*
X94175400Y-115609000D02*
X98810900Y-115609000D01*
X58678200Y-109352600D02*
X58678200Y-104715700D01*
X57872200Y-114282000D02*
X56964300Y-114282000D01*
X58678200Y-104715700D02*
X60147700Y-103211400D01*
X63939400Y-107153200D02*
X63939400Y-97043600D01*
X59389200Y-108736500D02*
X62385400Y-108736500D01*
X60147700Y-102621900D02*
X59227100Y-102621900D01*
X98619500Y-99412600D02*
X100416500Y-97621200D01*
X70767200Y-110358300D02*
X68780200Y-112290800D01*
X60744100Y-112243500D02*
X58951300Y-112243500D01*
X135839700Y-122157400D02*
X134941500Y-123698100D01*
X83065700Y-140489500D02*
X84230600Y-147266300D01*
X116011500Y-111579800D02*
X116793800Y-112359300D01*
X118917000Y-136657300D02*
X120747600Y-147266300D01*
X58695700Y-111627300D02*
X60999000Y-111627300D01*
X92101100Y-134754100D02*
X86402000Y-134754100D01*
X55170700Y-122093900D02*
X64180400Y-131097900D01*
X58488900Y-114469400D02*
X58951300Y-114945000D01*
X53485000Y-124282200D02*
X52897000Y-124787800D01*
X95616300Y-130576900D02*
X114706200Y-130576900D01*
X95616300Y-152284500D02*
X95616300Y-130576900D01*
X81150600Y-139843500D02*
X85676400Y-139843500D01*
X131320900Y-107975300D02*
X134219400Y-107975300D01*
X68252900Y-127030300D02*
X81150600Y-139843500D01*
X138394000Y-122149000D02*
X138394000Y-108494200D01*
X118641800Y-152284500D02*
X124730600Y-152284500D01*
X52280200Y-124841600D02*
X52280200Y-124497300D01*
X70052000Y-110196300D02*
X69741200Y-109352600D01*
X61190400Y-112676600D02*
X60744100Y-112243500D01*
D11*
%TO.C,R1*%
X106441276Y-114793500D02*
X106950724Y-114793500D01*
X106441276Y-115838500D02*
X106950724Y-115838500D01*
%TO.C,C2*%
X96772000Y-109366267D02*
X96772000Y-109073733D01*
X97792000Y-109366267D02*
X97792000Y-109073733D01*
D10*
%TO.C,D36*%
X94334000Y-110702000D02*
X94334000Y-106702000D01*
X96294000Y-110702000D02*
X96294000Y-109772000D01*
X96304000Y-110702000D02*
X94334000Y-110702000D01*
X95834000Y-106702000D02*
X94334000Y-106702000D01*
D11*
%TO.C,C3*%
X96772000Y-119118767D02*
X96772000Y-118826233D01*
X97792000Y-119118767D02*
X97792000Y-118826233D01*
%TO.C,C4*%
X96772000Y-128262767D02*
X96772000Y-127970233D01*
X97792000Y-128262767D02*
X97792000Y-127970233D01*
D10*
%TO.C,D37*%
X94246000Y-120364000D02*
X94246000Y-116364000D01*
X96206000Y-120364000D02*
X96206000Y-119434000D01*
X96216000Y-120364000D02*
X94246000Y-120364000D01*
X95746000Y-116364000D02*
X94246000Y-116364000D01*
%TO.C,D38*%
X94246000Y-129762000D02*
X94246000Y-125762000D01*
X96206000Y-129762000D02*
X96206000Y-128832000D01*
X96216000Y-129762000D02*
X94246000Y-129762000D01*
X95746000Y-125762000D02*
X94246000Y-125762000D01*
D11*
%TO.C,C1*%
X96518000Y-102762267D02*
X96518000Y-102469733D01*
X97538000Y-102762267D02*
X97538000Y-102469733D01*
D10*
%TO.C,D35*%
X94080000Y-104098000D02*
X94080000Y-100098000D01*
X96040000Y-104098000D02*
X96040000Y-103168000D01*
X96050000Y-104098000D02*
X94080000Y-104098000D01*
X95580000Y-100098000D02*
X94080000Y-100098000D01*
D11*
%TO.C,U1*%
X103874000Y-122368000D02*
X103874000Y-121918000D01*
X104324000Y-119148000D02*
X103874000Y-119148000D01*
X104324000Y-122368000D02*
X103874000Y-122368000D01*
X106644000Y-119148000D02*
X107094000Y-119148000D01*
X106644000Y-122368000D02*
X107094000Y-122368000D01*
X107094000Y-119148000D02*
X107094000Y-119598000D01*
X107094000Y-122368000D02*
X107094000Y-121918000D01*
%TO.C,J3*%
X98238000Y-142434000D02*
X99568000Y-142434000D01*
X98238000Y-143764000D02*
X98238000Y-142434000D01*
X98238000Y-145034000D02*
X98238000Y-150174000D01*
X98238000Y-145034000D02*
X100838000Y-145034000D01*
X98238000Y-150174000D02*
X103438000Y-150174000D01*
X100838000Y-142434000D02*
X103438000Y-142434000D01*
X100838000Y-145034000D02*
X100838000Y-142434000D01*
X103438000Y-142434000D02*
X103438000Y-150174000D01*
%TD*%
M02*
