%TF.GenerationSoftware,KiCad,Pcbnew,7.0.1*%
%TF.CreationDate,2024-01-19T17:32:14-06:00*%
%TF.ProjectId,Techno Buffalo,54656368-6e6f-4204-9275-6666616c6f2e,rev?*%
%TF.SameCoordinates,Original*%
%TF.FileFunction,Soldermask,Top*%
%TF.FilePolarity,Negative*%
%FSLAX46Y46*%
G04 Gerber Fmt 4.6, Leading zero omitted, Abs format (unit mm)*
G04 Created by KiCad (PCBNEW 7.0.1) date 2024-01-19 17:32:14*
%MOMM*%
%LPD*%
G01*
G04 APERTURE LIST*
G04 Aperture macros list*
%AMRoundRect*
0 Rectangle with rounded corners*
0 $1 Rounding radius*
0 $2 $3 $4 $5 $6 $7 $8 $9 X,Y pos of 4 corners*
0 Add a 4 corners polygon primitive as box body*
4,1,4,$2,$3,$4,$5,$6,$7,$8,$9,$2,$3,0*
0 Add four circle primitives for the rounded corners*
1,1,$1+$1,$2,$3*
1,1,$1+$1,$4,$5*
1,1,$1+$1,$6,$7*
1,1,$1+$1,$8,$9*
0 Add four rect primitives between the rounded corners*
20,1,$1+$1,$2,$3,$4,$5,0*
20,1,$1+$1,$4,$5,$6,$7,0*
20,1,$1+$1,$6,$7,$8,$9,0*
20,1,$1+$1,$8,$9,$2,$3,0*%
%AMFreePoly0*
4,1,14,0.334644,0.085355,0.385355,0.034644,0.400000,-0.000711,0.400000,-0.050000,0.385355,-0.085355,0.350000,-0.100000,-0.350000,-0.100000,-0.385355,-0.085355,-0.400000,-0.050000,-0.400000,0.050000,-0.385355,0.085355,-0.350000,0.100000,0.299289,0.100000,0.334644,0.085355,0.334644,0.085355,$1*%
%AMFreePoly1*
4,1,14,0.385355,0.085355,0.400000,0.050000,0.400000,0.000711,0.385355,-0.034644,0.334644,-0.085355,0.299289,-0.100000,-0.350000,-0.100000,-0.385355,-0.085355,-0.400000,-0.050000,-0.400000,0.050000,-0.385355,0.085355,-0.350000,0.100000,0.350000,0.100000,0.385355,0.085355,0.385355,0.085355,$1*%
%AMFreePoly2*
4,1,14,0.085355,0.385355,0.100000,0.350000,0.100000,-0.350000,0.085355,-0.385355,0.050000,-0.400000,-0.050000,-0.400000,-0.085355,-0.385355,-0.100000,-0.350000,-0.100000,0.299289,-0.085355,0.334644,-0.034644,0.385355,0.000711,0.400000,0.050000,0.400000,0.085355,0.385355,0.085355,0.385355,$1*%
%AMFreePoly3*
4,1,14,0.034644,0.385355,0.085355,0.334644,0.100000,0.299289,0.100000,-0.350000,0.085355,-0.385355,0.050000,-0.400000,-0.050000,-0.400000,-0.085355,-0.385355,-0.100000,-0.350000,-0.100000,0.350000,-0.085355,0.385355,-0.050000,0.400000,-0.000711,0.400000,0.034644,0.385355,0.034644,0.385355,$1*%
%AMFreePoly4*
4,1,14,0.385355,0.085355,0.400000,0.050000,0.400000,-0.050000,0.385355,-0.085355,0.350000,-0.100000,-0.299289,-0.100000,-0.334644,-0.085354,-0.385355,-0.034644,-0.400000,0.000711,-0.400000,0.050000,-0.385355,0.085355,-0.350000,0.100000,0.350000,0.100000,0.385355,0.085355,0.385355,0.085355,$1*%
%AMFreePoly5*
4,1,14,0.385355,0.085355,0.400000,0.050000,0.400000,-0.050000,0.385355,-0.085355,0.350000,-0.100000,-0.350000,-0.100000,-0.385355,-0.085355,-0.400000,-0.050000,-0.400000,-0.000711,-0.385355,0.034644,-0.334643,0.085355,-0.299289,0.100000,0.350000,0.100000,0.385355,0.085355,0.385355,0.085355,$1*%
%AMFreePoly6*
4,1,14,0.085355,0.385355,0.100000,0.350000,0.100000,-0.299289,0.085355,-0.334644,0.034644,-0.385355,-0.000711,-0.400000,-0.050000,-0.400000,-0.085355,-0.385355,-0.100000,-0.350000,-0.100000,0.350000,-0.085355,0.385355,-0.050000,0.400000,0.050000,0.400000,0.085355,0.385355,0.085355,0.385355,$1*%
%AMFreePoly7*
4,1,14,0.085355,0.385355,0.100000,0.350000,0.100000,-0.350000,0.085355,-0.385355,0.050000,-0.400000,0.000711,-0.400000,-0.034644,-0.385355,-0.085355,-0.334644,-0.100000,-0.299289,-0.100000,0.350000,-0.085355,0.385355,-0.050000,0.400000,0.050000,0.400000,0.085355,0.385355,0.085355,0.385355,$1*%
G04 Aperture macros list end*
%ADD10RoundRect,0.237500X-0.250000X-0.237500X0.250000X-0.237500X0.250000X0.237500X-0.250000X0.237500X0*%
%ADD11RoundRect,0.237500X0.237500X-0.300000X0.237500X0.300000X-0.237500X0.300000X-0.237500X-0.300000X0*%
%ADD12R,1.200000X0.450000*%
%ADD13FreePoly0,0.000000*%
%ADD14RoundRect,0.050000X-0.350000X-0.050000X0.350000X-0.050000X0.350000X0.050000X-0.350000X0.050000X0*%
%ADD15FreePoly1,0.000000*%
%ADD16FreePoly2,0.000000*%
%ADD17RoundRect,0.050000X-0.050000X-0.350000X0.050000X-0.350000X0.050000X0.350000X-0.050000X0.350000X0*%
%ADD18FreePoly3,0.000000*%
%ADD19FreePoly4,0.000000*%
%ADD20FreePoly5,0.000000*%
%ADD21FreePoly6,0.000000*%
%ADD22FreePoly7,0.000000*%
%ADD23R,1.700000X1.700000*%
%ADD24O,1.700000X1.700000*%
G04 APERTURE END LIST*
D10*
%TO.C,R1*%
X105783500Y-115316000D03*
X107608500Y-115316000D03*
%TD*%
D11*
%TO.C,C2*%
X97282000Y-110082500D03*
X97282000Y-108357500D03*
%TD*%
D12*
%TO.C,D36*%
X95504000Y-109962000D03*
X95504000Y-109122000D03*
X95504000Y-108282000D03*
X95504000Y-107442000D03*
%TD*%
D11*
%TO.C,C3*%
X97282000Y-119835000D03*
X97282000Y-118110000D03*
%TD*%
%TO.C,C4*%
X97282000Y-128979000D03*
X97282000Y-127254000D03*
%TD*%
D12*
%TO.C,D37*%
X95416000Y-119624000D03*
X95416000Y-118784000D03*
X95416000Y-117944000D03*
X95416000Y-117104000D03*
%TD*%
%TO.C,D38*%
X95416000Y-129022000D03*
X95416000Y-128182000D03*
X95416000Y-127342000D03*
X95416000Y-126502000D03*
%TD*%
D11*
%TO.C,C1*%
X97028000Y-103478500D03*
X97028000Y-101753500D03*
%TD*%
D12*
%TO.C,D35*%
X95250000Y-103358000D03*
X95250000Y-102518000D03*
X95250000Y-101678000D03*
X95250000Y-100838000D03*
%TD*%
D13*
%TO.C,U1*%
X104034000Y-119958000D03*
D14*
X104034000Y-120358000D03*
X104034000Y-120758000D03*
X104034000Y-121158000D03*
D15*
X104034000Y-121558000D03*
D16*
X104684000Y-122208000D03*
D17*
X105084000Y-122208000D03*
X105484000Y-122208000D03*
X105884000Y-122208000D03*
D18*
X106284000Y-122208000D03*
D19*
X106934000Y-121558000D03*
D14*
X106934000Y-121158000D03*
X106934000Y-120758000D03*
X106934000Y-120358000D03*
D20*
X106934000Y-119958000D03*
D21*
X106284000Y-119308000D03*
D17*
X105884000Y-119308000D03*
X105484000Y-119308000D03*
X105084000Y-119308000D03*
D22*
X104684000Y-119308000D03*
D23*
X105484000Y-120758000D03*
%TD*%
%TO.C,J3*%
X99568000Y-143764000D03*
D24*
X102108000Y-143764000D03*
X99568000Y-146304000D03*
X102108000Y-146304000D03*
X99568000Y-148844000D03*
X102108000Y-148844000D03*
%TD*%
M02*
