%TF.GenerationSoftware,KiCad,Pcbnew,7.0.1*%
%TF.CreationDate,2024-01-19T17:32:14-06:00*%
%TF.ProjectId,Techno Buffalo,54656368-6e6f-4204-9275-6666616c6f2e,rev?*%
%TF.SameCoordinates,Original*%
%TF.FileFunction,Profile,NP*%
%FSLAX46Y46*%
G04 Gerber Fmt 4.6, Leading zero omitted, Abs format (unit mm)*
G04 Created by KiCad (PCBNEW 7.0.1) date 2024-01-19 17:32:14*
%MOMM*%
%LPD*%
G01*
G04 APERTURE LIST*
%TA.AperFunction,Profile*%
%ADD10C,0.100000*%
%TD*%
G04 APERTURE END LIST*
D10*
X139700000Y-123698000D02*
X138938000Y-122174000D01*
X133350000Y-152654000D02*
X133350000Y-134366000D01*
X79756000Y-90170000D02*
X79502000Y-90170000D01*
X59182000Y-126492000D02*
X64262000Y-131572000D01*
X59182000Y-102362000D02*
X51308000Y-110236000D01*
X64008000Y-96520000D02*
X60452000Y-100076000D01*
X93726000Y-90170000D02*
X79756000Y-90170000D01*
X116078000Y-151384000D02*
X118618000Y-152654000D01*
X82550000Y-140208000D02*
X83820000Y-147320000D01*
X100330000Y-92202000D02*
X93726000Y-90170000D01*
X96012000Y-152654000D02*
X97790000Y-151384000D01*
X129286000Y-103124000D02*
X115316000Y-100584000D01*
X51308000Y-124206000D02*
X53594000Y-126492000D01*
X82042000Y-152400000D02*
X82296000Y-152654000D01*
X81026000Y-140208000D02*
X82550000Y-140208000D01*
X83820000Y-147320000D02*
X82042000Y-152400000D01*
X64262000Y-96520000D02*
X64008000Y-96520000D01*
X130302000Y-105156000D02*
X129286000Y-103124000D01*
X100838000Y-92456000D02*
X100330000Y-92202000D01*
X51308000Y-110236000D02*
X51308000Y-124206000D01*
X64262000Y-102362000D02*
X64262000Y-96520000D01*
X64262000Y-131572000D02*
X68326000Y-127508000D01*
X60452000Y-102362000D02*
X59182000Y-102362000D01*
X82296000Y-152654000D02*
X96012000Y-152654000D01*
X135382000Y-105156000D02*
X130302000Y-105156000D01*
X138938000Y-108458000D02*
X135382000Y-105156000D01*
X97790000Y-151384000D02*
X116078000Y-151384000D01*
X79502000Y-90170000D02*
X64262000Y-102362000D01*
X138684000Y-128778000D02*
X139700000Y-123698000D01*
X68326000Y-127508000D02*
X81026000Y-140208000D01*
X60452000Y-100076000D02*
X60452000Y-102362000D01*
X115316000Y-100584000D02*
X100838000Y-95250000D01*
X118618000Y-152654000D02*
X133350000Y-152654000D01*
X138938000Y-122174000D02*
X138938000Y-108458000D01*
X53594000Y-126492000D02*
X59182000Y-126492000D01*
X133350000Y-134366000D02*
X138684000Y-128778000D01*
X100838000Y-95250000D02*
X100838000Y-92456000D01*
M02*
