%TF.GenerationSoftware,KiCad,Pcbnew,7.0.10*%
%TF.CreationDate,2024-02-21T12:16:21-06:00*%
%TF.ProjectId,B-Sides 2024,422d5369-6465-4732-9032-3032342e6b69,rev?*%
%TF.SameCoordinates,Original*%
%TF.FileFunction,Soldermask,Bot*%
%TF.FilePolarity,Negative*%
%FSLAX46Y46*%
G04 Gerber Fmt 4.6, Leading zero omitted, Abs format (unit mm)*
G04 Created by KiCad (PCBNEW 7.0.10) date 2024-02-21 12:16:21*
%MOMM*%
%LPD*%
G01*
G04 APERTURE LIST*
G04 APERTURE END LIST*
G36*
X80497465Y-127893675D02*
G01*
X80546955Y-127893675D01*
X80602070Y-127903977D01*
X80655040Y-127909195D01*
X80695279Y-127921401D01*
X80737570Y-127929307D01*
X80796142Y-127951997D01*
X80852200Y-127969003D01*
X80884231Y-127986123D01*
X80918382Y-127999354D01*
X80977719Y-128036093D01*
X81033904Y-128066125D01*
X81057509Y-128085497D01*
X81083251Y-128101436D01*
X81140290Y-128153434D01*
X81193169Y-128196831D01*
X81208839Y-128215924D01*
X81226557Y-128232077D01*
X81277989Y-128300184D01*
X81323875Y-128356096D01*
X81332748Y-128372697D01*
X81343415Y-128386822D01*
X81385860Y-128472064D01*
X81420997Y-128537800D01*
X81424743Y-128550151D01*
X81429848Y-128560402D01*
X81459997Y-128666368D01*
X81480805Y-128734960D01*
X81481488Y-128741900D01*
X81482915Y-128746914D01*
X81497739Y-128906893D01*
X81501000Y-128940000D01*
X81497738Y-128973109D01*
X81482915Y-129133085D01*
X81481488Y-129138097D01*
X81480805Y-129145040D01*
X81459993Y-129213646D01*
X81429848Y-129319597D01*
X81424744Y-129329846D01*
X81420997Y-129342200D01*
X81385853Y-129407949D01*
X81343415Y-129493177D01*
X81332750Y-129507299D01*
X81323875Y-129523904D01*
X81277979Y-129579827D01*
X81226557Y-129647922D01*
X81208842Y-129664071D01*
X81193169Y-129683169D01*
X81140279Y-129726574D01*
X81083251Y-129778563D01*
X81057514Y-129794498D01*
X81033904Y-129813875D01*
X80977707Y-129843912D01*
X80918382Y-129880645D01*
X80884238Y-129893872D01*
X80852200Y-129910997D01*
X80796130Y-129928005D01*
X80737570Y-129950692D01*
X80695286Y-129958596D01*
X80655040Y-129970805D01*
X80602067Y-129976022D01*
X80546955Y-129986325D01*
X80497465Y-129986325D01*
X80450000Y-129991000D01*
X80402535Y-129986325D01*
X80353045Y-129986325D01*
X80297931Y-129976022D01*
X80244960Y-129970805D01*
X80204714Y-129958596D01*
X80162429Y-129950692D01*
X80103865Y-129928004D01*
X80047800Y-129910997D01*
X80015764Y-129893873D01*
X79981617Y-129880645D01*
X79922285Y-129843908D01*
X79866096Y-129813875D01*
X79842488Y-129794500D01*
X79816748Y-129778563D01*
X79759710Y-129726565D01*
X79706831Y-129683169D01*
X79691160Y-129664074D01*
X79673442Y-129647922D01*
X79622007Y-129579811D01*
X79576125Y-129523904D01*
X79567252Y-129507303D01*
X79556584Y-129493177D01*
X79514131Y-129407921D01*
X79479003Y-129342200D01*
X79475257Y-129329851D01*
X79470151Y-129319597D01*
X79439990Y-129213593D01*
X79419195Y-129145040D01*
X79418511Y-129138103D01*
X79417084Y-129133085D01*
X79402244Y-128972938D01*
X79399000Y-128940000D01*
X79402243Y-128907064D01*
X79417084Y-128746914D01*
X79418511Y-128741895D01*
X79419195Y-128734960D01*
X79439986Y-128666421D01*
X79470151Y-128560402D01*
X79475257Y-128550146D01*
X79479003Y-128537800D01*
X79514124Y-128472091D01*
X79556584Y-128386822D01*
X79567253Y-128372692D01*
X79576125Y-128356096D01*
X79621998Y-128300199D01*
X79673442Y-128232077D01*
X79691163Y-128215921D01*
X79706831Y-128196831D01*
X79759699Y-128153443D01*
X79816748Y-128101436D01*
X79842493Y-128085495D01*
X79866096Y-128066125D01*
X79922273Y-128036097D01*
X79981617Y-127999354D01*
X80015771Y-127986122D01*
X80047800Y-127969003D01*
X80103853Y-127951999D01*
X80162429Y-127929307D01*
X80204721Y-127921401D01*
X80244960Y-127909195D01*
X80297928Y-127903977D01*
X80353045Y-127893675D01*
X80402535Y-127893675D01*
X80450000Y-127889000D01*
X80497465Y-127893675D01*
G37*
G36*
X129017465Y-127893675D02*
G01*
X129066955Y-127893675D01*
X129122070Y-127903977D01*
X129175040Y-127909195D01*
X129215279Y-127921401D01*
X129257570Y-127929307D01*
X129316142Y-127951997D01*
X129372200Y-127969003D01*
X129404231Y-127986123D01*
X129438382Y-127999354D01*
X129497719Y-128036093D01*
X129553904Y-128066125D01*
X129577509Y-128085497D01*
X129603251Y-128101436D01*
X129660290Y-128153434D01*
X129713169Y-128196831D01*
X129728839Y-128215924D01*
X129746557Y-128232077D01*
X129797989Y-128300184D01*
X129843875Y-128356096D01*
X129852748Y-128372697D01*
X129863415Y-128386822D01*
X129905860Y-128472064D01*
X129940997Y-128537800D01*
X129944743Y-128550151D01*
X129949848Y-128560402D01*
X129979997Y-128666368D01*
X130000805Y-128734960D01*
X130001488Y-128741900D01*
X130002915Y-128746914D01*
X130017739Y-128906893D01*
X130021000Y-128940000D01*
X130017738Y-128973109D01*
X130002915Y-129133085D01*
X130001488Y-129138097D01*
X130000805Y-129145040D01*
X129979993Y-129213646D01*
X129949848Y-129319597D01*
X129944744Y-129329846D01*
X129940997Y-129342200D01*
X129905853Y-129407949D01*
X129863415Y-129493177D01*
X129852750Y-129507299D01*
X129843875Y-129523904D01*
X129797979Y-129579827D01*
X129746557Y-129647922D01*
X129728842Y-129664071D01*
X129713169Y-129683169D01*
X129660279Y-129726574D01*
X129603251Y-129778563D01*
X129577514Y-129794498D01*
X129553904Y-129813875D01*
X129497707Y-129843912D01*
X129438382Y-129880645D01*
X129404238Y-129893872D01*
X129372200Y-129910997D01*
X129316130Y-129928005D01*
X129257570Y-129950692D01*
X129215286Y-129958596D01*
X129175040Y-129970805D01*
X129122067Y-129976022D01*
X129066955Y-129986325D01*
X129017465Y-129986325D01*
X128970000Y-129991000D01*
X128922535Y-129986325D01*
X128873045Y-129986325D01*
X128817931Y-129976022D01*
X128764960Y-129970805D01*
X128724714Y-129958596D01*
X128682429Y-129950692D01*
X128623865Y-129928004D01*
X128567800Y-129910997D01*
X128535764Y-129893873D01*
X128501617Y-129880645D01*
X128442285Y-129843908D01*
X128386096Y-129813875D01*
X128362488Y-129794500D01*
X128336748Y-129778563D01*
X128279710Y-129726565D01*
X128226831Y-129683169D01*
X128211160Y-129664074D01*
X128193442Y-129647922D01*
X128142007Y-129579811D01*
X128096125Y-129523904D01*
X128087252Y-129507303D01*
X128076584Y-129493177D01*
X128034131Y-129407921D01*
X127999003Y-129342200D01*
X127995257Y-129329851D01*
X127990151Y-129319597D01*
X127959990Y-129213593D01*
X127939195Y-129145040D01*
X127938511Y-129138103D01*
X127937084Y-129133085D01*
X127922244Y-128972938D01*
X127919000Y-128940000D01*
X127922243Y-128907064D01*
X127937084Y-128746914D01*
X127938511Y-128741895D01*
X127939195Y-128734960D01*
X127959986Y-128666421D01*
X127990151Y-128560402D01*
X127995257Y-128550146D01*
X127999003Y-128537800D01*
X128034124Y-128472091D01*
X128076584Y-128386822D01*
X128087253Y-128372692D01*
X128096125Y-128356096D01*
X128141998Y-128300199D01*
X128193442Y-128232077D01*
X128211163Y-128215921D01*
X128226831Y-128196831D01*
X128279699Y-128153443D01*
X128336748Y-128101436D01*
X128362493Y-128085495D01*
X128386096Y-128066125D01*
X128442273Y-128036097D01*
X128501617Y-127999354D01*
X128535771Y-127986122D01*
X128567800Y-127969003D01*
X128623853Y-127951999D01*
X128682429Y-127929307D01*
X128724721Y-127921401D01*
X128764960Y-127909195D01*
X128817928Y-127903977D01*
X128873045Y-127893675D01*
X128922535Y-127893675D01*
X128970000Y-127889000D01*
X129017465Y-127893675D01*
G37*
G36*
X85765710Y-123806786D02*
G01*
X85775127Y-123808834D01*
X85786572Y-123809629D01*
X85882570Y-123832207D01*
X85970240Y-123851279D01*
X85978260Y-123854713D01*
X85984827Y-123856258D01*
X86080007Y-123898284D01*
X86162653Y-123933675D01*
X86167330Y-123936841D01*
X86170660Y-123938311D01*
X86266236Y-124003782D01*
X86335996Y-124050997D01*
X86337811Y-124052812D01*
X86338246Y-124053110D01*
X86481889Y-124196753D01*
X86482186Y-124197187D01*
X86484003Y-124199004D01*
X86531243Y-124268802D01*
X86596688Y-124364339D01*
X86598157Y-124367666D01*
X86601325Y-124372347D01*
X86636733Y-124455034D01*
X86678741Y-124550172D01*
X86680284Y-124556735D01*
X86683721Y-124564760D01*
X86702800Y-124652465D01*
X86725370Y-124748426D01*
X86726164Y-124759866D01*
X86728214Y-124769290D01*
X86736000Y-124900000D01*
X86736000Y-127900000D01*
X86728214Y-128030710D01*
X86726163Y-128040134D01*
X86725370Y-128051572D01*
X86702804Y-128147514D01*
X86683721Y-128235240D01*
X86680284Y-128243265D01*
X86678741Y-128249827D01*
X86636747Y-128344932D01*
X86601325Y-128427653D01*
X86598156Y-128432335D01*
X86596688Y-128435660D01*
X86531300Y-128531114D01*
X86484003Y-128600996D01*
X86482184Y-128602814D01*
X86481889Y-128603246D01*
X86338246Y-128746889D01*
X86337814Y-128747184D01*
X86335996Y-128749003D01*
X86266114Y-128796300D01*
X86170660Y-128861688D01*
X86167335Y-128863156D01*
X86162653Y-128866325D01*
X86079932Y-128901747D01*
X85984827Y-128943741D01*
X85978265Y-128945284D01*
X85970240Y-128948721D01*
X85882520Y-128967803D01*
X85786573Y-128990370D01*
X85775133Y-128991164D01*
X85765710Y-128993214D01*
X85635000Y-129001000D01*
X83535000Y-129001000D01*
X83404290Y-128993214D01*
X83394866Y-128991164D01*
X83383427Y-128990370D01*
X83287472Y-128967801D01*
X83199760Y-128948721D01*
X83191735Y-128945284D01*
X83185172Y-128943741D01*
X83090034Y-128901733D01*
X83007347Y-128866325D01*
X83002666Y-128863157D01*
X82999339Y-128861688D01*
X82903802Y-128796243D01*
X82834004Y-128749003D01*
X82832187Y-128747186D01*
X82831753Y-128746889D01*
X82688110Y-128603246D01*
X82687812Y-128602811D01*
X82685997Y-128600996D01*
X82638782Y-128531236D01*
X82573311Y-128435660D01*
X82571841Y-128432330D01*
X82568675Y-128427653D01*
X82533284Y-128345007D01*
X82491258Y-128249827D01*
X82489713Y-128243260D01*
X82486279Y-128235240D01*
X82467209Y-128147577D01*
X82444629Y-128051573D01*
X82443834Y-128040126D01*
X82441786Y-128030710D01*
X82434000Y-127900000D01*
X82434000Y-124900000D01*
X82441786Y-124769290D01*
X82443834Y-124759873D01*
X82444629Y-124748427D01*
X82467210Y-124652415D01*
X82486279Y-124564760D01*
X82489713Y-124556740D01*
X82491258Y-124550172D01*
X82533298Y-124454958D01*
X82568675Y-124372347D01*
X82571839Y-124367671D01*
X82573311Y-124364339D01*
X82638838Y-124268679D01*
X82685997Y-124199004D01*
X82687809Y-124197191D01*
X82688110Y-124196753D01*
X82831753Y-124053110D01*
X82832191Y-124052809D01*
X82834004Y-124050997D01*
X82903679Y-124003838D01*
X82999339Y-123938311D01*
X83002671Y-123936839D01*
X83007347Y-123933675D01*
X83089958Y-123898298D01*
X83185172Y-123856258D01*
X83191740Y-123854713D01*
X83199760Y-123851279D01*
X83287409Y-123832212D01*
X83383426Y-123809629D01*
X83394873Y-123808834D01*
X83404290Y-123806786D01*
X83535000Y-123799000D01*
X85635000Y-123799000D01*
X85765710Y-123806786D01*
G37*
G36*
X126015710Y-123806786D02*
G01*
X126025127Y-123808834D01*
X126036572Y-123809629D01*
X126132570Y-123832207D01*
X126220240Y-123851279D01*
X126228260Y-123854713D01*
X126234827Y-123856258D01*
X126330007Y-123898284D01*
X126412653Y-123933675D01*
X126417330Y-123936841D01*
X126420660Y-123938311D01*
X126516236Y-124003782D01*
X126585996Y-124050997D01*
X126587811Y-124052812D01*
X126588246Y-124053110D01*
X126731889Y-124196753D01*
X126732186Y-124197187D01*
X126734003Y-124199004D01*
X126781243Y-124268802D01*
X126846688Y-124364339D01*
X126848157Y-124367666D01*
X126851325Y-124372347D01*
X126886733Y-124455034D01*
X126928741Y-124550172D01*
X126930284Y-124556735D01*
X126933721Y-124564760D01*
X126952800Y-124652465D01*
X126975370Y-124748426D01*
X126976164Y-124759866D01*
X126978214Y-124769290D01*
X126986000Y-124900000D01*
X126986000Y-127900000D01*
X126978214Y-128030710D01*
X126976163Y-128040134D01*
X126975370Y-128051572D01*
X126952804Y-128147514D01*
X126933721Y-128235240D01*
X126930284Y-128243265D01*
X126928741Y-128249827D01*
X126886747Y-128344932D01*
X126851325Y-128427653D01*
X126848156Y-128432335D01*
X126846688Y-128435660D01*
X126781300Y-128531114D01*
X126734003Y-128600996D01*
X126732184Y-128602814D01*
X126731889Y-128603246D01*
X126588246Y-128746889D01*
X126587814Y-128747184D01*
X126585996Y-128749003D01*
X126516114Y-128796300D01*
X126420660Y-128861688D01*
X126417335Y-128863156D01*
X126412653Y-128866325D01*
X126329932Y-128901747D01*
X126234827Y-128943741D01*
X126228265Y-128945284D01*
X126220240Y-128948721D01*
X126132520Y-128967803D01*
X126036573Y-128990370D01*
X126025133Y-128991164D01*
X126015710Y-128993214D01*
X125885000Y-129001000D01*
X123785000Y-129001000D01*
X123654290Y-128993214D01*
X123644866Y-128991164D01*
X123633427Y-128990370D01*
X123537472Y-128967801D01*
X123449760Y-128948721D01*
X123441735Y-128945284D01*
X123435172Y-128943741D01*
X123340034Y-128901733D01*
X123257347Y-128866325D01*
X123252666Y-128863157D01*
X123249339Y-128861688D01*
X123153802Y-128796243D01*
X123084004Y-128749003D01*
X123082187Y-128747186D01*
X123081753Y-128746889D01*
X122938110Y-128603246D01*
X122937812Y-128602811D01*
X122935997Y-128600996D01*
X122888782Y-128531236D01*
X122823311Y-128435660D01*
X122821841Y-128432330D01*
X122818675Y-128427653D01*
X122783284Y-128345007D01*
X122741258Y-128249827D01*
X122739713Y-128243260D01*
X122736279Y-128235240D01*
X122717209Y-128147577D01*
X122694629Y-128051573D01*
X122693834Y-128040126D01*
X122691786Y-128030710D01*
X122684000Y-127900000D01*
X122684000Y-124900000D01*
X122691786Y-124769290D01*
X122693834Y-124759873D01*
X122694629Y-124748427D01*
X122717210Y-124652415D01*
X122736279Y-124564760D01*
X122739713Y-124556740D01*
X122741258Y-124550172D01*
X122783298Y-124454958D01*
X122818675Y-124372347D01*
X122821839Y-124367671D01*
X122823311Y-124364339D01*
X122888838Y-124268679D01*
X122935997Y-124199004D01*
X122937809Y-124197191D01*
X122938110Y-124196753D01*
X123081753Y-124053110D01*
X123082191Y-124052809D01*
X123084004Y-124050997D01*
X123153679Y-124003838D01*
X123249339Y-123938311D01*
X123252671Y-123936839D01*
X123257347Y-123933675D01*
X123339958Y-123898298D01*
X123435172Y-123856258D01*
X123441740Y-123854713D01*
X123449760Y-123851279D01*
X123537409Y-123832212D01*
X123633426Y-123809629D01*
X123644873Y-123808834D01*
X123654290Y-123806786D01*
X123785000Y-123799000D01*
X125885000Y-123799000D01*
X126015710Y-123806786D01*
G37*
G36*
X69575947Y-124660093D02*
G01*
X69584970Y-124662510D01*
X69593634Y-124663281D01*
X69678928Y-124687686D01*
X69757890Y-124708844D01*
X69764318Y-124712119D01*
X69769140Y-124713499D01*
X69853046Y-124757328D01*
X69925720Y-124794358D01*
X69928966Y-124796986D01*
X69930684Y-124797884D01*
X70018817Y-124869747D01*
X70072103Y-124912897D01*
X70115279Y-124966215D01*
X70187115Y-125054315D01*
X70188012Y-125056032D01*
X70190642Y-125059280D01*
X70227690Y-125131990D01*
X70271500Y-125215859D01*
X70272879Y-125220678D01*
X70276156Y-125227110D01*
X70297324Y-125306111D01*
X70321718Y-125391365D01*
X70322487Y-125400024D01*
X70324907Y-125409053D01*
X70336000Y-125550000D01*
X70336000Y-127250000D01*
X70324907Y-127390947D01*
X70322487Y-127399975D01*
X70321718Y-127408634D01*
X70297328Y-127493873D01*
X70276156Y-127572890D01*
X70272878Y-127579322D01*
X70271500Y-127584140D01*
X70227710Y-127667968D01*
X70190642Y-127740720D01*
X70188010Y-127743969D01*
X70187115Y-127745684D01*
X70115397Y-127833639D01*
X70072103Y-127887103D01*
X70018639Y-127930397D01*
X69930684Y-128002115D01*
X69928969Y-128003010D01*
X69925720Y-128005642D01*
X69852968Y-128042710D01*
X69769140Y-128086500D01*
X69764322Y-128087878D01*
X69757890Y-128091156D01*
X69678873Y-128112328D01*
X69593634Y-128136718D01*
X69584975Y-128137487D01*
X69575947Y-128139907D01*
X69435000Y-128151000D01*
X67735000Y-128151000D01*
X67594053Y-128139907D01*
X67585024Y-128137487D01*
X67576365Y-128136718D01*
X67491111Y-128112324D01*
X67412110Y-128091156D01*
X67405678Y-128087879D01*
X67400859Y-128086500D01*
X67316990Y-128042690D01*
X67244280Y-128005642D01*
X67241032Y-128003012D01*
X67239315Y-128002115D01*
X67151215Y-127930279D01*
X67097897Y-127887103D01*
X67054747Y-127833817D01*
X66982884Y-127745684D01*
X66981986Y-127743966D01*
X66979358Y-127740720D01*
X66942328Y-127668046D01*
X66898499Y-127584140D01*
X66897119Y-127579318D01*
X66893844Y-127572890D01*
X66872686Y-127493928D01*
X66848281Y-127408634D01*
X66847510Y-127399970D01*
X66845093Y-127390947D01*
X66834000Y-127250000D01*
X66834000Y-125550000D01*
X66845093Y-125409053D01*
X66847510Y-125400030D01*
X66848281Y-125391365D01*
X66872690Y-125306056D01*
X66893844Y-125227110D01*
X66897118Y-125220683D01*
X66898499Y-125215859D01*
X66942349Y-125131912D01*
X66979358Y-125059280D01*
X66981985Y-125056035D01*
X66982884Y-125054315D01*
X67054865Y-124966036D01*
X67097897Y-124912897D01*
X67151036Y-124869865D01*
X67239315Y-124797884D01*
X67241035Y-124796985D01*
X67244280Y-124794358D01*
X67316912Y-124757349D01*
X67400859Y-124713499D01*
X67405683Y-124712118D01*
X67412110Y-124708844D01*
X67491056Y-124687690D01*
X67576365Y-124663281D01*
X67585030Y-124662510D01*
X67594053Y-124660093D01*
X67735000Y-124649000D01*
X69435000Y-124649000D01*
X69575947Y-124660093D01*
G37*
G36*
X141825947Y-124660093D02*
G01*
X141834970Y-124662510D01*
X141843634Y-124663281D01*
X141928928Y-124687686D01*
X142007890Y-124708844D01*
X142014318Y-124712119D01*
X142019140Y-124713499D01*
X142103046Y-124757328D01*
X142175720Y-124794358D01*
X142178966Y-124796986D01*
X142180684Y-124797884D01*
X142268817Y-124869747D01*
X142322103Y-124912897D01*
X142365279Y-124966215D01*
X142437115Y-125054315D01*
X142438012Y-125056032D01*
X142440642Y-125059280D01*
X142477690Y-125131990D01*
X142521500Y-125215859D01*
X142522879Y-125220678D01*
X142526156Y-125227110D01*
X142547324Y-125306111D01*
X142571718Y-125391365D01*
X142572487Y-125400024D01*
X142574907Y-125409053D01*
X142586000Y-125550000D01*
X142586000Y-127250000D01*
X142574907Y-127390947D01*
X142572487Y-127399975D01*
X142571718Y-127408634D01*
X142547328Y-127493873D01*
X142526156Y-127572890D01*
X142522878Y-127579322D01*
X142521500Y-127584140D01*
X142477710Y-127667968D01*
X142440642Y-127740720D01*
X142438010Y-127743969D01*
X142437115Y-127745684D01*
X142365397Y-127833639D01*
X142322103Y-127887103D01*
X142268639Y-127930397D01*
X142180684Y-128002115D01*
X142178969Y-128003010D01*
X142175720Y-128005642D01*
X142102968Y-128042710D01*
X142019140Y-128086500D01*
X142014322Y-128087878D01*
X142007890Y-128091156D01*
X141928873Y-128112328D01*
X141843634Y-128136718D01*
X141834975Y-128137487D01*
X141825947Y-128139907D01*
X141685000Y-128151000D01*
X139985000Y-128151000D01*
X139844053Y-128139907D01*
X139835024Y-128137487D01*
X139826365Y-128136718D01*
X139741111Y-128112324D01*
X139662110Y-128091156D01*
X139655678Y-128087879D01*
X139650859Y-128086500D01*
X139566990Y-128042690D01*
X139494280Y-128005642D01*
X139491032Y-128003012D01*
X139489315Y-128002115D01*
X139401215Y-127930279D01*
X139347897Y-127887103D01*
X139304747Y-127833817D01*
X139232884Y-127745684D01*
X139231986Y-127743966D01*
X139229358Y-127740720D01*
X139192328Y-127668046D01*
X139148499Y-127584140D01*
X139147119Y-127579318D01*
X139143844Y-127572890D01*
X139122686Y-127493928D01*
X139098281Y-127408634D01*
X139097510Y-127399970D01*
X139095093Y-127390947D01*
X139084000Y-127250000D01*
X139084000Y-125550000D01*
X139095093Y-125409053D01*
X139097510Y-125400030D01*
X139098281Y-125391365D01*
X139122690Y-125306056D01*
X139143844Y-125227110D01*
X139147118Y-125220683D01*
X139148499Y-125215859D01*
X139192349Y-125131912D01*
X139229358Y-125059280D01*
X139231985Y-125056035D01*
X139232884Y-125054315D01*
X139304865Y-124966036D01*
X139347897Y-124912897D01*
X139401036Y-124869865D01*
X139489315Y-124797884D01*
X139491035Y-124796985D01*
X139494280Y-124794358D01*
X139566912Y-124757349D01*
X139650859Y-124713499D01*
X139655683Y-124712118D01*
X139662110Y-124708844D01*
X139741056Y-124687690D01*
X139826365Y-124663281D01*
X139835030Y-124662510D01*
X139844053Y-124660093D01*
X139985000Y-124649000D01*
X141685000Y-124649000D01*
X141825947Y-124660093D01*
G37*
G36*
X74257465Y-125353675D02*
G01*
X74306955Y-125353675D01*
X74362070Y-125363977D01*
X74415040Y-125369195D01*
X74455279Y-125381401D01*
X74497570Y-125389307D01*
X74556142Y-125411997D01*
X74612200Y-125429003D01*
X74644231Y-125446123D01*
X74678382Y-125459354D01*
X74737719Y-125496093D01*
X74793904Y-125526125D01*
X74817509Y-125545497D01*
X74843251Y-125561436D01*
X74900290Y-125613434D01*
X74953169Y-125656831D01*
X74968839Y-125675924D01*
X74986557Y-125692077D01*
X75037989Y-125760184D01*
X75083875Y-125816096D01*
X75092748Y-125832697D01*
X75103415Y-125846822D01*
X75145860Y-125932064D01*
X75180997Y-125997800D01*
X75184743Y-126010151D01*
X75189848Y-126020402D01*
X75219997Y-126126368D01*
X75240805Y-126194960D01*
X75241488Y-126201900D01*
X75242915Y-126206914D01*
X75257739Y-126366893D01*
X75261000Y-126400000D01*
X75257738Y-126433109D01*
X75242915Y-126593085D01*
X75241488Y-126598097D01*
X75240805Y-126605040D01*
X75219993Y-126673646D01*
X75189848Y-126779597D01*
X75184744Y-126789846D01*
X75180997Y-126802200D01*
X75145853Y-126867949D01*
X75103415Y-126953177D01*
X75092750Y-126967299D01*
X75083875Y-126983904D01*
X75037979Y-127039827D01*
X74986557Y-127107922D01*
X74968842Y-127124071D01*
X74953169Y-127143169D01*
X74900279Y-127186574D01*
X74843251Y-127238563D01*
X74817514Y-127254498D01*
X74793904Y-127273875D01*
X74737707Y-127303912D01*
X74678382Y-127340645D01*
X74644238Y-127353872D01*
X74612200Y-127370997D01*
X74556130Y-127388005D01*
X74497570Y-127410692D01*
X74455286Y-127418596D01*
X74415040Y-127430805D01*
X74362067Y-127436022D01*
X74306955Y-127446325D01*
X74257465Y-127446325D01*
X74210000Y-127451000D01*
X74162535Y-127446325D01*
X74113045Y-127446325D01*
X74057931Y-127436022D01*
X74004960Y-127430805D01*
X73964714Y-127418596D01*
X73922429Y-127410692D01*
X73863865Y-127388004D01*
X73807800Y-127370997D01*
X73775764Y-127353873D01*
X73741617Y-127340645D01*
X73682285Y-127303908D01*
X73626096Y-127273875D01*
X73602488Y-127254500D01*
X73576748Y-127238563D01*
X73519710Y-127186565D01*
X73466831Y-127143169D01*
X73451160Y-127124074D01*
X73433442Y-127107922D01*
X73382007Y-127039811D01*
X73336125Y-126983904D01*
X73327252Y-126967303D01*
X73316584Y-126953177D01*
X73274131Y-126867921D01*
X73239003Y-126802200D01*
X73235257Y-126789851D01*
X73230151Y-126779597D01*
X73199990Y-126673593D01*
X73179195Y-126605040D01*
X73178511Y-126598103D01*
X73177084Y-126593085D01*
X73162244Y-126432938D01*
X73159000Y-126400000D01*
X73162243Y-126367064D01*
X73177084Y-126206914D01*
X73178511Y-126201895D01*
X73179195Y-126194960D01*
X73199986Y-126126421D01*
X73230151Y-126020402D01*
X73235257Y-126010146D01*
X73239003Y-125997800D01*
X73274124Y-125932091D01*
X73316584Y-125846822D01*
X73327253Y-125832692D01*
X73336125Y-125816096D01*
X73381998Y-125760199D01*
X73433442Y-125692077D01*
X73451163Y-125675921D01*
X73466831Y-125656831D01*
X73519699Y-125613443D01*
X73576748Y-125561436D01*
X73602493Y-125545495D01*
X73626096Y-125526125D01*
X73682273Y-125496097D01*
X73741617Y-125459354D01*
X73775771Y-125446122D01*
X73807800Y-125429003D01*
X73863853Y-125411999D01*
X73922429Y-125389307D01*
X73964721Y-125381401D01*
X74004960Y-125369195D01*
X74057928Y-125363977D01*
X74113045Y-125353675D01*
X74162535Y-125353675D01*
X74210000Y-125349000D01*
X74257465Y-125353675D01*
G37*
G36*
X135257465Y-125353675D02*
G01*
X135306955Y-125353675D01*
X135362070Y-125363977D01*
X135415040Y-125369195D01*
X135455279Y-125381401D01*
X135497570Y-125389307D01*
X135556142Y-125411997D01*
X135612200Y-125429003D01*
X135644231Y-125446123D01*
X135678382Y-125459354D01*
X135737719Y-125496093D01*
X135793904Y-125526125D01*
X135817509Y-125545497D01*
X135843251Y-125561436D01*
X135900290Y-125613434D01*
X135953169Y-125656831D01*
X135968839Y-125675924D01*
X135986557Y-125692077D01*
X136037989Y-125760184D01*
X136083875Y-125816096D01*
X136092748Y-125832697D01*
X136103415Y-125846822D01*
X136145860Y-125932064D01*
X136180997Y-125997800D01*
X136184743Y-126010151D01*
X136189848Y-126020402D01*
X136219997Y-126126368D01*
X136240805Y-126194960D01*
X136241488Y-126201900D01*
X136242915Y-126206914D01*
X136257739Y-126366893D01*
X136261000Y-126400000D01*
X136257738Y-126433109D01*
X136242915Y-126593085D01*
X136241488Y-126598097D01*
X136240805Y-126605040D01*
X136219993Y-126673646D01*
X136189848Y-126779597D01*
X136184744Y-126789846D01*
X136180997Y-126802200D01*
X136145853Y-126867949D01*
X136103415Y-126953177D01*
X136092750Y-126967299D01*
X136083875Y-126983904D01*
X136037979Y-127039827D01*
X135986557Y-127107922D01*
X135968842Y-127124071D01*
X135953169Y-127143169D01*
X135900279Y-127186574D01*
X135843251Y-127238563D01*
X135817514Y-127254498D01*
X135793904Y-127273875D01*
X135737707Y-127303912D01*
X135678382Y-127340645D01*
X135644238Y-127353872D01*
X135612200Y-127370997D01*
X135556130Y-127388005D01*
X135497570Y-127410692D01*
X135455286Y-127418596D01*
X135415040Y-127430805D01*
X135362067Y-127436022D01*
X135306955Y-127446325D01*
X135257465Y-127446325D01*
X135210000Y-127451000D01*
X135162535Y-127446325D01*
X135113045Y-127446325D01*
X135057931Y-127436022D01*
X135004960Y-127430805D01*
X134964714Y-127418596D01*
X134922429Y-127410692D01*
X134863865Y-127388004D01*
X134807800Y-127370997D01*
X134775764Y-127353873D01*
X134741617Y-127340645D01*
X134682285Y-127303908D01*
X134626096Y-127273875D01*
X134602488Y-127254500D01*
X134576748Y-127238563D01*
X134519710Y-127186565D01*
X134466831Y-127143169D01*
X134451160Y-127124074D01*
X134433442Y-127107922D01*
X134382007Y-127039811D01*
X134336125Y-126983904D01*
X134327252Y-126967303D01*
X134316584Y-126953177D01*
X134274131Y-126867921D01*
X134239003Y-126802200D01*
X134235257Y-126789851D01*
X134230151Y-126779597D01*
X134199990Y-126673593D01*
X134179195Y-126605040D01*
X134178511Y-126598103D01*
X134177084Y-126593085D01*
X134162244Y-126432938D01*
X134159000Y-126400000D01*
X134162243Y-126367064D01*
X134177084Y-126206914D01*
X134178511Y-126201895D01*
X134179195Y-126194960D01*
X134199986Y-126126421D01*
X134230151Y-126020402D01*
X134235257Y-126010146D01*
X134239003Y-125997800D01*
X134274124Y-125932091D01*
X134316584Y-125846822D01*
X134327253Y-125832692D01*
X134336125Y-125816096D01*
X134381998Y-125760199D01*
X134433442Y-125692077D01*
X134451163Y-125675921D01*
X134466831Y-125656831D01*
X134519699Y-125613443D01*
X134576748Y-125561436D01*
X134602493Y-125545495D01*
X134626096Y-125526125D01*
X134682273Y-125496097D01*
X134741617Y-125459354D01*
X134775771Y-125446122D01*
X134807800Y-125429003D01*
X134863853Y-125411999D01*
X134922429Y-125389307D01*
X134964721Y-125381401D01*
X135004960Y-125369195D01*
X135057928Y-125363977D01*
X135113045Y-125353675D01*
X135162535Y-125353675D01*
X135210000Y-125349000D01*
X135257465Y-125353675D01*
G37*
G36*
X80497465Y-122813675D02*
G01*
X80546955Y-122813675D01*
X80602070Y-122823977D01*
X80655040Y-122829195D01*
X80695279Y-122841401D01*
X80737570Y-122849307D01*
X80796142Y-122871997D01*
X80852200Y-122889003D01*
X80884231Y-122906123D01*
X80918382Y-122919354D01*
X80977719Y-122956093D01*
X81033904Y-122986125D01*
X81057509Y-123005497D01*
X81083251Y-123021436D01*
X81140290Y-123073434D01*
X81193169Y-123116831D01*
X81208839Y-123135924D01*
X81226557Y-123152077D01*
X81277989Y-123220184D01*
X81323875Y-123276096D01*
X81332748Y-123292697D01*
X81343415Y-123306822D01*
X81385860Y-123392064D01*
X81420997Y-123457800D01*
X81424743Y-123470151D01*
X81429848Y-123480402D01*
X81459997Y-123586368D01*
X81480805Y-123654960D01*
X81481488Y-123661900D01*
X81482915Y-123666914D01*
X81497739Y-123826893D01*
X81501000Y-123860000D01*
X81497738Y-123893109D01*
X81482915Y-124053085D01*
X81481488Y-124058097D01*
X81480805Y-124065040D01*
X81459993Y-124133646D01*
X81429848Y-124239597D01*
X81424744Y-124249846D01*
X81420997Y-124262200D01*
X81385853Y-124327949D01*
X81343415Y-124413177D01*
X81332750Y-124427299D01*
X81323875Y-124443904D01*
X81277979Y-124499827D01*
X81226557Y-124567922D01*
X81208842Y-124584071D01*
X81193169Y-124603169D01*
X81140279Y-124646574D01*
X81083251Y-124698563D01*
X81057514Y-124714498D01*
X81033904Y-124733875D01*
X80977707Y-124763912D01*
X80918382Y-124800645D01*
X80884238Y-124813872D01*
X80852200Y-124830997D01*
X80796130Y-124848005D01*
X80737570Y-124870692D01*
X80695286Y-124878596D01*
X80655040Y-124890805D01*
X80602067Y-124896022D01*
X80546955Y-124906325D01*
X80497465Y-124906325D01*
X80450000Y-124911000D01*
X80402535Y-124906325D01*
X80353045Y-124906325D01*
X80297931Y-124896022D01*
X80244960Y-124890805D01*
X80204714Y-124878596D01*
X80162429Y-124870692D01*
X80103865Y-124848004D01*
X80047800Y-124830997D01*
X80015764Y-124813873D01*
X79981617Y-124800645D01*
X79922285Y-124763908D01*
X79866096Y-124733875D01*
X79842488Y-124714500D01*
X79816748Y-124698563D01*
X79759710Y-124646565D01*
X79706831Y-124603169D01*
X79691160Y-124584074D01*
X79673442Y-124567922D01*
X79622007Y-124499811D01*
X79576125Y-124443904D01*
X79567252Y-124427303D01*
X79556584Y-124413177D01*
X79514131Y-124327921D01*
X79479003Y-124262200D01*
X79475257Y-124249851D01*
X79470151Y-124239597D01*
X79439990Y-124133593D01*
X79419195Y-124065040D01*
X79418511Y-124058103D01*
X79417084Y-124053085D01*
X79402244Y-123892938D01*
X79399000Y-123860000D01*
X79402243Y-123827064D01*
X79417084Y-123666914D01*
X79418511Y-123661895D01*
X79419195Y-123654960D01*
X79439986Y-123586421D01*
X79470151Y-123480402D01*
X79475257Y-123470146D01*
X79479003Y-123457800D01*
X79514124Y-123392091D01*
X79556584Y-123306822D01*
X79567253Y-123292692D01*
X79576125Y-123276096D01*
X79621998Y-123220199D01*
X79673442Y-123152077D01*
X79691163Y-123135921D01*
X79706831Y-123116831D01*
X79759699Y-123073443D01*
X79816748Y-123021436D01*
X79842493Y-123005495D01*
X79866096Y-122986125D01*
X79922273Y-122956097D01*
X79981617Y-122919354D01*
X80015771Y-122906122D01*
X80047800Y-122889003D01*
X80103853Y-122871999D01*
X80162429Y-122849307D01*
X80204721Y-122841401D01*
X80244960Y-122829195D01*
X80297928Y-122823977D01*
X80353045Y-122813675D01*
X80402535Y-122813675D01*
X80450000Y-122809000D01*
X80497465Y-122813675D01*
G37*
G36*
X129017465Y-122813675D02*
G01*
X129066955Y-122813675D01*
X129122070Y-122823977D01*
X129175040Y-122829195D01*
X129215279Y-122841401D01*
X129257570Y-122849307D01*
X129316142Y-122871997D01*
X129372200Y-122889003D01*
X129404231Y-122906123D01*
X129438382Y-122919354D01*
X129497719Y-122956093D01*
X129553904Y-122986125D01*
X129577509Y-123005497D01*
X129603251Y-123021436D01*
X129660290Y-123073434D01*
X129713169Y-123116831D01*
X129728839Y-123135924D01*
X129746557Y-123152077D01*
X129797989Y-123220184D01*
X129843875Y-123276096D01*
X129852748Y-123292697D01*
X129863415Y-123306822D01*
X129905860Y-123392064D01*
X129940997Y-123457800D01*
X129944743Y-123470151D01*
X129949848Y-123480402D01*
X129979997Y-123586368D01*
X130000805Y-123654960D01*
X130001488Y-123661900D01*
X130002915Y-123666914D01*
X130017739Y-123826893D01*
X130021000Y-123860000D01*
X130017738Y-123893109D01*
X130002915Y-124053085D01*
X130001488Y-124058097D01*
X130000805Y-124065040D01*
X129979993Y-124133646D01*
X129949848Y-124239597D01*
X129944744Y-124249846D01*
X129940997Y-124262200D01*
X129905853Y-124327949D01*
X129863415Y-124413177D01*
X129852750Y-124427299D01*
X129843875Y-124443904D01*
X129797979Y-124499827D01*
X129746557Y-124567922D01*
X129728842Y-124584071D01*
X129713169Y-124603169D01*
X129660279Y-124646574D01*
X129603251Y-124698563D01*
X129577514Y-124714498D01*
X129553904Y-124733875D01*
X129497707Y-124763912D01*
X129438382Y-124800645D01*
X129404238Y-124813872D01*
X129372200Y-124830997D01*
X129316130Y-124848005D01*
X129257570Y-124870692D01*
X129215286Y-124878596D01*
X129175040Y-124890805D01*
X129122067Y-124896022D01*
X129066955Y-124906325D01*
X129017465Y-124906325D01*
X128970000Y-124911000D01*
X128922535Y-124906325D01*
X128873045Y-124906325D01*
X128817931Y-124896022D01*
X128764960Y-124890805D01*
X128724714Y-124878596D01*
X128682429Y-124870692D01*
X128623865Y-124848004D01*
X128567800Y-124830997D01*
X128535764Y-124813873D01*
X128501617Y-124800645D01*
X128442285Y-124763908D01*
X128386096Y-124733875D01*
X128362488Y-124714500D01*
X128336748Y-124698563D01*
X128279710Y-124646565D01*
X128226831Y-124603169D01*
X128211160Y-124584074D01*
X128193442Y-124567922D01*
X128142007Y-124499811D01*
X128096125Y-124443904D01*
X128087252Y-124427303D01*
X128076584Y-124413177D01*
X128034131Y-124327921D01*
X127999003Y-124262200D01*
X127995257Y-124249851D01*
X127990151Y-124239597D01*
X127959990Y-124133593D01*
X127939195Y-124065040D01*
X127938511Y-124058103D01*
X127937084Y-124053085D01*
X127922244Y-123892938D01*
X127919000Y-123860000D01*
X127922243Y-123827064D01*
X127937084Y-123666914D01*
X127938511Y-123661895D01*
X127939195Y-123654960D01*
X127959986Y-123586421D01*
X127990151Y-123480402D01*
X127995257Y-123470146D01*
X127999003Y-123457800D01*
X128034124Y-123392091D01*
X128076584Y-123306822D01*
X128087253Y-123292692D01*
X128096125Y-123276096D01*
X128141998Y-123220199D01*
X128193442Y-123152077D01*
X128211163Y-123135921D01*
X128226831Y-123116831D01*
X128279699Y-123073443D01*
X128336748Y-123021436D01*
X128362493Y-123005495D01*
X128386096Y-122986125D01*
X128442273Y-122956097D01*
X128501617Y-122919354D01*
X128535771Y-122906122D01*
X128567800Y-122889003D01*
X128623853Y-122871999D01*
X128682429Y-122849307D01*
X128724721Y-122841401D01*
X128764960Y-122829195D01*
X128817928Y-122823977D01*
X128873045Y-122813675D01*
X128922535Y-122813675D01*
X128970000Y-122809000D01*
X129017465Y-122813675D01*
G37*
G36*
X126766592Y-101714133D02*
G01*
X126804305Y-101723816D01*
X126840714Y-101728237D01*
X126880945Y-101743494D01*
X126924649Y-101754716D01*
X126956043Y-101771975D01*
X126987384Y-101783861D01*
X127025417Y-101810113D01*
X127067648Y-101833330D01*
X127091494Y-101855723D01*
X127116472Y-101872964D01*
X127149230Y-101909940D01*
X127186604Y-101945037D01*
X127202466Y-101970033D01*
X127220489Y-101990376D01*
X127244930Y-102036946D01*
X127274042Y-102082818D01*
X127282226Y-102108005D01*
X127293387Y-102129271D01*
X127306744Y-102183466D01*
X127324469Y-102238015D01*
X127325935Y-102261325D01*
X127330925Y-102281569D01*
X127330925Y-102340634D01*
X127334715Y-102400877D01*
X127330925Y-102420745D01*
X127330925Y-102438430D01*
X127316002Y-102498973D01*
X127304138Y-102561170D01*
X127296860Y-102576635D01*
X127293387Y-102590728D01*
X127262846Y-102648917D01*
X127234657Y-102708823D01*
X127225763Y-102719573D01*
X127220489Y-102729623D01*
X127174582Y-102781441D01*
X127130640Y-102834559D01*
X127121897Y-102840910D01*
X127116472Y-102847035D01*
X127056344Y-102888537D01*
X126998622Y-102930476D01*
X126991503Y-102933294D01*
X126987384Y-102936138D01*
X126914691Y-102963706D01*
X126846897Y-102990548D01*
X126842425Y-102991112D01*
X126840714Y-102991762D01*
X126752427Y-103002482D01*
X126685000Y-103011000D01*
X126682277Y-103011000D01*
X126137723Y-103011000D01*
X126135000Y-103011000D01*
X126053408Y-103005867D01*
X126015689Y-102996182D01*
X125979285Y-102991762D01*
X125939059Y-102976506D01*
X125895351Y-102965284D01*
X125863952Y-102948022D01*
X125832615Y-102936138D01*
X125794584Y-102909887D01*
X125752352Y-102886670D01*
X125728504Y-102864275D01*
X125703527Y-102847035D01*
X125670769Y-102810058D01*
X125633396Y-102774963D01*
X125617533Y-102749967D01*
X125599510Y-102729623D01*
X125575066Y-102683049D01*
X125545958Y-102637182D01*
X125537774Y-102611996D01*
X125526612Y-102590728D01*
X125513253Y-102536528D01*
X125495531Y-102481985D01*
X125494064Y-102458673D01*
X125489075Y-102438430D01*
X125489075Y-102379365D01*
X125485285Y-102319123D01*
X125489075Y-102299254D01*
X125489075Y-102281569D01*
X125503999Y-102221015D01*
X125515862Y-102158830D01*
X125523137Y-102143369D01*
X125526612Y-102129271D01*
X125557166Y-102071054D01*
X125585343Y-102011177D01*
X125594232Y-102000431D01*
X125599510Y-101990376D01*
X125645444Y-101938526D01*
X125689360Y-101885441D01*
X125698097Y-101879093D01*
X125703527Y-101872964D01*
X125763701Y-101831428D01*
X125821378Y-101789524D01*
X125828490Y-101786708D01*
X125832615Y-101783861D01*
X125905390Y-101756261D01*
X125973103Y-101729452D01*
X125977568Y-101728887D01*
X125979285Y-101728237D01*
X126067673Y-101717505D01*
X126135000Y-101709000D01*
X126685000Y-101709000D01*
X126766592Y-101714133D01*
G37*
G36*
X127103914Y-99716995D02*
G01*
X127108645Y-99719084D01*
X127111811Y-99719501D01*
X127151442Y-99737981D01*
X127205106Y-99761676D01*
X127283324Y-99839894D01*
X127307028Y-99893579D01*
X127325498Y-99933188D01*
X127325914Y-99936351D01*
X127328005Y-99941086D01*
X127336000Y-100010000D01*
X127336000Y-100710000D01*
X127328005Y-100778914D01*
X127325914Y-100783648D01*
X127325498Y-100786811D01*
X127307036Y-100826402D01*
X127283324Y-100880106D01*
X127205106Y-100958324D01*
X127151402Y-100982036D01*
X127111811Y-101000498D01*
X127108648Y-101000914D01*
X127103914Y-101003005D01*
X127035000Y-101011000D01*
X125785000Y-101011000D01*
X125716086Y-101003005D01*
X125711351Y-101000914D01*
X125708188Y-101000498D01*
X125668579Y-100982028D01*
X125614894Y-100958324D01*
X125536676Y-100880106D01*
X125512981Y-100826442D01*
X125494501Y-100786811D01*
X125494084Y-100783645D01*
X125491995Y-100778914D01*
X125484000Y-100710000D01*
X125484000Y-100010000D01*
X125491995Y-99941086D01*
X125494084Y-99936354D01*
X125494501Y-99933188D01*
X125512989Y-99893538D01*
X125536676Y-99839894D01*
X125614894Y-99761676D01*
X125668538Y-99737989D01*
X125708188Y-99719501D01*
X125711354Y-99719084D01*
X125716086Y-99716995D01*
X125785000Y-99709000D01*
X127035000Y-99709000D01*
X127103914Y-99716995D01*
G37*
G36*
X89028760Y-94397000D02*
G01*
X89033489Y-94399088D01*
X89036662Y-94399506D01*
X89076371Y-94418022D01*
X89130019Y-94441711D01*
X89208289Y-94519981D01*
X89231992Y-94573662D01*
X89250492Y-94613336D01*
X89250909Y-94616504D01*
X89253000Y-94621240D01*
X89261000Y-94690200D01*
X89261000Y-95989800D01*
X89253000Y-96058760D01*
X89250910Y-96063492D01*
X89250493Y-96066662D01*
X89231995Y-96106330D01*
X89208289Y-96160019D01*
X89130019Y-96238289D01*
X89076318Y-96262000D01*
X89036663Y-96280492D01*
X89033495Y-96280908D01*
X89028760Y-96283000D01*
X88959800Y-96291000D01*
X87660200Y-96291000D01*
X87591240Y-96283000D01*
X87586507Y-96280910D01*
X87583337Y-96280493D01*
X87543650Y-96261986D01*
X87489981Y-96238289D01*
X87411711Y-96160019D01*
X87388017Y-96106358D01*
X87369507Y-96066663D01*
X87369089Y-96063492D01*
X87367000Y-96058760D01*
X87359000Y-95989800D01*
X87359000Y-94690200D01*
X87367000Y-94621240D01*
X87369088Y-94616510D01*
X87369506Y-94613337D01*
X87388031Y-94573609D01*
X87411711Y-94519981D01*
X87489981Y-94441711D01*
X87543622Y-94418025D01*
X87583336Y-94399507D01*
X87586507Y-94399089D01*
X87591240Y-94397000D01*
X87660200Y-94389000D01*
X88959800Y-94389000D01*
X89028760Y-94397000D01*
G37*
G36*
X91035531Y-94407273D02*
G01*
X91213932Y-94461391D01*
X91378347Y-94549272D01*
X91522459Y-94667541D01*
X91640728Y-94811653D01*
X91728609Y-94976068D01*
X91782727Y-95154469D01*
X91801000Y-95340000D01*
X91782727Y-95525531D01*
X91728609Y-95703932D01*
X91640728Y-95868347D01*
X91522459Y-96012459D01*
X91378347Y-96130728D01*
X91213932Y-96218609D01*
X91035531Y-96272727D01*
X90850000Y-96291000D01*
X90664469Y-96272727D01*
X90486068Y-96218609D01*
X90321653Y-96130728D01*
X90177541Y-96012459D01*
X90059272Y-95868347D01*
X89971391Y-95703932D01*
X89917273Y-95525531D01*
X89899000Y-95340000D01*
X89917273Y-95154469D01*
X89971391Y-94976068D01*
X90059272Y-94811653D01*
X90177541Y-94667541D01*
X90321653Y-94549272D01*
X90486068Y-94461391D01*
X90664469Y-94407273D01*
X90850000Y-94389000D01*
X91035531Y-94407273D01*
G37*
G36*
X93575531Y-94407273D02*
G01*
X93753932Y-94461391D01*
X93918347Y-94549272D01*
X94062459Y-94667541D01*
X94180728Y-94811653D01*
X94268609Y-94976068D01*
X94322727Y-95154469D01*
X94341000Y-95340000D01*
X94322727Y-95525531D01*
X94268609Y-95703932D01*
X94180728Y-95868347D01*
X94062459Y-96012459D01*
X93918347Y-96130728D01*
X93753932Y-96218609D01*
X93575531Y-96272727D01*
X93390000Y-96291000D01*
X93204469Y-96272727D01*
X93026068Y-96218609D01*
X92861653Y-96130728D01*
X92717541Y-96012459D01*
X92599272Y-95868347D01*
X92511391Y-95703932D01*
X92457273Y-95525531D01*
X92439000Y-95340000D01*
X92457273Y-95154469D01*
X92511391Y-94976068D01*
X92599272Y-94811653D01*
X92717541Y-94667541D01*
X92861653Y-94549272D01*
X93026068Y-94461391D01*
X93204469Y-94407273D01*
X93390000Y-94389000D01*
X93575531Y-94407273D01*
G37*
G36*
X130238760Y-89077000D02*
G01*
X130243489Y-89079088D01*
X130246662Y-89079506D01*
X130286371Y-89098022D01*
X130340019Y-89121711D01*
X130418289Y-89199981D01*
X130441992Y-89253662D01*
X130460492Y-89293336D01*
X130460909Y-89296504D01*
X130463000Y-89301240D01*
X130471000Y-89370200D01*
X130471000Y-90669800D01*
X130463000Y-90738760D01*
X130460910Y-90743492D01*
X130460493Y-90746662D01*
X130441995Y-90786330D01*
X130418289Y-90840019D01*
X130340019Y-90918289D01*
X130286318Y-90942000D01*
X130246663Y-90960492D01*
X130243495Y-90960908D01*
X130238760Y-90963000D01*
X130169800Y-90971000D01*
X128870200Y-90971000D01*
X128801240Y-90963000D01*
X128796507Y-90960910D01*
X128793337Y-90960493D01*
X128753650Y-90941986D01*
X128699981Y-90918289D01*
X128621711Y-90840019D01*
X128598017Y-90786358D01*
X128579507Y-90746663D01*
X128579089Y-90743492D01*
X128577000Y-90738760D01*
X128569000Y-90669800D01*
X128569000Y-89370200D01*
X128577000Y-89301240D01*
X128579088Y-89296510D01*
X128579506Y-89293337D01*
X128598031Y-89253609D01*
X128621711Y-89199981D01*
X128699981Y-89121711D01*
X128753622Y-89098025D01*
X128793336Y-89079507D01*
X128796507Y-89079089D01*
X128801240Y-89077000D01*
X128870200Y-89069000D01*
X130169800Y-89069000D01*
X130238760Y-89077000D01*
G37*
G36*
X132245531Y-89087273D02*
G01*
X132423932Y-89141391D01*
X132588347Y-89229272D01*
X132732459Y-89347541D01*
X132850728Y-89491653D01*
X132938609Y-89656068D01*
X132992727Y-89834469D01*
X133011000Y-90020000D01*
X132992727Y-90205531D01*
X132938609Y-90383932D01*
X132850728Y-90548347D01*
X132732459Y-90692459D01*
X132588347Y-90810728D01*
X132423932Y-90898609D01*
X132245531Y-90952727D01*
X132060000Y-90971000D01*
X131874469Y-90952727D01*
X131696068Y-90898609D01*
X131531653Y-90810728D01*
X131387541Y-90692459D01*
X131269272Y-90548347D01*
X131181391Y-90383932D01*
X131127273Y-90205531D01*
X131109000Y-90020000D01*
X131127273Y-89834469D01*
X131181391Y-89656068D01*
X131269272Y-89491653D01*
X131387541Y-89347541D01*
X131531653Y-89229272D01*
X131696068Y-89141391D01*
X131874469Y-89087273D01*
X132060000Y-89069000D01*
X132245531Y-89087273D01*
G37*
G36*
X134785531Y-89087273D02*
G01*
X134963932Y-89141391D01*
X135128347Y-89229272D01*
X135272459Y-89347541D01*
X135390728Y-89491653D01*
X135478609Y-89656068D01*
X135532727Y-89834469D01*
X135551000Y-90020000D01*
X135532727Y-90205531D01*
X135478609Y-90383932D01*
X135390728Y-90548347D01*
X135272459Y-90692459D01*
X135128347Y-90810728D01*
X134963932Y-90898609D01*
X134785531Y-90952727D01*
X134600000Y-90971000D01*
X134414469Y-90952727D01*
X134236068Y-90898609D01*
X134071653Y-90810728D01*
X133927541Y-90692459D01*
X133809272Y-90548347D01*
X133721391Y-90383932D01*
X133667273Y-90205531D01*
X133649000Y-90020000D01*
X133667273Y-89834469D01*
X133721391Y-89656068D01*
X133809272Y-89491653D01*
X133927541Y-89347541D01*
X134071653Y-89229272D01*
X134236068Y-89141391D01*
X134414469Y-89087273D01*
X134600000Y-89069000D01*
X134785531Y-89087273D01*
G37*
G36*
X140727528Y-87986632D02*
G01*
X140762087Y-87996315D01*
X140795006Y-88000649D01*
X140831489Y-88015760D01*
X140872019Y-88027117D01*
X140900034Y-88044153D01*
X140927806Y-88055657D01*
X140961628Y-88081609D01*
X141000229Y-88105083D01*
X141020482Y-88126769D01*
X141041841Y-88143158D01*
X141069713Y-88179482D01*
X141102650Y-88214749D01*
X141114870Y-88238332D01*
X141129342Y-88257193D01*
X141148067Y-88302399D01*
X141171686Y-88347981D01*
X141176455Y-88370934D01*
X141184350Y-88389993D01*
X141191151Y-88441655D01*
X141202215Y-88494898D01*
X141200828Y-88515164D01*
X141203111Y-88532500D01*
X141195892Y-88587331D01*
X141191975Y-88644604D01*
X141186221Y-88660794D01*
X141184350Y-88675007D01*
X141161954Y-88729073D01*
X141141725Y-88785996D01*
X141133622Y-88797475D01*
X141129343Y-88807806D01*
X141091717Y-88856839D01*
X141055191Y-88908587D01*
X141046727Y-88915472D01*
X141041841Y-88921841D01*
X140990088Y-88961551D01*
X140938791Y-89003285D01*
X140931667Y-89006379D01*
X140927806Y-89009342D01*
X140863977Y-89035780D01*
X140801158Y-89063067D01*
X140796586Y-89063695D01*
X140795006Y-89064350D01*
X140719510Y-89074289D01*
X140652500Y-89083500D01*
X140649551Y-89083500D01*
X139555449Y-89083500D01*
X139552500Y-89083500D01*
X139477472Y-89078368D01*
X139442907Y-89068683D01*
X139409993Y-89064350D01*
X139373515Y-89049240D01*
X139332981Y-89037883D01*
X139304962Y-89020844D01*
X139277193Y-89009342D01*
X139243372Y-88983391D01*
X139204771Y-88959917D01*
X139184516Y-88938229D01*
X139163158Y-88921841D01*
X139135285Y-88885515D01*
X139102350Y-88850251D01*
X139090130Y-88826668D01*
X139075657Y-88807806D01*
X139056929Y-88762595D01*
X139033314Y-88717019D01*
X139028544Y-88694068D01*
X139020649Y-88675006D01*
X139013846Y-88623332D01*
X139002785Y-88570102D01*
X139004170Y-88549840D01*
X139001888Y-88532500D01*
X139009108Y-88477652D01*
X139013025Y-88420396D01*
X139018777Y-88404210D01*
X139020649Y-88389992D01*
X139043053Y-88335902D01*
X139063275Y-88279004D01*
X139071374Y-88267529D01*
X139075656Y-88257193D01*
X139113302Y-88208131D01*
X139149809Y-88156413D01*
X139158267Y-88149531D01*
X139163158Y-88143158D01*
X139214949Y-88103417D01*
X139266209Y-88061715D01*
X139273327Y-88058622D01*
X139277193Y-88055657D01*
X139341092Y-88029188D01*
X139403842Y-88001933D01*
X139408408Y-88001305D01*
X139409993Y-88000649D01*
X139485582Y-87990697D01*
X139552500Y-87981500D01*
X140652500Y-87981500D01*
X140727528Y-87986632D01*
G37*
G36*
X144757528Y-87986632D02*
G01*
X144792087Y-87996315D01*
X144825006Y-88000649D01*
X144861489Y-88015760D01*
X144902019Y-88027117D01*
X144930034Y-88044153D01*
X144957806Y-88055657D01*
X144991628Y-88081609D01*
X145030229Y-88105083D01*
X145050482Y-88126769D01*
X145071841Y-88143158D01*
X145099713Y-88179482D01*
X145132650Y-88214749D01*
X145144870Y-88238332D01*
X145159342Y-88257193D01*
X145178067Y-88302399D01*
X145201686Y-88347981D01*
X145206455Y-88370934D01*
X145214350Y-88389993D01*
X145221151Y-88441655D01*
X145232215Y-88494898D01*
X145230828Y-88515164D01*
X145233111Y-88532500D01*
X145225892Y-88587331D01*
X145221975Y-88644604D01*
X145216221Y-88660794D01*
X145214350Y-88675007D01*
X145191954Y-88729073D01*
X145171725Y-88785996D01*
X145163622Y-88797475D01*
X145159343Y-88807806D01*
X145121717Y-88856839D01*
X145085191Y-88908587D01*
X145076727Y-88915472D01*
X145071841Y-88921841D01*
X145020088Y-88961551D01*
X144968791Y-89003285D01*
X144961667Y-89006379D01*
X144957806Y-89009342D01*
X144893977Y-89035780D01*
X144831158Y-89063067D01*
X144826586Y-89063695D01*
X144825006Y-89064350D01*
X144749510Y-89074289D01*
X144682500Y-89083500D01*
X144679551Y-89083500D01*
X143885449Y-89083500D01*
X143882500Y-89083500D01*
X143807472Y-89078368D01*
X143772907Y-89068683D01*
X143739993Y-89064350D01*
X143703515Y-89049240D01*
X143662981Y-89037883D01*
X143634962Y-89020844D01*
X143607193Y-89009342D01*
X143573372Y-88983391D01*
X143534771Y-88959917D01*
X143514516Y-88938229D01*
X143493158Y-88921841D01*
X143465285Y-88885515D01*
X143432350Y-88850251D01*
X143420130Y-88826668D01*
X143405657Y-88807806D01*
X143386929Y-88762595D01*
X143363314Y-88717019D01*
X143358544Y-88694068D01*
X143350649Y-88675006D01*
X143343846Y-88623332D01*
X143332785Y-88570102D01*
X143334170Y-88549840D01*
X143331888Y-88532500D01*
X143339108Y-88477652D01*
X143343025Y-88420396D01*
X143348777Y-88404210D01*
X143350649Y-88389992D01*
X143373053Y-88335902D01*
X143393275Y-88279004D01*
X143401374Y-88267529D01*
X143405656Y-88257193D01*
X143443302Y-88208131D01*
X143479809Y-88156413D01*
X143488267Y-88149531D01*
X143493158Y-88143158D01*
X143544949Y-88103417D01*
X143596209Y-88061715D01*
X143603327Y-88058622D01*
X143607193Y-88055657D01*
X143671092Y-88029188D01*
X143733842Y-88001933D01*
X143738408Y-88001305D01*
X143739993Y-88000649D01*
X143815582Y-87990697D01*
X143882500Y-87981500D01*
X144682500Y-87981500D01*
X144757528Y-87986632D01*
G37*
G36*
X140718690Y-86744903D02*
G01*
X140823507Y-86798310D01*
X140906690Y-86881493D01*
X140960097Y-86986310D01*
X140978500Y-87102500D01*
X140960097Y-87218690D01*
X140906690Y-87323507D01*
X140823507Y-87406690D01*
X140718690Y-87460097D01*
X140602500Y-87478500D01*
X140486310Y-87460097D01*
X140381493Y-87406690D01*
X140298310Y-87323507D01*
X140244903Y-87218690D01*
X140226500Y-87102500D01*
X140244903Y-86986310D01*
X140298310Y-86881493D01*
X140381493Y-86798310D01*
X140486310Y-86744903D01*
X140602500Y-86726500D01*
X140718690Y-86744903D01*
G37*
G36*
X140718690Y-80964903D02*
G01*
X140823507Y-81018310D01*
X140906690Y-81101493D01*
X140960097Y-81206310D01*
X140978500Y-81322500D01*
X140960097Y-81438690D01*
X140906690Y-81543507D01*
X140823507Y-81626690D01*
X140718690Y-81680097D01*
X140602500Y-81698500D01*
X140486310Y-81680097D01*
X140381493Y-81626690D01*
X140298310Y-81543507D01*
X140244903Y-81438690D01*
X140226500Y-81322500D01*
X140244903Y-81206310D01*
X140298310Y-81101493D01*
X140381493Y-81018310D01*
X140486310Y-80964903D01*
X140602500Y-80946500D01*
X140718690Y-80964903D01*
G37*
G36*
X140727528Y-79346632D02*
G01*
X140762087Y-79356315D01*
X140795006Y-79360649D01*
X140831489Y-79375760D01*
X140872019Y-79387117D01*
X140900034Y-79404153D01*
X140927806Y-79415657D01*
X140961628Y-79441609D01*
X141000229Y-79465083D01*
X141020482Y-79486769D01*
X141041841Y-79503158D01*
X141069713Y-79539482D01*
X141102650Y-79574749D01*
X141114870Y-79598332D01*
X141129342Y-79617193D01*
X141148067Y-79662399D01*
X141171686Y-79707981D01*
X141176455Y-79730934D01*
X141184350Y-79749993D01*
X141191151Y-79801655D01*
X141202215Y-79854898D01*
X141200828Y-79875164D01*
X141203111Y-79892500D01*
X141195892Y-79947331D01*
X141191975Y-80004604D01*
X141186221Y-80020794D01*
X141184350Y-80035007D01*
X141161954Y-80089073D01*
X141141725Y-80145996D01*
X141133622Y-80157475D01*
X141129343Y-80167806D01*
X141091717Y-80216839D01*
X141055191Y-80268587D01*
X141046727Y-80275472D01*
X141041841Y-80281841D01*
X140990088Y-80321551D01*
X140938791Y-80363285D01*
X140931667Y-80366379D01*
X140927806Y-80369342D01*
X140863977Y-80395780D01*
X140801158Y-80423067D01*
X140796586Y-80423695D01*
X140795006Y-80424350D01*
X140719510Y-80434289D01*
X140652500Y-80443500D01*
X140649551Y-80443500D01*
X139555449Y-80443500D01*
X139552500Y-80443500D01*
X139477472Y-80438368D01*
X139442907Y-80428683D01*
X139409993Y-80424350D01*
X139373515Y-80409240D01*
X139332981Y-80397883D01*
X139304962Y-80380844D01*
X139277193Y-80369342D01*
X139243372Y-80343391D01*
X139204771Y-80319917D01*
X139184516Y-80298229D01*
X139163158Y-80281841D01*
X139135285Y-80245515D01*
X139102350Y-80210251D01*
X139090130Y-80186668D01*
X139075657Y-80167806D01*
X139056929Y-80122595D01*
X139033314Y-80077019D01*
X139028544Y-80054068D01*
X139020649Y-80035006D01*
X139013846Y-79983332D01*
X139002785Y-79930102D01*
X139004170Y-79909840D01*
X139001888Y-79892500D01*
X139009108Y-79837652D01*
X139013025Y-79780396D01*
X139018777Y-79764210D01*
X139020649Y-79749992D01*
X139043053Y-79695902D01*
X139063275Y-79639004D01*
X139071374Y-79627529D01*
X139075656Y-79617193D01*
X139113302Y-79568131D01*
X139149809Y-79516413D01*
X139158267Y-79509531D01*
X139163158Y-79503158D01*
X139214949Y-79463417D01*
X139266209Y-79421715D01*
X139273327Y-79418622D01*
X139277193Y-79415657D01*
X139341092Y-79389188D01*
X139403842Y-79361933D01*
X139408408Y-79361305D01*
X139409993Y-79360649D01*
X139485582Y-79350697D01*
X139552500Y-79341500D01*
X140652500Y-79341500D01*
X140727528Y-79346632D01*
G37*
G36*
X144757528Y-79346632D02*
G01*
X144792087Y-79356315D01*
X144825006Y-79360649D01*
X144861489Y-79375760D01*
X144902019Y-79387117D01*
X144930034Y-79404153D01*
X144957806Y-79415657D01*
X144991628Y-79441609D01*
X145030229Y-79465083D01*
X145050482Y-79486769D01*
X145071841Y-79503158D01*
X145099713Y-79539482D01*
X145132650Y-79574749D01*
X145144870Y-79598332D01*
X145159342Y-79617193D01*
X145178067Y-79662399D01*
X145201686Y-79707981D01*
X145206455Y-79730934D01*
X145214350Y-79749993D01*
X145221151Y-79801655D01*
X145232215Y-79854898D01*
X145230828Y-79875164D01*
X145233111Y-79892500D01*
X145225892Y-79947331D01*
X145221975Y-80004604D01*
X145216221Y-80020794D01*
X145214350Y-80035007D01*
X145191954Y-80089073D01*
X145171725Y-80145996D01*
X145163622Y-80157475D01*
X145159343Y-80167806D01*
X145121717Y-80216839D01*
X145085191Y-80268587D01*
X145076727Y-80275472D01*
X145071841Y-80281841D01*
X145020088Y-80321551D01*
X144968791Y-80363285D01*
X144961667Y-80366379D01*
X144957806Y-80369342D01*
X144893977Y-80395780D01*
X144831158Y-80423067D01*
X144826586Y-80423695D01*
X144825006Y-80424350D01*
X144749510Y-80434289D01*
X144682500Y-80443500D01*
X144679551Y-80443500D01*
X143885449Y-80443500D01*
X143882500Y-80443500D01*
X143807472Y-80438368D01*
X143772907Y-80428683D01*
X143739993Y-80424350D01*
X143703515Y-80409240D01*
X143662981Y-80397883D01*
X143634962Y-80380844D01*
X143607193Y-80369342D01*
X143573372Y-80343391D01*
X143534771Y-80319917D01*
X143514516Y-80298229D01*
X143493158Y-80281841D01*
X143465285Y-80245515D01*
X143432350Y-80210251D01*
X143420130Y-80186668D01*
X143405657Y-80167806D01*
X143386929Y-80122595D01*
X143363314Y-80077019D01*
X143358544Y-80054068D01*
X143350649Y-80035006D01*
X143343846Y-79983332D01*
X143332785Y-79930102D01*
X143334170Y-79909840D01*
X143331888Y-79892500D01*
X143339108Y-79837652D01*
X143343025Y-79780396D01*
X143348777Y-79764210D01*
X143350649Y-79749992D01*
X143373053Y-79695902D01*
X143393275Y-79639004D01*
X143401374Y-79627529D01*
X143405656Y-79617193D01*
X143443302Y-79568131D01*
X143479809Y-79516413D01*
X143488267Y-79509531D01*
X143493158Y-79503158D01*
X143544949Y-79463417D01*
X143596209Y-79421715D01*
X143603327Y-79418622D01*
X143607193Y-79415657D01*
X143671092Y-79389188D01*
X143733842Y-79361933D01*
X143738408Y-79361305D01*
X143739993Y-79360649D01*
X143815582Y-79350697D01*
X143882500Y-79341500D01*
X144682500Y-79341500D01*
X144757528Y-79346632D01*
G37*
G36*
X133317913Y-45753936D02*
G01*
X133364180Y-45753936D01*
X133404129Y-45762427D01*
X133445733Y-45766525D01*
X133497998Y-45782379D01*
X133548424Y-45793098D01*
X133580694Y-45807465D01*
X133614712Y-45817785D01*
X133668767Y-45846678D01*
X133720500Y-45869711D01*
X133744551Y-45887185D01*
X133770447Y-45901027D01*
X133823271Y-45944378D01*
X133872887Y-45980427D01*
X133888996Y-45998318D01*
X133906948Y-46013051D01*
X133955188Y-46071831D01*
X133998924Y-46120405D01*
X134008111Y-46136319D01*
X134018972Y-46149552D01*
X134059149Y-46224719D01*
X134093104Y-46283530D01*
X134097009Y-46295550D01*
X134102214Y-46305287D01*
X134130913Y-46399896D01*
X134151311Y-46462672D01*
X134152028Y-46469502D01*
X134153474Y-46474266D01*
X134167536Y-46617042D01*
X134171000Y-46650000D01*
X134167535Y-46682959D01*
X134153474Y-46825733D01*
X134152029Y-46830496D01*
X134151311Y-46837328D01*
X134130909Y-46900117D01*
X134102214Y-46994712D01*
X134097010Y-47004447D01*
X134093104Y-47016470D01*
X134059142Y-47075293D01*
X134018972Y-47150447D01*
X134008113Y-47163677D01*
X133998924Y-47179595D01*
X133955178Y-47228178D01*
X133906948Y-47286948D01*
X133889000Y-47301677D01*
X133872887Y-47319573D01*
X133823260Y-47355628D01*
X133770447Y-47398972D01*
X133744557Y-47412810D01*
X133720500Y-47430289D01*
X133668756Y-47453326D01*
X133614712Y-47482214D01*
X133580701Y-47492531D01*
X133548424Y-47506902D01*
X133497987Y-47517622D01*
X133445733Y-47533474D01*
X133404138Y-47537570D01*
X133364180Y-47546064D01*
X133317903Y-47546064D01*
X133270000Y-47550782D01*
X133222097Y-47546064D01*
X133175820Y-47546064D01*
X133135862Y-47537570D01*
X133094266Y-47533474D01*
X133042009Y-47517621D01*
X132991576Y-47506902D01*
X132959300Y-47492532D01*
X132925287Y-47482214D01*
X132871237Y-47453323D01*
X132819500Y-47430289D01*
X132795445Y-47412812D01*
X132769552Y-47398972D01*
X132716730Y-47355622D01*
X132667113Y-47319573D01*
X132651002Y-47301680D01*
X132633051Y-47286948D01*
X132584809Y-47228166D01*
X132541076Y-47179595D01*
X132531888Y-47163681D01*
X132521027Y-47150447D01*
X132480844Y-47075269D01*
X132446896Y-47016470D01*
X132442991Y-47004451D01*
X132437785Y-46994712D01*
X132409075Y-46900071D01*
X132388689Y-46837328D01*
X132387971Y-46830501D01*
X132386525Y-46825733D01*
X132372448Y-46682808D01*
X132369000Y-46650000D01*
X132372448Y-46617194D01*
X132386525Y-46474266D01*
X132387971Y-46469497D01*
X132388689Y-46462672D01*
X132409071Y-46399942D01*
X132437785Y-46305287D01*
X132442991Y-46295545D01*
X132446896Y-46283530D01*
X132480836Y-46224742D01*
X132521027Y-46149552D01*
X132531890Y-46136314D01*
X132541076Y-46120405D01*
X132584800Y-46071843D01*
X132633051Y-46013051D01*
X132651005Y-45998315D01*
X132667113Y-45980427D01*
X132716720Y-45944385D01*
X132769552Y-45901027D01*
X132795450Y-45887183D01*
X132819500Y-45869711D01*
X132871226Y-45846681D01*
X132925287Y-45817785D01*
X132959307Y-45807464D01*
X132991576Y-45793098D01*
X133041998Y-45782380D01*
X133094266Y-45766525D01*
X133135871Y-45762427D01*
X133175820Y-45753936D01*
X133222086Y-45753936D01*
X133270000Y-45749217D01*
X133317913Y-45753936D01*
G37*
G36*
X135857913Y-45753936D02*
G01*
X135904180Y-45753936D01*
X135944129Y-45762427D01*
X135985733Y-45766525D01*
X136037998Y-45782379D01*
X136088424Y-45793098D01*
X136120694Y-45807465D01*
X136154712Y-45817785D01*
X136208767Y-45846678D01*
X136260500Y-45869711D01*
X136284551Y-45887185D01*
X136310447Y-45901027D01*
X136363271Y-45944378D01*
X136412887Y-45980427D01*
X136428996Y-45998318D01*
X136446948Y-46013051D01*
X136495188Y-46071831D01*
X136538924Y-46120405D01*
X136548111Y-46136319D01*
X136558972Y-46149552D01*
X136599149Y-46224719D01*
X136633104Y-46283530D01*
X136637009Y-46295550D01*
X136642214Y-46305287D01*
X136670913Y-46399896D01*
X136691311Y-46462672D01*
X136692028Y-46469502D01*
X136693474Y-46474266D01*
X136707536Y-46617042D01*
X136711000Y-46650000D01*
X136707535Y-46682959D01*
X136693474Y-46825733D01*
X136692029Y-46830496D01*
X136691311Y-46837328D01*
X136670909Y-46900117D01*
X136642214Y-46994712D01*
X136637010Y-47004447D01*
X136633104Y-47016470D01*
X136599142Y-47075293D01*
X136558972Y-47150447D01*
X136548113Y-47163677D01*
X136538924Y-47179595D01*
X136495178Y-47228178D01*
X136446948Y-47286948D01*
X136429000Y-47301677D01*
X136412887Y-47319573D01*
X136363260Y-47355628D01*
X136310447Y-47398972D01*
X136284557Y-47412810D01*
X136260500Y-47430289D01*
X136208756Y-47453326D01*
X136154712Y-47482214D01*
X136120701Y-47492531D01*
X136088424Y-47506902D01*
X136037987Y-47517622D01*
X135985733Y-47533474D01*
X135944138Y-47537570D01*
X135904180Y-47546064D01*
X135857903Y-47546064D01*
X135810000Y-47550782D01*
X135762097Y-47546064D01*
X135715820Y-47546064D01*
X135675862Y-47537570D01*
X135634266Y-47533474D01*
X135582009Y-47517621D01*
X135531576Y-47506902D01*
X135499300Y-47492532D01*
X135465287Y-47482214D01*
X135411237Y-47453323D01*
X135359500Y-47430289D01*
X135335445Y-47412812D01*
X135309552Y-47398972D01*
X135256730Y-47355622D01*
X135207113Y-47319573D01*
X135191002Y-47301680D01*
X135173051Y-47286948D01*
X135124809Y-47228166D01*
X135081076Y-47179595D01*
X135071888Y-47163681D01*
X135061027Y-47150447D01*
X135020844Y-47075269D01*
X134986896Y-47016470D01*
X134982991Y-47004451D01*
X134977785Y-46994712D01*
X134949075Y-46900071D01*
X134928689Y-46837328D01*
X134927971Y-46830501D01*
X134926525Y-46825733D01*
X134912448Y-46682808D01*
X134909000Y-46650000D01*
X134912448Y-46617194D01*
X134926525Y-46474266D01*
X134927971Y-46469497D01*
X134928689Y-46462672D01*
X134949071Y-46399942D01*
X134977785Y-46305287D01*
X134982991Y-46295545D01*
X134986896Y-46283530D01*
X135020836Y-46224742D01*
X135061027Y-46149552D01*
X135071890Y-46136314D01*
X135081076Y-46120405D01*
X135124800Y-46071843D01*
X135173051Y-46013051D01*
X135191005Y-45998315D01*
X135207113Y-45980427D01*
X135256720Y-45944385D01*
X135309552Y-45901027D01*
X135335450Y-45887183D01*
X135359500Y-45869711D01*
X135411226Y-45846681D01*
X135465287Y-45817785D01*
X135499307Y-45807464D01*
X135531576Y-45793098D01*
X135581998Y-45782380D01*
X135634266Y-45766525D01*
X135675871Y-45762427D01*
X135715820Y-45753936D01*
X135762086Y-45753936D01*
X135810000Y-45749217D01*
X135857913Y-45753936D01*
G37*
G36*
X60487913Y-45333936D02*
G01*
X60534180Y-45333936D01*
X60574129Y-45342427D01*
X60615733Y-45346525D01*
X60667998Y-45362379D01*
X60718424Y-45373098D01*
X60750694Y-45387465D01*
X60784712Y-45397785D01*
X60838767Y-45426678D01*
X60890500Y-45449711D01*
X60914551Y-45467185D01*
X60940447Y-45481027D01*
X60993271Y-45524378D01*
X61042887Y-45560427D01*
X61058996Y-45578318D01*
X61076948Y-45593051D01*
X61125188Y-45651831D01*
X61168924Y-45700405D01*
X61178111Y-45716319D01*
X61188972Y-45729552D01*
X61229149Y-45804719D01*
X61263104Y-45863530D01*
X61267009Y-45875550D01*
X61272214Y-45885287D01*
X61300913Y-45979896D01*
X61321311Y-46042672D01*
X61322028Y-46049502D01*
X61323474Y-46054266D01*
X61337536Y-46197042D01*
X61341000Y-46230000D01*
X61337535Y-46262959D01*
X61323474Y-46405733D01*
X61322029Y-46410496D01*
X61321311Y-46417328D01*
X61300909Y-46480117D01*
X61272214Y-46574712D01*
X61267010Y-46584447D01*
X61263104Y-46596470D01*
X61229142Y-46655293D01*
X61188972Y-46730447D01*
X61178113Y-46743677D01*
X61168924Y-46759595D01*
X61125178Y-46808178D01*
X61076948Y-46866948D01*
X61059000Y-46881677D01*
X61042887Y-46899573D01*
X60993260Y-46935628D01*
X60940447Y-46978972D01*
X60914557Y-46992810D01*
X60890500Y-47010289D01*
X60838756Y-47033326D01*
X60784712Y-47062214D01*
X60750701Y-47072531D01*
X60718424Y-47086902D01*
X60667987Y-47097622D01*
X60615733Y-47113474D01*
X60574138Y-47117570D01*
X60534180Y-47126064D01*
X60487903Y-47126064D01*
X60440000Y-47130782D01*
X60392097Y-47126064D01*
X60345820Y-47126064D01*
X60305862Y-47117570D01*
X60264266Y-47113474D01*
X60212009Y-47097621D01*
X60161576Y-47086902D01*
X60129300Y-47072532D01*
X60095287Y-47062214D01*
X60041237Y-47033323D01*
X59989500Y-47010289D01*
X59965445Y-46992812D01*
X59939552Y-46978972D01*
X59886730Y-46935622D01*
X59837113Y-46899573D01*
X59821002Y-46881680D01*
X59803051Y-46866948D01*
X59754809Y-46808166D01*
X59711076Y-46759595D01*
X59701888Y-46743681D01*
X59691027Y-46730447D01*
X59650844Y-46655269D01*
X59616896Y-46596470D01*
X59612991Y-46584451D01*
X59607785Y-46574712D01*
X59579075Y-46480071D01*
X59558689Y-46417328D01*
X59557971Y-46410501D01*
X59556525Y-46405733D01*
X59542448Y-46262808D01*
X59539000Y-46230000D01*
X59542448Y-46197194D01*
X59556525Y-46054266D01*
X59557971Y-46049497D01*
X59558689Y-46042672D01*
X59579071Y-45979942D01*
X59607785Y-45885287D01*
X59612991Y-45875545D01*
X59616896Y-45863530D01*
X59650836Y-45804742D01*
X59691027Y-45729552D01*
X59701890Y-45716314D01*
X59711076Y-45700405D01*
X59754800Y-45651843D01*
X59803051Y-45593051D01*
X59821005Y-45578315D01*
X59837113Y-45560427D01*
X59886720Y-45524385D01*
X59939552Y-45481027D01*
X59965450Y-45467183D01*
X59989500Y-45449711D01*
X60041226Y-45426681D01*
X60095287Y-45397785D01*
X60129307Y-45387464D01*
X60161576Y-45373098D01*
X60211998Y-45362380D01*
X60264266Y-45346525D01*
X60305871Y-45342427D01*
X60345820Y-45333936D01*
X60392086Y-45333936D01*
X60440000Y-45329217D01*
X60487913Y-45333936D01*
G37*
G36*
X63027913Y-45333936D02*
G01*
X63074180Y-45333936D01*
X63114129Y-45342427D01*
X63155733Y-45346525D01*
X63207998Y-45362379D01*
X63258424Y-45373098D01*
X63290694Y-45387465D01*
X63324712Y-45397785D01*
X63378767Y-45426678D01*
X63430500Y-45449711D01*
X63454551Y-45467185D01*
X63480447Y-45481027D01*
X63533271Y-45524378D01*
X63582887Y-45560427D01*
X63598996Y-45578318D01*
X63616948Y-45593051D01*
X63665188Y-45651831D01*
X63708924Y-45700405D01*
X63718111Y-45716319D01*
X63728972Y-45729552D01*
X63769149Y-45804719D01*
X63803104Y-45863530D01*
X63807009Y-45875550D01*
X63812214Y-45885287D01*
X63840913Y-45979896D01*
X63861311Y-46042672D01*
X63862028Y-46049502D01*
X63863474Y-46054266D01*
X63877536Y-46197042D01*
X63881000Y-46230000D01*
X63877535Y-46262959D01*
X63863474Y-46405733D01*
X63862029Y-46410496D01*
X63861311Y-46417328D01*
X63840909Y-46480117D01*
X63812214Y-46574712D01*
X63807010Y-46584447D01*
X63803104Y-46596470D01*
X63769142Y-46655293D01*
X63728972Y-46730447D01*
X63718113Y-46743677D01*
X63708924Y-46759595D01*
X63665178Y-46808178D01*
X63616948Y-46866948D01*
X63599000Y-46881677D01*
X63582887Y-46899573D01*
X63533260Y-46935628D01*
X63480447Y-46978972D01*
X63454557Y-46992810D01*
X63430500Y-47010289D01*
X63378756Y-47033326D01*
X63324712Y-47062214D01*
X63290701Y-47072531D01*
X63258424Y-47086902D01*
X63207987Y-47097622D01*
X63155733Y-47113474D01*
X63114138Y-47117570D01*
X63074180Y-47126064D01*
X63027903Y-47126064D01*
X62980000Y-47130782D01*
X62932097Y-47126064D01*
X62885820Y-47126064D01*
X62845862Y-47117570D01*
X62804266Y-47113474D01*
X62752009Y-47097621D01*
X62701576Y-47086902D01*
X62669300Y-47072532D01*
X62635287Y-47062214D01*
X62581237Y-47033323D01*
X62529500Y-47010289D01*
X62505445Y-46992812D01*
X62479552Y-46978972D01*
X62426730Y-46935622D01*
X62377113Y-46899573D01*
X62361002Y-46881680D01*
X62343051Y-46866948D01*
X62294809Y-46808166D01*
X62251076Y-46759595D01*
X62241888Y-46743681D01*
X62231027Y-46730447D01*
X62190844Y-46655269D01*
X62156896Y-46596470D01*
X62152991Y-46584451D01*
X62147785Y-46574712D01*
X62119075Y-46480071D01*
X62098689Y-46417328D01*
X62097971Y-46410501D01*
X62096525Y-46405733D01*
X62082448Y-46262808D01*
X62079000Y-46230000D01*
X62082448Y-46197194D01*
X62096525Y-46054266D01*
X62097971Y-46049497D01*
X62098689Y-46042672D01*
X62119071Y-45979942D01*
X62147785Y-45885287D01*
X62152991Y-45875545D01*
X62156896Y-45863530D01*
X62190836Y-45804742D01*
X62231027Y-45729552D01*
X62241890Y-45716314D01*
X62251076Y-45700405D01*
X62294800Y-45651843D01*
X62343051Y-45593051D01*
X62361005Y-45578315D01*
X62377113Y-45560427D01*
X62426720Y-45524385D01*
X62479552Y-45481027D01*
X62505450Y-45467183D01*
X62529500Y-45449711D01*
X62581226Y-45426681D01*
X62635287Y-45397785D01*
X62669307Y-45387464D01*
X62701576Y-45373098D01*
X62751998Y-45362380D01*
X62804266Y-45346525D01*
X62845871Y-45342427D01*
X62885820Y-45333936D01*
X62932086Y-45333936D01*
X62980000Y-45329217D01*
X63027913Y-45333936D01*
G37*
G36*
X65567913Y-45333936D02*
G01*
X65614180Y-45333936D01*
X65654129Y-45342427D01*
X65695733Y-45346525D01*
X65747998Y-45362379D01*
X65798424Y-45373098D01*
X65830694Y-45387465D01*
X65864712Y-45397785D01*
X65918767Y-45426678D01*
X65970500Y-45449711D01*
X65994551Y-45467185D01*
X66020447Y-45481027D01*
X66073271Y-45524378D01*
X66122887Y-45560427D01*
X66138996Y-45578318D01*
X66156948Y-45593051D01*
X66205188Y-45651831D01*
X66248924Y-45700405D01*
X66258111Y-45716319D01*
X66268972Y-45729552D01*
X66309149Y-45804719D01*
X66343104Y-45863530D01*
X66347009Y-45875550D01*
X66352214Y-45885287D01*
X66380913Y-45979896D01*
X66401311Y-46042672D01*
X66402028Y-46049502D01*
X66403474Y-46054266D01*
X66417536Y-46197042D01*
X66421000Y-46230000D01*
X66417535Y-46262959D01*
X66403474Y-46405733D01*
X66402029Y-46410496D01*
X66401311Y-46417328D01*
X66380909Y-46480117D01*
X66352214Y-46574712D01*
X66347010Y-46584447D01*
X66343104Y-46596470D01*
X66309142Y-46655293D01*
X66268972Y-46730447D01*
X66258113Y-46743677D01*
X66248924Y-46759595D01*
X66205178Y-46808178D01*
X66156948Y-46866948D01*
X66139000Y-46881677D01*
X66122887Y-46899573D01*
X66073260Y-46935628D01*
X66020447Y-46978972D01*
X65994557Y-46992810D01*
X65970500Y-47010289D01*
X65918756Y-47033326D01*
X65864712Y-47062214D01*
X65830701Y-47072531D01*
X65798424Y-47086902D01*
X65747987Y-47097622D01*
X65695733Y-47113474D01*
X65654138Y-47117570D01*
X65614180Y-47126064D01*
X65567903Y-47126064D01*
X65520000Y-47130782D01*
X65472097Y-47126064D01*
X65425820Y-47126064D01*
X65385862Y-47117570D01*
X65344266Y-47113474D01*
X65292009Y-47097621D01*
X65241576Y-47086902D01*
X65209300Y-47072532D01*
X65175287Y-47062214D01*
X65121237Y-47033323D01*
X65069500Y-47010289D01*
X65045445Y-46992812D01*
X65019552Y-46978972D01*
X64966730Y-46935622D01*
X64917113Y-46899573D01*
X64901002Y-46881680D01*
X64883051Y-46866948D01*
X64834809Y-46808166D01*
X64791076Y-46759595D01*
X64781888Y-46743681D01*
X64771027Y-46730447D01*
X64730844Y-46655269D01*
X64696896Y-46596470D01*
X64692991Y-46584451D01*
X64687785Y-46574712D01*
X64659075Y-46480071D01*
X64638689Y-46417328D01*
X64637971Y-46410501D01*
X64636525Y-46405733D01*
X64622448Y-46262808D01*
X64619000Y-46230000D01*
X64622448Y-46197194D01*
X64636525Y-46054266D01*
X64637971Y-46049497D01*
X64638689Y-46042672D01*
X64659071Y-45979942D01*
X64687785Y-45885287D01*
X64692991Y-45875545D01*
X64696896Y-45863530D01*
X64730836Y-45804742D01*
X64771027Y-45729552D01*
X64781890Y-45716314D01*
X64791076Y-45700405D01*
X64834800Y-45651843D01*
X64883051Y-45593051D01*
X64901005Y-45578315D01*
X64917113Y-45560427D01*
X64966720Y-45524385D01*
X65019552Y-45481027D01*
X65045450Y-45467183D01*
X65069500Y-45449711D01*
X65121226Y-45426681D01*
X65175287Y-45397785D01*
X65209307Y-45387464D01*
X65241576Y-45373098D01*
X65291998Y-45362380D01*
X65344266Y-45346525D01*
X65385871Y-45342427D01*
X65425820Y-45333936D01*
X65472086Y-45333936D01*
X65520000Y-45329217D01*
X65567913Y-45333936D01*
G37*
G36*
X115859360Y-44681548D02*
G01*
X115876144Y-44680493D01*
X115931393Y-44691032D01*
X115989080Y-44698627D01*
X116004338Y-44704947D01*
X116017883Y-44707531D01*
X116071589Y-44732803D01*
X116128000Y-44756169D01*
X116138711Y-44764388D01*
X116148446Y-44768969D01*
X116196628Y-44808829D01*
X116247294Y-44847706D01*
X116253675Y-44856023D01*
X116259623Y-44860943D01*
X116298328Y-44914215D01*
X116338831Y-44967000D01*
X116341684Y-44973889D01*
X116344440Y-44977682D01*
X116370079Y-45042440D01*
X116396373Y-45105920D01*
X116396951Y-45110313D01*
X116397557Y-45111843D01*
X116407160Y-45187858D01*
X116416000Y-45255000D01*
X116416000Y-45705000D01*
X116415829Y-45706292D01*
X116411459Y-45775761D01*
X116401659Y-45813927D01*
X116396373Y-45854080D01*
X116383157Y-45885985D01*
X116375218Y-45916907D01*
X116355470Y-45952827D01*
X116338831Y-45993000D01*
X116319629Y-46018024D01*
X116305705Y-46043353D01*
X116275572Y-46075440D01*
X116247294Y-46112294D01*
X116224642Y-46129674D01*
X116206928Y-46148539D01*
X116167204Y-46173748D01*
X116128000Y-46203831D01*
X116104397Y-46213607D01*
X116085097Y-46225856D01*
X116037452Y-46241336D01*
X115989080Y-46261373D01*
X115966731Y-46264315D01*
X115947863Y-46270446D01*
X115894814Y-46273783D01*
X115840000Y-46281000D01*
X115820633Y-46278450D01*
X115803855Y-46279506D01*
X115748620Y-46268969D01*
X115690920Y-46261373D01*
X115675657Y-46255051D01*
X115662116Y-46252468D01*
X115608420Y-46227200D01*
X115552000Y-46203831D01*
X115541286Y-46195610D01*
X115531553Y-46191030D01*
X115483374Y-46151172D01*
X115432706Y-46112294D01*
X115426323Y-46103976D01*
X115420376Y-46099056D01*
X115381666Y-46045777D01*
X115341169Y-45993000D01*
X115338315Y-45986110D01*
X115335559Y-45982317D01*
X115309907Y-45917526D01*
X115283627Y-45854080D01*
X115283048Y-45849688D01*
X115282442Y-45848156D01*
X115272835Y-45772112D01*
X115264000Y-45705000D01*
X115264000Y-45255000D01*
X115264169Y-45253708D01*
X115268540Y-45184238D01*
X115278342Y-45146062D01*
X115283627Y-45105920D01*
X115296839Y-45074022D01*
X115304781Y-45043092D01*
X115324534Y-45007160D01*
X115341169Y-44967000D01*
X115360365Y-44941982D01*
X115374294Y-44916646D01*
X115404436Y-44884547D01*
X115432706Y-44847706D01*
X115455350Y-44830330D01*
X115473071Y-44811460D01*
X115512808Y-44786241D01*
X115552000Y-44756169D01*
X115575594Y-44746395D01*
X115594902Y-44734143D01*
X115642562Y-44718657D01*
X115690920Y-44698627D01*
X115713261Y-44695685D01*
X115732136Y-44689553D01*
X115785201Y-44686214D01*
X115840000Y-44679000D01*
X115859360Y-44681548D01*
G37*
G36*
X117129360Y-44681548D02*
G01*
X117146144Y-44680493D01*
X117201393Y-44691032D01*
X117259080Y-44698627D01*
X117274338Y-44704947D01*
X117287883Y-44707531D01*
X117341589Y-44732803D01*
X117398000Y-44756169D01*
X117408711Y-44764388D01*
X117418446Y-44768969D01*
X117466628Y-44808829D01*
X117517294Y-44847706D01*
X117523675Y-44856023D01*
X117529623Y-44860943D01*
X117568328Y-44914215D01*
X117608831Y-44967000D01*
X117611684Y-44973889D01*
X117614440Y-44977682D01*
X117640079Y-45042440D01*
X117666373Y-45105920D01*
X117666951Y-45110313D01*
X117667557Y-45111843D01*
X117677160Y-45187858D01*
X117686000Y-45255000D01*
X117686000Y-45705000D01*
X117685829Y-45706292D01*
X117681459Y-45775761D01*
X117671659Y-45813927D01*
X117666373Y-45854080D01*
X117653157Y-45885985D01*
X117645218Y-45916907D01*
X117625470Y-45952827D01*
X117608831Y-45993000D01*
X117589629Y-46018024D01*
X117575705Y-46043353D01*
X117545572Y-46075440D01*
X117517294Y-46112294D01*
X117494642Y-46129674D01*
X117476928Y-46148539D01*
X117437204Y-46173748D01*
X117398000Y-46203831D01*
X117374397Y-46213607D01*
X117355097Y-46225856D01*
X117307452Y-46241336D01*
X117259080Y-46261373D01*
X117236731Y-46264315D01*
X117217863Y-46270446D01*
X117164814Y-46273783D01*
X117110000Y-46281000D01*
X117090633Y-46278450D01*
X117073855Y-46279506D01*
X117018620Y-46268969D01*
X116960920Y-46261373D01*
X116945657Y-46255051D01*
X116932116Y-46252468D01*
X116878420Y-46227200D01*
X116822000Y-46203831D01*
X116811286Y-46195610D01*
X116801553Y-46191030D01*
X116753374Y-46151172D01*
X116702706Y-46112294D01*
X116696323Y-46103976D01*
X116690376Y-46099056D01*
X116651666Y-46045777D01*
X116611169Y-45993000D01*
X116608315Y-45986110D01*
X116605559Y-45982317D01*
X116579907Y-45917526D01*
X116553627Y-45854080D01*
X116553048Y-45849688D01*
X116552442Y-45848156D01*
X116542835Y-45772112D01*
X116534000Y-45705000D01*
X116534000Y-45255000D01*
X116534169Y-45253708D01*
X116538540Y-45184238D01*
X116548342Y-45146062D01*
X116553627Y-45105920D01*
X116566839Y-45074022D01*
X116574781Y-45043092D01*
X116594534Y-45007160D01*
X116611169Y-44967000D01*
X116630365Y-44941982D01*
X116644294Y-44916646D01*
X116674436Y-44884547D01*
X116702706Y-44847706D01*
X116725350Y-44830330D01*
X116743071Y-44811460D01*
X116782808Y-44786241D01*
X116822000Y-44756169D01*
X116845594Y-44746395D01*
X116864902Y-44734143D01*
X116912562Y-44718657D01*
X116960920Y-44698627D01*
X116983261Y-44695685D01*
X117002136Y-44689553D01*
X117055201Y-44686214D01*
X117110000Y-44679000D01*
X117129360Y-44681548D01*
G37*
G36*
X118924517Y-44682882D02*
G01*
X118941062Y-44693938D01*
X118952118Y-44710483D01*
X118956000Y-44730000D01*
X118956000Y-46230000D01*
X118952118Y-46249517D01*
X118941062Y-46266062D01*
X118924517Y-46277118D01*
X118905000Y-46281000D01*
X117855000Y-46281000D01*
X117835483Y-46277118D01*
X117818938Y-46266062D01*
X117807882Y-46249517D01*
X117804000Y-46230000D01*
X117804000Y-44730000D01*
X117807882Y-44710483D01*
X117818938Y-44693938D01*
X117835483Y-44682882D01*
X117855000Y-44679000D01*
X118905000Y-44679000D01*
X118924517Y-44682882D01*
G37*
G36*
X133317913Y-43213936D02*
G01*
X133364180Y-43213936D01*
X133404129Y-43222427D01*
X133445733Y-43226525D01*
X133497998Y-43242379D01*
X133548424Y-43253098D01*
X133580694Y-43267465D01*
X133614712Y-43277785D01*
X133668767Y-43306678D01*
X133720500Y-43329711D01*
X133744551Y-43347185D01*
X133770447Y-43361027D01*
X133823271Y-43404378D01*
X133872887Y-43440427D01*
X133888996Y-43458318D01*
X133906948Y-43473051D01*
X133955188Y-43531831D01*
X133998924Y-43580405D01*
X134008111Y-43596319D01*
X134018972Y-43609552D01*
X134059149Y-43684719D01*
X134093104Y-43743530D01*
X134097009Y-43755550D01*
X134102214Y-43765287D01*
X134130913Y-43859896D01*
X134151311Y-43922672D01*
X134152028Y-43929502D01*
X134153474Y-43934266D01*
X134167536Y-44077042D01*
X134171000Y-44110000D01*
X134167535Y-44142959D01*
X134153474Y-44285733D01*
X134152029Y-44290496D01*
X134151311Y-44297328D01*
X134130909Y-44360117D01*
X134102214Y-44454712D01*
X134097010Y-44464447D01*
X134093104Y-44476470D01*
X134059142Y-44535293D01*
X134018972Y-44610447D01*
X134008113Y-44623677D01*
X133998924Y-44639595D01*
X133955178Y-44688178D01*
X133906948Y-44746948D01*
X133889000Y-44761677D01*
X133872887Y-44779573D01*
X133823260Y-44815628D01*
X133770447Y-44858972D01*
X133744557Y-44872810D01*
X133720500Y-44890289D01*
X133668756Y-44913326D01*
X133614712Y-44942214D01*
X133580701Y-44952531D01*
X133548424Y-44966902D01*
X133497987Y-44977622D01*
X133445733Y-44993474D01*
X133404138Y-44997570D01*
X133364180Y-45006064D01*
X133317903Y-45006064D01*
X133270000Y-45010782D01*
X133222097Y-45006064D01*
X133175820Y-45006064D01*
X133135862Y-44997570D01*
X133094266Y-44993474D01*
X133042009Y-44977621D01*
X132991576Y-44966902D01*
X132959300Y-44952532D01*
X132925287Y-44942214D01*
X132871237Y-44913323D01*
X132819500Y-44890289D01*
X132795445Y-44872812D01*
X132769552Y-44858972D01*
X132716730Y-44815622D01*
X132667113Y-44779573D01*
X132651002Y-44761680D01*
X132633051Y-44746948D01*
X132584809Y-44688166D01*
X132541076Y-44639595D01*
X132531888Y-44623681D01*
X132521027Y-44610447D01*
X132480844Y-44535269D01*
X132446896Y-44476470D01*
X132442991Y-44464451D01*
X132437785Y-44454712D01*
X132409075Y-44360071D01*
X132388689Y-44297328D01*
X132387971Y-44290501D01*
X132386525Y-44285733D01*
X132372448Y-44142808D01*
X132369000Y-44110000D01*
X132372448Y-44077194D01*
X132386525Y-43934266D01*
X132387971Y-43929497D01*
X132388689Y-43922672D01*
X132409071Y-43859942D01*
X132437785Y-43765287D01*
X132442991Y-43755545D01*
X132446896Y-43743530D01*
X132480836Y-43684742D01*
X132521027Y-43609552D01*
X132531890Y-43596314D01*
X132541076Y-43580405D01*
X132584800Y-43531843D01*
X132633051Y-43473051D01*
X132651005Y-43458315D01*
X132667113Y-43440427D01*
X132716720Y-43404385D01*
X132769552Y-43361027D01*
X132795450Y-43347183D01*
X132819500Y-43329711D01*
X132871226Y-43306681D01*
X132925287Y-43277785D01*
X132959307Y-43267464D01*
X132991576Y-43253098D01*
X133041998Y-43242380D01*
X133094266Y-43226525D01*
X133135871Y-43222427D01*
X133175820Y-43213936D01*
X133222086Y-43213936D01*
X133270000Y-43209217D01*
X133317913Y-43213936D01*
G37*
G36*
X135857913Y-43213936D02*
G01*
X135904180Y-43213936D01*
X135944129Y-43222427D01*
X135985733Y-43226525D01*
X136037998Y-43242379D01*
X136088424Y-43253098D01*
X136120694Y-43267465D01*
X136154712Y-43277785D01*
X136208767Y-43306678D01*
X136260500Y-43329711D01*
X136284551Y-43347185D01*
X136310447Y-43361027D01*
X136363271Y-43404378D01*
X136412887Y-43440427D01*
X136428996Y-43458318D01*
X136446948Y-43473051D01*
X136495188Y-43531831D01*
X136538924Y-43580405D01*
X136548111Y-43596319D01*
X136558972Y-43609552D01*
X136599149Y-43684719D01*
X136633104Y-43743530D01*
X136637009Y-43755550D01*
X136642214Y-43765287D01*
X136670913Y-43859896D01*
X136691311Y-43922672D01*
X136692028Y-43929502D01*
X136693474Y-43934266D01*
X136707536Y-44077042D01*
X136711000Y-44110000D01*
X136707535Y-44142959D01*
X136693474Y-44285733D01*
X136692029Y-44290496D01*
X136691311Y-44297328D01*
X136670909Y-44360117D01*
X136642214Y-44454712D01*
X136637010Y-44464447D01*
X136633104Y-44476470D01*
X136599142Y-44535293D01*
X136558972Y-44610447D01*
X136548113Y-44623677D01*
X136538924Y-44639595D01*
X136495178Y-44688178D01*
X136446948Y-44746948D01*
X136429000Y-44761677D01*
X136412887Y-44779573D01*
X136363260Y-44815628D01*
X136310447Y-44858972D01*
X136284557Y-44872810D01*
X136260500Y-44890289D01*
X136208756Y-44913326D01*
X136154712Y-44942214D01*
X136120701Y-44952531D01*
X136088424Y-44966902D01*
X136037987Y-44977622D01*
X135985733Y-44993474D01*
X135944138Y-44997570D01*
X135904180Y-45006064D01*
X135857903Y-45006064D01*
X135810000Y-45010782D01*
X135762097Y-45006064D01*
X135715820Y-45006064D01*
X135675862Y-44997570D01*
X135634266Y-44993474D01*
X135582009Y-44977621D01*
X135531576Y-44966902D01*
X135499300Y-44952532D01*
X135465287Y-44942214D01*
X135411237Y-44913323D01*
X135359500Y-44890289D01*
X135335445Y-44872812D01*
X135309552Y-44858972D01*
X135256730Y-44815622D01*
X135207113Y-44779573D01*
X135191002Y-44761680D01*
X135173051Y-44746948D01*
X135124809Y-44688166D01*
X135081076Y-44639595D01*
X135071888Y-44623681D01*
X135061027Y-44610447D01*
X135020844Y-44535269D01*
X134986896Y-44476470D01*
X134982991Y-44464451D01*
X134977785Y-44454712D01*
X134949075Y-44360071D01*
X134928689Y-44297328D01*
X134927971Y-44290501D01*
X134926525Y-44285733D01*
X134912448Y-44142808D01*
X134909000Y-44110000D01*
X134912448Y-44077194D01*
X134926525Y-43934266D01*
X134927971Y-43929497D01*
X134928689Y-43922672D01*
X134949071Y-43859942D01*
X134977785Y-43765287D01*
X134982991Y-43755545D01*
X134986896Y-43743530D01*
X135020836Y-43684742D01*
X135061027Y-43609552D01*
X135071890Y-43596314D01*
X135081076Y-43580405D01*
X135124800Y-43531843D01*
X135173051Y-43473051D01*
X135191005Y-43458315D01*
X135207113Y-43440427D01*
X135256720Y-43404385D01*
X135309552Y-43361027D01*
X135335450Y-43347183D01*
X135359500Y-43329711D01*
X135411226Y-43306681D01*
X135465287Y-43277785D01*
X135499307Y-43267464D01*
X135531576Y-43253098D01*
X135581998Y-43242380D01*
X135634266Y-43226525D01*
X135675871Y-43222427D01*
X135715820Y-43213936D01*
X135762086Y-43213936D01*
X135810000Y-43209217D01*
X135857913Y-43213936D01*
G37*
G36*
X66389517Y-42792882D02*
G01*
X66406062Y-42803938D01*
X66417118Y-42820483D01*
X66421000Y-42840000D01*
X66421000Y-44540000D01*
X66417118Y-44559517D01*
X66406062Y-44576062D01*
X66389517Y-44587118D01*
X66370000Y-44591000D01*
X64670000Y-44591000D01*
X64650483Y-44587118D01*
X64633938Y-44576062D01*
X64622882Y-44559517D01*
X64619000Y-44540000D01*
X64619000Y-42840000D01*
X64622882Y-42820483D01*
X64633938Y-42803938D01*
X64650483Y-42792882D01*
X64670000Y-42789000D01*
X66370000Y-42789000D01*
X66389517Y-42792882D01*
G37*
G36*
X60487913Y-42793936D02*
G01*
X60534180Y-42793936D01*
X60574129Y-42802427D01*
X60615733Y-42806525D01*
X60667998Y-42822379D01*
X60718424Y-42833098D01*
X60750694Y-42847465D01*
X60784712Y-42857785D01*
X60838767Y-42886678D01*
X60890500Y-42909711D01*
X60914551Y-42927185D01*
X60940447Y-42941027D01*
X60993271Y-42984378D01*
X61042887Y-43020427D01*
X61058996Y-43038318D01*
X61076948Y-43053051D01*
X61125188Y-43111831D01*
X61168924Y-43160405D01*
X61178111Y-43176319D01*
X61188972Y-43189552D01*
X61229149Y-43264719D01*
X61263104Y-43323530D01*
X61267009Y-43335550D01*
X61272214Y-43345287D01*
X61300913Y-43439896D01*
X61321311Y-43502672D01*
X61322028Y-43509502D01*
X61323474Y-43514266D01*
X61337536Y-43657042D01*
X61341000Y-43690000D01*
X61337535Y-43722959D01*
X61323474Y-43865733D01*
X61322029Y-43870496D01*
X61321311Y-43877328D01*
X61300909Y-43940117D01*
X61272214Y-44034712D01*
X61267010Y-44044447D01*
X61263104Y-44056470D01*
X61229142Y-44115293D01*
X61188972Y-44190447D01*
X61178113Y-44203677D01*
X61168924Y-44219595D01*
X61125178Y-44268178D01*
X61076948Y-44326948D01*
X61059000Y-44341677D01*
X61042887Y-44359573D01*
X60993260Y-44395628D01*
X60940447Y-44438972D01*
X60914557Y-44452810D01*
X60890500Y-44470289D01*
X60838756Y-44493326D01*
X60784712Y-44522214D01*
X60750701Y-44532531D01*
X60718424Y-44546902D01*
X60667987Y-44557622D01*
X60615733Y-44573474D01*
X60574138Y-44577570D01*
X60534180Y-44586064D01*
X60487903Y-44586064D01*
X60440000Y-44590782D01*
X60392097Y-44586064D01*
X60345820Y-44586064D01*
X60305862Y-44577570D01*
X60264266Y-44573474D01*
X60212009Y-44557621D01*
X60161576Y-44546902D01*
X60129300Y-44532532D01*
X60095287Y-44522214D01*
X60041237Y-44493323D01*
X59989500Y-44470289D01*
X59965445Y-44452812D01*
X59939552Y-44438972D01*
X59886730Y-44395622D01*
X59837113Y-44359573D01*
X59821002Y-44341680D01*
X59803051Y-44326948D01*
X59754809Y-44268166D01*
X59711076Y-44219595D01*
X59701888Y-44203681D01*
X59691027Y-44190447D01*
X59650844Y-44115269D01*
X59616896Y-44056470D01*
X59612991Y-44044451D01*
X59607785Y-44034712D01*
X59579075Y-43940071D01*
X59558689Y-43877328D01*
X59557971Y-43870501D01*
X59556525Y-43865733D01*
X59542448Y-43722808D01*
X59539000Y-43690000D01*
X59542448Y-43657194D01*
X59556525Y-43514266D01*
X59557971Y-43509497D01*
X59558689Y-43502672D01*
X59579071Y-43439942D01*
X59607785Y-43345287D01*
X59612991Y-43335545D01*
X59616896Y-43323530D01*
X59650836Y-43264742D01*
X59691027Y-43189552D01*
X59701890Y-43176314D01*
X59711076Y-43160405D01*
X59754800Y-43111843D01*
X59803051Y-43053051D01*
X59821005Y-43038315D01*
X59837113Y-43020427D01*
X59886720Y-42984385D01*
X59939552Y-42941027D01*
X59965450Y-42927183D01*
X59989500Y-42909711D01*
X60041226Y-42886681D01*
X60095287Y-42857785D01*
X60129307Y-42847464D01*
X60161576Y-42833098D01*
X60211998Y-42822380D01*
X60264266Y-42806525D01*
X60305871Y-42802427D01*
X60345820Y-42793936D01*
X60392086Y-42793936D01*
X60440000Y-42789217D01*
X60487913Y-42793936D01*
G37*
G36*
X63027913Y-42793936D02*
G01*
X63074180Y-42793936D01*
X63114129Y-42802427D01*
X63155733Y-42806525D01*
X63207998Y-42822379D01*
X63258424Y-42833098D01*
X63290694Y-42847465D01*
X63324712Y-42857785D01*
X63378767Y-42886678D01*
X63430500Y-42909711D01*
X63454551Y-42927185D01*
X63480447Y-42941027D01*
X63533271Y-42984378D01*
X63582887Y-43020427D01*
X63598996Y-43038318D01*
X63616948Y-43053051D01*
X63665188Y-43111831D01*
X63708924Y-43160405D01*
X63718111Y-43176319D01*
X63728972Y-43189552D01*
X63769149Y-43264719D01*
X63803104Y-43323530D01*
X63807009Y-43335550D01*
X63812214Y-43345287D01*
X63840913Y-43439896D01*
X63861311Y-43502672D01*
X63862028Y-43509502D01*
X63863474Y-43514266D01*
X63877536Y-43657042D01*
X63881000Y-43690000D01*
X63877535Y-43722959D01*
X63863474Y-43865733D01*
X63862029Y-43870496D01*
X63861311Y-43877328D01*
X63840909Y-43940117D01*
X63812214Y-44034712D01*
X63807010Y-44044447D01*
X63803104Y-44056470D01*
X63769142Y-44115293D01*
X63728972Y-44190447D01*
X63718113Y-44203677D01*
X63708924Y-44219595D01*
X63665178Y-44268178D01*
X63616948Y-44326948D01*
X63599000Y-44341677D01*
X63582887Y-44359573D01*
X63533260Y-44395628D01*
X63480447Y-44438972D01*
X63454557Y-44452810D01*
X63430500Y-44470289D01*
X63378756Y-44493326D01*
X63324712Y-44522214D01*
X63290701Y-44532531D01*
X63258424Y-44546902D01*
X63207987Y-44557622D01*
X63155733Y-44573474D01*
X63114138Y-44577570D01*
X63074180Y-44586064D01*
X63027903Y-44586064D01*
X62980000Y-44590782D01*
X62932097Y-44586064D01*
X62885820Y-44586064D01*
X62845862Y-44577570D01*
X62804266Y-44573474D01*
X62752009Y-44557621D01*
X62701576Y-44546902D01*
X62669300Y-44532532D01*
X62635287Y-44522214D01*
X62581237Y-44493323D01*
X62529500Y-44470289D01*
X62505445Y-44452812D01*
X62479552Y-44438972D01*
X62426730Y-44395622D01*
X62377113Y-44359573D01*
X62361002Y-44341680D01*
X62343051Y-44326948D01*
X62294809Y-44268166D01*
X62251076Y-44219595D01*
X62241888Y-44203681D01*
X62231027Y-44190447D01*
X62190844Y-44115269D01*
X62156896Y-44056470D01*
X62152991Y-44044451D01*
X62147785Y-44034712D01*
X62119075Y-43940071D01*
X62098689Y-43877328D01*
X62097971Y-43870501D01*
X62096525Y-43865733D01*
X62082448Y-43722808D01*
X62079000Y-43690000D01*
X62082448Y-43657194D01*
X62096525Y-43514266D01*
X62097971Y-43509497D01*
X62098689Y-43502672D01*
X62119071Y-43439942D01*
X62147785Y-43345287D01*
X62152991Y-43335545D01*
X62156896Y-43323530D01*
X62190836Y-43264742D01*
X62231027Y-43189552D01*
X62241890Y-43176314D01*
X62251076Y-43160405D01*
X62294800Y-43111843D01*
X62343051Y-43053051D01*
X62361005Y-43038315D01*
X62377113Y-43020427D01*
X62426720Y-42984385D01*
X62479552Y-42941027D01*
X62505450Y-42927183D01*
X62529500Y-42909711D01*
X62581226Y-42886681D01*
X62635287Y-42857785D01*
X62669307Y-42847464D01*
X62701576Y-42833098D01*
X62751998Y-42822380D01*
X62804266Y-42806525D01*
X62845871Y-42802427D01*
X62885820Y-42793936D01*
X62932086Y-42793936D01*
X62980000Y-42789217D01*
X63027913Y-42793936D01*
G37*
G36*
X76064517Y-40972882D02*
G01*
X76081062Y-40983938D01*
X76092118Y-41000483D01*
X76096000Y-41020000D01*
X76096000Y-42520000D01*
X76092118Y-42539517D01*
X76081062Y-42556062D01*
X76064517Y-42567118D01*
X76045000Y-42571000D01*
X74995000Y-42571000D01*
X74975483Y-42567118D01*
X74958938Y-42556062D01*
X74947882Y-42539517D01*
X74944000Y-42520000D01*
X74944000Y-41020000D01*
X74947882Y-41000483D01*
X74958938Y-40983938D01*
X74975483Y-40972882D01*
X74995000Y-40969000D01*
X76045000Y-40969000D01*
X76064517Y-40972882D01*
G37*
G36*
X76809360Y-40971548D02*
G01*
X76826144Y-40970493D01*
X76881393Y-40981032D01*
X76939080Y-40988627D01*
X76954338Y-40994947D01*
X76967883Y-40997531D01*
X77021589Y-41022803D01*
X77078000Y-41046169D01*
X77088711Y-41054388D01*
X77098446Y-41058969D01*
X77146628Y-41098829D01*
X77197294Y-41137706D01*
X77203675Y-41146023D01*
X77209623Y-41150943D01*
X77248328Y-41204215D01*
X77288831Y-41257000D01*
X77291684Y-41263889D01*
X77294440Y-41267682D01*
X77320079Y-41332440D01*
X77346373Y-41395920D01*
X77346951Y-41400313D01*
X77347557Y-41401843D01*
X77357160Y-41477858D01*
X77366000Y-41545000D01*
X77366000Y-41995000D01*
X77365829Y-41996292D01*
X77361459Y-42065761D01*
X77351659Y-42103927D01*
X77346373Y-42144080D01*
X77333157Y-42175985D01*
X77325218Y-42206907D01*
X77305470Y-42242827D01*
X77288831Y-42283000D01*
X77269629Y-42308024D01*
X77255705Y-42333353D01*
X77225572Y-42365440D01*
X77197294Y-42402294D01*
X77174642Y-42419674D01*
X77156928Y-42438539D01*
X77117204Y-42463748D01*
X77078000Y-42493831D01*
X77054397Y-42503607D01*
X77035097Y-42515856D01*
X76987452Y-42531336D01*
X76939080Y-42551373D01*
X76916731Y-42554315D01*
X76897863Y-42560446D01*
X76844814Y-42563783D01*
X76790000Y-42571000D01*
X76770633Y-42568450D01*
X76753855Y-42569506D01*
X76698620Y-42558969D01*
X76640920Y-42551373D01*
X76625657Y-42545051D01*
X76612116Y-42542468D01*
X76558420Y-42517200D01*
X76502000Y-42493831D01*
X76491286Y-42485610D01*
X76481553Y-42481030D01*
X76433374Y-42441172D01*
X76382706Y-42402294D01*
X76376323Y-42393976D01*
X76370376Y-42389056D01*
X76331666Y-42335777D01*
X76291169Y-42283000D01*
X76288315Y-42276110D01*
X76285559Y-42272317D01*
X76259907Y-42207526D01*
X76233627Y-42144080D01*
X76233048Y-42139688D01*
X76232442Y-42138156D01*
X76222835Y-42062112D01*
X76214000Y-41995000D01*
X76214000Y-41545000D01*
X76214169Y-41543708D01*
X76218540Y-41474238D01*
X76228342Y-41436062D01*
X76233627Y-41395920D01*
X76246839Y-41364022D01*
X76254781Y-41333092D01*
X76274534Y-41297160D01*
X76291169Y-41257000D01*
X76310365Y-41231982D01*
X76324294Y-41206646D01*
X76354436Y-41174547D01*
X76382706Y-41137706D01*
X76405350Y-41120330D01*
X76423071Y-41101460D01*
X76462808Y-41076241D01*
X76502000Y-41046169D01*
X76525594Y-41036395D01*
X76544902Y-41024143D01*
X76592562Y-41008657D01*
X76640920Y-40988627D01*
X76663261Y-40985685D01*
X76682136Y-40979553D01*
X76735201Y-40976214D01*
X76790000Y-40969000D01*
X76809360Y-40971548D01*
G37*
G36*
X78079360Y-40971548D02*
G01*
X78096144Y-40970493D01*
X78151393Y-40981032D01*
X78209080Y-40988627D01*
X78224338Y-40994947D01*
X78237883Y-40997531D01*
X78291589Y-41022803D01*
X78348000Y-41046169D01*
X78358711Y-41054388D01*
X78368446Y-41058969D01*
X78416628Y-41098829D01*
X78467294Y-41137706D01*
X78473675Y-41146023D01*
X78479623Y-41150943D01*
X78518328Y-41204215D01*
X78558831Y-41257000D01*
X78561684Y-41263889D01*
X78564440Y-41267682D01*
X78590079Y-41332440D01*
X78616373Y-41395920D01*
X78616951Y-41400313D01*
X78617557Y-41401843D01*
X78627160Y-41477858D01*
X78636000Y-41545000D01*
X78636000Y-41995000D01*
X78635829Y-41996292D01*
X78631459Y-42065761D01*
X78621659Y-42103927D01*
X78616373Y-42144080D01*
X78603157Y-42175985D01*
X78595218Y-42206907D01*
X78575470Y-42242827D01*
X78558831Y-42283000D01*
X78539629Y-42308024D01*
X78525705Y-42333353D01*
X78495572Y-42365440D01*
X78467294Y-42402294D01*
X78444642Y-42419674D01*
X78426928Y-42438539D01*
X78387204Y-42463748D01*
X78348000Y-42493831D01*
X78324397Y-42503607D01*
X78305097Y-42515856D01*
X78257452Y-42531336D01*
X78209080Y-42551373D01*
X78186731Y-42554315D01*
X78167863Y-42560446D01*
X78114814Y-42563783D01*
X78060000Y-42571000D01*
X78040633Y-42568450D01*
X78023855Y-42569506D01*
X77968620Y-42558969D01*
X77910920Y-42551373D01*
X77895657Y-42545051D01*
X77882116Y-42542468D01*
X77828420Y-42517200D01*
X77772000Y-42493831D01*
X77761286Y-42485610D01*
X77751553Y-42481030D01*
X77703374Y-42441172D01*
X77652706Y-42402294D01*
X77646323Y-42393976D01*
X77640376Y-42389056D01*
X77601666Y-42335777D01*
X77561169Y-42283000D01*
X77558315Y-42276110D01*
X77555559Y-42272317D01*
X77529907Y-42207526D01*
X77503627Y-42144080D01*
X77503048Y-42139688D01*
X77502442Y-42138156D01*
X77492835Y-42062112D01*
X77484000Y-41995000D01*
X77484000Y-41545000D01*
X77484169Y-41543708D01*
X77488540Y-41474238D01*
X77498342Y-41436062D01*
X77503627Y-41395920D01*
X77516839Y-41364022D01*
X77524781Y-41333092D01*
X77544534Y-41297160D01*
X77561169Y-41257000D01*
X77580365Y-41231982D01*
X77594294Y-41206646D01*
X77624436Y-41174547D01*
X77652706Y-41137706D01*
X77675350Y-41120330D01*
X77693071Y-41101460D01*
X77732808Y-41076241D01*
X77772000Y-41046169D01*
X77795594Y-41036395D01*
X77814902Y-41024143D01*
X77862562Y-41008657D01*
X77910920Y-40988627D01*
X77933261Y-40985685D01*
X77952136Y-40979553D01*
X78005201Y-40976214D01*
X78060000Y-40969000D01*
X78079360Y-40971548D01*
G37*
G36*
X134139517Y-40672882D02*
G01*
X134156062Y-40683938D01*
X134167118Y-40700483D01*
X134171000Y-40720000D01*
X134171000Y-42420000D01*
X134167118Y-42439517D01*
X134156062Y-42456062D01*
X134139517Y-42467118D01*
X134120000Y-42471000D01*
X132420000Y-42471000D01*
X132400483Y-42467118D01*
X132383938Y-42456062D01*
X132372882Y-42439517D01*
X132369000Y-42420000D01*
X132369000Y-40720000D01*
X132372882Y-40700483D01*
X132383938Y-40683938D01*
X132400483Y-40672882D01*
X132420000Y-40669000D01*
X134120000Y-40669000D01*
X134139517Y-40672882D01*
G37*
G36*
X135857913Y-40673936D02*
G01*
X135904180Y-40673936D01*
X135944129Y-40682427D01*
X135985733Y-40686525D01*
X136037998Y-40702379D01*
X136088424Y-40713098D01*
X136120694Y-40727465D01*
X136154712Y-40737785D01*
X136208767Y-40766678D01*
X136260500Y-40789711D01*
X136284551Y-40807185D01*
X136310447Y-40821027D01*
X136363271Y-40864378D01*
X136412887Y-40900427D01*
X136428996Y-40918318D01*
X136446948Y-40933051D01*
X136495188Y-40991831D01*
X136538924Y-41040405D01*
X136548111Y-41056319D01*
X136558972Y-41069552D01*
X136599149Y-41144719D01*
X136633104Y-41203530D01*
X136637009Y-41215550D01*
X136642214Y-41225287D01*
X136670913Y-41319896D01*
X136691311Y-41382672D01*
X136692028Y-41389502D01*
X136693474Y-41394266D01*
X136707536Y-41537042D01*
X136711000Y-41570000D01*
X136707535Y-41602959D01*
X136693474Y-41745733D01*
X136692029Y-41750496D01*
X136691311Y-41757328D01*
X136670909Y-41820117D01*
X136642214Y-41914712D01*
X136637010Y-41924447D01*
X136633104Y-41936470D01*
X136599142Y-41995293D01*
X136558972Y-42070447D01*
X136548113Y-42083677D01*
X136538924Y-42099595D01*
X136495178Y-42148178D01*
X136446948Y-42206948D01*
X136429000Y-42221677D01*
X136412887Y-42239573D01*
X136363260Y-42275628D01*
X136310447Y-42318972D01*
X136284557Y-42332810D01*
X136260500Y-42350289D01*
X136208756Y-42373326D01*
X136154712Y-42402214D01*
X136120701Y-42412531D01*
X136088424Y-42426902D01*
X136037987Y-42437622D01*
X135985733Y-42453474D01*
X135944138Y-42457570D01*
X135904180Y-42466064D01*
X135857903Y-42466064D01*
X135810000Y-42470782D01*
X135762097Y-42466064D01*
X135715820Y-42466064D01*
X135675862Y-42457570D01*
X135634266Y-42453474D01*
X135582009Y-42437621D01*
X135531576Y-42426902D01*
X135499300Y-42412532D01*
X135465287Y-42402214D01*
X135411237Y-42373323D01*
X135359500Y-42350289D01*
X135335445Y-42332812D01*
X135309552Y-42318972D01*
X135256730Y-42275622D01*
X135207113Y-42239573D01*
X135191002Y-42221680D01*
X135173051Y-42206948D01*
X135124809Y-42148166D01*
X135081076Y-42099595D01*
X135071888Y-42083681D01*
X135061027Y-42070447D01*
X135020844Y-41995269D01*
X134986896Y-41936470D01*
X134982991Y-41924451D01*
X134977785Y-41914712D01*
X134949075Y-41820071D01*
X134928689Y-41757328D01*
X134927971Y-41750501D01*
X134926525Y-41745733D01*
X134912448Y-41602808D01*
X134909000Y-41570000D01*
X134912448Y-41537194D01*
X134926525Y-41394266D01*
X134927971Y-41389497D01*
X134928689Y-41382672D01*
X134949071Y-41319942D01*
X134977785Y-41225287D01*
X134982991Y-41215545D01*
X134986896Y-41203530D01*
X135020836Y-41144742D01*
X135061027Y-41069552D01*
X135071890Y-41056314D01*
X135081076Y-41040405D01*
X135124800Y-40991843D01*
X135173051Y-40933051D01*
X135191005Y-40918315D01*
X135207113Y-40900427D01*
X135256720Y-40864385D01*
X135309552Y-40821027D01*
X135335450Y-40807183D01*
X135359500Y-40789711D01*
X135411226Y-40766681D01*
X135465287Y-40737785D01*
X135499307Y-40727464D01*
X135531576Y-40713098D01*
X135581998Y-40702380D01*
X135634266Y-40686525D01*
X135675871Y-40682427D01*
X135715820Y-40673936D01*
X135762086Y-40673936D01*
X135810000Y-40669217D01*
X135857913Y-40673936D01*
G37*
G36*
X82929517Y-35922882D02*
G01*
X82946062Y-35933938D01*
X82957118Y-35950483D01*
X82961000Y-35970000D01*
X82961000Y-37770000D01*
X82957118Y-37789517D01*
X82946062Y-37806062D01*
X82929517Y-37817118D01*
X82910000Y-37821000D01*
X81110000Y-37821000D01*
X81090483Y-37817118D01*
X81073938Y-37806062D01*
X81062882Y-37789517D01*
X81059000Y-37770000D01*
X81059000Y-35970000D01*
X81062882Y-35950483D01*
X81073938Y-35933938D01*
X81090483Y-35922882D01*
X81110000Y-35919000D01*
X82910000Y-35919000D01*
X82929517Y-35922882D01*
G37*
G36*
X84735531Y-35937273D02*
G01*
X84913932Y-35991391D01*
X85078347Y-36079272D01*
X85222459Y-36197541D01*
X85340728Y-36341653D01*
X85428609Y-36506068D01*
X85482727Y-36684469D01*
X85501000Y-36870000D01*
X85482727Y-37055531D01*
X85428609Y-37233932D01*
X85340728Y-37398347D01*
X85222459Y-37542459D01*
X85078347Y-37660728D01*
X84913932Y-37748609D01*
X84735531Y-37802727D01*
X84550000Y-37821000D01*
X84364469Y-37802727D01*
X84186068Y-37748609D01*
X84021653Y-37660728D01*
X83877541Y-37542459D01*
X83759272Y-37398347D01*
X83671391Y-37233932D01*
X83617273Y-37055531D01*
X83599000Y-36870000D01*
X83617273Y-36684469D01*
X83671391Y-36506068D01*
X83759272Y-36341653D01*
X83877541Y-36197541D01*
X84021653Y-36079272D01*
X84186068Y-35991391D01*
X84364469Y-35937273D01*
X84550000Y-35919000D01*
X84735531Y-35937273D01*
G37*
G36*
X116859517Y-35862882D02*
G01*
X116876062Y-35873938D01*
X116887118Y-35890483D01*
X116891000Y-35910000D01*
X116891000Y-37710000D01*
X116887118Y-37729517D01*
X116876062Y-37746062D01*
X116859517Y-37757118D01*
X116840000Y-37761000D01*
X115040000Y-37761000D01*
X115020483Y-37757118D01*
X115003938Y-37746062D01*
X114992882Y-37729517D01*
X114989000Y-37710000D01*
X114989000Y-35910000D01*
X114992882Y-35890483D01*
X115003938Y-35873938D01*
X115020483Y-35862882D01*
X115040000Y-35859000D01*
X116840000Y-35859000D01*
X116859517Y-35862882D01*
G37*
G36*
X118665531Y-35877273D02*
G01*
X118843932Y-35931391D01*
X119008347Y-36019272D01*
X119152459Y-36137541D01*
X119270728Y-36281653D01*
X119358609Y-36446068D01*
X119412727Y-36624469D01*
X119431000Y-36810000D01*
X119412727Y-36995531D01*
X119358609Y-37173932D01*
X119270728Y-37338347D01*
X119152459Y-37482459D01*
X119008347Y-37600728D01*
X118843932Y-37688609D01*
X118665531Y-37742727D01*
X118480000Y-37761000D01*
X118294469Y-37742727D01*
X118116068Y-37688609D01*
X117951653Y-37600728D01*
X117807541Y-37482459D01*
X117689272Y-37338347D01*
X117601391Y-37173932D01*
X117547273Y-36995531D01*
X117529000Y-36810000D01*
X117547273Y-36624469D01*
X117601391Y-36446068D01*
X117689272Y-36281653D01*
X117807541Y-36137541D01*
X117951653Y-36019272D01*
X118116068Y-35931391D01*
X118294469Y-35877273D01*
X118480000Y-35859000D01*
X118665531Y-35877273D01*
G37*
M02*
