%TF.GenerationSoftware,KiCad,Pcbnew,7.0.10*%
%TF.CreationDate,2024-02-23T13:36:45-06:00*%
%TF.ProjectId,B-Sides 2024,422d5369-6465-4732-9032-3032342e6b69,rev?*%
%TF.SameCoordinates,Original*%
%TF.FileFunction,Profile,NP*%
%FSLAX46Y46*%
G04 Gerber Fmt 4.6, Leading zero omitted, Abs format (unit mm)*
G04 Created by KiCad (PCBNEW 7.0.10) date 2024-02-23 13:36:45*
%MOMM*%
%LPD*%
G01*
G04 APERTURE LIST*
%TA.AperFunction,Profile*%
%ADD10C,0.123989*%
%TD*%
%TA.AperFunction,Profile*%
%ADD11C,0.090406*%
%TD*%
G04 APERTURE END LIST*
D10*
X71922668Y-95343479D02*
X71799856Y-94995232D01*
X56572201Y-98999310D02*
X57029539Y-99265545D01*
X57117292Y-116071633D02*
X57153897Y-116257120D01*
X141048269Y-41530189D02*
X140546534Y-40962677D01*
X56849737Y-112951531D02*
X56931109Y-113401145D01*
X81857339Y-91370678D02*
X81613141Y-92155905D01*
X56486143Y-43072709D02*
X56432236Y-43513481D01*
X52386491Y-130506166D02*
X52188520Y-130739599D01*
X144587352Y-115806978D02*
X145493618Y-115580486D01*
D11*
X110748692Y-38087122D02*
X110694965Y-38206000D01*
D10*
X76810814Y-96333452D02*
X76658182Y-96296267D01*
X145392631Y-154678863D02*
X145682754Y-154603969D01*
X148079646Y-122930875D02*
X148069569Y-122820703D01*
X56935732Y-105457967D02*
X56836325Y-105541654D01*
X145796266Y-52369373D02*
X145463515Y-50886136D01*
D11*
X91393950Y-34859314D02*
X91560537Y-34773630D01*
X109775178Y-34944406D02*
X110036287Y-35128246D01*
X90112133Y-38206173D02*
X90058391Y-38087267D01*
D10*
X147292050Y-129511143D02*
X147041334Y-129349485D01*
X144565443Y-122071228D02*
X144696349Y-122096686D01*
X60503305Y-102781814D02*
X60364468Y-102990485D01*
X146675315Y-79621950D02*
X146698338Y-78714777D01*
X147769522Y-153481732D02*
X147995533Y-153282313D01*
X63249566Y-91762852D02*
X63137549Y-91740583D01*
X145576576Y-105660967D02*
X145975333Y-104652543D01*
X55776434Y-109229306D02*
X55496883Y-109260724D01*
X147191686Y-88911299D02*
X147015851Y-88593009D01*
X54023621Y-154153540D02*
X54288954Y-154287942D01*
X63058484Y-128474208D02*
X63037598Y-128507458D01*
X147772584Y-91929648D02*
X147664307Y-90741017D01*
X53757914Y-110166867D02*
X53764953Y-110255487D01*
X142745516Y-127517714D02*
X142973300Y-127493971D01*
X51501212Y-151580581D02*
X51656611Y-151853534D01*
X142770121Y-43959707D02*
X141964016Y-42714560D01*
X57843794Y-106629234D02*
X57896216Y-106755870D01*
X70834108Y-96057966D02*
X70743881Y-96540459D01*
X142028228Y-109691740D02*
X144730911Y-107022146D01*
X60022387Y-103386108D02*
X59824936Y-103573133D01*
X50905164Y-133263246D02*
X50824738Y-133582989D01*
X144696349Y-122096686D02*
X145000566Y-122209908D01*
X132456070Y-35738542D02*
X131462826Y-35348373D01*
X144805929Y-116764088D02*
X145405911Y-116398840D01*
X141204070Y-111016411D02*
X141240107Y-110817131D01*
D11*
X91486705Y-39516698D02*
X91367810Y-39462811D01*
D10*
X134397597Y-36594317D02*
X133435302Y-36152471D01*
X56729548Y-105689265D02*
X56727972Y-105753263D01*
D11*
X90305827Y-38543273D02*
X90236019Y-38434344D01*
D10*
X53271843Y-129685813D02*
X53037226Y-129873062D01*
D11*
X89972751Y-36292988D02*
X90013733Y-36189626D01*
D10*
X55001825Y-109346055D02*
X54786033Y-109398862D01*
X148162423Y-114468700D02*
X148084117Y-114393246D01*
X143342492Y-127188825D02*
X143277796Y-127117426D01*
X111471981Y-30552720D02*
X109056142Y-30346609D01*
D11*
X90726766Y-39029626D02*
X90633554Y-38940688D01*
X106506457Y-39464650D02*
X104566242Y-39277906D01*
D10*
X147112705Y-77376863D02*
X147220035Y-77212487D01*
X70657587Y-96928021D02*
X70614806Y-97088802D01*
X81360775Y-82390256D02*
X81591610Y-82772101D01*
X143482794Y-113040134D02*
X142948545Y-112828440D01*
D11*
X96239434Y-39280057D02*
X94300186Y-39467376D01*
D10*
X57257362Y-116594862D02*
X57326958Y-116744967D01*
X60582956Y-122564643D02*
X60635872Y-122625091D01*
X144120501Y-125686257D02*
X144247757Y-125653963D01*
X145607107Y-116089606D02*
X145532458Y-116051578D01*
X64815440Y-93556298D02*
X64784348Y-93617811D01*
X143277796Y-127117426D02*
X143078802Y-126963360D01*
X145000566Y-122209908D02*
X146257431Y-122747801D01*
X63047723Y-91768836D02*
X62978548Y-91844225D01*
X147345801Y-76988217D02*
X147491617Y-76690471D01*
X142311147Y-127882623D02*
X142216744Y-127721305D01*
X118709286Y-31573612D02*
X116314797Y-31166861D01*
D11*
X91091094Y-35034717D02*
X91237555Y-34946351D01*
D10*
X147343706Y-89289543D02*
X147191686Y-88911299D01*
X62819155Y-57241461D02*
X63552022Y-58151103D01*
X142525843Y-128237466D02*
X142496290Y-128190528D01*
X64221907Y-127688230D02*
X63938051Y-127787949D01*
X62877556Y-92549422D02*
X62910929Y-93096797D01*
D11*
X90177047Y-35885663D02*
X90245806Y-35786466D01*
D10*
X57413694Y-109139387D02*
X57319056Y-109172745D01*
X64919274Y-93523204D02*
X64882639Y-93510533D01*
X64882639Y-93510533D02*
X64848115Y-93521052D01*
X147041337Y-154005301D02*
X147292054Y-153843643D01*
X50758104Y-133909074D02*
X50705632Y-134241083D01*
X142714696Y-128488327D02*
X142698701Y-128473141D01*
X142800804Y-128535270D02*
X142786848Y-128531636D01*
X53764953Y-110255487D02*
X53791396Y-110344041D01*
D11*
X105079677Y-33672007D02*
X105883176Y-33762740D01*
D10*
X57715276Y-106397236D02*
X57783507Y-106509350D01*
X57167389Y-47921217D02*
X57526279Y-48786159D01*
X58005099Y-108169721D02*
X57976178Y-108303467D01*
D11*
X90599382Y-35400964D02*
X90708710Y-35307534D01*
X91990543Y-39673771D02*
X91860682Y-39643611D01*
D10*
X63423762Y-96697857D02*
X63509295Y-97401279D01*
D11*
X110426522Y-38648216D02*
X110346871Y-38749603D01*
X105883176Y-33762740D02*
X106607318Y-33870740D01*
D10*
X138018944Y-38724060D02*
X137153629Y-38128953D01*
X138852706Y-39367880D02*
X138018944Y-38724060D01*
X56314629Y-154806369D02*
X56623613Y-154815092D01*
D11*
X91733310Y-39607267D02*
X91608594Y-39564907D01*
D10*
X56642566Y-112320383D02*
X56724795Y-112523562D01*
D11*
X91560537Y-34773630D02*
X91737577Y-34689324D01*
D10*
X56400291Y-109191733D02*
X56077523Y-109206125D01*
X147004015Y-100728463D02*
X147271244Y-99235426D01*
X75521693Y-96791707D02*
X75375487Y-96969861D01*
X55709509Y-154737839D02*
X56009804Y-154780479D01*
X56979856Y-113863803D02*
X57006924Y-114330900D01*
X142515129Y-125788110D02*
X143217819Y-125784307D01*
X58043093Y-107454716D02*
X58049970Y-107600494D01*
X54417212Y-109521990D02*
X54263899Y-109591204D01*
X56542021Y-45725331D02*
X56630937Y-46167063D01*
D11*
X108685091Y-39695508D02*
X108550818Y-39712599D01*
D10*
X54288954Y-129066851D02*
X54023620Y-129201254D01*
X143345920Y-127372034D02*
X143380843Y-127316833D01*
X144065834Y-118716001D02*
X143836128Y-118590828D01*
X145405911Y-116398840D02*
X145584591Y-116252998D01*
X145073836Y-49427514D02*
X144618442Y-47999533D01*
X144183128Y-154815092D02*
X144492114Y-154806369D01*
X80459998Y-93836211D02*
X80360910Y-93749418D01*
X145126736Y-124192843D02*
X145376619Y-124140645D01*
X73234119Y-98410866D02*
X73097928Y-98408401D01*
X58926667Y-104250166D02*
X58453013Y-104546550D01*
X147472655Y-89723441D02*
X147343706Y-89289543D01*
D11*
X90061270Y-36087268D02*
X90115622Y-35985939D01*
D10*
X145584591Y-116252998D02*
X145629002Y-116190734D01*
X149807733Y-150404538D02*
X149901581Y-150091552D01*
X74425710Y-69520360D02*
X75038280Y-71340185D01*
D11*
X110173700Y-38940196D02*
X110080518Y-39029065D01*
D10*
X60211022Y-121766078D02*
X60258012Y-121923037D01*
X145159789Y-106462294D02*
X145576576Y-105660967D01*
D11*
X110501326Y-38542993D02*
X110426522Y-38648216D01*
D10*
X113896947Y-30826350D02*
X111471981Y-30552720D01*
X74824538Y-97500326D02*
X74704099Y-97577139D01*
X53770421Y-110078736D02*
X53757914Y-110166867D01*
D11*
X89857055Y-36823977D02*
X89869165Y-36715972D01*
X91237555Y-34946351D02*
X91393950Y-34859314D01*
D10*
X145975333Y-104652543D02*
X146350119Y-103471399D01*
X63599928Y-127871527D02*
X63489078Y-127976226D01*
X116314797Y-31166861D02*
X113896947Y-30826350D01*
X136259684Y-37578399D02*
X135340032Y-37068240D01*
X145967236Y-154513573D02*
X146245706Y-154408092D01*
X58028821Y-107309583D02*
X58043093Y-107454716D01*
D11*
X91367810Y-39462811D02*
X91252078Y-39403411D01*
D10*
X148098879Y-114757682D02*
X148165957Y-114687285D01*
D11*
X90322160Y-35688373D02*
X90406367Y-35591408D01*
D10*
X63018567Y-128539701D02*
X56623613Y-128539701D01*
D11*
X90406367Y-35591408D02*
X90498687Y-35495596D01*
D10*
X141753258Y-125961960D02*
X141809088Y-125911225D01*
X148084117Y-114393246D02*
X147962811Y-114316431D01*
X146478388Y-115343281D02*
X146946984Y-115219894D01*
X148228675Y-72659875D02*
X148183841Y-71860019D01*
X55091750Y-111104273D02*
X55322249Y-111155590D01*
D11*
X91608594Y-39564907D02*
X91486705Y-39516698D01*
D10*
X144946490Y-106774553D02*
X145159789Y-106462294D01*
X142786848Y-128531636D02*
X142772942Y-128526612D01*
X54131128Y-109664782D02*
X54018756Y-109742168D01*
X80360910Y-93749418D02*
X80273626Y-93701415D01*
X73382487Y-98360912D02*
X73234119Y-98410866D01*
X71586951Y-94739397D02*
X71504841Y-94744386D01*
D11*
X96506875Y-33633784D02*
X98368340Y-33521049D01*
D10*
X147737927Y-123140941D02*
X147885829Y-123126667D01*
X145910692Y-123697142D02*
X145902546Y-123582471D01*
X76518733Y-96275002D02*
X76391303Y-96268607D01*
X62879527Y-92319349D02*
X62877556Y-92549422D01*
X146946984Y-115219894D02*
X147371330Y-115092908D01*
X53514694Y-129511151D02*
X53271843Y-129685813D01*
X147490740Y-97707179D02*
X147656563Y-96178100D01*
X143816891Y-124919835D02*
X143767293Y-124861259D01*
X80088071Y-81082782D02*
X80474864Y-81422167D01*
X95180563Y-30039807D02*
X92714546Y-30104362D01*
X76267694Y-74989012D02*
X76621023Y-75879662D01*
D11*
X89909409Y-36502622D02*
X89938062Y-36397328D01*
D10*
X60702946Y-101375479D02*
X60759560Y-101628419D01*
X63586150Y-124826123D02*
X64009613Y-125234623D01*
X56545340Y-112125842D02*
X56642566Y-112320383D01*
X73909372Y-97848555D02*
X73719240Y-98084554D01*
X145902546Y-123582471D02*
X145865450Y-123462655D01*
X77576473Y-96662359D02*
X77359458Y-96551009D01*
X77008199Y-76753643D02*
X77436951Y-77606931D01*
X147271244Y-99235426D02*
X147490740Y-97707179D01*
X63509295Y-97401279D02*
X63560409Y-98035894D01*
X142624325Y-128383527D02*
X142602353Y-128352837D01*
X54822564Y-97829045D02*
X55244525Y-98142016D01*
X76658182Y-96296267D02*
X76518733Y-96275002D01*
X72858581Y-98265401D02*
X72753680Y-98134462D01*
X59745007Y-120471227D02*
X59818764Y-120601179D01*
X146815460Y-88338968D02*
X146727738Y-84743613D01*
X63564784Y-98574613D02*
X63007783Y-98531159D01*
X141908902Y-125867768D02*
X142056987Y-125832294D01*
X57729274Y-108869952D02*
X57659982Y-108955676D01*
X148618228Y-152615195D02*
X148806112Y-152371258D01*
X59855494Y-120660108D02*
X59889348Y-120721891D01*
X78450100Y-79235336D02*
X79049954Y-80002407D01*
X50705632Y-149113717D02*
X50758104Y-149445725D01*
X59202983Y-118984174D02*
X59300060Y-119233366D01*
D11*
X95653052Y-33716170D02*
X96506875Y-33633784D01*
D10*
X68392949Y-63207266D02*
X70135256Y-64766043D01*
X78456316Y-97040102D02*
X78261830Y-96997657D01*
X50999012Y-132950259D02*
X50905164Y-133263246D01*
X58374496Y-50478996D02*
X58843469Y-51301782D01*
X54839510Y-154513573D02*
X55123992Y-154603969D01*
X54263899Y-109591204D02*
X54131128Y-109664782D01*
X51357382Y-151298788D02*
X51501212Y-151580581D01*
X63950329Y-92424880D02*
X63734154Y-92166658D01*
D11*
X110955988Y-37180632D02*
X110945640Y-37316916D01*
X109667749Y-39337757D02*
X109555389Y-39402391D01*
D10*
X70280770Y-97695288D02*
X70222789Y-97720265D01*
X70135256Y-64766043D02*
X71919467Y-66276190D01*
X142729961Y-128501053D02*
X142714696Y-128488327D01*
X53037227Y-153481732D02*
X53271843Y-153668981D01*
X65619804Y-94923696D02*
X65092221Y-93774988D01*
X135340032Y-37068240D02*
X134397597Y-36594317D01*
D11*
X110596790Y-35717979D02*
X110718401Y-35926299D01*
D10*
X56931109Y-113401145D02*
X56979856Y-113863803D01*
X52594180Y-130283655D02*
X52386491Y-130506166D01*
D11*
X107238590Y-33996000D02*
X107790399Y-34134166D01*
X94300186Y-39467376D02*
X93390973Y-39588984D01*
D10*
X78047599Y-96916834D02*
X77812496Y-96794874D01*
X55871090Y-96555797D02*
X55265672Y-96452637D01*
X148183841Y-71860019D02*
X148104102Y-71027712D01*
X70743881Y-96540459D02*
X70657587Y-96928021D01*
X64308822Y-59039783D02*
X65087874Y-59908601D01*
X147314280Y-114077443D02*
X146618133Y-113910612D01*
D11*
X92257055Y-39714867D02*
X92122723Y-39697579D01*
D10*
X54561041Y-154408092D02*
X54839510Y-154513573D01*
X50636899Y-148086309D02*
X50644659Y-148433592D01*
X143836128Y-118590828D02*
X143662686Y-118464130D01*
X60754999Y-122736897D02*
X60821744Y-122787825D01*
X141809088Y-125911225D02*
X141908902Y-125867768D01*
X72657464Y-97970294D02*
X72569060Y-97777694D01*
X75398041Y-32659275D02*
X72673551Y-33380240D01*
X56150002Y-111604796D02*
X56300426Y-111766973D01*
X143753853Y-125741816D02*
X144120501Y-125686257D01*
X77812496Y-96794874D02*
X77576473Y-96662359D01*
X60821744Y-122787825D02*
X60893634Y-122835150D01*
X148137390Y-74542531D02*
X148182748Y-74177465D01*
X68531224Y-34698560D02*
X67159450Y-35209664D01*
X129445992Y-34622676D02*
X127408187Y-33942110D01*
D11*
X92122723Y-39697579D02*
X91990543Y-39673771D01*
X107790399Y-34134166D02*
X108286970Y-34280691D01*
D10*
X78037290Y-32044813D02*
X75398041Y-32659275D01*
X58263460Y-117558123D02*
X58372320Y-117661751D01*
X150048640Y-133909066D02*
X149982006Y-133582982D01*
X149305533Y-131774207D02*
X149150134Y-131501253D01*
D11*
X108550818Y-39712599D02*
X108414565Y-39722988D01*
D10*
X144492114Y-154806369D02*
X144796940Y-154780479D01*
X143380843Y-127316833D02*
X143378271Y-127255529D01*
X133435302Y-36152471D02*
X132456070Y-35738542D01*
X57896216Y-106755870D02*
X57940851Y-106888240D01*
X67875116Y-97043440D02*
X67672089Y-97006400D01*
X66241040Y-95961849D02*
X66008254Y-95623604D01*
X57584235Y-109029836D02*
X57502113Y-109091412D01*
D11*
X90380653Y-38648540D02*
X90305827Y-38543273D01*
D10*
X56473728Y-45282961D02*
X56542021Y-45725331D01*
X141313869Y-110609512D02*
X141427459Y-110393358D01*
X143986815Y-124450729D02*
X144134897Y-124393866D01*
X80476871Y-31487799D02*
X79257094Y-31752393D01*
X72569060Y-97777694D02*
X72412197Y-97326393D01*
X145967234Y-128841212D02*
X145682752Y-128750817D01*
X141964016Y-42714560D02*
X141048269Y-41530189D01*
X78932567Y-96964718D02*
X78790557Y-97020876D01*
X55238728Y-109299825D02*
X55001825Y-109346055D01*
D11*
X109439700Y-39461672D02*
X109320850Y-39515432D01*
X108947022Y-39641897D02*
X108817215Y-39671885D01*
D10*
X68637082Y-97201392D02*
X68463525Y-97154360D01*
X63154516Y-36987715D02*
X61876189Y-37669059D01*
D11*
X110880080Y-36358762D02*
X110925577Y-36582308D01*
D10*
X66502351Y-96275870D02*
X66367998Y-96122657D01*
X82390287Y-85498238D02*
X82464205Y-86508925D01*
X51656611Y-151853534D02*
X51823209Y-152117232D01*
X50667694Y-134578599D02*
X50644659Y-134921208D01*
X149700834Y-150710350D02*
X149807733Y-150404538D01*
X148212568Y-153071139D02*
X148420256Y-152848628D01*
X57974020Y-97126342D02*
X57237306Y-96903943D01*
X137153629Y-38128953D02*
X136259684Y-37578399D01*
X58027017Y-108031533D02*
X58005099Y-108169721D01*
X59440249Y-39177489D02*
X58294549Y-40008822D01*
X147544072Y-123126681D02*
X147737927Y-123140941D01*
X50999012Y-150404538D02*
X51105911Y-150710350D01*
X142056987Y-125832294D02*
X142515129Y-125788110D01*
X50824738Y-133582989D02*
X50758104Y-133909074D01*
X75038280Y-71340185D02*
X75631665Y-73173797D01*
X52188520Y-130739599D02*
X52000635Y-130983537D01*
D11*
X91737577Y-34689324D02*
X91925330Y-34606422D01*
D10*
X53904681Y-96562336D02*
X53760046Y-96656572D01*
X58824211Y-118234820D02*
X58967471Y-118481314D01*
X68463525Y-97154360D02*
X68278974Y-97111664D01*
X149700833Y-132644439D02*
X149581253Y-132346217D01*
X56679999Y-42195317D02*
X56568307Y-42633214D01*
X145386249Y-122839060D02*
X145132455Y-122606273D01*
X143475371Y-45259603D02*
X142770121Y-43959707D01*
X144554942Y-122087649D02*
X144565443Y-122071228D01*
X58886247Y-100294240D02*
X59806579Y-100819080D01*
X146660941Y-122894445D02*
X147008162Y-123005257D01*
X57462139Y-106117690D02*
X57554671Y-106200388D01*
X53854643Y-109906154D02*
X53802617Y-109991648D01*
X79271673Y-96643139D02*
X79171998Y-96773093D01*
X79614713Y-95762184D02*
X79504056Y-96149777D01*
X62978548Y-91844225D02*
X62928483Y-91963365D01*
D11*
X108731019Y-34435276D02*
X109125259Y-34597622D01*
X89847560Y-37042525D02*
X89849940Y-36932837D01*
D10*
X82464205Y-86508925D02*
X82459222Y-87535174D01*
X70482605Y-97451617D02*
X70435773Y-97536179D01*
X145097234Y-128616947D02*
X144796939Y-128574306D01*
D11*
X110444378Y-35515331D02*
X110596790Y-35717979D01*
X108286970Y-34280691D02*
X108731019Y-34435276D01*
D10*
X53271843Y-153668981D02*
X53514695Y-153843643D01*
X80474864Y-81422167D02*
X80803696Y-81712632D01*
D11*
X90498687Y-35495596D02*
X90599382Y-35400964D01*
D10*
X150169845Y-135268484D02*
X150162085Y-134921200D01*
X81964342Y-83608571D02*
X82108827Y-84057882D01*
D11*
X110571113Y-38434104D02*
X110501326Y-38542993D01*
D10*
X147962811Y-114316431D02*
X147795843Y-114238218D01*
X53514695Y-153843643D02*
X53765411Y-154005301D01*
X150162085Y-134921200D02*
X150139050Y-134578592D01*
X97656249Y-30023231D02*
X95180563Y-30039807D01*
X76621023Y-75879662D02*
X77008199Y-76753643D01*
X56404102Y-44397582D02*
X56427332Y-44840271D01*
X147015851Y-88593009D02*
X146815460Y-88338968D01*
X142814964Y-128537725D02*
X142800804Y-128535270D01*
D11*
X109320850Y-39515432D02*
X109199008Y-39563502D01*
D10*
X67294296Y-96874133D02*
X67119003Y-96781984D01*
X59391701Y-103925790D02*
X58926667Y-104250166D01*
X56623613Y-154815092D02*
X144183128Y-154815092D01*
X146727738Y-84743613D02*
X146677357Y-81842532D01*
X144608573Y-113400173D02*
X144041745Y-113230190D01*
D11*
X90460329Y-38749977D02*
X90380653Y-38648540D01*
D10*
X57326958Y-116744967D02*
X57410288Y-116881126D01*
X145803418Y-123339198D02*
X145620611Y-123087381D01*
X81352158Y-92829161D02*
X81084741Y-93369191D01*
D11*
X110951134Y-36810332D02*
X110959465Y-37042536D01*
X102328178Y-33503496D02*
X104210336Y-33598550D01*
D10*
X143947003Y-125035385D02*
X143816891Y-124919835D01*
D11*
X109472408Y-34767432D02*
X109775178Y-34944406D01*
X90633554Y-38940688D02*
X90544685Y-38847416D01*
D10*
X75216772Y-97152944D02*
X75129812Y-97243711D01*
X67159450Y-35209664D02*
X65802102Y-35760142D01*
X70435773Y-97536179D02*
X70386819Y-97604285D01*
D11*
X98292451Y-39167350D02*
X96239434Y-39280057D01*
D10*
X60258012Y-121923037D02*
X60311677Y-122076776D01*
D11*
X110346871Y-38749603D02*
X110262541Y-38846985D01*
D10*
X146245703Y-128946693D02*
X145967234Y-128841212D01*
X57200131Y-116431888D02*
X57257362Y-116594862D01*
X146733691Y-58427932D02*
X146326123Y-55385584D01*
X63037598Y-128507458D02*
X63018567Y-128539701D01*
X81084741Y-93369191D02*
X80821244Y-93754740D01*
X71504841Y-94744386D02*
X71415706Y-94802505D01*
X56405313Y-43955212D02*
X56404102Y-44397582D01*
X71318673Y-94918551D02*
X71212870Y-95097323D01*
X149982007Y-149771809D02*
X150048641Y-149445725D01*
X106665675Y-30208657D02*
X104316822Y-30139502D01*
X143929923Y-116025213D02*
X144216887Y-115916974D01*
X143767293Y-124861259D02*
X143731974Y-124802357D01*
X142681822Y-128455281D02*
X142663904Y-128434535D01*
X141395099Y-111734051D02*
X141301271Y-111566172D01*
D11*
X90236019Y-38434344D02*
X90171398Y-38321921D01*
D10*
X141983775Y-126300154D02*
X141806788Y-126150789D01*
X69865564Y-97681477D02*
X69682979Y-97608989D01*
X127408187Y-33942110D02*
X125372798Y-33273401D01*
X77359458Y-96551009D02*
X77160287Y-96459773D01*
X147664307Y-90741017D02*
X147472655Y-89723441D01*
X60693130Y-122682580D02*
X60754999Y-122736897D01*
X74428210Y-97711382D02*
X74270430Y-97766714D01*
X72153812Y-96293714D02*
X71922668Y-95343479D01*
X60311677Y-122076776D02*
X60374157Y-122225573D01*
X147324883Y-65139099D02*
X147216924Y-63972990D01*
X79504056Y-96149777D02*
X79436575Y-96328724D01*
X142772942Y-128526612D02*
X142758929Y-128519982D01*
X75036230Y-97332563D02*
X74934860Y-97418451D01*
X56724795Y-112523562D02*
X56793396Y-112734303D01*
D11*
X90925547Y-39193825D02*
X90824153Y-39114061D01*
D10*
X141782535Y-109934668D02*
X142028228Y-109691740D01*
X60447590Y-122367707D02*
X60489082Y-122435736D01*
X148618225Y-130739591D02*
X148420253Y-130506159D01*
X62111904Y-56309756D02*
X62819155Y-57241461D01*
D11*
X89931998Y-37713286D02*
X89902039Y-37583431D01*
D10*
X144088549Y-46608220D02*
X143475371Y-45259603D01*
X146517793Y-154287942D02*
X146783127Y-154153540D01*
X79974841Y-93946810D02*
X79898521Y-94220042D01*
D11*
X94166796Y-33933017D02*
X94868522Y-33815911D01*
D10*
X66008254Y-95623604D02*
X65801880Y-95273449D01*
X74092908Y-68625677D02*
X74425710Y-69520360D01*
X141427459Y-110393358D02*
X141582980Y-110168475D01*
X145234898Y-116002681D02*
X144711845Y-115992779D01*
X149982006Y-133582982D02*
X149901580Y-133263238D01*
X80020003Y-93842197D02*
X79974841Y-93946810D01*
X62895989Y-92122868D02*
X62879527Y-92319349D01*
X76069470Y-96328150D02*
X75978462Y-96370744D01*
D11*
X89878448Y-37451260D02*
X89861392Y-37316940D01*
D10*
X63938051Y-127787949D02*
X63599928Y-127871527D01*
X71662908Y-94782740D02*
X71586951Y-94739397D01*
X72412197Y-97326393D02*
X72153812Y-96293714D01*
X63106208Y-128404463D02*
X63081322Y-128439895D01*
X150169845Y-148086309D02*
X150169845Y-135268484D01*
X52188520Y-152615195D02*
X52386492Y-152848628D01*
D11*
X110036287Y-35128246D02*
X110258448Y-35318654D01*
X89869165Y-36715972D02*
X89886529Y-36608845D01*
D10*
X56965262Y-105906456D02*
X57134688Y-105944708D01*
X56009803Y-128574314D02*
X55709509Y-128616955D01*
X55414114Y-128675930D02*
X55123991Y-128750824D01*
X144405032Y-125581120D02*
X144441012Y-125540881D01*
X144321101Y-124337914D02*
X144548406Y-124283027D01*
D11*
X110905003Y-37583373D02*
X110875052Y-37713209D01*
D10*
X76167836Y-96296230D02*
X76069470Y-96328150D01*
X62201208Y-123713914D02*
X62660350Y-124056666D01*
X54684413Y-110983736D02*
X54879091Y-111046804D01*
X149449363Y-132056000D02*
X149305533Y-131774207D01*
X147995529Y-130072474D02*
X147769518Y-129873054D01*
X54507859Y-110915623D02*
X54684413Y-110983736D01*
X63083823Y-94445654D02*
X63316126Y-95952720D01*
X50824738Y-149771809D02*
X50905164Y-150091552D01*
X63390687Y-128073974D02*
X63303980Y-128165223D01*
X58843469Y-51301782D02*
X59820255Y-52887312D01*
X144796940Y-154780479D02*
X145097236Y-154737839D01*
X121064173Y-32045965D02*
X118709286Y-31573612D01*
X56568307Y-42633214D02*
X56486143Y-43072709D01*
X75978462Y-96370744D02*
X75893647Y-96422962D01*
X57894485Y-117277285D02*
X58024844Y-117365442D01*
X143448110Y-117950441D02*
X143493406Y-117822382D01*
X72673551Y-33380240D02*
X71294231Y-33785973D01*
D11*
X109199008Y-39563502D02*
X109074342Y-39605713D01*
D10*
X148182748Y-74177465D02*
X148230883Y-73431087D01*
X57554671Y-106200388D02*
X57639023Y-106293910D01*
X57029539Y-99265545D02*
X58886247Y-100294240D01*
X58570654Y-117881337D02*
X58660730Y-117996399D01*
X61398427Y-123157877D02*
X62201208Y-123713914D01*
X148983538Y-152117232D02*
X149150136Y-151853534D01*
X69682979Y-97608989D02*
X69230239Y-97412086D01*
X65887495Y-60758657D02*
X66706002Y-61591053D01*
X150101112Y-134241075D02*
X150048640Y-133909066D01*
X82253966Y-89549335D02*
X82074398Y-90494736D01*
X54728103Y-96411812D02*
X54488525Y-96418303D01*
X143146437Y-127461307D02*
X143269214Y-127420427D01*
X147041334Y-129349485D02*
X146783124Y-129201246D01*
D11*
X90171398Y-38321921D02*
X90112133Y-38206173D01*
D10*
X148230883Y-73431087D02*
X148228675Y-72659875D01*
X78632182Y-97046922D02*
X78456316Y-97040102D01*
X57572552Y-105056502D02*
X57212098Y-105270651D01*
X55496883Y-109260724D02*
X55238728Y-109299825D01*
X64958286Y-93557524D02*
X64919274Y-93523204D01*
X143217819Y-125784307D02*
X143753853Y-125741816D01*
X57111435Y-109191534D02*
X56744881Y-109186685D01*
D11*
X90544685Y-38847416D02*
X90460329Y-38749977D01*
D10*
X147371330Y-115092908D02*
X147730135Y-114962016D01*
X53837100Y-110431978D02*
X53901924Y-110518742D01*
D11*
X90013733Y-36189626D02*
X90061270Y-36087268D01*
X109555389Y-39402391D02*
X109439700Y-39461672D01*
D10*
X144041745Y-113230190D02*
X143482794Y-113040134D01*
X63303980Y-128165223D02*
X63228181Y-128250420D01*
X142578719Y-128318407D02*
X142553268Y-128280021D01*
X65802102Y-35760142D02*
X64465139Y-36352117D01*
X55709509Y-128616955D02*
X55414114Y-128675930D01*
X57977778Y-107025328D02*
X58007075Y-107166115D01*
X143793093Y-124566566D02*
X143873874Y-124508347D01*
X79049954Y-80002407D02*
X79376582Y-80372399D01*
X149449365Y-151298788D02*
X149581254Y-151008572D01*
X56793396Y-112734303D02*
X56849737Y-112951531D01*
X76274726Y-96276032D02*
X76167836Y-96296230D01*
X72753680Y-98134462D02*
X72657464Y-97970294D01*
X144370088Y-125358084D02*
X144247444Y-125255747D01*
X74704099Y-97577139D02*
X74572378Y-97647840D01*
X64868646Y-127150709D02*
X64774864Y-127303611D01*
X145865450Y-123462655D02*
X145803418Y-123339198D01*
X147534905Y-153668981D02*
X147769522Y-153481732D01*
X59889348Y-120721891D02*
X59949496Y-120853162D01*
D11*
X92124055Y-34524948D02*
X92334013Y-34444927D01*
D10*
X142602353Y-128352837D02*
X142578719Y-128318407D01*
X63316126Y-95952720D02*
X63423762Y-96697857D01*
D11*
X110945640Y-37316916D02*
X110928588Y-37451219D01*
D10*
X59806579Y-100819080D02*
X60258631Y-101092183D01*
X148076551Y-74902816D02*
X148137390Y-74542531D01*
X140546534Y-40962677D02*
X140014094Y-40412620D01*
D11*
X109776610Y-39267939D02*
X109667749Y-39337757D01*
X91925330Y-34606422D02*
X92124055Y-34524948D01*
D10*
X58007075Y-107166115D02*
X58028821Y-107309583D01*
X59949496Y-120853162D02*
X60001348Y-120993270D01*
X66706002Y-61591053D02*
X67541714Y-62406889D01*
X147851460Y-122381000D02*
X147724744Y-122204118D01*
X56121089Y-98724846D02*
X56572201Y-98999310D01*
X148054105Y-123019810D02*
X148079646Y-122930875D01*
X148212565Y-130283647D02*
X147995529Y-130072474D01*
X60047043Y-121140492D02*
X60211022Y-121766078D01*
X75737936Y-96552077D02*
X75664710Y-96626875D01*
X60364468Y-102990485D02*
X60203196Y-103191904D01*
X59606800Y-120131527D02*
X59675156Y-120313481D01*
X64936602Y-126814690D02*
X64921658Y-126987356D01*
X146080873Y-53871198D02*
X145796266Y-52369373D01*
X59537524Y-119928952D02*
X59606800Y-120131527D01*
X142216744Y-127721305D02*
X142108848Y-127535620D01*
X144442558Y-125453542D02*
X144414085Y-125406750D01*
X147904573Y-75610949D02*
X147999267Y-75258797D01*
X56744881Y-109186685D02*
X56400291Y-109191733D01*
X60759560Y-101628419D02*
X60776357Y-101873891D01*
X55979109Y-111455559D02*
X56150002Y-111604796D01*
X145682752Y-128750817D02*
X145392629Y-128675923D01*
X143716094Y-124684188D02*
X143741494Y-124625231D01*
X73543903Y-98253741D02*
X73382487Y-98360912D01*
X141831419Y-112194293D02*
X141662276Y-112047915D01*
X143493406Y-117822382D02*
X143569935Y-117695305D01*
X63194130Y-128290891D02*
X63162516Y-128330017D01*
X72973039Y-98358313D02*
X72858581Y-98265401D01*
X79359489Y-96494097D02*
X79271673Y-96643139D01*
X75813860Y-96483756D02*
X75737936Y-96552077D01*
X58294549Y-40008822D02*
X57204970Y-40894401D01*
X79436575Y-96328724D02*
X79359489Y-96494097D01*
X143078802Y-126963360D02*
X142522485Y-126629877D01*
D11*
X89851042Y-37180639D02*
X89847564Y-37042526D01*
D10*
X147491617Y-76690471D02*
X147659095Y-76305666D01*
X60616809Y-102565856D02*
X60503305Y-102781814D01*
X60776357Y-101873891D02*
X60756232Y-102111931D01*
X59300060Y-119233366D02*
X59386567Y-119476284D01*
X146245706Y-154408092D02*
X146517793Y-154287942D01*
X60756232Y-102111931D02*
X60702084Y-102342573D01*
X144183128Y-128539694D02*
X142912933Y-128539694D01*
X148069569Y-122820703D02*
X148026456Y-122691117D01*
X59824936Y-103573133D02*
X59391701Y-103925790D01*
D11*
X110080518Y-39029065D02*
X109983164Y-39113424D01*
D10*
X144548406Y-124283027D02*
X144819793Y-124229360D01*
X50644659Y-134921208D02*
X50636899Y-135268492D01*
X60374157Y-122225573D02*
X60409370Y-122297581D01*
X74270430Y-97766714D02*
X74097872Y-97812788D01*
X54018756Y-109742168D02*
X53926642Y-109822810D01*
X71733585Y-94869618D02*
X71662908Y-94782740D01*
X71294231Y-33785973D02*
X69911470Y-34224704D01*
X57526279Y-48786159D02*
X57932040Y-49639604D01*
X147990360Y-123085682D02*
X148027169Y-123055742D01*
D11*
X91030778Y-39268750D02*
X90925547Y-39193825D01*
D10*
X145620611Y-123087381D02*
X145386249Y-122839060D01*
X148002108Y-114826910D02*
X148098879Y-114757682D01*
X142973300Y-127493971D02*
X143146437Y-127461307D01*
D11*
X89968155Y-37840655D02*
X89931998Y-37713286D01*
D10*
X144134897Y-124393866D02*
X144321101Y-124337914D01*
D11*
X110796728Y-37965252D02*
X110748692Y-38087122D01*
D10*
X53901924Y-110518742D02*
X53985726Y-110603782D01*
D11*
X90954306Y-35124386D02*
X91091094Y-35034717D01*
D10*
X147803425Y-93254957D02*
X147772584Y-91929648D01*
X141240107Y-110817131D02*
X141313869Y-110609512D01*
X56764801Y-105810769D02*
X56842932Y-105861821D01*
X144796939Y-128574306D02*
X144492113Y-128548416D01*
X56997058Y-41325591D02*
X56822492Y-41759336D01*
X148420256Y-152848628D02*
X148618228Y-152615195D01*
X56623613Y-128539701D02*
X56314629Y-128548424D01*
D11*
X108817215Y-39671885D02*
X108685091Y-39695508D01*
D10*
X66367998Y-96122657D02*
X66241040Y-95961849D01*
X147216924Y-63972990D02*
X147135809Y-62743960D01*
D11*
X91860682Y-39643611D02*
X91733310Y-39607267D01*
D10*
X52811216Y-153282313D02*
X53037227Y-153481732D01*
X55244525Y-98142016D02*
X55677948Y-98439848D01*
X149150134Y-131501253D02*
X148983536Y-131237555D01*
X145532458Y-116051578D02*
X145409779Y-116022464D01*
X74097872Y-97812788D02*
X73909372Y-97848555D01*
D11*
X110718401Y-35926299D02*
X110811926Y-36139993D01*
D10*
X57783507Y-106509350D02*
X57843794Y-106629234D01*
D11*
X89886529Y-36608845D02*
X89909409Y-36502622D01*
X92555464Y-34366384D02*
X92788667Y-34289344D01*
D10*
X60534115Y-122501453D02*
X60582956Y-122564643D01*
X147016717Y-121393666D02*
X146578179Y-120952225D01*
X99312808Y-30034041D02*
X97656249Y-30023231D01*
X143662686Y-118464130D02*
X143541334Y-118336324D01*
X145376619Y-124140645D02*
X145573459Y-124074274D01*
D11*
X104566242Y-39277906D02*
X102512644Y-39166174D01*
D10*
X146783127Y-154153540D02*
X147041337Y-154005301D01*
X57932040Y-49639604D02*
X58374496Y-50478996D01*
X69230239Y-97412086D02*
X68952987Y-97304304D01*
X56822492Y-41759336D02*
X56679999Y-42195317D01*
X60997283Y-98074597D02*
X57974020Y-97126342D01*
X145132455Y-122606273D02*
X144695069Y-122235452D01*
X146618133Y-113910612D02*
X145698556Y-113686166D01*
X56300426Y-111766973D02*
X56431750Y-111941014D01*
X70527759Y-97349560D02*
X70482605Y-97451617D01*
X75129812Y-97243711D02*
X75036230Y-97332563D01*
X58024844Y-117365442D02*
X58147735Y-117459204D01*
X79059338Y-96881205D02*
X78932567Y-96964718D01*
D11*
X90826931Y-35215333D02*
X90954306Y-35124386D01*
D10*
X77436951Y-77606931D02*
X77915009Y-78435503D01*
X56842932Y-105861821D02*
X56965262Y-105906456D01*
X141756397Y-126082446D02*
X141737124Y-126019268D01*
X147659095Y-76305673D02*
X147791504Y-75959750D01*
X150139050Y-134578592D02*
X150101112Y-134241075D01*
X145573459Y-124074274D02*
X145721270Y-123995233D01*
X57006924Y-114330900D02*
X57039799Y-115244004D01*
X123363212Y-32583281D02*
X121064173Y-32045965D01*
X65092221Y-93774988D02*
X64999938Y-93611954D01*
X144441012Y-125540881D02*
X144452527Y-125498304D01*
X51105911Y-150710350D02*
X51225491Y-151008572D01*
D11*
X100344810Y-33477641D02*
X102328178Y-33503496D01*
D10*
X141301271Y-111566172D02*
X141236755Y-111390737D01*
X53765411Y-154005301D02*
X54023621Y-154153540D01*
X75375487Y-96969861D02*
X75216772Y-97152944D01*
X50667694Y-148776200D02*
X50705632Y-149113717D01*
X148165957Y-114687285D02*
X148200682Y-114615681D01*
D11*
X89861392Y-37316940D02*
X89851042Y-37180639D01*
X90115622Y-35985939D02*
X90177047Y-35885663D01*
D10*
X146257431Y-122747801D02*
X146660941Y-122894445D01*
X56431750Y-111941014D02*
X56545340Y-112125842D01*
X67119003Y-96781984D02*
X66952426Y-96674544D01*
X144730911Y-107022146D02*
X144946490Y-106774553D01*
X147292054Y-153843643D02*
X147534905Y-153668981D01*
X54591209Y-109457691D02*
X54417212Y-109521990D01*
X54879091Y-111046804D02*
X55091750Y-111104273D01*
X58372320Y-117661751D02*
X58474618Y-117769638D01*
X53802617Y-109991648D02*
X53770421Y-110078736D01*
X81098568Y-82036215D02*
X81360775Y-82390256D01*
X57897641Y-108553563D02*
X57848182Y-108667877D01*
X147135809Y-62743960D02*
X147089256Y-61448202D01*
X80572017Y-93964552D02*
X80459998Y-93836211D01*
X53765410Y-129349492D02*
X53514694Y-129511151D01*
X143731974Y-124802357D02*
X143713914Y-124743281D01*
X56836325Y-105541654D02*
X56766631Y-105618741D01*
X144098468Y-125147768D02*
X143947003Y-125035385D01*
X60258631Y-101092183D02*
X60702946Y-101375479D01*
X146946897Y-77580268D02*
X147022197Y-77494929D01*
X57639023Y-106293910D02*
X57715276Y-106397236D01*
X73732124Y-67746511D02*
X74092908Y-68625677D01*
X58474618Y-117769638D02*
X58570654Y-117881337D01*
X56077523Y-109206125D02*
X55776434Y-109229306D01*
X145392629Y-128675923D02*
X145097234Y-128616947D01*
X51357381Y-132056008D02*
X51225491Y-132346224D01*
X64999938Y-93611954D02*
X64958286Y-93557524D01*
D11*
X92788667Y-34289344D02*
X93033882Y-34213833D01*
D10*
X143873874Y-124508347D02*
X143986815Y-124450729D01*
X143269214Y-127420427D02*
X143345920Y-127372034D01*
D11*
X91139678Y-39338668D02*
X91030778Y-39268750D01*
D10*
X82108827Y-84057882D02*
X82227117Y-84524368D01*
X71415706Y-94802505D02*
X71318673Y-94918551D01*
X147405796Y-121815828D02*
X147016717Y-121393666D01*
X142948545Y-112828440D02*
X142455825Y-112593548D01*
D11*
X93561389Y-34067494D02*
X94166796Y-33933017D01*
D10*
X67478570Y-96949451D02*
X67294296Y-96874133D01*
X54209691Y-110766473D02*
X54349571Y-110843017D01*
D11*
X94868522Y-33815911D02*
X95653052Y-33716170D01*
D10*
X63007783Y-98531159D02*
X62386171Y-98425809D01*
X57237306Y-96903943D02*
X56532315Y-96709996D01*
X146698338Y-78714777D02*
X146724098Y-78165687D01*
X139449851Y-39880769D02*
X138852706Y-39367880D01*
X62928483Y-91963365D02*
X62895989Y-92122868D01*
X75893647Y-96422962D02*
X75813860Y-96483756D01*
X60203196Y-103191904D02*
X60022387Y-103386108D01*
X58967471Y-118481314D02*
X59092924Y-118732294D01*
X68952987Y-97304304D02*
X68637082Y-97201392D01*
X147724744Y-122204118D02*
X147405796Y-121815828D01*
X57976178Y-108303467D02*
X57940333Y-108431753D01*
X147089256Y-61448202D02*
X146733691Y-58427932D01*
X146350119Y-103471399D02*
X146694993Y-102151913D01*
X149305535Y-151580581D02*
X149449365Y-151298788D01*
X141806788Y-126150789D02*
X141756397Y-126082446D01*
X141582980Y-110168475D02*
X141782535Y-109934668D01*
X57218277Y-109190466D02*
X57111435Y-109191534D01*
X50636899Y-135268492D02*
X50636899Y-148086309D01*
X64780012Y-126252189D02*
X64863079Y-126445968D01*
D11*
X109881805Y-39193105D02*
X109776610Y-39267939D01*
X110959465Y-37042536D02*
X110955988Y-37180632D01*
D10*
X57212098Y-105270651D02*
X56935732Y-105457967D01*
X54488525Y-96418303D02*
X54270426Y-96444614D01*
X149901581Y-150091552D02*
X149982007Y-149771809D01*
X56432236Y-43513481D02*
X56405313Y-43955212D01*
X148806109Y-130983529D02*
X148618225Y-130739591D01*
X79700474Y-95353364D02*
X79614713Y-95762184D01*
X150101112Y-149113717D02*
X150139050Y-148776200D01*
X143378271Y-127255529D02*
X143342492Y-127188825D01*
X70023692Y-97725568D02*
X69947464Y-97707592D01*
X63489078Y-127976226D02*
X63390687Y-128073974D01*
D11*
X110838904Y-37840558D02*
X110796728Y-37965252D01*
D10*
X150139050Y-148776200D02*
X150162085Y-148433592D01*
X54088362Y-110686544D02*
X54209691Y-110766473D01*
X147301678Y-123082060D02*
X147544072Y-123126681D01*
X147885829Y-123126667D02*
X147990360Y-123085682D01*
X52386492Y-152848628D02*
X52594181Y-153071139D01*
X90256695Y-30226639D02*
X87805506Y-30416379D01*
X87805506Y-30416379D02*
X85359475Y-30683324D01*
X57502113Y-109091412D02*
X57413694Y-109139387D01*
X63137549Y-91740583D02*
X63047723Y-91768836D01*
X147795843Y-114238218D02*
X147580554Y-114158568D01*
X64196393Y-92750555D02*
X63950329Y-92424880D01*
X147534902Y-129685805D02*
X147292050Y-129511143D01*
X150162085Y-148433592D02*
X150169845Y-148086309D01*
X81792368Y-83179091D02*
X81964342Y-83608571D01*
X69911470Y-34224704D02*
X68531224Y-34698560D01*
D11*
X93033882Y-34213833D02*
X93291370Y-34139874D01*
D10*
X125372798Y-33273401D02*
X123363212Y-32583281D01*
X64784348Y-93617811D02*
X64196393Y-92750555D01*
X50644659Y-148433592D02*
X50667694Y-148776200D01*
X145698556Y-113686166D02*
X144608573Y-113400173D01*
X55786380Y-111320335D02*
X55979109Y-111455559D01*
D11*
X92531497Y-39729208D02*
X92393369Y-39725466D01*
D10*
X59818764Y-120601179D02*
X59855494Y-120660108D01*
X54075309Y-96492154D02*
X53904681Y-96562336D01*
X64863079Y-126445968D02*
X64916175Y-126633848D01*
X145682754Y-154603969D02*
X145967236Y-154513573D01*
X56766631Y-105618741D02*
X56729548Y-105689265D01*
X57319056Y-109172745D02*
X57218277Y-109190466D01*
D11*
X90058391Y-38087267D02*
X90010343Y-37965372D01*
D10*
X54270426Y-96444614D02*
X54075309Y-96492154D01*
X51225491Y-151008572D02*
X51357382Y-151298788D01*
X100974774Y-30058970D02*
X99312808Y-30034041D01*
X85359475Y-30683324D02*
X82917098Y-31037217D01*
X62660350Y-124056666D02*
X63129197Y-124430437D01*
X145635405Y-120069883D02*
X144742835Y-119285558D01*
X71919467Y-66276190D02*
X73732124Y-67746511D01*
X142644790Y-128410688D02*
X142624325Y-128383527D01*
X56630937Y-46167063D02*
X56865549Y-47047333D01*
X57848182Y-108667877D02*
X57792033Y-108773680D01*
X143541334Y-118336324D02*
X143467903Y-118207829D01*
X52000635Y-130983537D02*
X51823209Y-131237563D01*
D11*
X93390973Y-39588984D02*
X92531497Y-39729208D01*
D10*
X71799856Y-94995232D02*
X71733585Y-94869618D01*
D11*
X89902039Y-37583431D02*
X89878448Y-37451260D01*
D10*
X54020012Y-97148476D02*
X54413812Y-97498632D01*
X77160287Y-96459773D02*
X76977794Y-96387604D01*
X81591610Y-82772101D02*
X81792368Y-83179091D01*
D11*
X90708710Y-35307534D02*
X90826931Y-35215333D01*
D10*
X58453013Y-104546550D02*
X57572552Y-105056502D01*
X149150136Y-151853534D02*
X149305535Y-151580581D01*
X142455825Y-112593548D02*
X142021460Y-112333894D01*
X58041854Y-107889921D02*
X58027017Y-108031533D01*
X64848115Y-93521052D02*
X64815440Y-93556298D01*
X144695069Y-122235452D02*
X144575724Y-122121496D01*
X52811215Y-130072481D02*
X52594180Y-130283655D01*
X54413812Y-97498632D02*
X54822564Y-97829045D01*
X65801880Y-95273449D02*
X65619804Y-94923696D01*
X53791396Y-110344041D02*
X53837100Y-110431978D01*
X60635872Y-122625091D02*
X60693130Y-122682580D01*
X148200391Y-114542832D02*
X148162423Y-114468700D01*
X147022197Y-77494929D02*
X147112705Y-77376863D01*
X147220035Y-77212487D02*
X147345801Y-76988217D01*
X63129197Y-124430437D02*
X63586150Y-124826123D01*
X60489082Y-122435736D02*
X60534115Y-122501453D01*
X51823209Y-131237563D02*
X51656611Y-131501261D01*
X79898521Y-94220042D02*
X79833363Y-94560245D01*
X149581253Y-132346217D02*
X149449363Y-132056000D01*
X60409370Y-122297581D02*
X60447590Y-122367707D01*
X57153897Y-116257120D02*
X57200131Y-116431888D01*
X146724098Y-78165687D02*
X146742038Y-77991465D01*
X56009804Y-154780479D02*
X56314629Y-154806369D01*
X78261830Y-96997657D02*
X78047599Y-96916834D01*
X144216887Y-115916974D02*
X144587352Y-115806978D01*
X82320506Y-85005372D02*
X82390287Y-85498238D01*
X146765504Y-77866015D02*
X146796109Y-77775753D01*
X58147735Y-117459204D02*
X58263460Y-117558123D01*
X70335299Y-97656975D02*
X70280770Y-97695288D01*
X82385692Y-88555729D02*
X82253966Y-89549335D01*
D11*
X110694965Y-38206000D02*
X110635716Y-38321717D01*
D10*
X56865549Y-47047333D02*
X57167389Y-47921217D01*
X143467903Y-118207829D02*
X143438218Y-118079062D01*
X63552022Y-58151103D02*
X64308822Y-59039783D01*
X149581254Y-151008572D02*
X149700834Y-150710350D01*
X51225491Y-132346224D02*
X51105911Y-132644447D01*
X52000636Y-152371258D02*
X52188520Y-152615195D01*
D11*
X107416299Y-39586183D02*
X106506457Y-39464650D01*
X90010343Y-37965372D02*
X89968155Y-37840655D01*
D10*
X80197020Y-93689448D02*
X80129966Y-93710760D01*
X144618442Y-47999533D02*
X144088549Y-46608220D01*
D11*
X89938062Y-36397328D02*
X89972751Y-36292988D01*
X92334013Y-34444927D02*
X92555464Y-34366384D01*
D10*
X80821244Y-93754740D02*
X80694199Y-93882941D01*
X147580554Y-114158568D02*
X147314280Y-114077443D01*
X74572378Y-97647840D02*
X74428210Y-97711382D01*
X144341607Y-125618866D02*
X144405032Y-125581120D01*
D11*
X90824153Y-39114061D02*
X90726766Y-39029626D01*
D10*
X64377987Y-125646832D02*
X64534766Y-125851483D01*
X57410288Y-116881126D02*
X57508719Y-117002265D01*
X141203653Y-111207548D02*
X141204070Y-111016411D01*
X148420253Y-130506159D02*
X148212565Y-130283647D01*
X55570445Y-111200201D02*
X55786380Y-111320335D01*
X56427332Y-44840271D02*
X56473728Y-45282961D01*
X66794301Y-96553352D02*
X66644364Y-96419948D01*
X54839510Y-128841220D02*
X54561041Y-128946701D01*
D11*
X90245806Y-35786466D02*
X90322160Y-35688373D01*
D10*
X51501211Y-131774215D02*
X51357381Y-132056008D01*
X55265672Y-96452637D02*
X54728103Y-96411812D01*
X142522485Y-126629877D02*
X141983775Y-126300154D01*
X64465139Y-36352117D02*
X63154516Y-36987715D01*
X148806112Y-152371258D02*
X148983538Y-152117232D01*
X53926642Y-109822810D02*
X53854643Y-109906154D01*
X64669675Y-126053648D02*
X64780012Y-126252189D01*
X60893634Y-122835150D02*
X61398427Y-123157877D01*
X55677948Y-98439848D02*
X56121089Y-98724846D01*
X80694199Y-93882941D02*
X80572017Y-93964552D01*
D11*
X110262541Y-38846985D02*
X110173700Y-38940196D01*
X104210336Y-33598550D02*
X105079677Y-33672007D01*
D10*
X51823209Y-152117232D02*
X52000636Y-152371258D01*
D11*
X110635716Y-38321717D02*
X110571113Y-38434104D01*
D10*
X58049531Y-107745902D02*
X58041854Y-107889921D01*
X70160911Y-97732944D02*
X70094693Y-97734365D01*
X142021460Y-112333894D02*
X141831419Y-112194293D01*
X147952892Y-122543941D02*
X147851460Y-122381000D01*
X146694993Y-102151913D02*
X147004015Y-100728463D01*
X80273626Y-93701415D02*
X80197020Y-93689448D01*
X131462826Y-35348373D02*
X129445992Y-34622676D01*
X142829484Y-128539217D02*
X142814964Y-128537725D01*
X142744654Y-128511534D02*
X142729961Y-128501053D01*
D11*
X92393369Y-39725466D02*
X92257055Y-39714867D01*
D10*
X143800002Y-117445761D02*
X144104940Y-117205150D01*
X145721270Y-123995233D02*
X145824070Y-123905028D01*
X79722299Y-80732691D02*
X80088071Y-81082782D01*
X142912933Y-128539694D02*
X142876762Y-128540045D01*
X141516135Y-111894567D02*
X141395099Y-111734051D01*
X145824070Y-123905028D02*
X145885872Y-123805162D01*
X147451966Y-66246097D02*
X147324883Y-65139099D01*
X79833363Y-94560245D02*
X79700474Y-95353364D01*
X62983790Y-93737904D02*
X63083823Y-94445654D01*
D11*
X110928588Y-37451219D02*
X110905003Y-37583373D01*
D10*
X67541714Y-62406889D02*
X68392949Y-63207266D01*
X68278974Y-97111664D02*
X68082986Y-97074345D01*
X73719240Y-98084554D02*
X73543903Y-98253741D01*
X57940333Y-108431753D02*
X57897641Y-108553563D01*
X57361350Y-106046832D02*
X57462139Y-106117690D01*
X67672089Y-97006400D02*
X67478570Y-96949451D01*
X66644364Y-96419948D02*
X66502351Y-96275870D01*
X64534766Y-125851483D02*
X64669675Y-126053648D01*
X109056142Y-30346609D02*
X106665675Y-30208657D01*
X142876762Y-128540045D02*
X142844520Y-128539958D01*
X76977794Y-96387604D02*
X76810814Y-96333452D01*
X71212870Y-95097323D02*
X71097423Y-95343618D01*
X149807732Y-132950252D02*
X149700833Y-132644439D01*
X50758104Y-149445725D02*
X50824738Y-149771809D01*
X55414115Y-154678863D02*
X55709509Y-154737839D01*
X148104102Y-71027712D02*
X147997175Y-70159144D01*
X57134688Y-105944708D02*
X57252226Y-105988832D01*
X58745149Y-118114376D02*
X58824211Y-118234820D01*
X148200682Y-114615681D02*
X148200391Y-114542832D01*
X82459222Y-87535174D02*
X82385692Y-88555729D01*
X146667824Y-80580799D02*
X146675315Y-79621950D01*
X147656563Y-96178100D02*
X147762771Y-94682567D01*
X64916175Y-126633848D02*
X64936602Y-126814690D01*
X143673524Y-117569625D02*
X143800002Y-117445761D01*
X146326123Y-55385584D02*
X146080873Y-53871198D01*
X63162516Y-128330017D02*
X63133241Y-128367856D01*
X69947464Y-97707592D02*
X69865564Y-97681477D01*
X51105911Y-132644447D02*
X50999012Y-132950259D01*
D11*
X89849940Y-36932837D02*
X89857055Y-36823977D01*
D10*
X54349571Y-110843017D02*
X54507859Y-110915623D01*
X62386171Y-98425809D02*
X61711990Y-98269857D01*
D11*
X98368340Y-33521049D02*
X100344810Y-33477641D01*
D10*
X66952426Y-96674544D02*
X66794301Y-96553352D01*
X61876189Y-37669059D02*
X60636114Y-38398276D01*
X59820255Y-52887312D02*
X60780978Y-54375753D01*
X63228181Y-128250420D02*
X63194130Y-128290891D01*
X144452527Y-125498304D02*
X144442558Y-125453542D01*
X63546328Y-91972504D02*
X63385312Y-91839030D01*
X53037226Y-129873062D02*
X52811215Y-130072481D01*
X147762771Y-94682567D02*
X147803425Y-93254957D01*
X144247757Y-125653963D02*
X144341607Y-125618866D01*
D11*
X109074342Y-39605713D02*
X108947022Y-39641897D01*
D10*
X145629002Y-116190734D02*
X145637898Y-116136130D01*
X141236755Y-111390737D02*
X141203653Y-111207548D01*
X56314629Y-128548424D02*
X56009803Y-128574314D01*
D11*
X108276500Y-39726507D02*
X107416299Y-39586183D01*
D10*
X142844520Y-128539958D02*
X142829484Y-128539217D01*
X146517790Y-129066843D02*
X146245703Y-128946693D01*
X145493618Y-115580486D02*
X146478388Y-115343281D01*
X59092924Y-118732294D02*
X59202983Y-118984174D01*
D11*
X100402451Y-39129356D02*
X98292451Y-39167350D01*
D10*
X145637898Y-116136130D02*
X145607107Y-116089606D01*
X57659982Y-108955676D02*
X57584235Y-109029836D01*
X143713914Y-124743281D02*
X143716094Y-124684188D01*
X92714546Y-30104362D02*
X90256695Y-30226639D01*
X57067496Y-115672804D02*
X57117292Y-116071633D01*
X60636114Y-38398276D02*
X59440249Y-39177489D01*
X56532315Y-96709996D02*
X55871090Y-96555797D01*
X142698701Y-128473141D02*
X142681822Y-128455281D01*
X55123992Y-154603969D02*
X55414115Y-154678863D01*
X142663904Y-128434535D02*
X142644790Y-128410688D01*
X70386819Y-97604285D02*
X70335299Y-97656975D01*
X80071336Y-93762595D02*
X80020003Y-93842197D01*
X144575724Y-122121496D02*
X144554942Y-122087649D01*
X76391303Y-96268607D02*
X76274726Y-96276032D01*
X142464452Y-128138994D02*
X142393302Y-128021283D01*
X140014094Y-40412620D02*
X139449851Y-39880769D01*
X64637613Y-127444923D02*
X64454194Y-127573509D01*
D11*
X108414565Y-39722988D02*
X108276500Y-39726507D01*
D10*
X64774864Y-127303611D02*
X64637613Y-127444923D01*
X70571678Y-97228968D02*
X70527759Y-97349560D01*
X147008162Y-123005257D02*
X147301678Y-123082060D01*
X73097928Y-98408401D02*
X72973039Y-98358313D01*
X146783124Y-129201246D02*
X146517790Y-129066843D01*
X149901580Y-133263238D02*
X149807732Y-132950252D01*
X148027169Y-123055742D02*
X148054105Y-123019810D01*
D11*
X109125259Y-34597622D02*
X109472408Y-34767432D01*
D10*
X80803696Y-81712632D02*
X81098568Y-82036215D01*
X64454194Y-127573509D02*
X64221907Y-127688230D01*
D11*
X110925577Y-36582308D02*
X110951134Y-36810332D01*
D10*
X63133241Y-128367856D02*
X63106208Y-128404463D01*
D11*
X106607318Y-33870740D02*
X107238590Y-33996000D01*
D10*
X75631665Y-73173797D02*
X76267694Y-74989012D01*
X74934860Y-97418451D02*
X74824538Y-97500326D01*
X142553268Y-128280021D02*
X142525843Y-128237466D01*
X79257094Y-31752393D02*
X78037290Y-32044813D01*
X141662276Y-112047915D02*
X141516135Y-111894567D01*
X57039799Y-115244004D02*
X57067496Y-115672804D01*
X60702084Y-102342573D02*
X60616809Y-102565856D01*
X146742038Y-77991465D02*
X146765504Y-77866015D01*
X142758929Y-128519982D02*
X142744654Y-128511534D01*
X147997175Y-70159144D02*
X147451966Y-66246097D01*
X54786033Y-109398862D02*
X54591209Y-109457691D01*
X53985726Y-110603782D02*
X54088362Y-110686544D01*
X50705632Y-134241083D02*
X50667694Y-134578599D01*
X68082986Y-97074345D02*
X67875116Y-97043440D01*
X55123991Y-128750824D02*
X54839510Y-128841220D01*
X57940851Y-106888240D02*
X57977778Y-107025328D01*
X144414085Y-125406750D02*
X144370088Y-125358084D01*
X147791504Y-75959750D02*
X147904573Y-75610949D01*
X150048641Y-149445725D02*
X150101112Y-149113717D01*
X145097236Y-154737839D02*
X145392631Y-154678863D01*
X79171998Y-96773093D02*
X79059338Y-96881205D01*
D11*
X91252078Y-39403411D02*
X91139678Y-39338668D01*
D10*
X142108848Y-127535620D02*
X142745516Y-127517714D01*
X63560409Y-98035894D02*
X63564784Y-98574613D01*
X64921658Y-126987356D02*
X64868646Y-127150709D01*
X141737124Y-126019268D02*
X141753258Y-125961960D01*
X77915009Y-78435503D02*
X78450100Y-79235336D01*
X53760046Y-96656572D02*
X53642910Y-96776274D01*
X58049970Y-107600494D02*
X58049531Y-107745902D01*
X147769518Y-129873054D02*
X147534902Y-129685805D01*
X144451373Y-116976812D02*
X144805929Y-116764088D01*
X63081322Y-128439895D02*
X63058484Y-128474208D01*
D11*
X110811926Y-36139993D02*
X110880080Y-36358762D01*
D10*
X59386567Y-119476284D02*
X59537524Y-119928952D01*
X62910929Y-93096797D02*
X62983790Y-93737904D01*
X56727972Y-105753263D02*
X56764801Y-105810769D01*
X147999267Y-75258797D02*
X148076551Y-74902816D01*
X145885872Y-123805162D02*
X145910692Y-123697142D01*
X53642910Y-96776274D02*
X54020012Y-97148476D01*
X58660730Y-117996399D02*
X58745149Y-118114376D01*
X82227117Y-84524368D02*
X82320506Y-85005372D01*
X57508719Y-117002265D02*
X57623620Y-117107308D01*
X61431951Y-55354887D02*
X62111904Y-56309756D01*
X60780978Y-54375753D02*
X61431951Y-55354887D01*
X54561041Y-128946701D02*
X54288954Y-129066851D01*
X144742835Y-119285558D02*
X144065834Y-118716001D01*
X59675156Y-120313481D02*
X59745007Y-120471227D01*
X143569935Y-117695305D02*
X143673524Y-117569625D01*
X52594181Y-153071139D02*
X52811216Y-153282313D01*
X57252226Y-105988832D02*
X57361350Y-106046832D01*
X60001348Y-120993270D02*
X60047043Y-121140492D01*
X104316822Y-30139502D02*
X100974774Y-30058970D01*
X82917098Y-31037217D02*
X80476871Y-31487799D01*
X57756358Y-117195181D02*
X57894485Y-117277285D01*
X146110851Y-120506099D02*
X145635405Y-120069883D01*
X146835467Y-77707097D02*
X146946897Y-77580268D01*
X144247444Y-125255747D02*
X144098468Y-125147768D01*
D11*
X110258448Y-35318654D02*
X110444378Y-35515331D01*
X110875052Y-37713209D02*
X110838904Y-37840558D01*
D10*
X57792033Y-108773680D02*
X57729274Y-108869952D01*
X64009613Y-125234623D02*
X64377987Y-125646832D01*
X146578179Y-120952225D02*
X146110851Y-120506099D01*
X82074398Y-90494736D02*
X81857339Y-91370678D01*
X145463515Y-50886136D02*
X145073836Y-49427514D01*
X70094693Y-97734365D02*
X70023692Y-97725568D01*
X145409779Y-116022464D02*
X145234898Y-116002681D01*
X142393302Y-128021283D02*
X142311147Y-127882623D01*
D11*
X93291370Y-34139874D02*
X93561389Y-34067494D01*
D10*
X146677357Y-81842532D02*
X146667824Y-80580799D01*
X50905164Y-150091552D02*
X50999012Y-150404538D01*
X81613141Y-92155905D02*
X81352158Y-92829161D01*
D11*
X102512644Y-39166174D02*
X100402451Y-39129356D01*
D10*
X70222789Y-97720265D02*
X70160911Y-97732944D01*
X146796109Y-77775753D02*
X146835467Y-77707097D01*
X57623620Y-117107308D02*
X57756358Y-117195181D01*
X71097423Y-95343618D02*
X70834108Y-96057966D01*
X57204970Y-40894401D02*
X56997058Y-41325591D01*
X63385312Y-91839030D02*
X63249566Y-91762852D01*
X54288954Y-154287942D02*
X54561041Y-154408092D01*
X55322249Y-111155590D02*
X55570445Y-111200201D01*
D11*
X109983164Y-39113424D02*
X109881805Y-39193105D01*
D10*
X78790557Y-97020876D02*
X78632182Y-97046922D01*
X144711845Y-115992779D02*
X143929923Y-116025213D01*
X144492113Y-128548416D02*
X144183128Y-128539694D01*
X147995533Y-153282313D02*
X148212568Y-153071139D01*
X75664710Y-96626875D02*
X75521693Y-96791707D01*
X54023620Y-129201254D02*
X53765410Y-129349492D01*
X79376582Y-80372399D02*
X79722299Y-80732691D01*
X143438218Y-118079062D02*
X143448110Y-117950441D01*
X70614806Y-97088802D02*
X70571678Y-97228968D01*
X65087874Y-59908601D02*
X65887495Y-60758657D01*
X51656611Y-131501261D02*
X51501211Y-131774215D01*
X61711990Y-98269857D02*
X60997283Y-98074597D01*
X63734154Y-92166658D02*
X63546328Y-91972504D01*
X142496290Y-128190528D02*
X142464452Y-128138994D01*
X143741494Y-124625231D02*
X143793093Y-124566566D01*
X144104940Y-117205150D02*
X144451373Y-116976812D01*
X148983536Y-131237555D02*
X148806109Y-130983529D01*
X144819793Y-124229360D02*
X145126736Y-124192843D01*
X148026456Y-122691117D02*
X147952892Y-122543941D01*
X80129966Y-93710760D02*
X80071336Y-93762595D01*
X147730135Y-114962016D02*
X148002108Y-114826910D01*
M02*
