%TF.GenerationSoftware,KiCad,Pcbnew,7.0.10*%
%TF.CreationDate,2024-02-21T12:16:21-06:00*%
%TF.ProjectId,B-Sides 2024,422d5369-6465-4732-9032-3032342e6b69,rev?*%
%TF.SameCoordinates,Original*%
%TF.FileFunction,Legend,Bot*%
%TF.FilePolarity,Positive*%
%FSLAX46Y46*%
G04 Gerber Fmt 4.6, Leading zero omitted, Abs format (unit mm)*
G04 Created by KiCad (PCBNEW 7.0.10) date 2024-02-21 12:16:21*
%MOMM*%
%LPD*%
G01*
G04 APERTURE LIST*
G04 Aperture macros list*
%AMRoundRect*
0 Rectangle with rounded corners*
0 $1 Rounding radius*
0 $2 $3 $4 $5 $6 $7 $8 $9 X,Y pos of 4 corners*
0 Add a 4 corners polygon primitive as box body*
4,1,4,$2,$3,$4,$5,$6,$7,$8,$9,$2,$3,0*
0 Add four circle primitives for the rounded corners*
1,1,$1+$1,$2,$3*
1,1,$1+$1,$4,$5*
1,1,$1+$1,$6,$7*
1,1,$1+$1,$8,$9*
0 Add four rect primitives between the rounded corners*
20,1,$1+$1,$2,$3,$4,$5,0*
20,1,$1+$1,$4,$5,$6,$7,0*
20,1,$1+$1,$6,$7,$8,$9,0*
20,1,$1+$1,$8,$9,$2,$3,0*%
G04 Aperture macros list end*
%ADD10C,0.120000*%
%ADD11RoundRect,0.264378X-0.686622X-0.686622X0.686622X-0.686622X0.686622X0.686622X-0.686622X0.686622X0*%
%ADD12C,1.902000*%
%ADD13RoundRect,0.051000X-0.900000X-0.900000X0.900000X-0.900000X0.900000X0.900000X-0.900000X0.900000X0*%
%ADD14RoundRect,0.051000X-0.850000X0.850000X-0.850000X-0.850000X0.850000X-0.850000X0.850000X0.850000X0*%
%ADD15O,1.802000X1.802000*%
%ADD16RoundRect,0.051000X-0.850000X-0.850000X0.850000X-0.850000X0.850000X0.850000X-0.850000X0.850000X0*%
%ADD17RoundRect,0.271250X-0.654750X0.379750X-0.654750X-0.379750X0.654750X-0.379750X0.654750X0.379750X0*%
%ADD18O,1.852000X1.302000*%
%ADD19RoundRect,1.075500X-1.075500X1.525500X-1.075500X-1.525500X1.075500X-1.525500X1.075500X1.525500X0*%
%ADD20C,2.102000*%
%ADD21RoundRect,0.875500X-0.875500X0.875500X-0.875500X-0.875500X0.875500X-0.875500X0.875500X0.875500X0*%
%ADD22RoundRect,0.051000X-0.525000X-0.750000X0.525000X-0.750000X0.525000X0.750000X-0.525000X0.750000X0*%
%ADD23O,1.152000X1.602000*%
%ADD24C,0.752000*%
%ADD25O,2.202000X1.102000*%
%ADD26O,1.902000X1.102000*%
%ADD27RoundRect,0.051000X0.525000X0.750000X-0.525000X0.750000X-0.525000X-0.750000X0.525000X-0.750000X0*%
G04 APERTURE END LIST*
D10*
%TO.C,Q3*%
X118910000Y-47330000D02*
X115310000Y-47330000D01*
X118948478Y-47318478D02*
G75*
G03*
X117110000Y-42880000I-1838478J1838478D01*
G01*
X117110000Y-42880000D02*
G75*
G03*
X115271522Y-47318478I0J-2600000D01*
G01*
%TD*%
%LPC*%
D11*
%TO.C,U9*%
X129520000Y-90020000D03*
D12*
X132060000Y-90020000D03*
X134600000Y-90020000D03*
%TD*%
D13*
%TO.C,LD2*%
X115940000Y-36810000D03*
D12*
X118480000Y-36810000D03*
%TD*%
D13*
%TO.C,LD1*%
X82010000Y-36870000D03*
D12*
X84550000Y-36870000D03*
%TD*%
D14*
%TO.C,J3*%
X65520000Y-43690000D03*
D15*
X65520000Y-46230000D03*
X62980000Y-43690000D03*
X62980000Y-46230000D03*
X60440000Y-43690000D03*
X60440000Y-46230000D03*
%TD*%
D16*
%TO.C,J4*%
X133270000Y-41570000D03*
D15*
X135810000Y-41570000D03*
X133270000Y-44110000D03*
X135810000Y-44110000D03*
X133270000Y-46650000D03*
X135810000Y-46650000D03*
%TD*%
D11*
%TO.C,U1*%
X88310000Y-95340000D03*
D12*
X90850000Y-95340000D03*
X93390000Y-95340000D03*
%TD*%
D17*
%TO.C,J10*%
X126410000Y-100360000D03*
D18*
X126410000Y-102360000D03*
%TD*%
D19*
%TO.C,BT1*%
X124835000Y-126400000D03*
D20*
X128970000Y-123860000D03*
X128970000Y-128940000D03*
X135210000Y-126400000D03*
D21*
X140835000Y-126400000D03*
X68585000Y-126400000D03*
D20*
X74210000Y-126400000D03*
X80450000Y-123860000D03*
X80450000Y-128940000D03*
D19*
X84585000Y-126400000D03*
%TD*%
D22*
%TO.C,Q1*%
X75520000Y-41770000D03*
D23*
X76790000Y-41770000D03*
X78060000Y-41770000D03*
%TD*%
D24*
%TO.C,J9*%
X140602500Y-87102500D03*
X140602500Y-81322500D03*
D25*
X140102500Y-88532500D03*
D26*
X144282500Y-88532500D03*
D25*
X140102500Y-79892500D03*
D26*
X144282500Y-79892500D03*
%TD*%
D27*
%TO.C,Q3*%
X118380000Y-45480000D03*
D23*
X117110000Y-45480000D03*
X115840000Y-45480000D03*
%TD*%
%LPD*%
M02*
