M48
; DRILL file {KiCad 7.0.10} date Fri Feb 23 13:36:48 2024
; FORMAT={-:-/ absolute / inch / decimal}
; #@! TF.CreationDate,2024-02-23T13:36:48-06:00
; #@! TF.GenerationSoftware,Kicad,Pcbnew,7.0.10
; #@! TF.FileFunction,Plated,1,2,PTH
FMAT,2
INCH
; #@! TA.AperFunction,Plated,PTH,ViaDrill
T1C0.0138
; #@! TA.AperFunction,Plated,PTH,ViaDrill
T2C0.0157
; #@! TA.AperFunction,Plated,PTH,ComponentDrill
T3C0.0295
; #@! TA.AperFunction,Plated,PTH,ComponentDrill
T4C0.0300
; #@! TA.AperFunction,Plated,PTH,ComponentDrill
T5C0.0394
%
G90
G05
T1
X3.0614Y-2.5531
X3.1378Y-2.8642
X3.2606Y-2.6965
X3.3083Y-1.902
X3.3272Y-2.687
X3.3587Y-2.137
X3.4472Y-2.9559
X3.4571Y-3.0917
X3.513Y-3.2319
X3.5228Y-1.887
X3.5303Y-2.8295
X3.5453Y-2.3665
X3.578Y-2.7657
X3.6031Y-2.5626
X3.6146Y-2.2378
X3.6287Y-2.1409
X3.6402Y-3.1614
X3.6787Y-3.2622
X3.7573Y-3.9427
X3.773Y-3.8711
X3.7862Y-2.4972
X3.8146Y-2.6839
X3.8374Y-3.385
X3.8614Y-3.0531
X3.8917Y-3.6122
X3.8917Y-3.3709
X3.9157Y-2.4039
X3.9654Y-1.7104
X3.9693Y-3.8681
X3.9815Y-3.7795
X3.9861Y-3.6089
X4.0284Y-3.976
X4.0551Y-2.6264
X4.076Y-2.8075
X4.0929Y-3.4654
X4.1067Y-3.5406
X4.1386Y-3.8394
X4.1913Y-2.9256
X4.2366Y-3.3126
X4.2492Y-3.7244
X4.276Y-3.1134
X4.298Y-3.724
X4.3022Y-1.9413
X4.3252Y-1.865
X4.3472Y-3.7224
X4.3598Y-2.2197
X4.3685Y-3.1638
X4.3709Y-2.8209
X4.3744Y-3.3752
X4.3748Y-3.3193
X4.3866Y-2.5453
X4.3953Y-3.7224
X4.3969Y-3.2996
X4.4028Y-2.9778
X4.4543Y-3.893
X4.4681Y-2.1929
X4.5079Y-3.102
X4.5256Y-3.287
X4.5669Y-3.2226
X4.6065Y-2.022
X4.6171Y-1.9157
X4.6506Y-3.053
X4.6512Y-3.2866
X4.663Y-3.9425
X4.6776Y-3.5862
X4.6801Y-3.0525
X4.6835Y-3.215
X4.6862Y-3.2434
X4.6933Y-3.878
X4.6985Y-3.3302
X4.7028Y-1.8449
X4.7098Y-2.9531
X4.7209Y-2.9015
X4.7225Y-2.6536
X4.7311Y-3.215
X4.7323Y-3.3138
X4.7339Y-3.2602
X4.7584Y-3.5132
X4.7631Y-2.8887
X4.7654Y-1.7886
X4.7791Y-2.4964
X4.7823Y-3.2614
X4.7835Y-3.2154
X4.7835Y-3.3146
X4.789Y-2.9306
X4.7913Y-1.7104
X4.7925Y-3.876
X4.7968Y-2.2503
X4.8126Y-3.6134
X4.8147Y-3.2551
X4.8243Y-2.9091
X4.8283Y-3.4445
X4.8303Y-3.5002
X4.8305Y-3.5807
X4.835Y-3.7425
X4.8437Y-2.5886
X4.8555Y-3.5933
X4.8596Y-2.9064
X4.8685Y-3.4615
X4.8922Y-3.5866
X4.9089Y-3.2571
X4.9096Y-2.5155
X4.9213Y-3.5874
X4.9437Y-3.8661
X5.0025Y-2.7635
X5.0295Y-1.6673
X5.0454Y-3.1867
X5.0465Y-3.8303
X5.0543Y-3.4248
X5.0575Y-3.3945
X5.0663Y-2.3588
X5.0717Y-3.265
X5.1224Y-3.2567
X5.1248Y-1.6984
X5.1303Y-2.9654
X5.1441Y-3.6106
X5.1461Y-3.4909
X5.1539Y-2.2712
X5.1683Y-3.888
X5.1703Y-3.9319
X5.2571Y-3.8819
X5.3035Y-2.1008
X5.3319Y-3.3823
X5.3335Y-2.2823
X5.3559Y-2.3094
X5.3862Y-3.1929
X5.402Y-3.8724
X5.413Y-3.1012
X5.4146Y-3.7031
X5.415Y-3.7429
X5.4402Y-3.1437
X5.4413Y-3.4862
X5.4445Y-3.4378
X5.4445Y-3.5331
X5.4638Y-3.0071
X5.4862Y-3.6579
X5.4882Y-3.6244
X5.4937Y-3.7819
X5.4949Y-2.9929
X5.4969Y-3.8169
X5.5177Y-2.4591
X5.524Y-2.9913
X5.5598Y-3.0063
X5.5662Y-3.615
X5.5799Y-3.4882
X5.5874Y-3.524
X5.6118Y-2.485
X5.615Y-2.1606
X5.6157Y-3.0055
X5.6579Y-3.0012
X5.6705Y-3.5402
X5.7016Y-3.0059
X5.7244Y-3.5354
X5.7354Y-3.4858
T2
X3.689Y-1.7449
X3.7551Y-2.9594
X3.7665Y-1.889
X3.8807Y-2.8642
X3.9827Y-1.8484
X4.0866Y-2.2299
X4.1488Y-2.4492
X4.165Y-2.0634
X4.2323Y-2.4949
X4.6809Y-2.7319
T3
X5.2843Y-3.4657
X5.2843Y-3.5445
T5
X2.3795Y-1.7201
X2.3795Y-1.8201
X2.4795Y-1.7201
X2.4795Y-1.8201
X2.5795Y-1.7201
X2.5795Y-1.8201
X5.2469Y-1.6366
X5.2469Y-1.7366
X5.2469Y-1.8366
X5.3469Y-1.6366
X5.3469Y-1.7366
X5.3469Y-1.8366
T4
G00X2.612Y-5.1893
M15
G01X2.612Y-5.1563
M16
G05
G00X2.8335Y-5.1893
M15
G01X2.8335Y-5.1563
M16
G05
G00X3.0791Y-5.0893
M15
G01X3.0791Y-5.0563
M16
G05
G00X3.0791Y-5.2893
M15
G01X3.0791Y-5.2563
M16
G05
G00X3.2419Y-5.1893
M15
G01X3.2419Y-5.1563
M16
G05
G00X4.8266Y-5.1893
M15
G01X4.8266Y-5.1563
M16
G05
G00X4.9894Y-5.0563
M15
G01X4.9894Y-5.0893
M16
G05
G00X4.9894Y-5.2563
M15
G01X4.9894Y-5.2893
M16
G05
G00X5.235Y-5.1563
M15
G01X5.235Y-5.1893
M16
G05
G00X5.4565Y-5.1893
M15
G01X5.4565Y-5.1563
M16
G05
M30
