%TF.GenerationSoftware,KiCad,Pcbnew,8.0.0*%
%TF.CreationDate,2024-03-10T11:12:00-05:00*%
%TF.ProjectId,B-Sides 2024,422d5369-6465-4732-9032-3032342e6b69,rev?*%
%TF.SameCoordinates,Original*%
%TF.FileFunction,Paste,Top*%
%TF.FilePolarity,Positive*%
%FSLAX46Y46*%
G04 Gerber Fmt 4.6, Leading zero omitted, Abs format (unit mm)*
G04 Created by KiCad (PCBNEW 8.0.0) date 2024-03-10 11:12:00*
%MOMM*%
%LPD*%
G01*
G04 APERTURE LIST*
G04 Aperture macros list*
%AMRoundRect*
0 Rectangle with rounded corners*
0 $1 Rounding radius*
0 $2 $3 $4 $5 $6 $7 $8 $9 X,Y pos of 4 corners*
0 Add a 4 corners polygon primitive as box body*
4,1,4,$2,$3,$4,$5,$6,$7,$8,$9,$2,$3,0*
0 Add four circle primitives for the rounded corners*
1,1,$1+$1,$2,$3*
1,1,$1+$1,$4,$5*
1,1,$1+$1,$6,$7*
1,1,$1+$1,$8,$9*
0 Add four rect primitives between the rounded corners*
20,1,$1+$1,$2,$3,$4,$5,0*
20,1,$1+$1,$4,$5,$6,$7,0*
20,1,$1+$1,$6,$7,$8,$9,0*
20,1,$1+$1,$8,$9,$2,$3,0*%
G04 Aperture macros list end*
%ADD10R,0.700000X0.700000*%
%ADD11RoundRect,0.135000X0.135000X0.185000X-0.135000X0.185000X-0.135000X-0.185000X0.135000X-0.185000X0*%
%ADD12RoundRect,0.135000X-0.135000X-0.185000X0.135000X-0.185000X0.135000X0.185000X-0.135000X0.185000X0*%
%ADD13RoundRect,0.150000X0.625000X-0.150000X0.625000X0.150000X-0.625000X0.150000X-0.625000X-0.150000X0*%
%ADD14RoundRect,0.250000X0.650000X-0.350000X0.650000X0.350000X-0.650000X0.350000X-0.650000X-0.350000X0*%
%ADD15RoundRect,0.150000X0.150000X0.200000X-0.150000X0.200000X-0.150000X-0.200000X0.150000X-0.200000X0*%
%ADD16RoundRect,0.250000X0.475000X-0.250000X0.475000X0.250000X-0.475000X0.250000X-0.475000X-0.250000X0*%
%ADD17R,0.800000X1.500000*%
%ADD18RoundRect,0.250000X0.375000X0.625000X-0.375000X0.625000X-0.375000X-0.625000X0.375000X-0.625000X0*%
%ADD19RoundRect,0.140000X0.140000X0.170000X-0.140000X0.170000X-0.140000X-0.170000X0.140000X-0.170000X0*%
%ADD20RoundRect,0.140000X0.170000X-0.140000X0.170000X0.140000X-0.170000X0.140000X-0.170000X-0.140000X0*%
%ADD21R,1.000000X1.150000*%
%ADD22RoundRect,0.140000X-0.170000X0.140000X-0.170000X-0.140000X0.170000X-0.140000X0.170000X0.140000X0*%
%ADD23R,0.900000X1.700000*%
%ADD24RoundRect,0.140000X-0.140000X-0.170000X0.140000X-0.170000X0.140000X0.170000X-0.140000X0.170000X0*%
%ADD25RoundRect,0.150000X0.200000X-0.150000X0.200000X0.150000X-0.200000X0.150000X-0.200000X-0.150000X0*%
%ADD26RoundRect,0.150000X0.587500X0.150000X-0.587500X0.150000X-0.587500X-0.150000X0.587500X-0.150000X0*%
%ADD27RoundRect,0.135000X0.185000X-0.135000X0.185000X0.135000X-0.185000X0.135000X-0.185000X-0.135000X0*%
%ADD28RoundRect,0.150000X0.150000X-0.512500X0.150000X0.512500X-0.150000X0.512500X-0.150000X-0.512500X0*%
%ADD29RoundRect,0.150000X0.150000X-0.587500X0.150000X0.587500X-0.150000X0.587500X-0.150000X-0.587500X0*%
%ADD30RoundRect,0.135000X-0.185000X0.135000X-0.185000X-0.135000X0.185000X-0.135000X0.185000X0.135000X0*%
%ADD31RoundRect,0.250000X-0.512652X-0.159099X-0.159099X-0.512652X0.512652X0.159099X0.159099X0.512652X0*%
%ADD32RoundRect,0.237500X0.237500X-0.287500X0.237500X0.287500X-0.237500X0.287500X-0.237500X-0.287500X0*%
%ADD33R,0.750000X2.100000*%
%ADD34RoundRect,0.150000X-0.512500X-0.150000X0.512500X-0.150000X0.512500X0.150000X-0.512500X0.150000X0*%
%ADD35RoundRect,0.249999X-0.395001X0.395001X-0.395001X-0.395001X0.395001X-0.395001X0.395001X0.395001X0*%
%ADD36RoundRect,0.050000X-0.050000X0.387500X-0.050000X-0.387500X0.050000X-0.387500X0.050000X0.387500X0*%
%ADD37RoundRect,0.050000X-0.387500X0.050000X-0.387500X-0.050000X0.387500X-0.050000X0.387500X0.050000X0*%
%ADD38RoundRect,0.250000X-0.250000X-0.475000X0.250000X-0.475000X0.250000X0.475000X-0.250000X0.475000X0*%
%ADD39RoundRect,0.250000X0.250000X0.475000X-0.250000X0.475000X-0.250000X-0.475000X0.250000X-0.475000X0*%
%ADD40RoundRect,0.225000X0.375000X-0.225000X0.375000X0.225000X-0.375000X0.225000X-0.375000X-0.225000X0*%
%ADD41RoundRect,0.150000X-0.150000X0.650000X-0.150000X-0.650000X0.150000X-0.650000X0.150000X0.650000X0*%
%ADD42RoundRect,0.150000X0.512500X0.150000X-0.512500X0.150000X-0.512500X-0.150000X0.512500X-0.150000X0*%
%ADD43RoundRect,0.150000X0.425000X-0.150000X0.425000X0.150000X-0.425000X0.150000X-0.425000X-0.150000X0*%
%ADD44RoundRect,0.075000X0.500000X-0.075000X0.500000X0.075000X-0.500000X0.075000X-0.500000X-0.075000X0*%
%ADD45O,2.100000X1.000000*%
%ADD46O,1.800000X1.000000*%
%ADD47RoundRect,0.150000X-0.200000X0.150000X-0.200000X-0.150000X0.200000X-0.150000X0.200000X0.150000X0*%
G04 APERTURE END LIST*
D10*
%TO.C,D39*%
X96555000Y-45420000D03*
X96555000Y-44320000D03*
X94725000Y-44320000D03*
X94725000Y-45420000D03*
%TD*%
%TO.C,D44*%
X123015000Y-59340000D03*
X123015000Y-58240000D03*
X121185000Y-58240000D03*
X121185000Y-59340000D03*
%TD*%
D11*
%TO.C,R38*%
X104780000Y-79820000D03*
X103760000Y-79820000D03*
%TD*%
D10*
%TO.C,D14*%
X108400000Y-76290000D03*
X108400000Y-75190000D03*
X106570000Y-75190000D03*
X106570000Y-76290000D03*
%TD*%
D12*
%TO.C,R30*%
X115590000Y-76650000D03*
X116610000Y-76650000D03*
%TD*%
D13*
%TO.C,J1*%
X142590000Y-66630000D03*
X142590000Y-65630000D03*
X142590000Y-64630000D03*
X142590000Y-63630000D03*
D14*
X146465000Y-67930000D03*
X146465000Y-62330000D03*
%TD*%
D10*
%TO.C,D5*%
X109360000Y-65660000D03*
X109360000Y-64560000D03*
X107530000Y-64560000D03*
X107530000Y-65660000D03*
%TD*%
D12*
%TO.C,R14*%
X143615000Y-60000000D03*
X144635000Y-60000000D03*
%TD*%
D10*
%TO.C,D35*%
X103120000Y-89665000D03*
X102020000Y-89665000D03*
X102020000Y-91495000D03*
X103120000Y-91495000D03*
%TD*%
D15*
%TO.C,D1*%
X133590000Y-69210000D03*
X134990000Y-69210000D03*
%TD*%
D16*
%TO.C,C7*%
X126200000Y-53310000D03*
X126200000Y-51410000D03*
%TD*%
D17*
%TO.C,U9*%
X125760000Y-99830000D03*
X128300000Y-99830000D03*
X128300000Y-93430000D03*
X125760000Y-93430000D03*
%TD*%
D18*
%TO.C,LD2*%
X106960000Y-42560000D03*
X104160000Y-42560000D03*
%TD*%
D19*
%TO.C,C13*%
X86490000Y-68270000D03*
X85530000Y-68270000D03*
%TD*%
D10*
%TO.C,D32*%
X102080000Y-99735000D03*
X103180000Y-99735000D03*
X103180000Y-97905000D03*
X102080000Y-97905000D03*
%TD*%
%TO.C,D26*%
X80090000Y-65225000D03*
X78990000Y-65225000D03*
X78990000Y-67055000D03*
X80090000Y-67055000D03*
%TD*%
D20*
%TO.C,C2*%
X123120000Y-92810000D03*
X123120000Y-91850000D03*
%TD*%
D11*
%TO.C,R39*%
X132100000Y-90920000D03*
X131080000Y-90920000D03*
%TD*%
D21*
%TO.C,Y1*%
X110280000Y-81065000D03*
X110280000Y-82815000D03*
X111680000Y-82815000D03*
X111680000Y-81065000D03*
%TD*%
D18*
%TO.C,LD1*%
X111830000Y-44180000D03*
X109030000Y-44180000D03*
%TD*%
D22*
%TO.C,C47*%
X125340000Y-89270000D03*
X125340000Y-90230000D03*
%TD*%
D10*
%TO.C,D16*%
X101545000Y-68970000D03*
X101545000Y-70070000D03*
X103375000Y-70070000D03*
X103375000Y-68970000D03*
%TD*%
%TO.C,D28*%
X92375000Y-73460000D03*
X92375000Y-72360000D03*
X90545000Y-72360000D03*
X90545000Y-73460000D03*
%TD*%
%TO.C,D15*%
X112715000Y-72035000D03*
X111615000Y-72035000D03*
X111615000Y-73865000D03*
X112715000Y-73865000D03*
%TD*%
D23*
%TO.C,SW1*%
X128490000Y-70450000D03*
X131890000Y-70450000D03*
%TD*%
D19*
%TO.C,C30*%
X97910000Y-48000000D03*
X96950000Y-48000000D03*
%TD*%
D24*
%TO.C,C15*%
X101100000Y-87020000D03*
X102060000Y-87020000D03*
%TD*%
D10*
%TO.C,D23*%
X92385000Y-77650000D03*
X92385000Y-78750000D03*
X94215000Y-78750000D03*
X94215000Y-77650000D03*
%TD*%
%TO.C,D46*%
X129120000Y-61260000D03*
X129120000Y-62360000D03*
X130950000Y-62360000D03*
X130950000Y-61260000D03*
%TD*%
%TO.C,D19*%
X86750000Y-55425000D03*
X85650000Y-55425000D03*
X85650000Y-57255000D03*
X86750000Y-57255000D03*
%TD*%
D25*
%TO.C,D3*%
X119010000Y-43250000D03*
X119010000Y-44650000D03*
%TD*%
D24*
%TO.C,C44*%
X126260000Y-86970000D03*
X127220000Y-86970000D03*
%TD*%
D10*
%TO.C,D13*%
X86710000Y-48255000D03*
X85610000Y-48255000D03*
X85610000Y-50085000D03*
X86710000Y-50085000D03*
%TD*%
%TO.C,D27*%
X89895000Y-70080000D03*
X89895000Y-68980000D03*
X88065000Y-68980000D03*
X88065000Y-70080000D03*
%TD*%
D19*
%TO.C,C40*%
X114560000Y-84570000D03*
X113600000Y-84570000D03*
%TD*%
D26*
%TO.C,Q3*%
X116327500Y-43560000D03*
X116327500Y-41660000D03*
X114452500Y-42610000D03*
%TD*%
D27*
%TO.C,R8*%
X131310000Y-101800000D03*
X131310000Y-100780000D03*
%TD*%
D28*
%TO.C,U2*%
X128020000Y-55187500D03*
X128970000Y-55187500D03*
X129920000Y-55187500D03*
X129920000Y-52912500D03*
X128020000Y-52912500D03*
%TD*%
D29*
%TO.C,Q4*%
X133050000Y-94507500D03*
X134950000Y-94507500D03*
X134000000Y-92632500D03*
%TD*%
D19*
%TO.C,C21*%
X131790000Y-58740000D03*
X130830000Y-58740000D03*
%TD*%
D10*
%TO.C,D40*%
X103555000Y-49290000D03*
X103555000Y-48190000D03*
X101725000Y-48190000D03*
X101725000Y-49290000D03*
%TD*%
%TO.C,D22*%
X89240000Y-83090000D03*
X89240000Y-84190000D03*
X91070000Y-84190000D03*
X91070000Y-83090000D03*
%TD*%
D17*
%TO.C,U1*%
X119280000Y-99780000D03*
X121820000Y-99780000D03*
X121820000Y-93380000D03*
X119280000Y-93380000D03*
%TD*%
D10*
%TO.C,D45*%
X126735000Y-66560000D03*
X126735000Y-65460000D03*
X124905000Y-65460000D03*
X124905000Y-66560000D03*
%TD*%
D11*
%TO.C,R36*%
X114900000Y-82670000D03*
X113880000Y-82670000D03*
%TD*%
D10*
%TO.C,D11*%
X101875000Y-54350000D03*
X101875000Y-55450000D03*
X103705000Y-55450000D03*
X103705000Y-54350000D03*
%TD*%
D30*
%TO.C,R29*%
X118380000Y-75660000D03*
X118380000Y-76680000D03*
%TD*%
D31*
%TO.C,C8*%
X127928249Y-49128249D03*
X129271751Y-50471751D03*
%TD*%
D12*
%TO.C,R1*%
X107940000Y-83880000D03*
X108960000Y-83880000D03*
%TD*%
D10*
%TO.C,D24*%
X84807500Y-77670000D03*
X84807500Y-78770000D03*
X86637500Y-78770000D03*
X86637500Y-77670000D03*
%TD*%
D32*
%TO.C,D2*%
X108550000Y-82492500D03*
X108550000Y-80742500D03*
%TD*%
D19*
%TO.C,C46*%
X114890000Y-83630000D03*
X113930000Y-83630000D03*
%TD*%
D33*
%TO.C,J13*%
X113380000Y-92910000D03*
X113380000Y-89310000D03*
X112110000Y-92910000D03*
X112110000Y-89310000D03*
X110840000Y-92910000D03*
X110840000Y-89310000D03*
X109570000Y-92910000D03*
X109570000Y-89310000D03*
X108300000Y-92910000D03*
X108300000Y-89310000D03*
%TD*%
D11*
%TO.C,R37*%
X104640000Y-93810000D03*
X103620000Y-93810000D03*
%TD*%
D10*
%TO.C,D12*%
X90310000Y-51920000D03*
X90310000Y-53020000D03*
X92140000Y-53020000D03*
X92140000Y-51920000D03*
%TD*%
D34*
%TO.C,U10*%
X132412500Y-97640000D03*
X132412500Y-98590000D03*
X132412500Y-99540000D03*
X134687500Y-99540000D03*
X134687500Y-97640000D03*
%TD*%
D10*
%TO.C,D6*%
X120555000Y-71500000D03*
X120555000Y-70400000D03*
X118725000Y-70400000D03*
X118725000Y-71500000D03*
%TD*%
D24*
%TO.C,C29*%
X87740000Y-59970000D03*
X88700000Y-59970000D03*
%TD*%
D10*
%TO.C,D21*%
X101565000Y-63280000D03*
X101565000Y-62180000D03*
X99735000Y-62180000D03*
X99735000Y-63280000D03*
%TD*%
D24*
%TO.C,C45*%
X126580000Y-82900000D03*
X127540000Y-82900000D03*
%TD*%
%TO.C,C6*%
X107860000Y-47220000D03*
X108820000Y-47220000D03*
%TD*%
D35*
%TO.C,U3*%
X121042500Y-82130000D03*
X119442500Y-82130000D03*
X121042500Y-83730000D03*
X119442500Y-83730000D03*
D36*
X122842500Y-79492500D03*
X122442500Y-79492500D03*
X122042500Y-79492500D03*
X121642500Y-79492500D03*
X121242500Y-79492500D03*
X120842500Y-79492500D03*
X120442500Y-79492500D03*
X120042500Y-79492500D03*
X119642500Y-79492500D03*
X119242500Y-79492500D03*
X118842500Y-79492500D03*
X118442500Y-79492500D03*
X118042500Y-79492500D03*
X117642500Y-79492500D03*
D37*
X116805000Y-80330000D03*
X116805000Y-80730000D03*
X116805000Y-81130000D03*
X116805000Y-81530000D03*
X116805000Y-81930000D03*
X116805000Y-82330000D03*
X116805000Y-82730000D03*
X116805000Y-83130000D03*
X116805000Y-83530000D03*
X116805000Y-83930000D03*
X116805000Y-84330000D03*
X116805000Y-84730000D03*
X116805000Y-85130000D03*
X116805000Y-85530000D03*
D36*
X117642500Y-86367500D03*
X118042500Y-86367500D03*
X118442500Y-86367500D03*
X118842500Y-86367500D03*
X119242500Y-86367500D03*
X119642500Y-86367500D03*
X120042500Y-86367500D03*
X120442500Y-86367500D03*
X120842500Y-86367500D03*
X121242500Y-86367500D03*
X121642500Y-86367500D03*
X122042500Y-86367500D03*
X122442500Y-86367500D03*
X122842500Y-86367500D03*
D37*
X123680000Y-85530000D03*
X123680000Y-85130000D03*
X123680000Y-84730000D03*
X123680000Y-84330000D03*
X123680000Y-83930000D03*
X123680000Y-83530000D03*
X123680000Y-83130000D03*
X123680000Y-82730000D03*
X123680000Y-82330000D03*
X123680000Y-81930000D03*
X123680000Y-81530000D03*
X123680000Y-81130000D03*
X123680000Y-80730000D03*
X123680000Y-80330000D03*
%TD*%
D24*
%TO.C,C22*%
X85490000Y-75030000D03*
X86450000Y-75030000D03*
%TD*%
D23*
%TO.C,SW3*%
X140925000Y-57375000D03*
X144325000Y-57375000D03*
%TD*%
D38*
%TO.C,C16*%
X136640000Y-96700000D03*
X138540000Y-96700000D03*
%TD*%
D39*
%TO.C,C5*%
X140500000Y-94670000D03*
X138600000Y-94670000D03*
%TD*%
D12*
%TO.C,R10*%
X118680000Y-41800000D03*
X119700000Y-41800000D03*
%TD*%
D19*
%TO.C,C3*%
X102360000Y-42540000D03*
X101400000Y-42540000D03*
%TD*%
D30*
%TO.C,R5*%
X140192500Y-91260000D03*
X140192500Y-92280000D03*
%TD*%
D10*
%TO.C,D42*%
X114580000Y-58020000D03*
X114580000Y-56920000D03*
X112750000Y-56920000D03*
X112750000Y-58020000D03*
%TD*%
D11*
%TO.C,R25*%
X127570000Y-84900000D03*
X126550000Y-84900000D03*
%TD*%
D20*
%TO.C,C53*%
X119410000Y-76820000D03*
X119410000Y-75860000D03*
%TD*%
D11*
%TO.C,R26*%
X130190000Y-90920000D03*
X129170000Y-90920000D03*
%TD*%
D22*
%TO.C,C50*%
X123260000Y-89540000D03*
X123260000Y-90500000D03*
%TD*%
D20*
%TO.C,C51*%
X123475000Y-77855000D03*
X123475000Y-76895000D03*
%TD*%
D26*
%TO.C,Q2*%
X103767500Y-83110000D03*
X103767500Y-81210000D03*
X101892500Y-82160000D03*
%TD*%
D19*
%TO.C,C27*%
X99940000Y-77660000D03*
X98980000Y-77660000D03*
%TD*%
D30*
%TO.C,R6*%
X106580000Y-88220000D03*
X106580000Y-89240000D03*
%TD*%
D12*
%TO.C,R12*%
X116480000Y-92800000D03*
X117500000Y-92800000D03*
%TD*%
D24*
%TO.C,C18*%
X94020000Y-74130000D03*
X94980000Y-74130000D03*
%TD*%
D11*
%TO.C,R28*%
X135130000Y-71470000D03*
X134110000Y-71470000D03*
%TD*%
D10*
%TO.C,D31*%
X107300000Y-97735000D03*
X106200000Y-97735000D03*
X106200000Y-99565000D03*
X107300000Y-99565000D03*
%TD*%
D24*
%TO.C,C41*%
X126190000Y-81340000D03*
X127150000Y-81340000D03*
%TD*%
%TO.C,C19*%
X101340000Y-66150000D03*
X102300000Y-66150000D03*
%TD*%
D22*
%TO.C,C52*%
X124240000Y-89300000D03*
X124240000Y-90260000D03*
%TD*%
D10*
%TO.C,D37*%
X97285000Y-83450000D03*
X97285000Y-84550000D03*
X99115000Y-84550000D03*
X99115000Y-83450000D03*
%TD*%
%TO.C,D43*%
X118390000Y-52085000D03*
X117290000Y-52085000D03*
X117290000Y-53915000D03*
X118390000Y-53915000D03*
%TD*%
D24*
%TO.C,C25*%
X103730000Y-51980000D03*
X104690000Y-51980000D03*
%TD*%
D10*
%TO.C,D30*%
X114720000Y-99940000D03*
X113620000Y-99940000D03*
X113620000Y-101770000D03*
X114720000Y-101770000D03*
%TD*%
D22*
%TO.C,C10*%
X136080000Y-80150000D03*
X136080000Y-81110000D03*
%TD*%
D10*
%TO.C,D36*%
X97690000Y-87000000D03*
X97690000Y-88100000D03*
X99520000Y-88100000D03*
X99520000Y-87000000D03*
%TD*%
%TO.C,D10*%
X105375000Y-61105000D03*
X106475000Y-61105000D03*
X106475000Y-59275000D03*
X105375000Y-59275000D03*
%TD*%
D22*
%TO.C,C48*%
X118920000Y-88250000D03*
X118920000Y-89210000D03*
%TD*%
D20*
%TO.C,C49*%
X128090000Y-82000000D03*
X128090000Y-81040000D03*
%TD*%
D10*
%TO.C,D41*%
X111655000Y-51100000D03*
X111655000Y-50000000D03*
X109825000Y-50000000D03*
X109825000Y-51100000D03*
%TD*%
%TO.C,D20*%
X93865000Y-58930000D03*
X93865000Y-57830000D03*
X92035000Y-57830000D03*
X92035000Y-58930000D03*
%TD*%
D20*
%TO.C,C43*%
X112970000Y-81700000D03*
X112970000Y-80740000D03*
%TD*%
D24*
%TO.C,C12*%
X110990000Y-75740000D03*
X111950000Y-75740000D03*
%TD*%
D10*
%TO.C,D9*%
X112460000Y-64915000D03*
X113560000Y-64915000D03*
X113560000Y-63085000D03*
X112460000Y-63085000D03*
%TD*%
D40*
%TO.C,D48*%
X136570000Y-90370000D03*
X136570000Y-87070000D03*
%TD*%
D10*
%TO.C,D7*%
X121620000Y-64675000D03*
X120520000Y-64675000D03*
X120520000Y-66505000D03*
X121620000Y-66505000D03*
%TD*%
D11*
%TO.C,R4*%
X135830000Y-101110000D03*
X134810000Y-101110000D03*
%TD*%
D10*
%TO.C,D34*%
X101150000Y-94950000D03*
X101150000Y-93850000D03*
X99320000Y-93850000D03*
X99320000Y-94950000D03*
%TD*%
D20*
%TO.C,C33*%
X93470000Y-83130000D03*
X93470000Y-82170000D03*
%TD*%
D10*
%TO.C,D25*%
X81040000Y-73300000D03*
X81040000Y-74400000D03*
X82870000Y-74400000D03*
X82870000Y-73300000D03*
%TD*%
D22*
%TO.C,C17*%
X137530000Y-76870000D03*
X137530000Y-77830000D03*
%TD*%
D27*
%TO.C,R18*%
X137580000Y-81760000D03*
X137580000Y-80740000D03*
%TD*%
D23*
%TO.C,SW2*%
X106670000Y-86050000D03*
X110070000Y-86050000D03*
%TD*%
D24*
%TO.C,C28*%
X80770000Y-68820000D03*
X81730000Y-68820000D03*
%TD*%
D41*
%TO.C,U8*%
X134195000Y-73380000D03*
X132925000Y-73380000D03*
X131655000Y-73380000D03*
X130385000Y-73380000D03*
X130385000Y-80580000D03*
X131655000Y-80580000D03*
X132925000Y-80580000D03*
X134195000Y-80580000D03*
%TD*%
D24*
%TO.C,C1*%
X117070000Y-91690000D03*
X118030000Y-91690000D03*
%TD*%
D30*
%TO.C,R11*%
X118560000Y-46180000D03*
X118560000Y-47200000D03*
%TD*%
D12*
%TO.C,R16*%
X144065000Y-74200000D03*
X145085000Y-74200000D03*
%TD*%
D42*
%TO.C,U7*%
X131617500Y-89670000D03*
X131617500Y-88720000D03*
X131617500Y-87770000D03*
X129342500Y-87770000D03*
X129342500Y-89670000D03*
%TD*%
D24*
%TO.C,C26*%
X108660000Y-56060000D03*
X109620000Y-56060000D03*
%TD*%
D34*
%TO.C,U4*%
X142725000Y-90900000D03*
X142725000Y-91850000D03*
X142725000Y-92800000D03*
X145000000Y-92800000D03*
X145000000Y-90900000D03*
%TD*%
D30*
%TO.C,R9*%
X124350000Y-92160000D03*
X124350000Y-93180000D03*
%TD*%
D20*
%TO.C,C42*%
X112950000Y-83550000D03*
X112950000Y-82590000D03*
%TD*%
D23*
%TO.C,SW4*%
X142000000Y-71525000D03*
X145400000Y-71525000D03*
%TD*%
D24*
%TO.C,C24*%
X94210000Y-62850000D03*
X95170000Y-62850000D03*
%TD*%
D12*
%TO.C,R15*%
X115320000Y-87730000D03*
X116340000Y-87730000D03*
%TD*%
D10*
%TO.C,D33*%
X97225000Y-97200000D03*
X97225000Y-98300000D03*
X99055000Y-98300000D03*
X99055000Y-97200000D03*
%TD*%
D22*
%TO.C,C31*%
X100580000Y-97330000D03*
X100580000Y-98290000D03*
%TD*%
D11*
%TO.C,R2*%
X121660000Y-90050000D03*
X120640000Y-90050000D03*
%TD*%
%TO.C,R19*%
X136950000Y-85300000D03*
X135930000Y-85300000D03*
%TD*%
D26*
%TO.C,Q1*%
X117037500Y-46960000D03*
X117037500Y-45060000D03*
X115162500Y-46010000D03*
%TD*%
D12*
%TO.C,R7*%
X134070000Y-70450000D03*
X135090000Y-70450000D03*
%TD*%
D20*
%TO.C,C23*%
X122920000Y-68710000D03*
X122920000Y-67750000D03*
%TD*%
%TO.C,C14*%
X88420000Y-49790000D03*
X88420000Y-48830000D03*
%TD*%
%TO.C,C32*%
X117490000Y-101210000D03*
X117490000Y-100250000D03*
%TD*%
D24*
%TO.C,C11*%
X126320000Y-85980000D03*
X127280000Y-85980000D03*
%TD*%
D11*
%TO.C,R13*%
X132885000Y-65100000D03*
X131865000Y-65100000D03*
%TD*%
D10*
%TO.C,D17*%
X94945000Y-65740000D03*
X94945000Y-66840000D03*
X96775000Y-66840000D03*
X96775000Y-65740000D03*
%TD*%
D38*
%TO.C,C4*%
X136470000Y-92630000D03*
X138370000Y-92630000D03*
%TD*%
D10*
%TO.C,D29*%
X100390000Y-74940000D03*
X100390000Y-73840000D03*
X98560000Y-73840000D03*
X98560000Y-74940000D03*
%TD*%
D43*
%TO.C,J9*%
X139380000Y-86310000D03*
X139380000Y-85510000D03*
D44*
X139380000Y-84360000D03*
X139380000Y-83360000D03*
X139380000Y-82860000D03*
X139380000Y-81860000D03*
D43*
X139380000Y-80710000D03*
X139380000Y-79910000D03*
X139380000Y-79910000D03*
X139380000Y-80710000D03*
D44*
X139380000Y-81360000D03*
X139380000Y-82360000D03*
X139380000Y-83860000D03*
X139380000Y-84860000D03*
D43*
X139380000Y-85510000D03*
X139380000Y-86310000D03*
D45*
X139955000Y-87430000D03*
D46*
X144135000Y-87430000D03*
D45*
X139955000Y-78790000D03*
D46*
X144135000Y-78790000D03*
%TD*%
D47*
%TO.C,D4*%
X120590000Y-44670000D03*
X120590000Y-43270000D03*
%TD*%
D11*
%TO.C,R24*%
X127560000Y-83880000D03*
X126540000Y-83880000D03*
%TD*%
D27*
%TO.C,R3*%
X136290000Y-99680000D03*
X136290000Y-98660000D03*
%TD*%
D10*
%TO.C,D18*%
X88745000Y-62830000D03*
X88745000Y-63930000D03*
X90575000Y-63930000D03*
X90575000Y-62830000D03*
%TD*%
D24*
%TO.C,C20*%
X117950000Y-59840000D03*
X118910000Y-59840000D03*
%TD*%
M02*
