%TF.GenerationSoftware,KiCad,Pcbnew,8.0.0*%
%TF.CreationDate,2024-03-10T11:13:32-05:00*%
%TF.ProjectId,B-Sides 2024,422d5369-6465-4732-9032-3032342e6b69,rev?*%
%TF.SameCoordinates,Original*%
%TF.FileFunction,Drillmap*%
%TF.FilePolarity,Positive*%
%FSLAX45Y45*%
G04 Gerber Fmt 4.5, Leading zero omitted, Abs format (unit mm)*
G04 Created by KiCad (PCBNEW 8.0.0) date 2024-03-10 11:13:32*
%MOMM*%
%LPD*%
G01*
G04 APERTURE LIST*
%ADD10C,0.123989*%
%ADD11C,0.090406*%
%ADD12C,0.050000*%
%ADD13C,0.200000*%
%ADD14C,0.100000*%
%ADD15C,0.430000*%
G04 APERTURE END LIST*
D10*
X9931281Y-3003404D02*
X10097477Y-3005897D01*
X10431682Y-3013950D01*
X10666568Y-3020866D01*
X10905614Y-3034661D01*
X11147198Y-3055272D01*
X11389695Y-3082635D01*
X11631480Y-3116686D01*
X11870929Y-3157361D01*
X12106417Y-3204596D01*
X12336321Y-3258328D01*
X12537280Y-3327340D01*
X12740819Y-3394211D01*
X12944599Y-3462268D01*
X13146283Y-3534837D01*
X13245607Y-3573854D01*
X13343530Y-3615247D01*
X13439760Y-3659432D01*
X13534003Y-3706824D01*
X13625968Y-3757840D01*
X13715363Y-3812895D01*
X13801894Y-3872406D01*
X13885271Y-3936788D01*
X13945150Y-3988077D01*
X14002057Y-4041262D01*
X14107303Y-4153019D01*
X14201720Y-4271456D01*
X14286018Y-4395971D01*
X14360905Y-4525960D01*
X14427091Y-4660822D01*
X14485287Y-4799953D01*
X14536201Y-4942751D01*
X14580545Y-5088614D01*
X14619026Y-5236937D01*
X14652355Y-5387120D01*
X14681243Y-5538558D01*
X14728529Y-5842793D01*
X14766562Y-6144820D01*
X14766562Y-7005743D01*
X14767717Y-7018936D01*
X14770887Y-7038440D01*
X14781412Y-7093926D01*
X14794406Y-7167294D01*
X14806141Y-7253636D01*
X14810371Y-7300137D01*
X14812888Y-7348042D01*
X14813226Y-7396735D01*
X14810918Y-7445605D01*
X14805498Y-7494036D01*
X14796501Y-7541416D01*
X14790515Y-7564520D01*
X14783460Y-7587131D01*
X14775278Y-7609172D01*
X14765909Y-7630567D01*
X14765909Y-7630567D01*
X14747243Y-7668196D01*
X14731237Y-7697339D01*
X14717680Y-7719332D01*
X14706358Y-7735508D01*
X14679180Y-7768774D01*
X14675850Y-7775908D01*
X14673480Y-7785240D01*
X14671858Y-7798107D01*
X14670772Y-7815843D01*
X14667531Y-7962195D01*
X14666782Y-8058080D01*
X14667736Y-8184253D01*
X14672774Y-8474361D01*
X14681546Y-8833897D01*
X14701585Y-8859301D01*
X14719169Y-8891130D01*
X14734371Y-8928954D01*
X14747265Y-8972344D01*
X14766431Y-9074102D01*
X14777258Y-9192965D01*
X14780342Y-9325496D01*
X14776277Y-9468257D01*
X14765656Y-9617810D01*
X14749074Y-9770718D01*
X14727124Y-9923543D01*
X14700401Y-10072846D01*
X14669499Y-10215191D01*
X14635012Y-10347140D01*
X14597533Y-10465254D01*
X14557658Y-10566097D01*
X14515979Y-10646229D01*
X14494649Y-10677455D01*
X14473091Y-10702215D01*
X14202823Y-10969174D01*
X14178254Y-10993467D01*
X14158298Y-11016848D01*
X14142746Y-11039336D01*
X14131387Y-11060951D01*
X14124011Y-11081713D01*
X14120407Y-11101641D01*
X14120365Y-11120755D01*
X14123675Y-11139074D01*
X14130127Y-11156617D01*
X14139510Y-11173405D01*
X14151613Y-11189457D01*
X14166228Y-11204791D01*
X14183142Y-11219429D01*
X14202146Y-11233389D01*
X14245582Y-11259355D01*
X14294854Y-11282844D01*
X14348279Y-11304013D01*
X14404174Y-11323019D01*
X14460857Y-11340017D01*
X14569856Y-11368617D01*
X14661813Y-11391061D01*
X14731428Y-11407744D01*
X14758055Y-11415857D01*
X14779584Y-11423822D01*
X14796281Y-11431643D01*
X14808412Y-11439325D01*
X14816242Y-11446870D01*
X14820039Y-11454283D01*
X14820068Y-11461568D01*
X14816596Y-11468728D01*
X14809888Y-11475768D01*
X14800211Y-11482691D01*
X14773013Y-11496202D01*
X14737133Y-11509291D01*
X14694698Y-11521989D01*
X14647839Y-11534328D01*
X14549362Y-11558049D01*
X14458735Y-11580698D01*
X14421689Y-11591697D01*
X14392992Y-11602521D01*
X14471184Y-11599278D01*
X14523490Y-11600268D01*
X14540978Y-11602246D01*
X14553246Y-11605158D01*
X14560711Y-11608961D01*
X14563790Y-11613613D01*
X14562900Y-11619073D01*
X14558459Y-11625300D01*
X14540591Y-11639884D01*
X14480593Y-11676409D01*
X14445137Y-11697681D01*
X14410494Y-11720515D01*
X14380000Y-11744576D01*
X14367352Y-11756962D01*
X14356993Y-11769530D01*
X14349341Y-11782238D01*
X14344811Y-11795044D01*
X14343822Y-11807906D01*
X14346790Y-11820783D01*
X14354133Y-11833632D01*
X14366269Y-11846413D01*
X14383613Y-11859083D01*
X14406583Y-11871600D01*
X14474283Y-11928556D01*
X14563540Y-12006988D01*
X14611085Y-12050610D01*
X14657818Y-12095222D01*
X14701672Y-12139367D01*
X14740580Y-12181583D01*
X14772474Y-12220412D01*
X14785146Y-12238100D01*
X14795289Y-12254394D01*
X14802646Y-12269112D01*
X14806957Y-12282070D01*
X14807965Y-12293087D01*
X14805410Y-12301981D01*
X14802717Y-12305574D01*
X14799036Y-12308568D01*
X14788583Y-12312667D01*
X14773793Y-12314094D01*
X14754407Y-12312668D01*
X14730168Y-12308206D01*
X14700816Y-12300526D01*
X14666094Y-12289444D01*
X14625743Y-12274780D01*
X14500057Y-12220991D01*
X14469635Y-12209669D01*
X14456544Y-12207123D01*
X14455494Y-12208765D01*
X14457572Y-12212150D01*
X14469507Y-12223545D01*
X14513245Y-12260627D01*
X14538625Y-12283906D01*
X14562061Y-12308738D01*
X14580342Y-12333920D01*
X14586545Y-12346265D01*
X14590255Y-12358247D01*
X14591069Y-12369714D01*
X14588587Y-12380516D01*
X14582407Y-12390503D01*
X14572127Y-12399523D01*
X14557346Y-12407427D01*
X14537662Y-12414064D01*
X14512674Y-12419284D01*
X14481979Y-12422936D01*
X14454841Y-12428303D01*
X14432110Y-12433791D01*
X14413490Y-12439387D01*
X14398681Y-12445073D01*
X14387387Y-12450835D01*
X14379309Y-12456657D01*
X14374149Y-12462523D01*
X14371609Y-12468419D01*
X14371391Y-12474328D01*
X14373197Y-12480236D01*
X14376729Y-12486126D01*
X14381689Y-12491983D01*
X14394700Y-12503538D01*
X14409847Y-12514777D01*
X14424744Y-12525575D01*
X14437009Y-12535808D01*
X14441408Y-12540675D01*
X14444256Y-12545354D01*
X14445253Y-12549830D01*
X14444101Y-12554088D01*
X14440503Y-12558112D01*
X14434161Y-12561887D01*
X14424776Y-12565396D01*
X14412050Y-12568626D01*
X14375385Y-12574182D01*
X14321782Y-12578431D01*
X14251513Y-12578811D01*
X14205699Y-12583229D01*
X14190890Y-12586777D01*
X14180909Y-12591122D01*
X14175326Y-12596196D01*
X14173712Y-12601927D01*
X14175640Y-12608245D01*
X14180679Y-12615079D01*
X14198377Y-12630015D01*
X14252248Y-12662988D01*
X14307880Y-12696336D01*
X14327780Y-12711743D01*
X14334249Y-12718882D01*
X14337827Y-12725553D01*
X14338084Y-12731683D01*
X14334592Y-12737203D01*
X14326921Y-12742043D01*
X14314644Y-12746131D01*
X14297330Y-12749397D01*
X14274552Y-12751771D01*
X14210885Y-12753562D01*
X14221674Y-12772130D01*
X14231115Y-12788262D01*
X14239330Y-12802128D01*
X14246445Y-12813899D01*
X14249629Y-12819053D01*
X14252584Y-12823747D01*
X14255327Y-12828002D01*
X14257872Y-12831841D01*
X14260235Y-12835284D01*
X14262432Y-12838353D01*
X14264479Y-12841069D01*
X14266390Y-12843453D01*
X14268182Y-12845528D01*
X14269870Y-12847314D01*
X14271470Y-12848833D01*
X14272996Y-12850105D01*
X14274465Y-12851153D01*
X14275893Y-12851998D01*
X14277294Y-12852661D01*
X14278685Y-12853164D01*
X14280080Y-12853527D01*
X14281496Y-12853772D01*
X14282948Y-12853922D01*
X14284452Y-12853996D01*
X14287676Y-12854004D01*
X14291293Y-12853969D01*
X14418313Y-12853969D01*
X14449211Y-12854842D01*
X14479694Y-12857431D01*
X14509723Y-12861695D01*
X14539263Y-12867592D01*
X14568275Y-12875082D01*
X14596723Y-12884121D01*
X14624570Y-12894669D01*
X14651779Y-12906684D01*
X14678312Y-12920125D01*
X14704133Y-12934948D01*
X14729205Y-12951114D01*
X14753490Y-12968580D01*
X14776952Y-12987305D01*
X14799553Y-13007247D01*
X14821256Y-13028365D01*
X14842025Y-13050616D01*
X14861822Y-13073959D01*
X14880611Y-13098353D01*
X14898354Y-13123755D01*
X14915013Y-13150125D01*
X14930553Y-13177421D01*
X14944936Y-13205600D01*
X14958125Y-13234622D01*
X14970083Y-13264444D01*
X14980773Y-13295025D01*
X14990158Y-13326324D01*
X14998201Y-13358298D01*
X15004864Y-13390907D01*
X15010111Y-13424107D01*
X15013905Y-13457859D01*
X15016208Y-13492120D01*
X15016984Y-13526848D01*
X15016984Y-14808631D01*
X15016208Y-14843359D01*
X15013905Y-14877620D01*
X15010111Y-14911372D01*
X15004864Y-14944572D01*
X14998201Y-14977181D01*
X14990158Y-15009155D01*
X14980773Y-15040454D01*
X14970083Y-15071035D01*
X14958125Y-15100857D01*
X14944936Y-15129879D01*
X14930553Y-15158058D01*
X14915014Y-15185353D01*
X14898354Y-15211723D01*
X14880611Y-15237126D01*
X14861823Y-15261519D01*
X14842026Y-15284863D01*
X14821257Y-15307114D01*
X14799553Y-15328231D01*
X14776952Y-15348173D01*
X14753490Y-15366898D01*
X14729205Y-15384364D01*
X14704134Y-15400530D01*
X14678313Y-15415354D01*
X14651779Y-15428794D01*
X14624571Y-15440809D01*
X14596724Y-15451357D01*
X14568275Y-15460397D01*
X14539263Y-15467886D01*
X14509724Y-15473784D01*
X14479694Y-15478048D01*
X14449211Y-15480637D01*
X14418313Y-15481509D01*
X5662361Y-15481509D01*
X5631463Y-15480637D01*
X5600980Y-15478048D01*
X5570951Y-15473784D01*
X5541412Y-15467886D01*
X5512399Y-15460397D01*
X5483951Y-15451357D01*
X5456104Y-15440809D01*
X5428895Y-15428794D01*
X5402362Y-15415354D01*
X5376541Y-15400530D01*
X5351470Y-15384364D01*
X5327184Y-15366898D01*
X5303723Y-15348173D01*
X5281122Y-15328231D01*
X5259418Y-15307114D01*
X5238649Y-15284863D01*
X5218852Y-15261519D01*
X5200064Y-15237126D01*
X5182321Y-15211723D01*
X5165661Y-15185353D01*
X5150121Y-15158058D01*
X5135738Y-15129879D01*
X5122549Y-15100857D01*
X5110591Y-15071035D01*
X5099901Y-15040454D01*
X5090516Y-15009155D01*
X5082474Y-14977181D01*
X5075810Y-14944572D01*
X5070563Y-14911372D01*
X5066769Y-14877620D01*
X5064466Y-14843359D01*
X5063690Y-14808631D01*
X5063690Y-13526849D01*
X5064466Y-13492121D01*
X5066769Y-13457860D01*
X5070563Y-13424108D01*
X5075810Y-13390907D01*
X5082474Y-13358299D01*
X5090516Y-13326325D01*
X5099901Y-13295026D01*
X5110591Y-13264445D01*
X5122549Y-13234622D01*
X5135738Y-13205601D01*
X5150121Y-13177421D01*
X5165661Y-13150126D01*
X5182321Y-13123756D01*
X5200064Y-13098354D01*
X5218852Y-13073960D01*
X5238649Y-13050617D01*
X5259418Y-13028365D01*
X5281122Y-13007248D01*
X5303723Y-12987306D01*
X5327184Y-12968581D01*
X5351469Y-12951115D01*
X5376541Y-12934949D01*
X5402362Y-12920125D01*
X5428895Y-12906685D01*
X5456104Y-12894670D01*
X5483951Y-12884122D01*
X5512399Y-12875082D01*
X5541411Y-12867593D01*
X5570951Y-12861695D01*
X5600980Y-12857431D01*
X5631463Y-12854842D01*
X5662361Y-12853970D01*
X6301857Y-12853970D01*
X6303760Y-12850746D01*
X6305848Y-12847421D01*
X6308132Y-12843989D01*
X6310621Y-12840446D01*
X6313324Y-12836786D01*
X6316252Y-12833002D01*
X6319413Y-12829089D01*
X6322818Y-12825042D01*
X6330398Y-12816522D01*
X6339069Y-12807397D01*
X6348908Y-12797623D01*
X6359993Y-12787153D01*
X6393805Y-12778795D01*
X6422191Y-12768823D01*
X6445419Y-12757351D01*
X6463761Y-12744492D01*
X6477486Y-12730361D01*
X6486865Y-12715071D01*
X6492166Y-12698736D01*
X6493660Y-12681469D01*
X6491617Y-12663385D01*
X6486308Y-12644597D01*
X6478001Y-12625219D01*
X6466967Y-12605365D01*
X6453477Y-12585148D01*
X6437799Y-12564683D01*
X6400961Y-12523462D01*
X6358615Y-12482612D01*
X6312920Y-12443044D01*
X6266035Y-12405667D01*
X6220121Y-12371391D01*
X6139843Y-12315788D01*
X6089363Y-12283515D01*
X6082174Y-12278782D01*
X6075500Y-12273690D01*
X6069313Y-12268258D01*
X6063587Y-12262509D01*
X6058296Y-12256464D01*
X6053412Y-12250145D01*
X6048908Y-12243574D01*
X6044759Y-12236771D01*
X6040937Y-12229758D01*
X6037416Y-12222557D01*
X6031168Y-12207678D01*
X6025801Y-12192304D01*
X6021102Y-12176608D01*
X6004704Y-12114049D01*
X6000135Y-12099327D01*
X5994950Y-12085316D01*
X5988935Y-12072189D01*
X5985549Y-12066011D01*
X5981876Y-12060118D01*
X5974501Y-12047123D01*
X5967516Y-12031348D01*
X5960680Y-12013153D01*
X5953752Y-11992895D01*
X5938657Y-11947628D01*
X5930006Y-11923337D01*
X5920298Y-11898417D01*
X5909292Y-11873229D01*
X5896747Y-11848131D01*
X5882421Y-11823482D01*
X5874515Y-11811438D01*
X5866073Y-11799640D01*
X5857065Y-11788134D01*
X5847462Y-11776964D01*
X5837232Y-11766175D01*
X5826346Y-11755812D01*
X5814773Y-11745920D01*
X5802484Y-11736544D01*
X5789448Y-11727728D01*
X5775636Y-11719518D01*
X5762362Y-11710731D01*
X5750872Y-11700226D01*
X5741029Y-11688113D01*
X5732696Y-11674497D01*
X5725736Y-11659486D01*
X5720013Y-11643189D01*
X5715390Y-11625712D01*
X5711729Y-11607163D01*
X5706750Y-11567280D01*
X5703980Y-11524400D01*
X5700692Y-11433090D01*
X5697986Y-11386380D01*
X5693111Y-11340114D01*
X5684974Y-11295153D01*
X5679340Y-11273430D01*
X5672479Y-11252356D01*
X5664257Y-11232038D01*
X5654534Y-11212584D01*
X5643175Y-11194101D01*
X5630043Y-11176697D01*
X5615000Y-11160480D01*
X5597911Y-11145556D01*
X5578638Y-11132034D01*
X5557044Y-11120020D01*
X5532225Y-11115559D01*
X5509175Y-11110427D01*
X5487909Y-11104680D01*
X5468441Y-11098374D01*
X5450786Y-11091562D01*
X5434957Y-11084302D01*
X5420969Y-11076647D01*
X5408836Y-11068654D01*
X5398573Y-11060378D01*
X5390192Y-11051874D01*
X5383710Y-11043198D01*
X5379140Y-11034404D01*
X5376495Y-11025549D01*
X5375791Y-11016687D01*
X5377042Y-11007874D01*
X5380262Y-10999165D01*
X5385464Y-10990615D01*
X5392664Y-10982281D01*
X5401876Y-10974217D01*
X5413113Y-10966478D01*
X5426390Y-10959120D01*
X5441721Y-10952199D01*
X5459121Y-10945769D01*
X5478603Y-10939886D01*
X5500183Y-10934606D01*
X5523873Y-10929983D01*
X5549688Y-10926072D01*
X5577643Y-10922931D01*
X5607752Y-10920613D01*
X5640029Y-10919173D01*
X5674488Y-10918669D01*
X5711143Y-10919153D01*
X5721828Y-10919047D01*
X5731906Y-10917275D01*
X5741369Y-10913939D01*
X5750211Y-10909141D01*
X5758423Y-10902984D01*
X5765998Y-10895568D01*
X5772927Y-10886995D01*
X5779203Y-10877368D01*
X5784818Y-10866788D01*
X5789764Y-10855356D01*
X5794033Y-10843175D01*
X5797618Y-10830347D01*
X5800510Y-10816972D01*
X5802702Y-10803153D01*
X5804185Y-10788992D01*
X5804953Y-10774590D01*
X5804997Y-10760049D01*
X5804309Y-10745472D01*
X5802882Y-10730958D01*
X5800707Y-10716612D01*
X5797778Y-10702533D01*
X5794085Y-10688824D01*
X5789622Y-10675587D01*
X5784379Y-10662923D01*
X5778351Y-10650935D01*
X5771528Y-10639724D01*
X5763902Y-10629391D01*
X5755467Y-10620039D01*
X5746214Y-10611769D01*
X5736135Y-10604683D01*
X5725223Y-10598883D01*
X5713469Y-10594471D01*
X5696526Y-10590646D01*
X5684293Y-10586182D01*
X5676480Y-10581077D01*
X5672797Y-10575326D01*
X5672955Y-10568927D01*
X5676663Y-10561874D01*
X5683632Y-10554165D01*
X5693573Y-10545797D01*
X5721210Y-10527065D01*
X5757255Y-10505650D01*
X5845301Y-10454655D01*
X5892667Y-10425017D01*
X5939170Y-10392579D01*
X5982494Y-10357313D01*
X6002239Y-10338611D01*
X6020320Y-10319190D01*
X6036447Y-10299049D01*
X6050330Y-10278181D01*
X6061681Y-10256586D01*
X6070208Y-10234257D01*
X6075623Y-10211193D01*
X6077636Y-10187389D01*
X6075956Y-10162842D01*
X6070295Y-10137548D01*
X6025863Y-10109218D01*
X5980658Y-10081908D01*
X5888625Y-10029424D01*
X5702954Y-9926555D01*
X5657220Y-9899931D01*
X5612109Y-9872485D01*
X5567795Y-9843985D01*
X5524453Y-9814202D01*
X5482256Y-9782904D01*
X5441381Y-9749863D01*
X5402001Y-9714848D01*
X5364291Y-9677627D01*
X5376005Y-9665657D01*
X5390468Y-9656234D01*
X5407531Y-9649215D01*
X5427043Y-9644461D01*
X5448853Y-9641830D01*
X5472810Y-9641181D01*
X5526567Y-9645264D01*
X5587109Y-9655580D01*
X5653231Y-9671000D01*
X5723731Y-9690394D01*
X5797402Y-9712634D01*
X6099728Y-9807460D01*
X6171199Y-9826986D01*
X6238617Y-9842581D01*
X6300778Y-9853116D01*
X6356478Y-9857461D01*
X6356041Y-9803589D01*
X6350929Y-9740128D01*
X6342376Y-9669786D01*
X6331613Y-9595272D01*
X6308382Y-9444565D01*
X6298379Y-9373790D01*
X6291093Y-9309680D01*
X6287756Y-9254942D01*
X6287953Y-9231935D01*
X6289599Y-9212287D01*
X6292848Y-9196337D01*
X6297855Y-9184423D01*
X6304772Y-9176884D01*
X6313755Y-9174058D01*
X6324957Y-9176285D01*
X6338531Y-9183903D01*
X6354633Y-9197250D01*
X6373415Y-9216666D01*
X6395033Y-9242488D01*
X6419639Y-9275056D01*
X6478435Y-9361781D01*
X6481544Y-9355630D01*
X6484811Y-9352105D01*
X6488264Y-9351053D01*
X6491927Y-9352320D01*
X6495829Y-9355752D01*
X6499994Y-9361195D01*
X6509222Y-9377499D01*
X6561980Y-9492370D01*
X6580188Y-9527345D01*
X6600825Y-9562360D01*
X6624104Y-9596185D01*
X6636800Y-9612266D01*
X6650235Y-9627587D01*
X6664436Y-9641995D01*
X6679430Y-9655335D01*
X6695243Y-9667454D01*
X6711900Y-9678198D01*
X6729430Y-9687413D01*
X6747857Y-9694945D01*
X6767209Y-9700640D01*
X6787512Y-9704344D01*
X6808299Y-9707435D01*
X6827897Y-9711167D01*
X6846352Y-9715436D01*
X6863708Y-9720139D01*
X6895299Y-9730430D01*
X6923024Y-9741209D01*
X6968298Y-9760899D01*
X6986556Y-9768148D01*
X6994746Y-9770759D01*
X7002369Y-9772557D01*
X7009469Y-9773437D01*
X7016091Y-9773294D01*
X7022279Y-9772027D01*
X7028077Y-9769529D01*
X7033530Y-9765698D01*
X7038682Y-9760429D01*
X7043577Y-9753618D01*
X7048260Y-9745162D01*
X7052776Y-9734956D01*
X7057168Y-9722897D01*
X7061481Y-9708880D01*
X7065759Y-9692802D01*
X7074388Y-9654046D01*
X7083411Y-9605797D01*
X7109742Y-9534362D01*
X7121287Y-9509732D01*
X7131867Y-9491855D01*
X7141571Y-9480251D01*
X7150484Y-9474439D01*
X7158695Y-9473940D01*
X7166291Y-9478274D01*
X7173358Y-9486962D01*
X7179986Y-9499523D01*
X7192267Y-9534348D01*
X7215381Y-9629371D01*
X7241220Y-9732639D01*
X7256906Y-9777769D01*
X7265746Y-9797029D01*
X7275368Y-9813446D01*
X7285858Y-9826540D01*
X7297304Y-9835831D01*
X7309793Y-9840840D01*
X7323412Y-9841087D01*
X7338249Y-9836091D01*
X7354390Y-9825374D01*
X7371924Y-9808455D01*
X7390937Y-9784855D01*
X7409787Y-9781279D01*
X7427043Y-9776671D01*
X7442821Y-9771138D01*
X7457238Y-9764784D01*
X7470410Y-9757714D01*
X7482454Y-9750033D01*
X7493486Y-9741845D01*
X7503623Y-9733256D01*
X7512981Y-9724371D01*
X7521677Y-9715294D01*
X7537549Y-9696986D01*
X7552169Y-9679171D01*
X7566471Y-9662688D01*
X7573794Y-9655208D01*
X7581386Y-9648376D01*
X7589365Y-9642296D01*
X7597846Y-9637074D01*
X7606947Y-9632815D01*
X7616784Y-9629623D01*
X7627473Y-9627603D01*
X7639130Y-9626861D01*
X7651873Y-9627500D01*
X7665818Y-9629627D01*
X7681081Y-9633345D01*
X7697779Y-9638760D01*
X7716029Y-9645977D01*
X7735946Y-9655101D01*
X7757647Y-9666236D01*
X7781250Y-9679487D01*
X7804760Y-9691683D01*
X7826183Y-9699766D01*
X7845632Y-9704010D01*
X7863218Y-9704692D01*
X7879056Y-9702088D01*
X7893257Y-9696472D01*
X7905934Y-9688121D01*
X7917200Y-9677309D01*
X7927167Y-9664314D01*
X7935949Y-9649410D01*
X7943657Y-9632872D01*
X7950406Y-9614978D01*
X7961471Y-9576218D01*
X7970047Y-9535336D01*
X7983336Y-9456025D01*
X7989852Y-9422004D01*
X7997484Y-9394681D01*
X8002000Y-9384220D01*
X8007134Y-9376260D01*
X8012997Y-9371076D01*
X8019702Y-9368945D01*
X8027363Y-9370142D01*
X8036091Y-9374942D01*
X8046000Y-9383621D01*
X8057202Y-9396455D01*
X8069420Y-9388294D01*
X8082124Y-9375474D01*
X8108474Y-9336919D01*
X8135216Y-9282916D01*
X8161314Y-9215591D01*
X8185734Y-9137068D01*
X8207440Y-9049474D01*
X8225397Y-8954934D01*
X8238569Y-8855573D01*
X8245922Y-8753517D01*
X8246420Y-8650893D01*
X8239029Y-8549824D01*
X8232051Y-8500537D01*
X8222712Y-8452437D01*
X8210883Y-8405788D01*
X8196434Y-8360857D01*
X8179237Y-8317909D01*
X8159161Y-8277210D01*
X8136077Y-8239026D01*
X8109857Y-8203621D01*
X8080370Y-8171263D01*
X8047486Y-8142217D01*
X8008807Y-8108278D01*
X7972230Y-8073269D01*
X7937658Y-8037240D01*
X7904995Y-8000241D01*
X7845010Y-7923534D01*
X7791501Y-7843550D01*
X7743695Y-7760693D01*
X7700820Y-7675364D01*
X7662102Y-7587966D01*
X7626769Y-7498901D01*
X7563166Y-7317380D01*
X7503828Y-7134018D01*
X7442571Y-6952036D01*
X7409291Y-6862568D01*
X7373212Y-6774651D01*
X7191947Y-6627619D01*
X7013526Y-6476604D01*
X6839295Y-6320727D01*
X6754171Y-6240689D01*
X6670600Y-6159105D01*
X6588749Y-6075866D01*
X6508787Y-5990860D01*
X6430882Y-5903978D01*
X6355202Y-5815110D01*
X6281915Y-5724146D01*
X6211190Y-5630976D01*
X6143195Y-5535489D01*
X6078098Y-5437575D01*
X5982025Y-5288731D01*
X5884347Y-5130178D01*
X5837450Y-5047900D01*
X5793204Y-4963960D01*
X5752628Y-4878616D01*
X5716739Y-4792122D01*
X5686555Y-4704733D01*
X5663094Y-4616706D01*
X5654202Y-4572533D01*
X5647373Y-4528296D01*
X5642733Y-4484027D01*
X5640410Y-4439758D01*
X5640531Y-4395521D01*
X5643224Y-4351348D01*
X5648614Y-4307271D01*
X5656831Y-4263321D01*
X5668000Y-4219532D01*
X5682249Y-4175934D01*
X5699706Y-4132559D01*
X5720497Y-4089440D01*
X5829455Y-4000882D01*
X5944025Y-3917749D01*
X6063611Y-3839828D01*
X6187619Y-3766906D01*
X6315452Y-3698771D01*
X6446514Y-3635212D01*
X6580210Y-3576014D01*
X6715945Y-3520966D01*
X6853122Y-3469856D01*
X6991147Y-3422470D01*
X7129423Y-3378597D01*
X7267355Y-3338024D01*
X7539804Y-3265928D01*
X7803729Y-3204481D01*
X7925709Y-3175239D01*
X8047687Y-3148780D01*
X8291710Y-3103722D01*
X8535948Y-3068332D01*
X8780551Y-3041638D01*
X9025670Y-3022664D01*
X9271455Y-3010436D01*
X9518056Y-3003981D01*
X9765625Y-3002323D01*
X9931281Y-3003404D01*
D11*
X10232818Y-3350350D02*
X10421034Y-3359855D01*
X10507968Y-3367201D01*
X10588318Y-3376274D01*
X10660732Y-3387074D01*
X10723859Y-3399600D01*
X10779040Y-3413417D01*
X10828697Y-3428069D01*
X10873102Y-3443528D01*
X10912526Y-3459762D01*
X10947241Y-3476743D01*
X10977518Y-3494441D01*
X11003629Y-3512825D01*
X11025845Y-3531865D01*
X11044438Y-3551533D01*
X11059679Y-3571798D01*
X11071840Y-3592630D01*
X11081193Y-3613999D01*
X11088008Y-3635876D01*
X11092558Y-3658231D01*
X11095113Y-3681033D01*
X11095947Y-3704254D01*
X11095599Y-3718063D01*
X11094564Y-3731692D01*
X11092859Y-3745122D01*
X11090500Y-3758337D01*
X11087505Y-3771321D01*
X11083890Y-3784056D01*
X11079673Y-3796525D01*
X11074869Y-3808712D01*
X11069497Y-3820600D01*
X11063572Y-3832172D01*
X11057111Y-3843410D01*
X11050133Y-3854299D01*
X11042652Y-3864822D01*
X11034687Y-3874960D01*
X11026254Y-3884698D01*
X11017370Y-3894020D01*
X11008052Y-3902906D01*
X10998316Y-3911342D01*
X10988181Y-3919310D01*
X10977661Y-3926794D01*
X10966775Y-3933776D01*
X10955539Y-3940239D01*
X10943970Y-3946167D01*
X10932085Y-3951543D01*
X10919901Y-3956350D01*
X10907434Y-3960571D01*
X10894702Y-3964190D01*
X10881722Y-3967188D01*
X10868509Y-3969551D01*
X10855082Y-3971260D01*
X10841457Y-3972299D01*
X10827650Y-3972651D01*
X10741630Y-3958618D01*
X10650646Y-3946465D01*
X10456624Y-3927791D01*
X10251264Y-3916617D01*
X10040245Y-3912936D01*
X9829245Y-3916735D01*
X9623943Y-3928006D01*
X9430019Y-3946738D01*
X9339097Y-3958898D01*
X9253150Y-3972921D01*
X9239337Y-3972547D01*
X9225706Y-3971487D01*
X9212272Y-3969758D01*
X9199054Y-3967377D01*
X9186068Y-3964361D01*
X9173331Y-3960727D01*
X9160859Y-3956491D01*
X9148671Y-3951670D01*
X9136781Y-3946281D01*
X9125208Y-3940341D01*
X9113968Y-3933867D01*
X9103078Y-3926875D01*
X9092555Y-3919382D01*
X9082415Y-3911406D01*
X9072677Y-3902963D01*
X9063355Y-3894069D01*
X9054469Y-3884742D01*
X9046033Y-3874998D01*
X9038065Y-3864854D01*
X9030583Y-3854327D01*
X9023602Y-3843434D01*
X9017140Y-3832192D01*
X9011213Y-3820617D01*
X9005839Y-3808727D01*
X9001034Y-3796537D01*
X8996816Y-3784065D01*
X8993200Y-3771329D01*
X8990204Y-3758343D01*
X8987845Y-3745126D01*
X8986139Y-3731694D01*
X8985104Y-3718064D01*
X8984756Y-3704253D01*
X8984756Y-3704253D01*
X8984756Y-3704253D01*
X8984756Y-3704253D01*
X8984756Y-3704252D01*
X8984994Y-3693284D01*
X8985706Y-3682398D01*
X8986917Y-3671597D01*
X8988653Y-3660884D01*
X8990941Y-3650262D01*
X8993806Y-3639733D01*
X8997275Y-3629299D01*
X9001373Y-3618963D01*
X9006127Y-3608727D01*
X9011562Y-3598594D01*
X9017705Y-3588566D01*
X9024581Y-3578647D01*
X9032216Y-3568837D01*
X9040637Y-3559141D01*
X9049869Y-3549560D01*
X9059938Y-3540096D01*
X9070871Y-3530753D01*
X9082693Y-3521533D01*
X9095431Y-3512439D01*
X9109109Y-3503472D01*
X9123756Y-3494635D01*
X9139395Y-3485931D01*
X9156054Y-3477363D01*
X9173758Y-3468932D01*
X9192533Y-3460642D01*
X9212406Y-3452495D01*
X9233401Y-3444493D01*
X9255546Y-3436638D01*
X9278867Y-3428934D01*
X9303388Y-3421383D01*
X9329137Y-3413987D01*
X9356139Y-3406749D01*
X9416680Y-3393302D01*
X9486852Y-3381591D01*
X9565305Y-3371617D01*
X9650688Y-3363378D01*
X9836834Y-3352105D01*
X10034481Y-3347764D01*
X10232818Y-3350350D01*
D12*
X7893082Y-3822248D02*
X7218822Y-4002925D01*
X7781178Y-3397075D02*
X7106918Y-3577752D01*
X7218822Y-4002925D02*
G75*
G02*
X7106918Y-3577752I-56896J212338D01*
G01*
X7781178Y-3397075D02*
G75*
G02*
X7893082Y-3822248I56896J-212338D01*
G01*
X12220705Y-3447589D02*
X12894970Y-3628248D01*
X12105030Y-3871751D02*
X12779295Y-4052411D01*
X12894970Y-3628249D02*
G75*
G02*
X12779295Y-4052411I-56896J-212338D01*
G01*
X12105030Y-3871751D02*
G75*
G02*
X12220705Y-3447589I56896J212338D01*
G01*
D13*
D14*
X14013000Y-7989500D02*
X14078000Y-8054500D01*
X14078000Y-7989500D02*
X14013000Y-8054500D01*
X14013000Y-8567500D02*
X14078000Y-8632500D01*
X14078000Y-8567500D02*
X14013000Y-8632500D01*
D15*
X7715000Y-3700000D02*
G75*
G02*
X7285000Y-3700000I-215000J0D01*
G01*
X7285000Y-3700000D02*
G75*
G02*
X7715000Y-3700000I215000J0D01*
G01*
D14*
X7207913Y-4000849D02*
X7903379Y-3814499D01*
X7792087Y-3399151D02*
G75*
G02*
X7903379Y-3814499I55646J-207674D01*
G01*
X7792087Y-3399151D02*
X7096621Y-3585501D01*
X7096621Y-3585501D02*
G75*
G03*
X7207913Y-4000849I55646J-207674D01*
G01*
D15*
X12715000Y-3750000D02*
G75*
G02*
X12285000Y-3750000I-215000J0D01*
G01*
X12285000Y-3750000D02*
G75*
G02*
X12715000Y-3750000I215000J0D01*
G01*
D14*
X12903379Y-3635501D02*
X12207913Y-3449151D01*
X12096621Y-3864499D02*
G75*
G02*
X12207913Y-3449151I55646J207674D01*
G01*
X12096621Y-3864499D02*
X12792087Y-4050849D01*
X12792087Y-4050849D02*
G75*
G03*
X12903379Y-3635501I55646J207674D01*
G01*
D13*
X5318267Y-15799192D02*
X5318267Y-15599192D01*
X5318267Y-15599192D02*
X5365886Y-15599192D01*
X5365886Y-15599192D02*
X5394458Y-15608716D01*
X5394458Y-15608716D02*
X5413505Y-15627764D01*
X5413505Y-15627764D02*
X5423029Y-15646811D01*
X5423029Y-15646811D02*
X5432553Y-15684907D01*
X5432553Y-15684907D02*
X5432553Y-15713478D01*
X5432553Y-15713478D02*
X5423029Y-15751573D01*
X5423029Y-15751573D02*
X5413505Y-15770621D01*
X5413505Y-15770621D02*
X5394458Y-15789669D01*
X5394458Y-15789669D02*
X5365886Y-15799192D01*
X5365886Y-15799192D02*
X5318267Y-15799192D01*
X5518267Y-15799192D02*
X5518267Y-15665859D01*
X5518267Y-15703954D02*
X5527791Y-15684907D01*
X5527791Y-15684907D02*
X5537315Y-15675383D01*
X5537315Y-15675383D02*
X5556363Y-15665859D01*
X5556363Y-15665859D02*
X5575410Y-15665859D01*
X5642077Y-15799192D02*
X5642077Y-15665859D01*
X5642077Y-15599192D02*
X5632553Y-15608716D01*
X5632553Y-15608716D02*
X5642077Y-15618240D01*
X5642077Y-15618240D02*
X5651601Y-15608716D01*
X5651601Y-15608716D02*
X5642077Y-15599192D01*
X5642077Y-15599192D02*
X5642077Y-15618240D01*
X5765886Y-15799192D02*
X5746839Y-15789669D01*
X5746839Y-15789669D02*
X5737315Y-15770621D01*
X5737315Y-15770621D02*
X5737315Y-15599192D01*
X5870648Y-15799192D02*
X5851601Y-15789669D01*
X5851601Y-15789669D02*
X5842077Y-15770621D01*
X5842077Y-15770621D02*
X5842077Y-15599192D01*
X6099220Y-15799192D02*
X6099220Y-15599192D01*
X6099220Y-15599192D02*
X6165886Y-15742049D01*
X6165886Y-15742049D02*
X6232553Y-15599192D01*
X6232553Y-15599192D02*
X6232553Y-15799192D01*
X6413505Y-15799192D02*
X6413505Y-15694430D01*
X6413505Y-15694430D02*
X6403982Y-15675383D01*
X6403982Y-15675383D02*
X6384934Y-15665859D01*
X6384934Y-15665859D02*
X6346839Y-15665859D01*
X6346839Y-15665859D02*
X6327791Y-15675383D01*
X6413505Y-15789669D02*
X6394458Y-15799192D01*
X6394458Y-15799192D02*
X6346839Y-15799192D01*
X6346839Y-15799192D02*
X6327791Y-15789669D01*
X6327791Y-15789669D02*
X6318267Y-15770621D01*
X6318267Y-15770621D02*
X6318267Y-15751573D01*
X6318267Y-15751573D02*
X6327791Y-15732526D01*
X6327791Y-15732526D02*
X6346839Y-15723002D01*
X6346839Y-15723002D02*
X6394458Y-15723002D01*
X6394458Y-15723002D02*
X6413505Y-15713478D01*
X6508743Y-15665859D02*
X6508743Y-15865859D01*
X6508743Y-15675383D02*
X6527791Y-15665859D01*
X6527791Y-15665859D02*
X6565886Y-15665859D01*
X6565886Y-15665859D02*
X6584934Y-15675383D01*
X6584934Y-15675383D02*
X6594458Y-15684907D01*
X6594458Y-15684907D02*
X6603982Y-15703954D01*
X6603982Y-15703954D02*
X6603982Y-15761097D01*
X6603982Y-15761097D02*
X6594458Y-15780145D01*
X6594458Y-15780145D02*
X6584934Y-15789669D01*
X6584934Y-15789669D02*
X6565886Y-15799192D01*
X6565886Y-15799192D02*
X6527791Y-15799192D01*
X6527791Y-15799192D02*
X6508743Y-15789669D01*
X6689696Y-15780145D02*
X6699220Y-15789669D01*
X6699220Y-15789669D02*
X6689696Y-15799192D01*
X6689696Y-15799192D02*
X6680172Y-15789669D01*
X6680172Y-15789669D02*
X6689696Y-15780145D01*
X6689696Y-15780145D02*
X6689696Y-15799192D01*
X6689696Y-15675383D02*
X6699220Y-15684907D01*
X6699220Y-15684907D02*
X6689696Y-15694430D01*
X6689696Y-15694430D02*
X6680172Y-15684907D01*
X6680172Y-15684907D02*
X6689696Y-15675383D01*
X6689696Y-15675383D02*
X6689696Y-15694430D01*
D14*
X4992491Y-16095209D02*
X5057491Y-16160209D01*
X5057491Y-16095209D02*
X4992491Y-16160209D01*
D13*
X5356363Y-16019192D02*
X5375410Y-16019192D01*
X5375410Y-16019192D02*
X5394458Y-16028716D01*
X5394458Y-16028716D02*
X5403982Y-16038240D01*
X5403982Y-16038240D02*
X5413505Y-16057288D01*
X5413505Y-16057288D02*
X5423029Y-16095383D01*
X5423029Y-16095383D02*
X5423029Y-16143002D01*
X5423029Y-16143002D02*
X5413505Y-16181097D01*
X5413505Y-16181097D02*
X5403982Y-16200145D01*
X5403982Y-16200145D02*
X5394458Y-16209669D01*
X5394458Y-16209669D02*
X5375410Y-16219192D01*
X5375410Y-16219192D02*
X5356363Y-16219192D01*
X5356363Y-16219192D02*
X5337315Y-16209669D01*
X5337315Y-16209669D02*
X5327791Y-16200145D01*
X5327791Y-16200145D02*
X5318267Y-16181097D01*
X5318267Y-16181097D02*
X5308744Y-16143002D01*
X5308744Y-16143002D02*
X5308744Y-16095383D01*
X5308744Y-16095383D02*
X5318267Y-16057288D01*
X5318267Y-16057288D02*
X5327791Y-16038240D01*
X5327791Y-16038240D02*
X5337315Y-16028716D01*
X5337315Y-16028716D02*
X5356363Y-16019192D01*
X5508744Y-16200145D02*
X5518267Y-16209669D01*
X5518267Y-16209669D02*
X5508744Y-16219192D01*
X5508744Y-16219192D02*
X5499220Y-16209669D01*
X5499220Y-16209669D02*
X5508744Y-16200145D01*
X5508744Y-16200145D02*
X5508744Y-16219192D01*
X5689696Y-16019192D02*
X5651601Y-16019192D01*
X5651601Y-16019192D02*
X5632553Y-16028716D01*
X5632553Y-16028716D02*
X5623029Y-16038240D01*
X5623029Y-16038240D02*
X5603982Y-16066811D01*
X5603982Y-16066811D02*
X5594458Y-16104907D01*
X5594458Y-16104907D02*
X5594458Y-16181097D01*
X5594458Y-16181097D02*
X5603982Y-16200145D01*
X5603982Y-16200145D02*
X5613505Y-16209669D01*
X5613505Y-16209669D02*
X5632553Y-16219192D01*
X5632553Y-16219192D02*
X5670648Y-16219192D01*
X5670648Y-16219192D02*
X5689696Y-16209669D01*
X5689696Y-16209669D02*
X5699220Y-16200145D01*
X5699220Y-16200145D02*
X5708743Y-16181097D01*
X5708743Y-16181097D02*
X5708743Y-16133478D01*
X5708743Y-16133478D02*
X5699220Y-16114430D01*
X5699220Y-16114430D02*
X5689696Y-16104907D01*
X5689696Y-16104907D02*
X5670648Y-16095383D01*
X5670648Y-16095383D02*
X5632553Y-16095383D01*
X5632553Y-16095383D02*
X5613505Y-16104907D01*
X5613505Y-16104907D02*
X5603982Y-16114430D01*
X5603982Y-16114430D02*
X5594458Y-16133478D01*
X5889696Y-16019192D02*
X5794458Y-16019192D01*
X5794458Y-16019192D02*
X5784934Y-16114430D01*
X5784934Y-16114430D02*
X5794458Y-16104907D01*
X5794458Y-16104907D02*
X5813505Y-16095383D01*
X5813505Y-16095383D02*
X5861124Y-16095383D01*
X5861124Y-16095383D02*
X5880172Y-16104907D01*
X5880172Y-16104907D02*
X5889696Y-16114430D01*
X5889696Y-16114430D02*
X5899220Y-16133478D01*
X5899220Y-16133478D02*
X5899220Y-16181097D01*
X5899220Y-16181097D02*
X5889696Y-16200145D01*
X5889696Y-16200145D02*
X5880172Y-16209669D01*
X5880172Y-16209669D02*
X5861124Y-16219192D01*
X5861124Y-16219192D02*
X5813505Y-16219192D01*
X5813505Y-16219192D02*
X5794458Y-16209669D01*
X5794458Y-16209669D02*
X5784934Y-16200145D01*
X6023029Y-16019192D02*
X6042077Y-16019192D01*
X6042077Y-16019192D02*
X6061124Y-16028716D01*
X6061124Y-16028716D02*
X6070648Y-16038240D01*
X6070648Y-16038240D02*
X6080172Y-16057288D01*
X6080172Y-16057288D02*
X6089696Y-16095383D01*
X6089696Y-16095383D02*
X6089696Y-16143002D01*
X6089696Y-16143002D02*
X6080172Y-16181097D01*
X6080172Y-16181097D02*
X6070648Y-16200145D01*
X6070648Y-16200145D02*
X6061124Y-16209669D01*
X6061124Y-16209669D02*
X6042077Y-16219192D01*
X6042077Y-16219192D02*
X6023029Y-16219192D01*
X6023029Y-16219192D02*
X6003982Y-16209669D01*
X6003982Y-16209669D02*
X5994458Y-16200145D01*
X5994458Y-16200145D02*
X5984934Y-16181097D01*
X5984934Y-16181097D02*
X5975410Y-16143002D01*
X5975410Y-16143002D02*
X5975410Y-16095383D01*
X5975410Y-16095383D02*
X5984934Y-16057288D01*
X5984934Y-16057288D02*
X5994458Y-16038240D01*
X5994458Y-16038240D02*
X6003982Y-16028716D01*
X6003982Y-16028716D02*
X6023029Y-16019192D01*
X6175410Y-16219192D02*
X6175410Y-16085859D01*
X6175410Y-16104907D02*
X6184934Y-16095383D01*
X6184934Y-16095383D02*
X6203982Y-16085859D01*
X6203982Y-16085859D02*
X6232553Y-16085859D01*
X6232553Y-16085859D02*
X6251601Y-16095383D01*
X6251601Y-16095383D02*
X6261124Y-16114430D01*
X6261124Y-16114430D02*
X6261124Y-16219192D01*
X6261124Y-16114430D02*
X6270648Y-16095383D01*
X6270648Y-16095383D02*
X6289696Y-16085859D01*
X6289696Y-16085859D02*
X6318267Y-16085859D01*
X6318267Y-16085859D02*
X6337315Y-16095383D01*
X6337315Y-16095383D02*
X6346839Y-16114430D01*
X6346839Y-16114430D02*
X6346839Y-16219192D01*
X6442077Y-16219192D02*
X6442077Y-16085859D01*
X6442077Y-16104907D02*
X6451601Y-16095383D01*
X6451601Y-16095383D02*
X6470648Y-16085859D01*
X6470648Y-16085859D02*
X6499220Y-16085859D01*
X6499220Y-16085859D02*
X6518267Y-16095383D01*
X6518267Y-16095383D02*
X6527791Y-16114430D01*
X6527791Y-16114430D02*
X6527791Y-16219192D01*
X6527791Y-16114430D02*
X6537315Y-16095383D01*
X6537315Y-16095383D02*
X6556363Y-16085859D01*
X6556363Y-16085859D02*
X6584934Y-16085859D01*
X6584934Y-16085859D02*
X6603982Y-16095383D01*
X6603982Y-16095383D02*
X6613505Y-16114430D01*
X6613505Y-16114430D02*
X6613505Y-16219192D01*
X7003982Y-16009669D02*
X6832553Y-16266811D01*
X7261125Y-16019192D02*
X7280172Y-16019192D01*
X7280172Y-16019192D02*
X7299220Y-16028716D01*
X7299220Y-16028716D02*
X7308744Y-16038240D01*
X7308744Y-16038240D02*
X7318267Y-16057288D01*
X7318267Y-16057288D02*
X7327791Y-16095383D01*
X7327791Y-16095383D02*
X7327791Y-16143002D01*
X7327791Y-16143002D02*
X7318267Y-16181097D01*
X7318267Y-16181097D02*
X7308744Y-16200145D01*
X7308744Y-16200145D02*
X7299220Y-16209669D01*
X7299220Y-16209669D02*
X7280172Y-16219192D01*
X7280172Y-16219192D02*
X7261125Y-16219192D01*
X7261125Y-16219192D02*
X7242077Y-16209669D01*
X7242077Y-16209669D02*
X7232553Y-16200145D01*
X7232553Y-16200145D02*
X7223029Y-16181097D01*
X7223029Y-16181097D02*
X7213506Y-16143002D01*
X7213506Y-16143002D02*
X7213506Y-16095383D01*
X7213506Y-16095383D02*
X7223029Y-16057288D01*
X7223029Y-16057288D02*
X7232553Y-16038240D01*
X7232553Y-16038240D02*
X7242077Y-16028716D01*
X7242077Y-16028716D02*
X7261125Y-16019192D01*
X7413506Y-16200145D02*
X7423029Y-16209669D01*
X7423029Y-16209669D02*
X7413506Y-16219192D01*
X7413506Y-16219192D02*
X7403982Y-16209669D01*
X7403982Y-16209669D02*
X7413506Y-16200145D01*
X7413506Y-16200145D02*
X7413506Y-16219192D01*
X7546839Y-16019192D02*
X7565887Y-16019192D01*
X7565887Y-16019192D02*
X7584934Y-16028716D01*
X7584934Y-16028716D02*
X7594458Y-16038240D01*
X7594458Y-16038240D02*
X7603982Y-16057288D01*
X7603982Y-16057288D02*
X7613506Y-16095383D01*
X7613506Y-16095383D02*
X7613506Y-16143002D01*
X7613506Y-16143002D02*
X7603982Y-16181097D01*
X7603982Y-16181097D02*
X7594458Y-16200145D01*
X7594458Y-16200145D02*
X7584934Y-16209669D01*
X7584934Y-16209669D02*
X7565887Y-16219192D01*
X7565887Y-16219192D02*
X7546839Y-16219192D01*
X7546839Y-16219192D02*
X7527791Y-16209669D01*
X7527791Y-16209669D02*
X7518267Y-16200145D01*
X7518267Y-16200145D02*
X7508744Y-16181097D01*
X7508744Y-16181097D02*
X7499220Y-16143002D01*
X7499220Y-16143002D02*
X7499220Y-16095383D01*
X7499220Y-16095383D02*
X7508744Y-16057288D01*
X7508744Y-16057288D02*
X7518267Y-16038240D01*
X7518267Y-16038240D02*
X7527791Y-16028716D01*
X7527791Y-16028716D02*
X7546839Y-16019192D01*
X7689696Y-16038240D02*
X7699220Y-16028716D01*
X7699220Y-16028716D02*
X7718267Y-16019192D01*
X7718267Y-16019192D02*
X7765887Y-16019192D01*
X7765887Y-16019192D02*
X7784934Y-16028716D01*
X7784934Y-16028716D02*
X7794458Y-16038240D01*
X7794458Y-16038240D02*
X7803982Y-16057288D01*
X7803982Y-16057288D02*
X7803982Y-16076335D01*
X7803982Y-16076335D02*
X7794458Y-16104907D01*
X7794458Y-16104907D02*
X7680172Y-16219192D01*
X7680172Y-16219192D02*
X7803982Y-16219192D01*
X7984934Y-16019192D02*
X7889696Y-16019192D01*
X7889696Y-16019192D02*
X7880172Y-16114430D01*
X7880172Y-16114430D02*
X7889696Y-16104907D01*
X7889696Y-16104907D02*
X7908744Y-16095383D01*
X7908744Y-16095383D02*
X7956363Y-16095383D01*
X7956363Y-16095383D02*
X7975410Y-16104907D01*
X7975410Y-16104907D02*
X7984934Y-16114430D01*
X7984934Y-16114430D02*
X7994458Y-16133478D01*
X7994458Y-16133478D02*
X7994458Y-16181097D01*
X7994458Y-16181097D02*
X7984934Y-16200145D01*
X7984934Y-16200145D02*
X7975410Y-16209669D01*
X7975410Y-16209669D02*
X7956363Y-16219192D01*
X7956363Y-16219192D02*
X7908744Y-16219192D01*
X7908744Y-16219192D02*
X7889696Y-16209669D01*
X7889696Y-16209669D02*
X7880172Y-16200145D01*
X8165887Y-16019192D02*
X8127791Y-16019192D01*
X8127791Y-16019192D02*
X8108744Y-16028716D01*
X8108744Y-16028716D02*
X8099220Y-16038240D01*
X8099220Y-16038240D02*
X8080172Y-16066811D01*
X8080172Y-16066811D02*
X8070648Y-16104907D01*
X8070648Y-16104907D02*
X8070648Y-16181097D01*
X8070648Y-16181097D02*
X8080172Y-16200145D01*
X8080172Y-16200145D02*
X8089696Y-16209669D01*
X8089696Y-16209669D02*
X8108744Y-16219192D01*
X8108744Y-16219192D02*
X8146839Y-16219192D01*
X8146839Y-16219192D02*
X8165887Y-16209669D01*
X8165887Y-16209669D02*
X8175410Y-16200145D01*
X8175410Y-16200145D02*
X8184934Y-16181097D01*
X8184934Y-16181097D02*
X8184934Y-16133478D01*
X8184934Y-16133478D02*
X8175410Y-16114430D01*
X8175410Y-16114430D02*
X8165887Y-16104907D01*
X8165887Y-16104907D02*
X8146839Y-16095383D01*
X8146839Y-16095383D02*
X8108744Y-16095383D01*
X8108744Y-16095383D02*
X8089696Y-16104907D01*
X8089696Y-16104907D02*
X8080172Y-16114430D01*
X8080172Y-16114430D02*
X8070648Y-16133478D01*
X8261125Y-16019192D02*
X8261125Y-16057288D01*
X8337315Y-16019192D02*
X8337315Y-16057288D01*
X8632553Y-16295383D02*
X8623030Y-16285859D01*
X8623030Y-16285859D02*
X8603982Y-16257288D01*
X8603982Y-16257288D02*
X8594458Y-16238240D01*
X8594458Y-16238240D02*
X8584934Y-16209669D01*
X8584934Y-16209669D02*
X8575411Y-16162049D01*
X8575411Y-16162049D02*
X8575411Y-16123954D01*
X8575411Y-16123954D02*
X8584934Y-16076335D01*
X8584934Y-16076335D02*
X8594458Y-16047764D01*
X8594458Y-16047764D02*
X8603982Y-16028716D01*
X8603982Y-16028716D02*
X8623030Y-16000145D01*
X8623030Y-16000145D02*
X8632553Y-15990621D01*
X8699220Y-16038240D02*
X8708744Y-16028716D01*
X8708744Y-16028716D02*
X8727791Y-16019192D01*
X8727791Y-16019192D02*
X8775411Y-16019192D01*
X8775411Y-16019192D02*
X8794458Y-16028716D01*
X8794458Y-16028716D02*
X8803982Y-16038240D01*
X8803982Y-16038240D02*
X8813506Y-16057288D01*
X8813506Y-16057288D02*
X8813506Y-16076335D01*
X8813506Y-16076335D02*
X8803982Y-16104907D01*
X8803982Y-16104907D02*
X8689696Y-16219192D01*
X8689696Y-16219192D02*
X8813506Y-16219192D01*
X9051601Y-16219192D02*
X9051601Y-16019192D01*
X9137315Y-16219192D02*
X9137315Y-16114430D01*
X9137315Y-16114430D02*
X9127792Y-16095383D01*
X9127792Y-16095383D02*
X9108744Y-16085859D01*
X9108744Y-16085859D02*
X9080172Y-16085859D01*
X9080172Y-16085859D02*
X9061125Y-16095383D01*
X9061125Y-16095383D02*
X9051601Y-16104907D01*
X9261125Y-16219192D02*
X9242077Y-16209669D01*
X9242077Y-16209669D02*
X9232553Y-16200145D01*
X9232553Y-16200145D02*
X9223030Y-16181097D01*
X9223030Y-16181097D02*
X9223030Y-16123954D01*
X9223030Y-16123954D02*
X9232553Y-16104907D01*
X9232553Y-16104907D02*
X9242077Y-16095383D01*
X9242077Y-16095383D02*
X9261125Y-16085859D01*
X9261125Y-16085859D02*
X9289696Y-16085859D01*
X9289696Y-16085859D02*
X9308744Y-16095383D01*
X9308744Y-16095383D02*
X9318268Y-16104907D01*
X9318268Y-16104907D02*
X9327792Y-16123954D01*
X9327792Y-16123954D02*
X9327792Y-16181097D01*
X9327792Y-16181097D02*
X9318268Y-16200145D01*
X9318268Y-16200145D02*
X9308744Y-16209669D01*
X9308744Y-16209669D02*
X9289696Y-16219192D01*
X9289696Y-16219192D02*
X9261125Y-16219192D01*
X9442077Y-16219192D02*
X9423030Y-16209669D01*
X9423030Y-16209669D02*
X9413506Y-16190621D01*
X9413506Y-16190621D02*
X9413506Y-16019192D01*
X9594458Y-16209669D02*
X9575411Y-16219192D01*
X9575411Y-16219192D02*
X9537315Y-16219192D01*
X9537315Y-16219192D02*
X9518268Y-16209669D01*
X9518268Y-16209669D02*
X9508744Y-16190621D01*
X9508744Y-16190621D02*
X9508744Y-16114430D01*
X9508744Y-16114430D02*
X9518268Y-16095383D01*
X9518268Y-16095383D02*
X9537315Y-16085859D01*
X9537315Y-16085859D02*
X9575411Y-16085859D01*
X9575411Y-16085859D02*
X9594458Y-16095383D01*
X9594458Y-16095383D02*
X9603982Y-16114430D01*
X9603982Y-16114430D02*
X9603982Y-16133478D01*
X9603982Y-16133478D02*
X9508744Y-16152526D01*
X9680173Y-16209669D02*
X9699220Y-16219192D01*
X9699220Y-16219192D02*
X9737315Y-16219192D01*
X9737315Y-16219192D02*
X9756363Y-16209669D01*
X9756363Y-16209669D02*
X9765887Y-16190621D01*
X9765887Y-16190621D02*
X9765887Y-16181097D01*
X9765887Y-16181097D02*
X9756363Y-16162049D01*
X9756363Y-16162049D02*
X9737315Y-16152526D01*
X9737315Y-16152526D02*
X9708744Y-16152526D01*
X9708744Y-16152526D02*
X9689696Y-16143002D01*
X9689696Y-16143002D02*
X9680173Y-16123954D01*
X9680173Y-16123954D02*
X9680173Y-16114430D01*
X9680173Y-16114430D02*
X9689696Y-16095383D01*
X9689696Y-16095383D02*
X9708744Y-16085859D01*
X9708744Y-16085859D02*
X9737315Y-16085859D01*
X9737315Y-16085859D02*
X9756363Y-16095383D01*
X9832554Y-16295383D02*
X9842077Y-16285859D01*
X9842077Y-16285859D02*
X9861125Y-16257288D01*
X9861125Y-16257288D02*
X9870649Y-16238240D01*
X9870649Y-16238240D02*
X9880173Y-16209669D01*
X9880173Y-16209669D02*
X9889696Y-16162049D01*
X9889696Y-16162049D02*
X9889696Y-16123954D01*
X9889696Y-16123954D02*
X9880173Y-16076335D01*
X9880173Y-16076335D02*
X9870649Y-16047764D01*
X9870649Y-16047764D02*
X9861125Y-16028716D01*
X9861125Y-16028716D02*
X9842077Y-16000145D01*
X9842077Y-16000145D02*
X9832554Y-15990621D01*
X10194458Y-16295383D02*
X10184934Y-16285859D01*
X10184934Y-16285859D02*
X10165887Y-16257288D01*
X10165887Y-16257288D02*
X10156363Y-16238240D01*
X10156363Y-16238240D02*
X10146839Y-16209669D01*
X10146839Y-16209669D02*
X10137315Y-16162049D01*
X10137315Y-16162049D02*
X10137315Y-16123954D01*
X10137315Y-16123954D02*
X10146839Y-16076335D01*
X10146839Y-16076335D02*
X10156363Y-16047764D01*
X10156363Y-16047764D02*
X10165887Y-16028716D01*
X10165887Y-16028716D02*
X10184934Y-16000145D01*
X10184934Y-16000145D02*
X10194458Y-15990621D01*
X10270649Y-16085859D02*
X10270649Y-16219192D01*
X10270649Y-16104907D02*
X10280173Y-16095383D01*
X10280173Y-16095383D02*
X10299220Y-16085859D01*
X10299220Y-16085859D02*
X10327792Y-16085859D01*
X10327792Y-16085859D02*
X10346839Y-16095383D01*
X10346839Y-16095383D02*
X10356363Y-16114430D01*
X10356363Y-16114430D02*
X10356363Y-16219192D01*
X10480173Y-16219192D02*
X10461125Y-16209669D01*
X10461125Y-16209669D02*
X10451601Y-16200145D01*
X10451601Y-16200145D02*
X10442077Y-16181097D01*
X10442077Y-16181097D02*
X10442077Y-16123954D01*
X10442077Y-16123954D02*
X10451601Y-16104907D01*
X10451601Y-16104907D02*
X10461125Y-16095383D01*
X10461125Y-16095383D02*
X10480173Y-16085859D01*
X10480173Y-16085859D02*
X10508744Y-16085859D01*
X10508744Y-16085859D02*
X10527792Y-16095383D01*
X10527792Y-16095383D02*
X10537315Y-16104907D01*
X10537315Y-16104907D02*
X10546839Y-16123954D01*
X10546839Y-16123954D02*
X10546839Y-16181097D01*
X10546839Y-16181097D02*
X10537315Y-16200145D01*
X10537315Y-16200145D02*
X10527792Y-16209669D01*
X10527792Y-16209669D02*
X10508744Y-16219192D01*
X10508744Y-16219192D02*
X10480173Y-16219192D01*
X10603982Y-16085859D02*
X10680173Y-16085859D01*
X10632554Y-16019192D02*
X10632554Y-16190621D01*
X10632554Y-16190621D02*
X10642077Y-16209669D01*
X10642077Y-16209669D02*
X10661125Y-16219192D01*
X10661125Y-16219192D02*
X10680173Y-16219192D01*
X10899220Y-16085859D02*
X10899220Y-16285859D01*
X10899220Y-16095383D02*
X10918268Y-16085859D01*
X10918268Y-16085859D02*
X10956363Y-16085859D01*
X10956363Y-16085859D02*
X10975411Y-16095383D01*
X10975411Y-16095383D02*
X10984935Y-16104907D01*
X10984935Y-16104907D02*
X10994458Y-16123954D01*
X10994458Y-16123954D02*
X10994458Y-16181097D01*
X10994458Y-16181097D02*
X10984935Y-16200145D01*
X10984935Y-16200145D02*
X10975411Y-16209669D01*
X10975411Y-16209669D02*
X10956363Y-16219192D01*
X10956363Y-16219192D02*
X10918268Y-16219192D01*
X10918268Y-16219192D02*
X10899220Y-16209669D01*
X11108744Y-16219192D02*
X11089696Y-16209669D01*
X11089696Y-16209669D02*
X11080173Y-16190621D01*
X11080173Y-16190621D02*
X11080173Y-16019192D01*
X11270649Y-16219192D02*
X11270649Y-16114430D01*
X11270649Y-16114430D02*
X11261125Y-16095383D01*
X11261125Y-16095383D02*
X11242077Y-16085859D01*
X11242077Y-16085859D02*
X11203982Y-16085859D01*
X11203982Y-16085859D02*
X11184934Y-16095383D01*
X11270649Y-16209669D02*
X11251601Y-16219192D01*
X11251601Y-16219192D02*
X11203982Y-16219192D01*
X11203982Y-16219192D02*
X11184934Y-16209669D01*
X11184934Y-16209669D02*
X11175411Y-16190621D01*
X11175411Y-16190621D02*
X11175411Y-16171573D01*
X11175411Y-16171573D02*
X11184934Y-16152526D01*
X11184934Y-16152526D02*
X11203982Y-16143002D01*
X11203982Y-16143002D02*
X11251601Y-16143002D01*
X11251601Y-16143002D02*
X11270649Y-16133478D01*
X11337315Y-16085859D02*
X11413506Y-16085859D01*
X11365887Y-16019192D02*
X11365887Y-16190621D01*
X11365887Y-16190621D02*
X11375411Y-16209669D01*
X11375411Y-16209669D02*
X11394458Y-16219192D01*
X11394458Y-16219192D02*
X11413506Y-16219192D01*
X11556363Y-16209669D02*
X11537315Y-16219192D01*
X11537315Y-16219192D02*
X11499220Y-16219192D01*
X11499220Y-16219192D02*
X11480173Y-16209669D01*
X11480173Y-16209669D02*
X11470649Y-16190621D01*
X11470649Y-16190621D02*
X11470649Y-16114430D01*
X11470649Y-16114430D02*
X11480173Y-16095383D01*
X11480173Y-16095383D02*
X11499220Y-16085859D01*
X11499220Y-16085859D02*
X11537315Y-16085859D01*
X11537315Y-16085859D02*
X11556363Y-16095383D01*
X11556363Y-16095383D02*
X11565887Y-16114430D01*
X11565887Y-16114430D02*
X11565887Y-16133478D01*
X11565887Y-16133478D02*
X11470649Y-16152526D01*
X11737315Y-16219192D02*
X11737315Y-16019192D01*
X11737315Y-16209669D02*
X11718268Y-16219192D01*
X11718268Y-16219192D02*
X11680173Y-16219192D01*
X11680173Y-16219192D02*
X11661125Y-16209669D01*
X11661125Y-16209669D02*
X11651601Y-16200145D01*
X11651601Y-16200145D02*
X11642077Y-16181097D01*
X11642077Y-16181097D02*
X11642077Y-16123954D01*
X11642077Y-16123954D02*
X11651601Y-16104907D01*
X11651601Y-16104907D02*
X11661125Y-16095383D01*
X11661125Y-16095383D02*
X11680173Y-16085859D01*
X11680173Y-16085859D02*
X11718268Y-16085859D01*
X11718268Y-16085859D02*
X11737315Y-16095383D01*
X11813506Y-16295383D02*
X11823030Y-16285859D01*
X11823030Y-16285859D02*
X11842077Y-16257288D01*
X11842077Y-16257288D02*
X11851601Y-16238240D01*
X11851601Y-16238240D02*
X11861125Y-16209669D01*
X11861125Y-16209669D02*
X11870649Y-16162049D01*
X11870649Y-16162049D02*
X11870649Y-16123954D01*
X11870649Y-16123954D02*
X11861125Y-16076335D01*
X11861125Y-16076335D02*
X11851601Y-16047764D01*
X11851601Y-16047764D02*
X11842077Y-16028716D01*
X11842077Y-16028716D02*
X11823030Y-16000145D01*
X11823030Y-16000145D02*
X11813506Y-15990621D01*
X5057491Y-16391709D02*
G75*
G02*
X4857491Y-16391709I-100000J0D01*
G01*
X4857491Y-16391709D02*
G75*
G02*
X5057491Y-16391709I100000J0D01*
G01*
X5403982Y-16349859D02*
X5403982Y-16483192D01*
X5356363Y-16273669D02*
X5308744Y-16416526D01*
X5308744Y-16416526D02*
X5432553Y-16416526D01*
X5508744Y-16464145D02*
X5518267Y-16473669D01*
X5518267Y-16473669D02*
X5508744Y-16483192D01*
X5508744Y-16483192D02*
X5499220Y-16473669D01*
X5499220Y-16473669D02*
X5508744Y-16464145D01*
X5508744Y-16464145D02*
X5508744Y-16483192D01*
X5584934Y-16283192D02*
X5708743Y-16283192D01*
X5708743Y-16283192D02*
X5642077Y-16359383D01*
X5642077Y-16359383D02*
X5670648Y-16359383D01*
X5670648Y-16359383D02*
X5689696Y-16368907D01*
X5689696Y-16368907D02*
X5699220Y-16378430D01*
X5699220Y-16378430D02*
X5708743Y-16397478D01*
X5708743Y-16397478D02*
X5708743Y-16445097D01*
X5708743Y-16445097D02*
X5699220Y-16464145D01*
X5699220Y-16464145D02*
X5689696Y-16473669D01*
X5689696Y-16473669D02*
X5670648Y-16483192D01*
X5670648Y-16483192D02*
X5613505Y-16483192D01*
X5613505Y-16483192D02*
X5594458Y-16473669D01*
X5594458Y-16473669D02*
X5584934Y-16464145D01*
X5832553Y-16283192D02*
X5851601Y-16283192D01*
X5851601Y-16283192D02*
X5870648Y-16292716D01*
X5870648Y-16292716D02*
X5880172Y-16302240D01*
X5880172Y-16302240D02*
X5889696Y-16321288D01*
X5889696Y-16321288D02*
X5899220Y-16359383D01*
X5899220Y-16359383D02*
X5899220Y-16407002D01*
X5899220Y-16407002D02*
X5889696Y-16445097D01*
X5889696Y-16445097D02*
X5880172Y-16464145D01*
X5880172Y-16464145D02*
X5870648Y-16473669D01*
X5870648Y-16473669D02*
X5851601Y-16483192D01*
X5851601Y-16483192D02*
X5832553Y-16483192D01*
X5832553Y-16483192D02*
X5813505Y-16473669D01*
X5813505Y-16473669D02*
X5803982Y-16464145D01*
X5803982Y-16464145D02*
X5794458Y-16445097D01*
X5794458Y-16445097D02*
X5784934Y-16407002D01*
X5784934Y-16407002D02*
X5784934Y-16359383D01*
X5784934Y-16359383D02*
X5794458Y-16321288D01*
X5794458Y-16321288D02*
X5803982Y-16302240D01*
X5803982Y-16302240D02*
X5813505Y-16292716D01*
X5813505Y-16292716D02*
X5832553Y-16283192D01*
X6023029Y-16283192D02*
X6042077Y-16283192D01*
X6042077Y-16283192D02*
X6061124Y-16292716D01*
X6061124Y-16292716D02*
X6070648Y-16302240D01*
X6070648Y-16302240D02*
X6080172Y-16321288D01*
X6080172Y-16321288D02*
X6089696Y-16359383D01*
X6089696Y-16359383D02*
X6089696Y-16407002D01*
X6089696Y-16407002D02*
X6080172Y-16445097D01*
X6080172Y-16445097D02*
X6070648Y-16464145D01*
X6070648Y-16464145D02*
X6061124Y-16473669D01*
X6061124Y-16473669D02*
X6042077Y-16483192D01*
X6042077Y-16483192D02*
X6023029Y-16483192D01*
X6023029Y-16483192D02*
X6003982Y-16473669D01*
X6003982Y-16473669D02*
X5994458Y-16464145D01*
X5994458Y-16464145D02*
X5984934Y-16445097D01*
X5984934Y-16445097D02*
X5975410Y-16407002D01*
X5975410Y-16407002D02*
X5975410Y-16359383D01*
X5975410Y-16359383D02*
X5984934Y-16321288D01*
X5984934Y-16321288D02*
X5994458Y-16302240D01*
X5994458Y-16302240D02*
X6003982Y-16292716D01*
X6003982Y-16292716D02*
X6023029Y-16283192D01*
X6175410Y-16483192D02*
X6175410Y-16349859D01*
X6175410Y-16368907D02*
X6184934Y-16359383D01*
X6184934Y-16359383D02*
X6203982Y-16349859D01*
X6203982Y-16349859D02*
X6232553Y-16349859D01*
X6232553Y-16349859D02*
X6251601Y-16359383D01*
X6251601Y-16359383D02*
X6261124Y-16378430D01*
X6261124Y-16378430D02*
X6261124Y-16483192D01*
X6261124Y-16378430D02*
X6270648Y-16359383D01*
X6270648Y-16359383D02*
X6289696Y-16349859D01*
X6289696Y-16349859D02*
X6318267Y-16349859D01*
X6318267Y-16349859D02*
X6337315Y-16359383D01*
X6337315Y-16359383D02*
X6346839Y-16378430D01*
X6346839Y-16378430D02*
X6346839Y-16483192D01*
X6442077Y-16483192D02*
X6442077Y-16349859D01*
X6442077Y-16368907D02*
X6451601Y-16359383D01*
X6451601Y-16359383D02*
X6470648Y-16349859D01*
X6470648Y-16349859D02*
X6499220Y-16349859D01*
X6499220Y-16349859D02*
X6518267Y-16359383D01*
X6518267Y-16359383D02*
X6527791Y-16378430D01*
X6527791Y-16378430D02*
X6527791Y-16483192D01*
X6527791Y-16378430D02*
X6537315Y-16359383D01*
X6537315Y-16359383D02*
X6556363Y-16349859D01*
X6556363Y-16349859D02*
X6584934Y-16349859D01*
X6584934Y-16349859D02*
X6603982Y-16359383D01*
X6603982Y-16359383D02*
X6613505Y-16378430D01*
X6613505Y-16378430D02*
X6613505Y-16483192D01*
X7003982Y-16273669D02*
X6832553Y-16530811D01*
X7261125Y-16283192D02*
X7280172Y-16283192D01*
X7280172Y-16283192D02*
X7299220Y-16292716D01*
X7299220Y-16292716D02*
X7308744Y-16302240D01*
X7308744Y-16302240D02*
X7318267Y-16321288D01*
X7318267Y-16321288D02*
X7327791Y-16359383D01*
X7327791Y-16359383D02*
X7327791Y-16407002D01*
X7327791Y-16407002D02*
X7318267Y-16445097D01*
X7318267Y-16445097D02*
X7308744Y-16464145D01*
X7308744Y-16464145D02*
X7299220Y-16473669D01*
X7299220Y-16473669D02*
X7280172Y-16483192D01*
X7280172Y-16483192D02*
X7261125Y-16483192D01*
X7261125Y-16483192D02*
X7242077Y-16473669D01*
X7242077Y-16473669D02*
X7232553Y-16464145D01*
X7232553Y-16464145D02*
X7223029Y-16445097D01*
X7223029Y-16445097D02*
X7213506Y-16407002D01*
X7213506Y-16407002D02*
X7213506Y-16359383D01*
X7213506Y-16359383D02*
X7223029Y-16321288D01*
X7223029Y-16321288D02*
X7232553Y-16302240D01*
X7232553Y-16302240D02*
X7242077Y-16292716D01*
X7242077Y-16292716D02*
X7261125Y-16283192D01*
X7413506Y-16464145D02*
X7423029Y-16473669D01*
X7423029Y-16473669D02*
X7413506Y-16483192D01*
X7413506Y-16483192D02*
X7403982Y-16473669D01*
X7403982Y-16473669D02*
X7413506Y-16464145D01*
X7413506Y-16464145D02*
X7413506Y-16483192D01*
X7613506Y-16483192D02*
X7499220Y-16483192D01*
X7556363Y-16483192D02*
X7556363Y-16283192D01*
X7556363Y-16283192D02*
X7537315Y-16311764D01*
X7537315Y-16311764D02*
X7518267Y-16330811D01*
X7518267Y-16330811D02*
X7499220Y-16340335D01*
X7784934Y-16283192D02*
X7746839Y-16283192D01*
X7746839Y-16283192D02*
X7727791Y-16292716D01*
X7727791Y-16292716D02*
X7718267Y-16302240D01*
X7718267Y-16302240D02*
X7699220Y-16330811D01*
X7699220Y-16330811D02*
X7689696Y-16368907D01*
X7689696Y-16368907D02*
X7689696Y-16445097D01*
X7689696Y-16445097D02*
X7699220Y-16464145D01*
X7699220Y-16464145D02*
X7708744Y-16473669D01*
X7708744Y-16473669D02*
X7727791Y-16483192D01*
X7727791Y-16483192D02*
X7765887Y-16483192D01*
X7765887Y-16483192D02*
X7784934Y-16473669D01*
X7784934Y-16473669D02*
X7794458Y-16464145D01*
X7794458Y-16464145D02*
X7803982Y-16445097D01*
X7803982Y-16445097D02*
X7803982Y-16397478D01*
X7803982Y-16397478D02*
X7794458Y-16378430D01*
X7794458Y-16378430D02*
X7784934Y-16368907D01*
X7784934Y-16368907D02*
X7765887Y-16359383D01*
X7765887Y-16359383D02*
X7727791Y-16359383D01*
X7727791Y-16359383D02*
X7708744Y-16368907D01*
X7708744Y-16368907D02*
X7699220Y-16378430D01*
X7699220Y-16378430D02*
X7689696Y-16397478D01*
X7899220Y-16483192D02*
X7937315Y-16483192D01*
X7937315Y-16483192D02*
X7956363Y-16473669D01*
X7956363Y-16473669D02*
X7965887Y-16464145D01*
X7965887Y-16464145D02*
X7984934Y-16435573D01*
X7984934Y-16435573D02*
X7994458Y-16397478D01*
X7994458Y-16397478D02*
X7994458Y-16321288D01*
X7994458Y-16321288D02*
X7984934Y-16302240D01*
X7984934Y-16302240D02*
X7975410Y-16292716D01*
X7975410Y-16292716D02*
X7956363Y-16283192D01*
X7956363Y-16283192D02*
X7918267Y-16283192D01*
X7918267Y-16283192D02*
X7899220Y-16292716D01*
X7899220Y-16292716D02*
X7889696Y-16302240D01*
X7889696Y-16302240D02*
X7880172Y-16321288D01*
X7880172Y-16321288D02*
X7880172Y-16368907D01*
X7880172Y-16368907D02*
X7889696Y-16387954D01*
X7889696Y-16387954D02*
X7899220Y-16397478D01*
X7899220Y-16397478D02*
X7918267Y-16407002D01*
X7918267Y-16407002D02*
X7956363Y-16407002D01*
X7956363Y-16407002D02*
X7975410Y-16397478D01*
X7975410Y-16397478D02*
X7984934Y-16387954D01*
X7984934Y-16387954D02*
X7994458Y-16368907D01*
X8061125Y-16283192D02*
X8184934Y-16283192D01*
X8184934Y-16283192D02*
X8118267Y-16359383D01*
X8118267Y-16359383D02*
X8146839Y-16359383D01*
X8146839Y-16359383D02*
X8165887Y-16368907D01*
X8165887Y-16368907D02*
X8175410Y-16378430D01*
X8175410Y-16378430D02*
X8184934Y-16397478D01*
X8184934Y-16397478D02*
X8184934Y-16445097D01*
X8184934Y-16445097D02*
X8175410Y-16464145D01*
X8175410Y-16464145D02*
X8165887Y-16473669D01*
X8165887Y-16473669D02*
X8146839Y-16483192D01*
X8146839Y-16483192D02*
X8089696Y-16483192D01*
X8089696Y-16483192D02*
X8070648Y-16473669D01*
X8070648Y-16473669D02*
X8061125Y-16464145D01*
X8261125Y-16283192D02*
X8261125Y-16321288D01*
X8337315Y-16283192D02*
X8337315Y-16321288D01*
X8632553Y-16559383D02*
X8623030Y-16549859D01*
X8623030Y-16549859D02*
X8603982Y-16521288D01*
X8603982Y-16521288D02*
X8594458Y-16502240D01*
X8594458Y-16502240D02*
X8584934Y-16473669D01*
X8584934Y-16473669D02*
X8575411Y-16426049D01*
X8575411Y-16426049D02*
X8575411Y-16387954D01*
X8575411Y-16387954D02*
X8584934Y-16340335D01*
X8584934Y-16340335D02*
X8594458Y-16311764D01*
X8594458Y-16311764D02*
X8603982Y-16292716D01*
X8603982Y-16292716D02*
X8623030Y-16264145D01*
X8623030Y-16264145D02*
X8632553Y-16254621D01*
X8746839Y-16283192D02*
X8765887Y-16283192D01*
X8765887Y-16283192D02*
X8784934Y-16292716D01*
X8784934Y-16292716D02*
X8794458Y-16302240D01*
X8794458Y-16302240D02*
X8803982Y-16321288D01*
X8803982Y-16321288D02*
X8813506Y-16359383D01*
X8813506Y-16359383D02*
X8813506Y-16407002D01*
X8813506Y-16407002D02*
X8803982Y-16445097D01*
X8803982Y-16445097D02*
X8794458Y-16464145D01*
X8794458Y-16464145D02*
X8784934Y-16473669D01*
X8784934Y-16473669D02*
X8765887Y-16483192D01*
X8765887Y-16483192D02*
X8746839Y-16483192D01*
X8746839Y-16483192D02*
X8727791Y-16473669D01*
X8727791Y-16473669D02*
X8718268Y-16464145D01*
X8718268Y-16464145D02*
X8708744Y-16445097D01*
X8708744Y-16445097D02*
X8699220Y-16407002D01*
X8699220Y-16407002D02*
X8699220Y-16359383D01*
X8699220Y-16359383D02*
X8708744Y-16321288D01*
X8708744Y-16321288D02*
X8718268Y-16302240D01*
X8718268Y-16302240D02*
X8727791Y-16292716D01*
X8727791Y-16292716D02*
X8746839Y-16283192D01*
X9051601Y-16483192D02*
X9051601Y-16283192D01*
X9137315Y-16483192D02*
X9137315Y-16378430D01*
X9137315Y-16378430D02*
X9127792Y-16359383D01*
X9127792Y-16359383D02*
X9108744Y-16349859D01*
X9108744Y-16349859D02*
X9080172Y-16349859D01*
X9080172Y-16349859D02*
X9061125Y-16359383D01*
X9061125Y-16359383D02*
X9051601Y-16368907D01*
X9261125Y-16483192D02*
X9242077Y-16473669D01*
X9242077Y-16473669D02*
X9232553Y-16464145D01*
X9232553Y-16464145D02*
X9223030Y-16445097D01*
X9223030Y-16445097D02*
X9223030Y-16387954D01*
X9223030Y-16387954D02*
X9232553Y-16368907D01*
X9232553Y-16368907D02*
X9242077Y-16359383D01*
X9242077Y-16359383D02*
X9261125Y-16349859D01*
X9261125Y-16349859D02*
X9289696Y-16349859D01*
X9289696Y-16349859D02*
X9308744Y-16359383D01*
X9308744Y-16359383D02*
X9318268Y-16368907D01*
X9318268Y-16368907D02*
X9327792Y-16387954D01*
X9327792Y-16387954D02*
X9327792Y-16445097D01*
X9327792Y-16445097D02*
X9318268Y-16464145D01*
X9318268Y-16464145D02*
X9308744Y-16473669D01*
X9308744Y-16473669D02*
X9289696Y-16483192D01*
X9289696Y-16483192D02*
X9261125Y-16483192D01*
X9442077Y-16483192D02*
X9423030Y-16473669D01*
X9423030Y-16473669D02*
X9413506Y-16454621D01*
X9413506Y-16454621D02*
X9413506Y-16283192D01*
X9594458Y-16473669D02*
X9575411Y-16483192D01*
X9575411Y-16483192D02*
X9537315Y-16483192D01*
X9537315Y-16483192D02*
X9518268Y-16473669D01*
X9518268Y-16473669D02*
X9508744Y-16454621D01*
X9508744Y-16454621D02*
X9508744Y-16378430D01*
X9508744Y-16378430D02*
X9518268Y-16359383D01*
X9518268Y-16359383D02*
X9537315Y-16349859D01*
X9537315Y-16349859D02*
X9575411Y-16349859D01*
X9575411Y-16349859D02*
X9594458Y-16359383D01*
X9594458Y-16359383D02*
X9603982Y-16378430D01*
X9603982Y-16378430D02*
X9603982Y-16397478D01*
X9603982Y-16397478D02*
X9508744Y-16416526D01*
X9680173Y-16473669D02*
X9699220Y-16483192D01*
X9699220Y-16483192D02*
X9737315Y-16483192D01*
X9737315Y-16483192D02*
X9756363Y-16473669D01*
X9756363Y-16473669D02*
X9765887Y-16454621D01*
X9765887Y-16454621D02*
X9765887Y-16445097D01*
X9765887Y-16445097D02*
X9756363Y-16426049D01*
X9756363Y-16426049D02*
X9737315Y-16416526D01*
X9737315Y-16416526D02*
X9708744Y-16416526D01*
X9708744Y-16416526D02*
X9689696Y-16407002D01*
X9689696Y-16407002D02*
X9680173Y-16387954D01*
X9680173Y-16387954D02*
X9680173Y-16378430D01*
X9680173Y-16378430D02*
X9689696Y-16359383D01*
X9689696Y-16359383D02*
X9708744Y-16349859D01*
X9708744Y-16349859D02*
X9737315Y-16349859D01*
X9737315Y-16349859D02*
X9756363Y-16359383D01*
X10003982Y-16407002D02*
X10156363Y-16407002D01*
X10080173Y-16483192D02*
X10080173Y-16330811D01*
X10394458Y-16302240D02*
X10403982Y-16292716D01*
X10403982Y-16292716D02*
X10423030Y-16283192D01*
X10423030Y-16283192D02*
X10470649Y-16283192D01*
X10470649Y-16283192D02*
X10489696Y-16292716D01*
X10489696Y-16292716D02*
X10499220Y-16302240D01*
X10499220Y-16302240D02*
X10508744Y-16321288D01*
X10508744Y-16321288D02*
X10508744Y-16340335D01*
X10508744Y-16340335D02*
X10499220Y-16368907D01*
X10499220Y-16368907D02*
X10384935Y-16483192D01*
X10384935Y-16483192D02*
X10508744Y-16483192D01*
X10737316Y-16473669D02*
X10756363Y-16483192D01*
X10756363Y-16483192D02*
X10794458Y-16483192D01*
X10794458Y-16483192D02*
X10813506Y-16473669D01*
X10813506Y-16473669D02*
X10823030Y-16454621D01*
X10823030Y-16454621D02*
X10823030Y-16445097D01*
X10823030Y-16445097D02*
X10813506Y-16426049D01*
X10813506Y-16426049D02*
X10794458Y-16416526D01*
X10794458Y-16416526D02*
X10765887Y-16416526D01*
X10765887Y-16416526D02*
X10746839Y-16407002D01*
X10746839Y-16407002D02*
X10737316Y-16387954D01*
X10737316Y-16387954D02*
X10737316Y-16378430D01*
X10737316Y-16378430D02*
X10746839Y-16359383D01*
X10746839Y-16359383D02*
X10765887Y-16349859D01*
X10765887Y-16349859D02*
X10794458Y-16349859D01*
X10794458Y-16349859D02*
X10813506Y-16359383D01*
X10937316Y-16483192D02*
X10918268Y-16473669D01*
X10918268Y-16473669D02*
X10908744Y-16454621D01*
X10908744Y-16454621D02*
X10908744Y-16283192D01*
X11042077Y-16483192D02*
X11023030Y-16473669D01*
X11023030Y-16473669D02*
X11013506Y-16464145D01*
X11013506Y-16464145D02*
X11003982Y-16445097D01*
X11003982Y-16445097D02*
X11003982Y-16387954D01*
X11003982Y-16387954D02*
X11013506Y-16368907D01*
X11013506Y-16368907D02*
X11023030Y-16359383D01*
X11023030Y-16359383D02*
X11042077Y-16349859D01*
X11042077Y-16349859D02*
X11070649Y-16349859D01*
X11070649Y-16349859D02*
X11089697Y-16359383D01*
X11089697Y-16359383D02*
X11099220Y-16368907D01*
X11099220Y-16368907D02*
X11108744Y-16387954D01*
X11108744Y-16387954D02*
X11108744Y-16445097D01*
X11108744Y-16445097D02*
X11099220Y-16464145D01*
X11099220Y-16464145D02*
X11089697Y-16473669D01*
X11089697Y-16473669D02*
X11070649Y-16483192D01*
X11070649Y-16483192D02*
X11042077Y-16483192D01*
X11165887Y-16349859D02*
X11242077Y-16349859D01*
X11194458Y-16283192D02*
X11194458Y-16454621D01*
X11194458Y-16454621D02*
X11203982Y-16473669D01*
X11203982Y-16473669D02*
X11223030Y-16483192D01*
X11223030Y-16483192D02*
X11242077Y-16483192D01*
X11299220Y-16473669D02*
X11318268Y-16483192D01*
X11318268Y-16483192D02*
X11356363Y-16483192D01*
X11356363Y-16483192D02*
X11375411Y-16473669D01*
X11375411Y-16473669D02*
X11384935Y-16454621D01*
X11384935Y-16454621D02*
X11384935Y-16445097D01*
X11384935Y-16445097D02*
X11375411Y-16426049D01*
X11375411Y-16426049D02*
X11356363Y-16416526D01*
X11356363Y-16416526D02*
X11327792Y-16416526D01*
X11327792Y-16416526D02*
X11308744Y-16407002D01*
X11308744Y-16407002D02*
X11299220Y-16387954D01*
X11299220Y-16387954D02*
X11299220Y-16378430D01*
X11299220Y-16378430D02*
X11308744Y-16359383D01*
X11308744Y-16359383D02*
X11327792Y-16349859D01*
X11327792Y-16349859D02*
X11356363Y-16349859D01*
X11356363Y-16349859D02*
X11375411Y-16359383D01*
X11451601Y-16559383D02*
X11461125Y-16549859D01*
X11461125Y-16549859D02*
X11480173Y-16521288D01*
X11480173Y-16521288D02*
X11489696Y-16502240D01*
X11489696Y-16502240D02*
X11499220Y-16473669D01*
X11499220Y-16473669D02*
X11508744Y-16426049D01*
X11508744Y-16426049D02*
X11508744Y-16387954D01*
X11508744Y-16387954D02*
X11499220Y-16340335D01*
X11499220Y-16340335D02*
X11489696Y-16311764D01*
X11489696Y-16311764D02*
X11480173Y-16292716D01*
X11480173Y-16292716D02*
X11461125Y-16264145D01*
X11461125Y-16264145D02*
X11451601Y-16254621D01*
X11813506Y-16559383D02*
X11803982Y-16549859D01*
X11803982Y-16549859D02*
X11784935Y-16521288D01*
X11784935Y-16521288D02*
X11775411Y-16502240D01*
X11775411Y-16502240D02*
X11765887Y-16473669D01*
X11765887Y-16473669D02*
X11756363Y-16426049D01*
X11756363Y-16426049D02*
X11756363Y-16387954D01*
X11756363Y-16387954D02*
X11765887Y-16340335D01*
X11765887Y-16340335D02*
X11775411Y-16311764D01*
X11775411Y-16311764D02*
X11784935Y-16292716D01*
X11784935Y-16292716D02*
X11803982Y-16264145D01*
X11803982Y-16264145D02*
X11813506Y-16254621D01*
X11889696Y-16349859D02*
X11889696Y-16483192D01*
X11889696Y-16368907D02*
X11899220Y-16359383D01*
X11899220Y-16359383D02*
X11918268Y-16349859D01*
X11918268Y-16349859D02*
X11946839Y-16349859D01*
X11946839Y-16349859D02*
X11965887Y-16359383D01*
X11965887Y-16359383D02*
X11975411Y-16378430D01*
X11975411Y-16378430D02*
X11975411Y-16483192D01*
X12099220Y-16483192D02*
X12080173Y-16473669D01*
X12080173Y-16473669D02*
X12070649Y-16464145D01*
X12070649Y-16464145D02*
X12061125Y-16445097D01*
X12061125Y-16445097D02*
X12061125Y-16387954D01*
X12061125Y-16387954D02*
X12070649Y-16368907D01*
X12070649Y-16368907D02*
X12080173Y-16359383D01*
X12080173Y-16359383D02*
X12099220Y-16349859D01*
X12099220Y-16349859D02*
X12127792Y-16349859D01*
X12127792Y-16349859D02*
X12146839Y-16359383D01*
X12146839Y-16359383D02*
X12156363Y-16368907D01*
X12156363Y-16368907D02*
X12165887Y-16387954D01*
X12165887Y-16387954D02*
X12165887Y-16445097D01*
X12165887Y-16445097D02*
X12156363Y-16464145D01*
X12156363Y-16464145D02*
X12146839Y-16473669D01*
X12146839Y-16473669D02*
X12127792Y-16483192D01*
X12127792Y-16483192D02*
X12099220Y-16483192D01*
X12223030Y-16349859D02*
X12299220Y-16349859D01*
X12251601Y-16283192D02*
X12251601Y-16454621D01*
X12251601Y-16454621D02*
X12261125Y-16473669D01*
X12261125Y-16473669D02*
X12280173Y-16483192D01*
X12280173Y-16483192D02*
X12299220Y-16483192D01*
X12518268Y-16349859D02*
X12518268Y-16549859D01*
X12518268Y-16359383D02*
X12537316Y-16349859D01*
X12537316Y-16349859D02*
X12575411Y-16349859D01*
X12575411Y-16349859D02*
X12594458Y-16359383D01*
X12594458Y-16359383D02*
X12603982Y-16368907D01*
X12603982Y-16368907D02*
X12613506Y-16387954D01*
X12613506Y-16387954D02*
X12613506Y-16445097D01*
X12613506Y-16445097D02*
X12603982Y-16464145D01*
X12603982Y-16464145D02*
X12594458Y-16473669D01*
X12594458Y-16473669D02*
X12575411Y-16483192D01*
X12575411Y-16483192D02*
X12537316Y-16483192D01*
X12537316Y-16483192D02*
X12518268Y-16473669D01*
X12727792Y-16483192D02*
X12708744Y-16473669D01*
X12708744Y-16473669D02*
X12699220Y-16454621D01*
X12699220Y-16454621D02*
X12699220Y-16283192D01*
X12889697Y-16483192D02*
X12889697Y-16378430D01*
X12889697Y-16378430D02*
X12880173Y-16359383D01*
X12880173Y-16359383D02*
X12861125Y-16349859D01*
X12861125Y-16349859D02*
X12823030Y-16349859D01*
X12823030Y-16349859D02*
X12803982Y-16359383D01*
X12889697Y-16473669D02*
X12870649Y-16483192D01*
X12870649Y-16483192D02*
X12823030Y-16483192D01*
X12823030Y-16483192D02*
X12803982Y-16473669D01*
X12803982Y-16473669D02*
X12794458Y-16454621D01*
X12794458Y-16454621D02*
X12794458Y-16435573D01*
X12794458Y-16435573D02*
X12803982Y-16416526D01*
X12803982Y-16416526D02*
X12823030Y-16407002D01*
X12823030Y-16407002D02*
X12870649Y-16407002D01*
X12870649Y-16407002D02*
X12889697Y-16397478D01*
X12956363Y-16349859D02*
X13032554Y-16349859D01*
X12984935Y-16283192D02*
X12984935Y-16454621D01*
X12984935Y-16454621D02*
X12994458Y-16473669D01*
X12994458Y-16473669D02*
X13013506Y-16483192D01*
X13013506Y-16483192D02*
X13032554Y-16483192D01*
X13175411Y-16473669D02*
X13156363Y-16483192D01*
X13156363Y-16483192D02*
X13118268Y-16483192D01*
X13118268Y-16483192D02*
X13099220Y-16473669D01*
X13099220Y-16473669D02*
X13089697Y-16454621D01*
X13089697Y-16454621D02*
X13089697Y-16378430D01*
X13089697Y-16378430D02*
X13099220Y-16359383D01*
X13099220Y-16359383D02*
X13118268Y-16349859D01*
X13118268Y-16349859D02*
X13156363Y-16349859D01*
X13156363Y-16349859D02*
X13175411Y-16359383D01*
X13175411Y-16359383D02*
X13184935Y-16378430D01*
X13184935Y-16378430D02*
X13184935Y-16397478D01*
X13184935Y-16397478D02*
X13089697Y-16416526D01*
X13356363Y-16483192D02*
X13356363Y-16283192D01*
X13356363Y-16473669D02*
X13337316Y-16483192D01*
X13337316Y-16483192D02*
X13299220Y-16483192D01*
X13299220Y-16483192D02*
X13280173Y-16473669D01*
X13280173Y-16473669D02*
X13270649Y-16464145D01*
X13270649Y-16464145D02*
X13261125Y-16445097D01*
X13261125Y-16445097D02*
X13261125Y-16387954D01*
X13261125Y-16387954D02*
X13270649Y-16368907D01*
X13270649Y-16368907D02*
X13280173Y-16359383D01*
X13280173Y-16359383D02*
X13299220Y-16349859D01*
X13299220Y-16349859D02*
X13337316Y-16349859D01*
X13337316Y-16349859D02*
X13356363Y-16359383D01*
X13432554Y-16559383D02*
X13442078Y-16549859D01*
X13442078Y-16549859D02*
X13461125Y-16521288D01*
X13461125Y-16521288D02*
X13470649Y-16502240D01*
X13470649Y-16502240D02*
X13480173Y-16473669D01*
X13480173Y-16473669D02*
X13489697Y-16426049D01*
X13489697Y-16426049D02*
X13489697Y-16387954D01*
X13489697Y-16387954D02*
X13480173Y-16340335D01*
X13480173Y-16340335D02*
X13470649Y-16311764D01*
X13470649Y-16311764D02*
X13461125Y-16292716D01*
X13461125Y-16292716D02*
X13442078Y-16264145D01*
X13442078Y-16264145D02*
X13432554Y-16254621D01*
M02*
