%TF.GenerationSoftware,KiCad,Pcbnew,7.0.10*%
%TF.CreationDate,2024-02-05T23:17:37-06:00*%
%TF.ProjectId,B-Sides 2024,422d5369-6465-4732-9032-3032342e6b69,rev?*%
%TF.SameCoordinates,Original*%
%TF.FileFunction,Soldermask,Top*%
%TF.FilePolarity,Negative*%
%FSLAX46Y46*%
G04 Gerber Fmt 4.6, Leading zero omitted, Abs format (unit mm)*
G04 Created by KiCad (PCBNEW 7.0.10) date 2024-02-05 23:17:37*
%MOMM*%
%LPD*%
G01*
G04 APERTURE LIST*
G04 Aperture macros list*
%AMRoundRect*
0 Rectangle with rounded corners*
0 $1 Rounding radius*
0 $2 $3 $4 $5 $6 $7 $8 $9 X,Y pos of 4 corners*
0 Add a 4 corners polygon primitive as box body*
4,1,4,$2,$3,$4,$5,$6,$7,$8,$9,$2,$3,0*
0 Add four circle primitives for the rounded corners*
1,1,$1+$1,$2,$3*
1,1,$1+$1,$4,$5*
1,1,$1+$1,$6,$7*
1,1,$1+$1,$8,$9*
0 Add four rect primitives between the rounded corners*
20,1,$1+$1,$2,$3,$4,$5,0*
20,1,$1+$1,$4,$5,$6,$7,0*
20,1,$1+$1,$6,$7,$8,$9,0*
20,1,$1+$1,$8,$9,$2,$3,0*%
G04 Aperture macros list end*
%ADD10RoundRect,0.150000X-0.512500X-0.150000X0.512500X-0.150000X0.512500X0.150000X-0.512500X0.150000X0*%
%ADD11R,3.400000X4.300000*%
%ADD12RoundRect,0.125000X-0.250000X-0.125000X0.250000X-0.125000X0.250000X0.125000X-0.250000X0.125000X0*%
%ADD13RoundRect,0.237500X-0.250000X-0.237500X0.250000X-0.237500X0.250000X0.237500X-0.250000X0.237500X0*%
%ADD14RoundRect,0.135000X-0.135000X-0.185000X0.135000X-0.185000X0.135000X0.185000X-0.135000X0.185000X0*%
%ADD15RoundRect,0.150000X-0.587500X-0.150000X0.587500X-0.150000X0.587500X0.150000X-0.587500X0.150000X0*%
%ADD16RoundRect,0.225000X-0.225000X-0.375000X0.225000X-0.375000X0.225000X0.375000X-0.225000X0.375000X0*%
%ADD17RoundRect,0.237500X-0.287500X-0.237500X0.287500X-0.237500X0.287500X0.237500X-0.287500X0.237500X0*%
%ADD18RoundRect,0.150000X0.150000X0.200000X-0.150000X0.200000X-0.150000X-0.200000X0.150000X-0.200000X0*%
%ADD19RoundRect,0.140000X-0.140000X-0.170000X0.140000X-0.170000X0.140000X0.170000X-0.140000X0.170000X0*%
%ADD20RoundRect,0.250000X-0.412500X-0.650000X0.412500X-0.650000X0.412500X0.650000X-0.412500X0.650000X0*%
%ADD21RoundRect,0.237500X-0.300000X-0.237500X0.300000X-0.237500X0.300000X0.237500X-0.300000X0.237500X0*%
%ADD22R,1.500000X3.600000*%
%ADD23RoundRect,0.150000X-0.150000X-0.625000X0.150000X-0.625000X0.150000X0.625000X-0.150000X0.625000X0*%
%ADD24RoundRect,0.250000X-0.350000X-0.650000X0.350000X-0.650000X0.350000X0.650000X-0.350000X0.650000X0*%
%ADD25R,1.800000X1.800000*%
%ADD26C,1.800000*%
%ADD27R,1.700000X1.700000*%
%ADD28O,1.700000X1.700000*%
%ADD29RoundRect,0.250000X-0.537500X-1.450000X0.537500X-1.450000X0.537500X1.450000X-0.537500X1.450000X0*%
%ADD30RoundRect,0.250200X-0.649800X-0.649800X0.649800X-0.649800X0.649800X0.649800X-0.649800X0.649800X0*%
%ADD31RoundRect,0.050000X-0.387500X-0.050000X0.387500X-0.050000X0.387500X0.050000X-0.387500X0.050000X0*%
%ADD32RoundRect,0.050000X-0.050000X-0.387500X0.050000X-0.387500X0.050000X0.387500X-0.050000X0.387500X0*%
%ADD33R,3.200000X3.200000*%
%ADD34RoundRect,0.250000X-0.350000X-0.625000X0.350000X-0.625000X0.350000X0.625000X-0.350000X0.625000X0*%
%ADD35O,1.200000X1.750000*%
%ADD36R,1.200000X3.700000*%
%ADD37RoundRect,0.112500X-0.187500X-0.112500X0.187500X-0.112500X0.187500X0.112500X-0.187500X0.112500X0*%
%ADD38RoundRect,0.150000X-0.650000X-0.150000X0.650000X-0.150000X0.650000X0.150000X-0.650000X0.150000X0*%
%ADD39R,1.050000X1.500000*%
%ADD40O,1.050000X1.500000*%
%ADD41RoundRect,0.250000X-0.250000X-0.475000X0.250000X-0.475000X0.250000X0.475000X-0.250000X0.475000X0*%
%ADD42C,0.650000*%
%ADD43R,0.600000X1.150000*%
%ADD44R,0.300000X1.150000*%
%ADD45O,1.000000X2.100000*%
%ADD46O,1.000000X1.800000*%
G04 APERTURE END LIST*
D10*
%TO.C,U10*%
X110820000Y-114742000D03*
X110820000Y-116642000D03*
X108545000Y-116642000D03*
X108545000Y-115692000D03*
X108545000Y-114742000D03*
%TD*%
D11*
%TO.C,U9*%
X103262500Y-116742000D03*
D12*
X105962500Y-114837000D03*
X105962500Y-116107000D03*
X105962500Y-117377000D03*
X105962500Y-118647000D03*
X100562500Y-118647000D03*
X100562500Y-117377000D03*
X100562500Y-116107000D03*
X100562500Y-114837000D03*
%TD*%
D13*
%TO.C,R39*%
X111205000Y-104332000D03*
X109380000Y-104332000D03*
%TD*%
%TO.C,R38*%
X111205000Y-101822000D03*
X109380000Y-101822000D03*
%TD*%
D14*
%TO.C,R37*%
X93402500Y-121242000D03*
X92382500Y-121242000D03*
%TD*%
D13*
%TO.C,R36*%
X111205000Y-99312000D03*
X109380000Y-99312000D03*
%TD*%
%TO.C,R35*%
X111205000Y-96802000D03*
X109380000Y-96802000D03*
%TD*%
%TO.C,R34*%
X106855000Y-104332000D03*
X105030000Y-104332000D03*
%TD*%
%TO.C,R33*%
X106855000Y-101822000D03*
X105030000Y-101822000D03*
%TD*%
%TO.C,R32*%
X106855000Y-99312000D03*
X105030000Y-99312000D03*
%TD*%
%TO.C,R31*%
X106855000Y-96802000D03*
X105030000Y-96802000D03*
%TD*%
D14*
%TO.C,R30*%
X93402500Y-119252000D03*
X92382500Y-119252000D03*
%TD*%
%TO.C,R29*%
X93402500Y-117262000D03*
X92382500Y-117262000D03*
%TD*%
D15*
%TO.C,Q4*%
X110490000Y-120142000D03*
X108615000Y-121092000D03*
X108615000Y-119192000D03*
%TD*%
D16*
%TO.C,D48*%
X86407500Y-121292000D03*
X83107500Y-121292000D03*
%TD*%
D17*
%TO.C,D38*%
X98117500Y-109792000D03*
X96367500Y-109792000D03*
%TD*%
%TO.C,D37*%
X98117500Y-107202000D03*
X96367500Y-107202000D03*
%TD*%
%TO.C,D36*%
X98117500Y-104612000D03*
X96367500Y-104612000D03*
%TD*%
%TO.C,D35*%
X98117500Y-102022000D03*
X96367500Y-102022000D03*
%TD*%
%TO.C,D34*%
X98117500Y-99432000D03*
X96367500Y-99432000D03*
%TD*%
%TO.C,D33*%
X98117500Y-96842000D03*
X96367500Y-96842000D03*
%TD*%
%TO.C,D32*%
X93722500Y-114972000D03*
X91972500Y-114972000D03*
%TD*%
%TO.C,D31*%
X93722500Y-112382000D03*
X91972500Y-112382000D03*
%TD*%
%TO.C,D30*%
X93722500Y-109792000D03*
X91972500Y-109792000D03*
%TD*%
%TO.C,D29*%
X93722500Y-107202000D03*
X91972500Y-107202000D03*
%TD*%
%TO.C,D28*%
X93722500Y-104612000D03*
X91972500Y-104612000D03*
%TD*%
%TO.C,D27*%
X93722500Y-102022000D03*
X91972500Y-102022000D03*
%TD*%
%TO.C,D26*%
X93722500Y-99432000D03*
X91972500Y-99432000D03*
%TD*%
%TO.C,D25*%
X93722500Y-96842000D03*
X91972500Y-96842000D03*
%TD*%
%TO.C,D24*%
X89327500Y-114972000D03*
X87577500Y-114972000D03*
%TD*%
%TO.C,D23*%
X89327500Y-112382000D03*
X87577500Y-112382000D03*
%TD*%
%TO.C,D22*%
X89327500Y-109792000D03*
X87577500Y-109792000D03*
%TD*%
%TO.C,D21*%
X89327500Y-107202000D03*
X87577500Y-107202000D03*
%TD*%
%TO.C,D20*%
X89327500Y-104612000D03*
X87577500Y-104612000D03*
%TD*%
%TO.C,D19*%
X89327500Y-102022000D03*
X87577500Y-102022000D03*
%TD*%
%TO.C,D18*%
X89327500Y-99432000D03*
X87577500Y-99432000D03*
%TD*%
%TO.C,D17*%
X89327500Y-96842000D03*
X87577500Y-96842000D03*
%TD*%
%TO.C,D16*%
X84932500Y-114972000D03*
X83182500Y-114972000D03*
%TD*%
%TO.C,D15*%
X84932500Y-112382000D03*
X83182500Y-112382000D03*
%TD*%
%TO.C,D14*%
X84932500Y-109792000D03*
X83182500Y-109792000D03*
%TD*%
%TO.C,D13*%
X84932500Y-107202000D03*
X83182500Y-107202000D03*
%TD*%
%TO.C,D12*%
X84932500Y-104612000D03*
X83182500Y-104612000D03*
%TD*%
%TO.C,D11*%
X84932500Y-102022000D03*
X83182500Y-102022000D03*
%TD*%
%TO.C,D10*%
X84932500Y-99432000D03*
X83182500Y-99432000D03*
%TD*%
%TO.C,D9*%
X84932500Y-96842000D03*
X83182500Y-96842000D03*
%TD*%
D18*
%TO.C,D6*%
X90367500Y-119942000D03*
X88967500Y-119942000D03*
%TD*%
%TO.C,D1*%
X90367500Y-117492000D03*
X88967500Y-117492000D03*
%TD*%
D19*
%TO.C,C53*%
X109942500Y-112482000D03*
X108982500Y-112482000D03*
%TD*%
%TO.C,C52*%
X109942500Y-110512000D03*
X108982500Y-110512000D03*
%TD*%
%TO.C,C51*%
X109942500Y-108542000D03*
X108982500Y-108542000D03*
%TD*%
%TO.C,C50*%
X109942500Y-106572000D03*
X108982500Y-106572000D03*
%TD*%
%TO.C,C49*%
X107072500Y-112482000D03*
X106112500Y-112482000D03*
%TD*%
%TO.C,C48*%
X107072500Y-110512000D03*
X106112500Y-110512000D03*
%TD*%
%TO.C,C47*%
X107072500Y-108542000D03*
X106112500Y-108542000D03*
%TD*%
%TO.C,C46*%
X107072500Y-106572000D03*
X106112500Y-106572000D03*
%TD*%
%TO.C,C45*%
X104202500Y-112482000D03*
X103242500Y-112482000D03*
%TD*%
%TO.C,C44*%
X104202500Y-110512000D03*
X103242500Y-110512000D03*
%TD*%
%TO.C,C43*%
X104202500Y-108542000D03*
X103242500Y-108542000D03*
%TD*%
%TO.C,C42*%
X104202500Y-106572000D03*
X103242500Y-106572000D03*
%TD*%
%TO.C,C41*%
X101332500Y-112482000D03*
X100372500Y-112482000D03*
%TD*%
%TO.C,C40*%
X101332500Y-110512000D03*
X100372500Y-110512000D03*
%TD*%
D20*
%TO.C,C16*%
X86405000Y-117942000D03*
X83280000Y-117942000D03*
%TD*%
D21*
%TO.C,C15*%
X102455000Y-104332000D03*
X100730000Y-104332000D03*
%TD*%
%TO.C,C14*%
X102455000Y-101822000D03*
X100730000Y-101822000D03*
%TD*%
%TO.C,C13*%
X102455000Y-99312000D03*
X100730000Y-99312000D03*
%TD*%
%TO.C,C12*%
X102455000Y-96802000D03*
X100730000Y-96802000D03*
%TD*%
D19*
%TO.C,C11*%
X101332500Y-108542000D03*
X100372500Y-108542000D03*
%TD*%
%TO.C,C10*%
X101332500Y-106572000D03*
X100372500Y-106572000D03*
%TD*%
D22*
%TO.C,L1*%
X115960000Y-82296000D03*
X119010000Y-82296000D03*
%TD*%
D13*
%TO.C,R4*%
X85192500Y-61816000D03*
X87017500Y-61816000D03*
%TD*%
D23*
%TO.C,J1*%
X125305000Y-71676000D03*
X126305000Y-71676000D03*
X127305000Y-71676000D03*
X128305000Y-71676000D03*
D24*
X124005000Y-75551000D03*
X129605000Y-75551000D03*
%TD*%
D15*
%TO.C,D7*%
X111047500Y-61856000D03*
X111047500Y-63756000D03*
X112922500Y-62806000D03*
%TD*%
D19*
%TO.C,C7*%
X128085000Y-46286000D03*
X129045000Y-46286000D03*
%TD*%
D25*
%TO.C,LD2*%
X106955000Y-56806000D03*
D26*
X109495000Y-56806000D03*
%TD*%
D25*
%TO.C,LD1*%
X99455000Y-56806000D03*
D26*
X101995000Y-56806000D03*
%TD*%
D27*
%TO.C,J3*%
X93455000Y-45656000D03*
D28*
X95995000Y-45656000D03*
X93455000Y-48196000D03*
X95995000Y-48196000D03*
X93455000Y-50736000D03*
X95995000Y-50736000D03*
%TD*%
D10*
%TO.C,U4*%
X105827500Y-61856000D03*
X105827500Y-62806000D03*
X105827500Y-63756000D03*
X108102500Y-63756000D03*
X108102500Y-61856000D03*
%TD*%
D13*
%TO.C,R13*%
X89542500Y-66836000D03*
X91367500Y-66836000D03*
%TD*%
D20*
%TO.C,C8*%
X125162500Y-65606000D03*
X128287500Y-65606000D03*
%TD*%
D13*
%TO.C,R17*%
X93892500Y-59306000D03*
X95717500Y-59306000D03*
%TD*%
D29*
%TO.C,C2*%
X98547500Y-68006000D03*
X102822500Y-68006000D03*
%TD*%
D27*
%TO.C,J4*%
X100655000Y-45656000D03*
D28*
X103195000Y-45656000D03*
X100655000Y-48196000D03*
X103195000Y-48196000D03*
X100655000Y-50736000D03*
X103195000Y-50736000D03*
%TD*%
D15*
%TO.C,U2*%
X111047500Y-75206000D03*
X111047500Y-77106000D03*
X112922500Y-76156000D03*
%TD*%
D14*
%TO.C,R20*%
X123275000Y-58006000D03*
X124295000Y-58006000D03*
%TD*%
D15*
%TO.C,Q3*%
X111047500Y-70756000D03*
X111047500Y-72656000D03*
X112922500Y-71706000D03*
%TD*%
D13*
%TO.C,R8*%
X89542500Y-54286000D03*
X91367500Y-54286000D03*
%TD*%
D10*
%TO.C,U6*%
X105827500Y-70756000D03*
X105827500Y-71706000D03*
X105827500Y-72656000D03*
X108102500Y-72656000D03*
X108102500Y-71706000D03*
X108102500Y-70756000D03*
%TD*%
D30*
%TO.C,U1*%
X124055000Y-79656000D03*
D26*
X126595000Y-79656000D03*
X129135000Y-79656000D03*
%TD*%
D17*
%TO.C,D2*%
X110885000Y-79676000D03*
X112635000Y-79676000D03*
%TD*%
D13*
%TO.C,R27*%
X93892500Y-61816000D03*
X95717500Y-61816000D03*
%TD*%
%TO.C,R9*%
X89542500Y-56796000D03*
X91367500Y-56796000D03*
%TD*%
D31*
%TO.C,U3*%
X115637500Y-62626000D03*
X115637500Y-63026000D03*
X115637500Y-63426000D03*
X115637500Y-63826000D03*
X115637500Y-64226000D03*
X115637500Y-64626000D03*
X115637500Y-65026000D03*
X115637500Y-65426000D03*
X115637500Y-65826000D03*
X115637500Y-66226000D03*
X115637500Y-66626000D03*
X115637500Y-67026000D03*
X115637500Y-67426000D03*
X115637500Y-67826000D03*
D32*
X116475000Y-68663500D03*
X116875000Y-68663500D03*
X117275000Y-68663500D03*
X117675000Y-68663500D03*
X118075000Y-68663500D03*
X118475000Y-68663500D03*
X118875000Y-68663500D03*
X119275000Y-68663500D03*
X119675000Y-68663500D03*
X120075000Y-68663500D03*
X120475000Y-68663500D03*
X120875000Y-68663500D03*
X121275000Y-68663500D03*
X121675000Y-68663500D03*
D31*
X122512500Y-67826000D03*
X122512500Y-67426000D03*
X122512500Y-67026000D03*
X122512500Y-66626000D03*
X122512500Y-66226000D03*
X122512500Y-65826000D03*
X122512500Y-65426000D03*
X122512500Y-65026000D03*
X122512500Y-64626000D03*
X122512500Y-64226000D03*
X122512500Y-63826000D03*
X122512500Y-63426000D03*
X122512500Y-63026000D03*
X122512500Y-62626000D03*
D32*
X121675000Y-61788500D03*
X121275000Y-61788500D03*
X120875000Y-61788500D03*
X120475000Y-61788500D03*
X120075000Y-61788500D03*
X119675000Y-61788500D03*
X119275000Y-61788500D03*
X118875000Y-61788500D03*
X118475000Y-61788500D03*
X118075000Y-61788500D03*
X117675000Y-61788500D03*
X117275000Y-61788500D03*
X116875000Y-61788500D03*
X116475000Y-61788500D03*
D33*
X119075000Y-65226000D03*
%TD*%
D13*
%TO.C,R6*%
X85192500Y-66836000D03*
X87017500Y-66836000D03*
%TD*%
D20*
%TO.C,C5*%
X125162500Y-62256000D03*
X128287500Y-62256000D03*
%TD*%
D13*
%TO.C,R10*%
X89542500Y-59306000D03*
X91367500Y-59306000D03*
%TD*%
D14*
%TO.C,R25*%
X129095000Y-56016000D03*
X130115000Y-56016000D03*
%TD*%
%TO.C,R22*%
X126185000Y-56016000D03*
X127205000Y-56016000D03*
%TD*%
%TO.C,R26*%
X129095000Y-58006000D03*
X130115000Y-58006000D03*
%TD*%
D17*
%TO.C,D4*%
X110885000Y-84856000D03*
X112635000Y-84856000D03*
%TD*%
D15*
%TO.C,Q2*%
X111047500Y-66306000D03*
X111047500Y-68206000D03*
X112922500Y-67256000D03*
%TD*%
D34*
%TO.C,J10*%
X117405000Y-72246000D03*
D35*
X119405000Y-72246000D03*
%TD*%
D13*
%TO.C,R28*%
X93892500Y-64326000D03*
X95717500Y-64326000D03*
%TD*%
D19*
%TO.C,C9*%
X128085000Y-48256000D03*
X129045000Y-48256000D03*
%TD*%
D17*
%TO.C,D3*%
X110885000Y-82266000D03*
X112635000Y-82266000D03*
%TD*%
D13*
%TO.C,R12*%
X89542500Y-64326000D03*
X91367500Y-64326000D03*
%TD*%
D19*
%TO.C,C6*%
X128085000Y-44316000D03*
X129045000Y-44316000D03*
%TD*%
D10*
%TO.C,U5*%
X105827500Y-66306000D03*
X105827500Y-67256000D03*
X105827500Y-68206000D03*
X108102500Y-68206000D03*
X108102500Y-66306000D03*
%TD*%
D18*
%TO.C,D5*%
X128250000Y-50466000D03*
X129650000Y-50466000D03*
%TD*%
D36*
%TO.C,L2*%
X85305000Y-83366000D03*
X88105000Y-83366000D03*
%TD*%
D13*
%TO.C,R5*%
X85192500Y-64326000D03*
X87017500Y-64326000D03*
%TD*%
%TO.C,R1*%
X85192500Y-54286000D03*
X87017500Y-54286000D03*
%TD*%
D37*
%TO.C,D8*%
X98100000Y-82696000D03*
X100200000Y-82696000D03*
%TD*%
D13*
%TO.C,R16*%
X93892500Y-56796000D03*
X95717500Y-56796000D03*
%TD*%
%TO.C,R2*%
X85192500Y-56796000D03*
X87017500Y-56796000D03*
%TD*%
D14*
%TO.C,R18*%
X123275000Y-54026000D03*
X124295000Y-54026000D03*
%TD*%
D38*
%TO.C,U8*%
X113555000Y-54511000D03*
X113555000Y-55781000D03*
X113555000Y-57051000D03*
X113555000Y-58321000D03*
X120755000Y-58321000D03*
X120755000Y-57051000D03*
X120755000Y-55781000D03*
X120755000Y-54511000D03*
%TD*%
D29*
%TO.C,C1*%
X98547500Y-63056000D03*
X102822500Y-63056000D03*
%TD*%
D13*
%TO.C,R11*%
X89542500Y-61816000D03*
X91367500Y-61816000D03*
%TD*%
D27*
%TO.C,J5*%
X107855000Y-45656000D03*
D28*
X110395000Y-45656000D03*
X107855000Y-48196000D03*
X110395000Y-48196000D03*
X107855000Y-50736000D03*
X110395000Y-50736000D03*
%TD*%
D10*
%TO.C,U7*%
X105827500Y-75206000D03*
X105827500Y-76156000D03*
X105827500Y-77106000D03*
X108102500Y-77106000D03*
X108102500Y-75206000D03*
%TD*%
D13*
%TO.C,R3*%
X85192500Y-59306000D03*
X87017500Y-59306000D03*
%TD*%
D14*
%TO.C,R23*%
X126185000Y-58006000D03*
X127205000Y-58006000D03*
%TD*%
D13*
%TO.C,R15*%
X93892500Y-54286000D03*
X95717500Y-54286000D03*
%TD*%
D14*
%TO.C,R19*%
X123275000Y-56016000D03*
X124295000Y-56016000D03*
%TD*%
D39*
%TO.C,Q1*%
X98965000Y-78686000D03*
D40*
X100235000Y-78686000D03*
X101505000Y-78686000D03*
%TD*%
D13*
%TO.C,R7*%
X85192500Y-69346000D03*
X87017500Y-69346000D03*
%TD*%
D29*
%TO.C,C3*%
X98547500Y-72956000D03*
X102822500Y-72956000D03*
%TD*%
D41*
%TO.C,C4*%
X90755000Y-82096000D03*
X92655000Y-82096000D03*
%TD*%
D14*
%TO.C,R21*%
X126185000Y-54026000D03*
X127205000Y-54026000D03*
%TD*%
D42*
%TO.C,J9*%
X86885000Y-73281000D03*
X92665000Y-73281000D03*
D43*
X86575000Y-72206000D03*
X87375000Y-72206000D03*
D44*
X88525000Y-72206000D03*
X89525000Y-72206000D03*
X90025000Y-72206000D03*
X91025000Y-72206000D03*
D43*
X92175000Y-72206000D03*
X92975000Y-72206000D03*
X92975000Y-72206000D03*
X92175000Y-72206000D03*
D44*
X91525000Y-72206000D03*
X90525000Y-72206000D03*
X89025000Y-72206000D03*
X88025000Y-72206000D03*
D43*
X87375000Y-72206000D03*
X86575000Y-72206000D03*
D45*
X85455000Y-72781000D03*
D46*
X85455000Y-76961000D03*
D45*
X94095000Y-72781000D03*
D46*
X94095000Y-76961000D03*
%TD*%
D14*
%TO.C,R24*%
X129095000Y-54026000D03*
X130115000Y-54026000D03*
%TD*%
D13*
%TO.C,R14*%
X89542500Y-69346000D03*
X91367500Y-69346000D03*
%TD*%
M02*
