%TF.GenerationSoftware,KiCad,Pcbnew,7.0.10*%
%TF.CreationDate,2024-02-05T23:17:36-06:00*%
%TF.ProjectId,B-Sides 2024,422d5369-6465-4732-9032-3032342e6b69,rev?*%
%TF.SameCoordinates,Original*%
%TF.FileFunction,Copper,L1,Top*%
%TF.FilePolarity,Positive*%
%FSLAX46Y46*%
G04 Gerber Fmt 4.6, Leading zero omitted, Abs format (unit mm)*
G04 Created by KiCad (PCBNEW 7.0.10) date 2024-02-05 23:17:36*
%MOMM*%
%LPD*%
G01*
G04 APERTURE LIST*
G04 Aperture macros list*
%AMRoundRect*
0 Rectangle with rounded corners*
0 $1 Rounding radius*
0 $2 $3 $4 $5 $6 $7 $8 $9 X,Y pos of 4 corners*
0 Add a 4 corners polygon primitive as box body*
4,1,4,$2,$3,$4,$5,$6,$7,$8,$9,$2,$3,0*
0 Add four circle primitives for the rounded corners*
1,1,$1+$1,$2,$3*
1,1,$1+$1,$4,$5*
1,1,$1+$1,$6,$7*
1,1,$1+$1,$8,$9*
0 Add four rect primitives between the rounded corners*
20,1,$1+$1,$2,$3,$4,$5,0*
20,1,$1+$1,$4,$5,$6,$7,0*
20,1,$1+$1,$6,$7,$8,$9,0*
20,1,$1+$1,$8,$9,$2,$3,0*%
G04 Aperture macros list end*
%TA.AperFunction,SMDPad,CuDef*%
%ADD10RoundRect,0.150000X-0.512500X-0.150000X0.512500X-0.150000X0.512500X0.150000X-0.512500X0.150000X0*%
%TD*%
%TA.AperFunction,SMDPad,CuDef*%
%ADD11R,3.400000X4.300000*%
%TD*%
%TA.AperFunction,SMDPad,CuDef*%
%ADD12RoundRect,0.125000X-0.250000X-0.125000X0.250000X-0.125000X0.250000X0.125000X-0.250000X0.125000X0*%
%TD*%
%TA.AperFunction,SMDPad,CuDef*%
%ADD13RoundRect,0.237500X-0.250000X-0.237500X0.250000X-0.237500X0.250000X0.237500X-0.250000X0.237500X0*%
%TD*%
%TA.AperFunction,SMDPad,CuDef*%
%ADD14RoundRect,0.135000X-0.135000X-0.185000X0.135000X-0.185000X0.135000X0.185000X-0.135000X0.185000X0*%
%TD*%
%TA.AperFunction,SMDPad,CuDef*%
%ADD15RoundRect,0.150000X-0.587500X-0.150000X0.587500X-0.150000X0.587500X0.150000X-0.587500X0.150000X0*%
%TD*%
%TA.AperFunction,SMDPad,CuDef*%
%ADD16RoundRect,0.225000X-0.225000X-0.375000X0.225000X-0.375000X0.225000X0.375000X-0.225000X0.375000X0*%
%TD*%
%TA.AperFunction,SMDPad,CuDef*%
%ADD17RoundRect,0.237500X-0.287500X-0.237500X0.287500X-0.237500X0.287500X0.237500X-0.287500X0.237500X0*%
%TD*%
%TA.AperFunction,SMDPad,CuDef*%
%ADD18RoundRect,0.150000X0.150000X0.200000X-0.150000X0.200000X-0.150000X-0.200000X0.150000X-0.200000X0*%
%TD*%
%TA.AperFunction,SMDPad,CuDef*%
%ADD19RoundRect,0.140000X-0.140000X-0.170000X0.140000X-0.170000X0.140000X0.170000X-0.140000X0.170000X0*%
%TD*%
%TA.AperFunction,SMDPad,CuDef*%
%ADD20RoundRect,0.250000X-0.412500X-0.650000X0.412500X-0.650000X0.412500X0.650000X-0.412500X0.650000X0*%
%TD*%
%TA.AperFunction,SMDPad,CuDef*%
%ADD21RoundRect,0.237500X-0.300000X-0.237500X0.300000X-0.237500X0.300000X0.237500X-0.300000X0.237500X0*%
%TD*%
%TA.AperFunction,SMDPad,CuDef*%
%ADD22R,1.500000X3.600000*%
%TD*%
%TA.AperFunction,SMDPad,CuDef*%
%ADD23RoundRect,0.150000X-0.150000X-0.625000X0.150000X-0.625000X0.150000X0.625000X-0.150000X0.625000X0*%
%TD*%
%TA.AperFunction,SMDPad,CuDef*%
%ADD24RoundRect,0.250000X-0.350000X-0.650000X0.350000X-0.650000X0.350000X0.650000X-0.350000X0.650000X0*%
%TD*%
%TA.AperFunction,ComponentPad*%
%ADD25R,1.800000X1.800000*%
%TD*%
%TA.AperFunction,ComponentPad*%
%ADD26C,1.800000*%
%TD*%
%TA.AperFunction,ComponentPad*%
%ADD27R,1.700000X1.700000*%
%TD*%
%TA.AperFunction,ComponentPad*%
%ADD28O,1.700000X1.700000*%
%TD*%
%TA.AperFunction,SMDPad,CuDef*%
%ADD29RoundRect,0.250000X-0.537500X-1.450000X0.537500X-1.450000X0.537500X1.450000X-0.537500X1.450000X0*%
%TD*%
%TA.AperFunction,ComponentPad*%
%ADD30RoundRect,0.250200X-0.649800X-0.649800X0.649800X-0.649800X0.649800X0.649800X-0.649800X0.649800X0*%
%TD*%
%TA.AperFunction,SMDPad,CuDef*%
%ADD31RoundRect,0.050000X-0.387500X-0.050000X0.387500X-0.050000X0.387500X0.050000X-0.387500X0.050000X0*%
%TD*%
%TA.AperFunction,SMDPad,CuDef*%
%ADD32RoundRect,0.050000X-0.050000X-0.387500X0.050000X-0.387500X0.050000X0.387500X-0.050000X0.387500X0*%
%TD*%
%TA.AperFunction,SMDPad,CuDef*%
%ADD33R,3.200000X3.200000*%
%TD*%
%TA.AperFunction,ComponentPad*%
%ADD34RoundRect,0.250000X-0.350000X-0.625000X0.350000X-0.625000X0.350000X0.625000X-0.350000X0.625000X0*%
%TD*%
%TA.AperFunction,ComponentPad*%
%ADD35O,1.200000X1.750000*%
%TD*%
%TA.AperFunction,SMDPad,CuDef*%
%ADD36R,1.200000X3.700000*%
%TD*%
%TA.AperFunction,SMDPad,CuDef*%
%ADD37RoundRect,0.112500X-0.187500X-0.112500X0.187500X-0.112500X0.187500X0.112500X-0.187500X0.112500X0*%
%TD*%
%TA.AperFunction,SMDPad,CuDef*%
%ADD38RoundRect,0.150000X-0.650000X-0.150000X0.650000X-0.150000X0.650000X0.150000X-0.650000X0.150000X0*%
%TD*%
%TA.AperFunction,ComponentPad*%
%ADD39R,1.050000X1.500000*%
%TD*%
%TA.AperFunction,ComponentPad*%
%ADD40O,1.050000X1.500000*%
%TD*%
%TA.AperFunction,SMDPad,CuDef*%
%ADD41RoundRect,0.250000X-0.250000X-0.475000X0.250000X-0.475000X0.250000X0.475000X-0.250000X0.475000X0*%
%TD*%
%TA.AperFunction,SMDPad,CuDef*%
%ADD42R,0.600000X1.150000*%
%TD*%
%TA.AperFunction,SMDPad,CuDef*%
%ADD43R,0.300000X1.150000*%
%TD*%
%TA.AperFunction,ComponentPad*%
%ADD44O,1.000000X2.100000*%
%TD*%
%TA.AperFunction,ComponentPad*%
%ADD45O,1.000000X1.800000*%
%TD*%
G04 APERTURE END LIST*
D10*
%TO.P,U10,5,VIN*%
%TO.N,unconnected-(U10-VIN-Pad5)*%
X110820000Y-114742000D03*
%TO.P,U10,4,EN*%
%TO.N,unconnected-(U10-EN-Pad4)*%
X110820000Y-116642000D03*
%TO.P,U10,3,~{FLG}*%
%TO.N,unconnected-(U10-~{FLG}-Pad3)*%
X108545000Y-116642000D03*
%TO.P,U10,2,GND*%
%TO.N,unconnected-(U10-GND-Pad2)*%
X108545000Y-115692000D03*
%TO.P,U10,1,VOUT*%
%TO.N,unconnected-(U10-VOUT-Pad1)*%
X108545000Y-114742000D03*
%TD*%
D11*
%TO.P,U9,9,EP*%
%TO.N,unconnected-(U9-EP-Pad9)*%
X103262500Y-116742000D03*
D12*
%TO.P,U9,8,VCC*%
%TO.N,unconnected-(U9-VCC-Pad8)*%
X105962500Y-114837000D03*
%TO.P,U9,7,IO3*%
%TO.N,unconnected-(U9-IO3-Pad7)*%
X105962500Y-116107000D03*
%TO.P,U9,6,CLK*%
%TO.N,unconnected-(U9-CLK-Pad6)*%
X105962500Y-117377000D03*
%TO.P,U9,5,DI(IO0)*%
%TO.N,unconnected-(U9-DI(IO0)-Pad5)*%
X105962500Y-118647000D03*
%TO.P,U9,4,GND*%
%TO.N,unconnected-(U9-GND-Pad4)*%
X100562500Y-118647000D03*
%TO.P,U9,3,IO2*%
%TO.N,unconnected-(U9-IO2-Pad3)*%
X100562500Y-117377000D03*
%TO.P,U9,2,DO(IO1)*%
%TO.N,unconnected-(U9-DO(IO1)-Pad2)*%
X100562500Y-116107000D03*
%TO.P,U9,1,~{CS}*%
%TO.N,unconnected-(U9-~{CS}-Pad1)*%
X100562500Y-114837000D03*
%TD*%
D13*
%TO.P,R39,2*%
%TO.N,GND*%
X111205000Y-104332000D03*
%TO.P,R39,1*%
%TO.N,/V_USB*%
X109380000Y-104332000D03*
%TD*%
%TO.P,R38,2*%
%TO.N,/DIO_LV*%
X111205000Y-101822000D03*
%TO.P,R38,1*%
%TO.N,+3V3*%
X109380000Y-101822000D03*
%TD*%
D14*
%TO.P,R37,2*%
%TO.N,/LED_VIN*%
X93402500Y-121242000D03*
%TO.P,R37,1*%
%TO.N,/DIO*%
X92382500Y-121242000D03*
%TD*%
D13*
%TO.P,R36,2*%
%TO.N,Net-(C42-Pad2)*%
X111205000Y-99312000D03*
%TO.P,R36,1*%
%TO.N,/XOUT*%
X109380000Y-99312000D03*
%TD*%
%TO.P,R35,2*%
%TO.N,/Charlie_Plex_6*%
X111205000Y-96802000D03*
%TO.P,R35,1*%
%TO.N,Net-(D13-A)*%
X109380000Y-96802000D03*
%TD*%
%TO.P,R34,2*%
%TO.N,/Charlie_Plex_5*%
X106855000Y-104332000D03*
%TO.P,R34,1*%
%TO.N,Net-(D12-A)*%
X105030000Y-104332000D03*
%TD*%
%TO.P,R33,2*%
%TO.N,/Charlie_Plex_4*%
X106855000Y-101822000D03*
%TO.P,R33,1*%
%TO.N,Net-(D11-A)*%
X105030000Y-101822000D03*
%TD*%
%TO.P,R32,2*%
%TO.N,/Charlie_Plex_3*%
X106855000Y-99312000D03*
%TO.P,R32,1*%
%TO.N,Net-(D10-A)*%
X105030000Y-99312000D03*
%TD*%
%TO.P,R31,2*%
%TO.N,/Charlie_Plex_2*%
X106855000Y-96802000D03*
%TO.P,R31,1*%
%TO.N,Net-(D10-K)*%
X105030000Y-96802000D03*
%TD*%
D14*
%TO.P,R30,2*%
%TO.N,/GPIO19*%
X93402500Y-119252000D03*
%TO.P,R30,1*%
%TO.N,+3V3*%
X92382500Y-119252000D03*
%TD*%
%TO.P,R29,2*%
%TO.N,/GPIO18*%
X93402500Y-117262000D03*
%TO.P,R29,1*%
%TO.N,+3V3*%
X92382500Y-117262000D03*
%TD*%
D15*
%TO.P,Q4,3,D*%
%TO.N,/Battery_VIN*%
X110490000Y-120142000D03*
%TO.P,Q4,2,S*%
%TO.N,Net-(D48-K)*%
X108615000Y-121092000D03*
%TO.P,Q4,1,G*%
%TO.N,/V_USB*%
X108615000Y-119192000D03*
%TD*%
D16*
%TO.P,D48,2,A*%
%TO.N,/V_USB*%
X86407500Y-121292000D03*
%TO.P,D48,1,K*%
%TO.N,Net-(D48-K)*%
X83107500Y-121292000D03*
%TD*%
D17*
%TO.P,D38,2,A*%
%TO.N,Net-(D14-K)*%
X98117500Y-109792000D03*
%TO.P,D38,1,K*%
%TO.N,Net-(D10-K)*%
X96367500Y-109792000D03*
%TD*%
%TO.P,D37,2,A*%
%TO.N,Net-(D14-K)*%
X98117500Y-107202000D03*
%TO.P,D37,1,K*%
%TO.N,Net-(D11-A)*%
X96367500Y-107202000D03*
%TD*%
%TO.P,D36,2,A*%
%TO.N,Net-(D10-A)*%
X98117500Y-104612000D03*
%TO.P,D36,1,K*%
%TO.N,Net-(D11-A)*%
X96367500Y-104612000D03*
%TD*%
%TO.P,D35,2,A*%
%TO.N,Net-(D10-A)*%
X98117500Y-102022000D03*
%TO.P,D35,1,K*%
%TO.N,Net-(D13-A)*%
X96367500Y-102022000D03*
%TD*%
%TO.P,D34,2,A*%
%TO.N,Net-(D12-A)*%
X98117500Y-99432000D03*
%TO.P,D34,1,K*%
%TO.N,Net-(D13-A)*%
X96367500Y-99432000D03*
%TD*%
%TO.P,D33,2,A*%
%TO.N,Net-(D10-K)*%
X98117500Y-96842000D03*
%TO.P,D33,1,K*%
%TO.N,Net-(D11-A)*%
X96367500Y-96842000D03*
%TD*%
%TO.P,D32,2,A*%
%TO.N,Net-(D11-A)*%
X93722500Y-114972000D03*
%TO.P,D32,1,K*%
%TO.N,Net-(D14-K)*%
X91972500Y-114972000D03*
%TD*%
%TO.P,D31,2,A*%
%TO.N,Net-(D14-K)*%
X93722500Y-112382000D03*
%TO.P,D31,1,K*%
%TO.N,Net-(D13-A)*%
X91972500Y-112382000D03*
%TD*%
%TO.P,D30,2,A*%
%TO.N,Net-(D13-A)*%
X93722500Y-109792000D03*
%TO.P,D30,1,K*%
%TO.N,Net-(D10-A)*%
X91972500Y-109792000D03*
%TD*%
%TO.P,D29,2,A*%
%TO.N,Net-(D10-A)*%
X93722500Y-107202000D03*
%TO.P,D29,1,K*%
%TO.N,Net-(D12-A)*%
X91972500Y-107202000D03*
%TD*%
%TO.P,D28,2,A*%
%TO.N,Net-(D10-K)*%
X93722500Y-104612000D03*
%TO.P,D28,1,K*%
%TO.N,Net-(D13-A)*%
X91972500Y-104612000D03*
%TD*%
%TO.P,D27,2,A*%
%TO.N,Net-(D13-A)*%
X93722500Y-102022000D03*
%TO.P,D27,1,K*%
%TO.N,Net-(D14-K)*%
X91972500Y-102022000D03*
%TD*%
%TO.P,D26,2,A*%
%TO.N,Net-(D14-K)*%
X93722500Y-99432000D03*
%TO.P,D26,1,K*%
%TO.N,Net-(D12-A)*%
X91972500Y-99432000D03*
%TD*%
%TO.P,D25,2,A*%
%TO.N,Net-(D12-A)*%
X93722500Y-96842000D03*
%TO.P,D25,1,K*%
%TO.N,Net-(D10-A)*%
X91972500Y-96842000D03*
%TD*%
%TO.P,D24,2,A*%
%TO.N,Net-(D11-A)*%
X89327500Y-114972000D03*
%TO.P,D24,1,K*%
%TO.N,Net-(D10-K)*%
X87577500Y-114972000D03*
%TD*%
%TO.P,D23,2,A*%
%TO.N,Net-(D11-A)*%
X89327500Y-112382000D03*
%TO.P,D23,1,K*%
%TO.N,Net-(D13-A)*%
X87577500Y-112382000D03*
%TD*%
%TO.P,D22,2,A*%
%TO.N,Net-(D13-A)*%
X89327500Y-109792000D03*
%TO.P,D22,1,K*%
%TO.N,Net-(D10-K)*%
X87577500Y-109792000D03*
%TD*%
%TO.P,D21,2,A*%
%TO.N,Net-(D10-K)*%
X89327500Y-107202000D03*
%TO.P,D21,1,K*%
%TO.N,Net-(D12-A)*%
X87577500Y-107202000D03*
%TD*%
%TO.P,D20,2,A*%
%TO.N,Net-(D12-A)*%
X89327500Y-104612000D03*
%TO.P,D20,1,K*%
%TO.N,Net-(D14-K)*%
X87577500Y-104612000D03*
%TD*%
%TO.P,D19,2,A*%
%TO.N,Net-(D14-K)*%
X89327500Y-102022000D03*
%TO.P,D19,1,K*%
%TO.N,Net-(D10-A)*%
X87577500Y-102022000D03*
%TD*%
%TO.P,D18,2,A*%
%TO.N,Net-(D13-A)*%
X89327500Y-99432000D03*
%TO.P,D18,1,K*%
%TO.N,Net-(D11-A)*%
X87577500Y-99432000D03*
%TD*%
%TO.P,D17,2,A*%
%TO.N,Net-(D11-A)*%
X89327500Y-96842000D03*
%TO.P,D17,1,K*%
%TO.N,Net-(D12-A)*%
X87577500Y-96842000D03*
%TD*%
%TO.P,D16,2,A*%
%TO.N,Net-(D12-A)*%
X84932500Y-114972000D03*
%TO.P,D16,1,K*%
%TO.N,Net-(D10-K)*%
X83182500Y-114972000D03*
%TD*%
%TO.P,D15,2,A*%
%TO.N,Net-(D10-K)*%
X84932500Y-112382000D03*
%TO.P,D15,1,K*%
%TO.N,Net-(D10-A)*%
X83182500Y-112382000D03*
%TD*%
%TO.P,D14,2,A*%
%TO.N,Net-(D10-A)*%
X84932500Y-109792000D03*
%TO.P,D14,1,K*%
%TO.N,Net-(D14-K)*%
X83182500Y-109792000D03*
%TD*%
%TO.P,D13,2,A*%
%TO.N,Net-(D13-A)*%
X84932500Y-107202000D03*
%TO.P,D13,1,K*%
%TO.N,Net-(D12-A)*%
X83182500Y-107202000D03*
%TD*%
%TO.P,D12,2,A*%
%TO.N,Net-(D12-A)*%
X84932500Y-104612000D03*
%TO.P,D12,1,K*%
%TO.N,Net-(D11-A)*%
X83182500Y-104612000D03*
%TD*%
%TO.P,D11,2,A*%
%TO.N,Net-(D11-A)*%
X84932500Y-102022000D03*
%TO.P,D11,1,K*%
%TO.N,Net-(D10-A)*%
X83182500Y-102022000D03*
%TD*%
%TO.P,D10,2,A*%
%TO.N,Net-(D10-A)*%
X84932500Y-99432000D03*
%TO.P,D10,1,K*%
%TO.N,Net-(D10-K)*%
X83182500Y-99432000D03*
%TD*%
%TO.P,D9,2,A*%
%TO.N,Net-(D10-K)*%
X84932500Y-96842000D03*
%TO.P,D9,1,K*%
%TO.N,Net-(D14-K)*%
X83182500Y-96842000D03*
%TD*%
D18*
%TO.P,D6,2,A*%
%TO.N,unconnected-(D6-A-Pad2)*%
X90367500Y-119942000D03*
%TO.P,D6,1,K*%
%TO.N,Net-(D6-K)*%
X88967500Y-119942000D03*
%TD*%
%TO.P,D1,2,A*%
%TO.N,Net-(D1-A)*%
X90367500Y-117492000D03*
%TO.P,D1,1,K*%
%TO.N,/usb_boot*%
X88967500Y-117492000D03*
%TD*%
D19*
%TO.P,C53,2*%
%TO.N,GND*%
X109942500Y-112482000D03*
%TO.P,C53,1*%
%TO.N,Net-(C44-Pad1)*%
X108982500Y-112482000D03*
%TD*%
%TO.P,C52,2*%
%TO.N,GND*%
X109942500Y-110512000D03*
%TO.P,C52,1*%
%TO.N,Net-(C44-Pad1)*%
X108982500Y-110512000D03*
%TD*%
%TO.P,C51,2*%
%TO.N,GND*%
X109942500Y-108542000D03*
%TO.P,C51,1*%
%TO.N,Net-(C44-Pad1)*%
X108982500Y-108542000D03*
%TD*%
%TO.P,C50,2*%
%TO.N,GND*%
X109942500Y-106572000D03*
%TO.P,C50,1*%
%TO.N,Net-(C44-Pad1)*%
X108982500Y-106572000D03*
%TD*%
%TO.P,C49,2*%
%TO.N,GND*%
X107072500Y-112482000D03*
%TO.P,C49,1*%
%TO.N,Net-(C44-Pad1)*%
X106112500Y-112482000D03*
%TD*%
%TO.P,C48,2*%
%TO.N,GND*%
X107072500Y-110512000D03*
%TO.P,C48,1*%
%TO.N,Net-(C44-Pad1)*%
X106112500Y-110512000D03*
%TD*%
%TO.P,C47,2*%
%TO.N,GND*%
X107072500Y-108542000D03*
%TO.P,C47,1*%
%TO.N,Net-(C44-Pad1)*%
X106112500Y-108542000D03*
%TD*%
%TO.P,C46,2*%
%TO.N,GND*%
X107072500Y-106572000D03*
%TO.P,C46,1*%
%TO.N,Net-(C44-Pad1)*%
X106112500Y-106572000D03*
%TD*%
%TO.P,C45,2*%
%TO.N,GND*%
X104202500Y-112482000D03*
%TO.P,C45,1*%
%TO.N,Net-(C44-Pad1)*%
X103242500Y-112482000D03*
%TD*%
%TO.P,C44,2*%
%TO.N,GND*%
X104202500Y-110512000D03*
%TO.P,C44,1*%
%TO.N,Net-(C44-Pad1)*%
X103242500Y-110512000D03*
%TD*%
%TO.P,C43,2*%
%TO.N,GND*%
X104202500Y-108542000D03*
%TO.P,C43,1*%
%TO.N,/XIN*%
X103242500Y-108542000D03*
%TD*%
%TO.P,C42,2*%
%TO.N,Net-(C42-Pad2)*%
X104202500Y-106572000D03*
%TO.P,C42,1*%
%TO.N,GND*%
X103242500Y-106572000D03*
%TD*%
%TO.P,C41,2*%
%TO.N,GND*%
X101332500Y-112482000D03*
%TO.P,C41,1*%
%TO.N,+1V2*%
X100372500Y-112482000D03*
%TD*%
%TO.P,C40,2*%
%TO.N,GND*%
X101332500Y-110512000D03*
%TO.P,C40,1*%
%TO.N,+1V2*%
X100372500Y-110512000D03*
%TD*%
D20*
%TO.P,C16,2*%
%TO.N,GND*%
X86405000Y-117942000D03*
%TO.P,C16,1*%
%TO.N,Net-(D48-K)*%
X83280000Y-117942000D03*
%TD*%
D21*
%TO.P,C15,2*%
%TO.N,GND*%
X102455000Y-104332000D03*
%TO.P,C15,1*%
%TO.N,/Battery_VIN*%
X100730000Y-104332000D03*
%TD*%
%TO.P,C14,2*%
%TO.N,GND*%
X102455000Y-101822000D03*
%TO.P,C14,1*%
%TO.N,/Battery_VIN*%
X100730000Y-101822000D03*
%TD*%
%TO.P,C13,2*%
%TO.N,GND*%
X102455000Y-99312000D03*
%TO.P,C13,1*%
%TO.N,/Battery_VIN*%
X100730000Y-99312000D03*
%TD*%
%TO.P,C12,2*%
%TO.N,GND*%
X102455000Y-96802000D03*
%TO.P,C12,1*%
%TO.N,/Battery_VIN*%
X100730000Y-96802000D03*
%TD*%
D19*
%TO.P,C11,2*%
%TO.N,GND*%
X101332500Y-108542000D03*
%TO.P,C11,1*%
%TO.N,+1V2*%
X100372500Y-108542000D03*
%TD*%
%TO.P,C10,2*%
%TO.N,GND*%
X101332500Y-106572000D03*
%TO.P,C10,1*%
%TO.N,+3V3*%
X100372500Y-106572000D03*
%TD*%
D22*
%TO.P,L1,1,1*%
%TO.N,/Battery_VIN*%
X115960000Y-82296000D03*
%TO.P,L1,2,2*%
%TO.N,Net-(U4-SW)*%
X119010000Y-82296000D03*
%TD*%
D13*
%TO.P,R4,1*%
%TO.N,Net-(D4-K)*%
X85192500Y-61816000D03*
%TO.P,R4,2*%
%TO.N,GND*%
X87017500Y-61816000D03*
%TD*%
D23*
%TO.P,J1,1,Pin_1*%
%TO.N,GND*%
X125305000Y-71676000D03*
%TO.P,J1,2,Pin_2*%
%TO.N,+3V3*%
X126305000Y-71676000D03*
%TO.P,J1,3,Pin_3*%
%TO.N,/GPIO2*%
X127305000Y-71676000D03*
%TO.P,J1,4,Pin_4*%
%TO.N,/GPIO3*%
X128305000Y-71676000D03*
D24*
%TO.P,J1,MP,Pin_5*%
%TO.N,GND*%
X124005000Y-75551000D03*
X129605000Y-75551000D03*
%TD*%
D15*
%TO.P,D7,1,K*%
%TO.N,unconnected-(D7-K-Pad1)*%
X111047500Y-61856000D03*
%TO.P,D7,2,A*%
%TO.N,/UPDI_protected*%
X111047500Y-63756000D03*
%TO.P,D7,3*%
%TO.N,N/C*%
X112922500Y-62806000D03*
%TD*%
D19*
%TO.P,C7,1*%
%TO.N,+3V3*%
X128085000Y-46286000D03*
%TO.P,C7,2*%
%TO.N,GND*%
X129045000Y-46286000D03*
%TD*%
D25*
%TO.P,LD2,1,C*%
%TO.N,GND*%
X106955000Y-56806000D03*
D26*
%TO.P,LD2,2,A*%
%TO.N,Net-(LD2-A)*%
X109495000Y-56806000D03*
%TD*%
D25*
%TO.P,LD1,1,C*%
%TO.N,GND*%
X99455000Y-56806000D03*
D26*
%TO.P,LD1,2,A*%
%TO.N,Net-(LD1-A)*%
X101995000Y-56806000D03*
%TD*%
D27*
%TO.P,J3,1,Pin_1*%
%TO.N,/Battery_VIN*%
X93455000Y-45656000D03*
D28*
%TO.P,J3,2,Pin_2*%
%TO.N,GND*%
X95995000Y-45656000D03*
%TO.P,J3,3,Pin_3*%
%TO.N,/GPIO19*%
X93455000Y-48196000D03*
%TO.P,J3,4,Pin_4*%
%TO.N,/GPIO18*%
X95995000Y-48196000D03*
%TO.P,J3,5,Pin_5*%
%TO.N,/CS{slash}MISO_0*%
X93455000Y-50736000D03*
%TO.P,J3,6,Pin_6*%
%TO.N,/D10*%
X95995000Y-50736000D03*
%TD*%
D10*
%TO.P,U4,1,SW*%
%TO.N,Net-(U4-SW)*%
X105827500Y-61856000D03*
%TO.P,U4,2,GND*%
%TO.N,GND*%
X105827500Y-62806000D03*
%TO.P,U4,3,NC*%
%TO.N,unconnected-(U4-NC-Pad3)*%
X105827500Y-63756000D03*
%TO.P,U4,4,VOUT*%
%TO.N,+3V3*%
X108102500Y-63756000D03*
%TO.P,U4,5,NC*%
%TO.N,unconnected-(U4-NC-Pad5)*%
X108102500Y-61856000D03*
%TD*%
D13*
%TO.P,R13,1*%
%TO.N,/D10*%
X89542500Y-66836000D03*
%TO.P,R13,2*%
%TO.N,/CS{slash}MISO_0*%
X91367500Y-66836000D03*
%TD*%
D20*
%TO.P,C8,1*%
%TO.N,+3V3*%
X125162500Y-65606000D03*
%TO.P,C8,2*%
%TO.N,GND*%
X128287500Y-65606000D03*
%TD*%
D13*
%TO.P,R17,1*%
%TO.N,Net-(D6-K)*%
X93892500Y-59306000D03*
%TO.P,R17,2*%
%TO.N,unconnected-(R17-Pad2)*%
X95717500Y-59306000D03*
%TD*%
D29*
%TO.P,C2,1*%
%TO.N,/Battery_VIN*%
X98547500Y-68006000D03*
%TO.P,C2,2*%
%TO.N,GND*%
X102822500Y-68006000D03*
%TD*%
D27*
%TO.P,J4,1,Pin_1*%
%TO.N,/Battery_VIN*%
X100655000Y-45656000D03*
D28*
%TO.P,J4,2,Pin_2*%
%TO.N,GND*%
X103195000Y-45656000D03*
%TO.P,J4,3,Pin_3*%
%TO.N,/GPIO19*%
X100655000Y-48196000D03*
%TO.P,J4,4,Pin_4*%
%TO.N,/GPIO18*%
X103195000Y-48196000D03*
%TO.P,J4,5,Pin_5*%
%TO.N,/CS{slash}MISO_1*%
X100655000Y-50736000D03*
%TO.P,J4,6,Pin_6*%
%TO.N,/D12*%
X103195000Y-50736000D03*
%TD*%
D15*
%TO.P,U2,1,K*%
%TO.N,/LED_VIN*%
X111047500Y-75206000D03*
%TO.P,U2,2,A*%
%TO.N,Net-(Q3-B)*%
X111047500Y-77106000D03*
%TO.P,U2,3*%
%TO.N,N/C*%
X112922500Y-76156000D03*
%TD*%
D14*
%TO.P,R20,1*%
%TO.N,Net-(U5-FB)*%
X123275000Y-58006000D03*
%TO.P,R20,2*%
%TO.N,+3V3*%
X124295000Y-58006000D03*
%TD*%
D15*
%TO.P,Q3,1,B*%
%TO.N,Net-(Q3-B)*%
X111047500Y-70756000D03*
%TO.P,Q3,2,E*%
%TO.N,Net-(Q3-E)*%
X111047500Y-72656000D03*
%TO.P,Q3,3,C*%
%TO.N,Net-(Q3-C)*%
X112922500Y-71706000D03*
%TD*%
D13*
%TO.P,R8,1*%
%TO.N,/LED_VIN*%
X89542500Y-54286000D03*
%TO.P,R8,2*%
%TO.N,Net-(Q1-C)*%
X91367500Y-54286000D03*
%TD*%
D10*
%TO.P,U6,1*%
%TO.N,/D+*%
X105827500Y-70756000D03*
%TO.P,U6,2,GND*%
%TO.N,GND*%
X105827500Y-71706000D03*
%TO.P,U6,3*%
%TO.N,/D-*%
X105827500Y-72656000D03*
%TO.P,U6,4,B*%
X108102500Y-72656000D03*
%TO.P,U6,5,GND*%
%TO.N,GND*%
X108102500Y-71706000D03*
%TO.P,U6,6,A*%
%TO.N,/D+*%
X108102500Y-70756000D03*
%TD*%
D30*
%TO.P,U1,1,OUT*%
%TO.N,/GPIO23*%
X124055000Y-79656000D03*
D26*
%TO.P,U1,2,GND*%
%TO.N,GND*%
X126595000Y-79656000D03*
%TO.P,U1,3,Vs*%
%TO.N,Net-(U1-Vs)*%
X129135000Y-79656000D03*
%TD*%
D17*
%TO.P,D2,1,K*%
%TO.N,Net-(D2-K)*%
X110885000Y-79676000D03*
%TO.P,D2,2,A*%
%TO.N,/D13*%
X112635000Y-79676000D03*
%TD*%
D13*
%TO.P,R27,1*%
%TO.N,+3V3*%
X93892500Y-61816000D03*
%TO.P,R27,2*%
%TO.N,/RESET*%
X95717500Y-61816000D03*
%TD*%
%TO.P,R9,1*%
%TO.N,Net-(Q1-C)*%
X89542500Y-56796000D03*
%TO.P,R9,2*%
%TO.N,Net-(Q3-B)*%
X91367500Y-56796000D03*
%TD*%
D31*
%TO.P,U3,1,IOVDD*%
%TO.N,+3V3*%
X115637500Y-62626000D03*
%TO.P,U3,2,GPIO0*%
%TO.N,/GPIO0*%
X115637500Y-63026000D03*
%TO.P,U3,3,GPIO1*%
%TO.N,/GPIO1*%
X115637500Y-63426000D03*
%TO.P,U3,4,GPIO2*%
%TO.N,/GPIO2*%
X115637500Y-63826000D03*
%TO.P,U3,5,GPIO3*%
%TO.N,/GPIO3*%
X115637500Y-64226000D03*
%TO.P,U3,6,GPIO4*%
%TO.N,/GPIO4*%
X115637500Y-64626000D03*
%TO.P,U3,7,GPIO5*%
%TO.N,/Charlie_Plex_1*%
X115637500Y-65026000D03*
%TO.P,U3,8,GPIO6*%
%TO.N,/CS{slash}MISO_0*%
X115637500Y-65426000D03*
%TO.P,U3,9,GPIO7*%
%TO.N,/CS{slash}MISO_1*%
X115637500Y-65826000D03*
%TO.P,U3,10,IOVDD*%
%TO.N,+3V3*%
X115637500Y-66226000D03*
%TO.P,U3,11,GPIO8*%
%TO.N,/CS{slash}MISO_2*%
X115637500Y-66626000D03*
%TO.P,U3,12,GPIO9*%
%TO.N,/D9*%
X115637500Y-67026000D03*
%TO.P,U3,13,GPIO10*%
%TO.N,/D10*%
X115637500Y-67426000D03*
%TO.P,U3,14,GPIO11*%
%TO.N,/D11*%
X115637500Y-67826000D03*
D32*
%TO.P,U3,15,GPIO12*%
%TO.N,/D12*%
X116475000Y-68663500D03*
%TO.P,U3,16,GPIO13*%
%TO.N,/D13*%
X116875000Y-68663500D03*
%TO.P,U3,17,GPIO14*%
%TO.N,/Charlie_Plex_2*%
X117275000Y-68663500D03*
%TO.P,U3,18,GPIO15*%
%TO.N,/Charlie_Plex_3*%
X117675000Y-68663500D03*
%TO.P,U3,19,TESTEN*%
%TO.N,GND*%
X118075000Y-68663500D03*
%TO.P,U3,20,XIN*%
%TO.N,/XIN*%
X118475000Y-68663500D03*
%TO.P,U3,21,XOUT*%
%TO.N,/XOUT*%
X118875000Y-68663500D03*
%TO.P,U3,22,IOVDD*%
%TO.N,+3V3*%
X119275000Y-68663500D03*
%TO.P,U3,23,DVDD*%
%TO.N,+1V2*%
X119675000Y-68663500D03*
%TO.P,U3,24,SWCLK*%
%TO.N,/SWCLK*%
X120075000Y-68663500D03*
%TO.P,U3,25,SWD*%
%TO.N,/SWD*%
X120475000Y-68663500D03*
%TO.P,U3,26,RUN*%
%TO.N,/RESET*%
X120875000Y-68663500D03*
%TO.P,U3,27,GPIO16*%
%TO.N,/DIO_LV*%
X121275000Y-68663500D03*
%TO.P,U3,28,GPIO17*%
%TO.N,/Charlie_Plex_4*%
X121675000Y-68663500D03*
D31*
%TO.P,U3,29,GPIO18*%
%TO.N,/GPIO18*%
X122512500Y-67826000D03*
%TO.P,U3,30,GPIO19*%
%TO.N,/GPIO19*%
X122512500Y-67426000D03*
%TO.P,U3,31,GPIO20*%
%TO.N,/GPIO20*%
X122512500Y-67026000D03*
%TO.P,U3,32,GPIO21*%
%TO.N,/Charlie_Plex_5*%
X122512500Y-66626000D03*
%TO.P,U3,33,IOVDD*%
%TO.N,+3V3*%
X122512500Y-66226000D03*
%TO.P,U3,34,GPIO22*%
%TO.N,/Charlie_Plex_6*%
X122512500Y-65826000D03*
%TO.P,U3,35,GPIO23*%
%TO.N,/GPIO23*%
X122512500Y-65426000D03*
%TO.P,U3,36,GPIO24*%
%TO.N,/D24*%
X122512500Y-65026000D03*
%TO.P,U3,37,GPIO25*%
%TO.N,/D25*%
X122512500Y-64626000D03*
%TO.P,U3,38,GPIO26_ADC0*%
%TO.N,/A0*%
X122512500Y-64226000D03*
%TO.P,U3,39,GPIO27_ADC1*%
%TO.N,/A1*%
X122512500Y-63826000D03*
%TO.P,U3,40,GPIO28_ADC2*%
%TO.N,/A2*%
X122512500Y-63426000D03*
%TO.P,U3,41,GPIO29_ADC3*%
%TO.N,/A3*%
X122512500Y-63026000D03*
%TO.P,U3,42,IOVDD*%
%TO.N,+3V3*%
X122512500Y-62626000D03*
D32*
%TO.P,U3,43,ADC_AVDD*%
X121675000Y-61788500D03*
%TO.P,U3,44,VREG_IN*%
X121275000Y-61788500D03*
%TO.P,U3,45,VREG_VOUT*%
%TO.N,+1V2*%
X120875000Y-61788500D03*
%TO.P,U3,46,USB_DM*%
%TO.N,/USB_D-*%
X120475000Y-61788500D03*
%TO.P,U3,47,USB_DP*%
%TO.N,/USB_D+*%
X120075000Y-61788500D03*
%TO.P,U3,48,USB_VDD*%
%TO.N,+3V3*%
X119675000Y-61788500D03*
%TO.P,U3,49,IOVDD*%
X119275000Y-61788500D03*
%TO.P,U3,50,DVDD*%
%TO.N,+1V2*%
X118875000Y-61788500D03*
%TO.P,U3,51,QSPI_SD3*%
%TO.N,/SD3*%
X118475000Y-61788500D03*
%TO.P,U3,52,QSPI_SCLK*%
%TO.N,/spi_clk*%
X118075000Y-61788500D03*
%TO.P,U3,53,QSPI_SD0*%
%TO.N,/SD0*%
X117675000Y-61788500D03*
%TO.P,U3,54,QSPI_SD2*%
%TO.N,/SD2*%
X117275000Y-61788500D03*
%TO.P,U3,55,QSPI_SD1*%
%TO.N,/SD1*%
X116875000Y-61788500D03*
%TO.P,U3,56,QSPI_SS*%
%TO.N,/SPI_CS*%
X116475000Y-61788500D03*
D33*
%TO.P,U3,57,GND*%
%TO.N,GND*%
X119075000Y-65226000D03*
%TD*%
D13*
%TO.P,R6,1*%
%TO.N,Net-(U1-Vs)*%
X85192500Y-66836000D03*
%TO.P,R6,2*%
%TO.N,+3V3*%
X87017500Y-66836000D03*
%TD*%
D20*
%TO.P,C5,1*%
%TO.N,+3V3*%
X125162500Y-62256000D03*
%TO.P,C5,2*%
%TO.N,GND*%
X128287500Y-62256000D03*
%TD*%
D13*
%TO.P,R10,1*%
%TO.N,/LED_VIN*%
X89542500Y-59306000D03*
%TO.P,R10,2*%
%TO.N,Net-(Q3-E)*%
X91367500Y-59306000D03*
%TD*%
D14*
%TO.P,R25,1*%
%TO.N,/D-*%
X129095000Y-56016000D03*
%TO.P,R25,2*%
%TO.N,/USB_D-*%
X130115000Y-56016000D03*
%TD*%
%TO.P,R22,1*%
%TO.N,/D+*%
X126185000Y-56016000D03*
%TO.P,R22,2*%
%TO.N,GND*%
X127205000Y-56016000D03*
%TD*%
%TO.P,R26,1*%
%TO.N,GND*%
X129095000Y-58006000D03*
%TO.P,R26,2*%
%TO.N,Net-(U7-PROG)*%
X130115000Y-58006000D03*
%TD*%
D17*
%TO.P,D4,1,K*%
%TO.N,Net-(D4-K)*%
X110885000Y-84856000D03*
%TO.P,D4,2,A*%
%TO.N,/D11*%
X112635000Y-84856000D03*
%TD*%
D15*
%TO.P,Q2,1,G*%
%TO.N,+3V3*%
X111047500Y-66306000D03*
%TO.P,Q2,2,S*%
%TO.N,/DIO_LV*%
X111047500Y-68206000D03*
%TO.P,Q2,3,D*%
%TO.N,/DIO*%
X112922500Y-67256000D03*
%TD*%
D34*
%TO.P,J10,1,Pin_1*%
%TO.N,/Battery_VIN*%
X117405000Y-72246000D03*
D35*
%TO.P,J10,2,Pin_2*%
%TO.N,GND*%
X119405000Y-72246000D03*
%TD*%
D13*
%TO.P,R28,1*%
%TO.N,+3V3*%
X93892500Y-64326000D03*
%TO.P,R28,2*%
%TO.N,/SPI_CS*%
X95717500Y-64326000D03*
%TD*%
D19*
%TO.P,C9,1*%
%TO.N,+3V3*%
X128085000Y-48256000D03*
%TO.P,C9,2*%
%TO.N,GND*%
X129045000Y-48256000D03*
%TD*%
D17*
%TO.P,D3,1,K*%
%TO.N,Net-(D3-K)*%
X110885000Y-82266000D03*
%TO.P,D3,2,A*%
%TO.N,/D9*%
X112635000Y-82266000D03*
%TD*%
D13*
%TO.P,R12,1*%
%TO.N,Net-(Q3-C)*%
X89542500Y-64326000D03*
%TO.P,R12,2*%
%TO.N,Net-(LD2-A)*%
X91367500Y-64326000D03*
%TD*%
D19*
%TO.P,C6,1*%
%TO.N,+3V3*%
X128085000Y-44316000D03*
%TO.P,C6,2*%
%TO.N,Net-(U5-FB)*%
X129045000Y-44316000D03*
%TD*%
D10*
%TO.P,U5,1,EN*%
%TO.N,/Battery_VIN*%
X105827500Y-66306000D03*
%TO.P,U5,2,GND*%
%TO.N,GND*%
X105827500Y-67256000D03*
%TO.P,U5,3,SW*%
%TO.N,Net-(U5-SW)*%
X105827500Y-68206000D03*
%TO.P,U5,4,VIN*%
%TO.N,/Battery_VIN*%
X108102500Y-68206000D03*
%TO.P,U5,5,FB*%
%TO.N,Net-(U5-FB)*%
X108102500Y-66306000D03*
%TD*%
D18*
%TO.P,D5,1,K*%
%TO.N,/UPDI_protected*%
X128250000Y-50466000D03*
%TO.P,D5,2,A*%
%TO.N,GND*%
X129650000Y-50466000D03*
%TD*%
D36*
%TO.P,L2,1*%
%TO.N,Net-(U5-SW)*%
X85305000Y-83366000D03*
%TO.P,L2,2*%
%TO.N,+3V3*%
X88105000Y-83366000D03*
%TD*%
D13*
%TO.P,R5,1*%
%TO.N,/UPDI_protected*%
X85192500Y-64326000D03*
%TO.P,R5,2*%
%TO.N,/UPDI*%
X87017500Y-64326000D03*
%TD*%
%TO.P,R1,1*%
%TO.N,Net-(D14-K)*%
X85192500Y-54286000D03*
%TO.P,R1,2*%
%TO.N,/Charlie_Plex_1*%
X87017500Y-54286000D03*
%TD*%
D37*
%TO.P,D8,1,A1*%
%TO.N,+3V3*%
X98100000Y-82696000D03*
%TO.P,D8,2,A2*%
%TO.N,GND*%
X100200000Y-82696000D03*
%TD*%
D13*
%TO.P,R16,1*%
%TO.N,Net-(Q1-B)*%
X93892500Y-56796000D03*
%TO.P,R16,2*%
%TO.N,/D24*%
X95717500Y-56796000D03*
%TD*%
%TO.P,R2,1*%
%TO.N,Net-(D2-K)*%
X85192500Y-56796000D03*
%TO.P,R2,2*%
%TO.N,GND*%
X87017500Y-56796000D03*
%TD*%
D14*
%TO.P,R18,1*%
%TO.N,Net-(J9-CC2)*%
X123275000Y-54026000D03*
%TO.P,R18,2*%
%TO.N,GND*%
X124295000Y-54026000D03*
%TD*%
D38*
%TO.P,U8,1,~{CS}*%
%TO.N,/SPI_CS*%
X113555000Y-54511000D03*
%TO.P,U8,2,DO(IO1)*%
%TO.N,/SD1*%
X113555000Y-55781000D03*
%TO.P,U8,3,IO2*%
%TO.N,/SD2*%
X113555000Y-57051000D03*
%TO.P,U8,4,GND*%
%TO.N,GND*%
X113555000Y-58321000D03*
%TO.P,U8,5,DI(IO0)*%
%TO.N,/SD0*%
X120755000Y-58321000D03*
%TO.P,U8,6,CLK*%
%TO.N,/spi_clk*%
X120755000Y-57051000D03*
%TO.P,U8,7,IO3*%
%TO.N,/SD3*%
X120755000Y-55781000D03*
%TO.P,U8,8,VCC*%
%TO.N,+3V3*%
X120755000Y-54511000D03*
%TD*%
D29*
%TO.P,C1,1*%
%TO.N,Net-(U1-Vs)*%
X98547500Y-63056000D03*
%TO.P,C1,2*%
%TO.N,GND*%
X102822500Y-63056000D03*
%TD*%
D13*
%TO.P,R11,1*%
%TO.N,Net-(Q3-C)*%
X89542500Y-61816000D03*
%TO.P,R11,2*%
%TO.N,Net-(LD1-A)*%
X91367500Y-61816000D03*
%TD*%
D27*
%TO.P,J5,1,Pin_1*%
%TO.N,/Battery_VIN*%
X107855000Y-45656000D03*
D28*
%TO.P,J5,2,Pin_2*%
%TO.N,GND*%
X110395000Y-45656000D03*
%TO.P,J5,3,Pin_3*%
%TO.N,/GPIO19*%
X107855000Y-48196000D03*
%TO.P,J5,4,Pin_4*%
%TO.N,/GPIO18*%
X110395000Y-48196000D03*
%TO.P,J5,5,Pin_5*%
%TO.N,/CS{slash}MISO_2*%
X107855000Y-50736000D03*
%TO.P,J5,6,Pin_6*%
%TO.N,/D25*%
X110395000Y-50736000D03*
%TD*%
D10*
%TO.P,U7,1,CEN*%
%TO.N,/Battery_VIN*%
X105827500Y-75206000D03*
%TO.P,U7,2,VSS*%
%TO.N,GND*%
X105827500Y-76156000D03*
%TO.P,U7,3,VBAT*%
%TO.N,/Battery_VIN*%
X105827500Y-77106000D03*
%TO.P,U7,4,VDD*%
X108102500Y-77106000D03*
%TO.P,U7,5,PROG*%
%TO.N,Net-(U7-PROG)*%
X108102500Y-75206000D03*
%TD*%
D13*
%TO.P,R3,1*%
%TO.N,Net-(D3-K)*%
X85192500Y-59306000D03*
%TO.P,R3,2*%
%TO.N,GND*%
X87017500Y-59306000D03*
%TD*%
D14*
%TO.P,R23,1*%
%TO.N,GND*%
X126185000Y-58006000D03*
%TO.P,R23,2*%
%TO.N,/D-*%
X127205000Y-58006000D03*
%TD*%
D13*
%TO.P,R15,1*%
%TO.N,/D25*%
X93892500Y-54286000D03*
%TO.P,R15,2*%
%TO.N,/CS{slash}MISO_2*%
X95717500Y-54286000D03*
%TD*%
D14*
%TO.P,R19,1*%
%TO.N,Net-(J9-CC1)*%
X123275000Y-56016000D03*
%TO.P,R19,2*%
%TO.N,GND*%
X124295000Y-56016000D03*
%TD*%
D39*
%TO.P,Q1,1,E*%
%TO.N,GND*%
X98965000Y-78686000D03*
D40*
%TO.P,Q1,2,B*%
%TO.N,Net-(Q1-B)*%
X100235000Y-78686000D03*
%TO.P,Q1,3,C*%
%TO.N,Net-(Q1-C)*%
X101505000Y-78686000D03*
%TD*%
D13*
%TO.P,R7,1*%
%TO.N,Net-(D1-A)*%
X85192500Y-69346000D03*
%TO.P,R7,2*%
%TO.N,/SPI_CS*%
X87017500Y-69346000D03*
%TD*%
D29*
%TO.P,C3,1*%
%TO.N,+3V3*%
X98547500Y-72956000D03*
%TO.P,C3,2*%
%TO.N,GND*%
X102822500Y-72956000D03*
%TD*%
D41*
%TO.P,C4,1*%
%TO.N,/Battery_VIN*%
X90755000Y-82096000D03*
%TO.P,C4,2*%
%TO.N,GND*%
X92655000Y-82096000D03*
%TD*%
D14*
%TO.P,R21,1*%
%TO.N,GND*%
X126185000Y-54026000D03*
%TO.P,R21,2*%
%TO.N,Net-(U5-FB)*%
X127205000Y-54026000D03*
%TD*%
D42*
%TO.P,J9,A1,GND*%
%TO.N,GND*%
X86575000Y-72206000D03*
%TO.P,J9,A4,VBUS*%
%TO.N,/USB_pwr*%
X87375000Y-72206000D03*
D43*
%TO.P,J9,A5,CC1*%
%TO.N,Net-(J9-CC1)*%
X88525000Y-72206000D03*
%TO.P,J9,A6,D+*%
%TO.N,/D+*%
X89525000Y-72206000D03*
%TO.P,J9,A7,D-*%
%TO.N,/D-*%
X90025000Y-72206000D03*
%TO.P,J9,A8,SBU1*%
%TO.N,unconnected-(J9-SBU1-PadA8)*%
X91025000Y-72206000D03*
D42*
%TO.P,J9,A9,VBUS*%
%TO.N,/USB_pwr*%
X92175000Y-72206000D03*
%TO.P,J9,A12,GND*%
%TO.N,GND*%
X92975000Y-72206000D03*
%TO.P,J9,B1,GND*%
X92975000Y-72206000D03*
%TO.P,J9,B4,VBUS*%
%TO.N,/USB_pwr*%
X92175000Y-72206000D03*
D43*
%TO.P,J9,B5,CC2*%
%TO.N,Net-(J9-CC2)*%
X91525000Y-72206000D03*
%TO.P,J9,B6,D+*%
%TO.N,/D+*%
X90525000Y-72206000D03*
%TO.P,J9,B7,D-*%
%TO.N,/D-*%
X89025000Y-72206000D03*
%TO.P,J9,B8,SBU2*%
%TO.N,unconnected-(J9-SBU2-PadB8)*%
X88025000Y-72206000D03*
D42*
%TO.P,J9,B9,VBUS*%
%TO.N,/USB_pwr*%
X87375000Y-72206000D03*
%TO.P,J9,B12,GND*%
%TO.N,GND*%
X86575000Y-72206000D03*
D44*
%TO.P,J9,S1,SHIELD*%
X85455000Y-72781000D03*
D45*
X85455000Y-76961000D03*
D44*
X94095000Y-72781000D03*
D45*
X94095000Y-76961000D03*
%TD*%
D14*
%TO.P,R24,1*%
%TO.N,/D+*%
X129095000Y-54026000D03*
%TO.P,R24,2*%
%TO.N,/USB_D+*%
X130115000Y-54026000D03*
%TD*%
D13*
%TO.P,R14,1*%
%TO.N,/D12*%
X89542500Y-69346000D03*
%TO.P,R14,2*%
%TO.N,/CS{slash}MISO_1*%
X91367500Y-69346000D03*
%TD*%
M02*
