%TF.GenerationSoftware,KiCad,Pcbnew,7.0.10*%
%TF.CreationDate,2024-02-15T00:33:29-06:00*%
%TF.ProjectId,B-Sides 2024,422d5369-6465-4732-9032-3032342e6b69,rev?*%
%TF.SameCoordinates,Original*%
%TF.FileFunction,Soldermask,Top*%
%TF.FilePolarity,Negative*%
%FSLAX46Y46*%
G04 Gerber Fmt 4.6, Leading zero omitted, Abs format (unit mm)*
G04 Created by KiCad (PCBNEW 7.0.10) date 2024-02-15 00:33:29*
%MOMM*%
%LPD*%
G01*
G04 APERTURE LIST*
G04 Aperture macros list*
%AMRoundRect*
0 Rectangle with rounded corners*
0 $1 Rounding radius*
0 $2 $3 $4 $5 $6 $7 $8 $9 X,Y pos of 4 corners*
0 Add a 4 corners polygon primitive as box body*
4,1,4,$2,$3,$4,$5,$6,$7,$8,$9,$2,$3,0*
0 Add four circle primitives for the rounded corners*
1,1,$1+$1,$2,$3*
1,1,$1+$1,$4,$5*
1,1,$1+$1,$6,$7*
1,1,$1+$1,$8,$9*
0 Add four rect primitives between the rounded corners*
20,1,$1+$1,$2,$3,$4,$5,0*
20,1,$1+$1,$4,$5,$6,$7,0*
20,1,$1+$1,$6,$7,$8,$9,0*
20,1,$1+$1,$8,$9,$2,$3,0*%
G04 Aperture macros list end*
%ADD10R,0.700000X0.700000*%
%ADD11R,1.800000X1.800000*%
%ADD12C,1.800000*%
%ADD13RoundRect,0.140000X-0.140000X-0.170000X0.140000X-0.170000X0.140000X0.170000X-0.140000X0.170000X0*%
%ADD14R,1.700000X1.700000*%
%ADD15O,1.700000X1.700000*%
%ADD16RoundRect,0.140000X0.140000X0.170000X-0.140000X0.170000X-0.140000X-0.170000X0.140000X-0.170000X0*%
%ADD17R,0.850000X2.200000*%
%ADD18RoundRect,0.140000X0.170000X-0.140000X0.170000X0.140000X-0.170000X0.140000X-0.170000X-0.140000X0*%
%ADD19R,1.050000X1.500000*%
%ADD20O,1.050000X1.500000*%
%ADD21RoundRect,0.250000X-0.350000X-0.625000X0.350000X-0.625000X0.350000X0.625000X-0.350000X0.625000X0*%
%ADD22O,1.200000X1.750000*%
%ADD23C,2.000000*%
%ADD24C,0.650000*%
%ADD25O,1.000000X1.800000*%
%ADD26O,1.000000X2.100000*%
G04 APERTURE END LIST*
D10*
%TO.C,D39*%
X96555000Y-45420000D03*
X96555000Y-44320000D03*
X94725000Y-44320000D03*
X94725000Y-45420000D03*
%TD*%
%TO.C,D44*%
X123015000Y-59340000D03*
X123015000Y-58240000D03*
X121185000Y-58240000D03*
X121185000Y-59340000D03*
%TD*%
%TO.C,D14*%
X108400000Y-76290000D03*
X108400000Y-75190000D03*
X106570000Y-75190000D03*
X106570000Y-76290000D03*
%TD*%
%TO.C,D5*%
X109360000Y-65660000D03*
X109360000Y-64560000D03*
X107530000Y-64560000D03*
X107530000Y-65660000D03*
%TD*%
%TO.C,D35*%
X103120000Y-89665000D03*
X102020000Y-89665000D03*
X102020000Y-91495000D03*
X103120000Y-91495000D03*
%TD*%
D11*
%TO.C,LD2*%
X115940000Y-36810000D03*
D12*
X118480000Y-36810000D03*
%TD*%
D13*
%TO.C,C13*%
X70340000Y-75950000D03*
X71300000Y-75950000D03*
%TD*%
D10*
%TO.C,D32*%
X107905000Y-99010000D03*
X107905000Y-97910000D03*
X106075000Y-97910000D03*
X106075000Y-99010000D03*
%TD*%
%TO.C,D26*%
X80455000Y-66690000D03*
X80455000Y-65590000D03*
X78625000Y-65590000D03*
X78625000Y-66690000D03*
%TD*%
D11*
%TO.C,LD1*%
X82010000Y-36870000D03*
D12*
X84550000Y-36870000D03*
%TD*%
D14*
%TO.C,J3*%
X67130000Y-43120000D03*
D15*
X67130000Y-40580000D03*
X69670000Y-43120000D03*
X69670000Y-40580000D03*
X72210000Y-43120000D03*
X72210000Y-40580000D03*
%TD*%
D10*
%TO.C,D16*%
X101545000Y-68970000D03*
X101545000Y-70070000D03*
X103375000Y-70070000D03*
X103375000Y-68970000D03*
%TD*%
%TO.C,D28*%
X92375000Y-73460000D03*
X92375000Y-72360000D03*
X90545000Y-72360000D03*
X90545000Y-73460000D03*
%TD*%
%TO.C,D15*%
X113080000Y-73500000D03*
X113080000Y-72400000D03*
X111250000Y-72400000D03*
X111250000Y-73500000D03*
%TD*%
D16*
%TO.C,C30*%
X97910000Y-48000000D03*
X96950000Y-48000000D03*
%TD*%
D13*
%TO.C,C15*%
X102180000Y-88080000D03*
X103140000Y-88080000D03*
%TD*%
D10*
%TO.C,D23*%
X93850000Y-77285000D03*
X92750000Y-77285000D03*
X92750000Y-79115000D03*
X93850000Y-79115000D03*
%TD*%
%TO.C,D46*%
X130950000Y-62360000D03*
X130950000Y-61260000D03*
X129120000Y-61260000D03*
X129120000Y-62360000D03*
%TD*%
%TO.C,D19*%
X87115000Y-56890000D03*
X87115000Y-55790000D03*
X85285000Y-55790000D03*
X85285000Y-56890000D03*
%TD*%
D13*
%TO.C,C44*%
X137330000Y-96810000D03*
X138290000Y-96810000D03*
%TD*%
D14*
%TO.C,J4*%
X133270000Y-41570000D03*
D15*
X135810000Y-41570000D03*
X133270000Y-44110000D03*
X135810000Y-44110000D03*
X133270000Y-46650000D03*
X135810000Y-46650000D03*
%TD*%
D17*
%TO.C,U2*%
X110845000Y-92040000D03*
X112115000Y-92040000D03*
X113385000Y-92040000D03*
X114655000Y-92040000D03*
%TD*%
D10*
%TO.C,D13*%
X87075000Y-49720000D03*
X87075000Y-48620000D03*
X85245000Y-48620000D03*
X85245000Y-49720000D03*
%TD*%
%TO.C,D27*%
X89895000Y-70080000D03*
X89895000Y-68980000D03*
X88065000Y-68980000D03*
X88065000Y-70080000D03*
%TD*%
D13*
%TO.C,C21*%
X129990000Y-64090000D03*
X130950000Y-64090000D03*
%TD*%
D10*
%TO.C,D40*%
X103555000Y-49290000D03*
X103555000Y-48190000D03*
X101725000Y-48190000D03*
X101725000Y-49290000D03*
%TD*%
%TO.C,D22*%
X91070000Y-84190000D03*
X91070000Y-83090000D03*
X89240000Y-83090000D03*
X89240000Y-84190000D03*
%TD*%
D17*
%TO.C,U1*%
X86405000Y-95340000D03*
X87675000Y-95340000D03*
X88945000Y-95340000D03*
X90215000Y-95340000D03*
%TD*%
D10*
%TO.C,D45*%
X126735000Y-66560000D03*
X126735000Y-65460000D03*
X124905000Y-65460000D03*
X124905000Y-66560000D03*
%TD*%
%TO.C,D11*%
X101875000Y-54350000D03*
X101875000Y-55450000D03*
X103705000Y-55450000D03*
X103705000Y-54350000D03*
%TD*%
%TO.C,D24*%
X84807500Y-77670000D03*
X84807500Y-78770000D03*
X86637500Y-78770000D03*
X86637500Y-77670000D03*
%TD*%
%TO.C,D12*%
X90310000Y-51920000D03*
X90310000Y-53020000D03*
X92140000Y-53020000D03*
X92140000Y-51920000D03*
%TD*%
%TO.C,D6*%
X120555000Y-71500000D03*
X120555000Y-70400000D03*
X118725000Y-70400000D03*
X118725000Y-71500000D03*
%TD*%
D13*
%TO.C,C29*%
X87740000Y-59970000D03*
X88700000Y-59970000D03*
%TD*%
D10*
%TO.C,D21*%
X101565000Y-63280000D03*
X101565000Y-62180000D03*
X99735000Y-62180000D03*
X99735000Y-63280000D03*
%TD*%
D13*
%TO.C,C22*%
X85490000Y-75030000D03*
X86450000Y-75030000D03*
%TD*%
D10*
%TO.C,D42*%
X114580000Y-58020000D03*
X114580000Y-56920000D03*
X112750000Y-56920000D03*
X112750000Y-58020000D03*
%TD*%
D16*
%TO.C,C27*%
X99940000Y-77660000D03*
X98980000Y-77660000D03*
%TD*%
D13*
%TO.C,C18*%
X94020000Y-74130000D03*
X94980000Y-74130000D03*
%TD*%
D10*
%TO.C,D31*%
X103750000Y-99290000D03*
X103750000Y-98190000D03*
X101920000Y-98190000D03*
X101920000Y-99290000D03*
%TD*%
D13*
%TO.C,C19*%
X101340000Y-66150000D03*
X102300000Y-66150000D03*
%TD*%
D10*
%TO.C,D37*%
X97285000Y-83450000D03*
X97285000Y-84550000D03*
X99115000Y-84550000D03*
X99115000Y-83450000D03*
%TD*%
%TO.C,D43*%
X118755000Y-53550000D03*
X118755000Y-52450000D03*
X116925000Y-52450000D03*
X116925000Y-53550000D03*
%TD*%
D13*
%TO.C,C25*%
X103730000Y-51980000D03*
X104690000Y-51980000D03*
%TD*%
D10*
%TO.C,D30*%
X97755000Y-100380000D03*
X97755000Y-99280000D03*
X95925000Y-99280000D03*
X95925000Y-100380000D03*
%TD*%
%TO.C,D36*%
X99520000Y-88100000D03*
X99520000Y-87000000D03*
X97690000Y-87000000D03*
X97690000Y-88100000D03*
%TD*%
%TO.C,D10*%
X106475000Y-59275000D03*
X105375000Y-59275000D03*
X105375000Y-61105000D03*
X106475000Y-61105000D03*
%TD*%
%TO.C,D41*%
X111655000Y-51100000D03*
X111655000Y-50000000D03*
X109825000Y-50000000D03*
X109825000Y-51100000D03*
%TD*%
%TO.C,D20*%
X93865000Y-58930000D03*
X93865000Y-57830000D03*
X92035000Y-57830000D03*
X92035000Y-58930000D03*
%TD*%
D13*
%TO.C,C12*%
X110990000Y-75740000D03*
X111950000Y-75740000D03*
%TD*%
D10*
%TO.C,D9*%
X113560000Y-63085000D03*
X112460000Y-63085000D03*
X112460000Y-64915000D03*
X113560000Y-64915000D03*
%TD*%
%TO.C,D7*%
X120750000Y-64575000D03*
X119650000Y-64575000D03*
X119650000Y-66405000D03*
X120750000Y-66405000D03*
%TD*%
%TO.C,D34*%
X101150000Y-94950000D03*
X101150000Y-93850000D03*
X99320000Y-93850000D03*
X99320000Y-94950000D03*
%TD*%
D18*
%TO.C,C33*%
X92460000Y-83800000D03*
X92460000Y-82840000D03*
%TD*%
D10*
%TO.C,D25*%
X82870000Y-74400000D03*
X82870000Y-73300000D03*
X81040000Y-73300000D03*
X81040000Y-74400000D03*
%TD*%
D18*
%TO.C,C17*%
X65400000Y-66940000D03*
X65400000Y-65980000D03*
%TD*%
D13*
%TO.C,C28*%
X80770000Y-68820000D03*
X81730000Y-68820000D03*
%TD*%
D14*
%TO.C,J5*%
X134640000Y-78900000D03*
D15*
X137180000Y-78900000D03*
X134640000Y-81440000D03*
X137180000Y-81440000D03*
X134640000Y-83980000D03*
X137180000Y-83980000D03*
%TD*%
D13*
%TO.C,C26*%
X108660000Y-56060000D03*
X109620000Y-56060000D03*
%TD*%
%TO.C,C24*%
X94210000Y-62850000D03*
X95170000Y-62850000D03*
%TD*%
D10*
%TO.C,D33*%
X115725000Y-100880000D03*
X115725000Y-99780000D03*
X113895000Y-99780000D03*
X113895000Y-100880000D03*
%TD*%
D13*
%TO.C,C31*%
X100460000Y-101180000D03*
X101420000Y-101180000D03*
%TD*%
D19*
%TO.C,Q1*%
X75520000Y-41770000D03*
D20*
X76790000Y-41770000D03*
X78060000Y-41770000D03*
%TD*%
D18*
%TO.C,C23*%
X122130000Y-67200000D03*
X122130000Y-66240000D03*
%TD*%
%TO.C,C14*%
X88420000Y-49790000D03*
X88420000Y-48830000D03*
%TD*%
D13*
%TO.C,C32*%
X110730000Y-102050000D03*
X111690000Y-102050000D03*
%TD*%
D10*
%TO.C,D17*%
X94945000Y-65740000D03*
X94945000Y-66840000D03*
X96775000Y-66840000D03*
X96775000Y-65740000D03*
%TD*%
%TO.C,D29*%
X100390000Y-74940000D03*
X100390000Y-73840000D03*
X98560000Y-73840000D03*
X98560000Y-74940000D03*
%TD*%
%TO.C,D18*%
X89215000Y-62795000D03*
X88115000Y-62795000D03*
X88115000Y-64625000D03*
X89215000Y-64625000D03*
%TD*%
D13*
%TO.C,C20*%
X117950000Y-59840000D03*
X118910000Y-59840000D03*
%TD*%
D21*
%TO.C,J10*%
X123715000Y-137855000D03*
D22*
X125715000Y-137855000D03*
%TD*%
D23*
%TO.C,BT1*%
X80460000Y-115300000D03*
X80460000Y-110220000D03*
X74220000Y-112760000D03*
X135220000Y-112760000D03*
X128980000Y-115300000D03*
X128980000Y-110220000D03*
%TD*%
D24*
%TO.C,J9*%
X107750000Y-149570000D03*
X101970000Y-149570000D03*
D25*
X109180000Y-153250000D03*
D26*
X109180000Y-149070000D03*
D25*
X100540000Y-153250000D03*
D26*
X100540000Y-149070000D03*
%TD*%
M02*
