M48
; DRILL file {KiCad 7.0.10} date Mon Feb  5 23:17:40 2024
; FORMAT={-:-/ absolute / inch / decimal}
; #@! TF.CreationDate,2024-02-05T23:17:40-06:00
; #@! TF.GenerationSoftware,Kicad,Pcbnew,7.0.10
; #@! TF.FileFunction,Plated,1,2,PTH
FMAT,2
INCH
; #@! TA.AperFunction,Plated,PTH,ComponentDrill
T1C0.0236
; #@! TA.AperFunction,Plated,PTH,ComponentDrill
T2C0.0295
; #@! TA.AperFunction,Plated,PTH,ComponentDrill
T3C0.0354
; #@! TA.AperFunction,Plated,PTH,ComponentDrill
T4C0.0394
%
G90
G05
T2
X3.8963Y-3.0979
X3.9463Y-3.0979
X3.9963Y-3.0979
X4.6222Y-2.8443
X4.701Y-2.8443
T3
X3.9156Y-2.2365
X4.0156Y-2.2365
X4.2108Y-2.2365
X4.3108Y-2.2365
X4.8841Y-3.1361
X4.9841Y-3.1361
X5.0841Y-3.1361
T4
X3.6793Y-1.7975
X3.6793Y-1.8975
X3.6793Y-1.9975
X3.7793Y-1.7975
X3.7793Y-1.8975
X3.7793Y-1.9975
X3.9628Y-1.7975
X3.9628Y-1.8975
X3.9628Y-1.9975
X4.0628Y-1.7975
X4.0628Y-1.8975
X4.0628Y-1.9975
X4.2463Y-1.7975
X4.2463Y-1.8975
X4.2463Y-1.9975
X4.3463Y-1.7975
X4.3463Y-1.8975
X4.3463Y-1.9975
T1
G00X3.3644Y-2.8437
M15
G01X3.3644Y-2.887
M16
G05
G00X3.3644Y-3.0142
M15
G01X3.3644Y-3.0457
M16
G05
G00X3.7045Y-2.8437
M15
G01X3.7045Y-2.887
M16
G05
G00X3.7045Y-3.0142
M15
G01X3.7045Y-3.0457
M16
G05
M30
