%TF.GenerationSoftware,KiCad,Pcbnew,7.0.10*%
%TF.CreationDate,2024-02-15T00:33:29-06:00*%
%TF.ProjectId,B-Sides 2024,422d5369-6465-4732-9032-3032342e6b69,rev?*%
%TF.SameCoordinates,Original*%
%TF.FileFunction,Paste,Bot*%
%TF.FilePolarity,Positive*%
%FSLAX46Y46*%
G04 Gerber Fmt 4.6, Leading zero omitted, Abs format (unit mm)*
G04 Created by KiCad (PCBNEW 7.0.10) date 2024-02-15 00:33:29*
%MOMM*%
%LPD*%
G01*
G04 APERTURE LIST*
G04 Aperture macros list*
%AMRoundRect*
0 Rectangle with rounded corners*
0 $1 Rounding radius*
0 $2 $3 $4 $5 $6 $7 $8 $9 X,Y pos of 4 corners*
0 Add a 4 corners polygon primitive as box body*
4,1,4,$2,$3,$4,$5,$6,$7,$8,$9,$2,$3,0*
0 Add four circle primitives for the rounded corners*
1,1,$1+$1,$2,$3*
1,1,$1+$1,$4,$5*
1,1,$1+$1,$6,$7*
1,1,$1+$1,$8,$9*
0 Add four rect primitives between the rounded corners*
20,1,$1+$1,$2,$3,$4,$5,0*
20,1,$1+$1,$4,$5,$6,$7,0*
20,1,$1+$1,$6,$7,$8,$9,0*
20,1,$1+$1,$8,$9,$2,$3,0*%
G04 Aperture macros list end*
%ADD10RoundRect,0.135000X-0.185000X0.135000X-0.185000X-0.135000X0.185000X-0.135000X0.185000X0.135000X0*%
%ADD11RoundRect,0.135000X0.135000X0.185000X-0.135000X0.185000X-0.135000X-0.185000X0.135000X-0.185000X0*%
%ADD12RoundRect,0.150000X0.150000X0.625000X-0.150000X0.625000X-0.150000X-0.625000X0.150000X-0.625000X0*%
%ADD13RoundRect,0.250000X0.350000X0.650000X-0.350000X0.650000X-0.350000X-0.650000X0.350000X-0.650000X0*%
%ADD14RoundRect,0.150000X0.200000X-0.150000X0.200000X0.150000X-0.200000X0.150000X-0.200000X-0.150000X0*%
%ADD15R,1.400000X1.200000*%
%ADD16RoundRect,0.140000X-0.170000X0.140000X-0.170000X-0.140000X0.170000X-0.140000X0.170000X0.140000X0*%
%ADD17RoundRect,0.135000X0.185000X-0.135000X0.185000X0.135000X-0.185000X0.135000X-0.185000X-0.135000X0*%
%ADD18R,1.700000X0.900000*%
%ADD19RoundRect,0.140000X0.170000X-0.140000X0.170000X0.140000X-0.170000X0.140000X-0.170000X-0.140000X0*%
%ADD20RoundRect,0.150000X0.587500X0.150000X-0.587500X0.150000X-0.587500X-0.150000X0.587500X-0.150000X0*%
%ADD21RoundRect,0.150000X-0.150000X0.512500X-0.150000X-0.512500X0.150000X-0.512500X0.150000X0.512500X0*%
%ADD22RoundRect,0.150000X-0.150000X0.587500X-0.150000X-0.587500X0.150000X-0.587500X0.150000X0.587500X0*%
%ADD23RoundRect,0.237500X-0.287500X-0.237500X0.287500X-0.237500X0.287500X0.237500X-0.287500X0.237500X0*%
%ADD24R,1.000000X2.580000*%
%ADD25RoundRect,0.135000X-0.135000X-0.185000X0.135000X-0.185000X0.135000X0.185000X-0.135000X0.185000X0*%
%ADD26RoundRect,0.249999X-0.395001X-0.395001X0.395001X-0.395001X0.395001X0.395001X-0.395001X0.395001X0*%
%ADD27RoundRect,0.050000X-0.387500X-0.050000X0.387500X-0.050000X0.387500X0.050000X-0.387500X0.050000X0*%
%ADD28RoundRect,0.050000X-0.050000X-0.387500X0.050000X-0.387500X0.050000X0.387500X-0.050000X0.387500X0*%
%ADD29RoundRect,0.250000X-0.412500X-0.650000X0.412500X-0.650000X0.412500X0.650000X-0.412500X0.650000X0*%
%ADD30RoundRect,0.250000X0.412500X0.650000X-0.412500X0.650000X-0.412500X-0.650000X0.412500X-0.650000X0*%
%ADD31RoundRect,0.140000X0.140000X0.170000X-0.140000X0.170000X-0.140000X-0.170000X0.140000X-0.170000X0*%
%ADD32RoundRect,0.140000X-0.140000X-0.170000X0.140000X-0.170000X0.140000X0.170000X-0.140000X0.170000X0*%
%ADD33RoundRect,0.250000X0.537500X1.450000X-0.537500X1.450000X-0.537500X-1.450000X0.537500X-1.450000X0*%
%ADD34RoundRect,0.150000X0.512500X0.150000X-0.512500X0.150000X-0.512500X-0.150000X0.512500X-0.150000X0*%
%ADD35R,1.200000X3.700000*%
%ADD36RoundRect,0.225000X0.225000X0.375000X-0.225000X0.375000X-0.225000X-0.375000X0.225000X-0.375000X0*%
%ADD37RoundRect,0.150000X-0.650000X-0.150000X0.650000X-0.150000X0.650000X0.150000X-0.650000X0.150000X0*%
%ADD38RoundRect,0.250000X-0.475000X0.250000X-0.475000X-0.250000X0.475000X-0.250000X0.475000X0.250000X0*%
%ADD39R,0.600000X1.150000*%
%ADD40R,0.300000X1.150000*%
G04 APERTURE END LIST*
D10*
%TO.C,R38*%
X97070000Y-125200000D03*
X97070000Y-126220000D03*
%TD*%
D11*
%TO.C,R30*%
X110820000Y-126860000D03*
X109800000Y-126860000D03*
%TD*%
D12*
%TO.C,J1*%
X81100000Y-147810000D03*
X80100000Y-147810000D03*
X79100000Y-147810000D03*
X78100000Y-147810000D03*
D13*
X82400000Y-151685000D03*
X76800000Y-151685000D03*
%TD*%
D14*
%TO.C,D1*%
X87470000Y-139490000D03*
X87470000Y-140890000D03*
%TD*%
D11*
%TO.C,R39*%
X119820000Y-133280000D03*
X118800000Y-133280000D03*
%TD*%
D15*
%TO.C,Y1*%
X100830000Y-115200000D03*
X103370000Y-115200000D03*
X103370000Y-117400000D03*
X100830000Y-117400000D03*
%TD*%
D16*
%TO.C,C47*%
X107910000Y-134320000D03*
X107910000Y-135280000D03*
%TD*%
D17*
%TO.C,R13*%
X35645000Y-40590000D03*
X35645000Y-39570000D03*
%TD*%
D18*
%TO.C,SW1*%
X87520000Y-134410000D03*
X87520000Y-137810000D03*
%TD*%
D11*
%TO.C,R20*%
X167710000Y-118580000D03*
X166690000Y-118580000D03*
%TD*%
D19*
%TO.C,C40*%
X106080000Y-122340000D03*
X106080000Y-121380000D03*
%TD*%
D20*
%TO.C,Q3*%
X77025000Y-19100000D03*
X77025000Y-21000000D03*
X75150000Y-20050000D03*
%TD*%
D11*
%TO.C,R8*%
X165670000Y-139720000D03*
X164650000Y-139720000D03*
%TD*%
D21*
%TO.C,U6*%
X104040000Y-141230000D03*
X104990000Y-141230000D03*
X105940000Y-141230000D03*
X105940000Y-143505000D03*
X104990000Y-143505000D03*
X104040000Y-143505000D03*
%TD*%
D22*
%TO.C,Q4*%
X117800000Y-138820000D03*
X119700000Y-138820000D03*
X118750000Y-140695000D03*
%TD*%
D17*
%TO.C,R36*%
X103190000Y-122410000D03*
X103190000Y-121390000D03*
%TD*%
D11*
%TO.C,R29*%
X110850000Y-125820000D03*
X109830000Y-125820000D03*
%TD*%
%TO.C,R1*%
X79830000Y-53350000D03*
X78810000Y-53350000D03*
%TD*%
D23*
%TO.C,D2*%
X96270000Y-122250000D03*
X98020000Y-122250000D03*
%TD*%
D19*
%TO.C,C46*%
X104170000Y-122340000D03*
X104170000Y-121380000D03*
%TD*%
D24*
%TO.C,J13*%
X109510000Y-110500000D03*
X109510000Y-114670000D03*
X111510000Y-110500000D03*
X111510000Y-114670000D03*
X113510000Y-110500000D03*
X113510000Y-114670000D03*
X115510000Y-110500000D03*
X115510000Y-114670000D03*
X117510000Y-110500000D03*
X117510000Y-114670000D03*
%TD*%
D11*
%TO.C,R37*%
X91650000Y-125810000D03*
X90630000Y-125810000D03*
%TD*%
%TO.C,R27*%
X110930000Y-124490000D03*
X109910000Y-124490000D03*
%TD*%
D25*
%TO.C,R9*%
X164700000Y-138590000D03*
X165720000Y-138590000D03*
%TD*%
D21*
%TO.C,U10*%
X122850000Y-141472500D03*
X123800000Y-141472500D03*
X124750000Y-141472500D03*
X124750000Y-143747500D03*
X122850000Y-143747500D03*
%TD*%
D16*
%TO.C,C45*%
X103970000Y-134800000D03*
X103970000Y-135760000D03*
%TD*%
D26*
%TO.C,U3*%
X102777500Y-128410000D03*
X102777500Y-130010000D03*
X104377500Y-128410000D03*
X104377500Y-130010000D03*
D27*
X100140000Y-131810000D03*
X100140000Y-131410000D03*
X100140000Y-131010000D03*
X100140000Y-130610000D03*
X100140000Y-130210000D03*
X100140000Y-129810000D03*
X100140000Y-129410000D03*
X100140000Y-129010000D03*
X100140000Y-128610000D03*
X100140000Y-128210000D03*
X100140000Y-127810000D03*
X100140000Y-127410000D03*
X100140000Y-127010000D03*
X100140000Y-126610000D03*
D28*
X100977500Y-125772500D03*
X101377500Y-125772500D03*
X101777500Y-125772500D03*
X102177500Y-125772500D03*
X102577500Y-125772500D03*
X102977500Y-125772500D03*
X103377500Y-125772500D03*
X103777500Y-125772500D03*
X104177500Y-125772500D03*
X104577500Y-125772500D03*
X104977500Y-125772500D03*
X105377500Y-125772500D03*
X105777500Y-125772500D03*
X106177500Y-125772500D03*
D27*
X107015000Y-126610000D03*
X107015000Y-127010000D03*
X107015000Y-127410000D03*
X107015000Y-127810000D03*
X107015000Y-128210000D03*
X107015000Y-128610000D03*
X107015000Y-129010000D03*
X107015000Y-129410000D03*
X107015000Y-129810000D03*
X107015000Y-130210000D03*
X107015000Y-130610000D03*
X107015000Y-131010000D03*
X107015000Y-131410000D03*
X107015000Y-131810000D03*
D28*
X106177500Y-132647500D03*
X105777500Y-132647500D03*
X105377500Y-132647500D03*
X104977500Y-132647500D03*
X104577500Y-132647500D03*
X104177500Y-132647500D03*
X103777500Y-132647500D03*
X103377500Y-132647500D03*
X102977500Y-132647500D03*
X102577500Y-132647500D03*
X102177500Y-132647500D03*
X101777500Y-132647500D03*
X101377500Y-132647500D03*
X100977500Y-132647500D03*
%TD*%
D11*
%TO.C,R6*%
X94060000Y-21130000D03*
X93040000Y-21130000D03*
%TD*%
D20*
%TO.C,Q5*%
X35450000Y-34850000D03*
X35450000Y-36750000D03*
X33575000Y-35800000D03*
%TD*%
D29*
%TO.C,C16*%
X120227500Y-146240000D03*
X123352500Y-146240000D03*
%TD*%
D30*
%TO.C,C5*%
X165972500Y-131960000D03*
X162847500Y-131960000D03*
%TD*%
D11*
%TO.C,R10*%
X63600000Y-16150000D03*
X62580000Y-16150000D03*
%TD*%
D17*
%TO.C,R25*%
X105460000Y-139140000D03*
X105460000Y-138120000D03*
%TD*%
D31*
%TO.C,C53*%
X98130000Y-128250000D03*
X97170000Y-128250000D03*
%TD*%
D11*
%TO.C,R22*%
X104110000Y-145040000D03*
X103090000Y-145040000D03*
%TD*%
%TO.C,R26*%
X117400000Y-133270000D03*
X116380000Y-133270000D03*
%TD*%
D32*
%TO.C,C50*%
X110350000Y-131950000D03*
X111310000Y-131950000D03*
%TD*%
D31*
%TO.C,C51*%
X97170000Y-131840000D03*
X96210000Y-131840000D03*
%TD*%
D20*
%TO.C,Q2*%
X95225000Y-124780000D03*
X95225000Y-126680000D03*
X93350000Y-125730000D03*
%TD*%
D17*
%TO.C,R28*%
X99740000Y-136030000D03*
X99740000Y-135010000D03*
%TD*%
D19*
%TO.C,C41*%
X105130000Y-122340000D03*
X105130000Y-121380000D03*
%TD*%
D32*
%TO.C,C52*%
X110450000Y-133230000D03*
X111410000Y-133230000D03*
%TD*%
D33*
%TO.C,C34*%
X81337500Y-57270000D03*
X77062500Y-57270000D03*
%TD*%
D31*
%TO.C,C6*%
X129045000Y-44316000D03*
X128085000Y-44316000D03*
%TD*%
D34*
%TO.C,U5*%
X171467500Y-123260000D03*
X171467500Y-124210000D03*
X171467500Y-125160000D03*
X169192500Y-125160000D03*
X169192500Y-123260000D03*
%TD*%
D32*
%TO.C,C10*%
X100640000Y-145250000D03*
X101600000Y-145250000D03*
%TD*%
D35*
%TO.C,L2*%
X171680000Y-129080000D03*
X168880000Y-129080000D03*
%TD*%
D32*
%TO.C,C48*%
X109810000Y-127840000D03*
X110770000Y-127840000D03*
%TD*%
D16*
%TO.C,C49*%
X102990000Y-134820000D03*
X102990000Y-135780000D03*
%TD*%
D32*
%TO.C,C43*%
X101570000Y-113520000D03*
X102530000Y-113520000D03*
%TD*%
D36*
%TO.C,D48*%
X120090000Y-143610000D03*
X116790000Y-143610000D03*
%TD*%
D11*
%TO.C,R4*%
X111590000Y-130760000D03*
X110570000Y-130760000D03*
%TD*%
D20*
%TO.C,Q6*%
X31705000Y-38830000D03*
X31705000Y-40730000D03*
X29830000Y-39780000D03*
%TD*%
D11*
%TO.C,R16*%
X110860000Y-128820000D03*
X109840000Y-128820000D03*
%TD*%
%TO.C,R2*%
X94490000Y-122150000D03*
X93470000Y-122150000D03*
%TD*%
%TO.C,R18*%
X102780000Y-146560000D03*
X101760000Y-146560000D03*
%TD*%
D18*
%TO.C,SW2*%
X115900000Y-126100000D03*
X115900000Y-129500000D03*
%TD*%
D37*
%TO.C,U8*%
X93350000Y-143655000D03*
X93350000Y-142385000D03*
X93350000Y-141115000D03*
X93350000Y-139845000D03*
X100550000Y-139845000D03*
X100550000Y-141115000D03*
X100550000Y-142385000D03*
X100550000Y-143655000D03*
%TD*%
D33*
%TO.C,C1*%
X94265000Y-16060000D03*
X89990000Y-16060000D03*
%TD*%
D11*
%TO.C,R11*%
X62890000Y-20340000D03*
X61870000Y-20340000D03*
%TD*%
D34*
%TO.C,U7*%
X119840000Y-134940000D03*
X119840000Y-135890000D03*
X119840000Y-136840000D03*
X117565000Y-136840000D03*
X117565000Y-134940000D03*
%TD*%
D11*
%TO.C,R23*%
X106980000Y-145050000D03*
X105960000Y-145050000D03*
%TD*%
D32*
%TO.C,C42*%
X101580000Y-119140000D03*
X102540000Y-119140000D03*
%TD*%
D10*
%TO.C,R15*%
X115780000Y-123450000D03*
X115780000Y-124470000D03*
%TD*%
D25*
%TO.C,R19*%
X107150000Y-146415000D03*
X108170000Y-146415000D03*
%TD*%
D10*
%TO.C,R7*%
X87500000Y-143260000D03*
X87500000Y-144280000D03*
%TD*%
D16*
%TO.C,C11*%
X106510000Y-134310000D03*
X106510000Y-135270000D03*
%TD*%
D38*
%TO.C,C4*%
X173600000Y-121480000D03*
X173600000Y-123380000D03*
%TD*%
D11*
%TO.C,R21*%
X170440000Y-118420000D03*
X169420000Y-118420000D03*
%TD*%
D20*
%TO.C,Q7*%
X70945000Y-18330000D03*
X70945000Y-20230000D03*
X69070000Y-19280000D03*
%TD*%
D39*
%TO.C,J9*%
X108060000Y-148495000D03*
X107260000Y-148495000D03*
D40*
X106110000Y-148495000D03*
X105110000Y-148495000D03*
X104610000Y-148495000D03*
X103610000Y-148495000D03*
D39*
X102460000Y-148495000D03*
X101660000Y-148495000D03*
X101660000Y-148495000D03*
X102460000Y-148495000D03*
D40*
X103110000Y-148495000D03*
X104110000Y-148495000D03*
X105610000Y-148495000D03*
X106610000Y-148495000D03*
D39*
X107260000Y-148495000D03*
X108060000Y-148495000D03*
%TD*%
D17*
%TO.C,R24*%
X104440000Y-139150000D03*
X104440000Y-138130000D03*
%TD*%
D25*
%TO.C,R3*%
X110560000Y-129800000D03*
X111580000Y-129800000D03*
%TD*%
M02*
