%TF.GenerationSoftware,KiCad,Pcbnew,8.0.0*%
%TF.CreationDate,2024-03-10T11:12:00-05:00*%
%TF.ProjectId,B-Sides 2024,422d5369-6465-4732-9032-3032342e6b69,rev?*%
%TF.SameCoordinates,Original*%
%TF.FileFunction,Legend,Bot*%
%TF.FilePolarity,Positive*%
%FSLAX46Y46*%
G04 Gerber Fmt 4.6, Leading zero omitted, Abs format (unit mm)*
G04 Created by KiCad (PCBNEW 8.0.0) date 2024-03-10 11:12:00*
%MOMM*%
%LPD*%
G01*
G04 APERTURE LIST*
G04 Aperture macros list*
%AMRoundRect*
0 Rectangle with rounded corners*
0 $1 Rounding radius*
0 $2 $3 $4 $5 $6 $7 $8 $9 X,Y pos of 4 corners*
0 Add a 4 corners polygon primitive as box body*
4,1,4,$2,$3,$4,$5,$6,$7,$8,$9,$2,$3,0*
0 Add four circle primitives for the rounded corners*
1,1,$1+$1,$2,$3*
1,1,$1+$1,$4,$5*
1,1,$1+$1,$6,$7*
1,1,$1+$1,$8,$9*
0 Add four rect primitives between the rounded corners*
20,1,$1+$1,$2,$3,$4,$5,0*
20,1,$1+$1,$4,$5,$6,$7,0*
20,1,$1+$1,$6,$7,$8,$9,0*
20,1,$1+$1,$8,$9,$2,$3,0*%
%AMHorizOval*
0 Thick line with rounded ends*
0 $1 width*
0 $2 $3 position (X,Y) of the first rounded end (center of the circle)*
0 $4 $5 position (X,Y) of the second rounded end (center of the circle)*
0 Add line between two ends*
20,1,$1,$2,$3,$4,$5,0*
0 Add two circle primitives to create the rounded ends*
1,1,$1,$2,$3*
1,1,$1,$4,$5*%
%AMRotRect*
0 Rectangle, with rotation*
0 The origin of the aperture is its center*
0 $1 length*
0 $2 width*
0 $3 Rotation angle, in degrees counterclockwise*
0 Add horizontal line*
21,1,$1,$2,0,0,$3*%
G04 Aperture macros list end*
%ADD10C,0.150000*%
%ADD11C,0.120000*%
%ADD12HorizOval,4.300000X3.477333X0.931749X-3.477333X-0.931749X0*%
%ADD13HorizOval,4.300000X-3.477333X0.931749X3.477333X-0.931749X0*%
%ADD14R,1.727200X1.727200*%
%ADD15C,1.727200*%
%ADD16O,1.727200X1.727200*%
%ADD17RotRect,1.727200X1.727200X315.000000*%
%ADD18HorizOval,1.727200X0.000000X0.000000X0.000000X0.000000X0*%
%ADD19C,0.650000*%
%ADD20O,2.100000X1.000000*%
%ADD21O,1.800000X1.000000*%
%ADD22RoundRect,1.050000X-1.050000X1.500000X-1.050000X-1.500000X1.050000X-1.500000X1.050000X1.500000X0*%
%ADD23C,4.000000*%
%ADD24RoundRect,0.850000X-0.850000X0.850000X-0.850000X-0.850000X0.850000X-0.850000X0.850000X0.850000X0*%
%ADD25RoundRect,0.250000X0.625000X-0.350000X0.625000X0.350000X-0.625000X0.350000X-0.625000X-0.350000X0*%
%ADD26O,1.750000X1.200000*%
%ADD27RoundRect,1.050000X1.050000X-1.500000X1.050000X1.500000X-1.050000X1.500000X-1.050000X-1.500000X0*%
%ADD28RoundRect,0.850000X0.850000X-0.850000X0.850000X0.850000X-0.850000X0.850000X-0.850000X-0.850000X0*%
G04 APERTURE END LIST*
D10*
X68534285Y-41590878D02*
X68605714Y-41555164D01*
X68605714Y-41555164D02*
X68712856Y-41555164D01*
X68712856Y-41555164D02*
X68819999Y-41590878D01*
X68819999Y-41590878D02*
X68891428Y-41662307D01*
X68891428Y-41662307D02*
X68927142Y-41733735D01*
X68927142Y-41733735D02*
X68962856Y-41876592D01*
X68962856Y-41876592D02*
X68962856Y-41983735D01*
X68962856Y-41983735D02*
X68927142Y-42126592D01*
X68927142Y-42126592D02*
X68891428Y-42198021D01*
X68891428Y-42198021D02*
X68819999Y-42269450D01*
X68819999Y-42269450D02*
X68712856Y-42305164D01*
X68712856Y-42305164D02*
X68641428Y-42305164D01*
X68641428Y-42305164D02*
X68534285Y-42269450D01*
X68534285Y-42269450D02*
X68498571Y-42233735D01*
X68498571Y-42233735D02*
X68498571Y-41983735D01*
X68498571Y-41983735D02*
X68641428Y-41983735D01*
X68177142Y-42305164D02*
X68177142Y-41555164D01*
X68177142Y-41555164D02*
X67891428Y-41555164D01*
X67891428Y-41555164D02*
X67819999Y-41590878D01*
X67819999Y-41590878D02*
X67784285Y-41626592D01*
X67784285Y-41626592D02*
X67748571Y-41698021D01*
X67748571Y-41698021D02*
X67748571Y-41805164D01*
X67748571Y-41805164D02*
X67784285Y-41876592D01*
X67784285Y-41876592D02*
X67819999Y-41912307D01*
X67819999Y-41912307D02*
X67891428Y-41948021D01*
X67891428Y-41948021D02*
X68177142Y-41948021D01*
X67427142Y-42305164D02*
X67427142Y-41555164D01*
X66927142Y-41555164D02*
X66784285Y-41555164D01*
X66784285Y-41555164D02*
X66712856Y-41590878D01*
X66712856Y-41590878D02*
X66641428Y-41662307D01*
X66641428Y-41662307D02*
X66605713Y-41805164D01*
X66605713Y-41805164D02*
X66605713Y-42055164D01*
X66605713Y-42055164D02*
X66641428Y-42198021D01*
X66641428Y-42198021D02*
X66712856Y-42269450D01*
X66712856Y-42269450D02*
X66784285Y-42305164D01*
X66784285Y-42305164D02*
X66927142Y-42305164D01*
X66927142Y-42305164D02*
X66998571Y-42269450D01*
X66998571Y-42269450D02*
X67069999Y-42198021D01*
X67069999Y-42198021D02*
X67105713Y-42055164D01*
X67105713Y-42055164D02*
X67105713Y-41805164D01*
X67105713Y-41805164D02*
X67069999Y-41662307D01*
X67069999Y-41662307D02*
X66998571Y-41590878D01*
X66998571Y-41590878D02*
X66927142Y-41555164D01*
X65891428Y-42305164D02*
X66319999Y-42305164D01*
X66105714Y-42305164D02*
X66105714Y-41555164D01*
X66105714Y-41555164D02*
X66177142Y-41662307D01*
X66177142Y-41662307D02*
X66248571Y-41733735D01*
X66248571Y-41733735D02*
X66319999Y-41769450D01*
X65462856Y-41876592D02*
X65534285Y-41840878D01*
X65534285Y-41840878D02*
X65569999Y-41805164D01*
X65569999Y-41805164D02*
X65605713Y-41733735D01*
X65605713Y-41733735D02*
X65605713Y-41698021D01*
X65605713Y-41698021D02*
X65569999Y-41626592D01*
X65569999Y-41626592D02*
X65534285Y-41590878D01*
X65534285Y-41590878D02*
X65462856Y-41555164D01*
X65462856Y-41555164D02*
X65319999Y-41555164D01*
X65319999Y-41555164D02*
X65248571Y-41590878D01*
X65248571Y-41590878D02*
X65212856Y-41626592D01*
X65212856Y-41626592D02*
X65177142Y-41698021D01*
X65177142Y-41698021D02*
X65177142Y-41733735D01*
X65177142Y-41733735D02*
X65212856Y-41805164D01*
X65212856Y-41805164D02*
X65248571Y-41840878D01*
X65248571Y-41840878D02*
X65319999Y-41876592D01*
X65319999Y-41876592D02*
X65462856Y-41876592D01*
X65462856Y-41876592D02*
X65534285Y-41912307D01*
X65534285Y-41912307D02*
X65569999Y-41948021D01*
X65569999Y-41948021D02*
X65605713Y-42019450D01*
X65605713Y-42019450D02*
X65605713Y-42162307D01*
X65605713Y-42162307D02*
X65569999Y-42233735D01*
X65569999Y-42233735D02*
X65534285Y-42269450D01*
X65534285Y-42269450D02*
X65462856Y-42305164D01*
X65462856Y-42305164D02*
X65319999Y-42305164D01*
X65319999Y-42305164D02*
X65248571Y-42269450D01*
X65248571Y-42269450D02*
X65212856Y-42233735D01*
X65212856Y-42233735D02*
X65177142Y-42162307D01*
X65177142Y-42162307D02*
X65177142Y-42019450D01*
X65177142Y-42019450D02*
X65212856Y-41948021D01*
X65212856Y-41948021D02*
X65248571Y-41912307D01*
X65248571Y-41912307D02*
X65319999Y-41876592D01*
X61901428Y-47432878D02*
X61972857Y-47397164D01*
X61972857Y-47397164D02*
X62079999Y-47397164D01*
X62079999Y-47397164D02*
X62187142Y-47432878D01*
X62187142Y-47432878D02*
X62258571Y-47504307D01*
X62258571Y-47504307D02*
X62294285Y-47575735D01*
X62294285Y-47575735D02*
X62329999Y-47718592D01*
X62329999Y-47718592D02*
X62329999Y-47825735D01*
X62329999Y-47825735D02*
X62294285Y-47968592D01*
X62294285Y-47968592D02*
X62258571Y-48040021D01*
X62258571Y-48040021D02*
X62187142Y-48111450D01*
X62187142Y-48111450D02*
X62079999Y-48147164D01*
X62079999Y-48147164D02*
X62008571Y-48147164D01*
X62008571Y-48147164D02*
X61901428Y-48111450D01*
X61901428Y-48111450D02*
X61865714Y-48075735D01*
X61865714Y-48075735D02*
X61865714Y-47825735D01*
X61865714Y-47825735D02*
X62008571Y-47825735D01*
X61544285Y-48147164D02*
X61544285Y-47397164D01*
X61544285Y-47397164D02*
X61115714Y-48147164D01*
X61115714Y-48147164D02*
X61115714Y-47397164D01*
X60758571Y-48147164D02*
X60758571Y-47397164D01*
X60758571Y-47397164D02*
X60580000Y-47397164D01*
X60580000Y-47397164D02*
X60472857Y-47432878D01*
X60472857Y-47432878D02*
X60401428Y-47504307D01*
X60401428Y-47504307D02*
X60365714Y-47575735D01*
X60365714Y-47575735D02*
X60330000Y-47718592D01*
X60330000Y-47718592D02*
X60330000Y-47825735D01*
X60330000Y-47825735D02*
X60365714Y-47968592D01*
X60365714Y-47968592D02*
X60401428Y-48040021D01*
X60401428Y-48040021D02*
X60472857Y-48111450D01*
X60472857Y-48111450D02*
X60580000Y-48147164D01*
X60580000Y-48147164D02*
X60758571Y-48147164D01*
X68534285Y-47432878D02*
X68605714Y-47397164D01*
X68605714Y-47397164D02*
X68712856Y-47397164D01*
X68712856Y-47397164D02*
X68819999Y-47432878D01*
X68819999Y-47432878D02*
X68891428Y-47504307D01*
X68891428Y-47504307D02*
X68927142Y-47575735D01*
X68927142Y-47575735D02*
X68962856Y-47718592D01*
X68962856Y-47718592D02*
X68962856Y-47825735D01*
X68962856Y-47825735D02*
X68927142Y-47968592D01*
X68927142Y-47968592D02*
X68891428Y-48040021D01*
X68891428Y-48040021D02*
X68819999Y-48111450D01*
X68819999Y-48111450D02*
X68712856Y-48147164D01*
X68712856Y-48147164D02*
X68641428Y-48147164D01*
X68641428Y-48147164D02*
X68534285Y-48111450D01*
X68534285Y-48111450D02*
X68498571Y-48075735D01*
X68498571Y-48075735D02*
X68498571Y-47825735D01*
X68498571Y-47825735D02*
X68641428Y-47825735D01*
X68177142Y-48147164D02*
X68177142Y-47397164D01*
X68177142Y-47397164D02*
X67891428Y-47397164D01*
X67891428Y-47397164D02*
X67819999Y-47432878D01*
X67819999Y-47432878D02*
X67784285Y-47468592D01*
X67784285Y-47468592D02*
X67748571Y-47540021D01*
X67748571Y-47540021D02*
X67748571Y-47647164D01*
X67748571Y-47647164D02*
X67784285Y-47718592D01*
X67784285Y-47718592D02*
X67819999Y-47754307D01*
X67819999Y-47754307D02*
X67891428Y-47790021D01*
X67891428Y-47790021D02*
X68177142Y-47790021D01*
X67427142Y-48147164D02*
X67427142Y-47397164D01*
X66927142Y-47397164D02*
X66784285Y-47397164D01*
X66784285Y-47397164D02*
X66712856Y-47432878D01*
X66712856Y-47432878D02*
X66641428Y-47504307D01*
X66641428Y-47504307D02*
X66605713Y-47647164D01*
X66605713Y-47647164D02*
X66605713Y-47897164D01*
X66605713Y-47897164D02*
X66641428Y-48040021D01*
X66641428Y-48040021D02*
X66712856Y-48111450D01*
X66712856Y-48111450D02*
X66784285Y-48147164D01*
X66784285Y-48147164D02*
X66927142Y-48147164D01*
X66927142Y-48147164D02*
X66998571Y-48111450D01*
X66998571Y-48111450D02*
X67069999Y-48040021D01*
X67069999Y-48040021D02*
X67105713Y-47897164D01*
X67105713Y-47897164D02*
X67105713Y-47647164D01*
X67105713Y-47647164D02*
X67069999Y-47504307D01*
X67069999Y-47504307D02*
X66998571Y-47432878D01*
X66998571Y-47432878D02*
X66927142Y-47397164D01*
X65891428Y-48147164D02*
X66319999Y-48147164D01*
X66105714Y-48147164D02*
X66105714Y-47397164D01*
X66105714Y-47397164D02*
X66177142Y-47504307D01*
X66177142Y-47504307D02*
X66248571Y-47575735D01*
X66248571Y-47575735D02*
X66319999Y-47611450D01*
X65534285Y-48147164D02*
X65391428Y-48147164D01*
X65391428Y-48147164D02*
X65319999Y-48111450D01*
X65319999Y-48111450D02*
X65284285Y-48075735D01*
X65284285Y-48075735D02*
X65212856Y-47968592D01*
X65212856Y-47968592D02*
X65177142Y-47825735D01*
X65177142Y-47825735D02*
X65177142Y-47540021D01*
X65177142Y-47540021D02*
X65212856Y-47468592D01*
X65212856Y-47468592D02*
X65248571Y-47432878D01*
X65248571Y-47432878D02*
X65319999Y-47397164D01*
X65319999Y-47397164D02*
X65462856Y-47397164D01*
X65462856Y-47397164D02*
X65534285Y-47432878D01*
X65534285Y-47432878D02*
X65569999Y-47468592D01*
X65569999Y-47468592D02*
X65605713Y-47540021D01*
X65605713Y-47540021D02*
X65605713Y-47718592D01*
X65605713Y-47718592D02*
X65569999Y-47790021D01*
X65569999Y-47790021D02*
X65534285Y-47825735D01*
X65534285Y-47825735D02*
X65462856Y-47861450D01*
X65462856Y-47861450D02*
X65319999Y-47861450D01*
X65319999Y-47861450D02*
X65248571Y-47825735D01*
X65248571Y-47825735D02*
X65212856Y-47790021D01*
X65212856Y-47790021D02*
X65177142Y-47718592D01*
X62329999Y-41555164D02*
X62079999Y-42305164D01*
X62079999Y-42305164D02*
X61829999Y-41555164D01*
X61151428Y-42233735D02*
X61187142Y-42269450D01*
X61187142Y-42269450D02*
X61294285Y-42305164D01*
X61294285Y-42305164D02*
X61365713Y-42305164D01*
X61365713Y-42305164D02*
X61472856Y-42269450D01*
X61472856Y-42269450D02*
X61544285Y-42198021D01*
X61544285Y-42198021D02*
X61579999Y-42126592D01*
X61579999Y-42126592D02*
X61615713Y-41983735D01*
X61615713Y-41983735D02*
X61615713Y-41876592D01*
X61615713Y-41876592D02*
X61579999Y-41733735D01*
X61579999Y-41733735D02*
X61544285Y-41662307D01*
X61544285Y-41662307D02*
X61472856Y-41590878D01*
X61472856Y-41590878D02*
X61365713Y-41555164D01*
X61365713Y-41555164D02*
X61294285Y-41555164D01*
X61294285Y-41555164D02*
X61187142Y-41590878D01*
X61187142Y-41590878D02*
X61151428Y-41626592D01*
X60401428Y-42233735D02*
X60437142Y-42269450D01*
X60437142Y-42269450D02*
X60544285Y-42305164D01*
X60544285Y-42305164D02*
X60615713Y-42305164D01*
X60615713Y-42305164D02*
X60722856Y-42269450D01*
X60722856Y-42269450D02*
X60794285Y-42198021D01*
X60794285Y-42198021D02*
X60829999Y-42126592D01*
X60829999Y-42126592D02*
X60865713Y-41983735D01*
X60865713Y-41983735D02*
X60865713Y-41876592D01*
X60865713Y-41876592D02*
X60829999Y-41733735D01*
X60829999Y-41733735D02*
X60794285Y-41662307D01*
X60794285Y-41662307D02*
X60722856Y-41590878D01*
X60722856Y-41590878D02*
X60615713Y-41555164D01*
X60615713Y-41555164D02*
X60544285Y-41555164D01*
X60544285Y-41555164D02*
X60437142Y-41590878D01*
X60437142Y-41590878D02*
X60401428Y-41626592D01*
X64762856Y-48111450D02*
X64655714Y-48147164D01*
X64655714Y-48147164D02*
X64477142Y-48147164D01*
X64477142Y-48147164D02*
X64405714Y-48111450D01*
X64405714Y-48111450D02*
X64369999Y-48075735D01*
X64369999Y-48075735D02*
X64334285Y-48004307D01*
X64334285Y-48004307D02*
X64334285Y-47932878D01*
X64334285Y-47932878D02*
X64369999Y-47861450D01*
X64369999Y-47861450D02*
X64405714Y-47825735D01*
X64405714Y-47825735D02*
X64477142Y-47790021D01*
X64477142Y-47790021D02*
X64619999Y-47754307D01*
X64619999Y-47754307D02*
X64691428Y-47718592D01*
X64691428Y-47718592D02*
X64727142Y-47682878D01*
X64727142Y-47682878D02*
X64762856Y-47611450D01*
X64762856Y-47611450D02*
X64762856Y-47540021D01*
X64762856Y-47540021D02*
X64727142Y-47468592D01*
X64727142Y-47468592D02*
X64691428Y-47432878D01*
X64691428Y-47432878D02*
X64619999Y-47397164D01*
X64619999Y-47397164D02*
X64441428Y-47397164D01*
X64441428Y-47397164D02*
X64334285Y-47432878D01*
X63584285Y-48075735D02*
X63619999Y-48111450D01*
X63619999Y-48111450D02*
X63727142Y-48147164D01*
X63727142Y-48147164D02*
X63798570Y-48147164D01*
X63798570Y-48147164D02*
X63905713Y-48111450D01*
X63905713Y-48111450D02*
X63977142Y-48040021D01*
X63977142Y-48040021D02*
X64012856Y-47968592D01*
X64012856Y-47968592D02*
X64048570Y-47825735D01*
X64048570Y-47825735D02*
X64048570Y-47718592D01*
X64048570Y-47718592D02*
X64012856Y-47575735D01*
X64012856Y-47575735D02*
X63977142Y-47504307D01*
X63977142Y-47504307D02*
X63905713Y-47432878D01*
X63905713Y-47432878D02*
X63798570Y-47397164D01*
X63798570Y-47397164D02*
X63727142Y-47397164D01*
X63727142Y-47397164D02*
X63619999Y-47432878D01*
X63619999Y-47432878D02*
X63584285Y-47468592D01*
X62905713Y-48147164D02*
X63262856Y-48147164D01*
X63262856Y-48147164D02*
X63262856Y-47397164D01*
X64780713Y-42269450D02*
X64673571Y-42305164D01*
X64673571Y-42305164D02*
X64494999Y-42305164D01*
X64494999Y-42305164D02*
X64423571Y-42269450D01*
X64423571Y-42269450D02*
X64387856Y-42233735D01*
X64387856Y-42233735D02*
X64352142Y-42162307D01*
X64352142Y-42162307D02*
X64352142Y-42090878D01*
X64352142Y-42090878D02*
X64387856Y-42019450D01*
X64387856Y-42019450D02*
X64423571Y-41983735D01*
X64423571Y-41983735D02*
X64494999Y-41948021D01*
X64494999Y-41948021D02*
X64637856Y-41912307D01*
X64637856Y-41912307D02*
X64709285Y-41876592D01*
X64709285Y-41876592D02*
X64744999Y-41840878D01*
X64744999Y-41840878D02*
X64780713Y-41769450D01*
X64780713Y-41769450D02*
X64780713Y-41698021D01*
X64780713Y-41698021D02*
X64744999Y-41626592D01*
X64744999Y-41626592D02*
X64709285Y-41590878D01*
X64709285Y-41590878D02*
X64637856Y-41555164D01*
X64637856Y-41555164D02*
X64459285Y-41555164D01*
X64459285Y-41555164D02*
X64352142Y-41590878D01*
X64030713Y-42305164D02*
X64030713Y-41555164D01*
X64030713Y-41555164D02*
X63852142Y-41555164D01*
X63852142Y-41555164D02*
X63744999Y-41590878D01*
X63744999Y-41590878D02*
X63673570Y-41662307D01*
X63673570Y-41662307D02*
X63637856Y-41733735D01*
X63637856Y-41733735D02*
X63602142Y-41876592D01*
X63602142Y-41876592D02*
X63602142Y-41983735D01*
X63602142Y-41983735D02*
X63637856Y-42126592D01*
X63637856Y-42126592D02*
X63673570Y-42198021D01*
X63673570Y-42198021D02*
X63744999Y-42269450D01*
X63744999Y-42269450D02*
X63852142Y-42305164D01*
X63852142Y-42305164D02*
X64030713Y-42305164D01*
X63316427Y-42090878D02*
X62959285Y-42090878D01*
X63387856Y-42305164D02*
X63137856Y-41555164D01*
X63137856Y-41555164D02*
X62887856Y-42305164D01*
X130562532Y-43178189D02*
X130916086Y-43885296D01*
X130916086Y-43885296D02*
X130208979Y-43531743D01*
X130208979Y-44491388D02*
X130259486Y-44491388D01*
X130259486Y-44491388D02*
X130360502Y-44440880D01*
X130360502Y-44440880D02*
X130411009Y-44390372D01*
X130411009Y-44390372D02*
X130461517Y-44289357D01*
X130461517Y-44289357D02*
X130461517Y-44188342D01*
X130461517Y-44188342D02*
X130436263Y-44112580D01*
X130436263Y-44112580D02*
X130360502Y-43986311D01*
X130360502Y-43986311D02*
X130284740Y-43910550D01*
X130284740Y-43910550D02*
X130158471Y-43834788D01*
X130158471Y-43834788D02*
X130082710Y-43809535D01*
X130082710Y-43809535D02*
X129981695Y-43809535D01*
X129981695Y-43809535D02*
X129880679Y-43860042D01*
X129880679Y-43860042D02*
X129830172Y-43910550D01*
X129830172Y-43910550D02*
X129779664Y-44011565D01*
X129779664Y-44011565D02*
X129779664Y-44062073D01*
X129678649Y-45021718D02*
X129729156Y-45021718D01*
X129729156Y-45021718D02*
X129830172Y-44971210D01*
X129830172Y-44971210D02*
X129880679Y-44920702D01*
X129880679Y-44920702D02*
X129931187Y-44819687D01*
X129931187Y-44819687D02*
X129931187Y-44718672D01*
X129931187Y-44718672D02*
X129905933Y-44642910D01*
X129905933Y-44642910D02*
X129830172Y-44516641D01*
X129830172Y-44516641D02*
X129754410Y-44440880D01*
X129754410Y-44440880D02*
X129628141Y-44365119D01*
X129628141Y-44365119D02*
X129552380Y-44339865D01*
X129552380Y-44339865D02*
X129451364Y-44339865D01*
X129451364Y-44339865D02*
X129350349Y-44390372D01*
X129350349Y-44390372D02*
X129299842Y-44440880D01*
X129299842Y-44440880D02*
X129249334Y-44541895D01*
X129249334Y-44541895D02*
X129249334Y-44592403D01*
X134722341Y-39068889D02*
X134747594Y-38993127D01*
X134747594Y-38993127D02*
X134823356Y-38917366D01*
X134823356Y-38917366D02*
X134924371Y-38866858D01*
X134924371Y-38866858D02*
X135025386Y-38866858D01*
X135025386Y-38866858D02*
X135101148Y-38892112D01*
X135101148Y-38892112D02*
X135227417Y-38967873D01*
X135227417Y-38967873D02*
X135303178Y-39043635D01*
X135303178Y-39043635D02*
X135378940Y-39169904D01*
X135378940Y-39169904D02*
X135404193Y-39245665D01*
X135404193Y-39245665D02*
X135404193Y-39346681D01*
X135404193Y-39346681D02*
X135353686Y-39447696D01*
X135353686Y-39447696D02*
X135303178Y-39498204D01*
X135303178Y-39498204D02*
X135202163Y-39548711D01*
X135202163Y-39548711D02*
X135151655Y-39548711D01*
X135151655Y-39548711D02*
X134974879Y-39371934D01*
X134974879Y-39371934D02*
X135075894Y-39270919D01*
X134974879Y-39826503D02*
X134444549Y-39296173D01*
X134444549Y-39296173D02*
X134242518Y-39498204D01*
X134242518Y-39498204D02*
X134217264Y-39573965D01*
X134217264Y-39573965D02*
X134217264Y-39624473D01*
X134217264Y-39624473D02*
X134242518Y-39700234D01*
X134242518Y-39700234D02*
X134318279Y-39775995D01*
X134318279Y-39775995D02*
X134394041Y-39801249D01*
X134394041Y-39801249D02*
X134444549Y-39801249D01*
X134444549Y-39801249D02*
X134520310Y-39775995D01*
X134520310Y-39775995D02*
X134722341Y-39573965D01*
X134444549Y-40356833D02*
X133914218Y-39826503D01*
X133560665Y-40180057D02*
X133459650Y-40281072D01*
X133459650Y-40281072D02*
X133434396Y-40356833D01*
X133434396Y-40356833D02*
X133434396Y-40457849D01*
X133434396Y-40457849D02*
X133510157Y-40584118D01*
X133510157Y-40584118D02*
X133686934Y-40760894D01*
X133686934Y-40760894D02*
X133813203Y-40836656D01*
X133813203Y-40836656D02*
X133914218Y-40836656D01*
X133914218Y-40836656D02*
X133989980Y-40811402D01*
X133989980Y-40811402D02*
X134090995Y-40710387D01*
X134090995Y-40710387D02*
X134116249Y-40634625D01*
X134116249Y-40634625D02*
X134116249Y-40533610D01*
X134116249Y-40533610D02*
X134040487Y-40407341D01*
X134040487Y-40407341D02*
X133863711Y-40230564D01*
X133863711Y-40230564D02*
X133737442Y-40154803D01*
X133737442Y-40154803D02*
X133636426Y-40154803D01*
X133636426Y-40154803D02*
X133560665Y-40180057D01*
X133156604Y-40584117D02*
X132803051Y-40937671D01*
X132803051Y-40937671D02*
X133560665Y-41240717D01*
X136918816Y-46093893D02*
X136868309Y-46194908D01*
X136868309Y-46194908D02*
X136742039Y-46321177D01*
X136742039Y-46321177D02*
X136666278Y-46346431D01*
X136666278Y-46346431D02*
X136615770Y-46346431D01*
X136615770Y-46346431D02*
X136540009Y-46321177D01*
X136540009Y-46321177D02*
X136489501Y-46270670D01*
X136489501Y-46270670D02*
X136464248Y-46194908D01*
X136464248Y-46194908D02*
X136464248Y-46144401D01*
X136464248Y-46144401D02*
X136489501Y-46068639D01*
X136489501Y-46068639D02*
X136565263Y-45942370D01*
X136565263Y-45942370D02*
X136590517Y-45866609D01*
X136590517Y-45866609D02*
X136590517Y-45816101D01*
X136590517Y-45816101D02*
X136565263Y-45740340D01*
X136565263Y-45740340D02*
X136514755Y-45689832D01*
X136514755Y-45689832D02*
X136438994Y-45664578D01*
X136438994Y-45664578D02*
X136388486Y-45664578D01*
X136388486Y-45664578D02*
X136312725Y-45689832D01*
X136312725Y-45689832D02*
X136186456Y-45816101D01*
X136186456Y-45816101D02*
X136135948Y-45917116D01*
X136060186Y-46902015D02*
X136110694Y-46902015D01*
X136110694Y-46902015D02*
X136211709Y-46851508D01*
X136211709Y-46851508D02*
X136262217Y-46801000D01*
X136262217Y-46801000D02*
X136312724Y-46699985D01*
X136312724Y-46699985D02*
X136312724Y-46598969D01*
X136312724Y-46598969D02*
X136287471Y-46523208D01*
X136287471Y-46523208D02*
X136211709Y-46396939D01*
X136211709Y-46396939D02*
X136135948Y-46321177D01*
X136135948Y-46321177D02*
X136009679Y-46245416D01*
X136009679Y-46245416D02*
X135933917Y-46220162D01*
X135933917Y-46220162D02*
X135832902Y-46220162D01*
X135832902Y-46220162D02*
X135731887Y-46270670D01*
X135731887Y-46270670D02*
X135681379Y-46321177D01*
X135681379Y-46321177D02*
X135630871Y-46422193D01*
X135630871Y-46422193D02*
X135630871Y-46472700D01*
X135630871Y-47432345D02*
X135883410Y-47179807D01*
X135883410Y-47179807D02*
X135353080Y-46649477D01*
X134415659Y-47637407D02*
X134440912Y-47561645D01*
X134440912Y-47561645D02*
X134516674Y-47485884D01*
X134516674Y-47485884D02*
X134617689Y-47435376D01*
X134617689Y-47435376D02*
X134718704Y-47435376D01*
X134718704Y-47435376D02*
X134794466Y-47460630D01*
X134794466Y-47460630D02*
X134920735Y-47536391D01*
X134920735Y-47536391D02*
X134996496Y-47612153D01*
X134996496Y-47612153D02*
X135072258Y-47738422D01*
X135072258Y-47738422D02*
X135097511Y-47814183D01*
X135097511Y-47814183D02*
X135097511Y-47915199D01*
X135097511Y-47915199D02*
X135047004Y-48016214D01*
X135047004Y-48016214D02*
X134996496Y-48066722D01*
X134996496Y-48066722D02*
X134895481Y-48117229D01*
X134895481Y-48117229D02*
X134844973Y-48117229D01*
X134844973Y-48117229D02*
X134668197Y-47940452D01*
X134668197Y-47940452D02*
X134769212Y-47839437D01*
X134668197Y-48395021D02*
X134137867Y-47864691D01*
X134137867Y-47864691D02*
X134365151Y-48698067D01*
X134365151Y-48698067D02*
X133834821Y-48167737D01*
X134112613Y-48950605D02*
X133582283Y-48420275D01*
X133582283Y-48420275D02*
X133456014Y-48546544D01*
X133456014Y-48546544D02*
X133405506Y-48647559D01*
X133405506Y-48647559D02*
X133405506Y-48748574D01*
X133405506Y-48748574D02*
X133430760Y-48824336D01*
X133430760Y-48824336D02*
X133506521Y-48950605D01*
X133506521Y-48950605D02*
X133582283Y-49026366D01*
X133582283Y-49026366D02*
X133708552Y-49102128D01*
X133708552Y-49102128D02*
X133784313Y-49127381D01*
X133784313Y-49127381D02*
X133885329Y-49127381D01*
X133885329Y-49127381D02*
X133986344Y-49076874D01*
X133986344Y-49076874D02*
X134112613Y-48950605D01*
X138853259Y-43199807D02*
X138878512Y-43124045D01*
X138878512Y-43124045D02*
X138954274Y-43048284D01*
X138954274Y-43048284D02*
X139055289Y-42997776D01*
X139055289Y-42997776D02*
X139156304Y-42997776D01*
X139156304Y-42997776D02*
X139232066Y-43023030D01*
X139232066Y-43023030D02*
X139358335Y-43098791D01*
X139358335Y-43098791D02*
X139434096Y-43174553D01*
X139434096Y-43174553D02*
X139509858Y-43300822D01*
X139509858Y-43300822D02*
X139535111Y-43376583D01*
X139535111Y-43376583D02*
X139535111Y-43477599D01*
X139535111Y-43477599D02*
X139484604Y-43578614D01*
X139484604Y-43578614D02*
X139434096Y-43629122D01*
X139434096Y-43629122D02*
X139333081Y-43679629D01*
X139333081Y-43679629D02*
X139282573Y-43679629D01*
X139282573Y-43679629D02*
X139105797Y-43502852D01*
X139105797Y-43502852D02*
X139206812Y-43401837D01*
X139105797Y-43957421D02*
X138575467Y-43427091D01*
X138575467Y-43427091D02*
X138373436Y-43629122D01*
X138373436Y-43629122D02*
X138348182Y-43704883D01*
X138348182Y-43704883D02*
X138348182Y-43755391D01*
X138348182Y-43755391D02*
X138373436Y-43831152D01*
X138373436Y-43831152D02*
X138449197Y-43906913D01*
X138449197Y-43906913D02*
X138524959Y-43932167D01*
X138524959Y-43932167D02*
X138575467Y-43932167D01*
X138575467Y-43932167D02*
X138651228Y-43906913D01*
X138651228Y-43906913D02*
X138853259Y-43704883D01*
X138575467Y-44487751D02*
X138045136Y-43957421D01*
X137691583Y-44310975D02*
X137590568Y-44411990D01*
X137590568Y-44411990D02*
X137565314Y-44487751D01*
X137565314Y-44487751D02*
X137565314Y-44588767D01*
X137565314Y-44588767D02*
X137641075Y-44715036D01*
X137641075Y-44715036D02*
X137817852Y-44891812D01*
X137817852Y-44891812D02*
X137944121Y-44967574D01*
X137944121Y-44967574D02*
X138045136Y-44967574D01*
X138045136Y-44967574D02*
X138120898Y-44942320D01*
X138120898Y-44942320D02*
X138221913Y-44841305D01*
X138221913Y-44841305D02*
X138247167Y-44765543D01*
X138247167Y-44765543D02*
X138247167Y-44664528D01*
X138247167Y-44664528D02*
X138171405Y-44538259D01*
X138171405Y-44538259D02*
X137994629Y-44361482D01*
X137994629Y-44361482D02*
X137868360Y-44285721D01*
X137868360Y-44285721D02*
X137767344Y-44285721D01*
X137767344Y-44285721D02*
X137691583Y-44310975D01*
X137009730Y-44992827D02*
X137110745Y-44891812D01*
X137110745Y-44891812D02*
X137186507Y-44866558D01*
X137186507Y-44866558D02*
X137237015Y-44866558D01*
X137237015Y-44866558D02*
X137363284Y-44891812D01*
X137363284Y-44891812D02*
X137489553Y-44967574D01*
X137489553Y-44967574D02*
X137691583Y-45169604D01*
X137691583Y-45169604D02*
X137716837Y-45245365D01*
X137716837Y-45245365D02*
X137716837Y-45295873D01*
X137716837Y-45295873D02*
X137691583Y-45371635D01*
X137691583Y-45371635D02*
X137590568Y-45472650D01*
X137590568Y-45472650D02*
X137514806Y-45497904D01*
X137514806Y-45497904D02*
X137464299Y-45497904D01*
X137464299Y-45497904D02*
X137388537Y-45472650D01*
X137388537Y-45472650D02*
X137262268Y-45346381D01*
X137262268Y-45346381D02*
X137237015Y-45270619D01*
X137237015Y-45270619D02*
X137237015Y-45220112D01*
X137237015Y-45220112D02*
X137262268Y-45144350D01*
X137262268Y-45144350D02*
X137363284Y-45043335D01*
X137363284Y-45043335D02*
X137439045Y-45018081D01*
X137439045Y-45018081D02*
X137489553Y-45018081D01*
X137489553Y-45018081D02*
X137565314Y-45043335D01*
X132800526Y-41950349D02*
X132750018Y-42051364D01*
X132750018Y-42051364D02*
X132623749Y-42177633D01*
X132623749Y-42177633D02*
X132547988Y-42202887D01*
X132547988Y-42202887D02*
X132497480Y-42202887D01*
X132497480Y-42202887D02*
X132421719Y-42177633D01*
X132421719Y-42177633D02*
X132371211Y-42127126D01*
X132371211Y-42127126D02*
X132345957Y-42051364D01*
X132345957Y-42051364D02*
X132345957Y-42000857D01*
X132345957Y-42000857D02*
X132371211Y-41925095D01*
X132371211Y-41925095D02*
X132446973Y-41798826D01*
X132446973Y-41798826D02*
X132472226Y-41723065D01*
X132472226Y-41723065D02*
X132472226Y-41672557D01*
X132472226Y-41672557D02*
X132446973Y-41596796D01*
X132446973Y-41596796D02*
X132396465Y-41546288D01*
X132396465Y-41546288D02*
X132320704Y-41521034D01*
X132320704Y-41521034D02*
X132270196Y-41521034D01*
X132270196Y-41521034D02*
X132194434Y-41546288D01*
X132194434Y-41546288D02*
X132068165Y-41672557D01*
X132068165Y-41672557D02*
X132017658Y-41773572D01*
X132295450Y-42505933D02*
X131765119Y-41975603D01*
X131765119Y-41975603D02*
X131638850Y-42101872D01*
X131638850Y-42101872D02*
X131588343Y-42202887D01*
X131588343Y-42202887D02*
X131588343Y-42303903D01*
X131588343Y-42303903D02*
X131613597Y-42379664D01*
X131613597Y-42379664D02*
X131689358Y-42505933D01*
X131689358Y-42505933D02*
X131765119Y-42581695D01*
X131765119Y-42581695D02*
X131891389Y-42657456D01*
X131891389Y-42657456D02*
X131967150Y-42682710D01*
X131967150Y-42682710D02*
X132068165Y-42682710D01*
X132068165Y-42682710D02*
X132169180Y-42632202D01*
X132169180Y-42632202D02*
X132295450Y-42505933D01*
X131638850Y-42859487D02*
X131386312Y-43112025D01*
X131840881Y-42960502D02*
X131133774Y-42606948D01*
X131133774Y-42606948D02*
X131487327Y-43314055D01*
%TO.C,J5*%
X67945000Y-124380000D02*
X67945000Y-138380000D01*
X67945000Y-124380000D02*
X67945000Y-138380000D01*
X69935000Y-122180000D02*
X102445000Y-122180000D01*
X69945000Y-140580000D02*
X69945000Y-122180000D01*
X69945000Y-140580000D02*
X69945000Y-122180000D01*
X102445000Y-140580000D02*
X69925000Y-140580000D01*
D11*
%TO.C,J10*%
X127860000Y-85970000D02*
X127860000Y-92090000D01*
X127860000Y-88530000D02*
X132220000Y-88530000D01*
X127860000Y-90330000D02*
X130120000Y-90330000D01*
X127860000Y-90830000D02*
X130120000Y-90830000D01*
X127860000Y-92090000D02*
X135680000Y-92090000D01*
X130120000Y-86730000D02*
X131720000Y-86730000D01*
X130120000Y-87730000D02*
X130120000Y-86730000D01*
X130120000Y-90330000D02*
X130120000Y-91330000D01*
X130120000Y-91330000D02*
X131720000Y-91330000D01*
X131720000Y-86730000D02*
X131720000Y-87730000D01*
X131720000Y-87730000D02*
X130120000Y-87730000D01*
X131720000Y-90330000D02*
X130120000Y-90330000D01*
X131720000Y-91330000D02*
X131720000Y-90330000D01*
X132220000Y-88530000D02*
X132220000Y-89530000D01*
X132220000Y-89530000D02*
X127860000Y-89530000D01*
X134080000Y-86890000D02*
X134080000Y-85970000D01*
X134080000Y-86890000D02*
X135680000Y-86890000D01*
X134080000Y-87170000D02*
X134080000Y-86890000D01*
X134080000Y-91170000D02*
X134080000Y-90890000D01*
X134080000Y-91170000D02*
X134080000Y-92090000D01*
X135295000Y-90890000D02*
X134080000Y-90890000D01*
X135680000Y-85970000D02*
X127860000Y-85970000D01*
X135680000Y-86890000D02*
X135680000Y-85970000D01*
X135680000Y-91170000D02*
X134080000Y-91170000D01*
X135680000Y-92090000D02*
X135680000Y-91170000D01*
D10*
%TO.C,J2*%
X102445000Y-122180000D02*
X134965000Y-122180000D01*
X134945000Y-122180000D02*
X134945000Y-140580000D01*
X134945000Y-122180000D02*
X134945000Y-140580000D01*
X134955000Y-140580000D02*
X102445000Y-140580000D01*
X136945000Y-138380000D02*
X136945000Y-124380000D01*
X136945000Y-138380000D02*
X136945000Y-124380000D01*
%TD*%
%LPC*%
D12*
%TO.C,H2*%
X75000000Y-37000000D03*
%TD*%
D13*
%TO.C,H1*%
X125000000Y-37500000D03*
%TD*%
D14*
%TO.C,J3*%
X61390000Y-43510000D03*
D15*
X61390000Y-46050000D03*
D16*
X63930000Y-43510000D03*
X63930000Y-46050000D03*
D15*
X66470000Y-43510000D03*
X66470000Y-46050000D03*
%TD*%
D17*
%TO.C,J4*%
X131280131Y-45225147D03*
D15*
X133076182Y-47021199D03*
D18*
X133076182Y-43429096D03*
X134872233Y-45225147D03*
D15*
X134872233Y-41633045D03*
X136668284Y-43429096D03*
%TD*%
D19*
%TO.C,J9*%
X140455000Y-86000000D03*
X140455000Y-80220000D03*
D20*
X139955000Y-87430000D03*
D21*
X144135000Y-87430000D03*
D20*
X139955000Y-78790000D03*
D21*
X144135000Y-78790000D03*
%TD*%
D22*
%TO.C,J5*%
X82320000Y-131380000D03*
D23*
X81545000Y-133920000D03*
X81545000Y-128840000D03*
X73945000Y-131380000D03*
D24*
X66320000Y-131380000D03*
%TD*%
D25*
%TO.C,J10*%
X134220000Y-90030000D03*
D26*
X134220000Y-88030000D03*
%TD*%
D27*
%TO.C,J2*%
X122570000Y-131380000D03*
D23*
X123345000Y-128840000D03*
X123345000Y-133920000D03*
X130945000Y-131380000D03*
D28*
X138570000Y-131380000D03*
%TD*%
%LPD*%
M02*
